<svg xmlns="http://www.w3.org/2000/svg" viewBox="0 0 1712.35 220.44"><defs><style>.cls-1,.cls-2,.cls-3,.cls-4{fill:none;}.cls-2,.cls-3,.cls-4{stroke:#fff;stroke-linecap:round;stroke-linejoin:round;}.cls-2{stroke-width:2.5px;}.cls-3{stroke-width:2.04px;}.cls-4{stroke-width:2.25px;}</style></defs><title>clouds</title><g id="Layer_2" data-name="Layer 2"><g id="Layer_9" data-name="Layer 9"><rect class="cls-1" y="1.13" width="1712.35" height="219.32"/><path class="cls-2" d="M797.44,194.93c-4.36-15.68,17.78-16.74,19.77-4.57,9.76-10.38,23.34,2,14.42,9,16.55,4.29-3.27,33-21.92,9.35-12.93-11.23,15.61-12.8-1.37.92C790.54,224,763.27,192.71,797.44,194.93Z"/><path class="cls-3" d="M196.83,20.56c-13.13-16.25,19.23-27.23,18-1.77,11.61-20,38.82-.68,20.37,8.21,13.19,18.5-19.2,37.52-30.77,14.65-12.42-19.43,25.22-13.34-2.24.25C182.63,51.61,163.15,15.74,196.83,20.56Z"/><path class="cls-4" d="M1314.22,22.92c-7.46-17.75,23.65-29.73,20.54-13.71,9.29-13.1,30.69-8.48,16.09,1.11C1369.2,8.83,1376,46.69,1335,35.08c-16.66-5.24,14.3-20.41,2.9,1.28-13.16,25.06-43.06,11.81-42.95-3.41C1295,21.73,1304.67,14.63,1314.22,22.92Z"/></g></g></svg>