<svg xmlns="http://www.w3.org/2000/svg" viewBox="0 0 1714.6 307.13"><defs><style>.cls-1{fill:#fff;}.cls-2{fill:#a7a8aa;}.cls-10,.cls-3,.cls-4,.cls-5,.cls-6,.cls-7,.cls-9{fill:none;stroke-linecap:round;stroke-linejoin:round;}.cls-3,.cls-4{stroke:#000;}.cls-3{stroke-width:2.26px;}.cls-10,.cls-4,.cls-9{stroke-width:2.25px;}.cls-10,.cls-5,.cls-6,.cls-7{stroke:#fff;}.cls-5{stroke-width:2.5px;}.cls-6{stroke-width:2px;}.cls-7{stroke-width:2.04px;}.cls-8{fill:#060808;}.cls-9{stroke:#060808;}</style></defs><title>image1</title><g id="Layer_2" data-name="Layer 2"><g id="Layer_9" data-name="Layer 9"><polygon class="cls-1" points="1109.59 188.99 1111.62 162.92 1130.26 162.66 1129.33 172.91 1112.8 174.84 1112.25 189.84 1109.59 188.99"/><path class="cls-2" d="M1071.51,220.66l20.67-33.16,36-.19,25.68,33.13Z"/><polygon class="cls-2" points="1050.5 202.56 1063.08 181.97 1073.95 202.56 1050.5 202.56"/><rect class="cls-3" x="255.89" y="67.49" width="29.28" height="15.87"/><line class="cls-3" x1="276.09" y1="67.49" x2="276.09" y2="83.36"/><line class="cls-3" x1="264.49" y1="67.49" x2="264.49" y2="83.36"/><polygon class="cls-2" points="276.88 104.04 292.66 104.04 295.54 186.64 271.3 195.43 276.88 104.04"/><polygon class="cls-1" points="242.61 194.75 248.97 104.8 276.88 104.04 271.3 195.43 242.61 194.75"/><polygon class="cls-2" points="277.89 122.03 248.63 109.61 248.97 104.8 281.89 104.8 277.89 122.03"/><path class="cls-1" d="M238.14,104l-2.23-15.75a3.31,3.31,0,0,1,3.25-3.77c14.34-.11,64.59-.33,67.41,1.8,3.28,2.49-11,19-11,19S241.09,105.69,238.14,104Z"/><path d="M260.2,120.44h0a1.82,1.82,0,0,1,1.82,1.82V130a0,0,0,0,1,0,0h-3.63a0,0,0,0,1,0,0v-7.73A1.82,1.82,0,0,1,260.2,120.44Z"/><path d="M262,149.48H258.2V141.8a1.86,1.86,0,0,1,1.86-1.86h.09A1.86,1.86,0,0,1,262,141.8Z"/><path d="M261.59,168.53l-3.81.45V161.3a1.86,1.86,0,0,1,1.86-1.86h.09a1.86,1.86,0,0,1,1.86,1.86Z"/><polygon points="277.89 58.96 263 58.96 259.69 67.84 282.97 67.39 277.89 58.96"/><path d="M270.67,44.45h0a2,2,0,0,1,2,2V59.81a0,0,0,0,1,0,0h-4.09a0,0,0,0,1,0,0V46.5A2,2,0,0,1,270.67,44.45Z"/><polygon points="285.17 76.75 255.89 75.42 255.89 83.36 285.17 83.36 285.17 76.75"/><path d="M505.23,265.16c-3.22-1.5-10.88-1.91-10.88-1.91s.88,6.62,5.78,9.71c3,1.89,9.75,0,9.75,0S510,267.39,505.23,265.16Z"/><path d="M516,270.23c2.24-1.27,8-.63,8-.63s-2.57,5.46-4.87,6.63-7.06-.66-7.06-.66A7.54,7.54,0,0,1,516,270.23Z"/><path d="M514.75,255.74a37.11,37.11,0,0,1,6.33-1.57s-2.57,5.1-4.49,6.42-5.46.32-5.46.32S510.53,257.5,514.75,255.74Z"/><path d="M502.65,260.71c-1.86-1.32-4.41-6-4.41-6s4.51-.06,6.45,1.13a7.2,7.2,0,0,1,3.15,5.76S504.51,262,502.65,260.71Z"/><path d="M505.19,251.55c-4.12-1-4.12-4.24-4.12-4.24s4.29-.14,6,.8S510,252.2,510,252.2A34.48,34.48,0,0,1,505.19,251.55Z"/><path d="M507.06,244.79c-1.3-.7-2.88-3.57-2.88-3.57s3.49-.58,4.79.13,1.95,3.55,1.95,3.55S508.37,245.5,507.06,244.79Z"/><path d="M516.22,251.5a8.28,8.28,0,0,0,3.72-3.5s-3.75-.76-5.29-.11-2.68,3.52-2.68,3.52S514.74,252.28,516.22,251.5Z"/><path d="M515.45,244.76a9.86,9.86,0,0,0,2.56-2.41s-2.58-.52-3.64-.07-1.84,2.42-1.84,2.42A5.69,5.69,0,0,0,515.45,244.76Z"/><path d="M508,237.78c-1-.7-2.21-3.58-2.21-3.58s2.68-.57,3.68.13,1.5,3.55,1.5,3.55S509,238.48,508,237.78Z"/><path d="M514.24,238.05a9.73,9.73,0,0,0,1.77-2.64s-2-.28-2.79.27-1.23,2.58-1.23,2.58A3.48,3.48,0,0,0,514.24,238.05Z"/><path d="M513.53,229.17c.43-2.32-1.79-4.18-1.79-4.18a8.13,8.13,0,0,0-1.58,4.31c0,1.24,1.94,2.74,1.94,2.74A8.47,8.47,0,0,0,513.53,229.17Z"/><path d="M562.38,274.25c2.91-2.26,10.36-4.56,10.36-4.56s.26,6.72-4,11c-2.62,2.6-9.57,2.42-9.57,2.42S558,277.63,562.38,274.25Z"/><path d="M552.37,275c-2-2.25-8.53-3.68-8.53-3.68s.76,7,2.83,9.2,8,1.89,8,1.89A8.87,8.87,0,0,0,552.37,275Z"/><path d="M554.46,262.61a42.62,42.62,0,0,0-6.29-4.2s.8,6.67,2.38,8.87,5.82,2.46,5.82,2.46S558.37,266.2,554.46,262.61Z"/><path d="M566.33,265.48c1.92-1.83,4.08-7.67,4.08-7.67s-5.17.64-7.21,2.34c-3.29,2.74-2.67,7.22-2.67,7.22S564.41,267.32,566.33,265.48Z"/><path d="M565.79,255c4.54-1.87,4-5.66,4-5.66s-4.94.59-6.76,2-2.64,5.27-2.64,5.27A39.65,39.65,0,0,0,565.79,255Z"/><path d="M566.76,246.71c1.24-1.18,2.13-4.92,2.13-4.92s-4.07.38-5.31,1.57-1.1,4.62-1.1,4.62S565.51,247.9,566.76,246.71Z"/><path d="M553.42,254.7a9.71,9.71,0,0,1-2-5.6s4.28,1.11,5.54,2.59.94,5.09.94,5.09S554.55,256.28,553.42,254.7Z"/><path d="M555.15,246c-1.3-1.52-2.34-5.56-2.34-5.56s4.11,1.41,5.41,2.94,1.29,5,1.29,5S556.45,247.56,555.15,246Z"/><path d="M566.1,238.1c1.34-1.31,2.82-5.48,2.82-5.48s-3.77.39-5.12,1.71-1.82,5.14-1.82,5.14S564.75,239.42,566.1,238.1Z"/><path d="M555.72,237.76c-.74-1.16-.86-4.6-.86-4.6s2.9.63,3.64,1.79.15,4.25.15,4.25S556.46,238.92,555.72,237.76Z"/><path d="M561.41,226.76c-1.5,2.88.11,6.18.11,6.18a12.49,12.49,0,0,0,3.62-5.06c.55-1.64-.9-4.35-.9-4.35A12.48,12.48,0,0,0,561.41,226.76Z"/><path d="M1457.22,175.69s2.71,15.88,1.58,19.64a.8.8,0,0,1-.16.26c-2.19,2.34-3.3,3-3.83,3.18a.62.62,0,0,0-.42.6V200a.65.65,0,0,0,.65.65h3.34a.63.63,0,0,0,.51-.25l3-4a.67.67,0,0,0,.12-.29c.25-1.62,2.23-15,0-16.77S1457.22,175.69,1457.22,175.69Z"/><path d="M1413,164.16s2.41,10.14,2.73,12.89c.35,3.11,2.38,13.84,2.78,16a.67.67,0,0,1-.22.62l-4.65,3.9a.65.65,0,0,0-.23.49v1.18a.65.65,0,0,0,.65.65h3.54a.63.63,0,0,0,.54-.3l3.33-5.17a.74.74,0,0,0,.1-.35V175.69S1418.42,170.85,1413,164.16Z"/><path d="M1473.64,176.06c-6.48-7.73-4.93-12.31-4.32-19.79.88-15.69-14.3-15-28-15s-8.62-2-14.38-2.8-8.15,1.15-11.2,1.15-5.58-7.87-11.59-7.87c-4.56,0-21.73,13.21-21.73,17.8s7.27,1.9,10.87,1.9,6.51,2.39,11.52-.48c0,5.47,19,19.15,19,27.25l2.69,17.55a.63.63,0,0,1-.18.54l-4.28,4.45a.63.63,0,0,0-.17.37l-.16,1.19a.64.64,0,0,0,.64.73H1427a.66.66,0,0,0,.59-.36c.7-1.46,3.26-6.87,3.26-8,0-1.37.08-15.87.08-19.77s21.1-1.95,23.35-1.95,8.74,4.45,12.69,9.35c3.63,4.49,2.38,12.9,2.15,14.24a.55.55,0,0,1-.16.32l-4.8,5.33a.63.63,0,0,0-.17.43v1.61a.66.66,0,0,0,.65.65H1469a.65.65,0,0,0,.6-.41l4-9.71a.55.55,0,0,0,.05-.17C1473.77,193.37,1475.07,180,1473.64,176.06ZM1402.42,144c-1.65,0-3-1.63-3-3.63a.81.81,0,1,1,1.62,0c0,1.08.63,2,1.38,2s1.38-.91,1.38-2a.81.81,0,1,1,1.62,0C1405.42,142.35,1404.08,144,1402.42,144Z"/><path class="cls-2" d="M601.56,289.66l35.57-38.57a1.85,1.85,0,0,1,2.67-.06l12.76,12.77a1.85,1.85,0,0,1,.13,2.48c-2.75,3.34-10.33,12.39-16.46,18.29-5.6,5.4,2.91,7.84,11.28-.87,11.19-11.63,59.88-67,68.47-76.8a1.85,1.85,0,0,1,2.69-.08l32.75,32.75a1.86,1.86,0,0,1,0,2.62l-32.73,32.72c-11,11-3.4,15.32,10.55,1.36l40.38-40.37a1.85,1.85,0,0,1,2.55-.07c6.37,5.81,35.23,30.93,61,34a1.85,1.85,0,0,1,.85,3.36c-45.14,30.84-124.39,30.94-154.62,30.94-26.52,0-65.76-8.8-76.92-11.44A1.84,1.84,0,0,1,601.56,289.66Z"/><path class="cls-1" d="M769.62,235.9l-13.43,13.42a1.85,1.85,0,0,0,2.12,3l2.31-1.12a1.85,1.85,0,0,1,2.64,1.92l-.66,4.79a1.85,1.85,0,0,0,3.3,1.39l4.35-5.61a1.85,1.85,0,0,1,3,.14c2.23,3.51,6.35,9.85,6.35,8.74v-9.46a1.85,1.85,0,0,1,2.22-1.81l2.39.48a1.85,1.85,0,0,0,1.63-3.17l-13.67-12.73A1.85,1.85,0,0,0,769.62,235.9Z"/><path class="cls-1" d="M716,206.91,694.75,231a1.85,1.85,0,0,0,2.21,2.88l4.86-2.43a1.86,1.86,0,0,1,2.68,1.8l-.47,6.12a1.86,1.86,0,0,0,3.45,1.08l5.35-9.17a1.86,1.86,0,0,1,3.27.12l.14.29a1.85,1.85,0,0,0,3.47-.4l.5-2.2a1.85,1.85,0,0,1,2.87-1.11c2.84,2,7.43,5.29,7.95,5.8s.36-2.4.21-4.7a1.85,1.85,0,0,1,2.4-1.88l.75.23a1.85,1.85,0,0,0,1.86-3.07l-17.58-17.58A1.86,1.86,0,0,0,716,206.91Z"/><path class="cls-1" d="M630.89,259.7l6.14-8.16a1.84,1.84,0,0,1,2.9-.07l5.49,6.59a1.85,1.85,0,0,1-1.85,3h0a1.85,1.85,0,0,0-2.17,1.15l-.35.92a1.85,1.85,0,0,1-3.32.3l-.57-1a1.85,1.85,0,0,0-2.37-.72l-1.65.76A1.85,1.85,0,0,1,630.89,259.7Z"/><path class="cls-4" d="M561.59,292.19c7.8,0,30.28.22,35.71-.25,10.8-.92,32.1-31.38,39.83-40.85a1.82,1.82,0,0,1,2.67-.06l12.74,12.75a1.84,1.84,0,0,1,.11,2.51c-2,2.28-6.46,7.39-13.08,14-9.08,9.08-1.73,13.07,7.94,3.4,7.77-7.77,59.56-66.66,68.47-76.79a1.84,1.84,0,0,1,2.69-.09l32.75,32.75a1.86,1.86,0,0,1,0,2.62l-32.73,32.72c-9.07,9.08-3.4,15.32,7.66,4.26l43.31-43.31a1.83,1.83,0,0,1,2.53-.08c13.67,12.81,47.8,40.92,103.62,40.92S1026,241.44,1050.5,241.44c21,0-1.17,21.38,0,0"/><path class="cls-4" d="M1370.49,120.94c33-54.91-33.9-32.5,5.59-.23,8.14,6.64,11.29-1.73,17.78-14.92,24.92-50.6-24.5-65.61-1.95,3.94,1.88,5.79,12.69,17.87,22.37.59,26.45-47.22-15.6-50.68-.87,1.47,2.33,8.27,9.51,10.09,21.71-1.47,26.08-24.73-17.3-50.32,0,5.3,2.61,8.39,13.08,2.55,23.46-9.45,18.59-21.49-10.91-43.92-4.78,4.88,0,18.89,84.53,72.57,259.67,72.57"/><path class="cls-4" d="M1050.5,241.07V202.56l14.88-24.34,14,24.34v64.95h-7.88V220.66l20.67-33.16h40.6l28.12,33.16v32.91h-7V241.41s116.58,6,216.59-120.47"/><path class="cls-4" d="M561.59,292.19c-156.59,0-240.43-60.26-302.23-60.26-87.11,0-61.79-33.08-40.77-37.31-5.79,3.47-23.63,22.75,42.86,22.75S315.21,185,303.66,185c5.77,10.39-6.23,20.93-38.52,20.93-31.7,0-39.8-6.29-34-11.26,7.93-6.75,8.54-11-5.93-11H1.12"/><rect class="cls-1" x="1061.55" y="212.63" width="2.44" height="7.81"/><rect class="cls-1" x="1061.55" y="230.55" width="2.44" height="7.81"/><rect class="cls-1" x="1097.64" y="230.55" width="2.44" height="7.81"/><rect class="cls-1" x="1112.99" y="230.55" width="2.44" height="7.81"/><rect class="cls-1" x="1097.64" y="245.76" width="2.44" height="7.81"/><rect class="cls-1" x="1114.32" y="245.76" width="2.44" height="7.81"/><rect class="cls-1" x="1132.89" y="230.55" width="2.44" height="7.81"/><path d="M962.54,219s5.13,9,4.82,8.87-3.86.18-3.86.18l3.19,5.32h-3.3l-.07,6.25-3,.33.58-7.08H957l4.21-5.23-4.21-.48Z"/><path d="M874.45,230.52s-10.12,14.29-9.49,14.13,7.74.18,7.74.18l-6.29,8.47,7.7-.09-1,12.44,4.49-.72.43-12.56,7.74-.09-8.54-8.15,8.43-.86Z"/><path d="M911.17,261.57c.14-1.17.75-20.94.75-20.94h6.5L910.8,232l5.62.79L909.48,222l3.75-.69-5.58-6.12L903.74,222h2.92l-5.43,10.61,6.56-.23-8.49,8h8.35l-2,21.58Z"/><polygon points="937.96 202.31 940.75 209.35 938.65 209.35 943.55 218.81 937.75 218.58 945.59 226.19 937.67 226.01 946.5 233.53 937.91 233.53 937.75 248.09 933.53 247.23 933.17 234.45 926.19 234.49 933.77 225.5 928.64 224.79 935.17 218.58 930.62 218.15 936.54 209.32 933.45 209.2 937.96 202.31"/><path class="cls-5" d="M798.57,194.93c-4.36-15.68,17.77-16.74,19.76-4.57,9.76-10.38,23.34,2,14.42,9,16.56,4.29-3.27,33-21.92,9.35-12.92-11.23,15.61-12.8-1.36.92C791.66,224,764.4,192.71,798.57,194.93Z"/><path class="cls-1" d="M479.28,233.3a59.45,59.45,0,0,0-7.42-3.67,50.06,50.06,0,0,0-7.9-2.41c-2.7-.58-5.46-.95-8.25-1.35a46.68,46.68,0,0,1-8.39-1.79c-5.44-1.92-10.39-4.62-15.39-7.17s-10-5.07-15.34-6.46a30,30,0,0,0-8.13-1.09,24.19,24.19,0,0,0-4.06.41c-1.34.27-2.68.61-4,1a59.46,59.46,0,0,1-8.28,2,41.56,41.56,0,0,1-8.56.3c-5.7-.4-11.19-1.78-16.7-2.73a62.32,62.32,0,0,0-16.62-1,.56.56,0,0,1-.61-.5.57.57,0,0,1,.5-.61,63.21,63.21,0,0,1,16.94.93c5.56.92,11,2.25,16.58,2.61a40,40,0,0,0,8.26-.35,58.16,58.16,0,0,0,8.08-2c1.35-.41,2.74-.78,4.15-1.07a24.93,24.93,0,0,1,4.31-.47,31.42,31.42,0,0,1,8.55,1.07c5.57,1.43,10.7,4,15.72,6.49a123.92,123.92,0,0,0,15.18,7c5.19,1.69,10.88,1.77,16.48,3a51.09,51.09,0,0,1,8.22,2.45,60.36,60.36,0,0,1,7.71,3.76,1,1,0,1,1-1,1.74h0Z"/><path class="cls-6" d="M471,236.84c-16.4-9.62-18.88-5.54-28.91-10.1-10.61-4.82-18.73-12.58-29.11-14.58-9.56-1.83-20.34,2.17-32.6,1.69"/><path class="cls-6" d="M463.05,239.7c-16.39-9.62-18.88-5.55-28.9-10.1C423.53,224.77,415.41,217,405,215"/><path class="cls-2" d="M465.64,219.2c-9.37-.19-80.37-3.18-97.52-12.29C375.11,217.15,422,230.91,465.64,219.2Z"/><path class="cls-1" d="M465.64,219.2c-29-15.56-60.09-25.65-97.52-12.29C391.7,215.77,428.37,221.45,465.64,219.2Z"/><path class="cls-4" d="M431.64,190.22c-2.58,1.71-4.42,3.23-7.62,5.79-9,7.22,9.42,11.18-.26-.72-4.23-5.48-5.48-7.52-8.88-5.69-5,2.68-7.7,3.94-11.86,1.87-13.3-6.62,7-16.76,3.15.55-.55,2.47-3.43,3-5.89,3.83-1.9.61-3.44,2-3.29,3.78.26,3,3.17,10.6,5.49,13,6,6.15,6-9.38-2.75-1.2-3.46,3.25-16.3,12.72-20.09,15.09-7.73.66-17.16,4.75-21.19,7.34,4.19,6.65,7.87,8.5,7.87,8.5s7.7-7.73,11.23-11.9"/><polygon points="1282.55 231.77 1287.53 217.47 1295.96 219.15 1296.05 230.6 1282.55 231.77"/><polygon points="1259.08 244.4 1261.7 235.07 1318.13 231.77 1320.7 238.54 1259.08 244.4"/><polygon points="1275.51 248.05 1275.63 245.8 1303.76 241.96 1305.97 249.36 1275.51 248.05"/><polygon points="1271.09 257.31 1274.01 250.96 1297.53 252.23 1297.55 255.3 1271.09 257.31"/><path d="M1263.65,266.1l1.26-7,43.23-1.26s3.09,10.64,2,10.08S1263.65,266.1,1263.65,266.1Z"/><polygon points="1270.18 267.93 1281.53 268.61 1280.61 286.92 1263.65 286.92 1270.18 267.93"/><polygon points="1293.26 285.95 1294.69 269.47 1302.43 269.66 1308.35 286.92 1293.26 285.95"/><path class="cls-7" d="M198,20.56c-13.14-16.25,19.23-27.23,18-1.77,11.6-20,38.82-.68,20.36,8.21,13.19,18.5-19.2,37.52-30.77,14.65-12.42-19.43,25.22-13.34-2.24.25C183.75,51.61,164.28,15.74,198,20.56Z"/><path class="cls-2" d="M1224.56,155.88C1231.9,142,1251,98.94,1255.44,90.3a1.41,1.41,0,0,1,1.91-.59l.05,0a1.41,1.41,0,0,1,.64,1.8l-30.78,71.89a4,4,0,0,1-2.62,2.3l-16.33,4.56a1.88,1.88,0,0,1-2.37-2l.85-7.67a1.88,1.88,0,0,1,1.52-1.63Z"/><polygon class="cls-1" points="1216.32 168.04 1213.68 169.22 1212.61 158.15 1214.46 157.69 1216.32 168.04"/><polygon class="cls-1" points="1221.85 166.75 1218.56 167.41 1217.56 156.98 1219.93 156.39 1221.85 166.75"/><path class="cls-1" d="M1251.43,148.62c-5.23-17.75-17.24-71.8-20.39-82.88a1.69,1.69,0,0,0-2.1-1.16h0a1.69,1.69,0,0,0-1.18,2l18.88,90.51a3.73,3.73,0,0,0,2.11,2.64l23.45,10.66a2.09,2.09,0,0,0,2.93-1.6l1.29-9a2.08,2.08,0,0,0-1.33-2.25Z"/><polygon class="cls-8" points="1253.03 161.66 1259.1 151.51 1261.52 151.83 1255.38 163.48 1253.03 161.66"/><polygon class="cls-8" points="1258.62 163.75 1264.08 153.38 1266.63 154.34 1261.52 165.52 1258.62 163.75"/><polygon class="cls-8" points="1264.08 166.56 1269.69 155.49 1271.67 156.24 1266.63 168.31 1264.08 166.56"/><path class="cls-8" d="M1223.67,192.18c0-2.23-4.19-4-9.35-4s-9.36,1.8-9.36,4,2.21,5,8.4,5C1218.53,197.15,1223.67,194.4,1223.67,192.18Z"/><path class="cls-8" d="M1204.69,197.16c4,2.43,12.68,3.4,19.93-.95,0,4.32-.95,5.28-.95,5.28s-10.3,2.95-18.71-.34A24.48,24.48,0,0,1,1204.69,197.16Z"/><polygon class="cls-1" points="234.62 273.28 231.99 273.28 230.68 266.83 234.62 266.83 234.62 273.28"/><path class="cls-9" d="M222,289.4c-.27-3-3.62-3.92-9.42-4.35,4.88-4.26-1.18-11.94-9.11-11.94a9.88,9.88,0,0,0-9.78,9.78c0,5.26,6.24,12.86,22.66,10.74,19.25-2.49,24,13.52-.35,12.3-22.34-1.11-36.76-11.43-36.76-30.07,0-27.12,36-22.92,36-22.92l1.94-5.2c10.83,0,19.89,8,22.1,14.26-5,4.29-6.27,5.35-6.27,5.35l-8.2-2.23-3.26,3.61c3.86,3.84,2.18,2.33,4.81,4.79,3.59,3.35-.1,7.35-4.78,3.87-3.11-2.3-5.76-4.67-5.76-4.67"/><polygon class="cls-8" points="234.13 254.66 231 260.88 234.99 265.68 238.89 261.74 234.13 254.66"/><polygon class="cls-8" points="222.2 255.32 228.04 255.29 224.71 257.92 222.2 255.32"/><path class="cls-10" d="M1315.34,22.92C1307.88,5.17,1339-6.81,1335.88,9.21c9.29-13.1,30.69-8.48,16.1,1.11,18.35-1.49,25.18,36.37-15.88,24.76-16.66-5.24,14.3-20.41,2.9,1.28-13.16,25.06-43.06,11.81-43-3.41C1296.13,21.73,1305.79,14.63,1315.34,22.92Z"/></g></g></svg>