<svg xmlns="http://www.w3.org/2000/svg" viewBox="0 0 1714.6 262.67"><defs><style>.cls-1{fill:#fff;}.cls-2{fill:#a7a8aa;}.cls-3,.cls-4,.cls-5,.cls-7{fill:none;stroke-linecap:round;stroke-linejoin:round;}.cls-3,.cls-4{stroke:#000;}.cls-3{stroke-width:2.26px;}.cls-4,.cls-7{stroke-width:2.25px;}.cls-5{stroke:#fff;stroke-width:2px;}.cls-6{fill:#060808;}.cls-7{stroke:#060808;}</style></defs><title>image1-1</title><g id="Layer_2" data-name="Layer 2"><g id="Layer_9" data-name="Layer 9"><polygon class="cls-1" points="1109.59 144.54 1111.62 118.47 1130.26 118.21 1129.33 128.46 1112.8 130.39 1112.25 145.38 1109.59 144.54"/><path class="cls-2" d="M1071.51,176.21l20.67-33.16,36-.19L1153.9,176Z"/><polygon class="cls-2" points="1050.5 158.11 1063.08 137.52 1073.95 158.11 1050.5 158.11"/><rect class="cls-3" x="255.89" y="23.04" width="29.28" height="15.87"/><line class="cls-3" x1="276.09" y1="23.04" x2="276.09" y2="38.91"/><line class="cls-3" x1="264.49" y1="23.04" x2="264.49" y2="38.91"/><polygon class="cls-2" points="276.88 59.59 292.66 59.59 295.54 142.19 271.3 150.98 276.88 59.59"/><polygon class="cls-1" points="242.61 150.29 248.97 60.35 276.88 59.59 271.3 150.98 242.61 150.29"/><polygon class="cls-2" points="277.89 77.58 248.63 65.16 248.97 60.35 281.89 60.35 277.89 77.58"/><path class="cls-1" d="M238.14,59.59l-2.23-15.75a3.32,3.32,0,0,1,3.25-3.78c14.34-.1,64.59-.32,67.41,1.81,3.28,2.49-11,19-11,19S241.09,61.24,238.14,59.59Z"/><path d="M260.2,76h0A1.82,1.82,0,0,1,262,77.8v7.73a0,0,0,0,1,0,0h-3.63a0,0,0,0,1,0,0V77.8A1.82,1.82,0,0,1,260.2,76Z"/><path d="M262,105H258.2V97.35a1.86,1.86,0,0,1,1.86-1.86h.09A1.86,1.86,0,0,1,262,97.35Z"/><path d="M261.59,124.08l-3.81.45v-7.68a1.87,1.87,0,0,1,1.86-1.87h.09a1.87,1.87,0,0,1,1.86,1.87Z"/><polygon points="277.89 14.51 263 14.51 259.69 23.39 282.97 22.94 277.89 14.51"/><path d="M270.67,0h0a2,2,0,0,1,2,2V15.36a0,0,0,0,1,0,0h-4.09a0,0,0,0,1,0,0V2a2,2,0,0,1,2-2Z"/><polygon points="285.17 32.3 255.89 30.97 255.89 38.91 285.17 38.91 285.17 32.3"/><path d="M505.23,220.71c-3.22-1.5-10.88-1.91-10.88-1.91s.88,6.62,5.78,9.71c3,1.89,9.75,0,9.75,0S510,222.94,505.23,220.71Z"/><path d="M516,225.78c2.24-1.27,8-.63,8-.63s-2.57,5.46-4.87,6.62-7.06-.65-7.06-.65A7.54,7.54,0,0,1,516,225.78Z"/><path d="M514.75,211.29a37.5,37.5,0,0,1,6.33-1.58s-2.57,5.11-4.49,6.43-5.46.32-5.46.32S510.53,213.05,514.75,211.29Z"/><path d="M502.65,216.26c-1.86-1.32-4.41-6-4.41-6s4.51-.06,6.45,1.13a7.2,7.2,0,0,1,3.15,5.76S504.51,217.58,502.65,216.26Z"/><path d="M505.19,207.1c-4.12-1-4.12-4.24-4.12-4.24s4.29-.14,6,.8,2.94,4.09,2.94,4.09A34.48,34.48,0,0,1,505.19,207.1Z"/><path d="M507.06,200.34c-1.3-.7-2.88-3.58-2.88-3.58s3.49-.57,4.79.14,1.95,3.55,1.95,3.55S508.37,201,507.06,200.34Z"/><path d="M516.22,207.05a8.28,8.28,0,0,0,3.72-3.5s-3.75-.76-5.29-.11S512,207,512,207,514.74,207.82,516.22,207.05Z"/><path d="M515.45,200.31A9.86,9.86,0,0,0,518,197.9s-2.58-.52-3.64-.07-1.84,2.42-1.84,2.42A5.69,5.69,0,0,0,515.45,200.31Z"/><path d="M508,193.33c-1-.71-2.21-3.58-2.21-3.58s2.68-.57,3.68.13,1.5,3.55,1.5,3.55S509,194,508,193.33Z"/><path d="M514.24,193.59A9.57,9.57,0,0,0,516,191s-2-.28-2.79.26-1.23,2.59-1.23,2.59A3.44,3.44,0,0,0,514.24,193.59Z"/><path d="M513.53,184.72c.43-2.32-1.79-4.19-1.79-4.19a8.17,8.17,0,0,0-1.58,4.31c0,1.25,1.94,2.75,1.94,2.75A8.47,8.47,0,0,0,513.53,184.72Z"/><path d="M562.38,229.8c2.91-2.26,10.36-4.56,10.36-4.56s.26,6.72-4,11c-2.62,2.6-9.57,2.42-9.57,2.42S558,233.18,562.38,229.8Z"/><path d="M552.37,230.55c-2-2.25-8.53-3.68-8.53-3.68s.76,7,2.83,9.2,8,1.89,8,1.89A8.87,8.87,0,0,0,552.37,230.55Z"/><path d="M554.46,218.16a42.62,42.62,0,0,0-6.29-4.2s.8,6.67,2.38,8.87,5.82,2.46,5.82,2.46S558.37,221.75,554.46,218.16Z"/><path d="M566.33,221c1.92-1.84,4.08-7.68,4.08-7.68s-5.17.65-7.21,2.35c-3.29,2.74-2.67,7.21-2.67,7.21S564.41,222.87,566.33,221Z"/><path d="M565.79,210.52c4.54-1.87,4-5.66,4-5.66s-4.94.59-6.76,2-2.64,5.27-2.64,5.27A39.65,39.65,0,0,0,565.79,210.52Z"/><path d="M566.76,202.26c1.24-1.19,2.13-4.92,2.13-4.92s-4.07.38-5.31,1.57-1.1,4.62-1.1,4.62S565.51,203.45,566.76,202.26Z"/><path d="M553.42,210.25a9.71,9.71,0,0,1-2-5.6s4.28,1.11,5.54,2.59.94,5.09.94,5.09S554.55,211.83,553.42,210.25Z"/><path d="M555.15,201.58c-1.3-1.52-2.34-5.56-2.34-5.56s4.11,1.41,5.41,2.94,1.29,5,1.29,5S556.45,203.11,555.15,201.58Z"/><path d="M566.1,193.65c1.34-1.32,2.82-5.48,2.82-5.48s-3.77.39-5.12,1.71S562,195,562,195,564.75,195,566.1,193.65Z"/><path d="M555.72,193.31c-.74-1.16-.86-4.6-.86-4.6s2.9.63,3.64,1.79.15,4.25.15,4.25S556.46,194.47,555.72,193.31Z"/><path d="M561.41,182.31c-1.5,2.88.11,6.18.11,6.18a12.49,12.49,0,0,0,3.62-5.06c.55-1.64-.9-4.35-.9-4.35A12.48,12.48,0,0,0,561.41,182.31Z"/><path d="M1457.22,131.24s2.71,15.88,1.58,19.63a.74.74,0,0,1-.16.27c-2.19,2.34-3.3,3-3.83,3.18a.62.62,0,0,0-.42.6v.66a.65.65,0,0,0,.65.65h3.34a.62.62,0,0,0,.51-.26l3-4a.67.67,0,0,0,.12-.29c.25-1.62,2.23-15,0-16.77S1457.22,131.24,1457.22,131.24Z"/><path d="M1413,119.71s2.41,10.14,2.73,12.89c.35,3.11,2.38,13.84,2.78,16a.64.64,0,0,1-.22.61l-4.65,3.9a.69.69,0,0,0-.23.5v1.18a.65.65,0,0,0,.65.65h3.54a.63.63,0,0,0,.54-.3l3.33-5.18a.68.68,0,0,0,.1-.35V131.24S1418.42,126.4,1413,119.71Z"/><path d="M1473.64,131.6c-6.48-7.72-4.93-12.3-4.32-19.78.88-15.69-14.3-15-28-15s-8.62-2-14.38-2.79-8.15,1.15-11.2,1.15-5.58-7.87-11.59-7.87c-4.56,0-21.73,13.21-21.73,17.8s7.27,1.9,10.87,1.9,6.51,2.39,11.52-.48c0,5.47,19,19.15,19,27.25l2.69,17.54a.65.65,0,0,1-.18.55l-4.28,4.45a.63.63,0,0,0-.17.37l-.16,1.19a.65.65,0,0,0,.64.73H1427a.66.66,0,0,0,.59-.36c.7-1.46,3.26-6.87,3.26-8.05,0-1.37.08-15.88.08-19.77s21.1-2,23.35-2,8.74,4.45,12.69,9.35c3.63,4.49,2.38,12.9,2.15,14.24a.58.58,0,0,1-.16.32l-4.8,5.33a.63.63,0,0,0-.17.43v1.61a.66.66,0,0,0,.65.65H1469a.65.65,0,0,0,.6-.41l4-9.71a.55.55,0,0,0,.05-.17C1473.77,148.92,1475.07,135.53,1473.64,131.6Zm-71.22-32.07c-1.65,0-3-1.63-3-3.63a.81.81,0,1,1,1.62,0c0,1.07.63,2,1.38,2s1.38-.92,1.38-2a.81.81,0,1,1,1.62,0C1405.42,97.9,1404.08,99.53,1402.42,99.53Z"/><path class="cls-2" d="M601.56,245.2l35.57-38.56a1.85,1.85,0,0,1,2.67-.06l12.76,12.77a1.84,1.84,0,0,1,.13,2.48c-2.75,3.34-10.33,12.39-16.46,18.29-5.6,5.4,2.91,7.83,11.28-.87,11.19-11.63,59.88-67,68.47-76.8a1.85,1.85,0,0,1,2.69-.08l32.75,32.75a1.86,1.86,0,0,1,0,2.62l-32.73,32.72c-11,11-3.4,15.32,10.55,1.36l40.38-40.37a1.85,1.85,0,0,1,2.55-.07c6.37,5.81,35.23,30.93,61,34a1.85,1.85,0,0,1,.85,3.35C788.89,259.6,709.64,259.7,679.41,259.7c-26.52,0-65.76-8.8-76.92-11.44A1.85,1.85,0,0,1,601.56,245.2Z"/><path class="cls-1" d="M769.62,191.45l-13.43,13.42a1.85,1.85,0,0,0,2.12,3l2.31-1.12a1.85,1.85,0,0,1,2.64,1.92l-.66,4.79a1.86,1.86,0,0,0,3.3,1.39l4.35-5.61a1.84,1.84,0,0,1,3,.14c2.23,3.51,6.35,9.84,6.35,8.74v-9.46a1.85,1.85,0,0,1,2.22-1.81l2.39.48a1.85,1.85,0,0,0,1.63-3.17l-13.67-12.73A1.85,1.85,0,0,0,769.62,191.45Z"/><path class="cls-1" d="M716,162.46l-21.22,24.13a1.85,1.85,0,0,0,2.21,2.88l4.86-2.43a1.86,1.86,0,0,1,2.68,1.8L704,195a1.85,1.85,0,0,0,3.45,1.07l5.35-9.16a1.86,1.86,0,0,1,3.27.12l.14.29a1.85,1.85,0,0,0,3.47-.4l.5-2.2a1.85,1.85,0,0,1,2.87-1.11c2.84,2,7.43,5.29,7.95,5.8s.36-2.4.21-4.7a1.84,1.84,0,0,1,2.4-1.88l.75.23a1.85,1.85,0,0,0,1.86-3.07l-17.58-17.58A1.85,1.85,0,0,0,716,162.46Z"/><path class="cls-1" d="M630.89,215.25l6.14-8.16a1.84,1.84,0,0,1,2.9-.07l5.49,6.59a1.85,1.85,0,0,1-1.85,3h0a1.85,1.85,0,0,0-2.17,1.15l-.35.92a1.85,1.85,0,0,1-3.32.3l-.57-1a1.87,1.87,0,0,0-2.37-.73l-1.65.77A1.85,1.85,0,0,1,630.89,215.25Z"/><path class="cls-4" d="M561.59,247.74c7.8,0,30.28.22,35.71-.25,10.8-.93,32.1-31.39,39.83-40.85a1.82,1.82,0,0,1,2.67-.06l12.74,12.75a1.84,1.84,0,0,1,.11,2.51c-2,2.28-6.46,7.39-13.08,14-9.08,9.07-1.73,13.07,7.94,3.4,7.77-7.77,59.56-66.66,68.47-76.79a1.84,1.84,0,0,1,2.69-.09l32.75,32.75a1.86,1.86,0,0,1,0,2.62l-32.73,32.72c-9.07,9.08-3.4,15.32,7.66,4.25l43.31-43.3a1.83,1.83,0,0,1,2.53-.08c13.67,12.81,47.8,40.92,103.62,40.92S1026,197,1050.5,197c21,0-1.17,21.38,0,0"/><path class="cls-4" d="M1370.49,76.49c33-54.91-33.9-32.5,5.59-.24,8.14,6.65,11.29-1.72,17.78-14.91,24.92-50.6-24.5-65.61-1.95,3.93,1.88,5.8,12.69,17.88,22.37.6,26.45-47.22-15.6-50.68-.87,1.47,2.33,8.27,9.51,10.09,21.71-1.47,26.08-24.73-17.3-50.32,0,5.29,2.61,8.4,13.08,2.56,23.46-9.45,18.59-21.48-10.91-43.92-4.78,4.89,0,18.89,84.53,72.57,259.67,72.57"/><path class="cls-4" d="M1050.5,196.62V158.11l14.88-24.34,14,24.34v64.95h-7.88V176.21l20.67-33.16h40.6l28.12,33.16v32.91h-7V197s116.58,5.95,216.59-120.47"/><path class="cls-4" d="M561.59,247.74c-156.59,0-240.43-60.26-302.23-60.26-87.11,0-61.79-33.08-40.77-37.32-5.79,3.48-23.63,22.76,42.86,22.76s53.76-32.38,42.21-32.38c5.77,10.39-6.23,20.93-38.52,20.93-31.7,0-39.8-6.3-34-11.27,7.93-6.74,8.54-11-5.93-11H1.12"/><rect class="cls-1" x="1061.55" y="168.18" width="2.44" height="7.81"/><rect class="cls-1" x="1061.55" y="186.1" width="2.44" height="7.81"/><rect class="cls-1" x="1097.64" y="186.1" width="2.44" height="7.81"/><rect class="cls-1" x="1112.99" y="186.1" width="2.44" height="7.81"/><rect class="cls-1" x="1097.64" y="201.3" width="2.44" height="7.81"/><rect class="cls-1" x="1114.32" y="201.3" width="2.44" height="7.81"/><rect class="cls-1" x="1132.89" y="186.1" width="2.44" height="7.81"/><path d="M962.54,174.58s5.13,9,4.82,8.87-3.86.18-3.86.18l3.19,5.31h-3.3l-.07,6.26-3,.33.58-7.08H957l4.21-5.23-4.21-.48Z"/><path d="M874.45,186.07S864.33,200.36,865,200.2s7.74.18,7.74.18l-6.29,8.47,7.7-.1-1,12.45,4.49-.72.43-12.56,7.74-.09-8.54-8.15,8.43-.86Z"/><path d="M911.17,217.11c.14-1.17.75-20.93.75-20.93h6.5l-7.62-8.65,5.62.79-6.94-10.75,3.75-.7-5.58-6.11-3.91,6.81h2.92l-5.43,10.61,6.56-.23-8.49,8h8.35l-2,21.58Z"/><polygon points="937.96 157.86 940.75 164.9 938.65 164.9 943.55 174.36 937.75 174.13 945.59 181.74 937.67 181.56 946.5 189.08 937.91 189.08 937.75 203.64 933.53 202.78 933.17 190 926.19 190.04 933.77 181.05 928.64 180.34 935.17 174.13 930.62 173.7 936.54 164.87 933.45 164.75 937.96 157.86"/><path class="cls-1" d="M479.28,188.85a59.45,59.45,0,0,0-7.42-3.67,49,49,0,0,0-7.9-2.41c-2.7-.59-5.46-1-8.25-1.35a46.68,46.68,0,0,1-8.39-1.79,125.64,125.64,0,0,1-15.39-7.18c-5-2.55-10-5.06-15.34-6.46a30.43,30.43,0,0,0-8.13-1.08,24.19,24.19,0,0,0-4.06.41c-1.34.27-2.68.61-4,1a58.1,58.1,0,0,1-8.28,2,41.56,41.56,0,0,1-8.56.3c-5.7-.41-11.19-1.78-16.7-2.73a62.32,62.32,0,0,0-16.62-1,.56.56,0,1,1-.11-1.11,62.8,62.8,0,0,1,16.94.93c5.56.92,11,2.25,16.58,2.61a40,40,0,0,0,8.26-.35,58.16,58.16,0,0,0,8.08-2c1.35-.41,2.74-.78,4.15-1.07a24.93,24.93,0,0,1,4.31-.47,31.42,31.42,0,0,1,8.55,1.07c5.57,1.42,10.7,4,15.72,6.49a123.92,123.92,0,0,0,15.18,7c5.19,1.69,10.88,1.77,16.48,3a50.1,50.1,0,0,1,8.22,2.45,61.66,61.66,0,0,1,7.71,3.75,1,1,0,0,1-1,1.75h0Z"/><path class="cls-5" d="M471,192.39c-16.4-9.62-18.88-5.54-28.91-10.1-10.61-4.82-18.73-12.59-29.11-14.58-9.56-1.84-20.34,2.17-32.6,1.69"/><path class="cls-5" d="M463.05,195.25c-16.39-9.62-18.88-5.55-28.9-10.1-10.62-4.83-18.74-12.59-29.11-14.59"/><path class="cls-2" d="M465.64,174.75c-9.37-.19-80.37-3.19-97.52-12.29C375.11,172.7,422,186.46,465.64,174.75Z"/><path class="cls-1" d="M465.64,174.75c-29-15.56-60.09-25.66-97.52-12.29C391.7,171.32,428.37,177,465.64,174.75Z"/><path class="cls-4" d="M431.64,145.77c-2.58,1.71-4.42,3.23-7.62,5.79-9,7.22,9.42,11.18-.26-.72-4.23-5.48-5.48-7.52-8.88-5.69-5,2.68-7.7,3.93-11.86,1.87-13.3-6.62,7-16.76,3.15.55-.55,2.47-3.43,3-5.89,3.83-1.9.61-3.44,1.95-3.29,3.78.26,3,3.17,10.6,5.49,13,6,6.15,6-9.38-2.75-1.2-3.46,3.24-16.3,12.72-20.09,15.09-7.73.66-17.16,4.75-21.19,7.34,4.19,6.65,7.87,8.5,7.87,8.5s7.7-7.73,11.23-11.9"/><polygon points="1282.55 187.32 1287.53 173.02 1295.96 174.7 1296.05 186.15 1282.55 187.32"/><polygon points="1259.08 199.95 1261.7 190.62 1318.13 187.32 1320.7 194.09 1259.08 199.95"/><polygon points="1275.51 203.6 1275.63 201.35 1303.76 197.51 1305.97 204.91 1275.51 203.6"/><polygon points="1271.09 212.86 1274.01 206.51 1297.53 207.78 1297.55 210.85 1271.09 212.86"/><path d="M1263.65,221.65l1.26-7,43.23-1.26s3.09,10.64,2,10.08S1263.65,221.65,1263.65,221.65Z"/><polygon points="1270.18 223.48 1281.53 224.16 1280.61 242.47 1263.65 242.47 1270.18 223.48"/><polygon points="1293.26 241.5 1294.69 225.02 1302.43 225.21 1308.35 242.47 1293.26 241.5"/><path class="cls-2" d="M1224.56,111.43c7.34-13.91,26.43-57,30.88-65.58a1.41,1.41,0,0,1,1.91-.6l.05,0a1.41,1.41,0,0,1,.64,1.8L1227.26,119a4,4,0,0,1-2.62,2.3l-16.33,4.55a1.87,1.87,0,0,1-2.37-2l.85-7.67a1.87,1.87,0,0,1,1.52-1.63Z"/><polygon class="cls-1" points="1216.32 123.59 1213.68 124.77 1212.61 113.69 1214.46 113.23 1216.32 123.59"/><polygon class="cls-1" points="1221.85 122.3 1218.56 122.96 1217.56 112.53 1219.93 111.94 1221.85 122.3"/><path class="cls-1" d="M1251.43,104.17c-5.23-17.75-17.24-71.8-20.39-82.88a1.68,1.68,0,0,0-2.1-1.16h0a1.68,1.68,0,0,0-1.18,2l18.88,90.52a3.73,3.73,0,0,0,2.11,2.64l23.45,10.66a2.09,2.09,0,0,0,2.93-1.6l1.29-9a2.08,2.08,0,0,0-1.33-2.25Z"/><polygon class="cls-6" points="1253.03 117.21 1259.1 107.06 1261.52 107.38 1255.38 119.03 1253.03 117.21"/><polygon class="cls-6" points="1258.62 119.3 1264.08 108.93 1266.63 109.89 1261.52 121.07 1258.62 119.3"/><polygon class="cls-6" points="1264.08 122.11 1269.69 111.04 1271.67 111.79 1266.63 123.86 1264.08 122.11"/><path class="cls-6" d="M1223.67,147.72c0-2.22-4.19-4-9.35-4s-9.36,1.8-9.36,4,2.21,5,8.4,5C1218.53,152.7,1223.67,150,1223.67,147.72Z"/><path class="cls-6" d="M1204.69,152.71c4,2.43,12.68,3.4,19.93-1,0,4.32-.95,5.28-.95,5.28s-10.3,2.94-18.71-.34A24.48,24.48,0,0,1,1204.69,152.71Z"/><polygon class="cls-1" points="234.62 228.83 231.99 228.83 230.68 222.38 234.62 222.38 234.62 228.83"/><path class="cls-7" d="M222,245c-.27-3-3.62-3.92-9.42-4.35,4.88-4.26-1.18-11.94-9.11-11.94a9.88,9.88,0,0,0-9.78,9.78c0,5.25,6.24,12.86,22.66,10.73,19.25-2.49,24,13.53-.35,12.31-22.34-1.12-36.76-11.43-36.76-30.07,0-27.12,36-22.92,36-22.92l1.94-5.2c10.83,0,19.89,8,22.1,14.26-5,4.29-6.27,5.35-6.27,5.35l-8.2-2.23-3.26,3.61c3.86,3.84,2.18,2.33,4.81,4.79,3.59,3.35-.1,7.35-4.78,3.87-3.11-2.3-5.76-4.67-5.76-4.67"/><polygon class="cls-6" points="234.13 210.2 231 216.42 234.99 221.23 238.89 217.29 234.13 210.2"/><polygon class="cls-6" points="222.2 210.87 228.04 210.84 224.71 213.47 222.2 210.87"/></g></g></svg>