<?xml version="1.0" standalone="no"?><!DOCTYPE svg PUBLIC "-//W3C//DTD SVG 1.1//EN" "http://www.w3.org/Graphics/SVG/1.1/DTD/svg11.dtd" ><svg version="1.1" xmlns="http://www.w3.org/2000/svg"><defs><font horiz-adv-x="0" id="font"><font-face ascent="750" bbox="-70 -223 1028 961" cap-height="700" descent="-250" font-family="YP Local Web Small Text" font-stretch="normal" font-style="normal" font-weight="700" units-per-em="1000" x-height="510" /><missing-glyph d="M51 700H476V-200H51Z" horiz-adv-x="515" /><glyph d="M0 0Z" glyph-name=".ttfautohint" horiz-adv-x="402" /><glyph d="M278 700H475L735 0H548L494 155H230L176 0H18ZM448 287 361 534 276 287Z" glyph-name="A" horiz-adv-x="752" unicode="A" /><glyph d="M983 0H482V155H261L180 0H8L395 700H983V563H654V422H908V290H654V132H983ZM482 287V576L330 287Z" glyph-name="AE" horiz-adv-x="1025" unicode="&#198;" /><glyph d="M18 0ZM278 700H475L735 0H548L494 155H230L176 0H18ZM448 287 361 534 276 287ZM428 961 510 871 300 749 243 813Z" glyph-name="Aacute" horiz-adv-x="752" unicode="&#193;" /><glyph d="M18 0ZM278 700H475L735 0H548L494 155H230L176 0H18ZM448 287 361 534 276 287ZM480 759 365 829 252 759 187 820 366 949 545 820Z" glyph-name="Acircumflex" horiz-adv-x="752" unicode="&#194;" /><glyph d="M18 0ZM278 700H475L735 0H548L494 155H230L176 0H18ZM448 287 361 534 276 287ZM254 761Q219 761 194.5 785Q170 809 170 842Q170 859 176.5 874Q183 889 194.5 900.5Q206 912 221 918.5Q236 925 254 925Q289 925 313.5 901Q338 877 338 842Q338 825 331.5 810.5Q325 796 313.5 785Q302 774 286.5 767.5Q271 761 254 761ZM474 761Q439 761 414.5 785Q390 809 390 842Q390 859 396.5 874Q403 889 414.5 900.5Q426 912 441 918.5Q456 925 474 925Q509 925 533.5 901Q558 877 558 842Q558 825 551.5 810.5Q545 796 533.5 785Q522 774 506.5 767.5Q491 761 474 761Z" glyph-name="Adieresis" horiz-adv-x="752" unicode="&#196;" /><glyph d="M18 0ZM278 700H475L735 0H548L494 155H230L176 0H18ZM448 287 361 534 276 287ZM428 749 218 871 300 961 485 813Z" glyph-name="Agrave" horiz-adv-x="752" unicode="&#192;" /><glyph d="M18 0ZM278 700H475L735 0H548L494 155H230L176 0H18ZM448 287 361 534 276 287ZM228 792V888H501V792Z" glyph-name="Amacron" horiz-adv-x="752" unicode="&#256;" /><glyph d="M18 0ZM278 700H475L735 0H548L494 155H230L176 0H18ZM448 287 361 534 276 287ZM168 789Q182 824 198 847Q214 870 231 883.5Q248 897 265.5 902.5Q283 908 301 908Q321 908 337 900Q353 892 367 883Q381 874 393.5 866Q406 858 419 858Q433 858 445.5 871Q458 884 475 911L562 878Q544 843 527.5 820Q511 797 494 783.5Q477 770 460.5 764.5Q444 759 426 759Q406 759 389.5 767Q373 775 358.5 784Q344 793 331 801Q318 809 305 809Q282 809 254 755Z" glyph-name="Atilde" horiz-adv-x="752" unicode="&#195;" /><glyph d="M52 700H382Q488 700 541.5 652.5Q595 605 595 526Q595 463 560.5 423.5Q526 384 467 369Q542 354 579 308.5Q616 263 616 199Q616 153 600.5 116Q585 79 558 53.5Q531 28 494.5 14Q458 0 416 0H52ZM224 577V422H355Q393 422 412 444Q431 466 431 501Q431 534 412 555.5Q393 577 355 577ZM224 300V123H351Q398 123 421 148Q444 173 444 214Q444 252 421 276Q398 300 351 300Z" glyph-name="B" horiz-adv-x="650" unicode="B" /><glyph d="M693 239Q682 192 657 148.5Q632 105 592 70.5Q552 36 497 15.5Q442 -5 372 -5Q298 -5 236.5 21.5Q175 48 131 95Q87 142 62.5 207.5Q38 273 38 351Q38 428 62.5 493Q87 558 132 605.5Q177 653 239 679.5Q301 706 376 706Q504 706 583 644Q662 582 691 472L530 438Q511 500 471.5 532Q432 564 378 564Q346 564 316.5 552Q287 540 264 514Q241 488 227 447.5Q213 407 213 350Q213 293 227.5 252Q242 211 265.5 185Q289 159 319 147Q349 135 381 135Q438 135 480 172.5Q522 210 535 268Z" glyph-name="C" horiz-adv-x="744" unicode="C" /><glyph glyph-name="CR" horiz-adv-x="265" unicode="" /><glyph d="M38 0ZM693 239Q682 192 657 148.5Q632 105 592 70.5Q552 36 497 15.5Q442 -5 372 -5Q298 -5 236.5 21.5Q175 48 131 95Q87 142 62.5 207.5Q38 273 38 351Q38 428 62.5 493Q87 558 132 605.5Q177 653 239 679.5Q301 706 376 706Q504 706 583 644Q662 582 691 472L530 438Q511 500 471.5 532Q432 564 378 564Q346 564 316.5 552Q287 540 264 514Q241 488 227 447.5Q213 407 213 350Q213 293 227.5 252Q242 211 265.5 185Q289 159 319 147Q349 135 381 135Q438 135 480 172.5Q522 210 535 268ZM441 961 523 871 313 749 256 813Z" glyph-name="Cacute" horiz-adv-x="744" unicode="&#262;" /><glyph d="M38 0ZM693 239Q682 192 657 148.5Q632 105 592 70.5Q552 36 497 15.5Q442 -5 372 -5Q298 -5 236.5 21.5Q175 48 131 95Q87 142 62.5 207.5Q38 273 38 351Q38 428 62.5 493Q87 558 132 605.5Q177 653 239 679.5Q301 706 376 706Q504 706 583 644Q662 582 691 472L530 438Q511 500 471.5 532Q432 564 378 564Q346 564 316.5 552Q287 540 264 514Q241 488 227 447.5Q213 407 213 350Q213 293 227.5 252Q242 211 265.5 185Q289 159 319 147Q349 135 381 135Q438 135 480 172.5Q522 210 535 268ZM378 764 199 893 264 954 379 884 492 954 557 893Z" glyph-name="Ccaron" horiz-adv-x="744" unicode="&#268;" /><glyph d="M503 -115Q503 -161 468 -191Q433 -221 372 -221Q321 -221 288 -200Q255 -179 243 -145L320 -117Q332 -143 369 -143Q392 -143 400.5 -132.5Q409 -122 409 -112Q409 -102 402 -92.5Q395 -83 372 -83H312L339 -4Q271 2 216 30.5Q161 59 121 106Q81 153 59.5 215Q38 277 38 351Q38 428 62.5 493Q87 558 132 605.5Q177 653 239 679.5Q301 706 376 706Q504 706 583 644Q662 582 691 472L530 438Q511 500 471.5 532Q432 564 378 564Q346 564 316.5 552Q287 540 264 514Q241 488 227 447.5Q213 407 213 350Q213 293 227.5 252Q242 211 265.5 185Q289 159 319 147Q349 135 381 135Q438 135 480 172.5Q522 210 535 268L693 239Q684 197 662.5 157Q641 117 607.5 84.5Q574 52 528.5 29Q483 6 425 -2L415 -24Q461 -31 482 -58Q503 -85 503 -115Z" glyph-name="Ccedilla" horiz-adv-x="744" unicode="&#199;" /><glyph d="M38 0ZM693 239Q682 192 657 148.5Q632 105 592 70.5Q552 36 497 15.5Q442 -5 372 -5Q298 -5 236.5 21.5Q175 48 131 95Q87 142 62.5 207.5Q38 273 38 351Q38 428 62.5 493Q87 558 132 605.5Q177 653 239 679.5Q301 706 376 706Q504 706 583 644Q662 582 691 472L530 438Q511 500 471.5 532Q432 564 378 564Q346 564 316.5 552Q287 540 264 514Q241 488 227 447.5Q213 407 213 350Q213 293 227.5 252Q242 211 265.5 185Q289 159 319 147Q349 135 381 135Q438 135 480 172.5Q522 210 535 268ZM493 759 378 829 265 759 200 820 379 949 558 820Z" glyph-name="Ccircumflex" horiz-adv-x="744" unicode="&#264;" /><glyph d="M38 0ZM693 239Q682 192 657 148.5Q632 105 592 70.5Q552 36 497 15.5Q442 -5 372 -5Q298 -5 236.5 21.5Q175 48 131 95Q87 142 62.5 207.5Q38 273 38 351Q38 428 62.5 493Q87 558 132 605.5Q177 653 239 679.5Q301 706 376 706Q504 706 583 644Q662 582 691 472L530 438Q511 500 471.5 532Q432 564 378 564Q346 564 316.5 552Q287 540 264 514Q241 488 227 447.5Q213 407 213 350Q213 293 227.5 252Q242 211 265.5 185Q289 159 319 147Q349 135 381 135Q438 135 480 172.5Q522 210 535 268ZM377 761Q342 761 317.5 785Q293 809 293 842Q293 859 299.5 874Q306 889 317.5 900.5Q329 912 344 918.5Q359 925 377 925Q412 925 436.5 901Q461 877 461 842Q461 825 454.5 810.5Q448 796 436.5 785Q425 774 409.5 767.5Q394 761 377 761Z" glyph-name="Cdotaccent" horiz-adv-x="744" unicode="&#266;" /><glyph d="M52 0V700H346Q428 700 490.5 672.5Q553 645 594 597.5Q635 550 656 487.5Q677 425 677 355Q677 278 651.5 213Q626 148 580.5 100.5Q535 53 473 26.5Q411 0 338 0ZM224 563V137H327Q361 137 392.5 149.5Q424 162 448.5 188.5Q473 215 487.5 255Q502 295 502 350Q502 406 487.5 446.5Q473 487 449 513Q425 539 393.5 551Q362 563 328 563Z" glyph-name="D" horiz-adv-x="714" unicode="D" /><glyph d="M568 0H52V700H568V563H224V422H493V290H224V132H568Z" glyph-name="E" horiz-adv-x="610" unicode="E" /><glyph d="M52 0ZM568 0H52V700H568V563H224V422H493V290H224V132H568ZM375 961 457 871 247 749 190 813Z" glyph-name="Eacute" horiz-adv-x="610" unicode="&#201;" /><glyph d="M52 0ZM568 0H52V700H568V563H224V422H493V290H224V132H568ZM312 764 133 893 198 954 313 884 426 954 491 893Z" glyph-name="Ecaron" horiz-adv-x="610" unicode="&#282;" /><glyph d="M52 0ZM568 0H52V700H568V563H224V422H493V290H224V132H568ZM427 759 312 829 199 759 134 820 313 949 492 820Z" glyph-name="Ecircumflex" horiz-adv-x="610" unicode="&#202;" /><glyph d="M52 0ZM568 0H52V700H568V563H224V422H493V290H224V132H568ZM201 761Q166 761 141.5 785Q117 809 117 842Q117 859 123.5 874Q130 889 141.5 900.5Q153 912 168 918.5Q183 925 201 925Q236 925 260.5 901Q285 877 285 842Q285 825 278.5 810.5Q272 796 260.5 785Q249 774 233.5 767.5Q218 761 201 761ZM421 761Q386 761 361.5 785Q337 809 337 842Q337 859 343.5 874Q350 889 361.5 900.5Q373 912 388 918.5Q403 925 421 925Q456 925 480.5 901Q505 877 505 842Q505 825 498.5 810.5Q492 796 480.5 785Q469 774 453.5 767.5Q438 761 421 761Z" glyph-name="Edieresis" horiz-adv-x="610" unicode="&#203;" /><glyph d="M52 0ZM568 0H52V700H568V563H224V422H493V290H224V132H568ZM311 761Q276 761 251.5 785Q227 809 227 842Q227 859 233.5 874Q240 889 251.5 900.5Q263 912 278 918.5Q293 925 311 925Q346 925 370.5 901Q395 877 395 842Q395 825 388.5 810.5Q382 796 370.5 785Q359 774 343.5 767.5Q328 761 311 761Z" glyph-name="Edotaccent" horiz-adv-x="610" unicode="&#278;" /><glyph d="M52 0ZM568 0H52V700H568V563H224V422H493V290H224V132H568ZM375 749 165 871 247 961 432 813Z" glyph-name="Egrave" horiz-adv-x="610" unicode="&#200;" /><glyph d="M52 0ZM568 0H52V700H568V563H224V422H493V290H224V132H568ZM175 792V888H448V792Z" glyph-name="Emacron" horiz-adv-x="610" unicode="&#274;" /><glyph d="M224 275V0H52V700H568V563H224V412H493V275Z" glyph-name="F" horiz-adv-x="605" unicode="F" /><glyph d="M410 362H702V0H591L558 96Q525 51 475.5 23Q426 -5 361 -5Q292 -5 233 21.5Q174 48 130.5 95Q87 142 62.5 207.5Q38 273 38 351Q38 428 62.5 493Q87 558 132 605.5Q177 653 239 679.5Q301 706 376 706Q507 706 585.5 648Q664 590 696 482L535 448Q514 508 475 536Q436 564 381 564Q349 564 318.5 552Q288 540 264.5 514Q241 488 227 447.5Q213 407 213 350Q213 290 228.5 248Q244 206 269.5 179Q295 152 327 139.5Q359 127 392 127Q450 127 489.5 158.5Q529 190 540 236V237H410Z" glyph-name="G" horiz-adv-x="749" unicode="G" /><glyph d="M38 0ZM410 362H702V0H591L558 96Q525 51 475.5 23Q426 -5 361 -5Q292 -5 233 21.5Q174 48 130.5 95Q87 142 62.5 207.5Q38 273 38 351Q38 428 62.5 493Q87 558 132 605.5Q177 653 239 679.5Q301 706 376 706Q507 706 585.5 648Q664 590 696 482L535 448Q514 508 475 536Q436 564 381 564Q349 564 318.5 552Q288 540 264.5 514Q241 488 227 447.5Q213 407 213 350Q213 290 228.5 248Q244 206 269.5 179Q295 152 327 139.5Q359 127 392 127Q450 127 489.5 158.5Q529 190 540 236V237H410ZM494 759 379 829 266 759 201 820 380 949 559 820Z" glyph-name="Gcircumflex" horiz-adv-x="749" unicode="&#284;" /><glyph d="M38 0ZM410 362H702V0H591L558 96Q525 51 475.5 23Q426 -5 361 -5Q292 -5 233 21.5Q174 48 130.5 95Q87 142 62.5 207.5Q38 273 38 351Q38 428 62.5 493Q87 558 132 605.5Q177 653 239 679.5Q301 706 376 706Q507 706 585.5 648Q664 590 696 482L535 448Q514 508 475 536Q436 564 381 564Q349 564 318.5 552Q288 540 264.5 514Q241 488 227 447.5Q213 407 213 350Q213 290 228.5 248Q244 206 269.5 179Q295 152 327 139.5Q359 127 392 127Q450 127 489.5 158.5Q529 190 540 236V237H410ZM378 761Q343 761 318.5 785Q294 809 294 842Q294 859 300.5 874Q307 889 318.5 900.5Q330 912 345 918.5Q360 925 378 925Q413 925 437.5 901Q462 877 462 842Q462 825 455.5 810.5Q449 796 437.5 785Q426 774 410.5 767.5Q395 761 378 761Z" glyph-name="Gdotaccent" horiz-adv-x="749" unicode="&#288;" /><glyph d="M478 295H224V0H52V700H224V432H478V700H650V0H478Z" glyph-name="H" horiz-adv-x="701" unicode="H" /><glyph d="M52 0ZM478 295H224V0H52V700H224V432H478V700H650V0H478ZM467 759 352 829 239 759 174 820 353 949 532 820Z" glyph-name="Hcircumflex" horiz-adv-x="701" unicode="&#292;" /><glyph d="M52 700H224V0H52Z" glyph-name="I" horiz-adv-x="275" unicode="I" /><glyph d="M17 0ZM52 700H224V0H52ZM202 961 284 871 74 749 17 813Z" glyph-name="Iacute" horiz-adv-x="275" unicode="&#205;" /><glyph d="M0 0ZM52 700H224V0H52ZM254 759 139 829 26 759 -39 820 140 949 319 820Z" glyph-name="Icircumflex" horiz-adv-x="275" unicode="&#206;" /><glyph d="M0 0ZM52 700H224V0H52ZM28 761Q-7 761 -31.5 785Q-56 809 -56 842Q-56 859 -49.5 874Q-43 889 -31.5 900.5Q-20 912 -5 918.5Q10 925 28 925Q63 925 87.5 901Q112 877 112 842Q112 825 105.5 810.5Q99 796 87.5 785Q76 774 60.5 767.5Q45 761 28 761ZM248 761Q213 761 188.5 785Q164 809 164 842Q164 859 170.5 874Q177 889 188.5 900.5Q200 912 215 918.5Q230 925 248 925Q283 925 307.5 901Q332 877 332 842Q332 825 325.5 810.5Q319 796 307.5 785Q296 774 280.5 767.5Q265 761 248 761Z" glyph-name="Idieresis" horiz-adv-x="275" unicode="&#207;" /><glyph d="M52 0ZM52 700H224V0H52ZM138 761Q103 761 78.5 785Q54 809 54 842Q54 859 60.5 874Q67 889 78.5 900.5Q90 912 105 918.5Q120 925 138 925Q173 925 197.5 901Q222 877 222 842Q222 825 215.5 810.5Q209 796 197.5 785Q186 774 170.5 767.5Q155 761 138 761Z" glyph-name="Idotaccent" horiz-adv-x="275" unicode="&#304;" /><glyph d="M0 0ZM52 700H224V0H52ZM202 749 -8 871 74 961 259 813Z" glyph-name="Igrave" horiz-adv-x="275" unicode="&#204;" /><glyph d="M2 0ZM52 700H224V0H52ZM2 792V888H275V792Z" glyph-name="Imacron" horiz-adv-x="275" unicode="&#298;" /><glyph d="M0 0ZM52 700H224V0H52ZM-59 789Q-45 824 -29 847Q-13 870 4 883.5Q21 897 38.5 902.5Q56 908 74 908Q94 908 110 900Q126 892 140 883Q154 874 166.5 866Q179 858 192 858Q206 858 218.5 871Q231 884 248 911L335 878Q317 843 300.5 820Q284 797 267 783.5Q250 770 233.5 764.5Q217 759 199 759Q179 759 162.5 767Q146 775 131.5 784Q117 793 104 801Q91 809 78 809Q55 809 27 755Z" glyph-name="Itilde" horiz-adv-x="275" unicode="&#296;" /><glyph d="M288 -6Q188 -6 118.5 38Q49 82 24 155L174 216Q206 136 295 136Q316 136 336.5 143.5Q357 151 372.5 167Q388 183 398 208.5Q408 234 408 269V700H580V259Q580 199 559.5 150Q539 101 501.5 66.5Q464 32 409.5 13Q355 -6 288 -6Z" glyph-name="J" horiz-adv-x="631" unicode="J" /><glyph d="M24 0ZM288 -6Q188 -6 118.5 38Q49 82 24 155L174 216Q206 136 295 136Q316 136 336.5 143.5Q357 151 372.5 167Q388 183 398 208.5Q408 234 408 269V700H580V259Q580 199 559.5 150Q539 101 501.5 66.5Q464 32 409.5 13Q355 -6 288 -6ZM608 759 493 829 380 759 315 820 494 949 673 820Z" glyph-name="Jcircumflex" horiz-adv-x="631" unicode="&#308;" /><glyph d="M308 288 224 199V0H52V700H224V396L494 700H696L426 410L698 0H489Z" glyph-name="K" horiz-adv-x="720" unicode="K" /><glyph d="M558 0H52V700H224V137H558Z" glyph-name="L" horiz-adv-x="590" unicode="L" /><glyph d="M15 0ZM558 0H52V700H224V137H558ZM200 961 282 871 72 749 15 813Z" glyph-name="Lacute" horiz-adv-x="590" unicode="&#313;" /><glyph d="M621 700H849V0H684V401L685 483L655 401L508 0H368L226 401L195 489L196 401L197 0H52V700H279L422 290L447 216L472 290Z" glyph-name="M" horiz-adv-x="900" unicode="M" /><glyph d="M204 0H52V700H236L462 358L515 276L514 358L513 700H665V0H502L266 358L201 459L203 358Z" glyph-name="N" horiz-adv-x="716" unicode="N" /><glyph glyph-name="NULL" horiz-adv-x="265" /><glyph d="M52 0ZM204 0H52V700H236L462 358L515 276L514 358L513 700H665V0H502L266 358L201 459L203 358ZM423 961 505 871 295 749 238 813Z" glyph-name="Nacute" horiz-adv-x="716" unicode="&#323;" /><glyph d="M52 0ZM204 0H52V700H236L462 358L515 276L514 358L513 700H665V0H502L266 358L201 459L203 358ZM360 764 181 893 246 954 361 884 474 954 539 893Z" glyph-name="Ncaron" horiz-adv-x="716" unicode="&#327;" /><glyph d="M52 0ZM204 0H52V700H236L462 358L515 276L514 358L513 700H665V0H502L266 358L201 459L203 358ZM162 789Q176 824 192 847Q208 870 225 883.5Q242 897 259.5 902.5Q277 908 295 908Q315 908 331 900Q347 892 361 883Q375 874 387.5 866Q400 858 413 858Q427 858 439.5 871Q452 884 469 911L556 878Q538 843 521.5 820Q505 797 488 783.5Q471 770 454.5 764.5Q438 759 420 759Q400 759 383.5 767Q367 775 352.5 784Q338 793 325 801Q312 809 299 809Q276 809 248 755Z" glyph-name="Ntilde" horiz-adv-x="716" unicode="&#209;" /><glyph d="M386 706Q471 706 536.5 677.5Q602 649 646.5 600.5Q691 552 714 487Q737 422 737 350Q737 273 710.5 208Q684 143 637.5 95.5Q591 48 527 21Q463 -6 388 -6Q303 -6 238 23.5Q173 53 128.5 102Q84 151 61 215.5Q38 280 38 349Q38 429 64.5 494.5Q91 560 137.5 607Q184 654 247.5 680Q311 706 386 706ZM387 565Q353 565 321.5 553Q290 541 266 515Q242 489 227.5 448Q213 407 213 349Q213 295 227.5 254.5Q242 214 266 187.5Q290 161 321.5 148Q353 135 387 135Q421 135 453 148Q485 161 509 187.5Q533 214 547.5 254.5Q562 295 562 350Q562 407 547.5 447.5Q533 488 509 514.5Q485 541 453 553Q421 565 387 565Z" glyph-name="O" horiz-adv-x="774" unicode="O" /><glyph d="M38 350Q38 426 63.5 490Q89 554 134.5 600.5Q180 647 242 673.5Q304 700 377 700H992V563H648V422H917V290H648V132H992V0H369Q288 0 226.5 28Q165 56 123 104Q81 152 59.5 215.5Q38 279 38 350ZM476 137V563H388Q354 563 322.5 550Q291 537 266.5 511Q242 485 227.5 445Q213 405 213 350Q213 294 227.5 253.5Q242 213 266 187Q290 161 321.5 149Q353 137 387 137Z" glyph-name="OE" horiz-adv-x="1034" unicode="&#338;" /><glyph d="M38 0ZM386 706Q471 706 536.5 677.5Q602 649 646.5 600.5Q691 552 714 487Q737 422 737 350Q737 273 710.5 208Q684 143 637.5 95.5Q591 48 527 21Q463 -6 388 -6Q303 -6 238 23.5Q173 53 128.5 102Q84 151 61 215.5Q38 280 38 349Q38 429 64.5 494.5Q91 560 137.5 607Q184 654 247.5 680Q311 706 386 706ZM387 565Q353 565 321.5 553Q290 541 266 515Q242 489 227.5 448Q213 407 213 349Q213 295 227.5 254.5Q242 214 266 187.5Q290 161 321.5 148Q353 135 387 135Q421 135 453 148Q485 161 509 187.5Q533 214 547.5 254.5Q562 295 562 350Q562 407 547.5 447.5Q533 488 509 514.5Q485 541 453 553Q421 565 387 565ZM452 961 534 871 324 749 267 813Z" glyph-name="Oacute" horiz-adv-x="774" unicode="&#211;" /><glyph d="M38 0ZM386 706Q471 706 536.5 677.5Q602 649 646.5 600.5Q691 552 714 487Q737 422 737 350Q737 273 710.5 208Q684 143 637.5 95.5Q591 48 527 21Q463 -6 388 -6Q303 -6 238 23.5Q173 53 128.5 102Q84 151 61 215.5Q38 280 38 349Q38 429 64.5 494.5Q91 560 137.5 607Q184 654 247.5 680Q311 706 386 706ZM387 565Q353 565 321.5 553Q290 541 266 515Q242 489 227.5 448Q213 407 213 349Q213 295 227.5 254.5Q242 214 266 187.5Q290 161 321.5 148Q353 135 387 135Q421 135 453 148Q485 161 509 187.5Q533 214 547.5 254.5Q562 295 562 350Q562 407 547.5 447.5Q533 488 509 514.5Q485 541 453 553Q421 565 387 565ZM504 759 389 829 276 759 211 820 390 949 569 820Z" glyph-name="Ocircumflex" horiz-adv-x="774" unicode="&#212;" /><glyph d="M38 0ZM386 706Q471 706 536.5 677.5Q602 649 646.5 600.5Q691 552 714 487Q737 422 737 350Q737 273 710.5 208Q684 143 637.5 95.5Q591 48 527 21Q463 -6 388 -6Q303 -6 238 23.5Q173 53 128.5 102Q84 151 61 215.5Q38 280 38 349Q38 429 64.5 494.5Q91 560 137.5 607Q184 654 247.5 680Q311 706 386 706ZM387 565Q353 565 321.5 553Q290 541 266 515Q242 489 227.5 448Q213 407 213 349Q213 295 227.5 254.5Q242 214 266 187.5Q290 161 321.5 148Q353 135 387 135Q421 135 453 148Q485 161 509 187.5Q533 214 547.5 254.5Q562 295 562 350Q562 407 547.5 447.5Q533 488 509 514.5Q485 541 453 553Q421 565 387 565ZM278 761Q243 761 218.5 785Q194 809 194 842Q194 859 200.5 874Q207 889 218.5 900.5Q230 912 245 918.5Q260 925 278 925Q313 925 337.5 901Q362 877 362 842Q362 825 355.5 810.5Q349 796 337.5 785Q326 774 310.5 767.5Q295 761 278 761ZM498 761Q463 761 438.5 785Q414 809 414 842Q414 859 420.5 874Q427 889 438.5 900.5Q450 912 465 918.5Q480 925 498 925Q533 925 557.5 901Q582 877 582 842Q582 825 575.5 810.5Q569 796 557.5 785Q546 774 530.5 767.5Q515 761 498 761Z" glyph-name="Odieresis" horiz-adv-x="774" unicode="&#214;" /><glyph d="M38 0ZM386 706Q471 706 536.5 677.5Q602 649 646.5 600.5Q691 552 714 487Q737 422 737 350Q737 273 710.5 208Q684 143 637.5 95.5Q591 48 527 21Q463 -6 388 -6Q303 -6 238 23.5Q173 53 128.5 102Q84 151 61 215.5Q38 280 38 349Q38 429 64.5 494.5Q91 560 137.5 607Q184 654 247.5 680Q311 706 386 706ZM387 565Q353 565 321.5 553Q290 541 266 515Q242 489 227.5 448Q213 407 213 349Q213 295 227.5 254.5Q242 214 266 187.5Q290 161 321.5 148Q353 135 387 135Q421 135 453 148Q485 161 509 187.5Q533 214 547.5 254.5Q562 295 562 350Q562 407 547.5 447.5Q533 488 509 514.5Q485 541 453 553Q421 565 387 565ZM452 749 242 871 324 961 509 813Z" glyph-name="Ograve" horiz-adv-x="774" unicode="&#210;" /><glyph d="M38 0ZM386 706Q471 706 536.5 677.5Q602 649 646.5 600.5Q691 552 714 487Q737 422 737 350Q737 273 710.5 208Q684 143 637.5 95.5Q591 48 527 21Q463 -6 388 -6Q303 -6 238 23.5Q173 53 128.5 102Q84 151 61 215.5Q38 280 38 349Q38 429 64.5 494.5Q91 560 137.5 607Q184 654 247.5 680Q311 706 386 706ZM387 565Q353 565 321.5 553Q290 541 266 515Q242 489 227.5 448Q213 407 213 349Q213 295 227.5 254.5Q242 214 266 187.5Q290 161 321.5 148Q353 135 387 135Q421 135 453 148Q485 161 509 187.5Q533 214 547.5 254.5Q562 295 562 350Q562 407 547.5 447.5Q533 488 509 514.5Q485 541 453 553Q421 565 387 565ZM252 792V888H525V792Z" glyph-name="Omacron" horiz-adv-x="774" unicode="&#332;" /><glyph d="M737 350Q737 273 710.5 208Q684 143 637.5 95.5Q591 48 527 21Q463 -6 388 -6Q331 -6 283.5 7.5Q236 21 198 44L159 -5H44L128 102Q83 152 60.5 216Q38 280 38 349Q38 429 64.5 494.5Q91 560 137.5 607Q184 654 247.5 680Q311 706 386 706Q439 706 483.5 694.5Q528 683 566 663L599 705H714L639 609Q687 559 712 492.5Q737 426 737 350ZM213 349Q213 316 218.5 288.5Q224 261 234 238L473 543Q453 554 431.5 559.5Q410 565 387 565Q353 565 321.5 553Q290 541 266 515Q242 489 227.5 448Q213 407 213 349ZM562 350Q562 389 555 420.5Q548 452 535 477L292 165Q334 135 387 135Q421 135 453 148Q485 161 509 187.5Q533 214 547.5 254.5Q562 295 562 350Z" glyph-name="Oslash" horiz-adv-x="774" unicode="&#216;" /><glyph d="M38 0ZM386 706Q471 706 536.5 677.5Q602 649 646.5 600.5Q691 552 714 487Q737 422 737 350Q737 273 710.5 208Q684 143 637.5 95.5Q591 48 527 21Q463 -6 388 -6Q303 -6 238 23.5Q173 53 128.5 102Q84 151 61 215.5Q38 280 38 349Q38 429 64.5 494.5Q91 560 137.5 607Q184 654 247.5 680Q311 706 386 706ZM387 565Q353 565 321.5 553Q290 541 266 515Q242 489 227.5 448Q213 407 213 349Q213 295 227.5 254.5Q242 214 266 187.5Q290 161 321.5 148Q353 135 387 135Q421 135 453 148Q485 161 509 187.5Q533 214 547.5 254.5Q562 295 562 350Q562 407 547.5 447.5Q533 488 509 514.5Q485 541 453 553Q421 565 387 565ZM191 789Q205 824 221 847Q237 870 254 883.5Q271 897 288.5 902.5Q306 908 324 908Q344 908 360 900Q376 892 390 883Q404 874 416.5 866Q429 858 442 858Q456 858 468.5 871Q481 884 498 911L585 878Q567 843 550.5 820Q534 797 517 783.5Q500 770 483.5 764.5Q467 759 449 759Q429 759 412.5 767Q396 775 381.5 784Q367 793 354 801Q341 809 328 809Q305 809 277 755Z" glyph-name="Otilde" horiz-adv-x="774" unicode="&#213;" /><glyph d="M52 700H406Q448 700 484.5 684.5Q521 669 548.5 640.5Q576 612 591.5 570.5Q607 529 607 478Q607 426 588.5 384Q570 342 538.5 313Q507 284 464 268Q421 252 372 252H224V0H52ZM224 567V383H341Q390 383 414.5 409.5Q439 436 439 478Q439 518 414.5 542.5Q390 567 341 567Z" glyph-name="P" horiz-adv-x="640" unicode="P" /><glyph d="M678 -182Q634 -186 586 -180Q538 -174 495 -153.5Q452 -133 418.5 -97.5Q385 -62 370 -6Q289 -3 227 28Q165 59 123 107.5Q81 156 59.5 218.5Q38 281 38 349Q38 429 64.5 494.5Q91 560 137.5 607Q184 654 247.5 680Q311 706 386 706Q471 706 536.5 677.5Q602 649 646.5 600.5Q691 552 714 487Q737 422 737 350Q737 290 721 237.5Q705 185 675.5 141.5Q646 98 605 66Q564 34 514 16Q524 0 542 -11.5Q560 -23 582.5 -30Q605 -37 630.5 -39.5Q656 -42 683 -39ZM387 565Q353 565 321.5 553Q290 541 266 515Q242 489 227.5 448Q213 407 213 349Q213 295 227.5 254.5Q242 214 266 187.5Q290 161 321.5 148Q353 135 387 135Q421 135 453 148Q485 161 509 187.5Q533 214 547.5 254.5Q562 295 562 350Q562 407 547.5 447.5Q533 488 509 514.5Q485 541 453 553Q421 565 387 565Z" glyph-name="Q" horiz-adv-x="774" unicode="Q" /><glyph d="M52 700H406Q448 700 484.5 685Q521 670 548.5 642Q576 614 591.5 573.5Q607 533 607 483Q607 408 569 355.5Q531 303 469 279L643 0H448L298 262H224V0H52ZM224 567V393H341Q390 393 414.5 416.5Q439 440 439 478Q439 518 415 542.5Q391 567 341 567Z" glyph-name="R" horiz-adv-x="645" unicode="R" /><glyph d="M52 0ZM52 700H406Q448 700 484.5 685Q521 670 548.5 642Q576 614 591.5 573.5Q607 533 607 483Q607 408 569 355.5Q531 303 469 279L643 0H448L298 262H224V0H52ZM224 567V393H341Q390 393 414.5 416.5Q439 440 439 478Q439 518 415 542.5Q391 567 341 567ZM385 961 467 871 257 749 200 813Z" glyph-name="Racute" horiz-adv-x="645" unicode="&#340;" /><glyph d="M52 0ZM52 700H406Q448 700 484.5 685Q521 670 548.5 642Q576 614 591.5 573.5Q607 533 607 483Q607 408 569 355.5Q531 303 469 279L643 0H448L298 262H224V0H52ZM224 567V393H341Q390 393 414.5 416.5Q439 440 439 478Q439 518 415 542.5Q391 567 341 567ZM322 764 143 893 208 954 323 884 436 954 501 893Z" glyph-name="Rcaron" horiz-adv-x="645" unicode="&#344;" /><glyph d="M169 213Q193 163 238.5 142.5Q284 122 334 122Q393 122 416.5 141.5Q440 161 440 187Q440 203 429 218Q418 233 393 240L191 295Q116 315 76.5 364Q37 413 37 484Q37 532 56.5 573Q76 614 111 643.5Q146 673 196 689.5Q246 706 307 706Q362 706 407.5 693Q453 680 488.5 658.5Q524 637 549.5 609Q575 581 590 551L438 499Q417 536 380 555.5Q343 575 303 575Q256 575 232 557Q208 539 208 512Q208 501 211.5 491.5Q215 482 224 473.5Q233 465 248.5 458Q264 451 289 444L440 403Q533 377 572.5 329.5Q612 282 612 215Q612 168 594 128Q576 88 541 58Q506 28 453.5 11Q401 -6 332 -6Q275 -6 225 5.5Q175 17 134.5 37Q94 57 64.5 85Q35 113 19 145Z" glyph-name="S" horiz-adv-x="651" unicode="S" /><glyph d="M19 0ZM169 213Q193 163 238.5 142.5Q284 122 334 122Q393 122 416.5 141.5Q440 161 440 187Q440 203 429 218Q418 233 393 240L191 295Q116 315 76.5 364Q37 413 37 484Q37 532 56.5 573Q76 614 111 643.5Q146 673 196 689.5Q246 706 307 706Q362 706 407.5 693Q453 680 488.5 658.5Q524 637 549.5 609Q575 581 590 551L438 499Q417 536 380 555.5Q343 575 303 575Q256 575 232 557Q208 539 208 512Q208 501 211.5 491.5Q215 482 224 473.5Q233 465 248.5 458Q264 451 289 444L440 403Q533 377 572.5 329.5Q612 282 612 215Q612 168 594 128Q576 88 541 58Q506 28 453.5 11Q401 -6 332 -6Q275 -6 225 5.5Q175 17 134.5 37Q94 57 64.5 85Q35 113 19 145ZM373 961 455 871 245 749 188 813Z" glyph-name="Sacute" horiz-adv-x="651" unicode="&#346;" /><glyph d="M19 0ZM169 213Q193 163 238.5 142.5Q284 122 334 122Q393 122 416.5 141.5Q440 161 440 187Q440 203 429 218Q418 233 393 240L191 295Q116 315 76.5 364Q37 413 37 484Q37 532 56.5 573Q76 614 111 643.5Q146 673 196 689.5Q246 706 307 706Q362 706 407.5 693Q453 680 488.5 658.5Q524 637 549.5 609Q575 581 590 551L438 499Q417 536 380 555.5Q343 575 303 575Q256 575 232 557Q208 539 208 512Q208 501 211.5 491.5Q215 482 224 473.5Q233 465 248.5 458Q264 451 289 444L440 403Q533 377 572.5 329.5Q612 282 612 215Q612 168 594 128Q576 88 541 58Q506 28 453.5 11Q401 -6 332 -6Q275 -6 225 5.5Q175 17 134.5 37Q94 57 64.5 85Q35 113 19 145ZM310 764 131 893 196 954 311 884 424 954 489 893Z" glyph-name="Scaron" horiz-adv-x="651" unicode="&#352;" /><glyph d="M460 -115Q460 -161 425 -191Q390 -221 329 -221Q278 -221 245 -200Q212 -179 200 -145L277 -117Q283 -130 296 -136.5Q309 -143 326 -143Q349 -143 357.5 -132.5Q366 -122 366 -112Q366 -102 359 -92.5Q352 -83 329 -83H269L295 -5Q194 3 121.5 44Q49 85 19 145L169 213Q193 163 238.5 142.5Q284 122 334 122Q393 122 416.5 141.5Q440 161 440 187Q440 203 429 218Q418 233 393 240L191 295Q116 315 76.5 364Q37 413 37 484Q37 532 56.5 573Q76 614 111 643.5Q146 673 196 689.5Q246 706 307 706Q362 706 407.5 693Q453 680 488.5 658.5Q524 637 549.5 609Q575 581 590 551L438 499Q417 536 380 555.5Q343 575 303 575Q256 575 232 557Q208 539 208 512Q208 501 211.5 491.5Q215 482 224 473.5Q233 465 248.5 458Q264 451 289 444L440 403Q533 377 572.5 329.5Q612 282 612 215Q612 173 597.5 136Q583 99 553.5 70Q524 41 481 22Q438 3 381 -3L372 -24Q418 -31 439 -58Q460 -85 460 -115Z" glyph-name="Scedilla" horiz-adv-x="651" unicode="&#350;" /><glyph d="M19 0ZM169 213Q193 163 238.5 142.5Q284 122 334 122Q393 122 416.5 141.5Q440 161 440 187Q440 203 429 218Q418 233 393 240L191 295Q116 315 76.5 364Q37 413 37 484Q37 532 56.5 573Q76 614 111 643.5Q146 673 196 689.5Q246 706 307 706Q362 706 407.5 693Q453 680 488.5 658.5Q524 637 549.5 609Q575 581 590 551L438 499Q417 536 380 555.5Q343 575 303 575Q256 575 232 557Q208 539 208 512Q208 501 211.5 491.5Q215 482 224 473.5Q233 465 248.5 458Q264 451 289 444L440 403Q533 377 572.5 329.5Q612 282 612 215Q612 168 594 128Q576 88 541 58Q506 28 453.5 11Q401 -6 332 -6Q275 -6 225 5.5Q175 17 134.5 37Q94 57 64.5 85Q35 113 19 145ZM425 759 310 829 197 759 132 820 311 949 490 820Z" glyph-name="Scircumflex" horiz-adv-x="651" unicode="&#348;" /><glyph d="M23 700H633V563H414V0H242V563H23Z" glyph-name="T" horiz-adv-x="655" unicode="T" /><glyph d="M23 700H633V563H414V0H381L370 -24Q416 -31 437 -58Q458 -85 458 -115Q458 -161 423 -191Q388 -221 327 -221Q276 -221 243 -200Q210 -179 198 -145L275 -117Q281 -130 294 -136.5Q307 -143 324 -143Q347 -143 355.5 -132.5Q364 -122 364 -112Q364 -102 357 -92.5Q350 -83 327 -83H267L295 0H242V563H23Z" glyph-name="Tcommaaccent" horiz-adv-x="655" unicode="&#538;" /><glyph d="M635 275Q635 207 613.5 154.5Q592 102 553 66.5Q514 31 460 12.5Q406 -6 341 -6Q270 -6 216.5 13Q163 32 126 66.5Q89 101 70.5 150Q52 199 52 259V700H224V269Q224 235 234.5 210Q245 185 262.5 168.5Q280 152 303 143.5Q326 135 350 135Q375 135 398 143Q421 151 439 168Q457 185 467.5 210Q478 235 478 270V700H635V275Z" glyph-name="U" horiz-adv-x="686" unicode="U" /><glyph d="M52 0ZM635 275Q635 207 613.5 154.5Q592 102 553 66.5Q514 31 460 12.5Q406 -6 341 -6Q270 -6 216.5 13Q163 32 126 66.5Q89 101 70.5 150Q52 199 52 259V700H224V269Q224 235 234.5 210Q245 185 262.5 168.5Q280 152 303 143.5Q326 135 350 135Q375 135 398 143Q421 151 439 168Q457 185 467.5 210Q478 235 478 270V700H635V275ZM408 961 490 871 280 749 223 813Z" glyph-name="Uacute" horiz-adv-x="686" unicode="&#218;" /><glyph d="M52 0ZM635 275Q635 207 613.5 154.5Q592 102 553 66.5Q514 31 460 12.5Q406 -6 341 -6Q270 -6 216.5 13Q163 32 126 66.5Q89 101 70.5 150Q52 199 52 259V700H224V269Q224 235 234.5 210Q245 185 262.5 168.5Q280 152 303 143.5Q326 135 350 135Q375 135 398 143Q421 151 439 168Q457 185 467.5 210Q478 235 478 270V700H635V275ZM460 759 345 829 232 759 167 820 346 949 525 820Z" glyph-name="Ucircumflex" horiz-adv-x="686" unicode="&#219;" /><glyph d="M52 0ZM635 275Q635 207 613.5 154.5Q592 102 553 66.5Q514 31 460 12.5Q406 -6 341 -6Q270 -6 216.5 13Q163 32 126 66.5Q89 101 70.5 150Q52 199 52 259V700H224V269Q224 235 234.5 210Q245 185 262.5 168.5Q280 152 303 143.5Q326 135 350 135Q375 135 398 143Q421 151 439 168Q457 185 467.5 210Q478 235 478 270V700H635V275ZM234 761Q199 761 174.5 785Q150 809 150 842Q150 859 156.5 874Q163 889 174.5 900.5Q186 912 201 918.5Q216 925 234 925Q269 925 293.5 901Q318 877 318 842Q318 825 311.5 810.5Q305 796 293.5 785Q282 774 266.5 767.5Q251 761 234 761ZM454 761Q419 761 394.5 785Q370 809 370 842Q370 859 376.5 874Q383 889 394.5 900.5Q406 912 421 918.5Q436 925 454 925Q489 925 513.5 901Q538 877 538 842Q538 825 531.5 810.5Q525 796 513.5 785Q502 774 486.5 767.5Q471 761 454 761Z" glyph-name="Udieresis" horiz-adv-x="686" unicode="&#220;" /><glyph d="M52 0ZM635 275Q635 207 613.5 154.5Q592 102 553 66.5Q514 31 460 12.5Q406 -6 341 -6Q270 -6 216.5 13Q163 32 126 66.5Q89 101 70.5 150Q52 199 52 259V700H224V269Q224 235 234.5 210Q245 185 262.5 168.5Q280 152 303 143.5Q326 135 350 135Q375 135 398 143Q421 151 439 168Q457 185 467.5 210Q478 235 478 270V700H635V275ZM408 749 198 871 280 961 465 813Z" glyph-name="Ugrave" horiz-adv-x="686" unicode="&#217;" /><glyph d="M52 0ZM635 275Q635 207 613.5 154.5Q592 102 553 66.5Q514 31 460 12.5Q406 -6 341 -6Q270 -6 216.5 13Q163 32 126 66.5Q89 101 70.5 150Q52 199 52 259V700H224V269Q224 235 234.5 210Q245 185 262.5 168.5Q280 152 303 143.5Q326 135 350 135Q375 135 398 143Q421 151 439 168Q457 185 467.5 210Q478 235 478 270V700H635V275ZM208 792V888H481V792Z" glyph-name="Umacron" horiz-adv-x="686" unicode="&#362;" /><glyph d="M52 0ZM635 275Q635 207 613.5 154.5Q592 102 553 66.5Q514 31 460 12.5Q406 -6 341 -6Q270 -6 216.5 13Q163 32 126 66.5Q89 101 70.5 150Q52 199 52 259V700H224V269Q224 235 234.5 210Q245 185 262.5 168.5Q280 152 303 143.5Q326 135 350 135Q375 135 398 143Q421 151 439 168Q457 185 467.5 210Q478 235 478 270V700H635V275ZM147 789Q161 824 177 847Q193 870 210 883.5Q227 897 244.5 902.5Q262 908 280 908Q300 908 316 900Q332 892 346 883Q360 874 372.5 866Q385 858 398 858Q412 858 424.5 871Q437 884 454 911L541 878Q523 843 506.5 820Q490 797 473 783.5Q456 770 439.5 764.5Q423 759 405 759Q385 759 368.5 767Q352 775 337.5 784Q323 793 310 801Q297 809 284 809Q261 809 233 755Z" glyph-name="Utilde" horiz-adv-x="686" unicode="&#360;" /><glyph d="M455 0H278L18 700H205L382 196L558 700H715Z" glyph-name="V" horiz-adv-x="732" unicode="V" /><glyph d="M856 0H671L563 350L532 455L500 350L391 0H206L33 700H211L293 350L324 213L366 350L475 700H611L723 350L767 210L799 350L880 700H1028Z" glyph-name="W" horiz-adv-x="1060" unicode="W" /><glyph d="M33 0ZM856 0H671L563 350L532 455L500 350L391 0H206L33 700H211L293 350L324 213L366 350L475 700H611L723 350L767 210L799 350L880 700H1028ZM595 961 677 871 467 749 410 813Z" glyph-name="Wacute" horiz-adv-x="1060" unicode="&#7810;" /><glyph d="M33 0ZM856 0H671L563 350L532 455L500 350L391 0H206L33 700H211L293 350L324 213L366 350L475 700H611L723 350L767 210L799 350L880 700H1028ZM647 759 532 829 419 759 354 820 533 949 712 820Z" glyph-name="Wcircumflex" horiz-adv-x="1060" unicode="&#372;" /><glyph d="M33 0ZM856 0H671L563 350L532 455L500 350L391 0H206L33 700H211L293 350L324 213L366 350L475 700H611L723 350L767 210L799 350L880 700H1028ZM421 761Q386 761 361.5 785Q337 809 337 842Q337 859 343.5 874Q350 889 361.5 900.5Q373 912 388 918.5Q403 925 421 925Q456 925 480.5 901Q505 877 505 842Q505 825 498.5 810.5Q492 796 480.5 785Q469 774 453.5 767.5Q438 761 421 761ZM641 761Q606 761 581.5 785Q557 809 557 842Q557 859 563.5 874Q570 889 581.5 900.5Q593 912 608 918.5Q623 925 641 925Q676 925 700.5 901Q725 877 725 842Q725 825 718.5 810.5Q712 796 700.5 785Q689 774 673.5 767.5Q658 761 641 761Z" glyph-name="Wdieresis" horiz-adv-x="1060" unicode="&#7812;" /><glyph d="M33 0ZM856 0H671L563 350L532 455L500 350L391 0H206L33 700H211L293 350L324 213L366 350L475 700H611L723 350L767 210L799 350L880 700H1028ZM595 749 385 871 467 961 652 813Z" glyph-name="Wgrave" horiz-adv-x="1060" unicode="&#7808;" /><glyph d="M381 246 202 0H16L292 356L29 700H238L396 481L554 700H737L482 372L766 0H556Z" glyph-name="X" horiz-adv-x="782" unicode="X" /><glyph d="M440 0H268V290L18 700H206L360 431L518 700H690L440 290Z" glyph-name="Y" horiz-adv-x="707" unicode="Y" /><glyph d="M18 0ZM440 0H268V290L18 700H206L360 431L518 700H690L440 290ZM418 961 500 871 290 749 233 813Z" glyph-name="Yacute" horiz-adv-x="707" unicode="&#221;" /><glyph d="M18 0ZM440 0H268V290L18 700H206L360 431L518 700H690L440 290ZM470 759 355 829 242 759 177 820 356 949 535 820Z" glyph-name="Ycircumflex" horiz-adv-x="707" unicode="&#374;" /><glyph d="M18 0ZM440 0H268V290L18 700H206L360 431L518 700H690L440 290ZM244 761Q209 761 184.5 785Q160 809 160 842Q160 859 166.5 874Q173 889 184.5 900.5Q196 912 211 918.5Q226 925 244 925Q279 925 303.5 901Q328 877 328 842Q328 825 321.5 810.5Q315 796 303.5 785Q292 774 276.5 767.5Q261 761 244 761ZM464 761Q429 761 404.5 785Q380 809 380 842Q380 859 386.5 874Q393 889 404.5 900.5Q416 912 431 918.5Q446 925 464 925Q499 925 523.5 901Q548 877 548 842Q548 825 541.5 810.5Q535 796 523.5 785Q512 774 496.5 767.5Q481 761 464 761Z" glyph-name="Ydieresis" horiz-adv-x="707" unicode="&#376;" /><glyph d="M18 0ZM440 0H268V290L18 700H206L360 431L518 700H690L440 290ZM418 749 208 871 290 961 475 813Z" glyph-name="Ygrave" horiz-adv-x="707" unicode="&#7922;" /><glyph d="M602 0H32V107L381 563H44V700H597V582L256 137H602Z" glyph-name="Z" horiz-adv-x="634" unicode="Z" /><glyph d="M32 0ZM602 0H32V107L381 563H44V700H597V582L256 137H602ZM382 961 464 871 254 749 197 813Z" glyph-name="Zacute" horiz-adv-x="634" unicode="&#377;" /><glyph d="M32 0ZM602 0H32V107L381 563H44V700H597V582L256 137H602ZM319 764 140 893 205 954 320 884 433 954 498 893Z" glyph-name="Zcaron" horiz-adv-x="634" unicode="&#381;" /><glyph d="M32 0ZM602 0H32V107L381 563H44V700H597V582L256 137H602ZM318 761Q283 761 258.5 785Q234 809 234 842Q234 859 240.5 874Q247 889 258.5 900.5Q270 912 285 918.5Q300 925 318 925Q353 925 377.5 901Q402 877 402 842Q402 825 395.5 810.5Q389 796 377.5 785Q366 774 350.5 767.5Q335 761 318 761Z" glyph-name="Zdotaccent" horiz-adv-x="634" unicode="&#379;" /><glyph d="M355 0Q352 17 351 34.5Q350 52 349 70Q316 32 271 13Q226 -6 181 -6Q114 -6 72.5 28Q31 62 31 122Q31 187 77.5 224.5Q124 262 231 286L350 313V323Q350 355 328.5 377Q307 399 266 399Q224 399 201 379Q178 359 167 328L42 367Q68 436 128 476Q188 516 276 516Q333 516 375.5 502Q418 488 446.5 462.5Q475 437 489 401.5Q503 366 503 323V77Q503 61 504 39.5Q505 18 507 0ZM182 142Q182 122 196 110Q210 98 239 98Q253 98 270 103Q287 108 302.5 117Q318 126 331 138.5Q344 151 350 166V220L251 197Q213 188 197.5 175.5Q182 163 182 142Z" glyph-name="a" horiz-adv-x="550" unicode="a" /><glyph d="M414 61Q388 29 349.5 11.5Q311 -6 269 -6Q216 -6 173 13Q130 32 100 66.5Q70 101 54 149Q38 197 38 255Q38 313 56 361Q74 409 106 443.5Q138 478 182 497Q226 516 279 516Q322 516 360.5 499Q399 482 423 453L447 510H572V0H421ZM193 253Q193 187 226 150Q259 113 312 113Q384 113 415 175V332Q384 393 312 393Q259 393 226 357.5Q193 322 193 253Z" glyph-name="a.school" horiz-adv-x="619" /><glyph d="M31 0ZM355 0Q352 17 351 34.5Q350 52 349 70Q316 32 271 13Q226 -6 181 -6Q114 -6 72.5 28Q31 62 31 122Q31 187 77.5 224.5Q124 262 231 286L350 313V323Q350 355 328.5 377Q307 399 266 399Q224 399 201 379Q178 359 167 328L42 367Q68 436 128 476Q188 516 276 516Q333 516 375.5 502Q418 488 446.5 462.5Q475 437 489 401.5Q503 366 503 323V77Q503 61 504 39.5Q505 18 507 0ZM182 142Q182 122 196 110Q210 98 239 98Q253 98 270 103Q287 108 302.5 117Q318 126 331 138.5Q344 151 350 166V220L251 197Q213 188 197.5 175.5Q182 163 182 142ZM332 771 414 681 204 559 147 623Z" glyph-name="aacute" horiz-adv-x="550" unicode="&#225;" /><glyph d="M31 0ZM355 0Q352 17 351 34.5Q350 52 349 70Q316 32 271 13Q226 -6 181 -6Q114 -6 72.5 28Q31 62 31 122Q31 187 77.5 224.5Q124 262 231 286L350 313V323Q350 355 328.5 377Q307 399 266 399Q224 399 201 379Q178 359 167 328L42 367Q68 436 128 476Q188 516 276 516Q333 516 375.5 502Q418 488 446.5 462.5Q475 437 489 401.5Q503 366 503 323V77Q503 61 504 39.5Q505 18 507 0ZM182 142Q182 122 196 110Q210 98 239 98Q253 98 270 103Q287 108 302.5 117Q318 126 331 138.5Q344 151 350 166V220L251 197Q213 188 197.5 175.5Q182 163 182 142ZM384 569 269 639 156 569 91 630 270 759 449 630Z" glyph-name="acircumflex" horiz-adv-x="550" unicode="&#226;" /><glyph d="M322 771 404 681 194 559 137 623Z" glyph-name="acute" horiz-adv-x="515" unicode="&#180;" /><glyph d="M31 0ZM355 0Q352 17 351 34.5Q350 52 349 70Q316 32 271 13Q226 -6 181 -6Q114 -6 72.5 28Q31 62 31 122Q31 187 77.5 224.5Q124 262 231 286L350 313V323Q350 355 328.5 377Q307 399 266 399Q224 399 201 379Q178 359 167 328L42 367Q68 436 128 476Q188 516 276 516Q333 516 375.5 502Q418 488 446.5 462.5Q475 437 489 401.5Q503 366 503 323V77Q503 61 504 39.5Q505 18 507 0ZM182 142Q182 122 196 110Q210 98 239 98Q253 98 270 103Q287 108 302.5 117Q318 126 331 138.5Q344 151 350 166V220L251 197Q213 188 197.5 175.5Q182 163 182 142ZM158 571Q123 571 98.5 595Q74 619 74 652Q74 669 80.5 684Q87 699 98.5 710.5Q110 722 125 728.5Q140 735 158 735Q193 735 217.5 711Q242 687 242 652Q242 635 235.5 620.5Q229 606 217.5 595Q206 584 190.5 577.5Q175 571 158 571ZM378 571Q343 571 318.5 595Q294 619 294 652Q294 669 300.5 684Q307 699 318.5 710.5Q330 722 345 728.5Q360 735 378 735Q413 735 437.5 711Q462 687 462 652Q462 635 455.5 620.5Q449 606 437.5 595Q426 584 410.5 577.5Q395 571 378 571Z" glyph-name="adieresis" horiz-adv-x="550" unicode="&#228;" /><glyph d="M601 -5Q537 -5 486 19.5Q435 44 400 87Q361 44 314.5 19Q268 -6 198 -6Q120 -6 74 28Q28 62 28 122Q28 160 43.5 188Q59 216 92 237Q125 258 175.5 273.5Q226 289 296 303L343 312V323Q343 363 317.5 381Q292 399 259 399Q225 399 200 384Q175 369 160 328L40 377Q72 440 133.5 478Q195 516 281 516Q334 516 372 499.5Q410 483 434 453Q464 482 503 499Q542 516 590 516Q646 516 691.5 497Q737 478 769 444Q801 410 818 363.5Q835 317 835 262V228H493Q496 195 507.5 172.5Q519 150 535 136.5Q551 123 569.5 117Q588 111 605 111Q640 111 667.5 127Q695 143 708 175L830 134Q821 109 803 84.5Q785 60 757 40Q729 20 690.5 7.5Q652 -5 601 -5ZM597 403Q562 403 535 382.5Q508 362 497 316H688Q683 355 660 379Q637 403 597 403ZM177 139Q177 122 192 110Q207 98 233 98Q264 98 296 116.5Q328 135 343 164V219L316 214Q241 199 209 183.5Q177 168 177 139Z" glyph-name="ae" horiz-adv-x="877" unicode="&#230;" /><glyph d="M31 0ZM355 0Q352 17 351 34.5Q350 52 349 70Q316 32 271 13Q226 -6 181 -6Q114 -6 72.5 28Q31 62 31 122Q31 187 77.5 224.5Q124 262 231 286L350 313V323Q350 355 328.5 377Q307 399 266 399Q224 399 201 379Q178 359 167 328L42 367Q68 436 128 476Q188 516 276 516Q333 516 375.5 502Q418 488 446.5 462.5Q475 437 489 401.5Q503 366 503 323V77Q503 61 504 39.5Q505 18 507 0ZM182 142Q182 122 196 110Q210 98 239 98Q253 98 270 103Q287 108 302.5 117Q318 126 331 138.5Q344 151 350 166V220L251 197Q213 188 197.5 175.5Q182 163 182 142ZM332 559 122 681 204 771 389 623Z" glyph-name="agrave" horiz-adv-x="550" unicode="&#224;" /><glyph d="M31 0ZM355 0Q352 17 351 34.5Q350 52 349 70Q316 32 271 13Q226 -6 181 -6Q114 -6 72.5 28Q31 62 31 122Q31 187 77.5 224.5Q124 262 231 286L350 313V323Q350 355 328.5 377Q307 399 266 399Q224 399 201 379Q178 359 167 328L42 367Q68 436 128 476Q188 516 276 516Q333 516 375.5 502Q418 488 446.5 462.5Q475 437 489 401.5Q503 366 503 323V77Q503 61 504 39.5Q505 18 507 0ZM182 142Q182 122 196 110Q210 98 239 98Q253 98 270 103Q287 108 302.5 117Q318 126 331 138.5Q344 151 350 166V220L251 197Q213 188 197.5 175.5Q182 163 182 142ZM132 602V698H405V602Z" glyph-name="amacron" horiz-adv-x="550" unicode="&#257;" /><glyph d="M467 56Q422 27 372 10.5Q322 -6 268 -6Q218 -6 176.5 6.5Q135 19 104.5 42.5Q74 66 57 100.5Q40 135 40 179Q40 245 72 291.5Q104 338 176 370L172 374Q135 414 120.5 450.5Q106 487 106 521Q106 561 121 594.5Q136 628 164 652.5Q192 677 232 690.5Q272 704 322 704Q378 704 418.5 688.5Q459 673 484.5 648.5Q510 624 522 594.5Q534 565 534 537Q534 512 527.5 487.5Q521 463 505 440Q489 417 463.5 396Q438 375 399 357L492 256Q513 285 531 317.5Q549 350 564 385L710 358Q687 304 655.5 252.5Q624 201 584 156L728 0H519ZM321 441Q361 464 373 485.5Q385 507 385 527Q385 550 369.5 566.5Q354 583 325 583Q296 583 282 567Q268 551 268 530Q268 513 277 496Q286 479 302 462ZM214 205Q214 191 219 177.5Q224 164 235 153Q246 142 263.5 135Q281 128 305 128Q345 128 381 149L258 282Q231 263 222.5 244Q214 225 214 205Z" glyph-name="ampersand" horiz-adv-x="749" unicode="&amp;" /><glyph d="M266 453 178 296H44L220 584H316L492 296H353Z" glyph-name="asciicircum" horiz-adv-x="540" unicode="^" /><glyph d="M8 333Q40 405 82.5 439.5Q125 474 167 474Q196 474 217 464Q238 454 256 441.5Q274 429 290.5 419Q307 409 326 409Q341 409 356.5 425Q372 441 389 477L483 442Q451 370 408.5 335.5Q366 301 324 301Q295 301 274 311Q253 321 235 333.5Q217 346 200.5 356Q184 366 165 366Q150 366 134.5 350Q119 334 102 298Z" glyph-name="asciitilde" horiz-adv-x="488" unicode="~" /><glyph d="M408 192 307 346 206 192 96 272 211 416 33 465 75 594 247 529 239 713H375L367 529L539 594L581 465L403 416L518 272Z" glyph-name="asterisk" horiz-adv-x="613" unicode="*" /><glyph d="M608 -167Q559 -192 509.5 -203.5Q460 -215 407 -215Q325 -215 257 -189Q189 -163 140.5 -117Q92 -71 65 -8.5Q38 54 38 127Q38 213 68 287Q98 361 150.5 415.5Q203 470 274 501Q345 532 428 532Q504 532 569 509Q634 486 681.5 444Q729 402 755.5 344Q782 286 782 217Q782 161 768 116.5Q754 72 728 40Q702 8 663.5 -9Q625 -26 576 -26Q531 -26 502 -9Q473 8 460 37Q442 5 411.5 -11.5Q381 -28 349 -28Q322 -28 298 -17.5Q274 -7 255 13.5Q236 34 225 62.5Q214 91 214 127Q214 172 228.5 210.5Q243 249 268 278Q293 307 327 323.5Q361 340 400 340Q431 340 455.5 329Q480 318 496 298L513 325H607L567 98Q563 78 574.5 63.5Q586 49 612 49Q636 49 654.5 62Q673 75 685.5 97.5Q698 120 704 150Q710 180 710 214Q710 272 687.5 319Q665 366 626 399.5Q587 433 535 451Q483 469 424 469Q356 469 298.5 442Q241 415 200 369Q159 323 136 262Q113 201 113 134Q113 70 135.5 17Q158 -36 197.5 -73.5Q237 -111 290.5 -131.5Q344 -152 406 -152Q497 -152 577 -110ZM328 137Q328 102 345.5 80.5Q363 59 391 59Q427 59 450 91Q451 97 451.5 102Q452 107 453 112L471 219Q454 248 419 248Q398 248 381 239Q364 230 352 214.5Q340 199 334 179Q328 159 328 137Z" glyph-name="at" horiz-adv-x="819" unicode="@" /><glyph d="M38 0ZM608 8Q559 -17 509.5 -28.5Q460 -40 407 -40Q325 -40 257 -14Q189 12 140.5 58Q92 104 65 166.5Q38 229 38 302Q38 388 68 462Q98 536 150.5 590.5Q203 645 274 676Q345 707 428 707Q504 707 569 684Q634 661 681.5 619Q729 577 755.5 519Q782 461 782 392Q782 336 768 291.5Q754 247 728 215Q702 183 663.5 166Q625 149 576 149Q531 149 502 166Q473 183 460 212Q442 180 411.5 163.5Q381 147 349 147Q322 147 298 157.5Q274 168 255 188.5Q236 209 225 237.5Q214 266 214 302Q214 347 228.5 385.5Q243 424 268 453Q293 482 327 498.5Q361 515 400 515Q431 515 455.5 504Q480 493 496 473L513 500H607L567 273Q563 253 574.5 238.5Q586 224 612 224Q636 224 654.5 237Q673 250 685.5 272.5Q698 295 704 325Q710 355 710 389Q710 447 687.5 494Q665 541 626 574.5Q587 608 535 626Q483 644 424 644Q356 644 298.5 617Q241 590 200 544Q159 498 136 437Q113 376 113 309Q113 245 135.5 192Q158 139 197.5 101.5Q237 64 290.5 43.5Q344 23 406 23Q497 23 577 65ZM328 312Q328 277 345.5 255.5Q363 234 391 234Q427 234 450 266Q451 272 451.5 277Q452 282 453 287L471 394Q454 423 419 423Q398 423 381 414Q364 405 352 389.5Q340 374 334 354Q328 334 328 312Z" glyph-name="at.cap" horiz-adv-x="819" /><glyph d="M31 0ZM355 0Q352 17 351 34.5Q350 52 349 70Q316 32 271 13Q226 -6 181 -6Q114 -6 72.5 28Q31 62 31 122Q31 187 77.5 224.5Q124 262 231 286L350 313V323Q350 355 328.5 377Q307 399 266 399Q224 399 201 379Q178 359 167 328L42 367Q68 436 128 476Q188 516 276 516Q333 516 375.5 502Q418 488 446.5 462.5Q475 437 489 401.5Q503 366 503 323V77Q503 61 504 39.5Q505 18 507 0ZM182 142Q182 122 196 110Q210 98 239 98Q253 98 270 103Q287 108 302.5 117Q318 126 331 138.5Q344 151 350 166V220L251 197Q213 188 197.5 175.5Q182 163 182 142ZM72 599Q86 634 102 657Q118 680 135 693.5Q152 707 169.5 712.5Q187 718 205 718Q225 718 241 710Q257 702 271 693Q285 684 297.5 676Q310 668 323 668Q337 668 349.5 681Q362 694 379 721L466 688Q448 653 431.5 630Q415 607 398 593.5Q381 580 364.5 574.5Q348 569 330 569Q310 569 293.5 577Q277 585 262.5 594Q248 603 235 611Q222 619 209 619Q186 619 158 565Z" glyph-name="atilde" horiz-adv-x="550" unicode="&#227;" /><glyph d="M582 259Q582 201 565 152.5Q548 104 516.5 68.5Q485 33 440 13.5Q395 -6 340 -6Q297 -6 259 11Q221 28 197 57L173 0H48V700H205V448Q230 480 269.5 498Q309 516 351 516Q404 516 447 497Q490 478 520 444Q550 410 566 362.5Q582 315 582 259ZM308 391Q236 391 205 329V172Q235 111 308 111Q361 111 394 146.5Q427 182 427 251Q427 317 394 354Q361 391 308 391Z" glyph-name="b" horiz-adv-x="619" unicode="b" /><glyph d="M358 -200 8 700H170L520 -200Z" glyph-name="backslash" horiz-adv-x="462" unicode="\" /><glyph d="M48 700H205V-200H48Z" glyph-name="bar" horiz-adv-x="252" unicode="|" /><glyph d="M299 -206Q238 -195 198.5 -177.5Q159 -160 135.5 -137Q112 -114 103 -86.5Q94 -59 94 -28Q94 -6 103.5 16.5Q113 39 124 61.5Q135 84 144.5 104.5Q154 125 154 143Q154 169 141.5 183Q129 197 94 197H22V311H94Q129 311 141.5 325Q154 339 154 365Q154 383 144.5 403.5Q135 424 124 446.5Q113 469 103.5 491.5Q94 514 94 536Q94 567 103 594.5Q112 622 135.5 645Q159 668 198.5 685.5Q238 703 299 714L351 619Q320 610 300 600Q280 590 268 579Q256 568 251 555Q246 542 246 526Q246 505 254.5 484.5Q263 464 273.5 444Q284 424 292.5 404.5Q301 385 301 366Q301 325 279.5 301Q258 277 215 254Q258 231 279.5 207Q301 183 301 142Q301 123 292.5 103.5Q284 84 273.5 64Q263 44 254.5 23.5Q246 3 246 -18Q246 -34 251 -47Q256 -60 268 -71.5Q280 -83 300 -92.5Q320 -102 351 -111Z" glyph-name="braceleft" horiz-adv-x="368" unicode="{" /><glyph d="M275 -28Q275 -59 265.5 -86.5Q256 -114 233 -137Q210 -160 170.5 -177.5Q131 -195 70 -206L18 -111Q49 -102 69 -92.5Q89 -83 101 -71.5Q113 -60 118 -47Q123 -34 123 -18Q123 3 114.5 23.5Q106 44 95.5 64Q85 84 76.5 103.5Q68 123 68 142Q68 183 89.5 207Q111 231 154 254Q111 277 89.5 301Q68 325 68 366Q68 385 76.5 404.5Q85 424 95.5 444Q106 464 114.5 484.5Q123 505 123 526Q123 557 101 579Q79 601 18 619L70 714Q131 703 170.5 685.5Q210 668 233 645Q256 622 265.5 594.5Q275 567 275 536Q275 514 265.5 491.5Q256 469 245 446.5Q234 424 224.5 403.5Q215 383 215 365Q215 339 227.5 325Q240 311 275 311H347V197H275Q240 197 227.5 183Q215 169 215 143Q215 125 224.5 104.5Q234 84 245 61.5Q256 39 265.5 16.5Q275 -6 275 -28Z" glyph-name="braceright" horiz-adv-x="368" unicode="}" /><glyph d="M58 700H363V580H223V-80H363V-200H58Z" glyph-name="bracketleft" horiz-adv-x="385" unicode="[" /><glyph d="M328 -200H23V-80H163V580H23V700H328Z" glyph-name="bracketright" horiz-adv-x="385" unicode="]" /><glyph d="M48 243ZM186.2026 513.9368Q214.3744 513.9368 239.416 502.9811Q264.4576 492.0254 283.2388 474.0267Q302.02 456.0281 312.9757 431.769Q323.9314 407.51 323.9314 379.3382Q323.9314 322.9946 283.2388 283.0845Q242.5462 243.1745 186.2026 243.1745Q128.2939 243.1745 88.3838 283.0845Q48.4738 322.9946 48.4738 379.3382Q48.4738 407.51 59.4295 431.769Q70.3852 456.0281 89.1664 474.0267Q107.9476 492.0254 132.9892 502.9811Q158.0308 513.9368 186.2026 513.9368Z" glyph-name="bullet" horiz-adv-x="362" unicode="&#8226;" /><glyph d="M535 178Q528 146 510 113Q492 80 462 54Q432 28 389.5 11.5Q347 -5 291 -5Q234 -5 187.5 14.5Q141 34 107.5 69Q74 104 56 152Q38 200 38 257Q38 313 56.5 360.5Q75 408 108.5 443Q142 478 189.5 497.5Q237 517 295 517Q397 517 456 470Q515 423 535 339L397 311Q386 351 360.5 372Q335 393 297 393Q279 393 260 386Q241 379 226 363Q211 347 201.5 321Q192 295 192 256Q192 217 202 190Q212 163 227.5 147Q243 131 262.5 124Q282 117 301 117Q339 117 366.5 142.5Q394 168 401 202Z" glyph-name="c" horiz-adv-x="566" unicode="c" /><glyph d="M38 0ZM535 178Q528 146 510 113Q492 80 462 54Q432 28 389.5 11.5Q347 -5 291 -5Q234 -5 187.5 14.5Q141 34 107.5 69Q74 104 56 152Q38 200 38 257Q38 313 56.5 360.5Q75 408 108.5 443Q142 478 189.5 497.5Q237 517 295 517Q397 517 456 470Q515 423 535 339L397 311Q386 351 360.5 372Q335 393 297 393Q279 393 260 386Q241 379 226 363Q211 347 201.5 321Q192 295 192 256Q192 217 202 190Q212 163 227.5 147Q243 131 262.5 124Q282 117 301 117Q339 117 366.5 142.5Q394 168 401 202ZM357 771 439 681 229 559 172 623Z" glyph-name="cacute" horiz-adv-x="566" unicode="&#263;" /><glyph d="M259 574 80 703 145 764 260 694 373 764 438 703Z" glyph-name="caron" horiz-adv-x="515" unicode="&#711;" /><glyph d="M38 0ZM535 178Q528 146 510 113Q492 80 462 54Q432 28 389.5 11.5Q347 -5 291 -5Q234 -5 187.5 14.5Q141 34 107.5 69Q74 104 56 152Q38 200 38 257Q38 313 56.5 360.5Q75 408 108.5 443Q142 478 189.5 497.5Q237 517 295 517Q397 517 456 470Q515 423 535 339L397 311Q386 351 360.5 372Q335 393 297 393Q279 393 260 386Q241 379 226 363Q211 347 201.5 321Q192 295 192 256Q192 217 202 190Q212 163 227.5 147Q243 131 262.5 124Q282 117 301 117Q339 117 366.5 142.5Q394 168 401 202ZM294 574 115 703 180 764 295 694 408 764 473 703Z" glyph-name="ccaron" horiz-adv-x="566" unicode="&#269;" /><glyph d="M420 -115Q420 -161 385 -191Q350 -221 289 -221Q238 -221 205 -200Q172 -179 160 -145L237 -117Q243 -130 256 -136.5Q269 -143 286 -143Q309 -143 317.5 -132.5Q326 -122 326 -112Q326 -102 319 -92.5Q312 -83 289 -83H229L256 -3Q206 3 166 24.5Q126 46 97.5 80.5Q69 115 53.5 159.5Q38 204 38 257Q38 313 56.5 360.5Q75 408 108.5 443Q142 478 189.5 497.5Q237 517 295 517Q397 517 456 470Q515 423 535 339L397 311Q386 351 360.5 372Q335 393 297 393Q279 393 260 386Q241 379 226 363Q211 347 201.5 321Q192 295 192 256Q192 217 202 190Q212 163 227.5 147Q243 131 262.5 124Q282 117 301 117Q339 117 366.5 142.5Q394 168 401 202L535 178Q529 150 514.5 121.5Q500 93 476.5 68Q453 43 419.5 24.5Q386 6 343 -1L332 -24Q378 -31 399 -58Q420 -85 420 -115Z" glyph-name="ccedilla" horiz-adv-x="566" unicode="&#231;" /><glyph d="M38 0ZM535 178Q528 146 510 113Q492 80 462 54Q432 28 389.5 11.5Q347 -5 291 -5Q234 -5 187.5 14.5Q141 34 107.5 69Q74 104 56 152Q38 200 38 257Q38 313 56.5 360.5Q75 408 108.5 443Q142 478 189.5 497.5Q237 517 295 517Q397 517 456 470Q515 423 535 339L397 311Q386 351 360.5 372Q335 393 297 393Q279 393 260 386Q241 379 226 363Q211 347 201.5 321Q192 295 192 256Q192 217 202 190Q212 163 227.5 147Q243 131 262.5 124Q282 117 301 117Q339 117 366.5 142.5Q394 168 401 202ZM409 569 294 639 181 569 116 630 295 759 474 630Z" glyph-name="ccircumflex" horiz-adv-x="566" unicode="&#265;" /><glyph d="M38 0ZM535 178Q528 146 510 113Q492 80 462 54Q432 28 389.5 11.5Q347 -5 291 -5Q234 -5 187.5 14.5Q141 34 107.5 69Q74 104 56 152Q38 200 38 257Q38 313 56.5 360.5Q75 408 108.5 443Q142 478 189.5 497.5Q237 517 295 517Q397 517 456 470Q515 423 535 339L397 311Q386 351 360.5 372Q335 393 297 393Q279 393 260 386Q241 379 226 363Q211 347 201.5 321Q192 295 192 256Q192 217 202 190Q212 163 227.5 147Q243 131 262.5 124Q282 117 301 117Q339 117 366.5 142.5Q394 168 401 202ZM293 571Q258 571 233.5 595Q209 619 209 652Q209 669 215.5 684Q222 699 233.5 710.5Q245 722 260 728.5Q275 735 293 735Q328 735 352.5 711Q377 687 377 652Q377 635 370.5 620.5Q364 606 352.5 595Q341 584 325.5 577.5Q310 571 293 571Z" glyph-name="cdotaccent" horiz-adv-x="566" unicode="&#267;" /><glyph d="M388 -115Q388 -161 353 -191Q318 -221 257 -221Q206 -221 173 -200Q140 -179 128 -145L205 -117Q211 -130 224 -136.5Q237 -143 254 -143Q277 -143 285.5 -132.5Q294 -122 294 -112Q294 -102 287 -92.5Q280 -83 257 -83H197L234 27H324L300 -24Q346 -31 367 -58Q388 -85 388 -115Z" glyph-name="cedilla" horiz-adv-x="515" unicode="&#184;" /><glyph d="M535 178Q529 149 514 120Q499 91 475 66Q451 41 416.5 23Q382 5 337 -2V-101H245V-1Q198 6 159.5 28Q121 50 94 84Q67 118 52.5 162Q38 206 38 257Q38 306 52.5 349.5Q67 393 94 426.5Q121 460 159.5 482.5Q198 505 245 513V613H337V515Q420 505 469 459.5Q518 414 535 339L397 311Q382 367 337 386V124Q362 135 379 155.5Q396 176 401 202ZM192 256Q192 206 207 176.5Q222 147 245 133V379Q222 365 207 335.5Q192 306 192 256Z" glyph-name="cent" horiz-adv-x="544" unicode="&#162;" /><glyph d="M373 569 258 639 145 569 80 630 259 759 438 630Z" glyph-name="circumflex" horiz-adv-x="515" unicode="&#710;" /><glyph d="M38 0ZM126 168Q144 168 160 161Q176 154 188 142.5Q200 131 207 115.5Q214 100 214 82Q214 46 188 20.5Q162 -5 126 -5Q89 -5 63.5 20.5Q38 46 38 82Q38 100 45 115.5Q52 131 64 142.5Q76 154 92 161Q108 168 126 168ZM126 478Q144 478 160 471Q176 464 188 452.5Q200 441 207 425.5Q214 410 214 392Q214 356 188 330.5Q162 305 126 305Q89 305 63.5 330.5Q38 356 38 392Q38 410 45 425.5Q52 441 64 452.5Q76 464 92 471Q108 478 126 478Z" glyph-name="colon" horiz-adv-x="252" unicode=":" /><glyph d="M214 53Q214 18 202 -14Q190 -46 169 -71.5Q148 -97 120 -114.5Q92 -132 60 -139L30 -85Q68 -72 96 -50Q124 -28 133 5Q123 3 118 3Q83 3 60.5 26.5Q38 50 38 83Q38 120 62 143Q86 166 122 166Q166 166 190 136.5Q214 107 214 53Z" glyph-name="comma" horiz-adv-x="252" unicode="," /><glyph d="M393 708Q462 708 527 684.5Q592 661 642.5 616Q693 571 723 504.5Q753 438 753 351Q753 264 723 197.5Q693 131 642.5 86Q592 41 527 17.5Q462 -6 393 -6Q324 -6 259 17.5Q194 41 143.5 86Q93 131 63 197.5Q33 264 33 351Q33 438 63 504.5Q93 571 143.5 616Q194 661 259 684.5Q324 708 393 708ZM393 57Q450 57 502 77.5Q554 98 593 136Q632 174 655 228.5Q678 283 678 351Q678 419 655 473.5Q632 528 593 566Q554 604 502 624.5Q450 645 393 645Q336 645 284 624.5Q232 604 193 566Q154 528 131 473.5Q108 419 108 351Q108 283 131 228.5Q154 174 193 136Q232 98 284 77.5Q336 57 393 57ZM577 291Q572 267 558.5 242Q545 217 522.5 197.5Q500 178 467.5 165.5Q435 153 393 153Q350 153 314.5 168Q279 183 254 209Q229 235 215.5 271.5Q202 308 202 351Q202 393 216 429.5Q230 466 255.5 492Q281 518 316.5 533Q352 548 396 548Q473 548 517.5 512Q562 476 577 413L467 392Q452 449 398 449Q384 449 371 444Q358 439 347.5 427.5Q337 416 330.5 397Q324 378 324 350Q324 322 331 303Q338 284 349 272Q360 260 373.5 255Q387 250 401 250Q427 250 446 268Q465 286 470 310Z" glyph-name="copyright" horiz-adv-x="785" unicode="&#169;" /><glyph d="M417 65Q392 31 351.5 12.5Q311 -6 269 -6Q216 -6 173 13Q130 32 100 66.5Q70 101 54 149Q38 197 38 255Q38 313 56 361Q74 409 106 443.5Q138 478 182 497Q226 516 279 516Q318 516 354 501.5Q390 487 415 462V700H572V0H417ZM193 253Q193 187 226 150Q259 113 312 113Q384 113 415 175V332Q384 393 312 393Q259 393 226 357.5Q193 322 193 253Z" glyph-name="d" horiz-adv-x="619" unicode="d" /><glyph d="M266 475 262 147H144L140 475H28V583H139L137 713H269L267 583H378V475Z" glyph-name="dagger" horiz-adv-x="405" unicode="&#8224;" /><glyph d="M273 267 274 137H142L144 267H33V375H146V400L145 475H33V583H144L142 713H274L273 583H383V475H272L271 400V375H383V267Z" glyph-name="daggerdbl" horiz-adv-x="415" unicode="&#8225;" /><glyph d="M201 392Q168 392 138.5 404.5Q109 417 87 438.5Q65 460 52 489Q39 518 39 551Q39 584 52 613Q65 642 87 663.5Q109 685 138.5 697.5Q168 710 201 710Q234 710 264 697.5Q294 685 316 663.5Q338 642 351 613Q364 584 364 551Q364 518 351 489Q338 460 316 438.5Q294 417 264 404.5Q234 392 201 392ZM201 482Q230 482 249.5 502Q269 522 269 551Q269 580 249.5 600Q230 620 201 620Q172 620 152.5 600Q133 580 133 551Q133 522 152.5 502Q172 482 201 482Z" glyph-name="degree" horiz-adv-x="402" unicode="&#176;" /><glyph d="M148 571Q113 571 88.5 595Q64 619 64 652Q64 669 70.5 684Q77 699 88.5 710.5Q100 722 115 728.5Q130 735 148 735Q183 735 207.5 711Q232 687 232 652Q232 635 225.5 620.5Q219 606 207.5 595Q196 584 180.5 577.5Q165 571 148 571ZM368 571Q333 571 308.5 595Q284 619 284 652Q284 669 290.5 684Q297 699 308.5 710.5Q320 722 335 728.5Q350 735 368 735Q403 735 427.5 711Q452 687 452 652Q452 635 445.5 620.5Q439 606 427.5 595Q416 584 400.5 577.5Q385 571 368 571Z" glyph-name="dieresis" horiz-adv-x="515" unicode="&#168;" /><glyph d="M598 210Q598 172 584 136.5Q570 101 541.5 72.5Q513 44 470 25Q427 6 370 1V-90H268V3Q184 13 122 48.5Q60 84 32 138L171 203Q186 172 211.5 153.5Q237 135 268 126V268L205 284Q129 304 89.5 351Q50 398 50 467Q50 507 65.5 543Q81 579 109.5 606.5Q138 634 178 652Q218 670 268 675V768H370V672Q449 659 501.5 620.5Q554 582 577 535L437 485Q414 525 370 542V405L425 390Q598 344 598 210ZM213 493Q213 473 223.5 457.5Q234 442 268 433V552Q241 545 227 529.5Q213 514 213 493ZM370 242V120Q403 126 418.5 142Q434 158 434 181Q434 204 419 219Q404 234 379 240Z" glyph-name="dollar" horiz-adv-x="651" unicode="$" /><glyph d="M258 571Q223 571 198.5 595Q174 619 174 652Q174 669 180.5 684Q187 699 198.5 710.5Q210 722 225 728.5Q240 735 258 735Q293 735 317.5 711Q342 687 342 652Q342 635 335.5 620.5Q329 606 317.5 595Q306 584 290.5 577.5Q275 571 258 571Z" glyph-name="dotaccent" horiz-adv-x="515" unicode="&#729;" /><glyph d="M48 510H205V0H48Z" glyph-name="dotlessi" horiz-adv-x="252" unicode="&#305;" /><glyph d="M48 510H205V-49Q205 -123 157.5 -164.5Q110 -206 30 -206Q-20 -206 -54 -197V-90Q-43 -92 -32.5 -93Q-22 -94 -12 -94Q13 -94 30.5 -81.5Q48 -69 48 -42Z" glyph-name="dotlessj" horiz-adv-x="252" unicode="&#567;" /><glyph d="M533 134Q524 109 505.5 84.5Q487 60 458.5 40Q430 20 390.5 7.5Q351 -5 299 -5Q241 -5 193 14.5Q145 34 110.5 69Q76 104 57 152Q38 200 38 257Q38 312 56.5 359.5Q75 407 109 442Q143 477 190 496.5Q237 516 293 516Q350 516 394.5 497Q439 478 470 444Q501 410 517 363.5Q533 317 533 262V228H191Q194 195 205.5 172.5Q217 150 233 136.5Q249 123 267.5 117Q286 111 303 111Q339 111 368.5 127Q398 143 411 175ZM290 403Q257 403 231.5 382.5Q206 362 195 316H386Q381 355 356.5 379Q332 403 290 403Z" glyph-name="e" horiz-adv-x="570" unicode="e" /><glyph d="M38 0ZM533 134Q524 109 505.5 84.5Q487 60 458.5 40Q430 20 390.5 7.5Q351 -5 299 -5Q241 -5 193 14.5Q145 34 110.5 69Q76 104 57 152Q38 200 38 257Q38 312 56.5 359.5Q75 407 109 442Q143 477 190 496.5Q237 516 293 516Q350 516 394.5 497Q439 478 470 444Q501 410 517 363.5Q533 317 533 262V228H191Q194 195 205.5 172.5Q217 150 233 136.5Q249 123 267.5 117Q286 111 303 111Q339 111 368.5 127Q398 143 411 175ZM290 403Q257 403 231.5 382.5Q206 362 195 316H386Q381 355 356.5 379Q332 403 290 403ZM352 771 434 681 224 559 167 623Z" glyph-name="eacute" horiz-adv-x="570" unicode="&#233;" /><glyph d="M38 0ZM533 134Q524 109 505.5 84.5Q487 60 458.5 40Q430 20 390.5 7.5Q351 -5 299 -5Q241 -5 193 14.5Q145 34 110.5 69Q76 104 57 152Q38 200 38 257Q38 312 56.5 359.5Q75 407 109 442Q143 477 190 496.5Q237 516 293 516Q350 516 394.5 497Q439 478 470 444Q501 410 517 363.5Q533 317 533 262V228H191Q194 195 205.5 172.5Q217 150 233 136.5Q249 123 267.5 117Q286 111 303 111Q339 111 368.5 127Q398 143 411 175ZM290 403Q257 403 231.5 382.5Q206 362 195 316H386Q381 355 356.5 379Q332 403 290 403ZM289 574 110 703 175 764 290 694 403 764 468 703Z" glyph-name="ecaron" horiz-adv-x="570" unicode="&#283;" /><glyph d="M38 0ZM533 134Q524 109 505.5 84.5Q487 60 458.5 40Q430 20 390.5 7.5Q351 -5 299 -5Q241 -5 193 14.5Q145 34 110.5 69Q76 104 57 152Q38 200 38 257Q38 312 56.5 359.5Q75 407 109 442Q143 477 190 496.5Q237 516 293 516Q350 516 394.5 497Q439 478 470 444Q501 410 517 363.5Q533 317 533 262V228H191Q194 195 205.5 172.5Q217 150 233 136.5Q249 123 267.5 117Q286 111 303 111Q339 111 368.5 127Q398 143 411 175ZM290 403Q257 403 231.5 382.5Q206 362 195 316H386Q381 355 356.5 379Q332 403 290 403ZM404 569 289 639 176 569 111 630 290 759 469 630Z" glyph-name="ecircumflex" horiz-adv-x="570" unicode="&#234;" /><glyph d="M38 0ZM533 134Q524 109 505.5 84.5Q487 60 458.5 40Q430 20 390.5 7.5Q351 -5 299 -5Q241 -5 193 14.5Q145 34 110.5 69Q76 104 57 152Q38 200 38 257Q38 312 56.5 359.5Q75 407 109 442Q143 477 190 496.5Q237 516 293 516Q350 516 394.5 497Q439 478 470 444Q501 410 517 363.5Q533 317 533 262V228H191Q194 195 205.5 172.5Q217 150 233 136.5Q249 123 267.5 117Q286 111 303 111Q339 111 368.5 127Q398 143 411 175ZM290 403Q257 403 231.5 382.5Q206 362 195 316H386Q381 355 356.5 379Q332 403 290 403ZM178 571Q143 571 118.5 595Q94 619 94 652Q94 669 100.5 684Q107 699 118.5 710.5Q130 722 145 728.5Q160 735 178 735Q213 735 237.5 711Q262 687 262 652Q262 635 255.5 620.5Q249 606 237.5 595Q226 584 210.5 577.5Q195 571 178 571ZM398 571Q363 571 338.5 595Q314 619 314 652Q314 669 320.5 684Q327 699 338.5 710.5Q350 722 365 728.5Q380 735 398 735Q433 735 457.5 711Q482 687 482 652Q482 635 475.5 620.5Q469 606 457.5 595Q446 584 430.5 577.5Q415 571 398 571Z" glyph-name="edieresis" horiz-adv-x="570" unicode="&#235;" /><glyph d="M38 0ZM533 134Q524 109 505.5 84.5Q487 60 458.5 40Q430 20 390.5 7.5Q351 -5 299 -5Q241 -5 193 14.5Q145 34 110.5 69Q76 104 57 152Q38 200 38 257Q38 312 56.5 359.5Q75 407 109 442Q143 477 190 496.5Q237 516 293 516Q350 516 394.5 497Q439 478 470 444Q501 410 517 363.5Q533 317 533 262V228H191Q194 195 205.5 172.5Q217 150 233 136.5Q249 123 267.5 117Q286 111 303 111Q339 111 368.5 127Q398 143 411 175ZM290 403Q257 403 231.5 382.5Q206 362 195 316H386Q381 355 356.5 379Q332 403 290 403ZM288 571Q253 571 228.5 595Q204 619 204 652Q204 669 210.5 684Q217 699 228.5 710.5Q240 722 255 728.5Q270 735 288 735Q323 735 347.5 711Q372 687 372 652Q372 635 365.5 620.5Q359 606 347.5 595Q336 584 320.5 577.5Q305 571 288 571Z" glyph-name="edotaccent" horiz-adv-x="570" unicode="&#279;" /><glyph d="M38 0ZM533 134Q524 109 505.5 84.5Q487 60 458.5 40Q430 20 390.5 7.5Q351 -5 299 -5Q241 -5 193 14.5Q145 34 110.5 69Q76 104 57 152Q38 200 38 257Q38 312 56.5 359.5Q75 407 109 442Q143 477 190 496.5Q237 516 293 516Q350 516 394.5 497Q439 478 470 444Q501 410 517 363.5Q533 317 533 262V228H191Q194 195 205.5 172.5Q217 150 233 136.5Q249 123 267.5 117Q286 111 303 111Q339 111 368.5 127Q398 143 411 175ZM290 403Q257 403 231.5 382.5Q206 362 195 316H386Q381 355 356.5 379Q332 403 290 403ZM352 559 142 681 224 771 409 623Z" glyph-name="egrave" horiz-adv-x="570" unicode="&#232;" /><glyph d="M598 204Q598 160 578.5 122Q559 84 523 55.5Q487 27 435.5 10.5Q384 -6 320 -6Q257 -6 206 9.5Q155 25 118.5 52Q82 79 62.5 115.5Q43 152 43 194Q43 245 72 284.5Q101 324 155 347Q62 402 62 502Q62 541 78 577.5Q94 614 126.5 642.5Q159 671 208 688.5Q257 706 322 706Q378 706 423.5 692.5Q469 679 501.5 654.5Q534 630 551.5 596.5Q569 563 569 523Q569 481 543.5 444.5Q518 408 470 385Q531 357 564.5 314.5Q598 272 598 204ZM355 424Q382 434 398.5 455Q415 476 415 504Q415 536 390.5 561Q366 586 314 586Q269 586 244.5 565Q220 544 220 514Q220 482 244 465Q268 448 305 438ZM203 212Q203 169 235.5 142Q268 115 324 115Q377 115 405.5 140Q434 165 434 201Q434 238 406 257.5Q378 277 334 288L267 305Q237 292 220 268Q203 244 203 212Z" glyph-name="eight" horiz-adv-x="640" unicode="8" /><glyph d="M38 0ZM126 168Q144 168 160 161Q176 154 188 142.5Q200 131 207 115.5Q214 100 214 82Q214 46 188 20.5Q162 -5 126 -5Q89 -5 63.5 20.5Q38 46 38 82Q38 100 45 115.5Q52 131 64 142.5Q76 154 92 161Q108 168 126 168ZM363 168Q381 168 397 161Q413 154 425 142.5Q437 131 444 115.5Q451 100 451 82Q451 46 425 20.5Q399 -5 363 -5Q326 -5 300.5 20.5Q275 46 275 82Q275 100 282 115.5Q289 131 301 142.5Q313 154 329 161Q345 168 363 168ZM600 168Q618 168 634 161Q650 154 662 142.5Q674 131 681 115.5Q688 100 688 82Q688 46 662 20.5Q636 -5 600 -5Q563 -5 537.5 20.5Q512 46 512 82Q512 100 519 115.5Q526 131 538 142.5Q550 154 566 161Q582 168 600 168Z" glyph-name="ellipsis" horiz-adv-x="726" unicode="&#8230;" /><glyph d="M38 0ZM533 134Q524 109 505.5 84.5Q487 60 458.5 40Q430 20 390.5 7.5Q351 -5 299 -5Q241 -5 193 14.5Q145 34 110.5 69Q76 104 57 152Q38 200 38 257Q38 312 56.5 359.5Q75 407 109 442Q143 477 190 496.5Q237 516 293 516Q350 516 394.5 497Q439 478 470 444Q501 410 517 363.5Q533 317 533 262V228H191Q194 195 205.5 172.5Q217 150 233 136.5Q249 123 267.5 117Q286 111 303 111Q339 111 368.5 127Q398 143 411 175ZM290 403Q257 403 231.5 382.5Q206 362 195 316H386Q381 355 356.5 379Q332 403 290 403ZM152 602V698H425V602Z" glyph-name="emacron" horiz-adv-x="570" unicode="&#275;" /><glyph d="M713 415V295H33V415Z" glyph-name="emdash" horiz-adv-x="745" unicode="&#8212;" /><glyph glyph-name="emspace" horiz-adv-x="745" unicode="&#8195;" /><glyph d="M513 415V295H33V415Z" glyph-name="endash" horiz-adv-x="545" unicode="&#8211;" /><glyph glyph-name="enspace" horiz-adv-x="545" unicode="&#8194;" /><glyph d="M573 389H63V509H573ZM573 177H63V297H573Z" glyph-name="equal" horiz-adv-x="634" unicode="=" /><glyph d="M213 706 182 217H75L44 706ZM126 168Q144 168 160 161Q176 154 188 142.5Q200 131 207 115.5Q214 100 214 82Q214 46 188 20.5Q162 -5 126 -5Q89 -5 63.5 20.5Q38 46 38 82Q38 100 45 115.5Q52 131 64 142.5Q76 154 92 161Q108 168 126 168Z" glyph-name="exclam" horiz-adv-x="252" unicode="!" /><glyph d="M126 344Q108 344 92 351Q76 358 64 369.5Q52 381 45 396.5Q38 412 38 430Q38 466 64 491.5Q90 517 126 517Q163 517 188.5 491.5Q214 466 214 430Q214 412 207 396.5Q200 381 188 369.5Q176 358 160 351Q144 344 126 344ZM39 -194 70 295H177L208 -194Z" glyph-name="exclamdown" horiz-adv-x="252" unicode="&#161;" /><glyph d="M126 533Q108 533 92 540Q76 547 64 558.5Q52 570 45 585.5Q38 601 38 619Q38 655 64 680.5Q90 706 126 706Q163 706 188.5 680.5Q214 655 214 619Q214 601 207 585.5Q200 570 188 558.5Q176 547 160 540Q144 533 126 533ZM39 -5 70 484H177L208 -5Z" glyph-name="exclamdown.cap" horiz-adv-x="252" /><glyph d="M270 400V0H113V400H23V510H113V564Q113 640 159.5 683Q206 726 293 726Q324 726 348 724Q372 722 392 717V605Q375 607 360 608Q345 609 330 609Q270 609 270 557V510H392V400Z" glyph-name="f" horiz-adv-x="414" unicode="f" /><glyph d="M23 0ZM270 400V0H113V400H23V510H113V564Q113 640 159.5 683Q206 726 293 726Q324 726 348 724Q372 722 392 717V605Q375 607 360 608Q345 609 330 609Q270 609 270 557V510H392V400ZM510 562Q492 562 476 569Q460 576 448 587.5Q436 599 429 614.5Q422 630 422 648Q422 684 447.5 709.5Q473 735 510 735Q546 735 572 709.5Q598 684 598 648Q598 630 591 614.5Q584 599 572 587.5Q560 576 544 569Q528 562 510 562ZM432 510H589V0H432Z" glyph-name="fi" horiz-adv-x="626" unicode="&#64257;" /><glyph d="M570 246Q570 192 550 145.5Q530 99 494 65.5Q458 32 407 13Q356 -6 293 -6Q200 -6 135.5 31Q71 68 37 131L178 191Q199 156 225 138.5Q251 121 292 121Q316 121 337 128Q358 135 374 149Q390 163 399.5 184.5Q409 206 409 235Q409 285 377.5 315.5Q346 346 292 346Q251 346 220.5 328.5Q190 311 173 288L46 295L76 700H528V572H207L196 430Q222 448 255.5 458Q289 468 332 468Q389 468 433 451.5Q477 435 507.5 405.5Q538 376 554 335Q570 294 570 246Z" glyph-name="five" horiz-adv-x="607" unicode="5" /><glyph d="M23 0ZM270 400V0H113V400H23V510H113V564Q113 640 159.5 683Q206 726 293 726Q324 726 348 724Q372 722 392 717V605Q375 607 360 608Q345 609 330 609Q270 609 270 557V510H392V400ZM432 700H589V0H432Z" glyph-name="fl" horiz-adv-x="626" unicode="&#64258;" /><glyph d="M326 700H532V289H623V162H532V0H372V162H27V268ZM372 289V570L184 289Z" glyph-name="four" horiz-adv-x="651" unicode="4" /><glyph d="M8 0 358 700H468L118 0Z" glyph-name="fraction" horiz-adv-x="475" unicode="&#8260;" /><glyph d="M567 36Q567 -85 497 -145Q427 -205 296 -205Q202 -205 139.5 -172.5Q77 -140 51 -77L183 -36Q193 -60 220 -77Q247 -94 289 -94Q341 -94 375.5 -68Q410 -42 410 17V72Q385 40 345.5 22Q306 4 264 4Q212 4 170 23Q128 42 99 75.5Q70 109 54 156Q38 203 38 260Q38 317 55.5 364Q73 411 104.5 444.5Q136 478 179 497Q222 516 274 516Q317 516 355.5 499Q394 482 418 453L442 510H567ZM193 258Q193 194 224.5 158.5Q256 123 307 123Q379 123 410 183V334Q380 393 307 393Q256 393 224.5 358.5Q193 324 193 258Z" glyph-name="g" horiz-adv-x="614" unicode="g" /><glyph d="M581 -30Q581 -63 566 -94Q551 -125 514.5 -149.5Q478 -174 416.5 -189Q355 -204 263 -204Q130 -204 69 -179.5Q8 -155 8 -102Q8 -75 35.5 -50.5Q63 -26 123 -13Q85 -2 63.5 21.5Q42 45 42 80Q42 116 73.5 145.5Q105 175 161 188Q106 210 73 250.5Q40 291 40 342Q40 375 55.5 406.5Q71 438 101.5 462.5Q132 487 176.5 501.5Q221 516 280 516Q343 516 392.5 497.5Q442 479 473 447Q499 482 534 501Q569 520 615 518V401Q595 406 564.5 405Q534 404 508 391Q517 367 517 341Q517 308 502.5 276.5Q488 245 458 220.5Q428 196 383 181Q338 166 278 166H249Q216 166 196 158.5Q176 151 176 137Q176 124 194.5 117.5Q213 111 256 106L425 93Q470 90 500 79Q530 68 548 51.5Q566 35 573.5 14Q581 -7 581 -30ZM279 264Q314 264 339.5 283.5Q365 303 365 338Q365 378 339.5 398Q314 418 279 418Q244 418 218 398Q192 378 192 339Q192 304 218 284Q244 264 279 264ZM141 -73Q141 -92 171 -102Q201 -112 264 -112Q310 -112 341 -109Q372 -106 391 -100Q410 -94 418 -85Q426 -76 426 -64Q426 -50 409.5 -42Q393 -34 348 -32L218 -24Q182 -29 161.5 -42Q141 -55 141 -73Z" glyph-name="g.school" horiz-adv-x="633" /><glyph d="M38 0ZM567 36Q567 -85 497 -145Q427 -205 296 -205Q202 -205 139.5 -172.5Q77 -140 51 -77L183 -36Q193 -60 220 -77Q247 -94 289 -94Q341 -94 375.5 -68Q410 -42 410 17V72Q385 40 345.5 22Q306 4 264 4Q212 4 170 23Q128 42 99 75.5Q70 109 54 156Q38 203 38 260Q38 317 55.5 364Q73 411 104.5 444.5Q136 478 179 497Q222 516 274 516Q317 516 355.5 499Q394 482 418 453L442 510H567ZM193 258Q193 194 224.5 158.5Q256 123 307 123Q379 123 410 183V334Q380 393 307 393Q256 393 224.5 358.5Q193 324 193 258ZM414 569 299 639 186 569 121 630 300 759 479 630Z" glyph-name="gcircumflex" horiz-adv-x="614" unicode="&#285;" /><glyph d="M38 0ZM567 36Q567 -85 497 -145Q427 -205 296 -205Q202 -205 139.5 -172.5Q77 -140 51 -77L183 -36Q193 -60 220 -77Q247 -94 289 -94Q341 -94 375.5 -68Q410 -42 410 17V72Q385 40 345.5 22Q306 4 264 4Q212 4 170 23Q128 42 99 75.5Q70 109 54 156Q38 203 38 260Q38 317 55.5 364Q73 411 104.5 444.5Q136 478 179 497Q222 516 274 516Q317 516 355.5 499Q394 482 418 453L442 510H567ZM193 258Q193 194 224.5 158.5Q256 123 307 123Q379 123 410 183V334Q380 393 307 393Q256 393 224.5 358.5Q193 324 193 258ZM298 571Q263 571 238.5 595Q214 619 214 652Q214 669 220.5 684Q227 699 238.5 710.5Q250 722 265 728.5Q280 735 298 735Q333 735 357.5 711Q382 687 382 652Q382 635 375.5 620.5Q369 606 357.5 595Q346 584 330.5 577.5Q315 571 298 571Z" glyph-name="gdotaccent" horiz-adv-x="614" unicode="&#289;" /><glyph d="M322 559 112 681 194 771 379 623Z" glyph-name="grave" horiz-adv-x="515" unicode="`" /><glyph d="M65 4V168L246 309L65 451V616L453 311Z" glyph-name="greater" horiz-adv-x="483" unicode="&gt;" /><glyph d="M62 167V299L229 383L62 467V600L445 385ZM62 105H447V0H62Z" glyph-name="greaterequal" horiz-adv-x="510" unicode="&#8805;" /><glyph d="M23 0ZM188 258 389 0H222L23 255L222 510H384ZM453 258 654 0H487L288 255L487 510H649Z" glyph-name="guillemotleft" horiz-adv-x="671" unicode="&#171;" /><glyph d="M455 0H293L489 252L288 510H455L654 255ZM190 0H28L224 252L23 510H190L389 255Z" glyph-name="guillemotright" horiz-adv-x="671" unicode="&#187;" /><glyph d="M188 258 389 0H222L23 255L222 510H384Z" glyph-name="guilsinglleft" horiz-adv-x="406" unicode="&#8249;" /><glyph d="M185 0H23L219 252L18 510H185L384 255Z" glyph-name="guilsinglright" horiz-adv-x="406" unicode="&#8250;" /><glyph d="M205 700V434Q232 477 273.5 496.5Q315 516 362 516Q402 516 434.5 503.5Q467 491 490 468.5Q513 446 525.5 413.5Q538 381 538 342V0H381V303Q381 342 359.5 364.5Q338 387 298 387Q267 387 242.5 371Q218 355 205 326V0H48V700Z" glyph-name="h" horiz-adv-x="585" unicode="h" /><glyph d="M48 0ZM205 700V434Q232 477 273.5 496.5Q315 516 362 516Q402 516 434.5 503.5Q467 491 490 468.5Q513 446 525.5 413.5Q538 381 538 342V0H381V303Q381 342 359.5 364.5Q338 387 298 387Q267 387 242.5 371Q218 355 205 326V0H48V700ZM397 759 282 829 169 759 104 820 283 949 462 820Z" glyph-name="hcircumflex" horiz-adv-x="585" unicode="&#293;" /><glyph d="M363 415V295H33V415Z" glyph-name="hyphen" horiz-adv-x="395" unicode="-" /><glyph d="M126 562Q108 562 92 569Q76 576 64 587.5Q52 599 45 614.5Q38 630 38 648Q38 684 63.5 709.5Q89 735 126 735Q162 735 188 709.5Q214 684 214 648Q214 630 207 614.5Q200 599 188 587.5Q176 576 160 569Q144 562 126 562ZM48 510H205V0H48Z" glyph-name="i" horiz-adv-x="252" unicode="i" /><glyph d="M6 0ZM48 510H205V0H48ZM191 771 273 681 63 559 6 623Z" glyph-name="iacute" horiz-adv-x="252" unicode="&#237;" /><glyph d="M0 0ZM48 510H205V0H48ZM243 569 128 639 15 569 -50 630 129 759 308 630Z" glyph-name="icircumflex" horiz-adv-x="252" unicode="&#238;" /><glyph d="M0 0ZM48 510H205V0H48ZM17 571Q-18 571 -42.5 595Q-67 619 -67 652Q-67 669 -60.5 684Q-54 699 -42.5 710.5Q-31 722 -16 728.5Q-1 735 17 735Q52 735 76.5 711Q101 687 101 652Q101 635 94.5 620.5Q88 606 76.5 595Q65 584 49.5 577.5Q34 571 17 571ZM237 571Q202 571 177.5 595Q153 619 153 652Q153 669 159.5 684Q166 699 177.5 710.5Q189 722 204 728.5Q219 735 237 735Q272 735 296.5 711Q321 687 321 652Q321 635 314.5 620.5Q308 606 296.5 595Q285 584 269.5 577.5Q254 571 237 571Z" glyph-name="idieresis" horiz-adv-x="252" unicode="&#239;" /><glyph d="M0 0ZM48 510H205V0H48ZM191 559 -19 681 63 771 248 623Z" glyph-name="igrave" horiz-adv-x="252" unicode="&#236;" /><glyph d="M0 0ZM48 510H205V0H48ZM-9 602V698H264V602Z" glyph-name="imacron" horiz-adv-x="252" unicode="&#299;" /><glyph d="M0 0ZM48 510H205V0H48ZM-70 599Q-56 634 -40 657Q-24 680 -7 693.5Q10 707 27.5 712.5Q45 718 63 718Q83 718 99 710Q115 702 129 693Q143 684 155.5 676Q168 668 181 668Q195 668 207.5 681Q220 694 237 721L324 688Q306 653 289.5 630Q273 607 256 593.5Q239 580 222.5 574.5Q206 569 188 569Q168 569 151.5 577Q135 585 120.5 594Q106 603 93 611Q80 619 67 619Q44 619 16 565Z" glyph-name="itilde" horiz-adv-x="252" unicode="&#297;" /><glyph d="M126 562Q108 562 92 569Q76 576 64 587.5Q52 599 45 614.5Q38 630 38 648Q38 684 63.5 709.5Q89 735 126 735Q162 735 188 709.5Q214 684 214 648Q214 630 207 614.5Q200 599 188 587.5Q176 576 160 569Q144 562 126 562ZM48 510H205V-49Q205 -123 157.5 -164.5Q110 -206 30 -206Q-20 -206 -54 -197V-90Q-43 -92 -32.5 -93Q-22 -94 -12 -94Q13 -94 30.5 -81.5Q48 -69 48 -42Z" glyph-name="j" horiz-adv-x="252" unicode="j" /><glyph d="M0 0ZM48 510H205V-49Q205 -123 157.5 -164.5Q110 -206 30 -206Q-20 -206 -54 -197V-90Q-43 -92 -32.5 -93Q-22 -94 -12 -94Q13 -94 30.5 -81.5Q48 -69 48 -42ZM236 569 121 639 8 569 -57 630 122 759 301 630Z" glyph-name="jcircumflex" horiz-adv-x="242" unicode="&#309;" /><glyph d="M264 189 205 125V0H48V700H205V310L383 510H561L368 302L580 0H389Z" glyph-name="k" horiz-adv-x="595" unicode="k" /><glyph d="M48 700H205V0H48Z" glyph-name="l" horiz-adv-x="252" unicode="l" /><glyph d="M6 0ZM48 700H205V0H48ZM191 961 273 871 63 749 6 813Z" glyph-name="lacute" horiz-adv-x="252" unicode="&#314;" /><glyph d="M425 4 36 309 425 616V452L244 311L425 169Z" glyph-name="less" horiz-adv-x="480" unicode="&lt;" /><glyph d="M449 167 67 383 449 600V469L282 385L449 301ZM64 0V105H449V0Z" glyph-name="lessequal" horiz-adv-x="510" unicode="&#8804;" /><glyph d="M295 387Q265 387 241.5 372Q218 357 205 329V0H48V510H205V435Q231 477 271 496.5Q311 516 357 516Q415 516 455 493Q495 470 514 425Q538 464 582 490Q626 516 683 516Q766 516 811.5 469.5Q857 423 857 342V0H700V303Q700 342 679.5 364.5Q659 387 621 387Q591 387 567.5 373Q544 359 531 334V0H374V303Q374 342 353.5 364.5Q333 387 295 387Z" glyph-name="m" horiz-adv-x="904" unicode="m" /><glyph d="M122 602V698H395V602Z" glyph-name="macron" horiz-adv-x="515" unicode="&#175;" /><glyph d="M63 282V402H573V282Z" glyph-name="minus" horiz-adv-x="634" unicode="&#8722;" /><glyph d="M282 256 142 117 62 199 201 337 61 477 152 565 291 427 430 565 512 485 373 347 511 210 419 118Z" glyph-name="multiply" horiz-adv-x="571" unicode="&#215;" /><glyph d="M298 387Q267 387 242.5 371Q218 355 205 326V0H48V510H205V434Q232 477 273.5 496.5Q315 516 362 516Q402 516 434.5 503.5Q467 491 490 468.5Q513 446 525.5 413.5Q538 381 538 342V0H381V303Q381 342 359.5 364.5Q338 387 298 387Z" glyph-name="n" horiz-adv-x="585" unicode="n" /><glyph d="M48 0ZM298 387Q267 387 242.5 371Q218 355 205 326V0H48V510H205V434Q232 477 273.5 496.5Q315 516 362 516Q402 516 434.5 503.5Q467 491 490 468.5Q513 446 525.5 413.5Q538 381 538 342V0H381V303Q381 342 359.5 364.5Q338 387 298 387ZM355 771 437 681 227 559 170 623Z" glyph-name="nacute" horiz-adv-x="585" unicode="&#324;" /><glyph glyph-name="nbspace" horiz-adv-x="265" unicode="&#160;" /><glyph d="M48 0ZM298 387Q267 387 242.5 371Q218 355 205 326V0H48V510H205V434Q232 477 273.5 496.5Q315 516 362 516Q402 516 434.5 503.5Q467 491 490 468.5Q513 446 525.5 413.5Q538 381 538 342V0H381V303Q381 342 359.5 364.5Q338 387 298 387ZM292 574 113 703 178 764 293 694 406 764 471 703Z" glyph-name="ncaron" horiz-adv-x="585" unicode="&#328;" /><glyph d="M609 352Q609 271 587.5 205Q566 139 526.5 92Q487 45 430.5 19.5Q374 -6 305 -6Q212 -6 152 33Q92 72 61 129L199 189Q222 151 251 136Q280 121 311 121Q373 121 409 174.5Q445 228 449 331Q421 296 377 276Q333 256 275 256Q223 256 180.5 271.5Q138 287 108 315.5Q78 344 61.5 383Q45 422 45 470Q45 516 63 558.5Q81 601 115 634Q149 667 197.5 686.5Q246 706 306 706Q374 706 430 681Q486 656 525.5 610Q565 564 587 498.5Q609 433 609 352ZM199 471Q199 426 230.5 395Q262 364 313 364Q358 364 391.5 383Q425 402 443 431Q430 509 393.5 544Q357 579 309 579Q283 579 263 570.5Q243 562 228.5 547Q214 532 206.5 512.5Q199 493 199 471Z" glyph-name="nine" horiz-adv-x="653" unicode="9" /><glyph d="M48 0ZM298 387Q267 387 242.5 371Q218 355 205 326V0H48V510H205V434Q232 477 273.5 496.5Q315 516 362 516Q402 516 434.5 503.5Q467 491 490 468.5Q513 446 525.5 413.5Q538 381 538 342V0H381V303Q381 342 359.5 364.5Q338 387 298 387ZM95 599Q109 634 125 657Q141 680 158 693.5Q175 707 192.5 712.5Q210 718 228 718Q248 718 264 710Q280 702 294 693Q308 684 320.5 676Q333 668 346 668Q360 668 372.5 681Q385 694 402 721L489 688Q471 653 454.5 630Q438 607 421 593.5Q404 580 387.5 574.5Q371 569 353 569Q333 569 316.5 577Q300 585 285.5 594Q271 603 258 611Q245 619 232 619Q209 619 181 565Z" glyph-name="ntilde" horiz-adv-x="585" unicode="&#241;" /><glyph d="M371 186H239L180 0H72L131 186H38V283H162L204 417H83V514H235L294 700H402L343 514H475L534 700H642L583 514H676V417H552L510 283H631V186H479L420 0H312ZM402 283 444 417H312L270 283Z" glyph-name="numbersign" horiz-adv-x="713" unicode="#" /><glyph d="M301 -5Q233 -5 183 18Q133 41 101 77.5Q69 114 53.5 160.5Q38 207 38 255Q38 310 56.5 357.5Q75 405 109.5 440.5Q144 476 193 496Q242 516 303 516Q371 516 420.5 494Q470 472 502.5 435.5Q535 399 550.5 352Q566 305 566 256Q566 203 547.5 155.5Q529 108 494.5 72.5Q460 37 411 16Q362 -5 301 -5ZM302 115Q350 115 380.5 152Q411 189 411 255Q411 324 380.5 359Q350 394 302 394Q254 394 223.5 358.5Q193 323 193 254Q193 188 223.5 151.5Q254 115 302 115Z" glyph-name="o" horiz-adv-x="603" unicode="o" /><glyph d="M38 0ZM301 -5Q233 -5 183 18Q133 41 101 77.5Q69 114 53.5 160.5Q38 207 38 255Q38 310 56.5 357.5Q75 405 109.5 440.5Q144 476 193 496Q242 516 303 516Q371 516 420.5 494Q470 472 502.5 435.5Q535 399 550.5 352Q566 305 566 256Q566 203 547.5 155.5Q529 108 494.5 72.5Q460 37 411 16Q362 -5 301 -5ZM302 115Q350 115 380.5 152Q411 189 411 255Q411 324 380.5 359Q350 394 302 394Q254 394 223.5 358.5Q193 323 193 254Q193 188 223.5 151.5Q254 115 302 115ZM366 771 448 681 238 559 181 623Z" glyph-name="oacute" horiz-adv-x="603" unicode="&#243;" /><glyph d="M38 0ZM301 -5Q233 -5 183 18Q133 41 101 77.5Q69 114 53.5 160.5Q38 207 38 255Q38 310 56.5 357.5Q75 405 109.5 440.5Q144 476 193 496Q242 516 303 516Q371 516 420.5 494Q470 472 502.5 435.5Q535 399 550.5 352Q566 305 566 256Q566 203 547.5 155.5Q529 108 494.5 72.5Q460 37 411 16Q362 -5 301 -5ZM302 115Q350 115 380.5 152Q411 189 411 255Q411 324 380.5 359Q350 394 302 394Q254 394 223.5 358.5Q193 323 193 254Q193 188 223.5 151.5Q254 115 302 115ZM418 569 303 639 190 569 125 630 304 759 483 630Z" glyph-name="ocircumflex" horiz-adv-x="603" unicode="&#244;" /><glyph d="M38 0ZM301 -5Q233 -5 183 18Q133 41 101 77.5Q69 114 53.5 160.5Q38 207 38 255Q38 310 56.5 357.5Q75 405 109.5 440.5Q144 476 193 496Q242 516 303 516Q371 516 420.5 494Q470 472 502.5 435.5Q535 399 550.5 352Q566 305 566 256Q566 203 547.5 155.5Q529 108 494.5 72.5Q460 37 411 16Q362 -5 301 -5ZM302 115Q350 115 380.5 152Q411 189 411 255Q411 324 380.5 359Q350 394 302 394Q254 394 223.5 358.5Q193 323 193 254Q193 188 223.5 151.5Q254 115 302 115ZM192 571Q157 571 132.5 595Q108 619 108 652Q108 669 114.5 684Q121 699 132.5 710.5Q144 722 159 728.5Q174 735 192 735Q227 735 251.5 711Q276 687 276 652Q276 635 269.5 620.5Q263 606 251.5 595Q240 584 224.5 577.5Q209 571 192 571ZM412 571Q377 571 352.5 595Q328 619 328 652Q328 669 334.5 684Q341 699 352.5 710.5Q364 722 379 728.5Q394 735 412 735Q447 735 471.5 711Q496 687 496 652Q496 635 489.5 620.5Q483 606 471.5 595Q460 584 444.5 577.5Q429 571 412 571Z" glyph-name="odieresis" horiz-adv-x="603" unicode="&#246;" /><glyph d="M905 134Q896 109 878 84.5Q860 60 832 40Q804 20 765.5 7.5Q727 -5 676 -5Q617 -5 569.5 15.5Q522 36 488 73Q454 37 407 16Q360 -5 301 -5Q233 -5 183 18Q133 41 101 77.5Q69 114 53.5 160.5Q38 207 38 255Q38 310 56.5 357.5Q75 405 109.5 440.5Q144 476 193 496Q242 516 303 516Q366 516 412 496Q458 476 489 442Q521 477 566 496.5Q611 516 665 516Q721 516 766.5 497Q812 478 844 444Q876 410 893 363.5Q910 317 910 262V228H568Q571 195 582.5 172.5Q594 150 610 136.5Q626 123 644.5 117Q663 111 680 111Q715 111 742.5 127Q770 143 783 175ZM667 403Q634 403 608.5 382.5Q583 362 572 316H763Q758 355 733.5 379Q709 403 667 403ZM302 116Q351 116 381 153Q411 190 411 256Q411 325 381 360Q351 395 302 395Q253 395 223 359.5Q193 324 193 255Q193 189 223 152.5Q253 116 302 116Z" glyph-name="oe" horiz-adv-x="947" unicode="&#339;" /><glyph d="M38 0ZM301 -5Q233 -5 183 18Q133 41 101 77.5Q69 114 53.5 160.5Q38 207 38 255Q38 310 56.5 357.5Q75 405 109.5 440.5Q144 476 193 496Q242 516 303 516Q371 516 420.5 494Q470 472 502.5 435.5Q535 399 550.5 352Q566 305 566 256Q566 203 547.5 155.5Q529 108 494.5 72.5Q460 37 411 16Q362 -5 301 -5ZM302 115Q350 115 380.5 152Q411 189 411 255Q411 324 380.5 359Q350 394 302 394Q254 394 223.5 358.5Q193 323 193 254Q193 188 223.5 151.5Q254 115 302 115ZM366 559 156 681 238 771 423 623Z" glyph-name="ograve" horiz-adv-x="603" unicode="&#242;" /><glyph d="M38 0ZM301 -5Q233 -5 183 18Q133 41 101 77.5Q69 114 53.5 160.5Q38 207 38 255Q38 310 56.5 357.5Q75 405 109.5 440.5Q144 476 193 496Q242 516 303 516Q371 516 420.5 494Q470 472 502.5 435.5Q535 399 550.5 352Q566 305 566 256Q566 203 547.5 155.5Q529 108 494.5 72.5Q460 37 411 16Q362 -5 301 -5ZM302 115Q350 115 380.5 152Q411 189 411 255Q411 324 380.5 359Q350 394 302 394Q254 394 223.5 358.5Q193 323 193 254Q193 188 223.5 151.5Q254 115 302 115ZM166 602V698H439V602Z" glyph-name="omacron" horiz-adv-x="603" unicode="&#333;" /><glyph d="M461 0H28V128H165V536Q132 530 98.5 526Q65 522 30 520V647Q134 650 227 700H325V128H461Z" glyph-name="one" horiz-adv-x="488" unicode="1" /><glyph d="M23 0ZM130 0 480 700H590L240 0ZM703 0H443V75L549 160Q580 185 591.5 199.5Q603 214 603 234Q603 257 590.5 266Q578 275 563 275Q542 275 529 264Q516 253 506 236L428 269Q446 304 482.5 326.5Q519 349 569 349Q626 349 661.5 318.5Q697 288 697 242Q697 221 691.5 203.5Q686 186 671.5 168Q657 150 633.5 129Q610 108 574 80L566 74H703ZM252 355H23V429H92V607Q75 605 57.5 603Q40 601 23 601V675Q77 674 128 700H185V429H252Z" glyph-name="onehalf" horiz-adv-x="735" unicode="&#189;" /><glyph d="M23 0ZM252 355H23V429H92V607Q75 605 57.5 603Q40 601 23 601V675Q77 674 128 700H185V429H252ZM130 0 480 700H590L240 0ZM536 345H656V151H700V78H656V0H563V78H394V140ZM563 151V272L483 151Z" glyph-name="onequarter" horiz-adv-x="715" unicode="&#188;" /><glyph d="M23 355ZM252 355H23V429H92V607Q75 605 57.5 603Q40 601 23 601V675Q77 674 128 700H185V429H252Z" glyph-name="onesuperior" horiz-adv-x="282" unicode="&#185;" /><glyph d="M301 -5Q227 -5 171 23L149 -5H51L109 69Q73 107 55.5 155.5Q38 204 38 255Q38 310 56.5 357.5Q75 405 109.5 440.5Q144 476 193 496Q242 516 303 516Q342 516 374.5 509Q407 502 434 488L455 515H553L496 442Q532 405 549 356.5Q566 308 566 256Q566 203 547.5 155.5Q529 108 494.5 72.5Q460 37 411 16Q362 -5 301 -5ZM193 254Q193 217 203 190L352 382Q329 394 302 394Q254 394 223.5 358.5Q193 323 193 254ZM411 255Q411 293 401 320L252 128Q274 115 302 115Q350 115 380.5 152Q411 189 411 255Z" glyph-name="oslash" horiz-adv-x="603" unicode="&#248;" /><glyph d="M38 0ZM301 -5Q233 -5 183 18Q133 41 101 77.5Q69 114 53.5 160.5Q38 207 38 255Q38 310 56.5 357.5Q75 405 109.5 440.5Q144 476 193 496Q242 516 303 516Q371 516 420.5 494Q470 472 502.5 435.5Q535 399 550.5 352Q566 305 566 256Q566 203 547.5 155.5Q529 108 494.5 72.5Q460 37 411 16Q362 -5 301 -5ZM302 115Q350 115 380.5 152Q411 189 411 255Q411 324 380.5 359Q350 394 302 394Q254 394 223.5 358.5Q193 323 193 254Q193 188 223.5 151.5Q254 115 302 115ZM106 599Q120 634 136 657Q152 680 169 693.5Q186 707 203.5 712.5Q221 718 239 718Q259 718 275 710Q291 702 305 693Q319 684 331.5 676Q344 668 357 668Q371 668 383.5 681Q396 694 413 721L500 688Q482 653 465.5 630Q449 607 432 593.5Q415 580 398.5 574.5Q382 569 364 569Q344 569 327.5 577Q311 585 296.5 594Q282 603 269 611Q256 619 243 619Q220 619 192 565Z" glyph-name="otilde" horiz-adv-x="603" unicode="&#245;" /><glyph d="M340 -6Q301 -6 265.5 8.5Q230 23 205 48V-200H48V510H203V445Q228 479 268.5 497.5Q309 516 351 516Q404 516 447 497Q490 478 520 444Q550 410 566 362.5Q582 315 582 259Q582 201 565 152.5Q548 104 516.5 68.5Q485 33 440 13.5Q395 -6 340 -6ZM308 391Q235 391 205 330V173Q236 111 308 111Q361 111 394 148Q427 185 427 251Q427 320 394 355.5Q361 391 308 391Z" glyph-name="p" horiz-adv-x="619" unicode="p" /><glyph d="M38 481Q38 534 55 575Q72 616 102.5 643.5Q133 671 174.5 685.5Q216 700 264 700H450V0H340V261H274Q226 261 183 276Q140 291 107.5 319.5Q75 348 56.5 389Q38 430 38 481ZM508 700H618V0H508Z" glyph-name="paragraph" horiz-adv-x="670" unicode="&#182;" /><glyph d="M198 249Q198 185 213 128.5Q228 72 254.5 25Q281 -22 317 -59.5Q353 -97 396 -122L321 -223Q256 -194 202.5 -146Q149 -98 111.5 -36.5Q74 25 53.5 97.5Q33 170 33 249Q33 328 53.5 400.5Q74 473 111.5 534.5Q149 596 202.5 643.5Q256 691 321 721L396 620Q353 595 316.5 558Q280 521 254 473.5Q228 426 213 369.5Q198 313 198 249Z" glyph-name="parenleft" horiz-adv-x="418" unicode="(" /><glyph d="M221 249Q221 313 206 369.5Q191 426 164.5 473Q138 520 102 557.5Q66 595 23 620L98 721Q163 692 216.5 644Q270 596 307.5 534.5Q345 473 365.5 400.5Q386 328 386 249Q386 170 365.5 97.5Q345 25 307.5 -36.5Q270 -98 216.5 -145.5Q163 -193 98 -223L23 -122Q66 -97 102.5 -60Q139 -23 165 24.5Q191 72 206 128.5Q221 185 221 249Z" glyph-name="parenright" horiz-adv-x="418" unicode=")" /><glyph d="M36 0ZM171 0 521 700H631L281 0ZM472 172Q472 214 483.5 246.5Q495 279 514.5 301.5Q534 324 560.5 336Q587 348 618 348Q654 348 682 334.5Q710 321 729 298Q748 275 757.5 242.5Q767 210 767 173Q767 132 755.5 99.5Q744 67 724.5 44.5Q705 22 678 9.5Q651 -3 620 -3Q584 -3 556.5 11Q529 25 510 48.5Q491 72 481.5 104Q472 136 472 172ZM564 172Q564 119 581 96Q598 73 619 73Q641 73 658.5 96Q676 119 676 173Q676 228 658.5 250Q641 272 619 272Q598 272 581 250Q564 228 564 172ZM36 527Q36 569 47.5 601.5Q59 634 78.5 656.5Q98 679 124.5 691Q151 703 182 703Q218 703 246 689.5Q274 676 293 653Q312 630 321.5 597.5Q331 565 331 528Q331 487 319.5 454.5Q308 422 288.5 399.5Q269 377 242 364.5Q215 352 184 352Q148 352 120.5 366Q93 380 74 403.5Q55 427 45.5 459Q36 491 36 527ZM128 527Q128 474 145 451Q162 428 183 428Q205 428 222.5 451Q240 474 240 528Q240 583 222.5 605Q205 627 183 627Q162 627 145 605Q128 583 128 527Z" glyph-name="percent" horiz-adv-x="803" unicode="%" /><glyph d="M126 168Q144 168 160 161Q176 154 188 142.5Q200 131 207 115.5Q214 100 214 82Q214 46 188 20.5Q162 -5 126 -5Q89 -5 63.5 20.5Q38 46 38 82Q38 100 45 115.5Q52 131 64 142.5Q76 154 92 161Q108 168 126 168Z" glyph-name="period" horiz-adv-x="252" unicode="." /><glyph d="M38 268ZM126 441Q144 441 160 434Q176 427 188 415.5Q200 404 207 388.5Q214 373 214 355Q214 319 188 293.5Q162 268 126 268Q89 268 63.5 293.5Q38 319 38 355Q38 373 45 388.5Q52 404 64 415.5Q76 427 92 434Q108 441 126 441Z" glyph-name="periodcentered" horiz-adv-x="251" unicode="&#183;" /><glyph d="M385 282V92H252V282H63V402H252V592H385V402H573V282Z" glyph-name="plus" horiz-adv-x="634" unicode="+" /><glyph d="M572 -200H415V62Q390 30 350.5 12Q311 -6 269 -6Q216 -6 173 13Q130 32 100 66Q70 100 54 147.5Q38 195 38 251Q38 309 55 357.5Q72 406 103.5 441Q135 476 180 496Q225 516 280 516Q323 516 361 499Q399 482 423 453L447 510H572ZM193 253Q193 184 226 148.5Q259 113 312 113Q384 113 415 174V331Q384 393 312 393Q259 393 226 356Q193 319 193 253Z" glyph-name="q" horiz-adv-x="619" unicode="q" /><glyph d="M540 498Q540 460 527 425.5Q514 391 490 364Q466 337 431 319Q396 301 351 296L344 217H237L228 385H287Q315 385 335 395Q355 405 368 421Q381 437 387 456.5Q393 476 393 496Q393 514 387.5 532.5Q382 551 369 566Q356 581 335 590.5Q314 600 283 600Q254 600 234 591Q214 582 200.5 566Q187 550 179.5 529Q172 508 170 484L39 501Q42 546 60 584Q78 622 111 649Q144 676 190.5 691.5Q237 707 296 707Q351 707 396.5 690.5Q442 674 473.5 646Q505 618 522.5 579.5Q540 541 540 498ZM290 168Q308 168 324 161Q340 154 352 142.5Q364 131 371 115.5Q378 100 378 82Q378 46 352 20.5Q326 -5 290 -5Q253 -5 227.5 20.5Q202 46 202 82Q202 100 209 115.5Q216 131 228 142.5Q240 154 256 161Q272 168 290 168Z" glyph-name="question" horiz-adv-x="568" unicode="?" /><glyph d="M289 343Q271 343 255 350Q239 357 227 368.5Q215 380 208 395.5Q201 411 201 429Q201 465 227 490.5Q253 516 289 516Q326 516 351.5 490.5Q377 465 377 429Q377 411 370 395.5Q363 380 351 368.5Q339 357 323 350Q307 343 289 343ZM540 10Q537 -35 519 -73Q501 -111 468 -138Q435 -165 388.5 -180.5Q342 -196 283 -196Q227 -196 182 -179.5Q137 -163 105.5 -135Q74 -107 56.5 -69Q39 -31 39 13Q39 51 52 85.5Q65 120 89 147Q113 174 148 192Q183 210 228 215L235 294H342L351 126H292Q264 126 244 116Q224 106 211 90Q198 74 192 54Q186 34 186 15Q186 -3 191.5 -21.5Q197 -40 210 -55Q223 -70 244 -79.5Q265 -89 296 -89Q324 -89 344.5 -80Q365 -71 378.5 -55Q392 -39 399.5 -18Q407 3 409 27Z" glyph-name="questiondown" horiz-adv-x="568" unicode="&#191;" /><glyph d="M289 534Q271 534 255 541Q239 548 227 559.5Q215 571 208 586.5Q201 602 201 620Q201 656 227 681.5Q253 707 289 707Q326 707 351.5 681.5Q377 656 377 620Q377 602 370 586.5Q363 571 351 559.5Q339 548 323 541Q307 534 289 534ZM540 201Q537 156 519 118Q501 80 468 53Q435 26 388.5 10.5Q342 -5 283 -5Q227 -5 182 11.5Q137 28 105.5 56Q74 84 56.5 122Q39 160 39 204Q39 242 52 276.5Q65 311 89 338Q113 365 148 383Q183 401 228 406L235 485H342L351 317H292Q264 317 244 307Q224 297 211 281Q198 265 192 245Q186 225 186 206Q186 188 191.5 169.5Q197 151 210 136Q223 121 244 111.5Q265 102 296 102Q324 102 344.5 111Q365 120 378.5 136Q392 152 399.5 173Q407 194 409 218Z" glyph-name="questiondown.cap" horiz-adv-x="568" /><glyph d="M65 447 53 713H189L177 447ZM258 447 246 713H382L370 447Z" glyph-name="quotedbl" horiz-adv-x="435" unicode="&quot;" /><glyph d="M447 485Q447 448 423 425Q399 402 363 402Q319 402 295 431.5Q271 461 271 515Q271 550 283 582Q295 614 316 639.5Q337 665 365 682.5Q393 700 425 707L455 653Q417 640 389 618Q361 596 352 563Q362 565 367 565Q402 565 424.5 541.5Q447 518 447 485ZM217 485Q217 448 193 425Q169 402 133 402Q89 402 65 431.5Q41 461 41 515Q41 550 53 582Q65 614 86 639.5Q107 665 135 682.5Q163 700 195 707L225 653Q187 640 159 618Q131 596 122 563Q132 565 137 565Q172 565 194.5 541.5Q217 518 217 485Z" glyph-name="quotedblleft" horiz-adv-x="485" unicode="&#8220;" /><glyph d="M31 400ZM215 592Q215 557 203 525Q191 493 170 467.5Q149 442 121 424.5Q93 407 61 400L31 454Q69 467 97 489Q125 511 134 544Q124 542 119 542Q84 542 61.5 565.5Q39 589 39 622Q39 659 63 682Q87 705 123 705Q167 705 191 675.5Q215 646 215 592ZM445 592Q445 557 433 525Q421 493 400 467.5Q379 442 351 424.5Q323 407 291 400L261 454Q299 467 327 489Q355 511 364 544Q354 542 349 542Q314 542 291.5 565.5Q269 589 269 622Q269 659 293 682Q317 705 353 705Q397 705 421 675.5Q445 646 445 592Z" glyph-name="quotedblright" horiz-adv-x="485" unicode="&#8221;" /><glyph d="M217 485Q217 448 193 425Q169 402 133 402Q89 402 65 431.5Q41 461 41 515Q41 550 53 582Q65 614 86 639.5Q107 665 135 682.5Q163 700 195 707L225 653Q187 640 159 618Q131 596 122 563Q132 565 137 565Q172 565 194.5 541.5Q217 518 217 485Z" glyph-name="quoteleft" horiz-adv-x="255" unicode="&#8216;" /><glyph d="M30 400ZM214 592Q214 557 202 525Q190 493 169 467.5Q148 442 120 424.5Q92 407 60 400L30 454Q68 467 96 489Q124 511 133 544Q123 542 118 542Q83 542 60.5 565.5Q38 589 38 622Q38 659 62 682Q86 705 122 705Q166 705 190 675.5Q214 646 214 592Z" glyph-name="quoteright" horiz-adv-x="255" unicode="&#8217;" /><glyph d="M65 447 53 713H189L177 447Z" glyph-name="quotesingle" horiz-adv-x="240" unicode="'" /><glyph d="M393 367Q336 377 284.5 363Q233 349 200 310V0H43V510H200V417Q229 471 278 498.5Q327 526 393 524V367Z" glyph-name="r" horiz-adv-x="418" unicode="r" /><glyph d="M43 0ZM393 367Q336 377 284.5 363Q233 349 200 310V0H43V510H200V417Q229 471 278 498.5Q327 526 393 524V367ZM319 771 401 681 191 559 134 623Z" glyph-name="racute" horiz-adv-x="418" unicode="&#341;" /><glyph d="M43 0ZM393 367Q336 377 284.5 363Q233 349 200 310V0H43V510H200V417Q229 471 278 498.5Q327 526 393 524V367ZM256 574 77 703 142 764 257 694 370 764 435 703Z" glyph-name="rcaron" horiz-adv-x="418" unicode="&#345;" /><glyph d="M208 706Q242 706 274 694Q306 682 330.5 659Q355 636 370 602.5Q385 569 385 527Q385 485 370 451.5Q355 418 330.5 395Q306 372 274 359.5Q242 347 208 347Q173 347 141 359.5Q109 372 84.5 395Q60 418 45 451.5Q30 485 30 527Q30 569 45 602.5Q60 636 84.5 659Q109 682 141 694Q173 706 208 706ZM208 380Q236 380 261 390.5Q286 401 305 420Q324 439 335.5 466.5Q347 494 347 527Q347 560 335.5 587Q324 614 305 633Q286 652 261 662.5Q236 673 208 673Q180 673 154.5 662.5Q129 652 110 633Q91 614 79.5 587Q68 560 68 527Q68 494 79.5 466.5Q91 439 110 420Q129 401 154.5 390.5Q180 380 208 380ZM138 614H228Q248 614 262.5 600Q277 586 277 561Q277 542 268 529Q259 516 244 510L287 441H237L199 505H182V441H138ZM182 579V539H210Q234 539 234 558Q234 579 210 579Z" glyph-name="registered" horiz-adv-x="414" unicode="&#174;" /><glyph d="M140 158Q155 125 188.5 111.5Q222 98 257 98Q295 98 314.5 110Q334 122 334 139Q334 153 323.5 160.5Q313 168 290 174L150 209Q92 223 58.5 257.5Q25 292 25 346Q25 384 39.5 415Q54 446 82 468.5Q110 491 149.5 503.5Q189 516 239 516Q284 516 321 506Q358 496 386.5 478.5Q415 461 435 439Q455 417 465 393L336 361Q324 385 296 397.5Q268 410 239 410Q199 410 182 398.5Q165 387 165 370Q165 359 173.5 350Q182 341 210 334L341 301Q416 282 447.5 249Q479 216 479 162Q479 129 465 99Q451 69 422.5 46Q394 23 351.5 9Q309 -5 252 -5Q166 -5 101.5 26.5Q37 58 12 113Z" glyph-name="s" horiz-adv-x="502" unicode="s" /><glyph d="M12 0ZM140 158Q155 125 188.5 111.5Q222 98 257 98Q295 98 314.5 110Q334 122 334 139Q334 153 323.5 160.5Q313 168 290 174L150 209Q92 223 58.5 257.5Q25 292 25 346Q25 384 39.5 415Q54 446 82 468.5Q110 491 149.5 503.5Q189 516 239 516Q284 516 321 506Q358 496 386.5 478.5Q415 461 435 439Q455 417 465 393L336 361Q324 385 296 397.5Q268 410 239 410Q199 410 182 398.5Q165 387 165 370Q165 359 173.5 350Q182 341 210 334L341 301Q416 282 447.5 249Q479 216 479 162Q479 129 465 99Q451 69 422.5 46Q394 23 351.5 9Q309 -5 252 -5Q166 -5 101.5 26.5Q37 58 12 113ZM316 771 398 681 188 559 131 623Z" glyph-name="sacute" horiz-adv-x="502" unicode="&#347;" /><glyph d="M12 0ZM140 158Q155 125 188.5 111.5Q222 98 257 98Q295 98 314.5 110Q334 122 334 139Q334 153 323.5 160.5Q313 168 290 174L150 209Q92 223 58.5 257.5Q25 292 25 346Q25 384 39.5 415Q54 446 82 468.5Q110 491 149.5 503.5Q189 516 239 516Q284 516 321 506Q358 496 386.5 478.5Q415 461 435 439Q455 417 465 393L336 361Q324 385 296 397.5Q268 410 239 410Q199 410 182 398.5Q165 387 165 370Q165 359 173.5 350Q182 341 210 334L341 301Q416 282 447.5 249Q479 216 479 162Q479 129 465 99Q451 69 422.5 46Q394 23 351.5 9Q309 -5 252 -5Q166 -5 101.5 26.5Q37 58 12 113ZM253 574 74 703 139 764 254 694 367 764 432 703Z" glyph-name="scaron" horiz-adv-x="502" unicode="&#353;" /><glyph d="M382 -115Q382 -161 347 -191Q312 -221 251 -221Q200 -221 167 -200Q134 -179 122 -145L199 -117Q211 -143 248 -143Q271 -143 279.5 -132.5Q288 -122 288 -112Q288 -102 281 -92.5Q274 -83 251 -83H191L218 -4Q144 3 89.5 33Q35 63 12 113L140 158Q155 125 188.5 111.5Q222 98 257 98Q295 98 314.5 110Q334 122 334 139Q334 153 323.5 160.5Q313 168 290 174L150 209Q92 223 58.5 257.5Q25 292 25 346Q25 384 39.5 415Q54 446 82 468.5Q110 491 149.5 503.5Q189 516 239 516Q284 516 321 506Q358 496 386.5 478.5Q415 461 435 439Q455 417 465 393L336 361Q324 385 296 397.5Q268 410 239 410Q199 410 182 398.5Q165 387 165 370Q165 359 173.5 350Q182 341 210 334L341 301Q416 282 447.5 249Q479 216 479 162Q479 133 468 106.5Q457 80 435.5 58Q414 36 381 20Q348 4 304 -2L294 -24Q340 -31 361 -58Q382 -85 382 -115Z" glyph-name="scedilla" horiz-adv-x="502" unicode="&#351;" /><glyph d="M12 0ZM140 158Q155 125 188.5 111.5Q222 98 257 98Q295 98 314.5 110Q334 122 334 139Q334 153 323.5 160.5Q313 168 290 174L150 209Q92 223 58.5 257.5Q25 292 25 346Q25 384 39.5 415Q54 446 82 468.5Q110 491 149.5 503.5Q189 516 239 516Q284 516 321 506Q358 496 386.5 478.5Q415 461 435 439Q455 417 465 393L336 361Q324 385 296 397.5Q268 410 239 410Q199 410 182 398.5Q165 387 165 370Q165 359 173.5 350Q182 341 210 334L341 301Q416 282 447.5 249Q479 216 479 162Q479 129 465 99Q451 69 422.5 46Q394 23 351.5 9Q309 -5 252 -5Q166 -5 101.5 26.5Q37 58 12 113ZM368 569 253 639 140 569 75 630 254 759 433 630Z" glyph-name="scircumflex" horiz-adv-x="502" unicode="&#349;" /><glyph d="M507 129Q507 95 492.5 64.5Q478 34 450 10.5Q422 -13 382.5 -26.5Q343 -40 294 -40Q250 -40 213.5 -30Q177 -20 149 -3Q121 14 101.5 36Q82 58 72 82L191 119Q205 91 235.5 77Q266 63 298 63Q329 63 348 73.5Q367 84 367 104Q367 120 354 128.5Q341 137 302 148L166 184Q99 202 63.5 237Q28 272 28 328Q28 364 51.5 396Q75 428 122 448Q88 482 88 535Q88 569 102.5 599.5Q117 630 145 653.5Q173 677 212 690.5Q251 704 301 704Q345 704 381.5 694Q418 684 446 667Q474 650 493.5 628Q513 606 523 582L404 545Q390 573 359.5 587Q329 601 297 601Q266 601 247 590.5Q228 580 228 560Q228 544 242 535Q256 526 294 516L430 480Q497 462 532 427Q567 392 567 336Q567 300 543.5 268Q520 236 474 217Q507 181 507 129ZM372 268Q393 272 407.5 284Q422 296 422 313Q422 330 408 341.5Q394 353 373 358L223 396Q202 392 187.5 380Q173 368 173 351Q173 334 187 322.5Q201 311 222 306Z" glyph-name="section" horiz-adv-x="589" unicode="&#167;" /><glyph d="M30 0ZM214 53Q214 18 202 -14Q190 -46 169 -71.5Q148 -97 120 -114.5Q92 -132 60 -139L30 -85Q68 -72 96 -50Q124 -28 133 5Q123 3 118 3Q83 3 60.5 26.5Q38 50 38 83Q38 120 62 143Q86 166 122 166Q166 166 190 136.5Q214 107 214 53ZM126 478Q144 478 160 471Q176 464 188 452.5Q200 441 207 425.5Q214 410 214 392Q214 356 188 330.5Q162 305 126 305Q89 305 63.5 330.5Q38 356 38 392Q38 410 45 425.5Q52 441 64 452.5Q76 464 92 471Q108 478 126 478Z" glyph-name="semicolon" horiz-adv-x="249" unicode=";" /><glyph d="M546 570Q495 514 451.5 452Q408 390 376 319.5Q344 249 326 169.5Q308 90 307 0H134Q148 181 212 320Q276 459 382 572H27V700H546V570Z" glyph-name="seven" horiz-adv-x="571" unicode="7" /><glyph d="M609 230Q609 184 591 141.5Q573 99 539 66Q505 33 456.5 13.5Q408 -6 348 -6Q280 -6 224 19Q168 44 128.5 90Q89 136 67 201.5Q45 267 45 348Q45 429 66.5 495Q88 561 127.5 608Q167 655 223.5 680.5Q280 706 349 706Q442 706 502 667Q562 628 593 571L455 511Q432 549 403 564Q374 579 343 579Q281 579 245 525.5Q209 472 205 369Q233 404 277 424Q321 444 379 444Q431 444 473.5 428.5Q516 413 546 384.5Q576 356 592.5 317Q609 278 609 230ZM341 336Q296 336 262.5 317Q229 298 211 269Q224 191 260.5 156Q297 121 345 121Q370 121 390.5 129.5Q411 138 425.5 153Q440 168 447.5 187.5Q455 207 455 229Q455 274 423.5 305Q392 336 341 336Z" glyph-name="six" horiz-adv-x="653" unicode="6" /><glyph d="M293 700H450L100 -200H-57Z" glyph-name="slash" horiz-adv-x="457" unicode="/" /><glyph glyph-name="space" horiz-adv-x="265" unicode=" " /><glyph d="M394 6Q371 0 344 -2.5Q317 -5 282 -5Q197 -5 155 31Q113 67 113 134V400H23V510H113L121 634H270V510H401V400H270V169Q270 137 287 123.5Q304 110 337 110Q351 110 365 111Q379 112 394 114V6Z" glyph-name="t" horiz-adv-x="421" unicode="t" /><glyph d="M390 -115Q390 -161 355 -191Q320 -221 259 -221Q208 -221 175 -200Q142 -179 130 -145L207 -117Q213 -130 226 -136.5Q239 -143 256 -143Q279 -143 287.5 -132.5Q296 -122 296 -112Q296 -102 289 -92.5Q282 -83 259 -83H199L227 0Q170 11 141.5 45Q113 79 113 134V400H23V510H113L121 634H270V510H401V400H270V169Q270 137 287 123.5Q304 110 337 110Q351 110 365 111Q379 112 394 114V6Q377 1 356.5 -1Q336 -3 311 -5L302 -24Q348 -31 369 -58Q390 -85 390 -115Z" glyph-name="tcommaaccent" horiz-adv-x="421" unicode="&#539;" /><glyph d="M573 201Q573 157 553.5 119Q534 81 498 53Q462 25 412 9.5Q362 -6 301 -6Q210 -6 143 29.5Q76 65 38 131L174 191Q196 156 226 138.5Q256 121 300 121Q351 121 381.5 145.5Q412 170 412 208Q412 249 384 271.5Q356 294 311 294H233V409H306Q351 409 375 433Q399 457 399 491Q399 532 373.5 555.5Q348 579 303 579Q259 579 229.5 560Q200 541 179 509L50 570Q88 634 153 670Q218 706 309 706Q363 706 408.5 692.5Q454 679 487.5 653Q521 627 539.5 590Q558 553 558 507Q558 461 530 419.5Q502 378 452 355Q509 335 541 294Q573 253 573 201Z" glyph-name="three" horiz-adv-x="615" unicode="3" /><glyph d="M31 0ZM166 0 516 700H626L276 0ZM572 345H692V151H736V78H692V0H599V78H430V140ZM599 151V272L519 151ZM306 455Q306 433 296 414Q286 395 267 381.5Q248 368 222 360Q196 352 165 352Q119 352 84.5 370.5Q50 389 31 423L111 457Q129 425 164 425Q187 425 199.5 435.5Q212 446 212 460Q212 476 200 485.5Q188 495 168 495H134V560H171Q191 560 200 570.5Q209 581 209 593Q209 609 199 619Q189 629 169 629Q149 629 135 620.5Q121 612 113 598L38 633Q78 703 173 703Q199 703 222.5 696.5Q246 690 263.5 677Q281 664 291.5 645.5Q302 627 302 602Q302 579 289 559Q276 539 251 527Q277 516 291.5 497Q306 478 306 455Z" glyph-name="threequarters" horiz-adv-x="751" unicode="&#190;" /><glyph d="M31 352ZM306 455Q306 433 296 414Q286 395 267 381.5Q248 368 222 360Q196 352 165 352Q119 352 84.5 370.5Q50 389 31 423L111 457Q129 425 164 425Q187 425 199.5 435.5Q212 446 212 460Q212 476 200 485.5Q188 495 168 495H134V560H171Q191 560 200 570.5Q209 581 209 593Q209 609 199 619Q189 629 169 629Q149 629 135 620.5Q121 612 113 598L38 633Q78 703 173 703Q199 703 222.5 696.5Q246 690 263.5 677Q281 664 291.5 645.5Q302 627 302 602Q302 579 289 559Q276 539 251 527Q277 516 291.5 497Q306 478 306 455Z" glyph-name="threesuperior" horiz-adv-x="347" unicode="&#179;" /><glyph d="M62 599Q76 634 92 657Q108 680 125 693.5Q142 707 159.5 712.5Q177 718 195 718Q215 718 231 710Q247 702 261 693Q275 684 287.5 676Q300 668 313 668Q327 668 339.5 681Q352 694 369 721L456 688Q438 653 421.5 630Q405 607 388 593.5Q371 580 354.5 574.5Q338 569 320 569Q300 569 283.5 577Q267 585 252.5 594Q238 603 225 611Q212 619 199 619Q176 619 148 565Z" glyph-name="tilde" horiz-adv-x="516" unicode="&#732;" /><glyph d="M492 509 563 700H664V408H589V587L522 408H455L388 594V408H315V700H423ZM21 700H284V635H194V408H111V635H21Z" glyph-name="trademark" horiz-adv-x="696" unicode="&#8482;" /><glyph d="M564 0H56V130L283 325Q313 350 333 370.5Q353 391 365.5 409Q378 427 383.5 445Q389 463 389 483Q389 509 381 527.5Q373 546 359.5 557.5Q346 569 329 574.5Q312 580 293 580Q251 580 221.5 560.5Q192 541 167 500L34 557Q70 624 138 665.5Q206 707 303 707Q358 707 403.5 691Q449 675 481.5 647Q514 619 531.5 580.5Q549 542 549 496Q549 457 538.5 423.5Q528 390 502.5 355Q477 320 435.5 280.5Q394 241 332 190L258 128H564Z" glyph-name="two" horiz-adv-x="596" unicode="2" /><glyph d="M28 355ZM303 355H43V430L149 515Q180 540 191.5 554.5Q203 569 203 589Q203 612 190.5 621Q178 630 163 630Q142 630 129 619Q116 608 106 591L28 624Q46 659 82.5 681.5Q119 704 169 704Q226 704 261.5 673.5Q297 643 297 597Q297 576 291.5 558.5Q286 541 271.5 523Q257 505 233.5 484Q210 463 174 435L166 429H303Z" glyph-name="twosuperior" horiz-adv-x="335" unicode="&#178;" /><glyph d="M381 76Q354 33 312.5 13.5Q271 -6 224 -6Q184 -6 151.5 6.5Q119 19 96 41.5Q73 64 60.5 96.5Q48 129 48 168V510H205V207Q205 168 226.5 145.5Q248 123 288 123Q319 123 343.5 139Q368 155 381 184V510H538V0H381Z" glyph-name="u" horiz-adv-x="585" unicode="u" /><glyph d="M48 0ZM381 76Q354 33 312.5 13.5Q271 -6 224 -6Q184 -6 151.5 6.5Q119 19 96 41.5Q73 64 60.5 96.5Q48 129 48 168V510H205V207Q205 168 226.5 145.5Q248 123 288 123Q319 123 343.5 139Q368 155 381 184V510H538V0H381ZM360 771 442 681 232 559 175 623Z" glyph-name="uacute" horiz-adv-x="585" unicode="&#250;" /><glyph d="M48 0ZM381 76Q354 33 312.5 13.5Q271 -6 224 -6Q184 -6 151.5 6.5Q119 19 96 41.5Q73 64 60.5 96.5Q48 129 48 168V510H205V207Q205 168 226.5 145.5Q248 123 288 123Q319 123 343.5 139Q368 155 381 184V510H538V0H381ZM412 569 297 639 184 569 119 630 298 759 477 630Z" glyph-name="ucircumflex" horiz-adv-x="585" unicode="&#251;" /><glyph d="M48 0ZM381 76Q354 33 312.5 13.5Q271 -6 224 -6Q184 -6 151.5 6.5Q119 19 96 41.5Q73 64 60.5 96.5Q48 129 48 168V510H205V207Q205 168 226.5 145.5Q248 123 288 123Q319 123 343.5 139Q368 155 381 184V510H538V0H381ZM186 571Q151 571 126.5 595Q102 619 102 652Q102 669 108.5 684Q115 699 126.5 710.5Q138 722 153 728.5Q168 735 186 735Q221 735 245.5 711Q270 687 270 652Q270 635 263.5 620.5Q257 606 245.5 595Q234 584 218.5 577.5Q203 571 186 571ZM406 571Q371 571 346.5 595Q322 619 322 652Q322 669 328.5 684Q335 699 346.5 710.5Q358 722 373 728.5Q388 735 406 735Q441 735 465.5 711Q490 687 490 652Q490 635 483.5 620.5Q477 606 465.5 595Q454 584 438.5 577.5Q423 571 406 571Z" glyph-name="udieresis" horiz-adv-x="585" unicode="&#252;" /><glyph d="M48 0ZM381 76Q354 33 312.5 13.5Q271 -6 224 -6Q184 -6 151.5 6.5Q119 19 96 41.5Q73 64 60.5 96.5Q48 129 48 168V510H205V207Q205 168 226.5 145.5Q248 123 288 123Q319 123 343.5 139Q368 155 381 184V510H538V0H381ZM360 559 150 681 232 771 417 623Z" glyph-name="ugrave" horiz-adv-x="585" unicode="&#249;" /><glyph d="M48 0ZM381 76Q354 33 312.5 13.5Q271 -6 224 -6Q184 -6 151.5 6.5Q119 19 96 41.5Q73 64 60.5 96.5Q48 129 48 168V510H205V207Q205 168 226.5 145.5Q248 123 288 123Q319 123 343.5 139Q368 155 381 184V510H538V0H381ZM160 602V698H433V602Z" glyph-name="umacron" horiz-adv-x="585" unicode="&#363;" /><glyph d="M394 -64V-148H7V-64Z" glyph-name="underscore" horiz-adv-x="400" unicode="_" /><glyph d="M36 352ZM36 527Q36 569 47.5 601.5Q59 634 78.5 656.5Q98 679 124.5 691Q151 703 182 703Q218 703 246 689.5Q274 676 293 653Q312 630 321.5 597.5Q331 565 331 528Q331 487 319.5 454.5Q308 422 288.5 399.5Q269 377 242 364.5Q215 352 184 352Q148 352 120.5 366Q93 380 74 403.5Q55 427 45.5 459Q36 491 36 527ZM128 527Q128 474 145 451Q162 428 183 428Q205 428 222.5 451Q240 474 240 528Q240 583 222.5 605Q205 627 183 627Q162 627 145 605Q128 583 128 527Z" glyph-name="uni2070" horiz-adv-x="367" unicode="&#8304;" /><glyph d="M22 355ZM164 700H284V506H328V433H284V355H191V433H22V495ZM191 506V627L111 506Z" glyph-name="uni2074" horiz-adv-x="343" unicode="&#8308;" /><glyph d="M30 352ZM303 479Q303 423 264 387.5Q225 352 161 352Q114 352 80.5 370.5Q47 389 30 423L113 457Q121 442 132 434Q143 426 161 426Q180 426 194.5 437Q209 448 209 472Q209 491 196 504.5Q183 518 160 518Q140 518 127.5 510Q115 502 107 494L34 497L50 700H282V626H125L121 573Q134 581 149.5 584.5Q165 588 184 588Q241 588 272 557.5Q303 527 303 479Z" glyph-name="uni2075" horiz-adv-x="342" unicode="&#8309;" /><glyph d="M36 352ZM323 468Q323 445 314 424Q305 403 287.5 387Q270 371 246 361.5Q222 352 192 352Q158 352 129.5 364Q101 376 80 398.5Q59 421 47.5 454Q36 487 36 528Q36 609 78.5 656Q121 703 191 703Q239 703 270.5 683Q302 663 317 634L236 599Q227 615 214 622Q201 629 187 629Q161 629 146 606.5Q131 584 129 542Q143 556 163 564.5Q183 573 209 573Q262 573 292.5 544.5Q323 516 323 468ZM187 513Q150 513 132 487Q139 454 154.5 440Q170 426 189 426Q210 426 222 439Q234 452 234 468Q234 486 221 499.5Q208 513 187 513Z" glyph-name="uni2076" horiz-adv-x="354" unicode="&#8310;" /><glyph d="M22 355ZM286 621Q263 595 243 566.5Q223 538 208 505.5Q193 473 184.5 435.5Q176 398 177 355H75Q82 444 112 508Q142 572 192 626H22V700H286V621Z" glyph-name="uni2077" horiz-adv-x="318" unicode="&#8311;" /><glyph d="M34 352ZM317 456Q317 411 278.5 381.5Q240 352 175 352Q143 352 117.5 359.5Q92 367 73 380Q54 393 44 411Q34 429 34 449Q34 499 84 521Q64 535 52.5 553.5Q41 572 41 597Q41 617 49.5 636Q58 655 75 670Q92 685 117.5 694Q143 703 178 703Q234 703 270 678Q306 653 306 611Q306 591 294.5 573.5Q283 556 260 545Q287 531 302 510.5Q317 490 317 456ZM195 568Q215 578 215 599Q215 612 205 623Q195 634 172 634Q155 634 145 625.5Q135 617 135 605Q135 591 146.5 584.5Q158 578 172 574ZM129 460Q129 443 142 432Q155 421 178 421Q198 421 209 431Q220 441 220 455Q220 472 206.5 479Q193 486 176 490L149 496Q129 484 129 460Z" glyph-name="uni2078" horiz-adv-x="362" unicode="&#8312;" /><glyph d="M36 352ZM323 527Q323 446 280.5 399Q238 352 168 352Q120 352 88.5 372Q57 392 42 421L123 456Q132 440 145 433Q158 426 172 426Q198 426 213 448.5Q228 471 230 513Q216 499 196 490.5Q176 482 150 482Q97 482 66.5 510.5Q36 539 36 587Q36 610 45 631Q54 652 71.5 668Q89 684 113 693.5Q137 703 167 703Q201 703 229.5 691Q258 679 279 656.5Q300 634 311.5 601Q323 568 323 527ZM125 587Q125 569 138 555.5Q151 542 172 542Q209 542 227 568Q220 601 204.5 615Q189 629 170 629Q149 629 137 616Q125 603 125 587Z" glyph-name="uni2079" horiz-adv-x="354" unicode="&#8313;" /><glyph d="M36 172Q36 214 47.5 246.5Q59 279 78.5 301.5Q98 324 124.5 336Q151 348 182 348Q218 348 246 334.5Q274 321 293 298Q312 275 321.5 242.5Q331 210 331 173Q331 132 319.5 99.5Q308 67 288.5 44.5Q269 22 242 9.5Q215 -3 184 -3Q148 -3 120.5 11Q93 25 74 48.5Q55 72 45.5 104Q36 136 36 172ZM128 172Q128 119 145 96Q162 73 183 73Q205 73 222.5 96Q240 119 240 173Q240 228 222.5 250Q205 272 183 272Q162 272 145 250Q128 228 128 172Z" glyph-name="uni2080" horiz-adv-x="366" unicode="&#8320;" /><glyph d="M252 0H23V74H92V252Q75 250 57.5 248Q40 246 23 246V320Q77 319 128 345H185V74H252Z" glyph-name="uni2081" horiz-adv-x="274" unicode="&#8321;" /><glyph d="M303 0H43V75L149 160Q180 185 191.5 199.5Q203 214 203 234Q203 257 190.5 266Q178 275 163 275Q142 275 129 264Q116 253 106 236L28 269Q46 304 82.5 326.5Q119 349 169 349Q226 349 261.5 318.5Q297 288 297 242Q297 221 291.5 203.5Q286 186 271.5 168Q257 150 233.5 129Q210 108 174 80L166 74H303Z" glyph-name="uni2082" horiz-adv-x="329" unicode="&#8322;" /><glyph d="M306 100Q306 78 296 59Q286 40 267 26.5Q248 13 222 5Q196 -3 165 -3Q119 -3 84.5 15.5Q50 34 31 68L111 102Q129 70 164 70Q187 70 199.5 80.5Q212 91 212 105Q212 121 200 130.5Q188 140 168 140H134V205H171Q191 205 200 215.5Q209 226 209 238Q209 254 199 264Q189 274 169 274Q149 274 135 265.5Q121 257 113 243L38 278Q78 348 173 348Q199 348 222.5 341.5Q246 335 263.5 322Q281 309 291.5 290.5Q302 272 302 247Q302 224 289 204Q276 184 251 172Q277 161 291.5 142Q306 123 306 100Z" glyph-name="uni2083" horiz-adv-x="339" unicode="&#8323;" /><glyph d="M164 345H284V151H328V78H284V0H191V78H22V140ZM191 151V272L111 151Z" glyph-name="uni2084" horiz-adv-x="351" unicode="&#8324;" /><glyph d="M303 124Q303 68 264 32.5Q225 -3 161 -3Q114 -3 80.5 15.5Q47 34 30 68L113 102Q121 87 132 79Q143 71 161 71Q180 71 194.5 82Q209 93 209 117Q209 136 196 149.5Q183 163 160 163Q140 163 127.5 155Q115 147 107 139L34 142L50 345H282V271H125L121 218Q134 226 149.5 229.5Q165 233 184 233Q241 233 272 202.5Q303 172 303 124Z" glyph-name="uni2085" horiz-adv-x="333" unicode="&#8325;" /><glyph d="M323 113Q323 90 314 69Q305 48 287.5 32Q270 16 246 6.5Q222 -3 192 -3Q158 -3 129.5 9Q101 21 80 43.5Q59 66 47.5 99Q36 132 36 173Q36 254 78.5 301Q121 348 191 348Q239 348 270.5 328Q302 308 317 279L236 244Q227 260 214 267Q201 274 187 274Q161 274 146 251.5Q131 229 129 187Q143 201 163 209.5Q183 218 209 218Q262 218 292.5 189.5Q323 161 323 113ZM187 158Q150 158 132 132Q139 99 154.5 85Q170 71 189 71Q210 71 222 84Q234 97 234 113Q234 131 221 144.5Q208 158 187 158Z" glyph-name="uni2086" horiz-adv-x="358" unicode="&#8326;" /><glyph d="M286 266Q263 240 243 211.5Q223 183 208 150.5Q193 118 184.5 80.5Q176 43 177 0H75Q82 89 112 153Q142 217 192 271H22V345H286V266Z" glyph-name="uni2087" horiz-adv-x="307" unicode="&#8327;" /><glyph d="M317 101Q317 56 278.5 26.5Q240 -3 175 -3Q143 -3 117.5 4.5Q92 12 73 25Q54 38 44 56Q34 74 34 94Q34 144 84 166Q64 180 52.5 198.5Q41 217 41 242Q41 262 49.5 281Q58 300 75 315Q92 330 117.5 339Q143 348 178 348Q234 348 270 323Q306 298 306 256Q306 236 294.5 218.5Q283 201 260 190Q287 176 302 155.5Q317 135 317 101ZM195 213Q215 223 215 244Q215 257 205 268Q195 279 172 279Q155 279 145 270.5Q135 262 135 250Q135 236 146.5 229.5Q158 223 172 219ZM129 105Q129 88 142 77Q155 66 178 66Q198 66 209 76Q220 86 220 100Q220 117 206.5 124Q193 131 176 135L149 141Q129 129 129 105Z" glyph-name="uni2088" horiz-adv-x="350" unicode="&#8328;" /><glyph d="M323 172Q323 91 280.5 44Q238 -3 168 -3Q120 -3 88.5 17Q57 37 42 66L123 101Q132 85 145 78Q158 71 172 71Q198 71 213 93.5Q228 116 230 158Q216 144 196 135.5Q176 127 150 127Q97 127 66.5 155.5Q36 184 36 232Q36 255 45 276Q54 297 71.5 313Q89 329 113 338.5Q137 348 167 348Q201 348 229.5 336Q258 324 279 301.5Q300 279 311.5 246Q323 213 323 172ZM125 232Q125 214 138 200.5Q151 187 172 187Q209 187 227 213Q220 246 204.5 260Q189 274 170 274Q149 274 137 261Q125 248 125 232Z" glyph-name="uni2089" horiz-adv-x="358" unicode="&#8329;" /><glyph d="M48 0ZM381 76Q354 33 312.5 13.5Q271 -6 224 -6Q184 -6 151.5 6.5Q119 19 96 41.5Q73 64 60.5 96.5Q48 129 48 168V510H205V207Q205 168 226.5 145.5Q248 123 288 123Q319 123 343.5 139Q368 155 381 184V510H538V0H381ZM100 599Q114 634 130 657Q146 680 163 693.5Q180 707 197.5 712.5Q215 718 233 718Q253 718 269 710Q285 702 299 693Q313 684 325.5 676Q338 668 351 668Q365 668 377.5 681Q390 694 407 721L494 688Q476 653 459.5 630Q443 607 426 593.5Q409 580 392.5 574.5Q376 569 358 569Q338 569 321.5 577Q305 585 290.5 594Q276 603 263 611Q250 619 237 619Q214 619 186 565Z" glyph-name="utilde" horiz-adv-x="585" unicode="&#361;" /><glyph d="M382 0H231L18 510H190L313 182L439 510H590Z" glyph-name="v" horiz-adv-x="607" unicode="v" /><glyph d="M331 0H179L22 510H182L252 245L266 186L285 245L378 510H506L595 245L613 186L628 245L702 510H844L690 0H538L452 245L433 302L415 245Z" glyph-name="w" horiz-adv-x="864" unicode="w" /><glyph d="M22 0ZM331 0H179L22 510H182L252 245L266 186L285 245L378 510H506L595 245L613 186L628 245L702 510H844L690 0H538L452 245L433 302L415 245ZM499 771 581 681 371 559 314 623Z" glyph-name="wacute" horiz-adv-x="864" unicode="&#7811;" /><glyph d="M22 0ZM331 0H179L22 510H182L252 245L266 186L285 245L378 510H506L595 245L613 186L628 245L702 510H844L690 0H538L452 245L433 302L415 245ZM551 569 436 639 323 569 258 630 437 759 616 630Z" glyph-name="wcircumflex" horiz-adv-x="864" unicode="&#373;" /><glyph d="M22 0ZM331 0H179L22 510H182L252 245L266 186L285 245L378 510H506L595 245L613 186L628 245L702 510H844L690 0H538L452 245L433 302L415 245ZM325 571Q290 571 265.5 595Q241 619 241 652Q241 669 247.5 684Q254 699 265.5 710.5Q277 722 292 728.5Q307 735 325 735Q360 735 384.5 711Q409 687 409 652Q409 635 402.5 620.5Q396 606 384.5 595Q373 584 357.5 577.5Q342 571 325 571ZM545 571Q510 571 485.5 595Q461 619 461 652Q461 669 467.5 684Q474 699 485.5 710.5Q497 722 512 728.5Q527 735 545 735Q580 735 604.5 711Q629 687 629 652Q629 635 622.5 620.5Q616 606 604.5 595Q593 584 577.5 577.5Q562 571 545 571Z" glyph-name="wdieresis" horiz-adv-x="864" unicode="&#7813;" /><glyph d="M22 0ZM331 0H179L22 510H182L252 245L266 186L285 245L378 510H506L595 245L613 186L628 245L702 510H844L690 0H538L452 245L433 302L415 245ZM499 559 289 681 371 771 556 623Z" glyph-name="wgrave" horiz-adv-x="864" unicode="&#7809;" /><glyph d="M299 159 182 0H20L224 257L24 510H206L310 372L411 510H573L386 274L599 0H417Z" glyph-name="x" horiz-adv-x="617" unicode="x" /><glyph d="M350 -60Q338 -91 321 -117.5Q304 -144 280 -163.5Q256 -183 224 -194.5Q192 -206 149 -206Q97 -206 62 -199V-87Q76 -89 91 -90.5Q106 -92 120 -92Q182 -92 204 -42L218 -12L18 510H185L300 178L416 510H572L350 -60Z" glyph-name="y" horiz-adv-x="589" unicode="y" /><glyph d="M291 -199H136L216 -9L18 510H185L298 184L416 510H572Z" glyph-name="y.school" horiz-adv-x="589" /><glyph d="M18 0ZM350 -60Q338 -91 321 -117.5Q304 -144 280 -163.5Q256 -183 224 -194.5Q192 -206 149 -206Q97 -206 62 -199V-87Q76 -89 91 -90.5Q106 -92 120 -92Q182 -92 204 -42L218 -12L18 510H185L300 178L416 510H572L350 -60ZM359 771 441 681 231 559 174 623Z" glyph-name="yacute" horiz-adv-x="589" unicode="&#253;" /><glyph d="M18 0ZM350 -60Q338 -91 321 -117.5Q304 -144 280 -163.5Q256 -183 224 -194.5Q192 -206 149 -206Q97 -206 62 -199V-87Q76 -89 91 -90.5Q106 -92 120 -92Q182 -92 204 -42L218 -12L18 510H185L300 178L416 510H572L350 -60ZM411 569 296 639 183 569 118 630 297 759 476 630Z" glyph-name="ycircumflex" horiz-adv-x="589" unicode="&#375;" /><glyph d="M18 0ZM350 -60Q338 -91 321 -117.5Q304 -144 280 -163.5Q256 -183 224 -194.5Q192 -206 149 -206Q97 -206 62 -199V-87Q76 -89 91 -90.5Q106 -92 120 -92Q182 -92 204 -42L218 -12L18 510H185L300 178L416 510H572L350 -60ZM185 571Q150 571 125.5 595Q101 619 101 652Q101 669 107.5 684Q114 699 125.5 710.5Q137 722 152 728.5Q167 735 185 735Q220 735 244.5 711Q269 687 269 652Q269 635 262.5 620.5Q256 606 244.5 595Q233 584 217.5 577.5Q202 571 185 571ZM405 571Q370 571 345.5 595Q321 619 321 652Q321 669 327.5 684Q334 699 345.5 710.5Q357 722 372 728.5Q387 735 405 735Q440 735 464.5 711Q489 687 489 652Q489 635 482.5 620.5Q476 606 464.5 595Q453 584 437.5 577.5Q422 571 405 571Z" glyph-name="ydieresis" horiz-adv-x="589" unicode="&#255;" /><glyph d="M18 0ZM350 -60Q338 -91 321 -117.5Q304 -144 280 -163.5Q256 -183 224 -194.5Q192 -206 149 -206Q97 -206 62 -199V-87Q76 -89 91 -90.5Q106 -92 120 -92Q182 -92 204 -42L218 -12L18 510H185L300 178L416 510H572L350 -60ZM359 559 149 681 231 771 416 623Z" glyph-name="ygrave" horiz-adv-x="589" unicode="&#7923;" /><glyph d="M472 0H33V83L277 395H43V510H467V418L229 115H472Z" glyph-name="z" horiz-adv-x="509" unicode="z" /><glyph d="M33 0ZM472 0H33V83L277 395H43V510H467V418L229 115H472ZM317 771 399 681 189 559 132 623Z" glyph-name="zacute" horiz-adv-x="509" unicode="&#378;" /><glyph d="M33 0ZM472 0H33V83L277 395H43V510H467V418L229 115H472ZM254 574 75 703 140 764 255 694 368 764 433 703Z" glyph-name="zcaron" horiz-adv-x="509" unicode="&#382;" /><glyph d="M33 0ZM472 0H33V83L277 395H43V510H467V418L229 115H472ZM253 571Q218 571 193.5 595Q169 619 169 652Q169 669 175.5 684Q182 699 193.5 710.5Q205 722 220 728.5Q235 735 253 735Q288 735 312.5 711Q337 687 337 652Q337 635 330.5 620.5Q324 606 312.5 595Q301 584 285.5 577.5Q270 571 253 571Z" glyph-name="zdotaccent" horiz-adv-x="509" unicode="&#380;" /><glyph d="M45 349Q45 431 66.5 497.5Q88 564 126.5 610Q165 656 218 681Q271 706 334 706Q404 706 458.5 679Q513 652 550 604Q587 556 606.5 491Q626 426 626 350Q626 270 604.5 204.5Q583 139 544 92Q505 45 452 19.5Q399 -6 336 -6Q266 -6 212 22Q158 50 121 98Q84 146 64.5 210.5Q45 275 45 349ZM203 349Q203 291 214 248.5Q225 206 243 178.5Q261 151 285 138Q309 125 335 125Q362 125 386 138Q410 151 428 179Q446 207 457 249Q468 291 468 350Q468 410 457 453Q446 496 428 523Q410 550 386 562.5Q362 575 335 575Q309 575 285 562.5Q261 550 243 523Q225 496 214 453Q203 410 203 349Z" glyph-name="zero" horiz-adv-x="670" unicode="0" /><glyph glyph-name="zerowidthspace" horiz-adv-x="0" unicode="&#8203;" /></font>
</defs>
</svg>
