<?xml version="1.0" standalone="no"?><!DOCTYPE svg PUBLIC "-//W3C//DTD SVG 1.1//EN" "http://www.w3.org/Graphics/SVG/1.1/DTD/svg11.dtd" ><svg version="1.1" xmlns="http://www.w3.org/2000/svg"><defs><font horiz-adv-x="0" id="font"><font-face ascent="750" bbox="-134 -222 1006 945" cap-height="700" descent="-250" font-family="YP Local Web" font-stretch="normal" font-style="italic" font-weight="400" units-per-em="1000" x-height="500" /><missing-glyph d="M47 700H472V-200H47Z" horiz-adv-x="504" /><glyph d="M0 0Z" glyph-name=".ttfautohint" horiz-adv-x="387" /><glyph d="M386 700H477L574 0H488L463 198H169L54 0H-34ZM453 269 409 613 210 269Z" glyph-name="A" horiz-adv-x="636" unicode="A" /><glyph d="M816 0H391L429 198H199L47 0H-46L499 700H952L938 628H598L554 401H817L803 329H540L490 72H830ZM443 269 508 602 253 269Z" glyph-name="AE" horiz-adv-x="905" unicode="&#198;" /><glyph d="M0 0ZM386 700H477L574 0H488L463 198H169L54 0H-34ZM453 269 409 613 210 269ZM515 945 563 885 381 783 353 820Z" glyph-name="Aacute" horiz-adv-x="636" unicode="&#193;" /><glyph d="M0 0ZM386 700H477L574 0H488L463 198H169L54 0H-34ZM453 269 409 613 210 269ZM546 787 460 861 345 787 311 821 473 939 590 821Z" glyph-name="Acircumflex" horiz-adv-x="636" unicode="&#194;" /><glyph d="M0 0ZM386 700H477L574 0H488L463 198H169L54 0H-34ZM453 269 409 613 210 269ZM368 804Q349 804 337 816Q325 828 325 847Q325 868 340.5 885Q356 902 379 902Q398 902 410 890Q422 878 422 858Q422 838 406.5 821Q391 804 368 804ZM532 804Q513 804 501 816Q489 828 489 847Q489 868 504.5 885Q520 902 543 902Q562 902 574 890Q586 878 586 858Q586 838 570.5 821Q555 804 532 804Z" glyph-name="Adieresis" horiz-adv-x="636" unicode="&#196;" /><glyph d="M0 0ZM386 700H477L574 0H488L463 198H169L54 0H-34ZM453 269 409 613 210 269ZM479 783 308 885 361 945 511 820Z" glyph-name="Agrave" horiz-adv-x="636" unicode="&#192;" /><glyph d="M0 0ZM386 700H477L574 0H488L463 198H169L54 0H-34ZM453 269 409 613 210 269ZM342 820 353 880H569L558 820Z" glyph-name="Amacron" horiz-adv-x="636" unicode="&#256;" /><glyph d="M0 0ZM386 700H477L574 0H488L463 198H169L54 0H-34ZM453 269 409 613 210 269ZM275 809Q323 902 384 902Q405 902 421.5 894Q438 886 452 877Q466 868 478.5 860Q491 852 505 852Q518 852 530.5 863Q543 874 560 900L606 882Q580 833 553 811Q526 789 496 789Q475 789 459 797Q443 805 429.5 814Q416 823 403.5 831Q391 839 377 839Q364 839 351.5 828Q339 817 322 791Z" glyph-name="Atilde" horiz-adv-x="636" unicode="&#195;" /><glyph d="M149 700H360Q457 700 508 658.5Q559 617 559 547Q559 478 520 428.5Q481 379 411 363Q469 348 498 310.5Q527 273 527 221Q527 177 509.5 137Q492 97 459.5 66.5Q427 36 380.5 18Q334 0 275 0H13ZM220 629 175 397H346Q382 397 407 408.5Q432 420 448 439Q464 458 471 482Q478 506 478 530Q478 574 451.5 601.5Q425 629 371 629ZM161 325 112 71H291Q331 71 359.5 83.5Q388 96 406 116Q424 136 432.5 162.5Q441 189 441 217Q441 265 411 295Q381 325 318 325Z" glyph-name="B" horiz-adv-x="558" unicode="B" /><glyph d="M624 198Q602 150 570.5 112.5Q539 75 501 48.5Q463 22 419 8Q375 -6 329 -6Q270 -6 220.5 15Q171 36 135 75Q99 114 78.5 168.5Q58 223 58 290Q58 368 83.5 442.5Q109 517 155 575.5Q201 634 266 669.5Q331 705 409 705Q463 705 508.5 688Q554 671 587.5 639.5Q621 608 642 564Q663 520 669 467L593 452Q587 497 569.5 530.5Q552 564 526.5 587Q501 610 469 621.5Q437 633 403 633Q346 633 298 606Q250 579 215.5 532Q181 485 161.5 422.5Q142 360 142 289Q142 239 156 198.5Q170 158 195.5 128.5Q221 99 257.5 83Q294 67 338 67Q404 67 461 106Q518 145 554 223Z" glyph-name="C" horiz-adv-x="667" unicode="C" /><glyph glyph-name="CR" horiz-adv-x="250" unicode="" /><glyph d="M58 0ZM624 198Q602 150 570.5 112.5Q539 75 501 48.5Q463 22 419 8Q375 -6 329 -6Q270 -6 220.5 15Q171 36 135 75Q99 114 78.5 168.5Q58 223 58 290Q58 368 83.5 442.5Q109 517 155 575.5Q201 634 266 669.5Q331 705 409 705Q463 705 508.5 688Q554 671 587.5 639.5Q621 608 642 564Q663 520 669 467L593 452Q587 497 569.5 530.5Q552 564 526.5 587Q501 610 469 621.5Q437 633 403 633Q346 633 298 606Q250 579 215.5 532Q181 485 161.5 422.5Q142 360 142 289Q142 239 156 198.5Q170 158 195.5 128.5Q221 99 257.5 83Q294 67 338 67Q404 67 461 106Q518 145 554 223ZM493 945 541 885 359 783 331 820Z" glyph-name="Cacute" horiz-adv-x="667" unicode="&#262;" /><glyph d="M58 0ZM624 198Q602 150 570.5 112.5Q539 75 501 48.5Q463 22 419 8Q375 -6 329 -6Q270 -6 220.5 15Q171 36 135 75Q99 114 78.5 168.5Q58 223 58 290Q58 368 83.5 442.5Q109 517 155 575.5Q201 634 266 669.5Q331 705 409 705Q463 705 508.5 688Q554 671 587.5 639.5Q621 608 642 564Q663 520 669 467L593 452Q587 497 569.5 530.5Q552 564 526.5 587Q501 610 469 621.5Q437 633 403 633Q346 633 298 606Q250 579 215.5 532Q181 485 161.5 422.5Q142 360 142 289Q142 239 156 198.5Q170 158 195.5 128.5Q221 99 257.5 83Q294 67 338 67Q404 67 461 106Q518 145 554 223ZM421 788 304 906 346 940 432 866 547 940 583 906Z" glyph-name="Ccaron" horiz-adv-x="667" unicode="&#268;" /><glyph d="M399 -109Q399 -127 391.5 -143.5Q384 -160 369.5 -173.5Q355 -187 334.5 -195Q314 -203 287 -203Q244 -203 219.5 -185Q195 -167 188 -138L235 -121Q248 -156 288 -156Q317 -156 329 -141.5Q341 -127 341 -112Q341 -99 331.5 -89Q322 -79 299 -79H261L298 -4Q245 1 201 24.5Q157 48 125.5 86Q94 124 76 176Q58 228 58 290Q58 368 83.5 442.5Q109 517 155 575.5Q201 634 266 669.5Q331 705 409 705Q463 705 508.5 688Q554 671 587.5 639.5Q621 608 642 564Q663 520 669 467L593 452Q587 497 569.5 530.5Q552 564 526.5 587Q501 610 469 621.5Q437 633 403 633Q346 633 298 606Q250 579 215.5 532Q181 485 161.5 422.5Q142 360 142 289Q142 239 156 198.5Q170 158 195.5 128.5Q221 99 257.5 83Q294 67 338 67Q404 67 461 106Q518 145 554 223L624 198Q582 107 509.5 54Q437 1 350 -5L329 -41Q367 -44 383 -64.5Q399 -85 399 -109Z" glyph-name="Ccedilla" horiz-adv-x="667" unicode="&#199;" /><glyph d="M58 0ZM624 198Q602 150 570.5 112.5Q539 75 501 48.5Q463 22 419 8Q375 -6 329 -6Q270 -6 220.5 15Q171 36 135 75Q99 114 78.5 168.5Q58 223 58 290Q58 368 83.5 442.5Q109 517 155 575.5Q201 634 266 669.5Q331 705 409 705Q463 705 508.5 688Q554 671 587.5 639.5Q621 608 642 564Q663 520 669 467L593 452Q587 497 569.5 530.5Q552 564 526.5 587Q501 610 469 621.5Q437 633 403 633Q346 633 298 606Q250 579 215.5 532Q181 485 161.5 422.5Q142 360 142 289Q142 239 156 198.5Q170 158 195.5 128.5Q221 99 257.5 83Q294 67 338 67Q404 67 461 106Q518 145 554 223ZM524 787 438 861 323 787 289 821 451 939 568 821Z" glyph-name="Ccircumflex" horiz-adv-x="667" unicode="&#264;" /><glyph d="M58 0ZM624 198Q602 150 570.5 112.5Q539 75 501 48.5Q463 22 419 8Q375 -6 329 -6Q270 -6 220.5 15Q171 36 135 75Q99 114 78.5 168.5Q58 223 58 290Q58 368 83.5 442.5Q109 517 155 575.5Q201 634 266 669.5Q331 705 409 705Q463 705 508.5 688Q554 671 587.5 639.5Q621 608 642 564Q663 520 669 467L593 452Q587 497 569.5 530.5Q552 564 526.5 587Q501 610 469 621.5Q437 633 403 633Q346 633 298 606Q250 579 215.5 532Q181 485 161.5 422.5Q142 360 142 289Q142 239 156 198.5Q170 158 195.5 128.5Q221 99 257.5 83Q294 67 338 67Q404 67 461 106Q518 145 554 223ZM428 804Q409 804 397 816Q385 828 385 847Q385 868 400.5 885Q416 902 439 902Q458 902 470 890Q482 878 482 858Q482 838 466.5 821Q451 804 428 804Z" glyph-name="Cdotaccent" horiz-adv-x="667" unicode="&#266;" /><glyph d="M149 700H345Q411 700 462.5 676.5Q514 653 549.5 611.5Q585 570 603.5 514Q622 458 622 393Q622 318 598 247.5Q574 177 528 122Q482 67 416.5 33.5Q351 0 268 0H13ZM220 628 112 72H273Q330 72 379 96Q428 120 463 163Q498 206 518 264Q538 322 538 391Q538 449 522 493.5Q506 538 478 568Q450 598 412.5 613Q375 628 332 628Z" glyph-name="D" horiz-adv-x="645" unicode="D" /><glyph d="M149 700H572L558 628H220L176 401H437L423 329H162L112 72H451L437 0H13Z" glyph-name="E" horiz-adv-x="526" unicode="E" /><glyph d="M13 0ZM149 700H572L558 628H220L176 401H437L423 329H162L112 72H451L437 0H13ZM455 945 503 885 321 783 293 820Z" glyph-name="Eacute" horiz-adv-x="526" unicode="&#201;" /><glyph d="M13 0ZM149 700H572L558 628H220L176 401H437L423 329H162L112 72H451L437 0H13ZM383 788 266 906 308 940 394 866 509 940 545 906Z" glyph-name="Ecaron" horiz-adv-x="526" unicode="&#282;" /><glyph d="M13 0ZM149 700H572L558 628H220L176 401H437L423 329H162L112 72H451L437 0H13ZM486 787 400 861 285 787 251 821 413 939 530 821Z" glyph-name="Ecircumflex" horiz-adv-x="526" unicode="&#202;" /><glyph d="M13 0ZM149 700H572L558 628H220L176 401H437L423 329H162L112 72H451L437 0H13ZM308 804Q289 804 277 816Q265 828 265 847Q265 868 280.5 885Q296 902 319 902Q338 902 350 890Q362 878 362 858Q362 838 346.5 821Q331 804 308 804ZM472 804Q453 804 441 816Q429 828 429 847Q429 868 444.5 885Q460 902 483 902Q502 902 514 890Q526 878 526 858Q526 838 510.5 821Q495 804 472 804Z" glyph-name="Edieresis" horiz-adv-x="526" unicode="&#203;" /><glyph d="M13 0ZM149 700H572L558 628H220L176 401H437L423 329H162L112 72H451L437 0H13ZM390 804Q371 804 359 816Q347 828 347 847Q347 868 362.5 885Q378 902 401 902Q420 902 432 890Q444 878 444 858Q444 838 428.5 821Q413 804 390 804Z" glyph-name="Edotaccent" horiz-adv-x="526" unicode="&#278;" /><glyph d="M13 0ZM149 700H572L558 628H220L176 401H437L423 329H162L112 72H451L437 0H13ZM419 783 248 885 301 945 451 820Z" glyph-name="Egrave" horiz-adv-x="526" unicode="&#200;" /><glyph d="M13 0ZM149 700H572L558 628H220L176 401H437L423 329H162L112 72H451L437 0H13ZM282 820 293 880H509L498 820Z" glyph-name="Emacron" horiz-adv-x="526" unicode="&#274;" /><glyph d="M149 700H572L558 628H220L175 396H446L432 325H161L98 0H13Z" glyph-name="F" horiz-adv-x="526" unicode="F" /><glyph d="M392 342H649L582 0H527V90Q490 42 435.5 18Q381 -6 323 -6Q269 -6 220.5 14.5Q172 35 136 73Q100 111 79 165.5Q58 220 58 288Q58 363 83 437.5Q108 512 154 572Q200 632 265.5 669Q331 706 412 706Q464 706 508 689.5Q552 673 585.5 643Q619 613 640 570Q661 527 668 475L592 459Q586 501 569.5 533.5Q553 566 528 587.5Q503 609 472 620Q441 631 407 631Q353 631 304.5 605Q256 579 220 533Q184 487 163 424.5Q142 362 142 289Q142 230 158.5 188Q175 146 202.5 119Q230 92 265 79.5Q300 67 336 67Q402 67 456 97Q510 127 539 189L557 273H378Z" glyph-name="G" horiz-adv-x="684" unicode="G" /><glyph d="M58 0ZM392 342H649L582 0H527V90Q490 42 435.5 18Q381 -6 323 -6Q269 -6 220.5 14.5Q172 35 136 73Q100 111 79 165.5Q58 220 58 288Q58 363 83 437.5Q108 512 154 572Q200 632 265.5 669Q331 706 412 706Q464 706 508 689.5Q552 673 585.5 643Q619 613 640 570Q661 527 668 475L592 459Q586 501 569.5 533.5Q553 566 528 587.5Q503 609 472 620Q441 631 407 631Q353 631 304.5 605Q256 579 220 533Q184 487 163 424.5Q142 362 142 289Q142 230 158.5 188Q175 146 202.5 119Q230 92 265 79.5Q300 67 336 67Q402 67 456 97Q510 127 539 189L557 273H378ZM548 787 462 861 347 787 313 821 475 939 592 821Z" glyph-name="Gcircumflex" horiz-adv-x="684" unicode="&#284;" /><glyph d="M58 0ZM392 342H649L582 0H527V90Q490 42 435.5 18Q381 -6 323 -6Q269 -6 220.5 14.5Q172 35 136 73Q100 111 79 165.5Q58 220 58 288Q58 363 83 437.5Q108 512 154 572Q200 632 265.5 669Q331 706 412 706Q464 706 508 689.5Q552 673 585.5 643Q619 613 640 570Q661 527 668 475L592 459Q586 501 569.5 533.5Q553 566 528 587.5Q503 609 472 620Q441 631 407 631Q353 631 304.5 605Q256 579 220 533Q184 487 163 424.5Q142 362 142 289Q142 230 158.5 188Q175 146 202.5 119Q230 92 265 79.5Q300 67 336 67Q402 67 456 97Q510 127 539 189L557 273H378ZM452 804Q433 804 421 816Q409 828 409 847Q409 868 424.5 885Q440 902 463 902Q482 902 494 890Q506 878 506 858Q506 838 490.5 821Q475 804 452 804Z" glyph-name="Gdotaccent" horiz-adv-x="684" unicode="&#288;" /><glyph d="M496 329H162L98 0H13L149 700H234L176 401H510L568 700H653L517 0H432Z" glyph-name="H" horiz-adv-x="625" unicode="H" /><glyph d="M13 0ZM496 329H162L98 0H13L149 700H234L176 401H510L568 700H653L517 0H432ZM518 787 432 861 317 787 283 821 445 939 562 821Z" glyph-name="Hcircumflex" horiz-adv-x="625" unicode="&#292;" /><glyph d="M149 700H234L98 0H13Z" glyph-name="I" horiz-adv-x="206" unicode="I" /><glyph d="M13 0ZM149 700H234L98 0H13ZM278 945 326 885 144 783 116 820Z" glyph-name="Iacute" horiz-adv-x="206" unicode="&#205;" /><glyph d="M13 0ZM149 700H234L98 0H13ZM310 787 224 861 109 787 75 821 237 939 354 821Z" glyph-name="Icircumflex" horiz-adv-x="206" unicode="&#206;" /><glyph d="M13 0ZM149 700H234L98 0H13ZM132 804Q113 804 101 816Q89 828 89 847Q89 868 104.5 885Q120 902 143 902Q162 902 174 890Q186 878 186 858Q186 838 170.5 821Q155 804 132 804ZM296 804Q277 804 265 816Q253 828 253 847Q253 868 268.5 885Q284 902 307 902Q326 902 338 890Q350 878 350 858Q350 838 334.5 821Q319 804 296 804Z" glyph-name="Idieresis" horiz-adv-x="206" unicode="&#207;" /><glyph d="M13 0ZM149 700H234L98 0H13ZM214 804Q195 804 183 816Q171 828 171 847Q171 868 186.5 885Q202 902 225 902Q244 902 256 890Q268 878 268 858Q268 838 252.5 821Q237 804 214 804Z" glyph-name="Idotaccent" horiz-adv-x="206" unicode="&#304;" /><glyph d="M13 0ZM149 700H234L98 0H13ZM242 783 71 885 124 945 274 820Z" glyph-name="Igrave" horiz-adv-x="206" unicode="&#204;" /><glyph d="M13 0ZM149 700H234L98 0H13ZM106 820 117 880H333L322 820Z" glyph-name="Imacron" horiz-adv-x="206" unicode="&#298;" /><glyph d="M13 0ZM149 700H234L98 0H13ZM38 809Q86 902 147 902Q168 902 184.5 894Q201 886 215 877Q229 868 241.5 860Q254 852 268 852Q281 852 293.5 863Q306 874 323 900L369 882Q343 833 316 811Q289 789 259 789Q238 789 222 797Q206 805 192.5 814Q179 823 166.5 831Q154 839 140 839Q127 839 114.5 828Q102 817 85 791Z" glyph-name="Itilde" horiz-adv-x="206" unicode="&#296;" /><glyph d="M211 -5Q129 -5 78 25Q27 55 -8 110L67 151Q87 112 122.5 89.5Q158 67 211 67Q283 67 332.5 113.5Q382 160 399 245L487 700H572L479 217Q470 173 448.5 133Q427 93 393.5 62Q360 31 314 13Q268 -5 211 -5Z" glyph-name="J" horiz-adv-x="540" unicode="J" /><glyph d="M0 0ZM211 -5Q129 -5 78 25Q27 55 -8 110L67 151Q87 112 122.5 89.5Q158 67 211 67Q283 67 332.5 113.5Q382 160 399 245L487 700H572L479 217Q470 173 448.5 133Q427 93 393.5 62Q360 31 314 13Q268 -5 211 -5ZM650 787 564 861 449 787 415 821 577 939 694 821Z" glyph-name="Jcircumflex" horiz-adv-x="540" unicode="&#308;" /><glyph d="M282 339 138 205 98 0H13L149 700H234L160 320L569 700H672L347 393L535 0H440Z" glyph-name="K" horiz-adv-x="600" unicode="K" /><glyph d="M432 0H13L149 700H234L112 72H446Z" glyph-name="L" horiz-adv-x="502" unicode="L" /><glyph d="M13 0ZM432 0H13L149 700H234L112 72H446ZM280 945 328 885 146 783 118 820Z" glyph-name="Lacute" horiz-adv-x="502" unicode="&#313;" /><glyph d="M673 700H804L668 0H584L687 529L706 622L656 529L366 0H306L222 529L208 624L191 529L88 0H13L149 700H274L351 216L364 127L409 212Z" glyph-name="M" horiz-adv-x="777" unicode="M" /><glyph d="M91 0H13L149 700H235L443 207L480 118L495 207L589 700H667L531 0H448L241 497L204 589L187 497Z" glyph-name="N" horiz-adv-x="639" unicode="N" /><glyph glyph-name="NULL" horiz-adv-x="250" /><glyph d="M13 0ZM91 0H13L149 700H235L443 207L480 118L495 207L589 700H667L531 0H448L241 497L204 589L187 497ZM495 945 543 885 361 783 333 820Z" glyph-name="Nacute" horiz-adv-x="639" unicode="&#323;" /><glyph d="M13 0ZM91 0H13L149 700H235L443 207L480 118L495 207L589 700H667L531 0H448L241 497L204 589L187 497ZM423 788 306 906 348 940 434 866 549 940 585 906Z" glyph-name="Ncaron" horiz-adv-x="639" unicode="&#327;" /><glyph d="M13 0ZM91 0H13L149 700H235L443 207L480 118L495 207L589 700H667L531 0H448L241 497L204 589L187 497ZM255 809Q303 902 364 902Q385 902 401.5 894Q418 886 432 877Q446 868 458.5 860Q471 852 485 852Q498 852 510.5 863Q523 874 540 900L586 882Q560 833 533 811Q506 789 476 789Q455 789 439 797Q423 805 409.5 814Q396 823 383.5 831Q371 839 357 839Q344 839 331.5 828Q319 817 302 791Z" glyph-name="Ntilde" horiz-adv-x="639" unicode="&#209;" /><glyph d="M411 705Q469 705 519 685.5Q569 666 605.5 628.5Q642 591 662.5 535.5Q683 480 683 409Q683 334 658.5 260Q634 186 588.5 127Q543 68 477.5 31.5Q412 -5 331 -5Q273 -5 223 14.5Q173 34 136.5 72Q100 110 79.5 165Q59 220 59 291Q59 366 83.5 440Q108 514 153.5 573Q199 632 264.5 668.5Q330 705 411 705ZM406 634Q350 634 302 607.5Q254 581 218.5 534Q183 487 163 423Q143 359 143 284Q143 230 157.5 189.5Q172 149 198 121.5Q224 94 259 80Q294 66 336 66Q392 66 440 93Q488 120 523.5 167Q559 214 579 278Q599 342 599 416Q599 470 584.5 511Q570 552 544.5 579Q519 606 483.5 620Q448 634 406 634Z" glyph-name="O" horiz-adv-x="703" unicode="O" /><glyph d="M64 350Q71 422 99.5 486Q128 550 174 597.5Q220 645 281.5 672.5Q343 700 417 700H987L973 628H634L590 401H852L838 329H576L526 72H865L851 0H340Q269 0 214.5 27.5Q160 55 124.5 102.5Q89 150 73 214Q57 278 64 350ZM441 72 549 628H412Q365 628 320.5 610.5Q276 593 240 558Q204 523 179.5 471Q155 419 148 350Q141 281 154.5 229Q168 177 196.5 142Q225 107 265.5 89.5Q306 72 353 72Z" glyph-name="OE" horiz-adv-x="940" unicode="&#338;" /><glyph d="M59 0ZM411 705Q469 705 519 685.5Q569 666 605.5 628.5Q642 591 662.5 535.5Q683 480 683 409Q683 334 658.5 260Q634 186 588.5 127Q543 68 477.5 31.5Q412 -5 331 -5Q273 -5 223 14.5Q173 34 136.5 72Q100 110 79.5 165Q59 220 59 291Q59 366 83.5 440Q108 514 153.5 573Q199 632 264.5 668.5Q330 705 411 705ZM406 634Q350 634 302 607.5Q254 581 218.5 534Q183 487 163 423Q143 359 143 284Q143 230 157.5 189.5Q172 149 198 121.5Q224 94 259 80Q294 66 336 66Q392 66 440 93Q488 120 523.5 167Q559 214 579 278Q599 342 599 416Q599 470 584.5 511Q570 552 544.5 579Q519 606 483.5 620Q448 634 406 634ZM505 945 553 885 371 783 343 820Z" glyph-name="Oacute" horiz-adv-x="703" unicode="&#211;" /><glyph d="M59 0ZM411 705Q469 705 519 685.5Q569 666 605.5 628.5Q642 591 662.5 535.5Q683 480 683 409Q683 334 658.5 260Q634 186 588.5 127Q543 68 477.5 31.5Q412 -5 331 -5Q273 -5 223 14.5Q173 34 136.5 72Q100 110 79.5 165Q59 220 59 291Q59 366 83.5 440Q108 514 153.5 573Q199 632 264.5 668.5Q330 705 411 705ZM406 634Q350 634 302 607.5Q254 581 218.5 534Q183 487 163 423Q143 359 143 284Q143 230 157.5 189.5Q172 149 198 121.5Q224 94 259 80Q294 66 336 66Q392 66 440 93Q488 120 523.5 167Q559 214 579 278Q599 342 599 416Q599 470 584.5 511Q570 552 544.5 579Q519 606 483.5 620Q448 634 406 634ZM536 787 450 861 335 787 301 821 463 939 580 821Z" glyph-name="Ocircumflex" horiz-adv-x="703" unicode="&#212;" /><glyph d="M59 0ZM411 705Q469 705 519 685.5Q569 666 605.5 628.5Q642 591 662.5 535.5Q683 480 683 409Q683 334 658.5 260Q634 186 588.5 127Q543 68 477.5 31.5Q412 -5 331 -5Q273 -5 223 14.5Q173 34 136.5 72Q100 110 79.5 165Q59 220 59 291Q59 366 83.5 440Q108 514 153.5 573Q199 632 264.5 668.5Q330 705 411 705ZM406 634Q350 634 302 607.5Q254 581 218.5 534Q183 487 163 423Q143 359 143 284Q143 230 157.5 189.5Q172 149 198 121.5Q224 94 259 80Q294 66 336 66Q392 66 440 93Q488 120 523.5 167Q559 214 579 278Q599 342 599 416Q599 470 584.5 511Q570 552 544.5 579Q519 606 483.5 620Q448 634 406 634ZM358 804Q339 804 327 816Q315 828 315 847Q315 868 330.5 885Q346 902 369 902Q388 902 400 890Q412 878 412 858Q412 838 396.5 821Q381 804 358 804ZM522 804Q503 804 491 816Q479 828 479 847Q479 868 494.5 885Q510 902 533 902Q552 902 564 890Q576 878 576 858Q576 838 560.5 821Q545 804 522 804Z" glyph-name="Odieresis" horiz-adv-x="703" unicode="&#214;" /><glyph d="M59 0ZM411 705Q469 705 519 685.5Q569 666 605.5 628.5Q642 591 662.5 535.5Q683 480 683 409Q683 334 658.5 260Q634 186 588.5 127Q543 68 477.5 31.5Q412 -5 331 -5Q273 -5 223 14.5Q173 34 136.5 72Q100 110 79.5 165Q59 220 59 291Q59 366 83.5 440Q108 514 153.5 573Q199 632 264.5 668.5Q330 705 411 705ZM406 634Q350 634 302 607.5Q254 581 218.5 534Q183 487 163 423Q143 359 143 284Q143 230 157.5 189.5Q172 149 198 121.5Q224 94 259 80Q294 66 336 66Q392 66 440 93Q488 120 523.5 167Q559 214 579 278Q599 342 599 416Q599 470 584.5 511Q570 552 544.5 579Q519 606 483.5 620Q448 634 406 634ZM469 783 298 885 351 945 501 820Z" glyph-name="Ograve" horiz-adv-x="703" unicode="&#210;" /><glyph d="M59 0ZM411 705Q469 705 519 685.5Q569 666 605.5 628.5Q642 591 662.5 535.5Q683 480 683 409Q683 334 658.5 260Q634 186 588.5 127Q543 68 477.5 31.5Q412 -5 331 -5Q273 -5 223 14.5Q173 34 136.5 72Q100 110 79.5 165Q59 220 59 291Q59 366 83.5 440Q108 514 153.5 573Q199 632 264.5 668.5Q330 705 411 705ZM406 634Q350 634 302 607.5Q254 581 218.5 534Q183 487 163 423Q143 359 143 284Q143 230 157.5 189.5Q172 149 198 121.5Q224 94 259 80Q294 66 336 66Q392 66 440 93Q488 120 523.5 167Q559 214 579 278Q599 342 599 416Q599 470 584.5 511Q570 552 544.5 579Q519 606 483.5 620Q448 634 406 634ZM332 820 343 880H559L548 820Z" glyph-name="Omacron" horiz-adv-x="703" unicode="&#332;" /><glyph d="M331 -5Q279 -5 233.5 10.5Q188 26 153 57L98 -5H10L109 106Q85 142 72 188Q59 234 59 291Q59 366 83.5 440Q108 514 153.5 573Q199 632 264.5 668.5Q330 705 411 705Q517 705 590 643L645 705H733L633 593Q657 558 670 512Q683 466 683 409Q683 334 658.5 260Q634 186 588.5 127Q543 68 477.5 31.5Q412 -5 331 -5ZM143 284Q143 218 166 169L538 585Q488 634 406 634Q350 634 302 607.5Q254 581 218.5 534Q183 487 163 423Q143 359 143 284ZM599 416Q599 481 577 530L205 114Q256 66 336 66Q392 66 440 93Q488 120 523.5 167Q559 214 579 278Q599 342 599 416Z" glyph-name="Oslash" horiz-adv-x="703" unicode="&#216;" /><glyph d="M59 0ZM411 705Q469 705 519 685.5Q569 666 605.5 628.5Q642 591 662.5 535.5Q683 480 683 409Q683 334 658.5 260Q634 186 588.5 127Q543 68 477.5 31.5Q412 -5 331 -5Q273 -5 223 14.5Q173 34 136.5 72Q100 110 79.5 165Q59 220 59 291Q59 366 83.5 440Q108 514 153.5 573Q199 632 264.5 668.5Q330 705 411 705ZM406 634Q350 634 302 607.5Q254 581 218.5 534Q183 487 163 423Q143 359 143 284Q143 230 157.5 189.5Q172 149 198 121.5Q224 94 259 80Q294 66 336 66Q392 66 440 93Q488 120 523.5 167Q559 214 579 278Q599 342 599 416Q599 470 584.5 511Q570 552 544.5 579Q519 606 483.5 620Q448 634 406 634ZM265 809Q313 902 374 902Q395 902 411.5 894Q428 886 442 877Q456 868 468.5 860Q481 852 495 852Q508 852 520.5 863Q533 874 550 900L596 882Q570 833 543 811Q516 789 486 789Q465 789 449 797Q433 805 419.5 814Q406 823 393.5 831Q381 839 367 839Q354 839 341.5 828Q329 817 312 791Z" glyph-name="Otilde" horiz-adv-x="703" unicode="&#213;" /><glyph d="M149 700H363Q409 700 447.5 688Q486 676 514.5 653Q543 630 559 595.5Q575 561 575 516Q575 467 556.5 424.5Q538 382 503.5 350.5Q469 319 421 300.5Q373 282 314 282H153L98 0H13ZM220 628 167 354H328Q370 354 400.5 366.5Q431 379 451 400.5Q471 422 480.5 450.5Q490 479 490 510Q490 628 356 628Z" glyph-name="P" horiz-adv-x="557" unicode="P" /><glyph d="M548 -167Q459 -170 401.5 -128Q344 -86 330 -5Q272 -5 222.5 15Q173 35 136.5 73Q100 111 79.5 165.5Q59 220 59 291Q59 366 83.5 440Q108 514 153.5 573Q199 632 264.5 668.5Q330 705 411 705Q469 705 519 685.5Q569 666 605.5 628.5Q642 591 662.5 535.5Q683 480 683 409Q683 343 664 277.5Q645 212 609 156.5Q573 101 521.5 60.5Q470 20 405 4Q419 -47 460 -71.5Q501 -96 564 -91ZM406 634Q350 634 302 607.5Q254 581 218.5 534Q183 487 163 423Q143 359 143 284Q143 230 157.5 189.5Q172 149 198 121.5Q224 94 259 80Q294 66 336 66Q392 66 440 93Q488 120 523.5 167Q559 214 579 278Q599 342 599 416Q599 470 584.5 511Q570 552 544.5 579Q519 606 483.5 620Q448 634 406 634Z" glyph-name="Q" horiz-adv-x="703" unicode="Q" /><glyph d="M150 700H394Q434 700 468.5 688Q503 676 528 653.5Q553 631 567.5 599Q582 567 582 527Q582 483 566 445Q550 407 522 377.5Q494 348 455.5 329.5Q417 311 372 307L509 0H418L286 306H157L98 0H14ZM220 628 171 376H357Q391 376 417.5 387.5Q444 399 461.5 418.5Q479 438 488 465Q497 492 497 522Q497 571 468.5 599.5Q440 628 383 628Z" glyph-name="R" horiz-adv-x="563" unicode="R" /><glyph d="M14 0ZM150 700H394Q434 700 468.5 688Q503 676 528 653.5Q553 631 567.5 599Q582 567 582 527Q582 483 566 445Q550 407 522 377.5Q494 348 455.5 329.5Q417 311 372 307L509 0H418L286 306H157L98 0H14ZM220 628 171 376H357Q391 376 417.5 387.5Q444 399 461.5 418.5Q479 438 488 465Q497 492 497 522Q497 571 468.5 599.5Q440 628 383 628ZM461 945 509 885 327 783 299 820Z" glyph-name="Racute" horiz-adv-x="563" unicode="&#340;" /><glyph d="M14 0ZM150 700H394Q434 700 468.5 688Q503 676 528 653.5Q553 631 567.5 599Q582 567 582 527Q582 483 566 445Q550 407 522 377.5Q494 348 455.5 329.5Q417 311 372 307L509 0H418L286 306H157L98 0H14ZM220 628 171 376H357Q391 376 417.5 387.5Q444 399 461.5 418.5Q479 438 488 465Q497 492 497 522Q497 571 468.5 599.5Q440 628 383 628ZM389 788 272 906 314 940 400 866 515 940 551 906Z" glyph-name="Rcaron" horiz-adv-x="563" unicode="&#344;" /><glyph d="M67 193Q96 133 151.5 99Q207 65 285 65Q324 65 352 75.5Q380 86 398 103Q416 120 425 142.5Q434 165 434 188Q434 216 413 244Q392 272 333 298L208 353Q150 379 121 420Q92 461 92 513Q92 553 108 588Q124 623 153 649.5Q182 676 223.5 691Q265 706 315 706Q362 706 401 694.5Q440 683 471 663Q502 643 526.5 616Q551 589 569 557L491 526Q462 577 418 606.5Q374 636 308 636Q272 636 246 627Q220 618 203.5 602.5Q187 587 179.5 566Q172 545 172 522Q172 493 194 465Q216 437 278 409L384 362Q455 330 486.5 290Q518 250 518 198Q518 159 502.5 122.5Q487 86 457 57.5Q427 29 382.5 11.5Q338 -6 280 -6Q177 -6 105 36.5Q33 79 -9 154Z" glyph-name="S" horiz-adv-x="560" unicode="S" /><glyph d="M0 0ZM67 193Q96 133 151.5 99Q207 65 285 65Q324 65 352 75.5Q380 86 398 103Q416 120 425 142.5Q434 165 434 188Q434 216 413 244Q392 272 333 298L208 353Q150 379 121 420Q92 461 92 513Q92 553 108 588Q124 623 153 649.5Q182 676 223.5 691Q265 706 315 706Q362 706 401 694.5Q440 683 471 663Q502 643 526.5 616Q551 589 569 557L491 526Q462 577 418 606.5Q374 636 308 636Q272 636 246 627Q220 618 203.5 602.5Q187 587 179.5 566Q172 545 172 522Q172 493 194 465Q216 437 278 409L384 362Q455 330 486.5 290Q518 250 518 198Q518 159 502.5 122.5Q487 86 457 57.5Q427 29 382.5 11.5Q338 -6 280 -6Q177 -6 105 36.5Q33 79 -9 154ZM432 945 480 885 298 783 270 820Z" glyph-name="Sacute" horiz-adv-x="560" unicode="&#346;" /><glyph d="M0 0ZM67 193Q96 133 151.5 99Q207 65 285 65Q324 65 352 75.5Q380 86 398 103Q416 120 425 142.5Q434 165 434 188Q434 216 413 244Q392 272 333 298L208 353Q150 379 121 420Q92 461 92 513Q92 553 108 588Q124 623 153 649.5Q182 676 223.5 691Q265 706 315 706Q362 706 401 694.5Q440 683 471 663Q502 643 526.5 616Q551 589 569 557L491 526Q462 577 418 606.5Q374 636 308 636Q272 636 246 627Q220 618 203.5 602.5Q187 587 179.5 566Q172 545 172 522Q172 493 194 465Q216 437 278 409L384 362Q455 330 486.5 290Q518 250 518 198Q518 159 502.5 122.5Q487 86 457 57.5Q427 29 382.5 11.5Q338 -6 280 -6Q177 -6 105 36.5Q33 79 -9 154ZM360 788 243 906 285 940 371 866 486 940 522 906Z" glyph-name="Scaron" horiz-adv-x="560" unicode="&#352;" /><glyph d="M316 -109Q316 -127 308.5 -143.5Q301 -160 286.5 -173.5Q272 -187 251.5 -195Q231 -203 204 -203Q161 -203 136.5 -185Q112 -167 105 -138L152 -121Q165 -156 205 -156Q234 -156 246 -141.5Q258 -127 258 -112Q258 -99 248.5 -89Q239 -79 216 -79H178L217 -1Q139 11 82.5 51Q26 91 -9 154L67 193Q96 133 151.5 99Q207 65 285 65Q324 65 352 75.5Q380 86 398 103Q416 120 425 142.5Q434 165 434 188Q434 216 413 244Q392 272 333 298L208 353Q150 379 121 420Q92 461 92 513Q92 553 108 588Q124 623 153 649.5Q182 676 223.5 691Q265 706 315 706Q362 706 401 694.5Q440 683 471 663Q502 643 526.5 616Q551 589 569 557L491 526Q462 577 418 606.5Q374 636 308 636Q272 636 246 627Q220 618 203.5 602.5Q187 587 179.5 566Q172 545 172 522Q172 493 194 465Q216 437 278 409L384 362Q455 330 486.5 290Q518 250 518 198Q518 159 502.5 122.5Q487 86 457 57.5Q427 29 382.5 11.5Q338 -6 280 -6H266L246 -41Q284 -44 300 -64.5Q316 -85 316 -109Z" glyph-name="Scedilla" horiz-adv-x="560" unicode="&#350;" /><glyph d="M0 0ZM67 193Q96 133 151.5 99Q207 65 285 65Q324 65 352 75.5Q380 86 398 103Q416 120 425 142.5Q434 165 434 188Q434 216 413 244Q392 272 333 298L208 353Q150 379 121 420Q92 461 92 513Q92 553 108 588Q124 623 153 649.5Q182 676 223.5 691Q265 706 315 706Q362 706 401 694.5Q440 683 471 663Q502 643 526.5 616Q551 589 569 557L491 526Q462 577 418 606.5Q374 636 308 636Q272 636 246 627Q220 618 203.5 602.5Q187 587 179.5 566Q172 545 172 522Q172 493 194 465Q216 437 278 409L384 362Q455 330 486.5 290Q518 250 518 198Q518 159 502.5 122.5Q487 86 457 57.5Q427 29 382.5 11.5Q338 -6 280 -6Q177 -6 105 36.5Q33 79 -9 154ZM463 787 377 861 262 787 228 821 390 939 507 821Z" glyph-name="Scircumflex" horiz-adv-x="560" unicode="&#348;" /><glyph d="M108 700H640L626 628H404L282 0H198L320 628H94Z" glyph-name="T" horiz-adv-x="574" unicode="T" /><glyph d="M108 700H640L626 628H404L282 0H268L244 -41Q282 -44 298 -64.5Q314 -85 314 -109Q314 -127 306.5 -143.5Q299 -160 284.5 -173.5Q270 -187 249.5 -195Q229 -203 202 -203Q159 -203 134.5 -185Q110 -167 103 -138L150 -121Q163 -156 203 -156Q232 -156 244 -141.5Q256 -127 256 -112Q256 -99 246.5 -89Q237 -79 214 -79H176L216 0H198L320 628H94Z" glyph-name="Tcommaaccent" horiz-adv-x="574" unicode="&#538;" /><glyph d="M553 222Q543 172 519.5 130Q496 88 461 58Q426 28 381.5 11Q337 -6 285 -6Q230 -6 183 12.5Q136 31 103.5 66.5Q71 102 57.5 152.5Q44 203 56 266L140 700H225L141 264Q131 212 141 174.5Q151 137 173.5 113Q196 89 226.5 77.5Q257 66 288 66Q319 66 349 76.5Q379 87 403.5 108Q428 129 446.5 161Q465 193 473 235L565 700H646L553 222Z" glyph-name="U" horiz-adv-x="611" unicode="U" /><glyph d="M44 0ZM553 222Q543 172 519.5 130Q496 88 461 58Q426 28 381.5 11Q337 -6 285 -6Q230 -6 183 12.5Q136 31 103.5 66.5Q71 102 57.5 152.5Q44 203 56 266L140 700H225L141 264Q131 212 141 174.5Q151 137 173.5 113Q196 89 226.5 77.5Q257 66 288 66Q319 66 349 76.5Q379 87 403.5 108Q428 129 446.5 161Q465 193 473 235L565 700H646L553 222ZM481 945 529 885 347 783 319 820Z" glyph-name="Uacute" horiz-adv-x="611" unicode="&#218;" /><glyph d="M44 0ZM553 222Q543 172 519.5 130Q496 88 461 58Q426 28 381.5 11Q337 -6 285 -6Q230 -6 183 12.5Q136 31 103.5 66.5Q71 102 57.5 152.5Q44 203 56 266L140 700H225L141 264Q131 212 141 174.5Q151 137 173.5 113Q196 89 226.5 77.5Q257 66 288 66Q319 66 349 76.5Q379 87 403.5 108Q428 129 446.5 161Q465 193 473 235L565 700H646L553 222ZM512 787 426 861 311 787 277 821 439 939 556 821Z" glyph-name="Ucircumflex" horiz-adv-x="611" unicode="&#219;" /><glyph d="M44 0ZM553 222Q543 172 519.5 130Q496 88 461 58Q426 28 381.5 11Q337 -6 285 -6Q230 -6 183 12.5Q136 31 103.5 66.5Q71 102 57.5 152.5Q44 203 56 266L140 700H225L141 264Q131 212 141 174.5Q151 137 173.5 113Q196 89 226.5 77.5Q257 66 288 66Q319 66 349 76.5Q379 87 403.5 108Q428 129 446.5 161Q465 193 473 235L565 700H646L553 222ZM334 804Q315 804 303 816Q291 828 291 847Q291 868 306.5 885Q322 902 345 902Q364 902 376 890Q388 878 388 858Q388 838 372.5 821Q357 804 334 804ZM498 804Q479 804 467 816Q455 828 455 847Q455 868 470.5 885Q486 902 509 902Q528 902 540 890Q552 878 552 858Q552 838 536.5 821Q521 804 498 804Z" glyph-name="Udieresis" horiz-adv-x="611" unicode="&#220;" /><glyph d="M44 0ZM553 222Q543 172 519.5 130Q496 88 461 58Q426 28 381.5 11Q337 -6 285 -6Q230 -6 183 12.5Q136 31 103.5 66.5Q71 102 57.5 152.5Q44 203 56 266L140 700H225L141 264Q131 212 141 174.5Q151 137 173.5 113Q196 89 226.5 77.5Q257 66 288 66Q319 66 349 76.5Q379 87 403.5 108Q428 129 446.5 161Q465 193 473 235L565 700H646L553 222ZM445 783 274 885 327 945 477 820Z" glyph-name="Ugrave" horiz-adv-x="611" unicode="&#217;" /><glyph d="M44 0ZM553 222Q543 172 519.5 130Q496 88 461 58Q426 28 381.5 11Q337 -6 285 -6Q230 -6 183 12.5Q136 31 103.5 66.5Q71 102 57.5 152.5Q44 203 56 266L140 700H225L141 264Q131 212 141 174.5Q151 137 173.5 113Q196 89 226.5 77.5Q257 66 288 66Q319 66 349 76.5Q379 87 403.5 108Q428 129 446.5 161Q465 193 473 235L565 700H646L553 222ZM308 820 319 880H535L524 820Z" glyph-name="Umacron" horiz-adv-x="611" unicode="&#362;" /><glyph d="M44 0ZM553 222Q543 172 519.5 130Q496 88 461 58Q426 28 381.5 11Q337 -6 285 -6Q230 -6 183 12.5Q136 31 103.5 66.5Q71 102 57.5 152.5Q44 203 56 266L140 700H225L141 264Q131 212 141 174.5Q151 137 173.5 113Q196 89 226.5 77.5Q257 66 288 66Q319 66 349 76.5Q379 87 403.5 108Q428 129 446.5 161Q465 193 473 235L565 700H646L553 222ZM241 809Q289 902 350 902Q371 902 387.5 894Q404 886 418 877Q432 868 444.5 860Q457 852 471 852Q484 852 496.5 863Q509 874 526 900L572 882Q546 833 519 811Q492 789 462 789Q441 789 425 797Q409 805 395.5 814Q382 823 369.5 831Q357 839 343 839Q330 839 317.5 828Q305 817 288 791Z" glyph-name="Utilde" horiz-adv-x="611" unicode="&#360;" /><glyph d="M286 0H200L103 700H186L265 95L618 700H706Z" glyph-name="V" horiz-adv-x="633" unicode="V" /><glyph d="M669 0H577L542 458L534 575L473 458L228 0H137L118 700H203L211 248L212 120L279 248L520 700H601L635 248L644 112L707 248L920 700H1006Z" glyph-name="W" horiz-adv-x="951" unicode="W" /><glyph d="M118 0ZM669 0H577L542 458L534 575L473 458L228 0H137L118 700H203L211 248L212 120L279 248L520 700H601L635 248L644 112L707 248L920 700H1006ZM650 945 698 885 516 783 488 820Z" glyph-name="Wacute" horiz-adv-x="951" unicode="&#7810;" /><glyph d="M118 0ZM669 0H577L542 458L534 575L473 458L228 0H137L118 700H203L211 248L212 120L279 248L520 700H601L635 248L644 112L707 248L920 700H1006ZM681 787 595 861 480 787 446 821 608 939 725 821Z" glyph-name="Wcircumflex" horiz-adv-x="951" unicode="&#372;" /><glyph d="M118 0ZM669 0H577L542 458L534 575L473 458L228 0H137L118 700H203L211 248L212 120L279 248L520 700H601L635 248L644 112L707 248L920 700H1006ZM503 804Q484 804 472 816Q460 828 460 847Q460 868 475.5 885Q491 902 514 902Q533 902 545 890Q557 878 557 858Q557 838 541.5 821Q526 804 503 804ZM667 804Q648 804 636 816Q624 828 624 847Q624 868 639.5 885Q655 902 678 902Q697 902 709 890Q721 878 721 858Q721 838 705.5 821Q690 804 667 804Z" glyph-name="Wdieresis" horiz-adv-x="951" unicode="&#7812;" /><glyph d="M118 0ZM669 0H577L542 458L534 575L473 458L228 0H137L118 700H203L211 248L212 120L279 248L520 700H601L635 248L644 112L707 248L920 700H1006ZM614 783 443 885 496 945 646 820Z" glyph-name="Wgrave" horiz-adv-x="951" unicode="&#7808;" /><glyph d="M335 306 69 0H-32L302 372L136 700H230L360 436L589 700H690L394 369L583 0H490Z" glyph-name="X" horiz-adv-x="648" unicode="X" /><glyph d="M295 0H211L269 300L104 700H192L324 366L583 700H673L353 300Z" glyph-name="Y" horiz-adv-x="602" unicode="Y" /><glyph d="M104 0ZM295 0H211L269 300L104 700H192L324 366L583 700H673L353 300ZM477 945 525 885 343 783 315 820Z" glyph-name="Yacute" horiz-adv-x="602" unicode="&#221;" /><glyph d="M104 0ZM295 0H211L269 300L104 700H192L324 366L583 700H673L353 300ZM508 787 422 861 307 787 273 821 435 939 552 821Z" glyph-name="Ycircumflex" horiz-adv-x="602" unicode="&#374;" /><glyph d="M104 0ZM295 0H211L269 300L104 700H192L324 366L583 700H673L353 300ZM330 804Q311 804 299 816Q287 828 287 847Q287 868 302.5 885Q318 902 341 902Q360 902 372 890Q384 878 384 858Q384 838 368.5 821Q353 804 330 804ZM494 804Q475 804 463 816Q451 828 451 847Q451 868 466.5 885Q482 902 505 902Q524 902 536 890Q548 878 548 858Q548 838 532.5 821Q517 804 494 804Z" glyph-name="Ydieresis" horiz-adv-x="602" unicode="&#376;" /><glyph d="M104 0ZM295 0H211L269 300L104 700H192L324 366L583 700H673L353 300ZM441 783 270 885 323 945 473 820Z" glyph-name="Ygrave" horiz-adv-x="602" unicode="&#7922;" /><glyph d="M455 0H-28L-18 53L474 628H99L113 700H591L579 639L97 72H469Z" glyph-name="Z" horiz-adv-x="525" unicode="Z" /><glyph d="M0 0ZM455 0H-28L-18 53L474 628H99L113 700H591L579 639L97 72H469ZM438 945 486 885 304 783 276 820Z" glyph-name="Zacute" horiz-adv-x="525" unicode="&#377;" /><glyph d="M0 0ZM455 0H-28L-18 53L474 628H99L113 700H591L579 639L97 72H469ZM366 788 249 906 291 940 377 866 492 940 528 906Z" glyph-name="Zcaron" horiz-adv-x="525" unicode="&#381;" /><glyph d="M0 0ZM455 0H-28L-18 53L474 628H99L113 700H591L579 639L97 72H469ZM373 804Q354 804 342 816Q330 828 330 847Q330 868 345.5 885Q361 902 384 902Q403 902 415 890Q427 878 427 858Q427 838 411.5 821Q396 804 373 804Z" glyph-name="Zdotaccent" horiz-adv-x="525" unicode="&#379;" /><glyph d="M305 0Q307 18 310 37Q313 56 317 75Q289 37 246 16Q203 -5 152 -5Q80 -5 41 31Q2 67 2 120Q2 174 41.5 214Q81 254 175 273L363 311Q369 347 362.5 371.5Q356 396 342 410.5Q328 425 307.5 431Q287 437 266 437Q224 437 188 417Q152 397 126 356L60 388Q97 443 152.5 474Q208 505 274 505Q319 505 354.5 492Q390 479 412 453.5Q434 428 441.5 390.5Q449 353 440 304L390 45Q388 37 386.5 24Q385 11 383 0ZM81 127Q81 95 106.5 77.5Q132 60 167 60Q219 60 265 85Q311 110 334 158L351 248L182 211Q123 198 102 177Q81 156 81 127Z" glyph-name="a" horiz-adv-x="478" unicode="a" /><glyph d="M377 69Q345 34 305.5 14Q266 -6 222 -6Q181 -6 146.5 9.5Q112 25 87 52.5Q62 80 48 118.5Q34 157 34 204Q34 259 51 313Q68 367 100 410Q132 453 178 479.5Q224 506 283 506Q339 506 381 478Q423 450 445 402L474 500H537L440 0H363ZM111 214Q111 174 121.5 145Q132 116 150.5 97.5Q169 79 193.5 70Q218 61 245 61Q290 61 328 83Q366 105 392 149L426 324Q420 353 406.5 374.5Q393 396 374 410.5Q355 425 332 432Q309 439 286 439Q247 439 214.5 420Q182 401 159 370Q136 339 123.5 298Q111 257 111 214Z" glyph-name="a.school" horiz-adv-x="540" /><glyph d="M2 0ZM305 0Q307 18 310 37Q313 56 317 75Q289 37 246 16Q203 -5 152 -5Q80 -5 41 31Q2 67 2 120Q2 174 41.5 214Q81 254 175 273L363 311Q369 347 362.5 371.5Q356 396 342 410.5Q328 425 307.5 431Q287 437 266 437Q224 437 188 417Q152 397 126 356L60 388Q97 443 152.5 474Q208 505 274 505Q319 505 354.5 492Q390 479 412 453.5Q434 428 441.5 390.5Q449 353 440 304L390 45Q388 37 386.5 24Q385 11 383 0ZM81 127Q81 95 106.5 77.5Q132 60 167 60Q219 60 265 85Q311 110 334 158L351 248L182 211Q123 198 102 177Q81 156 81 127ZM370 745 418 685 236 583 208 620Z" glyph-name="aacute" horiz-adv-x="478" unicode="&#225;" /><glyph d="M2 0ZM305 0Q307 18 310 37Q313 56 317 75Q289 37 246 16Q203 -5 152 -5Q80 -5 41 31Q2 67 2 120Q2 174 41.5 214Q81 254 175 273L363 311Q369 347 362.5 371.5Q356 396 342 410.5Q328 425 307.5 431Q287 437 266 437Q224 437 188 417Q152 397 126 356L60 388Q97 443 152.5 474Q208 505 274 505Q319 505 354.5 492Q390 479 412 453.5Q434 428 441.5 390.5Q449 353 440 304L390 45Q388 37 386.5 24Q385 11 383 0ZM81 127Q81 95 106.5 77.5Q132 60 167 60Q219 60 265 85Q311 110 334 158L351 248L182 211Q123 198 102 177Q81 156 81 127ZM402 587 316 661 201 587 167 621 329 739 446 621Z" glyph-name="acircumflex" horiz-adv-x="478" unicode="&#226;" /><glyph d="M381 745 429 685 247 583 219 620Z" glyph-name="acute" horiz-adv-x="489" unicode="&#180;" /><glyph d="M2 0ZM305 0Q307 18 310 37Q313 56 317 75Q289 37 246 16Q203 -5 152 -5Q80 -5 41 31Q2 67 2 120Q2 174 41.5 214Q81 254 175 273L363 311Q369 347 362.5 371.5Q356 396 342 410.5Q328 425 307.5 431Q287 437 266 437Q224 437 188 417Q152 397 126 356L60 388Q97 443 152.5 474Q208 505 274 505Q319 505 354.5 492Q390 479 412 453.5Q434 428 441.5 390.5Q449 353 440 304L390 45Q388 37 386.5 24Q385 11 383 0ZM81 127Q81 95 106.5 77.5Q132 60 167 60Q219 60 265 85Q311 110 334 158L351 248L182 211Q123 198 102 177Q81 156 81 127ZM224 604Q205 604 193 616Q181 628 181 647Q181 668 196.5 685Q212 702 235 702Q254 702 266 690Q278 678 278 658Q278 638 262.5 621Q247 604 224 604ZM388 604Q369 604 357 616Q345 628 345 647Q345 668 360.5 685Q376 702 399 702Q418 702 430 690Q442 678 442 658Q442 638 426.5 621Q411 604 388 604Z" glyph-name="adieresis" horiz-adv-x="478" unicode="&#228;" /><glyph d="M770 112Q734 56 678 25Q622 -6 560 -6Q496 -6 445 26.5Q394 59 371 119Q339 59 281.5 26.5Q224 -6 155 -6Q89 -6 47.5 27Q6 60 6 119Q6 179 53 220Q100 261 213 279L361 303L362 306Q369 344 363 369Q357 394 343 409Q329 424 308.5 430.5Q288 437 266 437Q225 437 189 417Q153 397 127 356L61 388Q98 443 153.5 474Q209 505 274 505Q331 505 372 483.5Q413 462 431 420Q464 458 509.5 482Q555 506 612 506Q652 506 687 493.5Q722 481 748 456Q774 431 788.5 393.5Q803 356 803 307Q803 291 801.5 273.5Q800 256 796 238H432Q431 230 431 223.5Q431 217 431 209Q431 172 442 144.5Q453 117 471 98.5Q489 80 513 71Q537 62 564 62Q605 62 642 82.5Q679 103 705 143ZM607 438Q578 438 553 427.5Q528 417 507.5 399Q487 381 471.5 356Q456 331 446 302H730V305Q730 342 719.5 367.5Q709 393 691.5 408.5Q674 424 652 431Q630 438 607 438ZM84 125Q84 93 110.5 76Q137 59 177 59Q229 59 272.5 85.5Q316 112 336 165L349 237L217 216Q144 205 114 182.5Q84 160 84 125Z" glyph-name="ae" horiz-adv-x="833" unicode="&#230;" /><glyph d="M2 0ZM305 0Q307 18 310 37Q313 56 317 75Q289 37 246 16Q203 -5 152 -5Q80 -5 41 31Q2 67 2 120Q2 174 41.5 214Q81 254 175 273L363 311Q369 347 362.5 371.5Q356 396 342 410.5Q328 425 307.5 431Q287 437 266 437Q224 437 188 417Q152 397 126 356L60 388Q97 443 152.5 474Q208 505 274 505Q319 505 354.5 492Q390 479 412 453.5Q434 428 441.5 390.5Q449 353 440 304L390 45Q388 37 386.5 24Q385 11 383 0ZM81 127Q81 95 106.5 77.5Q132 60 167 60Q219 60 265 85Q311 110 334 158L351 248L182 211Q123 198 102 177Q81 156 81 127ZM334 583 163 685 216 745 366 620Z" glyph-name="agrave" horiz-adv-x="478" unicode="&#224;" /><glyph d="M2 0ZM305 0Q307 18 310 37Q313 56 317 75Q289 37 246 16Q203 -5 152 -5Q80 -5 41 31Q2 67 2 120Q2 174 41.5 214Q81 254 175 273L363 311Q369 347 362.5 371.5Q356 396 342 410.5Q328 425 307.5 431Q287 437 266 437Q224 437 188 417Q152 397 126 356L60 388Q97 443 152.5 474Q208 505 274 505Q319 505 354.5 492Q390 479 412 453.5Q434 428 441.5 390.5Q449 353 440 304L390 45Q388 37 386.5 24Q385 11 383 0ZM81 127Q81 95 106.5 77.5Q132 60 167 60Q219 60 265 85Q311 110 334 158L351 248L182 211Q123 198 102 177Q81 156 81 127ZM198 620 209 680H425L414 620Z" glyph-name="amacron" horiz-adv-x="478" unicode="&#257;" /><glyph d="M432 73Q339 -5 231 -5Q186 -5 148 7Q110 19 83 41Q56 63 40.5 94.5Q25 126 25 165Q25 196 33.5 225.5Q42 255 61.5 281Q81 307 113 330Q145 353 193 372L214 380L212 383Q186 421 172 455Q158 489 158 524Q158 558 171 590.5Q184 623 208 648Q232 673 267.5 688.5Q303 704 348 704Q384 704 414.5 693.5Q445 683 467 663.5Q489 644 501.5 616.5Q514 589 514 556Q514 533 506 508Q498 483 480 459Q462 435 433.5 413.5Q405 392 364 375L323 358L449 183Q503 253 553 377L624 362Q567 217 488 128L580 0H483ZM287 409 336 428Q382 446 409 478.5Q436 511 436 551Q436 594 409 616Q382 638 345 638Q294 638 264 606.5Q234 575 234 525Q234 495 247.5 470Q261 445 281 417ZM101 170Q101 121 138.5 91.5Q176 62 239 62Q281 62 319.5 77Q358 92 395 124L251 328L221 316Q170 295 135.5 259.5Q101 224 101 170Z" glyph-name="ampersand" horiz-adv-x="647" unicode="&amp;" /><glyph d="M291 499 129 303H46L271 577H341L460 303H376Z" glyph-name="asciicircum" horiz-adv-x="489" unicode="^" /><glyph d="M42 331Q71 387 111 422Q151 457 189 457Q217 457 236.5 445.5Q256 434 272 419.5Q288 405 303 393.5Q318 382 336 382Q354 382 375 401Q396 420 419 453L472 433Q441 375 401.5 341.5Q362 308 324 308Q297 308 278 319.5Q259 331 243.5 345.5Q228 360 213 371.5Q198 383 180 383Q163 383 141 364Q119 345 97 312Z" glyph-name="asciitilde" horiz-adv-x="461" unicode="~" /><glyph d="M336 292 271 445 151 310 103 358 232 483 81 544 116 611 260 536 285 710 355 703 315 532 483 577 490 506 323 475 400 329Z" glyph-name="asterisk" horiz-adv-x="463" unicode="*" /><glyph d="M563 -167Q468 -215 370 -215Q291 -215 227 -189Q163 -163 118 -118.5Q73 -74 49 -13.5Q25 47 25 116Q25 207 56 283.5Q87 360 140 415.5Q193 471 263.5 501.5Q334 532 414 532Q487 532 548.5 509Q610 486 654 445Q698 404 722.5 348.5Q747 293 747 227Q747 107 697 40.5Q647 -26 564 -26Q519 -26 492 -7Q465 12 457 47Q434 12 402 -7.5Q370 -27 334 -27Q304 -27 279.5 -15.5Q255 -4 237.5 16.5Q220 37 210 64.5Q200 92 200 125Q200 166 213.5 204.5Q227 243 252 272.5Q277 302 312 320Q347 338 389 338Q426 338 453.5 321Q481 304 497 275L513 323H569L521 85Q516 59 530 41Q544 23 576 23Q605 23 627 38.5Q649 54 664 81Q679 108 686.5 144.5Q694 181 694 223Q694 282 672 330.5Q650 379 611.5 413.5Q573 448 521 467Q469 486 408 486Q338 486 277.5 457.5Q217 429 173 379.5Q129 330 103.5 263.5Q78 197 78 122Q78 58 99.5 4.5Q121 -49 160 -87.5Q199 -126 253 -147.5Q307 -169 371 -169Q460 -169 543 -126ZM264 130Q264 83 289 55Q314 27 356 27Q387 27 413.5 45Q440 63 457 98Q457 103 458 106L481 222Q470 252 446 267Q422 282 393 282Q365 282 341.5 270Q318 258 300.5 237.5Q283 217 273.5 189.5Q264 162 264 130Z" glyph-name="at" horiz-adv-x="799" unicode="@" /><glyph d="M59 0ZM597 8Q502 -40 404 -40Q325 -40 261 -14Q197 12 152 56.5Q107 101 83 161.5Q59 222 59 291Q59 382 90 458.5Q121 535 174 590.5Q227 646 297.5 676.5Q368 707 448 707Q521 707 582.5 684Q644 661 688 620Q732 579 756.5 523.5Q781 468 781 402Q781 282 731 215.5Q681 149 598 149Q553 149 526 168Q499 187 491 222Q468 187 436 167.5Q404 148 368 148Q338 148 313.5 159.5Q289 171 271.5 191.5Q254 212 244 239.5Q234 267 234 300Q234 341 247.5 379.5Q261 418 286 447.5Q311 477 346 495Q381 513 423 513Q460 513 487.5 496Q515 479 531 450L547 498H603L555 260Q550 234 564 216Q578 198 610 198Q639 198 661 213.5Q683 229 698 256Q713 283 720.5 319.5Q728 356 728 398Q728 457 706 505.5Q684 554 645.5 588.5Q607 623 555 642Q503 661 442 661Q372 661 311.5 632.5Q251 604 207 554.5Q163 505 137.5 438.5Q112 372 112 297Q112 233 133.5 179.5Q155 126 194 87.5Q233 49 287 27.5Q341 6 405 6Q494 6 577 49ZM298 305Q298 258 323 230Q348 202 390 202Q421 202 447.5 220Q474 238 491 273Q491 278 492 281L515 397Q504 427 480 442Q456 457 427 457Q399 457 375.5 445Q352 433 334.5 412.5Q317 392 307.5 364.5Q298 337 298 305Z" glyph-name="at.cap" horiz-adv-x="799" /><glyph d="M2 0ZM305 0Q307 18 310 37Q313 56 317 75Q289 37 246 16Q203 -5 152 -5Q80 -5 41 31Q2 67 2 120Q2 174 41.5 214Q81 254 175 273L363 311Q369 347 362.5 371.5Q356 396 342 410.5Q328 425 307.5 431Q287 437 266 437Q224 437 188 417Q152 397 126 356L60 388Q97 443 152.5 474Q208 505 274 505Q319 505 354.5 492Q390 479 412 453.5Q434 428 441.5 390.5Q449 353 440 304L390 45Q388 37 386.5 24Q385 11 383 0ZM81 127Q81 95 106.5 77.5Q132 60 167 60Q219 60 265 85Q311 110 334 158L351 248L182 211Q123 198 102 177Q81 156 81 127ZM130 609Q178 702 239 702Q260 702 276.5 694Q293 686 307 677Q321 668 333.5 660Q346 652 360 652Q373 652 385.5 663Q398 674 415 700L461 682Q435 633 408 611Q381 589 351 589Q330 589 314 597Q298 605 284.5 614Q271 623 258.5 631Q246 639 232 639Q219 639 206.5 628Q194 617 177 591Z" glyph-name="atilde" horiz-adv-x="478" unicode="&#227;" /><glyph d="M508 296Q508 241 491 187Q474 133 442 90Q410 47 363.5 20.5Q317 -6 259 -6Q205 -6 162.5 18Q120 42 95 84L63 0H4L140 700H217L165 430Q197 466 236 486Q275 506 320 506Q361 506 395.5 490.5Q430 475 455 447.5Q480 420 494 381Q508 342 508 296ZM297 439Q252 439 213.5 416.5Q175 394 149 349L115 177Q121 147 135 125.5Q149 104 168 89.5Q187 75 209.5 68Q232 61 256 61Q295 61 327.5 80Q360 99 383 130Q406 161 418.5 201.5Q431 242 431 286Q431 326 420.5 354.5Q410 383 391.5 402Q373 421 348.5 430Q324 439 297 439Z" glyph-name="b" horiz-adv-x="542" unicode="b" /><glyph d="M258 -200 88 700H163L333 -200Z" glyph-name="backslash" horiz-adv-x="373" unicode="\" /><glyph d="M139 700H216L41 -200H-36Z" glyph-name="bar" horiz-adv-x="179" unicode="|" /><glyph d="M156 -216Q92 -181 64.5 -145Q37 -109 37 -67Q37 -36 50.5 -6.5Q64 23 80.5 50.5Q97 78 110.5 103.5Q124 129 124 153Q124 186 105.5 202.5Q87 219 45 219H3L15 283H50Q84 283 107 292.5Q130 302 144 317.5Q158 333 164 353Q170 373 170 394Q170 425 161.5 460.5Q153 496 153 531Q153 595 195.5 639Q238 683 335 710L356 653Q318 644 294 631Q270 618 256 602Q242 586 236.5 567Q231 548 231 526Q231 494 239 463.5Q247 433 247 401Q247 359 220.5 318.5Q194 278 135 248Q163 229 180 202.5Q197 176 197 142Q197 116 184 89.5Q171 63 156 36.5Q141 10 128 -15.5Q115 -41 115 -65Q115 -91 131.5 -116Q148 -141 198 -165Z" glyph-name="braceleft" horiz-adv-x="299" unicode="{" /><glyph d="M148 -29Q148 -93 105.5 -137Q63 -181 -34 -208L-55 -151Q-17 -142 7 -129Q31 -116 45 -100Q59 -84 64.5 -65Q70 -46 70 -24Q70 8 62 38.5Q54 69 54 101Q54 143 80.5 183.5Q107 224 166 254Q138 273 121 299.5Q104 326 104 360Q104 386 117 412.5Q130 439 145 465.5Q160 492 173 517.5Q186 543 186 567Q186 592 169.5 617.5Q153 643 103 667L145 718Q209 683 236.5 647Q264 611 264 569Q264 537 250.5 508Q237 479 220.5 451.5Q204 424 190.5 398.5Q177 373 177 349Q177 316 195.5 299.5Q214 283 256 283H298L286 219H251Q217 219 194 209.5Q171 200 157 184.5Q143 169 137 149Q131 129 131 108Q131 77 139.5 41.5Q148 6 148 -29Z" glyph-name="braceright" horiz-adv-x="299" unicode="}" /><glyph d="M139 700H357L344 631H203L55 -131H196L182 -200H-36Z" glyph-name="bracketleft" horiz-adv-x="299" unicode="[" /><glyph d="M182 -200H-36L-23 -131H118L266 631H125L139 700H357Z" glyph-name="bracketright" horiz-adv-x="298" unicode="]" /><glyph d="M0 101ZM0.6147 294.5642Q39.1621 294.5642 62.2905 271.4358Q85.419 248.3073 85.419 209.7599Q85.419 169.2852 55.5447 135.5562Q25.6705 101.8272 -20.5864 101.8272Q-59.1338 101.8272 -82.2622 125.9193Q-105.3907 150.0115 -105.3907 188.5589Q-105.3907 227.1063 -75.5164 260.8352Q-45.6422 294.5642 0.6147 294.5642Z" glyph-name="bullet" horiz-adv-x="260" unicode="&#8226;" /><glyph d="M461 151Q427 76 367.5 35Q308 -6 238 -6Q193 -6 155.5 9.5Q118 25 91.5 53.5Q65 82 50 121.5Q35 161 35 209Q35 264 53 317Q71 370 104.5 412Q138 454 185.5 479.5Q233 505 292 505Q370 505 423.5 457.5Q477 410 488 327L414 316Q406 377 370.5 407.5Q335 438 288 438Q249 438 216.5 420Q184 402 160.5 370.5Q137 339 124 297.5Q111 256 111 209Q111 173 122 145.5Q133 118 151 99.5Q169 81 193 71.5Q217 62 243 62Q288 62 327 89Q366 116 392 172Z" glyph-name="c" horiz-adv-x="505" unicode="c" /><glyph d="M35 0ZM461 151Q427 76 367.5 35Q308 -6 238 -6Q193 -6 155.5 9.5Q118 25 91.5 53.5Q65 82 50 121.5Q35 161 35 209Q35 264 53 317Q71 370 104.5 412Q138 454 185.5 479.5Q233 505 292 505Q370 505 423.5 457.5Q477 410 488 327L414 316Q406 377 370.5 407.5Q335 438 288 438Q249 438 216.5 420Q184 402 160.5 370.5Q137 339 124 297.5Q111 256 111 209Q111 173 122 145.5Q133 118 151 99.5Q169 81 193 71.5Q217 62 243 62Q288 62 327 89Q366 116 392 172ZM394 745 442 685 260 583 232 620Z" glyph-name="cacute" horiz-adv-x="505" unicode="&#263;" /><glyph d="M311 588 194 706 236 740 322 666 437 740 473 706Z" glyph-name="caron" horiz-adv-x="489" unicode="&#711;" /><glyph d="M35 0ZM461 151Q427 76 367.5 35Q308 -6 238 -6Q193 -6 155.5 9.5Q118 25 91.5 53.5Q65 82 50 121.5Q35 161 35 209Q35 264 53 317Q71 370 104.5 412Q138 454 185.5 479.5Q233 505 292 505Q370 505 423.5 457.5Q477 410 488 327L414 316Q406 377 370.5 407.5Q335 438 288 438Q249 438 216.5 420Q184 402 160.5 370.5Q137 339 124 297.5Q111 256 111 209Q111 173 122 145.5Q133 118 151 99.5Q169 81 193 71.5Q217 62 243 62Q288 62 327 89Q366 116 392 172ZM322 588 205 706 247 740 333 666 448 740 484 706Z" glyph-name="ccaron" horiz-adv-x="505" unicode="&#269;" /><glyph d="M293 -109Q293 -127 285.5 -143.5Q278 -160 263.5 -173.5Q249 -187 228.5 -195Q208 -203 181 -203Q138 -203 113.5 -185Q89 -167 82 -138L129 -121Q142 -156 182 -156Q211 -156 223 -141.5Q235 -127 235 -112Q235 -99 225.5 -89Q216 -79 193 -79H155L194 -2Q158 5 128.5 23.5Q99 42 78.5 69Q58 96 46.5 131.5Q35 167 35 209Q35 264 53 317Q71 370 104.5 412Q138 454 185.5 479.5Q233 505 292 505Q370 505 423.5 457.5Q477 410 488 327L414 316Q406 377 370.5 407.5Q335 438 288 438Q249 438 216.5 420Q184 402 160.5 370.5Q137 339 124 297.5Q111 256 111 209Q111 173 122 145.5Q133 118 151 99.5Q169 81 193 71.5Q217 62 243 62Q288 62 327 89Q366 116 392 172L461 151Q428 78 370 37Q312 -4 243 -6L223 -41Q261 -44 277 -64.5Q293 -85 293 -109Z" glyph-name="ccedilla" horiz-adv-x="505" unicode="&#231;" /><glyph d="M35 0ZM461 151Q427 76 367.5 35Q308 -6 238 -6Q193 -6 155.5 9.5Q118 25 91.5 53.5Q65 82 50 121.5Q35 161 35 209Q35 264 53 317Q71 370 104.5 412Q138 454 185.5 479.5Q233 505 292 505Q370 505 423.5 457.5Q477 410 488 327L414 316Q406 377 370.5 407.5Q335 438 288 438Q249 438 216.5 420Q184 402 160.5 370.5Q137 339 124 297.5Q111 256 111 209Q111 173 122 145.5Q133 118 151 99.5Q169 81 193 71.5Q217 62 243 62Q288 62 327 89Q366 116 392 172ZM425 587 339 661 224 587 190 621 352 739 469 621Z" glyph-name="ccircumflex" horiz-adv-x="505" unicode="&#265;" /><glyph d="M35 0ZM461 151Q427 76 367.5 35Q308 -6 238 -6Q193 -6 155.5 9.5Q118 25 91.5 53.5Q65 82 50 121.5Q35 161 35 209Q35 264 53 317Q71 370 104.5 412Q138 454 185.5 479.5Q233 505 292 505Q370 505 423.5 457.5Q477 410 488 327L414 316Q406 377 370.5 407.5Q335 438 288 438Q249 438 216.5 420Q184 402 160.5 370.5Q137 339 124 297.5Q111 256 111 209Q111 173 122 145.5Q133 118 151 99.5Q169 81 193 71.5Q217 62 243 62Q288 62 327 89Q366 116 392 172ZM329 604Q310 604 298 616Q286 628 286 647Q286 668 301.5 685Q317 702 340 702Q359 702 371 690Q383 678 383 658Q383 638 367.5 621Q352 604 329 604Z" glyph-name="cdotaccent" horiz-adv-x="505" unicode="&#267;" /><glyph d="M272 -109Q272 -127 264.5 -143.5Q257 -160 242.5 -173.5Q228 -187 207.5 -195Q187 -203 160 -203Q117 -203 92.5 -185Q68 -167 61 -138L108 -121Q121 -156 161 -156Q190 -156 202 -141.5Q214 -127 214 -112Q214 -99 204.5 -89Q195 -79 172 -79H134L178 9H231L202 -41Q240 -44 256 -64.5Q272 -85 272 -109Z" glyph-name="cedilla" horiz-adv-x="489" unicode="&#184;" /><glyph d="M461 151Q429 79 373 38.5Q317 -2 251 -6L232 -101H164L184 0Q116 17 75.5 72.5Q35 128 35 209Q35 263 52 315Q69 367 101.5 408.5Q134 450 179.5 476.5Q225 503 282 505L301 601H369L349 498Q405 482 442.5 438Q480 394 488 327L414 316Q409 361 387.5 389Q366 417 335 429L264 64Q303 69 336 96Q369 123 392 172ZM111 209Q111 152 136 117.5Q161 83 197 70L269 437Q234 432 205 412.5Q176 393 155 362.5Q134 332 122.5 292.5Q111 253 111 209Z" glyph-name="cent" horiz-adv-x="517" unicode="&#162;" /><glyph d="M413 587 327 661 212 587 178 621 340 739 457 621Z" glyph-name="circumflex" horiz-adv-x="489" unicode="&#710;" /><glyph d="M0 0ZM36 -6Q16 -6 4 6Q-8 18 -8 38Q-8 59 7.5 76.5Q23 94 47 94Q67 94 79 81.5Q91 69 91 49Q91 29 75.5 11.5Q60 -6 36 -6ZM106 354Q86 354 74 366Q62 378 62 398Q62 419 77.5 436.5Q93 454 117 454Q137 454 149 441.5Q161 429 161 409Q161 389 145.5 371.5Q130 354 106 354Z" glyph-name="colon" horiz-adv-x="168" unicode=":" /><glyph d="M98 43Q98 20 89 -6Q80 -32 62 -56Q44 -80 16.5 -99Q-11 -118 -48 -126L-60 -95Q27 -67 46 -6H43Q23 -6 11 6.5Q-1 19 -1 39Q-1 59 13 76Q27 93 53 93Q70 93 84 81Q98 69 98 43Z" glyph-name="comma" horiz-adv-x="169" unicode="," /><glyph d="M363 -4Q304 -4 248 15.5Q192 35 148.5 73.5Q105 112 78.5 168.5Q52 225 52 300Q52 378 78.5 451.5Q105 525 154 581.5Q203 638 273 672Q343 706 429 706Q487 706 543 686.5Q599 667 643 628.5Q687 590 713.5 533.5Q740 477 740 402Q740 324 713 250.5Q686 177 637 120.5Q588 64 518 30Q448 -4 363 -4ZM366 39Q435 39 494 68Q553 97 596.5 146Q640 195 665 259.5Q690 324 690 395Q690 461 668 511Q646 561 609 594.5Q572 628 525 645.5Q478 663 428 663Q357 663 297.5 634Q238 605 194.5 556Q151 507 126.5 442.5Q102 378 102 307Q102 241 124 191Q146 141 182.5 107.5Q219 74 267 56.5Q315 39 366 39ZM556 273Q530 216 482 184Q434 152 377 152Q339 152 308.5 165Q278 178 256.5 201Q235 224 223 255.5Q211 287 211 325Q211 365 225.5 405Q240 445 266.5 476.5Q293 508 331 528Q369 548 416 548Q482 548 525.5 510Q569 472 577 408L519 400Q516 425 505.5 443Q495 461 480.5 472.5Q466 484 448.5 489.5Q431 495 412 495Q380 495 354 481Q328 467 309 443.5Q290 420 280 390Q270 360 270 329Q270 268 302.5 236.5Q335 205 383 205Q418 205 449.5 226.5Q481 248 501 290Z" glyph-name="copyright" horiz-adv-x="752" unicode="&#169;" /><glyph d="M377 70Q345 34 305.5 14Q266 -6 222 -6Q181 -6 146.5 9.5Q112 25 87 52.5Q62 80 48 118.5Q34 157 34 204Q34 259 51 313Q68 367 100 410Q132 453 178 479.5Q224 506 283 506Q337 506 378 479.5Q419 453 442 408L499 700H576L440 0H364ZM111 214Q111 174 121.5 145Q132 116 150.5 97.5Q169 79 193.5 70Q218 61 245 61Q289 61 327.5 83Q366 105 392 148L426 325Q420 354 406 375.5Q392 397 373 411Q354 425 331.5 432Q309 439 286 439Q247 439 214.5 420Q182 401 159 370Q136 339 123.5 298Q111 257 111 214Z" glyph-name="d" horiz-adv-x="540" unicode="d" /><glyph d="M250 505 181 169H112L175 505H72L85 574H187L212 706H291L264 574H381L368 505Z" glyph-name="dagger" horiz-adv-x="339" unicode="&#8224;" /><glyph d="M207 281 182 149H103L131 281H28L41 350H145L156 403L175 505H72L85 574H188L212 706H291L264 574H381L368 505H251L230 403L220 350H337L324 281Z" glyph-name="daggerdbl" horiz-adv-x="339" unicode="&#8225;" /><glyph d="M268 710Q296 710 320.5 699.5Q345 689 363.5 670.5Q382 652 393 627Q404 602 404 573Q404 538 390.5 507Q377 476 354 452.5Q331 429 301 415.5Q271 402 238 402Q210 402 185.5 412.5Q161 423 142.5 441.5Q124 460 113 485Q102 510 102 539Q102 574 115.5 605Q129 636 152 659.5Q175 683 205 696.5Q235 710 268 710ZM261 654Q240 654 221.5 645Q203 636 189 620.5Q175 605 167 585.5Q159 566 159 545Q159 506 184 482Q209 458 244 458Q265 458 284 467Q303 476 317 491.5Q331 507 339 526.5Q347 546 347 567Q347 606 322 630Q297 654 261 654Z" glyph-name="degree" horiz-adv-x="387" unicode="&#176;" /><glyph d="M236 604Q217 604 205 616Q193 628 193 647Q193 668 208.5 685Q224 702 247 702Q266 702 278 690Q290 678 290 658Q290 638 274.5 621Q259 604 236 604ZM400 604Q381 604 369 616Q357 628 357 647Q357 668 372.5 685Q388 702 411 702Q430 702 442 690Q454 678 454 658Q454 638 438.5 621Q423 604 400 604Z" glyph-name="dieresis" horiz-adv-x="489" unicode="&#168;" /><glyph d="M247 9 228 -91H160L181 17Q116 32 70 69.5Q24 107 -5 161L68 199Q86 160 117.5 131Q149 102 194 88L239 319L197 337Q143 360 116 399.5Q89 439 89 489Q89 526 102.5 559.5Q116 593 142 617.5Q168 642 206.5 656.5Q245 671 295 671H306L325 767H393L373 661Q433 645 472 609Q511 573 534 532L459 500Q441 530 416.5 554Q392 578 359 591L318 376L362 357Q428 328 457.5 289Q487 250 487 202Q487 166 472.5 131.5Q458 97 429 69.5Q400 42 357.5 25.5Q315 9 260 9ZM165 500Q165 474 183.5 448.5Q202 423 254 399L293 603H290Q257 603 233 594Q209 585 194 570.5Q179 556 172 537.5Q165 519 165 500ZM303 297 261 78H265Q301 78 328 87.5Q355 97 372 112.5Q389 128 397.5 147.5Q406 167 406 187Q406 213 387 241Q368 269 315 292Z" glyph-name="dollar" horiz-adv-x="547" unicode="$" /><glyph d="M318 604Q299 604 287 616Q275 628 275 647Q275 668 290.5 685Q306 702 329 702Q348 702 360 690Q372 678 372 658Q372 638 356.5 621Q341 604 318 604Z" glyph-name="dotaccent" horiz-adv-x="489" unicode="&#729;" /><glyph d="M101 500H178L81 0H4Z" glyph-name="dotlessi" horiz-adv-x="181" unicode="&#305;" /><glyph d="M63 -97Q52 -151 19.5 -178.5Q-13 -206 -60 -206Q-77 -206 -95 -203Q-113 -200 -125 -194L-113 -132Q-99 -137 -87.5 -138.5Q-76 -140 -68 -140Q-45 -140 -32 -128.5Q-19 -117 -13 -89L101 500H177L63 -97Z" glyph-name="dotlessj" horiz-adv-x="181" unicode="&#567;" /><glyph d="M450 112Q414 56 358 25Q302 -6 240 -6Q197 -6 159.5 8.5Q122 23 94.5 51Q67 79 51 119Q35 159 35 209Q35 261 52.5 314Q70 367 103 410Q136 453 183.5 479.5Q231 506 292 506Q332 506 367 493.5Q402 481 428 456Q454 431 468.5 393.5Q483 356 483 307Q483 291 481.5 273.5Q480 256 476 238H112Q111 230 111 223.5Q111 217 111 209Q111 172 122 144.5Q133 117 151 98.5Q169 80 193 71Q217 62 244 62Q285 62 322 82.5Q359 103 385 143ZM287 438Q258 438 233 427.5Q208 417 187.5 399Q167 381 151.5 356Q136 331 126 302H410V305Q410 342 399.5 367.5Q389 393 371.5 408.5Q354 424 332 431Q310 438 287 438Z" glyph-name="e" horiz-adv-x="513" unicode="e" /><glyph d="M35 0ZM450 112Q414 56 358 25Q302 -6 240 -6Q197 -6 159.5 8.5Q122 23 94.5 51Q67 79 51 119Q35 159 35 209Q35 261 52.5 314Q70 367 103 410Q136 453 183.5 479.5Q231 506 292 506Q332 506 367 493.5Q402 481 428 456Q454 431 468.5 393.5Q483 356 483 307Q483 291 481.5 273.5Q480 256 476 238H112Q111 230 111 223.5Q111 217 111 209Q111 172 122 144.5Q133 117 151 98.5Q169 80 193 71Q217 62 244 62Q285 62 322 82.5Q359 103 385 143ZM287 438Q258 438 233 427.5Q208 417 187.5 399Q167 381 151.5 356Q136 331 126 302H410V305Q410 342 399.5 367.5Q389 393 371.5 408.5Q354 424 332 431Q310 438 287 438ZM393 745 441 685 259 583 231 620Z" glyph-name="eacute" horiz-adv-x="513" unicode="&#233;" /><glyph d="M35 0ZM450 112Q414 56 358 25Q302 -6 240 -6Q197 -6 159.5 8.5Q122 23 94.5 51Q67 79 51 119Q35 159 35 209Q35 261 52.5 314Q70 367 103 410Q136 453 183.5 479.5Q231 506 292 506Q332 506 367 493.5Q402 481 428 456Q454 431 468.5 393.5Q483 356 483 307Q483 291 481.5 273.5Q480 256 476 238H112Q111 230 111 223.5Q111 217 111 209Q111 172 122 144.5Q133 117 151 98.5Q169 80 193 71Q217 62 244 62Q285 62 322 82.5Q359 103 385 143ZM287 438Q258 438 233 427.5Q208 417 187.5 399Q167 381 151.5 356Q136 331 126 302H410V305Q410 342 399.5 367.5Q389 393 371.5 408.5Q354 424 332 431Q310 438 287 438ZM321 588 204 706 246 740 332 666 447 740 483 706Z" glyph-name="ecaron" horiz-adv-x="513" unicode="&#283;" /><glyph d="M35 0ZM450 112Q414 56 358 25Q302 -6 240 -6Q197 -6 159.5 8.5Q122 23 94.5 51Q67 79 51 119Q35 159 35 209Q35 261 52.5 314Q70 367 103 410Q136 453 183.5 479.5Q231 506 292 506Q332 506 367 493.5Q402 481 428 456Q454 431 468.5 393.5Q483 356 483 307Q483 291 481.5 273.5Q480 256 476 238H112Q111 230 111 223.5Q111 217 111 209Q111 172 122 144.5Q133 117 151 98.5Q169 80 193 71Q217 62 244 62Q285 62 322 82.5Q359 103 385 143ZM287 438Q258 438 233 427.5Q208 417 187.5 399Q167 381 151.5 356Q136 331 126 302H410V305Q410 342 399.5 367.5Q389 393 371.5 408.5Q354 424 332 431Q310 438 287 438ZM424 587 338 661 223 587 189 621 351 739 468 621Z" glyph-name="ecircumflex" horiz-adv-x="513" unicode="&#234;" /><glyph d="M35 0ZM450 112Q414 56 358 25Q302 -6 240 -6Q197 -6 159.5 8.5Q122 23 94.5 51Q67 79 51 119Q35 159 35 209Q35 261 52.5 314Q70 367 103 410Q136 453 183.5 479.5Q231 506 292 506Q332 506 367 493.5Q402 481 428 456Q454 431 468.5 393.5Q483 356 483 307Q483 291 481.5 273.5Q480 256 476 238H112Q111 230 111 223.5Q111 217 111 209Q111 172 122 144.5Q133 117 151 98.5Q169 80 193 71Q217 62 244 62Q285 62 322 82.5Q359 103 385 143ZM287 438Q258 438 233 427.5Q208 417 187.5 399Q167 381 151.5 356Q136 331 126 302H410V305Q410 342 399.5 367.5Q389 393 371.5 408.5Q354 424 332 431Q310 438 287 438ZM246 604Q227 604 215 616Q203 628 203 647Q203 668 218.5 685Q234 702 257 702Q276 702 288 690Q300 678 300 658Q300 638 284.5 621Q269 604 246 604ZM410 604Q391 604 379 616Q367 628 367 647Q367 668 382.5 685Q398 702 421 702Q440 702 452 690Q464 678 464 658Q464 638 448.5 621Q433 604 410 604Z" glyph-name="edieresis" horiz-adv-x="513" unicode="&#235;" /><glyph d="M35 0ZM450 112Q414 56 358 25Q302 -6 240 -6Q197 -6 159.5 8.5Q122 23 94.5 51Q67 79 51 119Q35 159 35 209Q35 261 52.5 314Q70 367 103 410Q136 453 183.5 479.5Q231 506 292 506Q332 506 367 493.5Q402 481 428 456Q454 431 468.5 393.5Q483 356 483 307Q483 291 481.5 273.5Q480 256 476 238H112Q111 230 111 223.5Q111 217 111 209Q111 172 122 144.5Q133 117 151 98.5Q169 80 193 71Q217 62 244 62Q285 62 322 82.5Q359 103 385 143ZM287 438Q258 438 233 427.5Q208 417 187.5 399Q167 381 151.5 356Q136 331 126 302H410V305Q410 342 399.5 367.5Q389 393 371.5 408.5Q354 424 332 431Q310 438 287 438ZM328 604Q309 604 297 616Q285 628 285 647Q285 668 300.5 685Q316 702 339 702Q358 702 370 690Q382 678 382 658Q382 638 366.5 621Q351 604 328 604Z" glyph-name="edotaccent" horiz-adv-x="513" unicode="&#279;" /><glyph d="M35 0ZM450 112Q414 56 358 25Q302 -6 240 -6Q197 -6 159.5 8.5Q122 23 94.5 51Q67 79 51 119Q35 159 35 209Q35 261 52.5 314Q70 367 103 410Q136 453 183.5 479.5Q231 506 292 506Q332 506 367 493.5Q402 481 428 456Q454 431 468.5 393.5Q483 356 483 307Q483 291 481.5 273.5Q480 256 476 238H112Q111 230 111 223.5Q111 217 111 209Q111 172 122 144.5Q133 117 151 98.5Q169 80 193 71Q217 62 244 62Q285 62 322 82.5Q359 103 385 143ZM287 438Q258 438 233 427.5Q208 417 187.5 399Q167 381 151.5 356Q136 331 126 302H410V305Q410 342 399.5 367.5Q389 393 371.5 408.5Q354 424 332 431Q310 438 287 438ZM357 583 186 685 239 745 389 620Z" glyph-name="egrave" horiz-adv-x="513" unicode="&#232;" /><glyph d="M519 205Q519 169 503.5 131.5Q488 94 456.5 63.5Q425 33 378.5 14Q332 -5 270 -5Q215 -5 171 9Q127 23 96 47.5Q65 72 48 107Q31 142 31 184Q31 257 72 308Q113 359 190 387Q154 412 137.5 444.5Q121 477 121 512Q121 552 136 587Q151 622 179 648.5Q207 675 248 690.5Q289 706 340 706Q388 706 425.5 694Q463 682 489 660.5Q515 639 528.5 609.5Q542 580 542 546Q542 491 507 445.5Q472 400 404 371Q464 341 491.5 298Q519 255 519 205ZM344 397Q407 421 436 458.5Q465 496 465 537Q465 562 454.5 581Q444 600 426 613Q408 626 384.5 632.5Q361 639 335 639Q302 639 276.5 629.5Q251 620 233.5 604Q216 588 206.5 567.5Q197 547 197 525Q197 493 217 468Q237 443 281 424ZM108 193Q108 168 118 145Q128 122 148.5 104Q169 86 199.5 75.5Q230 65 272 65Q313 65 345 76.5Q377 88 398.5 107Q420 126 431.5 150.5Q443 175 443 200Q443 238 419 268Q395 298 343 319L245 359Q174 333 141 290Q108 247 108 193Z" glyph-name="eight" horiz-adv-x="569" unicode="8" /><glyph d="M0 0ZM36 -6Q16 -6 4 6Q-8 18 -8 38Q-8 59 7.5 76.5Q23 94 47 94Q67 94 79 81.5Q91 69 91 49Q91 29 75.5 11.5Q60 -6 36 -6ZM198 -6Q178 -6 166 6Q154 18 154 38Q154 59 169.5 76.5Q185 94 209 94Q229 94 241 81.5Q253 69 253 49Q253 29 237.5 11.5Q222 -6 198 -6ZM360 -6Q340 -6 328 6Q316 18 316 38Q316 59 331.5 76.5Q347 94 371 94Q391 94 403 81.5Q415 69 415 49Q415 29 399.5 11.5Q384 -6 360 -6Z" glyph-name="ellipsis" horiz-adv-x="486" unicode="&#8230;" /><glyph d="M35 0ZM450 112Q414 56 358 25Q302 -6 240 -6Q197 -6 159.5 8.5Q122 23 94.5 51Q67 79 51 119Q35 159 35 209Q35 261 52.5 314Q70 367 103 410Q136 453 183.5 479.5Q231 506 292 506Q332 506 367 493.5Q402 481 428 456Q454 431 468.5 393.5Q483 356 483 307Q483 291 481.5 273.5Q480 256 476 238H112Q111 230 111 223.5Q111 217 111 209Q111 172 122 144.5Q133 117 151 98.5Q169 80 193 71Q217 62 244 62Q285 62 322 82.5Q359 103 385 143ZM287 438Q258 438 233 427.5Q208 417 187.5 399Q167 381 151.5 356Q136 331 126 302H410V305Q410 342 399.5 367.5Q389 393 371.5 408.5Q354 424 332 431Q310 438 287 438ZM220 620 231 680H447L436 620Z" glyph-name="emacron" horiz-adv-x="513" unicode="&#275;" /><glyph d="M693 387 680 318H45L58 387Z" glyph-name="emdash" horiz-adv-x="698" unicode="&#8212;" /><glyph glyph-name="emspace" horiz-adv-x="715" unicode="&#8195;" /><glyph d="M499 387 486 318H45L58 387Z" glyph-name="endash" horiz-adv-x="504" unicode="&#8211;" /><glyph glyph-name="enspace" horiz-adv-x="515" unicode="&#8194;" /><glyph d="M531 390H94L107 459H544ZM498 220H61L74 290H511Z" glyph-name="equal" horiz-adv-x="570" unicode="=" /><glyph d="M206 706 95 195H43L127 706ZM36 -6Q16 -6 4 6Q-8 18 -8 38Q-8 59 7.5 76.5Q23 94 47 94Q67 94 79 81.5Q91 69 91 49Q91 29 75.5 11.5Q60 -6 36 -6Z" glyph-name="exclam" horiz-adv-x="163" unicode="!" /><glyph d="M130 507Q150 507 162 495Q174 483 174 463Q174 442 158.5 424.5Q143 407 119 407Q99 407 87 419.5Q75 432 75 452Q75 472 90.5 489.5Q106 507 130 507ZM-40 -205 71 306H123L39 -205Z" glyph-name="exclamdown" horiz-adv-x="168" unicode="&#161;" /><glyph d="M130 705Q150 705 162 693Q174 681 174 661Q174 640 158.5 622.5Q143 605 119 605Q99 605 87 617.5Q75 630 75 650Q75 670 90.5 687.5Q106 705 130 705ZM-40 -7 71 504H123L39 -7Z" glyph-name="exclamdown.cap" horiz-adv-x="168" /><glyph d="M212 436 127 0H50L135 436H49L61 500H147L162 576Q174 642 210 676Q246 710 311 710Q331 710 352.5 707Q374 704 391 698L380 635Q360 640 341 642Q322 644 312 644Q282 644 264 627Q246 610 238 570L224 500H350L338 436Z" glyph-name="f" horiz-adv-x="318" unicode="f" /><glyph d="M49 0ZM212 436 127 0H50L135 436H49L61 500H147L162 576Q174 642 210 676Q246 710 311 710Q331 710 352.5 707Q374 704 391 698L380 635Q360 640 341 642Q322 644 312 644Q282 644 264 627Q246 610 238 570L224 500H350L338 436ZM481 603Q461 603 449 615Q437 627 437 647Q437 668 452.5 685.5Q468 703 492 703Q512 703 524 690.5Q536 678 536 658Q536 638 520.5 620.5Q505 603 481 603ZM419 500H496L399 0H322Z" glyph-name="fi" horiz-adv-x="499" unicode="&#64257;" /><glyph d="M503 262Q503 215 486 167.5Q469 120 436 81.5Q403 43 353.5 19Q304 -5 240 -5Q198 -5 162 6Q126 17 98 35.5Q70 54 50 79.5Q30 105 20 134L94 163Q115 113 150.5 88Q186 63 245 63Q289 63 322 79.5Q355 96 377 122.5Q399 149 410 182Q421 215 421 247Q421 286 410 313Q399 340 380 356.5Q361 373 336 380.5Q311 388 283 388Q237 388 199 369.5Q161 351 137 317L67 330L163 700H553L539 630H220L158 403Q185 427 223 441Q261 455 311 455Q399 455 451 404Q503 353 503 262Z" glyph-name="five" horiz-adv-x="543" unicode="5" /><glyph d="M49 0ZM212 436 127 0H50L135 436H49L61 500H147L162 576Q174 642 210 676Q246 710 311 710Q331 710 352.5 707Q374 704 391 698L380 635Q360 640 341 642Q322 644 312 644Q282 644 264 627Q246 610 238 570L224 500H350L338 436ZM457 700H534L398 0H321Z" glyph-name="fl" horiz-adv-x="497" unicode="&#64258;" /><glyph d="M431 700H538L449 242H539L524 172H435L402 0H320L353 172H10L22 227ZM367 242 439 614 122 242Z" glyph-name="four" horiz-adv-x="567" unicode="4" /><glyph d="M-29 0 379 700H447L40 0Z" glyph-name="fraction" horiz-adv-x="416" unicode="&#8260;" /><glyph d="M438 -7Q420 -102 356 -153Q292 -204 196 -204Q152 -204 117 -193.5Q82 -183 55.5 -165Q29 -147 12 -122.5Q-5 -98 -12 -71L63 -50Q74 -90 109.5 -113Q145 -136 198 -136Q257 -136 303 -101Q349 -66 363 7L376 72Q344 38 305 19Q266 0 223 0Q182 0 148 15Q114 30 89.5 57.5Q65 85 51 123Q37 161 37 207Q37 261 54 314.5Q71 368 102.5 410.5Q134 453 180 479.5Q226 506 284 506Q338 506 379 479Q420 452 443 405L478 500H536ZM114 217Q114 178 124.5 149.5Q135 121 153 103Q171 85 195 76Q219 67 246 67Q290 67 327.5 89Q365 111 391 153L425 329Q412 386 372.5 412.5Q333 439 287 439Q248 439 216 420.5Q184 402 161.5 371Q139 340 126.5 300Q114 260 114 217Z" glyph-name="g" horiz-adv-x="536" unicode="g" /><glyph d="M444 -43Q444 -73 428.5 -102Q413 -131 380 -154Q347 -177 296.5 -191Q246 -205 177 -205Q116 -205 73.5 -197Q31 -189 4 -174.5Q-23 -160 -35.5 -141.5Q-48 -123 -48 -102Q-48 -65 -20.5 -32Q7 1 67 15Q47 26 35 42.5Q23 59 23 80Q23 112 51 140.5Q79 169 138 179Q100 199 78 233.5Q56 268 56 313Q56 349 70 384Q84 419 111 446Q138 473 177 489.5Q216 506 266 506Q313 506 355.5 490Q398 474 424 440Q436 460 452 474Q468 488 486 496.5Q504 505 523.5 509Q543 513 562 513Q566 513 570 513Q574 513 579 512L564 439Q559 440 553 440Q547 440 542 440Q515 440 489.5 430Q464 420 446 402Q451 390 453.5 376Q456 362 456 346Q456 309 441 274.5Q426 240 398.5 213Q371 186 331.5 170Q292 154 244 154H196Q150 154 125 138.5Q100 123 100 103Q100 85 117 75.5Q134 66 160 63L324 45Q383 38 413.5 16.5Q444 -5 444 -43ZM131 318Q131 271 164.5 243.5Q198 216 249 216Q281 216 305.5 227Q330 238 346.5 256Q363 274 371 297.5Q379 321 379 346Q379 371 369 389.5Q359 408 343 420Q327 432 306 438Q285 444 264 444Q234 444 209.5 433.5Q185 423 167.5 406Q150 389 140.5 366Q131 343 131 318ZM29 -79Q29 -110 72 -125.5Q115 -141 193 -141Q239 -141 271.5 -134Q304 -127 325 -115.5Q346 -104 355.5 -90Q365 -76 365 -62Q365 -44 349 -35Q333 -26 316 -24L134 -5Q83 -10 56 -32.5Q29 -55 29 -79Z" glyph-name="g.school" horiz-adv-x="523" /><glyph d="M0 0ZM438 -7Q420 -102 356 -153Q292 -204 196 -204Q152 -204 117 -193.5Q82 -183 55.5 -165Q29 -147 12 -122.5Q-5 -98 -12 -71L63 -50Q74 -90 109.5 -113Q145 -136 198 -136Q257 -136 303 -101Q349 -66 363 7L376 72Q344 38 305 19Q266 0 223 0Q182 0 148 15Q114 30 89.5 57.5Q65 85 51 123Q37 161 37 207Q37 261 54 314.5Q71 368 102.5 410.5Q134 453 180 479.5Q226 506 284 506Q338 506 379 479Q420 452 443 405L478 500H536ZM114 217Q114 178 124.5 149.5Q135 121 153 103Q171 85 195 76Q219 67 246 67Q290 67 327.5 89Q365 111 391 153L425 329Q412 386 372.5 412.5Q333 439 287 439Q248 439 216 420.5Q184 402 161.5 371Q139 340 126.5 300Q114 260 114 217ZM424 587 338 661 223 587 189 621 351 739 468 621Z" glyph-name="gcircumflex" horiz-adv-x="536" unicode="&#285;" /><glyph d="M0 0ZM438 -7Q420 -102 356 -153Q292 -204 196 -204Q152 -204 117 -193.5Q82 -183 55.5 -165Q29 -147 12 -122.5Q-5 -98 -12 -71L63 -50Q74 -90 109.5 -113Q145 -136 198 -136Q257 -136 303 -101Q349 -66 363 7L376 72Q344 38 305 19Q266 0 223 0Q182 0 148 15Q114 30 89.5 57.5Q65 85 51 123Q37 161 37 207Q37 261 54 314.5Q71 368 102.5 410.5Q134 453 180 479.5Q226 506 284 506Q338 506 379 479Q420 452 443 405L478 500H536ZM114 217Q114 178 124.5 149.5Q135 121 153 103Q171 85 195 76Q219 67 246 67Q290 67 327.5 89Q365 111 391 153L425 329Q412 386 372.5 412.5Q333 439 287 439Q248 439 216 420.5Q184 402 161.5 371Q139 340 126.5 300Q114 260 114 217ZM328 604Q309 604 297 616Q285 628 285 647Q285 668 300.5 685Q316 702 339 702Q358 702 370 690Q382 678 382 658Q382 638 366.5 621Q351 604 328 604Z" glyph-name="gdotaccent" horiz-adv-x="536" unicode="&#289;" /><glyph d="M393 583 222 685 275 745 425 620Z" glyph-name="grave" horiz-adv-x="489" unicode="`" /><glyph d="M24 30 43 129 292 302 110 474 129 570 408 300Z" glyph-name="greater" horiz-adv-x="443" unicode="&gt;" /><glyph d="M48 154 64 239 300 359 111 480 127 563 430 358ZM30 64H373L361 0H18Z" glyph-name="greaterequal" horiz-adv-x="477" unicode="&#8805;" /><glyph d="M18 0ZM108 249 248 0H158L18 250L255 500H347ZM303 249 443 0H353L213 250L450 500H542Z" glyph-name="guillemotleft" horiz-adv-x="530" unicode="&#171;" /><glyph d="M273 0H181L420 251L280 500H370L510 250ZM78 0H-14L225 251L85 500H175L315 250Z" glyph-name="guillemotright" horiz-adv-x="530" unicode="&#187;" /><glyph d="M108 249 248 0H158L18 250L255 500H347Z" glyph-name="guilsinglleft" horiz-adv-x="325" unicode="&#8249;" /><glyph d="M78 0H-14L225 251L85 500H175L315 250Z" glyph-name="guilsinglright" horiz-adv-x="335" unicode="&#8250;" /><glyph d="M81 0H4L140 700H217L163 423Q190 461 233 483.5Q276 506 325 506Q406 506 444.5 455Q483 404 466 313L405 0H328L386 299Q402 379 375.5 411Q349 443 295 443Q247 443 207 414Q167 385 147 339Z" glyph-name="h" horiz-adv-x="504" unicode="h" /><glyph d="M4 0ZM81 0H4L140 700H217L163 423Q190 461 233 483.5Q276 506 325 506Q406 506 444.5 455Q483 404 466 313L405 0H328L386 299Q402 379 375.5 411Q349 443 295 443Q247 443 207 414Q167 385 147 339ZM463 787 377 861 262 787 228 821 390 939 507 821Z" glyph-name="hcircumflex" horiz-adv-x="504" unicode="&#293;" /><glyph d="M354 387 341 318H45L58 387Z" glyph-name="hyphen" horiz-adv-x="358" unicode="-" /><glyph d="M163 603Q143 603 131 615Q119 627 119 647Q119 668 134.5 685.5Q150 703 174 703Q194 703 206 690.5Q218 678 218 658Q218 638 202.5 620.5Q187 603 163 603ZM101 500H178L81 0H4Z" glyph-name="i" horiz-adv-x="181" unicode="i" /><glyph d="M4 0ZM101 500H178L81 0H4ZM227 745 275 685 93 583 65 620Z" glyph-name="iacute" horiz-adv-x="181" unicode="&#237;" /><glyph d="M4 0ZM101 500H178L81 0H4ZM259 587 173 661 58 587 24 621 186 739 303 621Z" glyph-name="icircumflex" horiz-adv-x="181" unicode="&#238;" /><glyph d="M4 0ZM101 500H178L81 0H4ZM81 604Q62 604 50 616Q38 628 38 647Q38 668 53.5 685Q69 702 92 702Q111 702 123 690Q135 678 135 658Q135 638 119.5 621Q104 604 81 604ZM245 604Q226 604 214 616Q202 628 202 647Q202 668 217.5 685Q233 702 256 702Q275 702 287 690Q299 678 299 658Q299 638 283.5 621Q268 604 245 604Z" glyph-name="idieresis" horiz-adv-x="181" unicode="&#239;" /><glyph d="M4 0ZM101 500H178L81 0H4ZM191 583 20 685 73 745 223 620Z" glyph-name="igrave" horiz-adv-x="181" unicode="&#236;" /><glyph d="M4 0ZM101 500H178L81 0H4ZM55 620 66 680H282L271 620Z" glyph-name="imacron" horiz-adv-x="181" unicode="&#299;" /><glyph d="M0 0ZM101 500H178L81 0H4ZM-13 609Q35 702 96 702Q117 702 133.5 694Q150 686 164 677Q178 668 190.5 660Q203 652 217 652Q230 652 242.5 663Q255 674 272 700L318 682Q292 633 265 611Q238 589 208 589Q187 589 171 597Q155 605 141.5 614Q128 623 115.5 631Q103 639 89 639Q76 639 63.5 628Q51 617 34 591Z" glyph-name="itilde" horiz-adv-x="181" unicode="&#297;" /><glyph d="M163 603Q143 603 131 615Q119 627 119 647Q119 668 134.5 685.5Q150 703 174 703Q194 703 206 690.5Q218 678 218 658Q218 638 202.5 620.5Q187 603 163 603ZM63 -97Q52 -151 19.5 -178.5Q-13 -206 -60 -206Q-77 -206 -95 -203Q-113 -200 -125 -194L-113 -132Q-99 -137 -87.5 -138.5Q-76 -140 -68 -140Q-45 -140 -32 -128.5Q-19 -117 -13 -89L101 500H177Z" glyph-name="j" horiz-adv-x="181" unicode="j" /><glyph d="M0 0ZM63 -97Q52 -151 19.5 -178.5Q-13 -206 -60 -206Q-77 -206 -95 -203Q-113 -200 -125 -194L-113 -132Q-99 -137 -87.5 -138.5Q-76 -140 -68 -140Q-45 -140 -32 -128.5Q-19 -117 -13 -89L101 500H177L63 -97ZM258 587 172 661 57 587 23 621 185 739 302 621Z" glyph-name="jcircumflex" horiz-adv-x="181" unicode="&#309;" /><glyph d="M215 230 105 125 81 0H4L140 700H217L125 228L398 500H496L272 282L412 0H325Z" glyph-name="k" horiz-adv-x="467" unicode="k" /><glyph d="M139 700H216L80 0H3Z" glyph-name="l" horiz-adv-x="179" unicode="l" /><glyph d="M3 0ZM139 700H216L80 0H3ZM263 945 311 885 129 783 101 820Z" glyph-name="lacute" horiz-adv-x="179" unicode="&#314;" /><glyph d="M332 30 52 300 437 570 418 471 168 298 350 126Z" glyph-name="less" horiz-adv-x="440" unicode="&lt;" /><glyph d="M393 154 92 359 472 563 456 478 220 358 409 237ZM20 0 32 64H375L363 0Z" glyph-name="lessequal" horiz-adv-x="477" unicode="&#8804;" /><glyph d="M291 443Q246 443 206.5 416Q167 389 146 338L81 0H4L101 500H178L163 422Q192 467 235.5 486.5Q279 506 320 506Q372 506 410 480.5Q448 455 460 407Q489 455 533.5 480.5Q578 506 633 506Q671 506 701.5 492.5Q732 479 751.5 454.5Q771 430 778 396.5Q785 363 777 323L714 0H636L699 312Q706 346 701.5 370.5Q697 395 684 411Q671 427 650.5 434.5Q630 442 606 442Q564 442 524.5 417.5Q485 393 463 346Q463 341 462 335Q461 329 460 324L397 0H320L381 313Q388 350 383 375Q378 400 364.5 415Q351 430 331.5 436.5Q312 443 291 443Z" glyph-name="m" horiz-adv-x="812" unicode="m" /><glyph d="M210 620 221 680H437L426 620Z" glyph-name="macron" horiz-adv-x="489" unicode="&#175;" /><glyph d="M77 305 91 374H528L514 305Z" glyph-name="minus" horiz-adv-x="570" unicode="&#8722;" /><glyph d="M369 150 260 290 98 151 57 203 220 342 112 481 167 527 274 388 440 530 479 479 314 337 423 196Z" glyph-name="multiply" horiz-adv-x="500" unicode="&#215;" /><glyph d="M295 443Q247 443 207 414Q167 385 147 339L81 0H4L101 500H178L163 423Q190 461 233 483.5Q276 506 325 506Q406 506 444.5 455Q483 404 466 313L405 0H328L386 299Q402 379 375.5 411Q349 443 295 443Z" glyph-name="n" horiz-adv-x="503" unicode="n" /><glyph d="M4 0ZM295 443Q247 443 207 414Q167 385 147 339L81 0H4L101 500H178L163 423Q190 461 233 483.5Q276 506 325 506Q406 506 444.5 455Q483 404 466 313L405 0H328L386 299Q402 379 375.5 411Q349 443 295 443ZM374 745 422 685 240 583 212 620Z" glyph-name="nacute" horiz-adv-x="503" unicode="&#324;" /><glyph glyph-name="nbspace" horiz-adv-x="250" unicode="&#160;" /><glyph d="M4 0ZM295 443Q247 443 207 414Q167 385 147 339L81 0H4L101 500H178L163 423Q190 461 233 483.5Q276 506 325 506Q406 506 444.5 455Q483 404 466 313L405 0H328L386 299Q402 379 375.5 411Q349 443 295 443ZM303 588 186 706 228 740 314 666 429 740 465 706Z" glyph-name="ncaron" horiz-adv-x="503" unicode="&#328;" /><glyph d="M569 427Q569 349 547 271Q525 193 484 131.5Q443 70 383.5 31.5Q324 -7 248 -7Q167 -7 118.5 31.5Q70 70 46 133L124 159Q147 113 176.5 88Q206 63 253 63Q297 63 334.5 84.5Q372 106 401 142.5Q430 179 450 229Q470 279 480 336Q445 298 397.5 275.5Q350 253 291 253Q250 253 213 266Q176 279 148.5 304.5Q121 330 104.5 368Q88 406 88 456Q88 500 105.5 544Q123 588 155.5 623.5Q188 659 235 681Q282 703 341 703Q390 703 432 684.5Q474 666 504.5 631Q535 596 552 544.5Q569 493 569 427ZM169 463Q169 427 180.5 400.5Q192 374 211.5 356Q231 338 257.5 329Q284 320 314 320Q369 320 413.5 344Q458 368 488 406Q489 414 489 423Q489 432 489 441Q489 532 446 582.5Q403 633 334 633Q295 633 264 618.5Q233 604 212 580.5Q191 557 180 526.5Q169 496 169 463Z" glyph-name="nine" horiz-adv-x="589" unicode="9" /><glyph d="M4 0ZM295 443Q247 443 207 414Q167 385 147 339L81 0H4L101 500H178L163 423Q190 461 233 483.5Q276 506 325 506Q406 506 444.5 455Q483 404 466 313L405 0H328L386 299Q402 379 375.5 411Q349 443 295 443ZM134 609Q182 702 243 702Q264 702 280.5 694Q297 686 311 677Q325 668 337.5 660Q350 652 364 652Q377 652 389.5 663Q402 674 419 700L465 682Q439 633 412 611Q385 589 355 589Q334 589 318 597Q302 605 288.5 614Q275 623 262.5 631Q250 639 236 639Q223 639 210.5 628Q198 617 181 591Z" glyph-name="ntilde" horiz-adv-x="503" unicode="&#241;" /><glyph d="M377 200H222L141 0H64L145 200H27L40 269H173L238 431H116L129 500H266L347 700H425L344 500H499L580 700H657L576 500H694L681 431H548L483 269H605L592 200H455L374 0H296ZM405 269 471 431H316L250 269Z" glyph-name="numbersign" horiz-adv-x="681" unicode="#" /><glyph d="M290 506Q335 506 373 491.5Q411 477 438.5 449Q466 421 481 381.5Q496 342 496 293Q496 240 479 186.5Q462 133 429 90Q396 47 348.5 20.5Q301 -6 240 -6Q195 -6 157 8.5Q119 23 91.5 51Q64 79 49 118Q34 157 34 207Q34 260 51 313.5Q68 367 101 409.5Q134 452 181.5 479Q229 506 290 506ZM286 438Q248 438 215.5 419.5Q183 401 160 370Q137 339 124 297Q111 255 111 209Q111 171 122 143.5Q133 116 151 98Q169 80 193 71Q217 62 244 62Q282 62 314 80.5Q346 99 369.5 130Q393 161 406 202.5Q419 244 419 291Q419 329 408 356.5Q397 384 379 402Q361 420 337 429Q313 438 286 438Z" glyph-name="o" horiz-adv-x="529" unicode="o" /><glyph d="M34 0ZM290 506Q335 506 373 491.5Q411 477 438.5 449Q466 421 481 381.5Q496 342 496 293Q496 240 479 186.5Q462 133 429 90Q396 47 348.5 20.5Q301 -6 240 -6Q195 -6 157 8.5Q119 23 91.5 51Q64 79 49 118Q34 157 34 207Q34 260 51 313.5Q68 367 101 409.5Q134 452 181.5 479Q229 506 290 506ZM286 438Q248 438 215.5 419.5Q183 401 160 370Q137 339 124 297Q111 255 111 209Q111 171 122 143.5Q133 116 151 98Q169 80 193 71Q217 62 244 62Q282 62 314 80.5Q346 99 369.5 130Q393 161 406 202.5Q419 244 419 291Q419 329 408 356.5Q397 384 379 402Q361 420 337 429Q313 438 286 438ZM402 745 450 685 268 583 240 620Z" glyph-name="oacute" horiz-adv-x="529" unicode="&#243;" /><glyph d="M34 0ZM290 506Q335 506 373 491.5Q411 477 438.5 449Q466 421 481 381.5Q496 342 496 293Q496 240 479 186.5Q462 133 429 90Q396 47 348.5 20.5Q301 -6 240 -6Q195 -6 157 8.5Q119 23 91.5 51Q64 79 49 118Q34 157 34 207Q34 260 51 313.5Q68 367 101 409.5Q134 452 181.5 479Q229 506 290 506ZM286 438Q248 438 215.5 419.5Q183 401 160 370Q137 339 124 297Q111 255 111 209Q111 171 122 143.5Q133 116 151 98Q169 80 193 71Q217 62 244 62Q282 62 314 80.5Q346 99 369.5 130Q393 161 406 202.5Q419 244 419 291Q419 329 408 356.5Q397 384 379 402Q361 420 337 429Q313 438 286 438ZM433 587 347 661 232 587 198 621 360 739 477 621Z" glyph-name="ocircumflex" horiz-adv-x="529" unicode="&#244;" /><glyph d="M34 0ZM290 506Q335 506 373 491.5Q411 477 438.5 449Q466 421 481 381.5Q496 342 496 293Q496 240 479 186.5Q462 133 429 90Q396 47 348.5 20.5Q301 -6 240 -6Q195 -6 157 8.5Q119 23 91.5 51Q64 79 49 118Q34 157 34 207Q34 260 51 313.5Q68 367 101 409.5Q134 452 181.5 479Q229 506 290 506ZM286 438Q248 438 215.5 419.5Q183 401 160 370Q137 339 124 297Q111 255 111 209Q111 171 122 143.5Q133 116 151 98Q169 80 193 71Q217 62 244 62Q282 62 314 80.5Q346 99 369.5 130Q393 161 406 202.5Q419 244 419 291Q419 329 408 356.5Q397 384 379 402Q361 420 337 429Q313 438 286 438ZM255 604Q236 604 224 616Q212 628 212 647Q212 668 227.5 685Q243 702 266 702Q285 702 297 690Q309 678 309 658Q309 638 293.5 621Q278 604 255 604ZM419 604Q400 604 388 616Q376 628 376 647Q376 668 391.5 685Q407 702 430 702Q449 702 461 690Q473 678 473 658Q473 638 457.5 621Q442 604 419 604Z" glyph-name="odieresis" horiz-adv-x="529" unicode="&#246;" /><glyph d="M829 112Q793 56 737 25Q681 -6 619 -6Q559 -6 510.5 24Q462 54 438 110Q406 59 356 26.5Q306 -6 240 -6Q195 -6 157 8.5Q119 23 91.5 51Q64 79 49 118Q34 157 34 207Q34 260 51 313.5Q68 367 101 409.5Q134 452 181.5 479Q229 506 290 506Q354 506 401.5 476Q449 446 472 391Q504 442 554.5 474Q605 506 671 506Q711 506 746 493.5Q781 481 807 456Q833 431 847.5 393.5Q862 356 862 307Q862 291 860.5 273.5Q859 256 855 238H491Q490 230 490 223.5Q490 217 490 209Q490 172 501 144.5Q512 117 530 98.5Q548 80 572 71Q596 62 623 62Q664 62 701 82.5Q738 103 764 143ZM666 438Q610 438 568 400Q526 362 506 305H789Q789 342 778.5 367.5Q768 393 750.5 408.5Q733 424 711 431Q689 438 666 438ZM286 438Q248 438 215.5 419.5Q183 401 160 370Q137 339 124 297Q111 255 111 209Q111 171 122 143.5Q133 116 151 98Q169 80 193 71Q217 62 244 62Q282 62 314 80.5Q346 99 369.5 130Q393 161 406 202.5Q419 244 419 291Q419 329 408 356.5Q397 384 379 402Q361 420 337 429Q313 438 286 438Z" glyph-name="oe" horiz-adv-x="891" unicode="&#339;" /><glyph d="M34 0ZM290 506Q335 506 373 491.5Q411 477 438.5 449Q466 421 481 381.5Q496 342 496 293Q496 240 479 186.5Q462 133 429 90Q396 47 348.5 20.5Q301 -6 240 -6Q195 -6 157 8.5Q119 23 91.5 51Q64 79 49 118Q34 157 34 207Q34 260 51 313.5Q68 367 101 409.5Q134 452 181.5 479Q229 506 290 506ZM286 438Q248 438 215.5 419.5Q183 401 160 370Q137 339 124 297Q111 255 111 209Q111 171 122 143.5Q133 116 151 98Q169 80 193 71Q217 62 244 62Q282 62 314 80.5Q346 99 369.5 130Q393 161 406 202.5Q419 244 419 291Q419 329 408 356.5Q397 384 379 402Q361 420 337 429Q313 438 286 438ZM366 583 195 685 248 745 398 620Z" glyph-name="ograve" horiz-adv-x="529" unicode="&#242;" /><glyph d="M34 0ZM290 506Q335 506 373 491.5Q411 477 438.5 449Q466 421 481 381.5Q496 342 496 293Q496 240 479 186.5Q462 133 429 90Q396 47 348.5 20.5Q301 -6 240 -6Q195 -6 157 8.5Q119 23 91.5 51Q64 79 49 118Q34 157 34 207Q34 260 51 313.5Q68 367 101 409.5Q134 452 181.5 479Q229 506 290 506ZM286 438Q248 438 215.5 419.5Q183 401 160 370Q137 339 124 297Q111 255 111 209Q111 171 122 143.5Q133 116 151 98Q169 80 193 71Q217 62 244 62Q282 62 314 80.5Q346 99 369.5 130Q393 161 406 202.5Q419 244 419 291Q419 329 408 356.5Q397 384 379 402Q361 420 337 429Q313 438 286 438ZM229 620 240 680H456L445 620Z" glyph-name="omacron" horiz-adv-x="529" unicode="&#333;" /><glyph d="M321 0H-22L-8 70H122L226 609Q195 594 163.5 585.5Q132 577 100 573L114 643Q158 650 198 663.5Q238 677 273 700H327L205 70H335Z" glyph-name="one" horiz-adv-x="399" unicode="1" /><glyph d="M47 0ZM83 0 491 700H559L152 0ZM587 0H356L366 51L513 172Q543 197 555 216.5Q567 236 567 250Q567 276 551 287.5Q535 299 516 299Q499 299 482.5 292Q466 285 449 265L406 292Q426 317 453.5 332.5Q481 348 519 348Q570 348 598 323.5Q626 299 626 259Q626 242 620.5 227Q615 212 604 197.5Q593 183 577 167.5Q561 152 539 133L442 50H597ZM237 355H47L57 405H122L167 635Q151 630 135 628Q119 626 102 624L112 673Q135 675 158 681.5Q181 688 202 700H240L183 405H247Z" glyph-name="onehalf" horiz-adv-x="665" unicode="&#189;" /><glyph d="M47 0ZM88 0 496 700H564L157 0ZM520 345H597L556 132H599L589 82H546L530 0H470L486 82H319L327 123ZM496 132 525 284 396 132ZM237 355H47L57 405H122L167 635Q151 630 135 628Q119 626 102 624L112 673Q135 675 158 681.5Q181 688 202 700H240L183 405H247Z" glyph-name="onequarter" horiz-adv-x="649" unicode="&#188;" /><glyph d="M47 355ZM237 355H47L57 405H122L167 635Q151 630 135 628Q119 626 102 624L112 673Q135 675 158 681.5Q181 688 202 700H240L183 405H247Z" glyph-name="onesuperior" horiz-adv-x="244" unicode="&#185;" /><glyph d="M496 293Q496 240 479 186.5Q462 133 429 90Q396 47 348.5 20.5Q301 -6 240 -6Q163 -6 111 34L76 -5H-5L70 78Q34 131 34 207Q34 260 51 313.5Q68 367 101 409.5Q134 452 181.5 479Q229 506 290 506Q366 506 418 466L453 505H534L460 423Q477 397 486.5 364.5Q496 332 496 293ZM111 209Q111 188 114.5 170.5Q118 153 124 138L369 411Q334 438 286 438Q248 438 215.5 419.5Q183 401 160 370Q137 339 124 297Q111 255 111 209ZM419 291Q419 331 406 362L161 89Q195 62 244 62Q282 62 314 80.5Q346 99 369.5 130Q393 161 406 202.5Q419 244 419 291Z" glyph-name="oslash" horiz-adv-x="529" unicode="&#248;" /><glyph d="M34 0ZM290 506Q335 506 373 491.5Q411 477 438.5 449Q466 421 481 381.5Q496 342 496 293Q496 240 479 186.5Q462 133 429 90Q396 47 348.5 20.5Q301 -6 240 -6Q195 -6 157 8.5Q119 23 91.5 51Q64 79 49 118Q34 157 34 207Q34 260 51 313.5Q68 367 101 409.5Q134 452 181.5 479Q229 506 290 506ZM286 438Q248 438 215.5 419.5Q183 401 160 370Q137 339 124 297Q111 255 111 209Q111 171 122 143.5Q133 116 151 98Q169 80 193 71Q217 62 244 62Q282 62 314 80.5Q346 99 369.5 130Q393 161 406 202.5Q419 244 419 291Q419 329 408 356.5Q397 384 379 402Q361 420 337 429Q313 438 286 438ZM162 609Q210 702 271 702Q292 702 308.5 694Q325 686 339 677Q353 668 365.5 660Q378 652 392 652Q405 652 417.5 663Q430 674 447 700L493 682Q467 633 440 611Q413 589 383 589Q362 589 346 597Q330 605 316.5 614Q303 623 290.5 631Q278 639 264 639Q251 639 238.5 628Q226 617 209 591Z" glyph-name="otilde" horiz-adv-x="529" unicode="&#245;" /><glyph d="M259 -6Q205 -6 164 20.5Q123 47 100 93L43 -200H-34L102 500H178L165 430Q197 466 236 486Q275 506 320 506Q361 506 395.5 490.5Q430 475 455 447.5Q480 420 494 381Q508 342 508 296Q508 241 491 187Q474 133 442 90Q410 47 363.5 20.5Q317 -6 259 -6ZM297 439Q252 439 214 417Q176 395 150 351L116 175Q122 146 136 124.5Q150 103 169 89Q188 75 210.5 68Q233 61 256 61Q295 61 327.5 80Q360 99 383 130Q406 161 418.5 201.5Q431 242 431 286Q431 326 420.5 354.5Q410 383 391.5 402Q373 421 348.5 430Q324 439 297 439Z" glyph-name="p" horiz-adv-x="537" unicode="p" /><glyph d="M570 700H648L512 0H434ZM77 468Q77 515 92.5 557.5Q108 600 137 631.5Q166 663 208.5 681.5Q251 700 304 700H504L368 0H291L346 281H272Q231 281 195 294Q159 307 133 331Q107 355 92 389.5Q77 424 77 468Z" glyph-name="paragraph" horiz-adv-x="620" unicode="&#182;" /><glyph d="M116 254Q104 191 104 128Q104 34 128.5 -47Q153 -128 197 -179L147 -222Q122 -193 100 -156Q78 -119 61 -75Q44 -31 34 20.5Q24 72 24 130Q24 161 27 194Q30 227 37 262Q53 344 83.5 413Q114 482 153 537Q192 592 236.5 634Q281 676 326 706L357 651Q312 621 272.5 576.5Q233 532 202 479Q171 426 149 368Q127 310 116 254Z" glyph-name="parenleft" horiz-adv-x="299" unicode="(" /><glyph d="M199 246Q211 309 211 372Q211 466 186.5 547Q162 628 118 679L168 722Q193 693 215 656Q237 619 254 575Q271 531 281 479.5Q291 428 291 370Q291 339 288 306Q285 273 278 238Q262 155 231.5 86.5Q201 18 162 -37Q123 -92 78.5 -134Q34 -176 -11 -206L-42 -151Q3 -121 42.5 -76.5Q82 -32 113 21Q144 74 166 132Q188 190 199 246Z" glyph-name="parenright" horiz-adv-x="298" unicode=")" /><glyph d="M88 0ZM164 0 572 700H640L233 0ZM445 136Q445 176 456.5 214.5Q468 253 488.5 282.5Q509 312 538 330Q567 348 602 348Q657 348 687 309.5Q717 271 717 209Q717 168 706 130Q695 92 674 62.5Q653 33 624 15Q595 -3 559 -3Q505 -3 475 35Q445 73 445 136ZM503 131Q503 87 519.5 67.5Q536 48 562 48Q585 48 603 63Q621 78 633.5 102Q646 126 652.5 155.5Q659 185 659 214Q659 257 642 277Q625 297 599 297Q576 297 558 281.5Q540 266 528 242Q516 218 509.5 188.5Q503 159 503 131ZM88 491Q88 531 99.5 569.5Q111 608 131.5 637.5Q152 667 181 685Q210 703 245 703Q300 703 330 664.5Q360 626 360 564Q360 523 349 485Q338 447 317 417.5Q296 388 267 370Q238 352 202 352Q148 352 118 390Q88 428 88 491ZM146 486Q146 442 162.5 422.5Q179 403 205 403Q228 403 246 418Q264 433 276.5 457Q289 481 295.5 510.5Q302 540 302 569Q302 612 285 632Q268 652 242 652Q219 652 201 636.5Q183 621 171 597Q159 573 152.5 543.5Q146 514 146 486Z" glyph-name="percent" horiz-adv-x="766" unicode="%" /><glyph d="M36 -6Q16 -6 4 6Q-8 18 -8 38Q-8 59 7.5 76.5Q23 94 47 94Q67 94 79 81.5Q91 69 91 49Q91 29 75.5 11.5Q60 -6 36 -6Z" glyph-name="period" horiz-adv-x="162" unicode="." /><glyph d="M43 305ZM87 305Q67 305 55 317Q43 329 43 349Q43 370 58.5 387.5Q74 405 98 405Q118 405 130 392.5Q142 380 142 360Q142 340 126.5 322.5Q111 305 87 305Z" glyph-name="periodcentered" horiz-adv-x="143" unicode="&#183;" /><glyph d="M333 305 296 112H221L258 305H77L91 374H272L310 571H385L347 374H528L514 305Z" glyph-name="plus" horiz-adv-x="570" unicode="+" /><glyph d="M401 -200H324L377 70Q345 34 305.5 14Q266 -6 222 -6Q181 -6 146.5 9.5Q112 25 87 52.5Q62 80 48 118.5Q34 157 34 204Q34 259 51 313Q68 367 100 410Q132 453 178 479.5Q224 506 283 506Q337 506 379 481Q421 456 445 411L479 500H537ZM111 214Q111 174 121.5 145Q132 116 150.5 97.5Q169 79 193.5 70Q218 61 245 61Q290 61 328 83Q366 105 392 149L426 324Q420 353 406.5 374.5Q393 396 374 410.5Q355 425 332 432Q309 439 286 439Q247 439 214.5 420Q182 401 159 370Q136 339 123.5 298Q111 257 111 214Z" glyph-name="q" horiz-adv-x="537" unicode="q" /><glyph d="M500 523Q500 482 486 445.5Q472 409 444 380.5Q416 352 375.5 334.5Q335 317 283 314L252 195H199L226 370H260Q302 370 334.5 382.5Q367 395 388.5 415.5Q410 436 421 462.5Q432 489 432 517Q432 573 395 608.5Q358 644 294 644Q234 644 193.5 610Q153 576 135 510L73 525Q82 563 101.5 596Q121 629 149.5 653.5Q178 678 216 692Q254 706 300 706Q394 706 447 656.5Q500 607 500 523ZM192 -6Q172 -6 160 6Q148 18 148 38Q148 59 163.5 76.5Q179 94 203 94Q223 94 235 81.5Q247 69 247 49Q247 29 231.5 11.5Q216 -6 192 -6Z" glyph-name="question" horiz-adv-x="479" unicode="?" /><glyph d="M298 508Q318 508 330 496Q342 484 342 464Q342 443 326.5 425.5Q311 408 287 408Q267 408 255 420.5Q243 433 243 453Q243 473 258.5 490.5Q274 508 298 508ZM417 -23Q408 -61 388.5 -94Q369 -127 340.5 -151.5Q312 -176 274 -190Q236 -204 190 -204Q96 -204 43 -154.5Q-10 -105 -10 -21Q-10 19 4 56Q18 93 46 121.5Q74 150 114 167.5Q154 185 207 188L238 307H291L264 132H230Q188 132 155.5 119.5Q123 107 101.5 86.5Q80 66 69 39.5Q58 13 58 -15Q58 -71 95 -106.5Q132 -142 196 -142Q256 -142 296.5 -108Q337 -74 355 -8Z" glyph-name="questiondown" horiz-adv-x="494" unicode="&#191;" /><glyph d="M298 705Q318 705 330 693Q342 681 342 661Q342 640 326.5 622.5Q311 605 287 605Q267 605 255 617.5Q243 630 243 650Q243 670 258.5 687.5Q274 705 298 705ZM417 174Q408 136 388.5 103Q369 70 340.5 45.5Q312 21 274 7Q236 -7 190 -7Q96 -7 43 42.5Q-10 92 -10 176Q-10 216 4 253Q18 290 46 318.5Q74 347 114 364.5Q154 382 207 385L238 504H291L264 329H230Q188 329 155.5 316.5Q123 304 101.5 283.5Q80 263 69 236.5Q58 210 58 182Q58 126 95 90.5Q132 55 196 55Q256 55 296.5 89Q337 123 355 189Z" glyph-name="questiondown.cap" horiz-adv-x="494" /><glyph d="M119 469 155 706H234L178 469ZM258 469 295 706H373L318 469Z" glyph-name="quotedbl" horiz-adv-x="348" unicode="&quot;" /><glyph d="M335 541Q335 521 321 504Q307 487 281 487Q264 487 250 499Q236 511 236 537Q236 559 244.5 585.5Q253 612 271 636Q289 660 316.5 679Q344 698 382 706L394 675Q307 647 288 586H291Q311 586 323 573.5Q335 561 335 541ZM173 541Q173 521 159 504Q145 487 119 487Q102 487 88 499Q74 511 74 537Q74 559 82.5 585.5Q91 612 109 636Q127 660 154.5 679Q182 698 220 706L232 675Q145 647 126 586H129Q149 586 161 573.5Q173 561 173 541Z" glyph-name="quotedblleft" horiz-adv-x="336" unicode="&#8220;" /><glyph d="M63 490ZM221 659Q221 636 212 610Q203 584 185 560Q167 536 139.5 517Q112 498 75 490L63 521Q150 549 169 610H166Q146 610 134 622.5Q122 635 122 655Q122 675 136 692Q150 709 176 709Q193 709 207 697Q221 685 221 659ZM383 659Q383 636 374 610Q365 584 347 560Q329 536 301.5 517Q274 498 237 490L225 521Q312 549 331 610H328Q308 610 296 622.5Q284 635 284 655Q284 675 298 692Q312 709 338 709Q355 709 369 697Q383 685 383 659Z" glyph-name="quotedblright" horiz-adv-x="336" unicode="&#8221;" /><glyph d="M173 541Q173 521 159 504Q145 487 119 487Q102 487 88 499Q74 511 74 537Q74 559 82.5 585.5Q91 612 109 636Q127 660 154.5 679Q182 698 220 706L232 675Q145 647 126 586H129Q149 586 161 573.5Q173 561 173 541Z" glyph-name="quoteleft" horiz-adv-x="174" unicode="&#8216;" /><glyph d="M63 490ZM221 659Q221 636 212 610Q203 584 185 560Q167 536 139.5 517Q112 498 75 490L63 521Q150 549 169 610H166Q146 610 134 622.5Q122 635 122 655Q122 675 136 692Q150 709 176 709Q193 709 207 697Q221 685 221 659Z" glyph-name="quoteright" horiz-adv-x="174" unicode="&#8217;" /><glyph d="M119 469 155 706H234L178 469Z" glyph-name="quotesingle" horiz-adv-x="208" unicode="'" /><glyph d="M332 432Q269 435 220 406.5Q171 378 144 331L80 0H3L100 500H177L159 408Q177 436 200 456Q223 476 248 489Q273 502 299 508Q325 514 348 514L332 432Z" glyph-name="r" horiz-adv-x="317" unicode="r" /><glyph d="M3 0ZM332 432Q269 435 220 406.5Q171 378 144 331L80 0H3L100 500H177L159 408Q177 436 200 456Q223 476 248 489Q273 502 299 508Q325 514 348 514L332 432ZM333 745 381 685 199 583 171 620Z" glyph-name="racute" horiz-adv-x="317" unicode="&#341;" /><glyph d="M3 0ZM332 432Q269 435 220 406.5Q171 378 144 331L80 0H3L100 500H177L159 408Q177 436 200 456Q223 476 248 489Q273 502 299 508Q325 514 348 514L332 432ZM262 588 145 706 187 740 273 666 388 740 424 706Z" glyph-name="rcaron" horiz-adv-x="317" unicode="&#345;" /><glyph d="M268 706Q297 706 324.5 696Q352 686 373.5 666.5Q395 647 408 618.5Q421 590 421 553Q421 513 407 477Q393 441 368.5 414Q344 387 309.5 371Q275 355 234 355Q206 355 178.5 365Q151 375 129.5 394.5Q108 414 95 442.5Q82 471 82 508Q82 548 96 584Q110 620 135 647Q160 674 194 690Q228 706 268 706ZM266 676Q235 676 207.5 663.5Q180 651 159 628.5Q138 606 126 576Q114 546 114 511Q114 453 149.5 419Q185 385 237 385Q268 385 295.5 397.5Q323 410 344 432.5Q365 455 377 485Q389 515 389 550Q389 608 354 642Q319 676 266 676ZM206 615H274Q293 615 305 603.5Q317 592 317 571Q317 550 305 535.5Q293 521 273 516L301 447H266L241 515H217L204 447H173ZM232 590 222 540H258Q272 540 279.5 549Q287 558 287 569Q287 590 264 590Z" glyph-name="registered" horiz-adv-x="393" unicode="&#174;" /><glyph d="M58 155Q78 107 116.5 81.5Q155 56 209 56Q258 56 282.5 79Q307 102 307 131Q307 157 287.5 173.5Q268 190 238 202L144 239Q96 258 75.5 289Q55 320 55 355Q55 383 66.5 410.5Q78 438 100 459Q122 480 154.5 493Q187 506 230 506Q299 506 346 473.5Q393 441 419 381L351 360Q329 401 296 422Q263 443 222 443Q174 443 153 420.5Q132 398 132 371Q132 350 147 331.5Q162 313 207 295L287 263Q338 243 362 211.5Q386 180 386 140Q386 110 373.5 83Q361 56 337 36.5Q313 17 279 5.5Q245 -6 202 -6Q121 -6 70.5 29Q20 64 -12 128Z" glyph-name="s" horiz-adv-x="435" unicode="s" /><glyph d="M0 0ZM58 155Q78 107 116.5 81.5Q155 56 209 56Q258 56 282.5 79Q307 102 307 131Q307 157 287.5 173.5Q268 190 238 202L144 239Q96 258 75.5 289Q55 320 55 355Q55 383 66.5 410.5Q78 438 100 459Q122 480 154.5 493Q187 506 230 506Q299 506 346 473.5Q393 441 419 381L351 360Q329 401 296 422Q263 443 222 443Q174 443 153 420.5Q132 398 132 371Q132 350 147 331.5Q162 313 207 295L287 263Q338 243 362 211.5Q386 180 386 140Q386 110 373.5 83Q361 56 337 36.5Q313 17 279 5.5Q245 -6 202 -6Q121 -6 70.5 29Q20 64 -12 128ZM339 745 387 685 205 583 177 620Z" glyph-name="sacute" horiz-adv-x="437" unicode="&#347;" /><glyph d="M0 0ZM58 155Q78 107 116.5 81.5Q155 56 209 56Q258 56 282.5 79Q307 102 307 131Q307 157 287.5 173.5Q268 190 238 202L144 239Q96 258 75.5 289Q55 320 55 355Q55 383 66.5 410.5Q78 438 100 459Q122 480 154.5 493Q187 506 230 506Q299 506 346 473.5Q393 441 419 381L351 360Q329 401 296 422Q263 443 222 443Q174 443 153 420.5Q132 398 132 371Q132 350 147 331.5Q162 313 207 295L287 263Q338 243 362 211.5Q386 180 386 140Q386 110 373.5 83Q361 56 337 36.5Q313 17 279 5.5Q245 -6 202 -6Q121 -6 70.5 29Q20 64 -12 128ZM268 588 151 706 193 740 279 666 394 740 430 706Z" glyph-name="scaron" horiz-adv-x="437" unicode="&#353;" /><glyph d="M248 -109Q248 -127 240.5 -143.5Q233 -160 218.5 -173.5Q204 -187 183.5 -195Q163 -203 136 -203Q93 -203 68.5 -185Q44 -167 37 -138L84 -121Q97 -156 137 -156Q166 -156 178 -141.5Q190 -127 190 -112Q190 -99 180.5 -89Q171 -79 148 -79H110L149 -1Q92 10 53 42.5Q14 75 -12 128L58 155Q78 107 116.5 81.5Q155 56 209 56Q258 56 282.5 79Q307 102 307 131Q307 157 287.5 173.5Q268 190 238 202L144 239Q96 258 75.5 289Q55 320 55 355Q55 383 66.5 410.5Q78 438 100 459Q122 480 154.5 493Q187 506 230 506Q299 506 346 473.5Q393 441 419 381L351 360Q329 401 296 422Q263 443 222 443Q174 443 153 420.5Q132 398 132 371Q132 350 147 331.5Q162 313 207 295L287 263Q338 243 362 211.5Q386 180 386 140Q386 110 373.5 83Q361 56 337 36.5Q313 17 279 5.5Q245 -6 202 -6H198L178 -41Q216 -44 232 -64.5Q248 -85 248 -109Z" glyph-name="scedilla" horiz-adv-x="437" unicode="&#351;" /><glyph d="M0 0ZM58 155Q78 107 116.5 81.5Q155 56 209 56Q258 56 282.5 79Q307 102 307 131Q307 157 287.5 173.5Q268 190 238 202L144 239Q96 258 75.5 289Q55 320 55 355Q55 383 66.5 410.5Q78 438 100 459Q122 480 154.5 493Q187 506 230 506Q299 506 346 473.5Q393 441 419 381L351 360Q329 401 296 422Q263 443 222 443Q174 443 153 420.5Q132 398 132 371Q132 350 147 331.5Q162 313 207 295L287 263Q338 243 362 211.5Q386 180 386 140Q386 110 373.5 83Q361 56 337 36.5Q313 17 279 5.5Q245 -6 202 -6Q121 -6 70.5 29Q20 64 -12 128ZM371 587 285 661 170 587 136 621 298 739 415 621Z" glyph-name="scircumflex" horiz-adv-x="437" unicode="&#349;" /><glyph d="M392 114Q392 84 380 56.5Q368 29 345 7Q322 -15 289 -28Q256 -41 214 -41Q139 -41 90 -6Q41 29 16 85L88 107Q111 65 143 43.5Q175 22 217 22Q244 22 262.5 29Q281 36 292.5 47Q304 58 309.5 70Q315 82 315 93Q315 116 298.5 134.5Q282 153 236 172L141 209Q32 253 32 336Q32 381 62 418.5Q92 456 152 470Q134 487 126 507.5Q118 528 118 550Q118 580 130 607.5Q142 635 165 657Q188 679 221 692Q254 705 296 705Q371 705 420 670Q469 635 494 579L422 557Q399 599 367 620.5Q335 642 293 642Q266 642 247.5 635Q229 628 217.5 617Q206 606 200.5 593.5Q195 581 195 571Q195 548 211.5 529.5Q228 511 274 492L369 455Q478 411 478 328Q478 283 448 245.5Q418 208 358 194Q376 177 384 156.5Q392 136 392 114ZM301 230Q328 231 346.5 239Q365 247 376.5 258Q388 269 393.5 283Q399 297 399 310Q399 338 375.5 357.5Q352 377 317 391L209 434Q182 433 163.5 425Q145 417 133.5 406Q122 395 116.5 381Q111 367 111 354Q111 326 134.5 306.5Q158 287 193 273Z" glyph-name="section" horiz-adv-x="477" unicode="&#167;" /><glyph d="M0 0ZM97 43Q97 20 88 -6Q79 -32 61 -56Q43 -80 15.5 -99Q-12 -118 -49 -126L-61 -95Q26 -67 45 -6H42Q22 -6 10 6.5Q-2 19 -2 39Q-2 59 12 76Q26 93 52 93Q69 93 83 81Q97 69 97 43ZM113 354Q93 354 81 366Q69 378 69 398Q69 419 84.5 436.5Q100 454 124 454Q144 454 156 441.5Q168 429 168 409Q168 389 152.5 371.5Q137 354 113 354Z" glyph-name="semicolon" horiz-adv-x="171" unicode=";" /><glyph d="M560 649Q260 391 167 0H77Q100 89 137 177.5Q174 266 222.5 348Q271 430 330 502Q389 574 458 630H94L108 700H571L560 649Z" glyph-name="seven" horiz-adv-x="501" unicode="7" /><glyph d="M539 241Q539 197 521.5 153Q504 109 471.5 73.5Q439 38 392 16Q345 -6 286 -6Q237 -6 195 12.5Q153 31 122.5 66Q92 101 75 152.5Q58 204 58 270Q58 348 79.5 426Q101 504 142.5 565.5Q184 627 243.5 665.5Q303 704 379 704Q460 704 508.5 665.5Q557 627 581 564L503 538Q480 584 450.5 609Q421 634 374 634Q330 634 292.5 612.5Q255 591 226 554.5Q197 518 177 468Q157 418 147 361Q182 399 229.5 421.5Q277 444 336 444Q377 444 414 431Q451 418 478.5 392.5Q506 367 522.5 329Q539 291 539 241ZM138 256Q138 165 181 114.5Q224 64 293 64Q332 64 363 78.5Q394 93 415 116.5Q436 140 447 170.5Q458 201 458 234Q458 270 446.5 296.5Q435 323 415.5 341Q396 359 369.5 368Q343 377 313 377Q258 377 213.5 353Q169 329 139 291Q138 283 138 274Q138 265 138 256Z" glyph-name="six" horiz-adv-x="588" unicode="6" /><glyph d="M379 700H459L-54 -200H-134Z" glyph-name="slash" horiz-adv-x="373" unicode="/" /><glyph glyph-name="space" horiz-adv-x="250" unicode=" " /><glyph d="M256 4Q240 -1 224 -3Q208 -5 188 -5Q116 -5 89.5 25.5Q63 56 74 115L136 437H50L62 500H147L172 606H246L225 500H354L342 437H213L152 121Q145 86 164 73.5Q183 61 224 61Q243 61 267 64L256 4Z" glyph-name="t" horiz-adv-x="319" unicode="t" /><glyph d="M259 -109Q259 -127 251.5 -143.5Q244 -160 229.5 -173.5Q215 -187 194.5 -195Q174 -203 147 -203Q104 -203 79.5 -185Q55 -167 48 -138L95 -121Q108 -156 148 -156Q177 -156 189 -141.5Q201 -127 201 -112Q201 -99 191.5 -89Q182 -79 159 -79H121L159 -3Q103 3 83.5 33Q64 63 74 115L136 437H50L62 500H147L172 606H246L225 500H354L342 437H213L152 121Q145 86 164 73.5Q183 61 224 61Q243 61 267 64L256 4Q245 1 234 -1Q223 -3 210 -4L189 -41Q227 -44 243 -64.5Q259 -85 259 -109Z" glyph-name="tcommaaccent" horiz-adv-x="319" unicode="&#539;" /><glyph d="M477 213Q477 178 463 139.5Q449 101 420 68.5Q391 36 345 15Q299 -6 236 -6Q144 -6 86 32.5Q28 71 2 135L75 163Q95 119 133 92Q171 65 239 65Q279 65 308 77Q337 89 356.5 109Q376 129 385.5 154.5Q395 180 395 207Q395 262 364.5 292Q334 322 287 322H191L206 393H270Q310 393 339 404Q368 415 387 434Q406 453 415.5 478Q425 503 425 530Q425 584 390 610Q355 636 307 636Q262 636 227 619.5Q192 603 157 565L95 605Q143 655 195.5 680.5Q248 706 313 706Q362 706 398.5 693.5Q435 681 459.5 659.5Q484 638 496 608Q508 578 508 543Q508 514 497.5 485.5Q487 457 469 433Q451 409 426 390.5Q401 372 372 364Q420 349 448.5 309.5Q477 270 477 213Z" glyph-name="three" horiz-adv-x="526" unicode="3" /><glyph d="M66 0ZM133 0 541 700H609L202 0ZM565 345H642L601 132H644L634 82H591L575 0H515L531 82H364L372 123ZM541 132 570 284 441 132ZM314 458Q314 441 306.5 422.5Q299 404 283 388.5Q267 373 242.5 362.5Q218 352 185 352Q136 352 107 374.5Q78 397 66 427L120 446Q128 422 145 412.5Q162 403 188 403Q223 403 239.5 421.5Q256 440 256 460Q256 480 244 493Q232 506 209 506H166L176 553H209Q240 553 256.5 568.5Q273 584 273 609Q273 633 258.5 643.5Q244 654 223 654Q202 654 186 645.5Q170 637 157 622L113 651Q134 675 161 689Q188 703 225 703Q276 703 304 679Q332 655 332 619Q332 589 314.5 563.5Q297 538 266 528Q289 518 301.5 499.5Q314 481 314 458Z" glyph-name="threequarters" horiz-adv-x="694" unicode="&#190;" /><glyph d="M66 352ZM314 458Q314 441 306.5 422.5Q299 404 283 388.5Q267 373 242.5 362.5Q218 352 185 352Q136 352 107 374.5Q78 397 66 427L120 446Q128 422 145 412.5Q162 403 188 403Q223 403 239.5 421.5Q256 440 256 460Q256 480 244 493Q232 506 209 506H166L176 553H209Q240 553 256.5 568.5Q273 584 273 609Q273 633 258.5 643.5Q244 654 223 654Q202 654 186 645.5Q170 637 157 622L113 651Q134 675 161 689Q188 703 225 703Q276 703 304 679Q332 655 332 619Q332 589 314.5 563.5Q297 538 266 528Q289 518 301.5 499.5Q314 481 314 458Z" glyph-name="threesuperior" horiz-adv-x="306" unicode="&#179;" /><glyph d="M157 609Q205 702 266 702Q287 702 303.5 694Q320 686 334 677Q348 668 360.5 660Q373 652 387 652Q400 652 412.5 663Q425 674 442 700L488 682Q462 633 435 611Q408 589 378 589Q357 589 341 597Q325 605 311.5 614Q298 623 285.5 631Q273 639 259 639Q246 639 233.5 628Q221 617 204 591Z" glyph-name="tilde" horiz-adv-x="490" unicode="&#732;" /><glyph d="M449 485 568 700H630L575 419H533L577 644L452 419H418L384 643L340 419H302L357 700H416ZM108 700H329L322 663H233L185 419H142L190 663H101Z" glyph-name="trademark" horiz-adv-x="578" unicode="&#8482;" /><glyph d="M424 0H-19L-4 72L287 322Q327 356 352 384Q377 412 391 436Q405 460 410 480.5Q415 501 415 521Q415 552 404.5 574.5Q394 597 377 610.5Q360 624 338 630.5Q316 637 294 637Q251 637 217 620.5Q183 604 148 566L87 606Q125 651 177.5 678.5Q230 706 301 706Q392 706 444.5 659.5Q497 613 497 528Q497 497 489 468Q481 439 462 408Q443 377 411 343Q379 309 332 269L100 70H438Z" glyph-name="two" horiz-adv-x="494" unicode="2" /><glyph d="M55 355ZM286 355H55L65 406L212 527Q242 552 254 571.5Q266 591 266 605Q266 631 250 642.5Q234 654 215 654Q198 654 181.5 647Q165 640 148 620L105 647Q125 672 152.5 687.5Q180 703 218 703Q269 703 297 678.5Q325 654 325 614Q325 597 319.5 582Q314 567 303 552.5Q292 538 276 522.5Q260 507 238 488L141 405H296Z" glyph-name="twosuperior" horiz-adv-x="295" unicode="&#178;" /><glyph d="M343 77Q316 39 273 16.5Q230 -6 181 -6Q100 -6 61.5 45Q23 96 40 187L101 500H178L120 201Q104 121 130.5 89Q157 57 211 57Q259 57 299 86Q339 115 359 161L425 500H502L405 0H328Z" glyph-name="u" horiz-adv-x="504" unicode="u" /><glyph d="M23 0ZM343 77Q316 39 273 16.5Q230 -6 181 -6Q100 -6 61.5 45Q23 96 40 187L101 500H178L120 201Q104 121 130.5 89Q157 57 211 57Q259 57 299 86Q339 115 359 161L425 500H502L405 0H328ZM386 745 434 685 252 583 224 620Z" glyph-name="uacute" horiz-adv-x="504" unicode="&#250;" /><glyph d="M23 0ZM343 77Q316 39 273 16.5Q230 -6 181 -6Q100 -6 61.5 45Q23 96 40 187L101 500H178L120 201Q104 121 130.5 89Q157 57 211 57Q259 57 299 86Q339 115 359 161L425 500H502L405 0H328ZM417 587 331 661 216 587 182 621 344 739 461 621Z" glyph-name="ucircumflex" horiz-adv-x="504" unicode="&#251;" /><glyph d="M23 0ZM343 77Q316 39 273 16.5Q230 -6 181 -6Q100 -6 61.5 45Q23 96 40 187L101 500H178L120 201Q104 121 130.5 89Q157 57 211 57Q259 57 299 86Q339 115 359 161L425 500H502L405 0H328ZM239 604Q220 604 208 616Q196 628 196 647Q196 668 211.5 685Q227 702 250 702Q269 702 281 690Q293 678 293 658Q293 638 277.5 621Q262 604 239 604ZM403 604Q384 604 372 616Q360 628 360 647Q360 668 375.5 685Q391 702 414 702Q433 702 445 690Q457 678 457 658Q457 638 441.5 621Q426 604 403 604Z" glyph-name="udieresis" horiz-adv-x="504" unicode="&#252;" /><glyph d="M23 0ZM343 77Q316 39 273 16.5Q230 -6 181 -6Q100 -6 61.5 45Q23 96 40 187L101 500H178L120 201Q104 121 130.5 89Q157 57 211 57Q259 57 299 86Q339 115 359 161L425 500H502L405 0H328ZM350 583 179 685 232 745 382 620Z" glyph-name="ugrave" horiz-adv-x="504" unicode="&#249;" /><glyph d="M23 0ZM343 77Q316 39 273 16.5Q230 -6 181 -6Q100 -6 61.5 45Q23 96 40 187L101 500H178L120 201Q104 121 130.5 89Q157 57 211 57Q259 57 299 86Q339 115 359 161L425 500H502L405 0H328ZM213 620 224 680H440L429 620Z" glyph-name="umacron" horiz-adv-x="504" unicode="&#363;" /><glyph d="M295 -64 281 -133H-75L-61 -64Z" glyph-name="underscore" horiz-adv-x="354" unicode="_" /><glyph d="M88 352ZM88 491Q88 531 99.5 569.5Q111 608 131.5 637.5Q152 667 181 685Q210 703 245 703Q300 703 330 664.5Q360 626 360 564Q360 523 349 485Q338 447 317 417.5Q296 388 267 370Q238 352 202 352Q148 352 118 390Q88 428 88 491ZM146 486Q146 442 162.5 422.5Q179 403 205 403Q228 403 246 418Q264 433 276.5 457Q289 481 295.5 510.5Q302 540 302 569Q302 612 285 632Q268 652 242 652Q219 652 201 636.5Q183 621 171 597Q159 573 152.5 543.5Q146 514 146 486Z" glyph-name="uni2070" horiz-adv-x="340" unicode="&#8304;" /><glyph d="M64 355ZM265 700H342L301 487H344L334 437H291L275 355H215L231 437H64L72 478ZM241 487 270 639 141 487Z" glyph-name="uni2074" horiz-adv-x="325" unicode="&#8308;" /><glyph d="M68 352ZM323 486Q323 465 314.5 441Q306 417 289 397.5Q272 378 246 365Q220 352 186 352Q136 352 107 376Q78 400 68 427L123 447Q133 426 147.5 414Q162 402 187 402Q223 402 242.5 425.5Q262 449 262 477Q262 508 244.5 521.5Q227 535 199 535Q181 535 164.5 527.5Q148 520 137 507L91 515L139 700H345L335 650H180L155 562Q168 571 184 576.5Q200 582 221 582Q264 582 293.5 557Q323 532 323 486Z" glyph-name="uni2075" horiz-adv-x="310" unicode="&#8309;" /><glyph d="M89 351ZM337 477Q337 456 329 434Q321 412 305 393.5Q289 375 265 363Q241 351 209 351Q155 351 122 386Q89 421 89 490Q89 528 99.5 566Q110 604 131 634.5Q152 665 183 684Q214 703 255 703Q295 703 322.5 680Q350 657 359 628L304 609Q294 631 281 642Q268 653 246 653Q227 653 211.5 643.5Q196 634 184 618Q172 602 164 581Q156 560 152 538Q167 554 188 563.5Q209 573 235 573Q282 573 309.5 546.5Q337 520 337 477ZM147 490Q147 442 165.5 421.5Q184 401 213 401Q244 401 262 422.5Q280 444 280 468Q280 499 262 514.5Q244 530 218 530Q195 530 177 520Q159 510 147 496Z" glyph-name="uni2076" horiz-adv-x="328" unicode="&#8310;" /><glyph d="M99 355ZM344 654Q277 594 230 521Q183 448 161 355H99Q124 444 169.5 518.5Q215 593 280 650H105L115 700H353L344 654Z" glyph-name="uni2077" horiz-adv-x="290" unicode="&#8311;" /><glyph d="M91 352ZM346 462Q346 441 337.5 421Q329 401 312.5 386Q296 371 272 361.5Q248 352 218 352Q161 352 126 379Q91 406 91 448Q91 478 110.5 503Q130 528 167 539Q133 564 133 601Q133 621 141 639.5Q149 658 164 672Q179 686 200.5 694.5Q222 703 248 703Q304 703 332 678Q360 653 360 620Q360 594 344 571.5Q328 549 295 538Q346 509 346 462ZM254 558Q277 564 289.5 579.5Q302 595 302 615Q302 632 287.5 644Q273 656 248 656Q218 656 204.5 640.5Q191 625 191 608Q191 594 201 585Q211 576 229 568ZM151 453Q151 430 168 415Q185 400 220 400Q239 400 252 405.5Q265 411 272.5 419.5Q280 428 283.5 437.5Q287 447 287 455Q287 487 243 504L203 519Q177 511 164 493.5Q151 476 151 453Z" glyph-name="uni2078" horiz-adv-x="326" unicode="&#8312;" /><glyph d="M72 352ZM342 565Q342 527 331 489Q320 451 299 420.5Q278 390 247 371Q216 352 176 352Q136 352 108.5 375Q81 398 72 427L127 446Q137 424 150 413Q163 402 185 402Q204 402 219.5 411.5Q235 421 247 437Q259 453 267 474Q275 495 279 517Q264 501 243 491.5Q222 482 196 482Q149 482 121.5 508.5Q94 535 94 578Q94 599 102 621Q110 643 126 661.5Q142 680 166 692Q190 704 222 704Q276 704 309 669Q342 634 342 565ZM151 587Q151 556 169 540.5Q187 525 213 525Q236 525 254 535Q272 545 284 559V565Q284 613 265.5 633.5Q247 654 218 654Q187 654 169 632.5Q151 611 151 587Z" glyph-name="uni2079" horiz-adv-x="328" unicode="&#8313;" /><glyph d="M19 136Q19 176 30.5 214.5Q42 253 62.5 282.5Q83 312 112 330Q141 348 176 348Q231 348 261 309.5Q291 271 291 209Q291 168 280 130Q269 92 248 62.5Q227 33 198 15Q169 -3 133 -3Q79 -3 49 35Q19 73 19 136ZM77 131Q77 87 93.5 67.5Q110 48 136 48Q159 48 177 63Q195 78 207.5 102Q220 126 226.5 155.5Q233 185 233 214Q233 257 216 277Q199 297 173 297Q150 297 132 281.5Q114 266 102 242Q90 218 83.5 188.5Q77 159 77 131Z" glyph-name="uni2080" horiz-adv-x="340" unicode="&#8320;" /><glyph d="M168 0H-22L-12 50H53L98 280Q82 275 66 273Q50 271 33 269L43 318Q66 320 89 326.5Q112 333 133 345H171L114 50H178Z" glyph-name="uni2081" horiz-adv-x="244" unicode="&#8321;" /><glyph d="M217 0H-14L-4 51L143 172Q173 197 185 216.5Q197 236 197 250Q197 276 181 287.5Q165 299 146 299Q129 299 112.5 292Q96 285 79 265L36 292Q56 317 83.5 332.5Q111 348 149 348Q200 348 228 323.5Q256 299 256 259Q256 242 250.5 227Q245 212 234 197.5Q223 183 207 167.5Q191 152 169 133L72 50H227Z" glyph-name="uni2082" horiz-adv-x="295" unicode="&#8322;" /><glyph d="M245 103Q245 86 237.5 67.5Q230 49 214 33.5Q198 18 173.5 7.5Q149 -3 116 -3Q67 -3 38 19.5Q9 42 -3 72L51 91Q59 67 76 57.5Q93 48 119 48Q154 48 170.5 66.5Q187 85 187 105Q187 125 175 138Q163 151 140 151H97L107 198H140Q171 198 187.5 213.5Q204 229 204 254Q204 278 189.5 288.5Q175 299 154 299Q133 299 117 290.5Q101 282 88 267L44 296Q65 320 92 334Q119 348 156 348Q207 348 235 324Q263 300 263 264Q263 234 245.5 208.5Q228 183 197 173Q220 163 232.5 144.5Q245 126 245 103Z" glyph-name="uni2083" horiz-adv-x="306" unicode="&#8323;" /><glyph d="M196 345H273L232 132H275L265 82H222L206 0H146L162 82H-5L3 123ZM172 132 201 284 72 132Z" glyph-name="uni2084" horiz-adv-x="325" unicode="&#8324;" /><glyph d="M254 131Q254 110 245.5 86Q237 62 220 42.5Q203 23 177 10Q151 -3 117 -3Q67 -3 38 21Q9 45 -1 72L54 92Q64 71 78.5 59Q93 47 118 47Q154 47 173.5 70.5Q193 94 193 122Q193 153 175.5 166.5Q158 180 130 180Q112 180 95.5 172.5Q79 165 68 152L22 160L70 345H276L266 295H111L86 207Q99 216 115 221.5Q131 227 152 227Q195 227 224.5 202Q254 177 254 131Z" glyph-name="uni2085" horiz-adv-x="310" unicode="&#8325;" /><glyph d="M268 122Q268 101 260 79Q252 57 236 38.5Q220 20 196 8Q172 -4 140 -4Q86 -4 53 31Q20 66 20 135Q20 173 30.5 211Q41 249 62 279.5Q83 310 114 329Q145 348 186 348Q226 348 253.5 325Q281 302 290 273L235 254Q225 276 212 287Q199 298 177 298Q158 298 142.5 288.5Q127 279 115 263Q103 247 95 226Q87 205 83 183Q98 199 119 208.5Q140 218 166 218Q213 218 240.5 191.5Q268 165 268 122ZM78 135Q78 87 96.5 66.5Q115 46 144 46Q175 46 193 67.5Q211 89 211 113Q211 144 193 159.5Q175 175 149 175Q126 175 108 165Q90 155 78 141Z" glyph-name="uni2086" horiz-adv-x="328" unicode="&#8326;" /><glyph d="M275 299Q208 239 161 166Q114 93 92 0H30Q55 89 100.5 163.5Q146 238 211 295H36L46 345H284L275 299Z" glyph-name="uni2087" horiz-adv-x="290" unicode="&#8327;" /><glyph d="M277 107Q277 86 268.5 66Q260 46 243.5 31Q227 16 203 6.5Q179 -3 149 -3Q92 -3 57 24Q22 51 22 93Q22 123 41.5 148Q61 173 98 184Q64 209 64 246Q64 266 72 284.5Q80 303 95 317Q110 331 131.5 339.5Q153 348 179 348Q235 348 263 323Q291 298 291 265Q291 239 275 216.5Q259 194 226 183Q277 154 277 107ZM185 203Q208 209 220.5 224.5Q233 240 233 260Q233 277 218.5 289Q204 301 179 301Q149 301 135.5 285.5Q122 270 122 253Q122 239 132 230Q142 221 160 213ZM82 98Q82 75 99 60Q116 45 151 45Q170 45 183 50.5Q196 56 203.5 64.5Q211 73 214.5 82.5Q218 92 218 100Q218 132 174 149L134 164Q108 156 95 138.5Q82 121 82 98Z" glyph-name="uni2088" horiz-adv-x="326" unicode="&#8328;" /><glyph d="M273 210Q273 172 262 134Q251 96 230 65.5Q209 35 178 16Q147 -3 107 -3Q67 -3 39.5 20Q12 43 3 72L58 91Q68 69 81 58Q94 47 116 47Q135 47 150.5 56.5Q166 66 178 82Q190 98 198 119Q206 140 210 162Q195 146 174 136.5Q153 127 127 127Q80 127 52.5 153.5Q25 180 25 223Q25 244 33 266Q41 288 57 306.5Q73 325 97 337Q121 349 153 349Q207 349 240 314Q273 279 273 210ZM82 232Q82 201 100 185.5Q118 170 144 170Q167 170 185 180Q203 190 215 204V210Q215 258 196.5 278.5Q178 299 149 299Q118 299 100 277.5Q82 256 82 232Z" glyph-name="uni2089" horiz-adv-x="328" unicode="&#8329;" /><glyph d="M23 0ZM343 77Q316 39 273 16.5Q230 -6 181 -6Q100 -6 61.5 45Q23 96 40 187L101 500H178L120 201Q104 121 130.5 89Q157 57 211 57Q259 57 299 86Q339 115 359 161L425 500H502L405 0H328ZM146 609Q194 702 255 702Q276 702 292.5 694Q309 686 323 677Q337 668 349.5 660Q362 652 376 652Q389 652 401.5 663Q414 674 431 700L477 682Q451 633 424 611Q397 589 367 589Q346 589 330 597Q314 605 300.5 614Q287 623 274.5 631Q262 639 248 639Q235 639 222.5 628Q210 617 193 591Z" glyph-name="utilde" horiz-adv-x="504" unicode="&#361;" /><glyph d="M220 0H148L61 500H143L203 93L446 500H528Z" glyph-name="v" horiz-adv-x="491" unicode="v" /><glyph d="M188 0H103L66 500H147L166 179L170 96L215 179L395 500H458L495 179L504 99L543 179L707 500H788L527 0H441L407 317L401 380L366 317Z" glyph-name="w" horiz-adv-x="756" unicode="w" /><glyph d="M66 0ZM188 0H103L66 500H147L166 179L170 96L215 179L395 500H458L495 179L504 99L543 179L707 500H788L527 0H441L407 317L401 380L366 317ZM514 745 562 685 380 583 352 620Z" glyph-name="wacute" horiz-adv-x="756" unicode="&#7811;" /><glyph d="M66 0ZM188 0H103L66 500H147L166 179L170 96L215 179L395 500H458L495 179L504 99L543 179L707 500H788L527 0H441L407 317L401 380L366 317ZM545 587 459 661 344 587 310 621 472 739 589 621Z" glyph-name="wcircumflex" horiz-adv-x="756" unicode="&#373;" /><glyph d="M66 0ZM188 0H103L66 500H147L166 179L170 96L215 179L395 500H458L495 179L504 99L543 179L707 500H788L527 0H441L407 317L401 380L366 317ZM367 604Q348 604 336 616Q324 628 324 647Q324 668 339.5 685Q355 702 378 702Q397 702 409 690Q421 678 421 658Q421 638 405.5 621Q390 604 367 604ZM531 604Q512 604 500 616Q488 628 488 647Q488 668 503.5 685Q519 702 542 702Q561 702 573 690Q585 678 585 658Q585 638 569.5 621Q554 604 531 604Z" glyph-name="wdieresis" horiz-adv-x="756" unicode="&#7813;" /><glyph d="M66 0ZM188 0H103L66 500H147L166 179L170 96L215 179L395 500H458L495 179L504 99L543 179L707 500H788L527 0H441L407 317L401 380L366 317ZM478 583 307 685 360 745 510 620Z" glyph-name="wgrave" horiz-adv-x="756" unicode="&#7809;" /><glyph d="M246 203 60 0H-34L213 262L83 500H174L269 320L433 500H527L302 260L445 0H354Z" glyph-name="x" horiz-adv-x="511" unicode="x" /><glyph d="M179 -92Q138 -159 95 -182.5Q52 -206 5 -206Q-15 -206 -28.5 -203.5Q-42 -201 -56 -197L-41 -128Q-29 -133 -18 -134.5Q-7 -136 3 -136Q31 -136 57 -122Q83 -108 104 -76L145 -14L63 500H146L206 76L459 500H546L179 -92Z" glyph-name="y" horiz-adv-x="507" unicode="y" /><glyph d="M112 -200H23L155 6L63 500H148L214 93L459 500H546Z" glyph-name="y.school" horiz-adv-x="506" /><glyph d="M0 0ZM179 -92Q138 -159 95 -182.5Q52 -206 5 -206Q-15 -206 -28.5 -203.5Q-42 -201 -56 -197L-41 -128Q-29 -133 -18 -134.5Q-7 -136 3 -136Q31 -136 57 -122Q83 -108 104 -76L145 -14L63 500H146L206 76L459 500H546L179 -92ZM372 745 420 685 238 583 210 620Z" glyph-name="yacute" horiz-adv-x="507" unicode="&#253;" /><glyph d="M0 0ZM179 -92Q138 -159 95 -182.5Q52 -206 5 -206Q-15 -206 -28.5 -203.5Q-42 -201 -56 -197L-41 -128Q-29 -133 -18 -134.5Q-7 -136 3 -136Q31 -136 57 -122Q83 -108 104 -76L145 -14L63 500H146L206 76L459 500H546L179 -92ZM404 587 318 661 203 587 169 621 331 739 448 621Z" glyph-name="ycircumflex" horiz-adv-x="507" unicode="&#375;" /><glyph d="M0 0ZM179 -92Q138 -159 95 -182.5Q52 -206 5 -206Q-15 -206 -28.5 -203.5Q-42 -201 -56 -197L-41 -128Q-29 -133 -18 -134.5Q-7 -136 3 -136Q31 -136 57 -122Q83 -108 104 -76L145 -14L63 500H146L206 76L459 500H546L179 -92ZM226 604Q207 604 195 616Q183 628 183 647Q183 668 198.5 685Q214 702 237 702Q256 702 268 690Q280 678 280 658Q280 638 264.5 621Q249 604 226 604ZM390 604Q371 604 359 616Q347 628 347 647Q347 668 362.5 685Q378 702 401 702Q420 702 432 690Q444 678 444 658Q444 638 428.5 621Q413 604 390 604Z" glyph-name="ydieresis" horiz-adv-x="507" unicode="&#255;" /><glyph d="M0 0ZM179 -92Q138 -159 95 -182.5Q52 -206 5 -206Q-15 -206 -28.5 -203.5Q-42 -201 -56 -197L-41 -128Q-29 -133 -18 -134.5Q-7 -136 3 -136Q31 -136 57 -122Q83 -108 104 -76L145 -14L63 500H146L206 76L459 500H546L179 -92ZM336 583 165 685 218 745 368 620Z" glyph-name="ygrave" horiz-adv-x="507" unicode="&#7923;" /><glyph d="M353 0H-31L-22 47L337 436H68L80 500H449L438 445L88 64H365Z" glyph-name="z" horiz-adv-x="421" unicode="z" /><glyph d="M0 0ZM353 0H-31L-22 47L337 436H68L80 500H449L438 445L88 64H365ZM346 745 394 685 212 583 184 620Z" glyph-name="zacute" horiz-adv-x="421" unicode="&#378;" /><glyph d="M0 0ZM353 0H-31L-22 47L337 436H68L80 500H449L438 445L88 64H365ZM275 588 158 706 200 740 286 666 401 740 437 706Z" glyph-name="zcaron" horiz-adv-x="421" unicode="&#382;" /><glyph d="M0 0ZM353 0H-31L-22 47L337 436H68L80 500H449L438 445L88 64H365ZM282 604Q263 604 251 616Q239 628 239 647Q239 668 254.5 685Q270 702 293 702Q312 702 324 690Q336 678 336 658Q336 638 320.5 621Q305 604 282 604Z" glyph-name="zdotaccent" horiz-adv-x="421" unicode="&#380;" /><glyph d="M57 263Q57 343 79.5 422.5Q102 502 143 565Q184 628 242.5 667Q301 706 372 706Q423 706 463 686Q503 666 530.5 630Q558 594 573 544.5Q588 495 588 437Q588 357 565.5 277.5Q543 198 502 135Q461 72 403 33Q345 -6 275 -6Q224 -6 183.5 14Q143 34 115 70Q87 106 72 155.5Q57 205 57 263ZM138 257Q138 161 178.5 113Q219 65 280 65Q331 65 372.5 97Q414 129 444 182Q474 235 490.5 303Q507 371 507 443Q507 491 496 527Q485 563 466.5 587Q448 611 422.5 623Q397 635 367 635Q316 635 273.5 603Q231 571 201 518Q171 465 154.5 397Q138 329 138 257Z" glyph-name="zero" horiz-adv-x="605" unicode="0" /><glyph glyph-name="zerowidthspace" horiz-adv-x="0" unicode="&#8203;" /></font>
</defs>
</svg>
