<?xml version="1.0" standalone="no"?><!DOCTYPE svg PUBLIC "-//W3C//DTD SVG 1.1//EN" "http://www.w3.org/Graphics/SVG/1.1/DTD/svg11.dtd" ><svg version="1.1" xmlns="http://www.w3.org/2000/svg"><defs><font horiz-adv-x="0" id="font"><font-face ascent="750" bbox="-78 -220 983 953" cap-height="700" descent="-250" font-family="YP Local Web" font-stretch="normal" font-style="normal" font-weight="500" units-per-em="1000" x-height="505" /><missing-glyph d="M43 700H468V-200H43Z" horiz-adv-x="500" /><glyph d="M0 0Z" glyph-name=".ttfautohint" horiz-adv-x="391" /><glyph d="M275 700H423L685 0H543L480 176H197L134 0H11ZM444 278 339 573 234 278Z" glyph-name="A" horiz-adv-x="696" unicode="A" /><glyph d="M933 0H463V176H232L134 0H0L404 700H933V595H593V412H856V309H593V103H933ZM463 278V592L288 278Z" glyph-name="AE" horiz-adv-x="970" unicode="&#198;" /><glyph d="M11 0ZM275 700H423L685 0H543L480 176H197L134 0H11ZM444 278 339 573 234 278ZM409 953 478 878 284 766 239 817Z" glyph-name="Aacute" horiz-adv-x="696" unicode="&#193;" /><glyph d="M11 0ZM275 700H423L685 0H543L480 176H197L134 0H11ZM444 278 339 573 234 278ZM455 773 345 845 236 773 184 821 346 944 507 821Z" glyph-name="Acircumflex" horiz-adv-x="696" unicode="&#194;" /><glyph d="M11 0ZM275 700H423L685 0H543L480 176H197L134 0H11ZM444 278 339 573 234 278ZM246 782Q217 782 198 801.5Q179 821 179 847Q179 875 198 894.5Q217 914 246 914Q274 914 294 894.5Q314 875 314 847Q314 821 294 801.5Q274 782 246 782ZM442 782Q413 782 393.5 801.5Q374 821 374 847Q374 875 393.5 894.5Q413 914 442 914Q470 914 489.5 894.5Q509 875 509 847Q509 821 489.5 801.5Q470 782 442 782Z" glyph-name="Adieresis" horiz-adv-x="696" unicode="&#196;" /><glyph d="M11 0ZM275 700H423L685 0H543L480 176H197L134 0H11ZM444 278 339 573 234 278ZM403 766 210 878 278 953 449 817Z" glyph-name="Agrave" horiz-adv-x="696" unicode="&#192;" /><glyph d="M11 0ZM275 700H423L685 0H543L480 176H197L134 0H11ZM444 278 339 573 234 278ZM220 806V884H469V806Z" glyph-name="Amacron" horiz-adv-x="696" unicode="&#256;" /><glyph d="M11 0ZM275 700H423L685 0H543L480 176H197L134 0H11ZM444 278 339 573 234 278ZM162 799Q187 858 217 881.5Q247 905 281 905Q302 905 318.5 897Q335 889 349.5 880Q364 871 377 863Q390 855 404 855Q418 855 430 867.5Q442 880 458 906L527 880Q498 820 469 797Q440 774 406 774Q385 774 368.5 782Q352 790 337.5 799Q323 808 310 816Q297 824 283 824Q269 824 257 811.5Q245 799 231 773Z" glyph-name="Atilde" horiz-adv-x="696" unicode="&#195;" /><glyph d="M52 700H341Q447 700 500.5 652.5Q554 605 554 526Q554 463 520 423Q486 383 429 368Q504 353 541 308Q578 263 578 199Q578 153 560.5 116Q543 79 513 53.5Q483 28 442 14Q401 0 355 0H52ZM183 602V410H331Q382 410 406 437Q430 464 430 506Q430 548 406 575Q382 602 331 602ZM183 312V98H331Q389 98 418 128Q447 158 447 206Q447 253 418 282.5Q389 312 331 312Z" glyph-name="B" horiz-adv-x="604" unicode="B" /><glyph d="M666 232Q654 182 628 139Q602 96 563 64Q524 32 473.5 13.5Q423 -5 362 -5Q291 -5 231 21Q171 47 127.5 94Q84 141 60 206.5Q36 272 36 351Q36 429 60.5 494Q85 559 128.5 606.5Q172 654 232 680Q292 706 364 706Q479 706 555.5 647Q632 588 663 482L543 453Q520 525 473.5 561.5Q427 598 365 598Q326 598 290 582.5Q254 567 227 536Q200 505 184 458.5Q168 412 168 350Q168 287 184 240.5Q200 194 227.5 163.5Q255 133 291 117.5Q327 102 366 102Q432 102 481.5 143Q531 184 548 256Z" glyph-name="C" horiz-adv-x="707" unicode="C" /><glyph glyph-name="CR" horiz-adv-x="250" unicode="" /><glyph d="M36 0ZM666 232Q654 182 628 139Q602 96 563 64Q524 32 473.5 13.5Q423 -5 362 -5Q291 -5 231 21Q171 47 127.5 94Q84 141 60 206.5Q36 272 36 351Q36 429 60.5 494Q85 559 128.5 606.5Q172 654 232 680Q292 706 364 706Q479 706 555.5 647Q632 588 663 482L543 453Q520 525 473.5 561.5Q427 598 365 598Q326 598 290 582.5Q254 567 227 536Q200 505 184 458.5Q168 412 168 350Q168 287 184 240.5Q200 194 227.5 163.5Q255 133 291 117.5Q327 102 366 102Q432 102 481.5 143Q531 184 548 256ZM426 953 495 878 301 766 256 817Z" glyph-name="Cacute" horiz-adv-x="707" unicode="&#262;" /><glyph d="M36 0ZM666 232Q654 182 628 139Q602 96 563 64Q524 32 473.5 13.5Q423 -5 362 -5Q291 -5 231 21Q171 47 127.5 94Q84 141 60 206.5Q36 272 36 351Q36 429 60.5 494Q85 559 128.5 606.5Q172 654 232 680Q292 706 364 706Q479 706 555.5 647Q632 588 663 482L543 453Q520 525 473.5 561.5Q427 598 365 598Q326 598 290 582.5Q254 567 227 536Q200 505 184 458.5Q168 412 168 350Q168 287 184 240.5Q200 194 227.5 163.5Q255 133 291 117.5Q327 102 366 102Q432 102 481.5 143Q531 184 548 256ZM362 776 200 899 252 947 362 875 471 947 523 899Z" glyph-name="Ccaron" horiz-adv-x="707" unicode="&#268;" /><glyph d="M479 -115Q479 -157 448 -184.5Q417 -212 361 -212Q313 -212 283 -192.5Q253 -173 242 -142L304 -119Q312 -135 326 -142Q340 -149 358 -149Q383 -149 393 -137.5Q403 -126 403 -114Q403 -103 393.5 -92Q384 -81 361 -81H309L334 -4Q268 1 213.5 29Q159 57 119.5 103.5Q80 150 58 213Q36 276 36 351Q36 429 60.5 494Q85 559 128.5 606.5Q172 654 232 680Q292 706 364 706Q479 706 555.5 647Q632 588 663 482L543 453Q520 525 473.5 561.5Q427 598 365 598Q326 598 290 582.5Q254 567 227 536Q200 505 184 458.5Q168 412 168 350Q168 287 184 240.5Q200 194 227.5 163.5Q255 133 291 117.5Q327 102 366 102Q432 102 481.5 143Q531 184 548 256L666 232Q655 187 632.5 147Q610 107 577 76Q544 45 500.5 24.5Q457 4 405 -2L392 -31Q439 -36 459 -61Q479 -86 479 -115Z" glyph-name="Ccedilla" horiz-adv-x="707" unicode="&#199;" /><glyph d="M36 0ZM666 232Q654 182 628 139Q602 96 563 64Q524 32 473.5 13.5Q423 -5 362 -5Q291 -5 231 21Q171 47 127.5 94Q84 141 60 206.5Q36 272 36 351Q36 429 60.5 494Q85 559 128.5 606.5Q172 654 232 680Q292 706 364 706Q479 706 555.5 647Q632 588 663 482L543 453Q520 525 473.5 561.5Q427 598 365 598Q326 598 290 582.5Q254 567 227 536Q200 505 184 458.5Q168 412 168 350Q168 287 184 240.5Q200 194 227.5 163.5Q255 133 291 117.5Q327 102 366 102Q432 102 481.5 143Q531 184 548 256ZM471 773 361 845 252 773 200 821 362 944 523 821Z" glyph-name="Ccircumflex" horiz-adv-x="707" unicode="&#264;" /><glyph d="M36 0ZM666 232Q654 182 628 139Q602 96 563 64Q524 32 473.5 13.5Q423 -5 362 -5Q291 -5 231 21Q171 47 127.5 94Q84 141 60 206.5Q36 272 36 351Q36 429 60.5 494Q85 559 128.5 606.5Q172 654 232 680Q292 706 364 706Q479 706 555.5 647Q632 588 663 482L543 453Q520 525 473.5 561.5Q427 598 365 598Q326 598 290 582.5Q254 567 227 536Q200 505 184 458.5Q168 412 168 350Q168 287 184 240.5Q200 194 227.5 163.5Q255 133 291 117.5Q327 102 366 102Q432 102 481.5 143Q531 184 548 256ZM361 782Q332 782 313 801.5Q294 821 294 847Q294 875 313 894.5Q332 914 361 914Q389 914 408.5 894.5Q428 875 428 847Q428 821 408.5 801.5Q389 782 361 782Z" glyph-name="Cdotaccent" horiz-adv-x="707" unicode="&#266;" /><glyph d="M52 0V700H319Q398 700 458.5 672.5Q519 645 560 597.5Q601 550 622.5 487Q644 424 644 353Q644 278 619.5 213.5Q595 149 551 101.5Q507 54 445.5 27Q384 0 310 0ZM183 595V105H305Q346 105 383.5 120Q421 135 449.5 166Q478 197 495 242.5Q512 288 512 350Q512 412 495 458Q478 504 449.5 534.5Q421 565 383.5 580Q346 595 305 595Z" glyph-name="D" horiz-adv-x="680" unicode="D" /><glyph d="M530 0H52V700H530V595H183V412H452V309H183V103H530Z" glyph-name="E" horiz-adv-x="567" unicode="E" /><glyph d="M52 0ZM530 0H52V700H530V595H183V412H452V309H183V103H530ZM360 953 429 878 235 766 190 817Z" glyph-name="Eacute" horiz-adv-x="567" unicode="&#201;" /><glyph d="M52 0ZM530 0H52V700H530V595H183V412H452V309H183V103H530ZM296 776 134 899 186 947 296 875 405 947 457 899Z" glyph-name="Ecaron" horiz-adv-x="567" unicode="&#282;" /><glyph d="M52 0ZM530 0H52V700H530V595H183V412H452V309H183V103H530ZM406 773 296 845 187 773 135 821 297 944 458 821Z" glyph-name="Ecircumflex" horiz-adv-x="567" unicode="&#202;" /><glyph d="M52 0ZM530 0H52V700H530V595H183V412H452V309H183V103H530ZM197 782Q168 782 149 801.5Q130 821 130 847Q130 875 149 894.5Q168 914 197 914Q225 914 245 894.5Q265 875 265 847Q265 821 245 801.5Q225 782 197 782ZM393 782Q364 782 344.5 801.5Q325 821 325 847Q325 875 344.5 894.5Q364 914 393 914Q421 914 440.5 894.5Q460 875 460 847Q460 821 440.5 801.5Q421 782 393 782Z" glyph-name="Edieresis" horiz-adv-x="567" unicode="&#203;" /><glyph d="M52 0ZM530 0H52V700H530V595H183V412H452V309H183V103H530ZM295 782Q266 782 247 801.5Q228 821 228 847Q228 875 247 894.5Q266 914 295 914Q323 914 342.5 894.5Q362 875 362 847Q362 821 342.5 801.5Q323 782 295 782Z" glyph-name="Edotaccent" horiz-adv-x="567" unicode="&#278;" /><glyph d="M52 0ZM530 0H52V700H530V595H183V412H452V309H183V103H530ZM354 766 161 878 229 953 400 817Z" glyph-name="Egrave" horiz-adv-x="567" unicode="&#200;" /><glyph d="M52 0ZM530 0H52V700H530V595H183V412H452V309H183V103H530ZM171 806V884H420V806Z" glyph-name="Emacron" horiz-adv-x="567" unicode="&#274;" /><glyph d="M183 299V0H52V700H530V595H183V404H457V299Z" glyph-name="F" horiz-adv-x="565" unicode="F" /><glyph d="M393 352H672V0H586L559 101Q525 52 473 23.5Q421 -5 355 -5Q287 -5 228.5 21Q170 47 127 94Q84 141 60 206.5Q36 272 36 351Q36 429 60.5 494Q85 559 129 606.5Q173 654 233 680Q293 706 365 706Q480 706 556.5 649.5Q633 593 665 491L546 463Q523 530 476 563.5Q429 597 368 597Q328 597 291.5 581.5Q255 566 227.5 535.5Q200 505 184 458.5Q168 412 168 350Q168 286 185 239Q202 192 230.5 160.5Q259 129 296 113.5Q333 98 373 98Q439 98 486 132.5Q533 167 549 228V255H393Z" glyph-name="G" horiz-adv-x="718" unicode="G" /><glyph d="M36 0ZM393 352H672V0H586L559 101Q525 52 473 23.5Q421 -5 355 -5Q287 -5 228.5 21Q170 47 127 94Q84 141 60 206.5Q36 272 36 351Q36 429 60.5 494Q85 559 129 606.5Q173 654 233 680Q293 706 365 706Q480 706 556.5 649.5Q633 593 665 491L546 463Q523 530 476 563.5Q429 597 368 597Q328 597 291.5 581.5Q255 566 227.5 535.5Q200 505 184 458.5Q168 412 168 350Q168 286 185 239Q202 192 230.5 160.5Q259 129 296 113.5Q333 98 373 98Q439 98 486 132.5Q533 167 549 228V255H393ZM478 773 368 845 259 773 207 821 369 944 530 821Z" glyph-name="Gcircumflex" horiz-adv-x="718" unicode="&#284;" /><glyph d="M36 0ZM393 352H672V0H586L559 101Q525 52 473 23.5Q421 -5 355 -5Q287 -5 228.5 21Q170 47 127 94Q84 141 60 206.5Q36 272 36 351Q36 429 60.5 494Q85 559 129 606.5Q173 654 233 680Q293 706 365 706Q480 706 556.5 649.5Q633 593 665 491L546 463Q523 530 476 563.5Q429 597 368 597Q328 597 291.5 581.5Q255 566 227.5 535.5Q200 505 184 458.5Q168 412 168 350Q168 286 185 239Q202 192 230.5 160.5Q259 129 296 113.5Q333 98 373 98Q439 98 486 132.5Q533 167 549 228V255H393ZM367 782Q338 782 319 801.5Q300 821 300 847Q300 875 319 894.5Q338 914 367 914Q395 914 414.5 894.5Q434 875 434 847Q434 821 414.5 801.5Q395 782 367 782Z" glyph-name="Gdotaccent" horiz-adv-x="718" unicode="&#288;" /><glyph d="M481 312H183V0H52V700H183V417H481V700H612V0H481Z" glyph-name="H" horiz-adv-x="664" unicode="H" /><glyph d="M52 0ZM481 312H183V0H52V700H183V417H481V700H612V0H481ZM442 773 332 845 223 773 171 821 333 944 494 821Z" glyph-name="Hcircumflex" horiz-adv-x="664" unicode="&#292;" /><glyph d="M52 700H183V0H52Z" glyph-name="I" horiz-adv-x="235" unicode="I" /><glyph d="M12 0ZM52 700H183V0H52ZM182 953 251 878 57 766 12 817Z" glyph-name="Iacute" horiz-adv-x="235" unicode="&#205;" /><glyph d="M0 0ZM52 700H183V0H52ZM228 773 118 845 9 773 -43 821 119 944 280 821Z" glyph-name="Icircumflex" horiz-adv-x="235" unicode="&#206;" /><glyph d="M0 0ZM52 700H183V0H52ZM19 782Q-10 782 -29 801.5Q-48 821 -48 847Q-48 875 -29 894.5Q-10 914 19 914Q47 914 67 894.5Q87 875 87 847Q87 821 67 801.5Q47 782 19 782ZM215 782Q186 782 166.5 801.5Q147 821 147 847Q147 875 166.5 894.5Q186 914 215 914Q243 914 262.5 894.5Q282 875 282 847Q282 821 262.5 801.5Q243 782 215 782Z" glyph-name="Idieresis" horiz-adv-x="235" unicode="&#207;" /><glyph d="M50 0ZM52 700H183V0H52ZM117 782Q88 782 69 801.5Q50 821 50 847Q50 875 69 894.5Q88 914 117 914Q145 914 164.5 894.5Q184 875 184 847Q184 821 164.5 801.5Q145 782 117 782Z" glyph-name="Idotaccent" horiz-adv-x="235" unicode="&#304;" /><glyph d="M0 0ZM52 700H183V0H52ZM176 766 -17 878 51 953 222 817Z" glyph-name="Igrave" horiz-adv-x="235" unicode="&#204;" /><glyph d="M0 0ZM52 700H183V0H52ZM-7 806V884H242V806Z" glyph-name="Imacron" horiz-adv-x="235" unicode="&#298;" /><glyph d="M0 0ZM52 700H183V0H52ZM-65 799Q-40 858 -10 881.5Q20 905 54 905Q75 905 91.5 897Q108 889 122.5 880Q137 871 150 863Q163 855 177 855Q191 855 203 867.5Q215 880 231 906L300 880Q271 820 242 797Q213 774 179 774Q158 774 141.5 782Q125 790 110.5 799Q96 808 83 816Q70 824 56 824Q42 824 30 811.5Q18 799 4 773Z" glyph-name="Itilde" horiz-adv-x="235" unicode="&#296;" /><glyph d="M259 -6Q170 -6 108.5 30Q47 66 16 124L127 177Q146 142 180.5 122Q215 102 263 102Q324 102 364.5 143.5Q405 185 405 262V700H535V252Q535 199 517.5 152Q500 105 465 70Q430 35 378.5 14.5Q327 -6 259 -6Z" glyph-name="J" horiz-adv-x="585" unicode="J" /><glyph d="M16 0ZM259 -6Q170 -6 108.5 30Q47 66 16 124L127 177Q146 142 180.5 122Q215 102 263 102Q324 102 364.5 143.5Q405 185 405 262V700H535V252Q535 199 517.5 152Q500 105 465 70Q430 35 378.5 14.5Q327 -6 259 -6ZM580 773 470 845 361 773 309 821 471 944 632 821Z" glyph-name="Jcircumflex" horiz-adv-x="585" unicode="&#308;" /><glyph d="M284 314 183 204V0H52V700H183V359L488 700H641L374 408L643 0H484Z" glyph-name="K" horiz-adv-x="659" unicode="K" /><glyph d="M522 0H52V700H183V105H522Z" glyph-name="L" horiz-adv-x="545" unicode="L" /><glyph d="M12 0ZM522 0H52V700H183V105H522ZM182 953 251 878 57 766 12 817Z" glyph-name="Lacute" horiz-adv-x="545" unicode="&#313;" /><glyph d="M609 700H790V0H663V463L664 552L632 463L462 0H360L195 463L162 558L163 463L164 0H52V700H233L390 259L419 174L448 259Z" glyph-name="M" horiz-adv-x="842" unicode="M" /><glyph d="M169 0H52V700H190L456 291L512 203L511 291L510 700H627V0H501L227 423L166 519L168 423Z" glyph-name="N" horiz-adv-x="679" unicode="N" /><glyph glyph-name="NULL" horiz-adv-x="250" /><glyph d="M52 0ZM169 0H52V700H190L456 291L512 203L511 291L510 700H627V0H501L227 423L166 519L168 423ZM405 953 474 878 280 766 235 817Z" glyph-name="Nacute" horiz-adv-x="679" unicode="&#323;" /><glyph d="M52 0ZM169 0H52V700H190L456 291L512 203L511 291L510 700H627V0H501L227 423L166 519L168 423ZM341 776 179 899 231 947 341 875 450 947 502 899Z" glyph-name="Ncaron" horiz-adv-x="679" unicode="&#327;" /><glyph d="M52 0ZM169 0H52V700H190L456 291L512 203L511 291L510 700H627V0H501L227 423L166 519L168 423ZM157 799Q182 858 212 881.5Q242 905 276 905Q297 905 313.5 897Q330 889 344.5 880Q359 871 372 863Q385 855 399 855Q413 855 425 867.5Q437 880 453 906L522 880Q493 820 464 797Q435 774 401 774Q380 774 363.5 782Q347 790 332.5 799Q318 808 305 816Q292 824 278 824Q264 824 252 811.5Q240 799 226 773Z" glyph-name="Ntilde" horiz-adv-x="679" unicode="&#209;" /><glyph d="M369 706Q448 706 510.5 677.5Q573 649 616 600.5Q659 552 681.5 487.5Q704 423 704 350Q704 275 679.5 210Q655 145 611 97Q567 49 505.5 21.5Q444 -6 370 -6Q291 -6 229 22.5Q167 51 124 100Q81 149 58.5 213.5Q36 278 36 349Q36 426 60.5 491.5Q85 557 129 604.5Q173 652 234 679Q295 706 369 706ZM370 599Q329 599 292.5 584Q256 569 228 538Q200 507 184 460Q168 413 168 349Q168 287 184 240.5Q200 194 228 163Q256 132 292.5 116.5Q329 101 370 101Q411 101 448 116.5Q485 132 512.5 163Q540 194 556 240.5Q572 287 572 350Q572 413 556 460Q540 507 512.5 538Q485 569 448 584Q411 599 370 599Z" glyph-name="O" horiz-adv-x="741" unicode="O" /><glyph d="M36 350Q36 424 60.5 488Q85 552 129 599Q173 646 234.5 673Q296 700 370 700H955V595H608V412H878V309H608V103H955V0H361Q284 0 223.5 28Q163 56 121.5 103.5Q80 151 58 214.5Q36 278 36 350ZM478 105V595H376Q335 595 297 580Q259 565 230.5 534Q202 503 185 457Q168 411 168 350Q168 288 185 242Q202 196 230.5 165.5Q259 135 296.5 120Q334 105 375 105Z" glyph-name="OE" horiz-adv-x="993" unicode="&#338;" /><glyph d="M36 0ZM369 706Q448 706 510.5 677.5Q573 649 616 600.5Q659 552 681.5 487.5Q704 423 704 350Q704 275 679.5 210Q655 145 611 97Q567 49 505.5 21.5Q444 -6 370 -6Q291 -6 229 22.5Q167 51 124 100Q81 149 58.5 213.5Q36 278 36 349Q36 426 60.5 491.5Q85 557 129 604.5Q173 652 234 679Q295 706 369 706ZM370 599Q329 599 292.5 584Q256 569 228 538Q200 507 184 460Q168 413 168 349Q168 287 184 240.5Q200 194 228 163Q256 132 292.5 116.5Q329 101 370 101Q411 101 448 116.5Q485 132 512.5 163Q540 194 556 240.5Q572 287 572 350Q572 413 556 460Q540 507 512.5 538Q485 569 448 584Q411 599 370 599ZM435 953 504 878 310 766 265 817Z" glyph-name="Oacute" horiz-adv-x="741" unicode="&#211;" /><glyph d="M36 0ZM369 706Q448 706 510.5 677.5Q573 649 616 600.5Q659 552 681.5 487.5Q704 423 704 350Q704 275 679.5 210Q655 145 611 97Q567 49 505.5 21.5Q444 -6 370 -6Q291 -6 229 22.5Q167 51 124 100Q81 149 58.5 213.5Q36 278 36 349Q36 426 60.5 491.5Q85 557 129 604.5Q173 652 234 679Q295 706 369 706ZM370 599Q329 599 292.5 584Q256 569 228 538Q200 507 184 460Q168 413 168 349Q168 287 184 240.5Q200 194 228 163Q256 132 292.5 116.5Q329 101 370 101Q411 101 448 116.5Q485 132 512.5 163Q540 194 556 240.5Q572 287 572 350Q572 413 556 460Q540 507 512.5 538Q485 569 448 584Q411 599 370 599ZM480 773 370 845 261 773 209 821 371 944 532 821Z" glyph-name="Ocircumflex" horiz-adv-x="741" unicode="&#212;" /><glyph d="M36 0ZM369 706Q448 706 510.5 677.5Q573 649 616 600.5Q659 552 681.5 487.5Q704 423 704 350Q704 275 679.5 210Q655 145 611 97Q567 49 505.5 21.5Q444 -6 370 -6Q291 -6 229 22.5Q167 51 124 100Q81 149 58.5 213.5Q36 278 36 349Q36 426 60.5 491.5Q85 557 129 604.5Q173 652 234 679Q295 706 369 706ZM370 599Q329 599 292.5 584Q256 569 228 538Q200 507 184 460Q168 413 168 349Q168 287 184 240.5Q200 194 228 163Q256 132 292.5 116.5Q329 101 370 101Q411 101 448 116.5Q485 132 512.5 163Q540 194 556 240.5Q572 287 572 350Q572 413 556 460Q540 507 512.5 538Q485 569 448 584Q411 599 370 599ZM272 782Q243 782 224 801.5Q205 821 205 847Q205 875 224 894.5Q243 914 272 914Q300 914 320 894.5Q340 875 340 847Q340 821 320 801.5Q300 782 272 782ZM468 782Q439 782 419.5 801.5Q400 821 400 847Q400 875 419.5 894.5Q439 914 468 914Q496 914 515.5 894.5Q535 875 535 847Q535 821 515.5 801.5Q496 782 468 782Z" glyph-name="Odieresis" horiz-adv-x="741" unicode="&#214;" /><glyph d="M36 0ZM369 706Q448 706 510.5 677.5Q573 649 616 600.5Q659 552 681.5 487.5Q704 423 704 350Q704 275 679.5 210Q655 145 611 97Q567 49 505.5 21.5Q444 -6 370 -6Q291 -6 229 22.5Q167 51 124 100Q81 149 58.5 213.5Q36 278 36 349Q36 426 60.5 491.5Q85 557 129 604.5Q173 652 234 679Q295 706 369 706ZM370 599Q329 599 292.5 584Q256 569 228 538Q200 507 184 460Q168 413 168 349Q168 287 184 240.5Q200 194 228 163Q256 132 292.5 116.5Q329 101 370 101Q411 101 448 116.5Q485 132 512.5 163Q540 194 556 240.5Q572 287 572 350Q572 413 556 460Q540 507 512.5 538Q485 569 448 584Q411 599 370 599ZM429 766 236 878 304 953 475 817Z" glyph-name="Ograve" horiz-adv-x="741" unicode="&#210;" /><glyph d="M36 0ZM369 706Q448 706 510.5 677.5Q573 649 616 600.5Q659 552 681.5 487.5Q704 423 704 350Q704 275 679.5 210Q655 145 611 97Q567 49 505.5 21.5Q444 -6 370 -6Q291 -6 229 22.5Q167 51 124 100Q81 149 58.5 213.5Q36 278 36 349Q36 426 60.5 491.5Q85 557 129 604.5Q173 652 234 679Q295 706 369 706ZM370 599Q329 599 292.5 584Q256 569 228 538Q200 507 184 460Q168 413 168 349Q168 287 184 240.5Q200 194 228 163Q256 132 292.5 116.5Q329 101 370 101Q411 101 448 116.5Q485 132 512.5 163Q540 194 556 240.5Q572 287 572 350Q572 413 556 460Q540 507 512.5 538Q485 569 448 584Q411 599 370 599ZM246 806V884H495V806Z" glyph-name="Omacron" horiz-adv-x="741" unicode="&#332;" /><glyph d="M704 350Q704 275 679.5 210Q655 145 611 97Q567 49 505.5 21.5Q444 -6 370 -6Q313 -6 266 9Q219 24 181 50L138 -5H36L121 103Q79 152 57.5 215.5Q36 279 36 349Q36 426 60.5 491.5Q85 557 129 604.5Q173 652 234 679Q295 706 369 706Q423 706 469 692.5Q515 679 553 655L593 705H696L615 602Q659 553 681.5 488.5Q704 424 704 350ZM168 349Q168 304 176.5 268.5Q185 233 200 204L483 564Q458 582 429.5 590.5Q401 599 370 599Q329 599 292.5 584Q256 569 228 538Q200 507 184 460Q168 413 168 349ZM572 350Q572 398 563 436Q554 474 537 503L252 140Q303 101 370 101Q411 101 448 116.5Q485 132 512.5 163Q540 194 556 240.5Q572 287 572 350Z" glyph-name="Oslash" horiz-adv-x="740" unicode="&#216;" /><glyph d="M36 0ZM369 706Q448 706 510.5 677.5Q573 649 616 600.5Q659 552 681.5 487.5Q704 423 704 350Q704 275 679.5 210Q655 145 611 97Q567 49 505.5 21.5Q444 -6 370 -6Q291 -6 229 22.5Q167 51 124 100Q81 149 58.5 213.5Q36 278 36 349Q36 426 60.5 491.5Q85 557 129 604.5Q173 652 234 679Q295 706 369 706ZM370 599Q329 599 292.5 584Q256 569 228 538Q200 507 184 460Q168 413 168 349Q168 287 184 240.5Q200 194 228 163Q256 132 292.5 116.5Q329 101 370 101Q411 101 448 116.5Q485 132 512.5 163Q540 194 556 240.5Q572 287 572 350Q572 413 556 460Q540 507 512.5 538Q485 569 448 584Q411 599 370 599ZM187 799Q212 858 242 881.5Q272 905 306 905Q327 905 343.5 897Q360 889 374.5 880Q389 871 402 863Q415 855 429 855Q443 855 455 867.5Q467 880 483 906L552 880Q523 820 494 797Q465 774 431 774Q410 774 393.5 782Q377 790 362.5 799Q348 808 335 816Q322 824 308 824Q294 824 282 811.5Q270 799 256 773Z" glyph-name="Otilde" horiz-adv-x="741" unicode="&#213;" /><glyph d="M52 700H352Q398 700 437.5 685.5Q477 671 506.5 643.5Q536 616 553 575.5Q570 535 570 484Q570 434 551 393.5Q532 353 499.5 325Q467 297 423.5 282Q380 267 330 267H183V0H52ZM183 597V369H318Q380 369 411 400.5Q442 432 442 483Q442 537 411 567Q380 597 318 597Z" glyph-name="P" horiz-adv-x="598" unicode="P" /><glyph d="M659 -171Q614 -176 570 -168.5Q526 -161 487.5 -141Q449 -121 419 -87.5Q389 -54 374 -6H370Q291 -6 229 22.5Q167 51 124 100Q81 149 58.5 213.5Q36 278 36 349Q36 426 60.5 491.5Q85 557 129 604.5Q173 652 234 679Q295 706 369 706Q448 706 510.5 677.5Q573 649 616 600.5Q659 552 681.5 487.5Q704 423 704 350Q704 290 688.5 236.5Q673 183 644.5 139.5Q616 96 575.5 63.5Q535 31 485 13Q507 -29 555 -49Q603 -69 663 -61ZM370 599Q329 599 292.5 584Q256 569 228 538Q200 507 184 460Q168 413 168 349Q168 287 184 240.5Q200 194 228 163Q256 132 292.5 116.5Q329 101 370 101Q411 101 448 116.5Q485 132 512.5 163Q540 194 556 240.5Q572 287 572 350Q572 413 556 460Q540 507 512.5 538Q485 569 448 584Q411 599 370 599Z" glyph-name="Q" horiz-adv-x="740" unicode="Q" /><glyph d="M53 700H366Q409 700 447 685.5Q485 671 513 644.5Q541 618 557 579.5Q573 541 573 493Q573 415 530 363.5Q487 312 420 293L602 0H454L288 283H183V0H53ZM183 597V385H331Q388 385 416.5 414Q445 443 445 489Q445 538 416.5 567.5Q388 597 331 597Z" glyph-name="R" horiz-adv-x="604" unicode="R" /><glyph d="M53 0ZM53 700H366Q409 700 447 685.5Q485 671 513 644.5Q541 618 557 579.5Q573 541 573 493Q573 415 530 363.5Q487 312 420 293L602 0H454L288 283H183V0H53ZM183 597V385H331Q388 385 416.5 414Q445 443 445 489Q445 538 416.5 567.5Q388 597 331 597ZM368 953 437 878 243 766 198 817Z" glyph-name="Racute" horiz-adv-x="604" unicode="&#340;" /><glyph d="M53 0ZM53 700H366Q409 700 447 685.5Q485 671 513 644.5Q541 618 557 579.5Q573 541 573 493Q573 415 530 363.5Q487 312 420 293L602 0H454L288 283H183V0H53ZM183 597V385H331Q388 385 416.5 414Q445 443 445 489Q445 538 416.5 567.5Q388 597 331 597ZM304 776 142 899 194 947 304 875 413 947 465 899Z" glyph-name="Rcaron" horiz-adv-x="604" unicode="&#344;" /><glyph d="M122 196Q155 141 207 117.5Q259 94 316 94Q351 94 376 101.5Q401 109 416.5 121.5Q432 134 439.5 151Q447 168 447 187Q447 210 429.5 233.5Q412 257 360 271L189 318Q112 339 74 386.5Q36 434 36 500Q36 546 54 584Q72 622 104.5 649Q137 676 182 691Q227 706 282 706Q330 706 371.5 695Q413 684 447 665Q481 646 508 620Q535 594 555 565L441 518Q410 560 368.5 582.5Q327 605 279 605Q219 605 190.5 580Q162 555 162 518Q162 504 166 491.5Q170 479 182 467Q194 455 215 444.5Q236 434 269 425L402 389Q497 363 536.5 315.5Q576 268 576 202Q576 160 559.5 122Q543 84 510 55.5Q477 27 428.5 10.5Q380 -6 316 -6Q214 -6 136 31.5Q58 69 11 138Z" glyph-name="S" horiz-adv-x="606" unicode="S" /><glyph d="M11 0ZM122 196Q155 141 207 117.5Q259 94 316 94Q351 94 376 101.5Q401 109 416.5 121.5Q432 134 439.5 151Q447 168 447 187Q447 210 429.5 233.5Q412 257 360 271L189 318Q112 339 74 386.5Q36 434 36 500Q36 546 54 584Q72 622 104.5 649Q137 676 182 691Q227 706 282 706Q330 706 371.5 695Q413 684 447 665Q481 646 508 620Q535 594 555 565L441 518Q410 560 368.5 582.5Q327 605 279 605Q219 605 190.5 580Q162 555 162 518Q162 504 166 491.5Q170 479 182 467Q194 455 215 444.5Q236 434 269 425L402 389Q497 363 536.5 315.5Q576 268 576 202Q576 160 559.5 122Q543 84 510 55.5Q477 27 428.5 10.5Q380 -6 316 -6Q214 -6 136 31.5Q58 69 11 138ZM355 953 424 878 230 766 185 817Z" glyph-name="Sacute" horiz-adv-x="606" unicode="&#346;" /><glyph d="M11 0ZM122 196Q155 141 207 117.5Q259 94 316 94Q351 94 376 101.5Q401 109 416.5 121.5Q432 134 439.5 151Q447 168 447 187Q447 210 429.5 233.5Q412 257 360 271L189 318Q112 339 74 386.5Q36 434 36 500Q36 546 54 584Q72 622 104.5 649Q137 676 182 691Q227 706 282 706Q330 706 371.5 695Q413 684 447 665Q481 646 508 620Q535 594 555 565L441 518Q410 560 368.5 582.5Q327 605 279 605Q219 605 190.5 580Q162 555 162 518Q162 504 166 491.5Q170 479 182 467Q194 455 215 444.5Q236 434 269 425L402 389Q497 363 536.5 315.5Q576 268 576 202Q576 160 559.5 122Q543 84 510 55.5Q477 27 428.5 10.5Q380 -6 316 -6Q214 -6 136 31.5Q58 69 11 138ZM291 776 129 899 181 947 291 875 400 947 452 899Z" glyph-name="Scaron" horiz-adv-x="606" unicode="&#352;" /><glyph d="M420 -115Q420 -157 389 -184.5Q358 -212 302 -212Q254 -212 224 -192.5Q194 -173 183 -142L245 -119Q253 -135 267 -142Q281 -149 299 -149Q324 -149 334 -137.5Q344 -126 344 -114Q344 -103 334.5 -92Q325 -81 302 -81H250L275 -4Q187 3 120 39.5Q53 76 11 138L122 196Q155 141 207 117.5Q259 94 316 94Q351 94 376 101.5Q401 109 416.5 121.5Q432 134 439.5 151Q447 168 447 187Q447 210 429.5 233.5Q412 257 360 271L189 318Q112 339 74 386.5Q36 434 36 500Q36 546 54 584Q72 622 104.5 649Q137 676 182 691Q227 706 282 706Q330 706 371.5 695Q413 684 447 665Q481 646 508 620Q535 594 555 565L441 518Q410 560 368.5 582.5Q327 605 279 605Q219 605 190.5 580Q162 555 162 518Q162 504 166 491.5Q170 479 182 467Q194 455 215 444.5Q236 434 269 425L402 389Q497 363 536.5 315.5Q576 268 576 202Q576 162 561 126Q546 90 517 62.5Q488 35 445 17Q402 -1 345 -5L333 -31Q380 -36 400 -61Q420 -86 420 -115Z" glyph-name="Scedilla" horiz-adv-x="606" unicode="&#350;" /><glyph d="M11 0ZM122 196Q155 141 207 117.5Q259 94 316 94Q351 94 376 101.5Q401 109 416.5 121.5Q432 134 439.5 151Q447 168 447 187Q447 210 429.5 233.5Q412 257 360 271L189 318Q112 339 74 386.5Q36 434 36 500Q36 546 54 584Q72 622 104.5 649Q137 676 182 691Q227 706 282 706Q330 706 371.5 695Q413 684 447 665Q481 646 508 620Q535 594 555 565L441 518Q410 560 368.5 582.5Q327 605 279 605Q219 605 190.5 580Q162 555 162 518Q162 504 166 491.5Q170 479 182 467Q194 455 215 444.5Q236 434 269 425L402 389Q497 363 536.5 315.5Q576 268 576 202Q576 160 559.5 122Q543 84 510 55.5Q477 27 428.5 10.5Q380 -6 316 -6Q214 -6 136 31.5Q58 69 11 138ZM400 773 290 845 181 773 129 821 291 944 452 821Z" glyph-name="Scircumflex" horiz-adv-x="606" unicode="&#348;" /><glyph d="M17 700H597V595H373V0H242V595H17Z" glyph-name="T" horiz-adv-x="615" unicode="T" /><glyph d="M17 700H597V595H373V0H349L335 -31Q382 -36 402 -61Q422 -86 422 -115Q422 -157 391 -184.5Q360 -212 304 -212Q256 -212 226 -192.5Q196 -173 185 -142L247 -119Q255 -135 269 -142Q283 -149 301 -149Q326 -149 336 -137.5Q346 -126 346 -114Q346 -103 336.5 -92Q327 -81 304 -81H252L278 0H242V595H17Z" glyph-name="Tcommaaccent" horiz-adv-x="615" unicode="&#538;" /><glyph d="M601 260Q601 199 581 150Q561 101 525 66.5Q489 32 438 13Q387 -6 324 -6Q259 -6 207.5 13Q156 32 121 66Q86 100 67.5 147.5Q49 195 49 252V700H180V259Q180 220 192.5 190.5Q205 161 225.5 141Q246 121 272.5 111Q299 101 328 101Q358 101 385.5 111Q413 121 434 141Q455 161 467.5 190.5Q480 220 480 260V700H601V260Z" glyph-name="U" horiz-adv-x="650" unicode="U" /><glyph d="M49 0ZM601 260Q601 199 581 150Q561 101 525 66.5Q489 32 438 13Q387 -6 324 -6Q259 -6 207.5 13Q156 32 121 66Q86 100 67.5 147.5Q49 195 49 252V700H180V259Q180 220 192.5 190.5Q205 161 225.5 141Q246 121 272.5 111Q299 101 328 101Q358 101 385.5 111Q413 121 434 141Q455 161 467.5 190.5Q480 220 480 260V700H601V260ZM391 953 460 878 266 766 221 817Z" glyph-name="Uacute" horiz-adv-x="650" unicode="&#218;" /><glyph d="M49 0ZM601 260Q601 199 581 150Q561 101 525 66.5Q489 32 438 13Q387 -6 324 -6Q259 -6 207.5 13Q156 32 121 66Q86 100 67.5 147.5Q49 195 49 252V700H180V259Q180 220 192.5 190.5Q205 161 225.5 141Q246 121 272.5 111Q299 101 328 101Q358 101 385.5 111Q413 121 434 141Q455 161 467.5 190.5Q480 220 480 260V700H601V260ZM436 773 326 845 217 773 165 821 327 944 488 821Z" glyph-name="Ucircumflex" horiz-adv-x="650" unicode="&#219;" /><glyph d="M49 0ZM601 260Q601 199 581 150Q561 101 525 66.5Q489 32 438 13Q387 -6 324 -6Q259 -6 207.5 13Q156 32 121 66Q86 100 67.5 147.5Q49 195 49 252V700H180V259Q180 220 192.5 190.5Q205 161 225.5 141Q246 121 272.5 111Q299 101 328 101Q358 101 385.5 111Q413 121 434 141Q455 161 467.5 190.5Q480 220 480 260V700H601V260ZM228 782Q199 782 180 801.5Q161 821 161 847Q161 875 180 894.5Q199 914 228 914Q256 914 276 894.5Q296 875 296 847Q296 821 276 801.5Q256 782 228 782ZM424 782Q395 782 375.5 801.5Q356 821 356 847Q356 875 375.5 894.5Q395 914 424 914Q452 914 471.5 894.5Q491 875 491 847Q491 821 471.5 801.5Q452 782 424 782Z" glyph-name="Udieresis" horiz-adv-x="650" unicode="&#220;" /><glyph d="M49 0ZM601 260Q601 199 581 150Q561 101 525 66.5Q489 32 438 13Q387 -6 324 -6Q259 -6 207.5 13Q156 32 121 66Q86 100 67.5 147.5Q49 195 49 252V700H180V259Q180 220 192.5 190.5Q205 161 225.5 141Q246 121 272.5 111Q299 101 328 101Q358 101 385.5 111Q413 121 434 141Q455 161 467.5 190.5Q480 220 480 260V700H601V260ZM384 766 191 878 259 953 430 817Z" glyph-name="Ugrave" horiz-adv-x="650" unicode="&#217;" /><glyph d="M49 0ZM601 260Q601 199 581 150Q561 101 525 66.5Q489 32 438 13Q387 -6 324 -6Q259 -6 207.5 13Q156 32 121 66Q86 100 67.5 147.5Q49 195 49 252V700H180V259Q180 220 192.5 190.5Q205 161 225.5 141Q246 121 272.5 111Q299 101 328 101Q358 101 385.5 111Q413 121 434 141Q455 161 467.5 190.5Q480 220 480 260V700H601V260ZM202 806V884H451V806Z" glyph-name="Umacron" horiz-adv-x="650" unicode="&#362;" /><glyph d="M49 0ZM601 260Q601 199 581 150Q561 101 525 66.5Q489 32 438 13Q387 -6 324 -6Q259 -6 207.5 13Q156 32 121 66Q86 100 67.5 147.5Q49 195 49 252V700H180V259Q180 220 192.5 190.5Q205 161 225.5 141Q246 121 272.5 111Q299 101 328 101Q358 101 385.5 111Q413 121 434 141Q455 161 467.5 190.5Q480 220 480 260V700H601V260ZM143 799Q168 858 198 881.5Q228 905 262 905Q283 905 299.5 897Q316 889 330.5 880Q345 871 358 863Q371 855 385 855Q399 855 411 867.5Q423 880 439 906L508 880Q479 820 450 797Q421 774 387 774Q366 774 349.5 782Q333 790 318.5 799Q304 808 291 816Q278 824 264 824Q250 824 238 811.5Q226 799 212 773Z" glyph-name="Utilde" horiz-adv-x="650" unicode="&#360;" /><glyph d="M408 0H273L11 700H153L350 145L550 700H672Z" glyph-name="V" horiz-adv-x="684" unicode="V" /><glyph d="M807 0H665L535 418L506 513L478 418L346 0H206L27 700H163L262 298L292 167L333 298L459 700H568L696 298L737 164L769 298L867 700H983Z" glyph-name="W" horiz-adv-x="1011" unicode="W" /><glyph d="M27 0ZM807 0H665L535 418L506 513L478 418L346 0H206L27 700H163L262 298L292 167L333 298L459 700H568L696 298L737 164L769 298L867 700H983ZM571 953 640 878 446 766 401 817Z" glyph-name="Wacute" horiz-adv-x="1011" unicode="&#7810;" /><glyph d="M27 0ZM807 0H665L535 418L506 513L478 418L346 0H206L27 700H163L262 298L292 167L333 298L459 700H568L696 298L737 164L769 298L867 700H983ZM616 773 506 845 397 773 345 821 507 944 668 821Z" glyph-name="Wcircumflex" horiz-adv-x="1011" unicode="&#372;" /><glyph d="M27 0ZM807 0H665L535 418L506 513L478 418L346 0H206L27 700H163L262 298L292 167L333 298L459 700H568L696 298L737 164L769 298L867 700H983ZM408 782Q379 782 360 801.5Q341 821 341 847Q341 875 360 894.5Q379 914 408 914Q436 914 456 894.5Q476 875 476 847Q476 821 456 801.5Q436 782 408 782ZM604 782Q575 782 555.5 801.5Q536 821 536 847Q536 875 555.5 894.5Q575 914 604 914Q632 914 651.5 894.5Q671 875 671 847Q671 821 651.5 801.5Q632 782 604 782Z" glyph-name="Wdieresis" horiz-adv-x="1011" unicode="&#7812;" /><glyph d="M27 0ZM807 0H665L535 418L506 513L478 418L346 0H206L27 700H163L262 298L292 167L333 298L459 700H568L696 298L737 164L769 298L867 700H983ZM564 766 371 878 439 953 610 817Z" glyph-name="Wgrave" horiz-adv-x="1011" unicode="&#7808;" /><glyph d="M349 275 153 0H11L281 359L29 700H188L360 458L531 700H671L426 374L705 0H546Z" glyph-name="X" horiz-adv-x="717" unicode="X" /><glyph d="M393 0H262V295L12 700H156L334 399L512 700H643L393 295Z" glyph-name="Y" horiz-adv-x="655" unicode="Y" /><glyph d="M12 0ZM393 0H262V295L12 700H156L334 399L512 700H643L393 295ZM393 953 462 878 268 766 223 817Z" glyph-name="Yacute" horiz-adv-x="655" unicode="&#221;" /><glyph d="M12 0ZM393 0H262V295L12 700H156L334 399L512 700H643L393 295ZM438 773 328 845 219 773 167 821 329 944 490 821Z" glyph-name="Ycircumflex" horiz-adv-x="655" unicode="&#374;" /><glyph d="M12 0ZM393 0H262V295L12 700H156L334 399L512 700H643L393 295ZM230 782Q201 782 182 801.5Q163 821 163 847Q163 875 182 894.5Q201 914 230 914Q258 914 278 894.5Q298 875 298 847Q298 821 278 801.5Q258 782 230 782ZM426 782Q397 782 377.5 801.5Q358 821 358 847Q358 875 377.5 894.5Q397 914 426 914Q454 914 473.5 894.5Q493 875 493 847Q493 821 473.5 801.5Q454 782 426 782Z" glyph-name="Ydieresis" horiz-adv-x="655" unicode="&#376;" /><glyph d="M12 0ZM393 0H262V295L12 700H156L334 399L512 700H643L393 295ZM387 766 194 878 262 953 433 817Z" glyph-name="Ygrave" horiz-adv-x="655" unicode="&#7922;" /><glyph d="M556 0H22V81L396 595H31V700H554V610L188 105H556Z" glyph-name="Z" horiz-adv-x="579" unicode="Z" /><glyph d="M22 0ZM556 0H22V81L396 595H31V700H554V610L188 105H556ZM355 953 424 878 230 766 185 817Z" glyph-name="Zacute" horiz-adv-x="579" unicode="&#377;" /><glyph d="M22 0ZM556 0H22V81L396 595H31V700H554V610L188 105H556ZM291 776 129 899 181 947 291 875 400 947 452 899Z" glyph-name="Zcaron" horiz-adv-x="579" unicode="&#381;" /><glyph d="M22 0ZM556 0H22V81L396 595H31V700H554V610L188 105H556ZM290 782Q261 782 242 801.5Q223 821 223 847Q223 875 242 894.5Q261 914 290 914Q318 914 337.5 894.5Q357 875 357 847Q357 821 337.5 801.5Q318 782 290 782Z" glyph-name="Zdotaccent" horiz-adv-x="579" unicode="&#379;" /><glyph d="M354 0Q352 20 351.5 39Q351 58 350 78Q321 37 275 15.5Q229 -6 178 -6Q109 -6 66.5 29.5Q24 65 24 127Q24 187 67.5 223.5Q111 260 203 280L350 312V320Q350 367 324.5 393Q299 419 254 419Q209 419 179 397Q149 375 133 337L34 369Q61 435 119.5 473Q178 511 259 511Q363 511 415.5 460.5Q468 410 468 327V70Q468 56 468.5 35Q469 14 471 0ZM140 137Q140 110 161 94.5Q182 79 217 79Q236 79 257 85Q278 91 296 102.5Q314 114 328.5 130.5Q343 147 350 167V234L221 204Q181 195 160.5 179Q140 163 140 137Z" glyph-name="a" horiz-adv-x="513" unicode="a" /><glyph d="M412 68Q385 33 346 13.5Q307 -6 263 -6Q212 -6 169.5 13Q127 32 96.5 66Q66 100 49 148Q32 196 32 253Q32 310 50 357.5Q68 405 99.5 439Q131 473 174.5 492Q218 511 269 511Q314 511 354 491.5Q394 472 420 437L437 505H532V0H416ZM150 252Q150 213 161 182.5Q172 152 190.5 131Q209 110 234.5 99Q260 88 290 88Q331 88 363 107Q395 126 413 162V341Q395 377 363 396Q331 415 290 415Q260 415 234.5 404.5Q209 394 190.5 373Q172 352 161 321.5Q150 291 150 252Z" glyph-name="a.school" horiz-adv-x="577" /><glyph d="M24 0ZM354 0Q352 20 351.5 39Q351 58 350 78Q321 37 275 15.5Q229 -6 178 -6Q109 -6 66.5 29.5Q24 65 24 127Q24 187 67.5 223.5Q111 260 203 280L350 312V320Q350 367 324.5 393Q299 419 254 419Q209 419 179 397Q149 375 133 337L34 369Q61 435 119.5 473Q178 511 259 511Q363 511 415.5 460.5Q468 410 468 327V70Q468 56 468.5 35Q469 14 471 0ZM140 137Q140 110 161 94.5Q182 79 217 79Q236 79 257 85Q278 91 296 102.5Q314 114 328.5 130.5Q343 147 350 167V234L221 204Q181 195 160.5 179Q140 163 140 137ZM317 758 386 683 192 571 147 622Z" glyph-name="aacute" horiz-adv-x="513" unicode="&#225;" /><glyph d="M24 0ZM354 0Q352 20 351.5 39Q351 58 350 78Q321 37 275 15.5Q229 -6 178 -6Q109 -6 66.5 29.5Q24 65 24 127Q24 187 67.5 223.5Q111 260 203 280L350 312V320Q350 367 324.5 393Q299 419 254 419Q209 419 179 397Q149 375 133 337L34 369Q61 435 119.5 473Q178 511 259 511Q363 511 415.5 460.5Q468 410 468 327V70Q468 56 468.5 35Q469 14 471 0ZM140 137Q140 110 161 94.5Q182 79 217 79Q236 79 257 85Q278 91 296 102.5Q314 114 328.5 130.5Q343 147 350 167V234L221 204Q181 195 160.5 179Q140 163 140 137ZM363 578 253 650 144 578 92 626 254 749 415 626Z" glyph-name="acircumflex" horiz-adv-x="513" unicode="&#226;" /><glyph d="M315 758 384 683 190 571 145 622Z" glyph-name="acute" horiz-adv-x="500" unicode="&#180;" /><glyph d="M24 0ZM354 0Q352 20 351.5 39Q351 58 350 78Q321 37 275 15.5Q229 -6 178 -6Q109 -6 66.5 29.5Q24 65 24 127Q24 187 67.5 223.5Q111 260 203 280L350 312V320Q350 367 324.5 393Q299 419 254 419Q209 419 179 397Q149 375 133 337L34 369Q61 435 119.5 473Q178 511 259 511Q363 511 415.5 460.5Q468 410 468 327V70Q468 56 468.5 35Q469 14 471 0ZM140 137Q140 110 161 94.5Q182 79 217 79Q236 79 257 85Q278 91 296 102.5Q314 114 328.5 130.5Q343 147 350 167V234L221 204Q181 195 160.5 179Q140 163 140 137ZM154 587Q125 587 106 606.5Q87 626 87 652Q87 680 106 699.5Q125 719 154 719Q182 719 202 699.5Q222 680 222 652Q222 626 202 606.5Q182 587 154 587ZM350 587Q321 587 301.5 606.5Q282 626 282 652Q282 680 301.5 699.5Q321 719 350 719Q378 719 397.5 699.5Q417 680 417 652Q417 626 397.5 606.5Q378 587 350 587Z" glyph-name="adieresis" horiz-adv-x="513" unicode="&#228;" /><glyph d="M594 -5Q528 -5 475 24Q422 53 389 104Q358 53 307 23.5Q256 -6 184 -6Q112 -6 67 30.5Q22 67 22 127Q22 162 36.5 188Q51 214 80.5 233.5Q110 253 153.5 267.5Q197 282 255 294L347 313V320Q347 371 319.5 394.5Q292 418 250 418Q210 418 178.5 399Q147 380 130 337L33 375Q64 437 123.5 474Q183 511 261 511Q319 511 358.5 491.5Q398 472 421 438Q482 511 585 511Q639 511 683 492.5Q727 474 757.5 440.5Q788 407 804.5 360.5Q821 314 821 258V233H463Q466 195 478 167.5Q490 140 508 122Q526 104 549 95.5Q572 87 596 87Q637 87 670 106.5Q703 126 720 165L817 132Q805 104 785 79Q765 54 737.5 35.5Q710 17 674 6Q638 -5 594 -5ZM589 420Q546 420 512.5 392.5Q479 365 467 309H706Q699 363 669 391.5Q639 420 589 420ZM137 136Q137 110 157 95Q177 80 209 80Q232 80 254 86.5Q276 93 295 105.5Q314 118 327.5 136Q341 154 347 176V234L273 218Q206 204 171.5 186Q137 168 137 136Z" glyph-name="ae" horiz-adv-x="855" unicode="&#230;" /><glyph d="M24 0ZM354 0Q352 20 351.5 39Q351 58 350 78Q321 37 275 15.5Q229 -6 178 -6Q109 -6 66.5 29.5Q24 65 24 127Q24 187 67.5 223.5Q111 260 203 280L350 312V320Q350 367 324.5 393Q299 419 254 419Q209 419 179 397Q149 375 133 337L34 369Q61 435 119.5 473Q178 511 259 511Q363 511 415.5 460.5Q468 410 468 327V70Q468 56 468.5 35Q469 14 471 0ZM140 137Q140 110 161 94.5Q182 79 217 79Q236 79 257 85Q278 91 296 102.5Q314 114 328.5 130.5Q343 147 350 167V234L221 204Q181 195 160.5 179Q140 163 140 137ZM311 571 118 683 186 758 357 622Z" glyph-name="agrave" horiz-adv-x="513" unicode="&#224;" /><glyph d="M24 0ZM354 0Q352 20 351.5 39Q351 58 350 78Q321 37 275 15.5Q229 -6 178 -6Q109 -6 66.5 29.5Q24 65 24 127Q24 187 67.5 223.5Q111 260 203 280L350 312V320Q350 367 324.5 393Q299 419 254 419Q209 419 179 397Q149 375 133 337L34 369Q61 435 119.5 473Q178 511 259 511Q363 511 415.5 460.5Q468 410 468 327V70Q468 56 468.5 35Q469 14 471 0ZM140 137Q140 110 161 94.5Q182 79 217 79Q236 79 257 85Q278 91 296 102.5Q314 114 328.5 130.5Q343 147 350 167V234L221 204Q181 195 160.5 179Q140 163 140 137ZM128 611V689H377V611Z" glyph-name="amacron" horiz-adv-x="513" unicode="&#257;" /><glyph d="M461 67Q365 -6 258 -6Q210 -6 169 7Q128 20 98 44Q68 68 51 102.5Q34 137 34 180Q34 249 68.5 292.5Q103 336 172 368L179 371L176 374Q138 416 120.5 453.5Q103 491 103 529Q103 568 117.5 600Q132 632 158.5 655.5Q185 679 222.5 692Q260 705 305 705Q352 705 388 691.5Q424 678 449 655.5Q474 633 486.5 603.5Q499 574 499 543Q499 495 470 450Q441 405 367 368L349 359L474 223Q497 255 519 293.5Q541 332 562 380L672 358Q618 232 545 147L682 0H523ZM287 425 295 429Q345 452 364.5 478.5Q384 505 384 537Q384 570 362 590Q340 610 305 610Q270 610 247 589Q224 568 224 533Q224 506 238 484Q252 462 274 439ZM162 193Q162 151 192 123.5Q222 96 276 96Q335 96 394 139L243 302Q204 282 183 255.5Q162 229 162 193Z" glyph-name="ampersand" horiz-adv-x="700" unicode="&amp;" /><glyph d="M252 477 145 299H35L212 581H296L473 299H358Z" glyph-name="asciicircum" horiz-adv-x="513" unicode="^" /><glyph d="M10 332Q39 396 78.5 431Q118 466 159 466Q188 466 209 455Q230 444 248 431Q266 418 282.5 407Q299 396 318 396Q352 396 388 465L464 438Q435 372 395 338Q355 304 314 304Q286 304 265 315Q244 326 226 339Q208 352 192 363Q176 374 157 374Q123 374 86 305Z" glyph-name="asciitilde" horiz-adv-x="473" unicode="~" /><glyph d="M368 244 270 392 171 244 86 306 197 446 25 493 57 594 224 531 216 710H322L314 531L482 594L514 494L342 446L453 306Z" glyph-name="asterisk" horiz-adv-x="538" unicode="*" /><glyph d="M591 -167Q543 -192 494 -203.5Q445 -215 394 -215Q313 -215 247 -189Q181 -163 134 -117.5Q87 -72 61.5 -10.5Q36 51 36 122Q36 210 66.5 285.5Q97 361 150 415.5Q203 470 274 501Q345 532 426 532Q501 532 564 509Q627 486 673 444.5Q719 403 744.5 346Q770 289 770 222Q770 107 718 40.5Q666 -26 575 -26Q530 -26 502 -8Q474 10 463 42Q442 8 411 -10Q380 -28 346 -28Q318 -28 293.5 -17Q269 -6 251 14.5Q233 35 222.5 63Q212 91 212 126Q212 169 226 207.5Q240 246 265 275.5Q290 305 324 322Q358 339 399 339Q433 339 459 325.5Q485 312 501 288L518 324H593L549 92Q544 69 557 52.5Q570 36 599 36Q626 36 646 50Q666 64 679.5 89Q693 114 700 147Q707 180 707 218Q707 276 684.5 324Q662 372 623.5 406Q585 440 533 458.5Q481 477 421 477Q352 477 293 449Q234 421 191.5 373.5Q149 326 125 262.5Q101 199 101 128Q101 64 123 11Q145 -42 184.5 -80Q224 -118 277.5 -139Q331 -160 394 -160Q485 -160 565 -118ZM302 134Q302 93 323 68Q344 43 379 43Q402 43 423 55.5Q444 68 458 92Q458 97 458.5 100.5Q459 104 460 109L480 221Q460 265 411 265Q387 265 366.5 254.5Q346 244 332 226Q318 208 310 184.5Q302 161 302 134Z" glyph-name="at" horiz-adv-x="800" unicode="@" /><glyph d="M36 0ZM591 8Q543 -17 494 -28.5Q445 -40 394 -40Q313 -40 247 -14Q181 12 134 57.5Q87 103 61.5 164.5Q36 226 36 297Q36 385 66.5 460.5Q97 536 150 590.5Q203 645 274 676Q345 707 426 707Q501 707 564 684Q627 661 673 619.5Q719 578 744.5 521Q770 464 770 397Q770 282 718 215.5Q666 149 575 149Q530 149 502 167Q474 185 463 217Q442 183 411 165Q380 147 346 147Q318 147 293.5 158Q269 169 251 189.5Q233 210 222.5 238Q212 266 212 301Q212 344 226 382.5Q240 421 265 450.5Q290 480 324 497Q358 514 399 514Q433 514 459 500.5Q485 487 501 463L518 499H593L549 267Q544 244 557 227.5Q570 211 599 211Q626 211 646 225Q666 239 679.5 264Q693 289 700 322Q707 355 707 393Q707 451 684.5 499Q662 547 623.5 581Q585 615 533 633.5Q481 652 421 652Q352 652 293 624Q234 596 191.5 548.5Q149 501 125 437.5Q101 374 101 303Q101 239 123 186Q145 133 184.5 95Q224 57 277.5 36Q331 15 394 15Q485 15 565 57ZM302 309Q302 268 323 243Q344 218 379 218Q402 218 423 230.5Q444 243 458 267Q458 272 458.5 275.5Q459 279 460 284L480 396Q460 440 411 440Q387 440 366.5 429.5Q346 419 332 401Q318 383 310 359.5Q302 336 302 309Z" glyph-name="at.cap" horiz-adv-x="800" /><glyph d="M24 0ZM354 0Q352 20 351.5 39Q351 58 350 78Q321 37 275 15.5Q229 -6 178 -6Q109 -6 66.5 29.5Q24 65 24 127Q24 187 67.5 223.5Q111 260 203 280L350 312V320Q350 367 324.5 393Q299 419 254 419Q209 419 179 397Q149 375 133 337L34 369Q61 435 119.5 473Q178 511 259 511Q363 511 415.5 460.5Q468 410 468 327V70Q468 56 468.5 35Q469 14 471 0ZM140 137Q140 110 161 94.5Q182 79 217 79Q236 79 257 85Q278 91 296 102.5Q314 114 328.5 130.5Q343 147 350 167V234L221 204Q181 195 160.5 179Q140 163 140 137ZM69 604Q94 663 124 686.5Q154 710 188 710Q209 710 225.5 702Q242 694 256.5 685Q271 676 284 668Q297 660 311 660Q325 660 337 672.5Q349 685 365 711L434 685Q405 625 376 602Q347 579 313 579Q292 579 275.5 587Q259 595 244.5 604Q230 613 217 621Q204 629 190 629Q176 629 164 616.5Q152 604 138 578Z" glyph-name="atilde" horiz-adv-x="513" unicode="&#227;" /><glyph d="M545 255Q545 198 528 150Q511 102 480 67.5Q449 33 406 13.5Q363 -6 311 -6Q264 -6 223.5 14Q183 34 157 69L138 0H45V700H164V433Q191 470 231.5 490.5Q272 511 317 511Q368 511 410 492Q452 473 482 439Q512 405 528.5 358Q545 311 545 255ZM289 414Q247 414 214 393.5Q181 373 164 334V167Q181 128 214 107.5Q247 87 289 87Q349 87 388 129Q427 171 427 251Q427 290 416.5 320.5Q406 351 387.5 371.5Q369 392 344 403Q319 414 289 414Z" glyph-name="b" horiz-adv-x="577" unicode="b" /><glyph d="M350 -200 0 700H123L473 -200Z" glyph-name="backslash" horiz-adv-x="414" unicode="\" /><glyph d="M45 700H164V-200H45Z" glyph-name="bar" horiz-adv-x="209" unicode="|" /><glyph d="M271 -210Q219 -196 184.5 -178Q150 -160 129 -138.5Q108 -117 99.5 -90.5Q91 -64 91 -34Q91 -12 99.5 10.5Q108 33 118.5 55Q129 77 137.5 97.5Q146 118 146 136Q146 170 128.5 188.5Q111 207 65 208H11V297H65Q111 298 128.5 316.5Q146 335 146 369Q146 387 137.5 407.5Q129 428 118.5 450Q108 472 99.5 494.5Q91 517 91 539Q91 569 99.5 595Q108 621 129 643Q150 665 184.5 683Q219 701 271 715L314 640Q281 629 260.5 617.5Q240 606 228 593Q216 580 212 565Q208 550 208 534Q208 514 216 493.5Q224 473 234 453Q244 433 252 413.5Q260 394 260 375Q260 332 236 304Q212 276 170 252Q212 229 236 201Q260 173 260 130Q260 111 252 91.5Q244 72 234 52Q224 32 216 11.5Q208 -9 208 -29Q208 -46 212 -60.5Q216 -75 228 -88Q240 -101 260.5 -113Q281 -125 314 -135Z" glyph-name="braceleft" horiz-adv-x="329" unicode="{" /><glyph d="M238 -34Q238 -64 229.5 -90Q221 -116 200 -138Q179 -160 144.5 -178Q110 -196 58 -210L15 -135Q48 -125 68.5 -113Q89 -101 101 -88Q113 -75 117 -60.5Q121 -46 121 -29Q121 -9 113 11.5Q105 32 95 52Q85 72 77 91.5Q69 111 69 130Q69 173 93 201Q117 229 159 253Q117 276 93 304Q69 332 69 375Q69 394 77 413.5Q85 433 95 453Q105 473 113 493.5Q121 514 121 534Q121 550 117 565Q113 580 101 593Q89 606 68.5 617.5Q48 629 15 640L58 715Q110 701 144.5 683Q179 665 200 643.5Q221 622 229.5 595.5Q238 569 238 539Q238 517 229.5 494.5Q221 472 210.5 450Q200 428 191.5 407.5Q183 387 183 369Q183 335 200.5 316.5Q218 298 264 297H318V208H264Q218 207 200.5 188.5Q183 170 183 136Q183 118 191.5 97.5Q200 77 210.5 55Q221 33 229.5 10.5Q238 -12 238 -34Z" glyph-name="braceright" horiz-adv-x="329" unicode="}" /><glyph d="M50 700H316V605H174V-105H316V-200H50Z" glyph-name="bracketleft" horiz-adv-x="338" unicode="[" /><glyph d="M288 -200H22V-105H164V605H22V700H288Z" glyph-name="bracketright" horiz-adv-x="338" unicode="]" /><glyph d="M40 257ZM167.27 506.2764Q219.8383 506.2764 256.9986 470.0224Q294.159 433.7684 294.159 381.2001Q294.159 328.6318 256.9986 293.2842Q219.8383 257.9365 167.27 257.9365Q114.7017 257.9365 77.5413 293.2842Q40.381 328.6318 40.381 381.2001Q40.381 433.7684 77.5413 470.0224Q114.7017 506.2764 167.27 506.2764Z" glyph-name="bullet" horiz-adv-x="327" unicode="&#8226;" /><glyph d="M509 175Q500 139 481 106Q462 73 432.5 48.5Q403 24 364 9.5Q325 -5 277 -5Q223 -5 178.5 14Q134 33 101.5 67.5Q69 102 51 149.5Q33 197 33 254Q33 310 51 357.5Q69 405 102 439.5Q135 474 180 493Q225 512 279 512Q368 512 426 467Q484 422 507 343L400 320Q385 367 354 391Q323 415 280 415Q255 415 231.5 405.5Q208 396 190 376Q172 356 161 325.5Q150 295 150 253Q150 211 161 180Q172 149 190.5 129Q209 109 232.5 99.5Q256 90 282 90Q327 90 360.5 118.5Q394 147 405 194Z" glyph-name="c" horiz-adv-x="535" unicode="c" /><glyph d="M33 0ZM509 175Q500 139 481 106Q462 73 432.5 48.5Q403 24 364 9.5Q325 -5 277 -5Q223 -5 178.5 14Q134 33 101.5 67.5Q69 102 51 149.5Q33 197 33 254Q33 310 51 357.5Q69 405 102 439.5Q135 474 180 493Q225 512 279 512Q368 512 426 467Q484 422 507 343L400 320Q385 367 354 391Q323 415 280 415Q255 415 231.5 405.5Q208 396 190 376Q172 356 161 325.5Q150 295 150 253Q150 211 161 180Q172 149 190.5 129Q209 109 232.5 99.5Q256 90 282 90Q327 90 360.5 118.5Q394 147 405 194ZM344 758 413 683 219 571 174 622Z" glyph-name="cacute" horiz-adv-x="535" unicode="&#263;" /><glyph d="M251 581 89 704 141 752 251 680 360 752 412 704Z" glyph-name="caron" horiz-adv-x="500" unicode="&#711;" /><glyph d="M33 0ZM509 175Q500 139 481 106Q462 73 432.5 48.5Q403 24 364 9.5Q325 -5 277 -5Q223 -5 178.5 14Q134 33 101.5 67.5Q69 102 51 149.5Q33 197 33 254Q33 310 51 357.5Q69 405 102 439.5Q135 474 180 493Q225 512 279 512Q368 512 426 467Q484 422 507 343L400 320Q385 367 354 391Q323 415 280 415Q255 415 231.5 405.5Q208 396 190 376Q172 356 161 325.5Q150 295 150 253Q150 211 161 180Q172 149 190.5 129Q209 109 232.5 99.5Q256 90 282 90Q327 90 360.5 118.5Q394 147 405 194ZM280 581 118 704 170 752 280 680 389 752 441 704Z" glyph-name="ccaron" horiz-adv-x="535" unicode="&#269;" /><glyph d="M392 -115Q392 -157 361 -184.5Q330 -212 274 -212Q226 -212 196 -192.5Q166 -173 155 -142L217 -119Q225 -135 239 -142Q253 -149 271 -149Q296 -149 306 -137.5Q316 -126 316 -114Q316 -103 306.5 -92Q297 -81 274 -81H222L247 -3Q199 2 160 23Q121 44 92.5 77.5Q64 111 48.5 156Q33 201 33 254Q33 310 51 357.5Q69 405 102 439.5Q135 474 180 493Q225 512 279 512Q368 512 426 467Q484 422 507 343L400 320Q385 367 354 391Q323 415 280 415Q255 415 231.5 405.5Q208 396 190 376Q172 356 161 325.5Q150 295 150 253Q150 211 161 180Q172 149 190.5 129Q209 109 232.5 99.5Q256 90 282 90Q327 90 360.5 118.5Q394 147 405 194L509 175Q501 143 485 113.5Q469 84 445 60.5Q421 37 389 20.5Q357 4 318 -2L305 -31Q352 -36 372 -61Q392 -86 392 -115Z" glyph-name="ccedilla" horiz-adv-x="535" unicode="&#231;" /><glyph d="M33 0ZM509 175Q500 139 481 106Q462 73 432.5 48.5Q403 24 364 9.5Q325 -5 277 -5Q223 -5 178.5 14Q134 33 101.5 67.5Q69 102 51 149.5Q33 197 33 254Q33 310 51 357.5Q69 405 102 439.5Q135 474 180 493Q225 512 279 512Q368 512 426 467Q484 422 507 343L400 320Q385 367 354 391Q323 415 280 415Q255 415 231.5 405.5Q208 396 190 376Q172 356 161 325.5Q150 295 150 253Q150 211 161 180Q172 149 190.5 129Q209 109 232.5 99.5Q256 90 282 90Q327 90 360.5 118.5Q394 147 405 194ZM389 578 279 650 170 578 118 626 280 749 441 626Z" glyph-name="ccircumflex" horiz-adv-x="535" unicode="&#265;" /><glyph d="M33 0ZM509 175Q500 139 481 106Q462 73 432.5 48.5Q403 24 364 9.5Q325 -5 277 -5Q223 -5 178.5 14Q134 33 101.5 67.5Q69 102 51 149.5Q33 197 33 254Q33 310 51 357.5Q69 405 102 439.5Q135 474 180 493Q225 512 279 512Q368 512 426 467Q484 422 507 343L400 320Q385 367 354 391Q323 415 280 415Q255 415 231.5 405.5Q208 396 190 376Q172 356 161 325.5Q150 295 150 253Q150 211 161 180Q172 149 190.5 129Q209 109 232.5 99.5Q256 90 282 90Q327 90 360.5 118.5Q394 147 405 194ZM279 587Q250 587 231 606.5Q212 626 212 652Q212 680 231 699.5Q250 719 279 719Q307 719 326.5 699.5Q346 680 346 652Q346 626 326.5 606.5Q307 587 279 587Z" glyph-name="cdotaccent" horiz-adv-x="535" unicode="&#267;" /><glyph d="M365 -115Q365 -157 334 -184.5Q303 -212 247 -212Q199 -212 169 -192.5Q139 -173 128 -142L190 -119Q198 -135 212 -142Q226 -149 244 -149Q269 -149 279 -137.5Q289 -126 289 -114Q289 -103 279.5 -92Q270 -81 247 -81H195L227 18H300L278 -31Q325 -36 345 -61Q365 -86 365 -115Z" glyph-name="cedilla" horiz-adv-x="500" unicode="&#184;" /><glyph d="M509 175Q501 143 485 113.5Q469 84 445 60.5Q421 37 389 20.5Q357 4 318 -2V-101H237V-2Q192 5 154.5 26.5Q117 48 90 81.5Q63 115 48 159Q33 203 33 254Q33 305 48 348.5Q63 392 90 425Q117 458 154.5 480Q192 502 237 509V607H318V510Q391 500 439 456.5Q487 413 507 343L400 320Q377 392 318 409V95Q350 106 373 131.5Q396 157 405 194ZM150 253Q150 187 175 149.5Q200 112 237 98V408Q200 394 175 356.5Q150 319 150 253Z" glyph-name="cent" horiz-adv-x="529" unicode="&#162;" /><glyph d="M360 578 250 650 141 578 89 626 251 749 412 626Z" glyph-name="circumflex" horiz-adv-x="500" unicode="&#710;" /><glyph d="M30 0ZM100 132Q129 132 149.5 112Q170 92 170 63Q170 34 149.5 14.5Q129 -5 100 -5Q71 -5 50.5 14.5Q30 34 30 63Q30 92 50.5 112Q71 132 100 132ZM100 466Q129 466 149.5 446Q170 426 170 397Q170 368 149.5 348.5Q129 329 100 329Q71 329 50.5 348.5Q30 368 30 397Q30 426 50.5 446Q71 466 100 466Z" glyph-name="colon" horiz-adv-x="201" unicode=":" /><glyph d="M172 39Q172 10 162 -17.5Q152 -45 134 -68Q116 -91 90.5 -108Q65 -125 34 -133L11 -91Q50 -76 75 -53.5Q100 -31 107 0Q104 -1 96 -1Q68 -1 49.5 18.5Q31 38 31 64Q31 94 50 112.5Q69 131 98 131Q133 131 152.5 107Q172 83 172 39Z" glyph-name="comma" horiz-adv-x="204" unicode="," /><glyph d="M385 707Q454 707 518 683.5Q582 660 631.5 615Q681 570 711 503.5Q741 437 741 351Q741 264 711 197.5Q681 131 631.5 86Q582 41 518 17.5Q454 -6 385 -6Q316 -6 252 17.5Q188 41 138.5 86Q89 131 59 197.5Q29 264 29 351Q29 437 59 503.5Q89 570 138.5 615Q188 660 252 683.5Q316 707 385 707ZM385 48Q444 48 497 69Q550 90 590 129.5Q630 169 653.5 225Q677 281 677 351Q677 421 653.5 477Q630 533 590 572Q550 611 497 632Q444 653 385 653Q326 653 273 632Q220 611 180 572Q140 533 116.5 477Q93 421 93 351Q93 281 116.5 225Q140 169 180 129.5Q220 90 273 69Q326 48 385 48ZM567 290Q560 262 545 237Q530 212 507 193Q484 174 453 163Q422 152 385 152Q343 152 308 166.5Q273 181 248 207.5Q223 234 209 270Q195 306 195 350Q195 393 209 429.5Q223 466 248.5 492Q274 518 309.5 533Q345 548 387 548Q456 548 502 513Q548 478 565 418L479 401Q468 436 444 453.5Q420 471 388 471Q348 471 318 441.5Q288 412 288 350Q288 318 296.5 295Q305 272 319 257Q333 242 351.5 235Q370 228 390 228Q423 228 448.5 249Q474 270 482 305Z" glyph-name="copyright" horiz-adv-x="770" unicode="&#169;" /><glyph d="M414 74Q387 36 347 15Q307 -6 261 -6Q210 -6 167.5 13Q125 32 95 66Q65 100 48.5 148Q32 196 32 253Q32 310 49.5 357.5Q67 405 98 439Q129 473 172 492Q215 511 266 511Q311 511 349 492.5Q387 474 413 442V700H532V0H414ZM150 252Q150 213 160.5 182.5Q171 152 189.5 131Q208 110 233 99Q258 88 288 88Q330 88 363 108.5Q396 129 413 168V335Q396 374 363 394.5Q330 415 288 415Q258 415 233 404.5Q208 394 189.5 373Q171 352 160.5 321.5Q150 291 150 252Z" glyph-name="d" horiz-adv-x="577" unicode="d" /><glyph d="M232 490 228 158H133L129 490H20V579H128L127 710H234L233 579H348V490Z" glyph-name="dagger" horiz-adv-x="368" unicode="&#8224;" /><glyph d="M235 274 236 143H129L131 274H23V363H132L133 401L132 490H23V579H131L129 710H236L235 579H351V490H235L234 401V363H351V274Z" glyph-name="daggerdbl" horiz-adv-x="373" unicode="&#8225;" /><glyph d="M195 397Q162 397 133.5 409Q105 421 83 442Q61 463 48.5 491.5Q36 520 36 553Q36 586 48.5 614.5Q61 643 83 664.5Q105 686 133.5 698Q162 710 195 710Q228 710 257 698Q286 686 307.5 664.5Q329 643 342 614.5Q355 586 355 553Q355 520 342 491.5Q329 463 307.5 442Q286 421 257 409Q228 397 195 397ZM195 470Q230 470 253.5 494Q277 518 277 553Q277 589 253.5 613Q230 637 195 637Q160 637 136.5 613Q113 589 113 553Q113 518 136.5 494Q160 470 195 470Z" glyph-name="degree" horiz-adv-x="391" unicode="&#176;" /><glyph d="M152 587Q123 587 104 606.5Q85 626 85 652Q85 680 104 699.5Q123 719 152 719Q180 719 200 699.5Q220 680 220 652Q220 626 200 606.5Q180 587 152 587ZM348 587Q319 587 299.5 606.5Q280 626 280 652Q280 680 299.5 699.5Q319 719 348 719Q376 719 395.5 699.5Q415 680 415 652Q415 626 395.5 606.5Q376 587 348 587Z" glyph-name="dieresis" horiz-adv-x="500" unicode="&#168;" /><glyph d="M561 201Q561 163 547 129Q533 95 505.5 68.5Q478 42 436.5 25Q395 8 340 5V-90H254V8Q175 19 117.5 53.5Q60 88 26 137L132 192Q154 157 186 136Q218 115 254 106V292L197 308Q118 330 82.5 376.5Q47 423 48 483Q48 523 63.5 556.5Q79 590 106.5 615Q134 640 171.5 655Q209 670 254 673V768H340V669Q412 657 462 621.5Q512 586 540 543L432 499Q412 525 389 542Q366 559 340 568V391L398 375Q484 352 522.5 306.5Q561 261 561 201ZM170 499Q170 487 173.5 475Q177 463 186 452Q195 441 211.5 431.5Q228 422 254 415V578Q213 573 191.5 552Q170 531 170 499ZM340 269V99Q389 104 413 127Q437 150 437 184Q437 215 415 235Q393 255 351 266Z" glyph-name="dollar" horiz-adv-x="599" unicode="$" /><glyph d="M250 587Q221 587 202 606.5Q183 626 183 652Q183 680 202 699.5Q221 719 250 719Q278 719 297.5 699.5Q317 680 317 652Q317 626 297.5 606.5Q278 587 250 587Z" glyph-name="dotaccent" horiz-adv-x="500" unicode="&#729;" /><glyph d="M45 505H164V0H45Z" glyph-name="dotlessi" horiz-adv-x="209" unicode="&#305;" /><glyph d="M45 505H164V-67Q164 -133 126.5 -169.5Q89 -206 18 -206Q-5 -206 -22 -204Q-39 -202 -53 -198V-113Q-41 -115 -30 -116Q-19 -117 -9 -117Q15 -117 30 -104Q45 -91 45 -62Z" glyph-name="dotlessj" horiz-adv-x="209" unicode="&#567;" /><glyph d="M506 132Q494 104 474.5 79Q455 54 427 35.5Q399 17 362.5 6Q326 -5 282 -5Q228 -5 182 14Q136 33 103 67.5Q70 102 51.5 149.5Q33 197 33 254Q33 310 51 357.5Q69 405 101.5 439Q134 473 178 492Q222 511 275 511Q330 511 373 492.5Q416 474 446 440.5Q476 407 492 360.5Q508 314 508 258V233H150Q153 195 165 167.5Q177 140 195.5 122Q214 104 236.5 95.5Q259 87 283 87Q325 87 358.5 106.5Q392 126 409 165ZM274 420Q232 420 198.5 392.5Q165 365 154 309H394Q386 363 355.5 391.5Q325 420 274 420Z" glyph-name="e" horiz-adv-x="539" unicode="e" /><glyph d="M33 0ZM506 132Q494 104 474.5 79Q455 54 427 35.5Q399 17 362.5 6Q326 -5 282 -5Q228 -5 182 14Q136 33 103 67.5Q70 102 51.5 149.5Q33 197 33 254Q33 310 51 357.5Q69 405 101.5 439Q134 473 178 492Q222 511 275 511Q330 511 373 492.5Q416 474 446 440.5Q476 407 492 360.5Q508 314 508 258V233H150Q153 195 165 167.5Q177 140 195.5 122Q214 104 236.5 95.5Q259 87 283 87Q325 87 358.5 106.5Q392 126 409 165ZM274 420Q232 420 198.5 392.5Q165 365 154 309H394Q386 363 355.5 391.5Q325 420 274 420ZM338 758 407 683 213 571 168 622Z" glyph-name="eacute" horiz-adv-x="539" unicode="&#233;" /><glyph d="M33 0ZM506 132Q494 104 474.5 79Q455 54 427 35.5Q399 17 362.5 6Q326 -5 282 -5Q228 -5 182 14Q136 33 103 67.5Q70 102 51.5 149.5Q33 197 33 254Q33 310 51 357.5Q69 405 101.5 439Q134 473 178 492Q222 511 275 511Q330 511 373 492.5Q416 474 446 440.5Q476 407 492 360.5Q508 314 508 258V233H150Q153 195 165 167.5Q177 140 195.5 122Q214 104 236.5 95.5Q259 87 283 87Q325 87 358.5 106.5Q392 126 409 165ZM274 420Q232 420 198.5 392.5Q165 365 154 309H394Q386 363 355.5 391.5Q325 420 274 420ZM274 581 112 704 164 752 274 680 383 752 435 704Z" glyph-name="ecaron" horiz-adv-x="539" unicode="&#283;" /><glyph d="M33 0ZM506 132Q494 104 474.5 79Q455 54 427 35.5Q399 17 362.5 6Q326 -5 282 -5Q228 -5 182 14Q136 33 103 67.5Q70 102 51.5 149.5Q33 197 33 254Q33 310 51 357.5Q69 405 101.5 439Q134 473 178 492Q222 511 275 511Q330 511 373 492.5Q416 474 446 440.5Q476 407 492 360.5Q508 314 508 258V233H150Q153 195 165 167.5Q177 140 195.5 122Q214 104 236.5 95.5Q259 87 283 87Q325 87 358.5 106.5Q392 126 409 165ZM274 420Q232 420 198.5 392.5Q165 365 154 309H394Q386 363 355.5 391.5Q325 420 274 420ZM383 578 273 650 164 578 112 626 274 749 435 626Z" glyph-name="ecircumflex" horiz-adv-x="539" unicode="&#234;" /><glyph d="M33 0ZM506 132Q494 104 474.5 79Q455 54 427 35.5Q399 17 362.5 6Q326 -5 282 -5Q228 -5 182 14Q136 33 103 67.5Q70 102 51.5 149.5Q33 197 33 254Q33 310 51 357.5Q69 405 101.5 439Q134 473 178 492Q222 511 275 511Q330 511 373 492.5Q416 474 446 440.5Q476 407 492 360.5Q508 314 508 258V233H150Q153 195 165 167.5Q177 140 195.5 122Q214 104 236.5 95.5Q259 87 283 87Q325 87 358.5 106.5Q392 126 409 165ZM274 420Q232 420 198.5 392.5Q165 365 154 309H394Q386 363 355.5 391.5Q325 420 274 420ZM175 587Q146 587 127 606.5Q108 626 108 652Q108 680 127 699.5Q146 719 175 719Q203 719 223 699.5Q243 680 243 652Q243 626 223 606.5Q203 587 175 587ZM371 587Q342 587 322.5 606.5Q303 626 303 652Q303 680 322.5 699.5Q342 719 371 719Q399 719 418.5 699.5Q438 680 438 652Q438 626 418.5 606.5Q399 587 371 587Z" glyph-name="edieresis" horiz-adv-x="539" unicode="&#235;" /><glyph d="M33 0ZM506 132Q494 104 474.5 79Q455 54 427 35.5Q399 17 362.5 6Q326 -5 282 -5Q228 -5 182 14Q136 33 103 67.5Q70 102 51.5 149.5Q33 197 33 254Q33 310 51 357.5Q69 405 101.5 439Q134 473 178 492Q222 511 275 511Q330 511 373 492.5Q416 474 446 440.5Q476 407 492 360.5Q508 314 508 258V233H150Q153 195 165 167.5Q177 140 195.5 122Q214 104 236.5 95.5Q259 87 283 87Q325 87 358.5 106.5Q392 126 409 165ZM274 420Q232 420 198.5 392.5Q165 365 154 309H394Q386 363 355.5 391.5Q325 420 274 420ZM273 587Q244 587 225 606.5Q206 626 206 652Q206 680 225 699.5Q244 719 273 719Q301 719 320.5 699.5Q340 680 340 652Q340 626 320.5 606.5Q301 587 273 587Z" glyph-name="edotaccent" horiz-adv-x="539" unicode="&#279;" /><glyph d="M33 0ZM506 132Q494 104 474.5 79Q455 54 427 35.5Q399 17 362.5 6Q326 -5 282 -5Q228 -5 182 14Q136 33 103 67.5Q70 102 51.5 149.5Q33 197 33 254Q33 310 51 357.5Q69 405 101.5 439Q134 473 178 492Q222 511 275 511Q330 511 373 492.5Q416 474 446 440.5Q476 407 492 360.5Q508 314 508 258V233H150Q153 195 165 167.5Q177 140 195.5 122Q214 104 236.5 95.5Q259 87 283 87Q325 87 358.5 106.5Q392 126 409 165ZM274 420Q232 420 198.5 392.5Q165 365 154 309H394Q386 363 355.5 391.5Q325 420 274 420ZM331 571 138 683 206 758 377 622Z" glyph-name="egrave" horiz-adv-x="539" unicode="&#232;" /><glyph d="M567 202Q567 159 548.5 121Q530 83 496 55Q462 27 412.5 10.5Q363 -6 302 -6Q240 -6 191 9.5Q142 25 108 52.5Q74 80 55.5 117Q37 154 37 197Q37 252 68.5 294Q100 336 159 360Q108 387 84.5 426Q61 465 61 514Q61 551 76.5 585.5Q92 620 122 647Q152 674 196.5 690Q241 706 300 706Q355 706 398 691.5Q441 677 470.5 652.5Q500 628 515.5 595.5Q531 563 531 527Q531 482 504 445Q477 408 427 383Q496 354 531.5 310Q567 266 567 202ZM335 413Q371 428 392.5 454Q414 480 414 515Q414 555 383.5 583.5Q353 612 296 612Q239 612 209.5 585Q180 558 180 522Q180 486 204.5 464.5Q229 443 276 430ZM158 209Q158 155 197.5 122.5Q237 90 303 90Q370 90 407.5 121Q445 152 445 198Q445 239 415.5 264.5Q386 290 332 305L246 328Q201 310 179.5 279Q158 248 158 209Z" glyph-name="eight" horiz-adv-x="604" unicode="8" /><glyph d="M30 0ZM100 132Q129 132 149.5 112Q170 92 170 63Q170 34 149.5 14.5Q129 -5 100 -5Q71 -5 50.5 14.5Q30 34 30 63Q30 92 50.5 112Q71 132 100 132ZM301 132Q330 132 350.5 112Q371 92 371 63Q371 34 350.5 14.5Q330 -5 301 -5Q272 -5 251.5 14.5Q231 34 231 63Q231 92 251.5 112Q272 132 301 132ZM502 132Q531 132 551.5 112Q572 92 572 63Q572 34 551.5 14.5Q531 -5 502 -5Q473 -5 452.5 14.5Q432 34 432 63Q432 92 452.5 112Q473 132 502 132Z" glyph-name="ellipsis" horiz-adv-x="603" unicode="&#8230;" /><glyph d="M33 0ZM506 132Q494 104 474.5 79Q455 54 427 35.5Q399 17 362.5 6Q326 -5 282 -5Q228 -5 182 14Q136 33 103 67.5Q70 102 51.5 149.5Q33 197 33 254Q33 310 51 357.5Q69 405 101.5 439Q134 473 178 492Q222 511 275 511Q330 511 373 492.5Q416 474 446 440.5Q476 407 492 360.5Q508 314 508 258V233H150Q153 195 165 167.5Q177 140 195.5 122Q214 104 236.5 95.5Q259 87 283 87Q325 87 358.5 106.5Q392 126 409 165ZM274 420Q232 420 198.5 392.5Q165 365 154 309H394Q386 363 355.5 391.5Q325 420 274 420ZM149 611V689H398V611Z" glyph-name="emacron" horiz-adv-x="539" unicode="&#275;" /><glyph d="M695 401V306H27V401Z" glyph-name="emdash" horiz-adv-x="723" unicode="&#8212;" /><glyph glyph-name="emspace" horiz-adv-x="723" unicode="&#8195;" /><glyph d="M495 401V306H27V401Z" glyph-name="endash" horiz-adv-x="523" unicode="&#8211;" /><glyph glyph-name="enspace" horiz-adv-x="523" unicode="&#8194;" /><glyph d="M542 389H60V485H542ZM542 198H60V294H542Z" glyph-name="equal" horiz-adv-x="601" unicode="=" /><glyph d="M165 706 142 206H62L38 706ZM100 132Q129 132 149.5 112Q170 92 170 63Q170 34 149.5 14.5Q129 -5 100 -5Q71 -5 50.5 14.5Q30 34 30 63Q30 92 50.5 112Q71 132 100 132Z" glyph-name="exclam" horiz-adv-x="201" unicode="!" /><glyph d="M101 375Q72 375 51.5 395Q31 415 31 444Q31 473 51.5 492.5Q72 512 101 512Q130 512 150.5 492.5Q171 473 171 444Q171 415 150.5 395Q130 375 101 375ZM36 -199 59 301H139L163 -199Z" glyph-name="exclamdown" horiz-adv-x="201" unicode="&#161;" /><glyph d="M101 568Q72 568 51.5 588Q31 608 31 637Q31 666 51.5 685.5Q72 705 101 705Q130 705 150.5 685.5Q171 666 171 637Q171 608 150.5 588Q130 568 101 568ZM36 -6 59 494H139L163 -6Z" glyph-name="exclamdown.cap" horiz-adv-x="201" /><glyph d="M222 418V0H103V418H14V505H103V567Q103 639 142.5 678.5Q182 718 262 718Q289 718 310 716Q331 714 349 709V621Q332 624 316 625Q300 626 285 626Q253 626 237.5 611.5Q222 597 222 562V505H348V418Z" glyph-name="f" horiz-adv-x="362" unicode="f" /><glyph d="M14 0ZM222 418V0H103V418H14V505H103V567Q103 639 142.5 678.5Q182 718 262 718Q289 718 310 716Q331 714 349 709V621Q332 624 316 625Q300 626 285 626Q253 626 237.5 611.5Q222 597 222 562V505H348V418ZM459 582Q430 582 409.5 602Q389 622 389 650Q389 679 409.5 699Q430 719 459 719Q488 719 508.5 699Q529 679 529 650Q529 622 508.5 602Q488 582 459 582ZM400 505H519V0H400Z" glyph-name="fi" horiz-adv-x="559" unicode="&#64257;" /><glyph d="M543 239Q543 187 524.5 142Q506 97 472 64Q438 31 389.5 12.5Q341 -6 281 -6Q190 -6 129.5 29.5Q69 65 37 122L144 171Q170 131 201 112Q232 93 279 93Q308 93 333.5 101.5Q359 110 378.5 127.5Q398 145 409 171Q420 197 420 232Q420 295 381.5 330.5Q343 366 282 366Q239 366 203 347Q167 328 148 296L47 303L75 700H502V600H179L165 414Q190 435 225.5 448.5Q261 462 311 462Q365 462 408 445.5Q451 429 481 399.5Q511 370 527 329Q543 288 543 239Z" glyph-name="five" horiz-adv-x="577" unicode="5" /><glyph d="M14 0ZM222 418V0H103V418H14V505H103V567Q103 639 142.5 678.5Q182 718 262 718Q289 718 310 716Q331 714 349 709V621Q332 624 316 625Q300 626 285 626Q253 626 237.5 611.5Q222 597 222 562V505H348V418ZM400 700H519V0H400Z" glyph-name="fl" horiz-adv-x="559" unicode="&#64258;" /><glyph d="M336 700H495V266H586V167H495V0H371V167H22V248ZM371 266V594L149 266Z" glyph-name="four" horiz-adv-x="609" unicode="4" /><glyph d="M1 0 351 700H442L92 0Z" glyph-name="fraction" horiz-adv-x="443" unicode="&#8260;" /><glyph d="M529 24Q529 -88 461.5 -146.5Q394 -205 273 -205Q182 -205 124 -170.5Q66 -136 45 -83L149 -49Q160 -76 191 -95Q222 -114 270 -114Q300 -114 325.5 -106Q351 -98 369.5 -82.5Q388 -67 399 -42.5Q410 -18 410 15V79Q383 43 343 22.5Q303 2 258 2Q208 2 166.5 20.5Q125 39 95.5 73Q66 107 49.5 154Q33 201 33 257Q33 313 50 360Q67 407 98 440.5Q129 474 171.5 492.5Q214 511 264 511Q310 511 350 491Q390 471 416 436L436 505H529ZM151 256Q151 179 189.5 137.5Q228 96 285 96Q327 96 360 116Q393 136 410 174V337Q393 375 360 395Q327 415 285 415Q228 415 189.5 374.5Q151 334 151 256Z" glyph-name="g" horiz-adv-x="574" unicode="g" /><glyph d="M539 -42Q539 -75 522.5 -104.5Q506 -134 471 -156Q436 -178 380 -191Q324 -204 245 -204Q179 -204 132.5 -196Q86 -188 56.5 -174Q27 -160 13.5 -140.5Q0 -121 0 -98Q0 -66 26.5 -40Q53 -14 108 -1Q76 10 58 31.5Q40 53 40 83Q40 117 68.5 144Q97 171 149 182Q97 204 66.5 244Q36 284 36 336Q36 372 51.5 404Q67 436 96 460Q125 484 166.5 497.5Q208 511 259 511Q316 511 362 493.5Q408 476 437 445Q461 482 498.5 500Q536 518 578 517V420Q552 425 522 418Q492 411 470 394Q481 366 481 336Q481 300 466 268Q451 236 422 212.5Q393 189 351.5 175Q310 161 258 161H230Q194 161 170.5 150.5Q147 140 147 121Q147 104 165.5 96Q184 88 221 84L392 71Q472 65 505.5 34.5Q539 4 539 -42ZM259 241Q303 241 334 265.5Q365 290 365 334Q365 382 334 406.5Q303 431 259 431Q215 431 183.5 406.5Q152 382 152 335Q152 290 183.5 265.5Q215 241 259 241ZM106 -74Q106 -102 145 -114Q184 -126 250 -126Q340 -126 380.5 -109.5Q421 -93 421 -64Q421 -32 355 -27L196 -16Q156 -21 131 -36Q106 -51 106 -74Z" glyph-name="g.school" horiz-adv-x="578" /><glyph d="M33 0ZM529 24Q529 -88 461.5 -146.5Q394 -205 273 -205Q182 -205 124 -170.5Q66 -136 45 -83L149 -49Q160 -76 191 -95Q222 -114 270 -114Q300 -114 325.5 -106Q351 -98 369.5 -82.5Q388 -67 399 -42.5Q410 -18 410 15V79Q383 43 343 22.5Q303 2 258 2Q208 2 166.5 20.5Q125 39 95.5 73Q66 107 49.5 154Q33 201 33 257Q33 313 50 360Q67 407 98 440.5Q129 474 171.5 492.5Q214 511 264 511Q310 511 350 491Q390 471 416 436L436 505H529ZM151 256Q151 179 189.5 137.5Q228 96 285 96Q327 96 360 116Q393 136 410 174V337Q393 375 360 395Q327 415 285 415Q228 415 189.5 374.5Q151 334 151 256ZM390 578 280 650 171 578 119 626 281 749 442 626Z" glyph-name="gcircumflex" horiz-adv-x="574" unicode="&#285;" /><glyph d="M33 0ZM529 24Q529 -88 461.5 -146.5Q394 -205 273 -205Q182 -205 124 -170.5Q66 -136 45 -83L149 -49Q160 -76 191 -95Q222 -114 270 -114Q300 -114 325.5 -106Q351 -98 369.5 -82.5Q388 -67 399 -42.5Q410 -18 410 15V79Q383 43 343 22.5Q303 2 258 2Q208 2 166.5 20.5Q125 39 95.5 73Q66 107 49.5 154Q33 201 33 257Q33 313 50 360Q67 407 98 440.5Q129 474 171.5 492.5Q214 511 264 511Q310 511 350 491Q390 471 416 436L436 505H529ZM151 256Q151 179 189.5 137.5Q228 96 285 96Q327 96 360 116Q393 136 410 174V337Q393 375 360 395Q327 415 285 415Q228 415 189.5 374.5Q151 334 151 256ZM279 587Q250 587 231 606.5Q212 626 212 652Q212 680 231 699.5Q250 719 279 719Q307 719 326.5 699.5Q346 680 346 652Q346 626 326.5 606.5Q307 587 279 587Z" glyph-name="gdotaccent" horiz-adv-x="574" unicode="&#289;" /><glyph d="M316 571 123 683 191 758 362 622Z" glyph-name="grave" horiz-adv-x="500" unicode="`" /><glyph d="M61 17V148L262 305L61 461V594L427 306Z" glyph-name="greater" horiz-adv-x="461" unicode="&gt;" /><glyph d="M60 161V269L253 371L60 472V582L428 372ZM60 85H430V0H60Z" glyph-name="greaterequal" horiz-adv-x="492" unicode="&#8805;" /><glyph d="M15 0ZM146 256 344 0H212L15 253L212 505H340ZM377 256 575 0H443L246 253L443 505H571Z" glyph-name="guillemotleft" horiz-adv-x="593" unicode="&#171;" /><glyph d="M383 0H255L449 249L251 505H383L580 252ZM152 0H24L218 249L20 505H152L349 252Z" glyph-name="guillemotright" horiz-adv-x="593" unicode="&#187;" /><glyph d="M146 256 344 0H212L15 253L212 505H340Z" glyph-name="guilsinglleft" horiz-adv-x="362" unicode="&#8249;" /><glyph d="M150 0H22L216 249L18 505H150L347 252Z" glyph-name="guilsinglright" horiz-adv-x="362" unicode="&#8250;" /><glyph d="M164 700V423Q187 466 229.5 488.5Q272 511 323 511Q366 511 398.5 497.5Q431 484 453 460.5Q475 437 486.5 405Q498 373 498 335V0H379V304Q379 357 354.5 385Q330 413 280 413Q238 413 207.5 389Q177 365 164 326V0H45V700Z" glyph-name="h" horiz-adv-x="543" unicode="h" /><glyph d="M45 0ZM164 700V423Q187 466 229.5 488.5Q272 511 323 511Q366 511 398.5 497.5Q431 484 453 460.5Q475 437 486.5 405Q498 373 498 335V0H379V304Q379 357 354.5 385Q330 413 280 413Q238 413 207.5 389Q177 365 164 326V0H45V700ZM376 773 266 845 157 773 105 821 267 944 428 821Z" glyph-name="hcircumflex" horiz-adv-x="543" unicode="&#293;" /><glyph d="M345 401V306H27V401Z" glyph-name="hyphen" horiz-adv-x="373" unicode="-" /><glyph d="M104 582Q75 582 54.5 602Q34 622 34 650Q34 679 54.5 699Q75 719 104 719Q133 719 153.5 699Q174 679 174 650Q174 622 153.5 602Q133 582 104 582ZM45 505H164V0H45Z" glyph-name="i" horiz-adv-x="209" unicode="i" /><glyph d="M0 0ZM45 505H164V0H45ZM170 758 239 683 45 571 0 622Z" glyph-name="iacute" horiz-adv-x="209" unicode="&#237;" /><glyph d="M0 0ZM45 505H164V0H45ZM215 578 105 650 -4 578 -56 626 106 749 267 626Z" glyph-name="icircumflex" horiz-adv-x="209" unicode="&#238;" /><glyph d="M0 0ZM45 505H164V0H45ZM7 587Q-22 587 -41 606.5Q-60 626 -60 652Q-60 680 -41 699.5Q-22 719 7 719Q35 719 55 699.5Q75 680 75 652Q75 626 55 606.5Q35 587 7 587ZM203 587Q174 587 154.5 606.5Q135 626 135 652Q135 680 154.5 699.5Q174 719 203 719Q231 719 250.5 699.5Q270 680 270 652Q270 626 250.5 606.5Q231 587 203 587Z" glyph-name="idieresis" horiz-adv-x="209" unicode="&#239;" /><glyph d="M0 0ZM45 505H164V0H45ZM164 571 -29 683 39 758 210 622Z" glyph-name="igrave" horiz-adv-x="209" unicode="&#236;" /><glyph d="M0 0ZM45 505H164V0H45ZM-19 611V689H230V611Z" glyph-name="imacron" horiz-adv-x="209" unicode="&#299;" /><glyph d="M0 0ZM45 505H164V0H45ZM-78 604Q-53 663 -23 686.5Q7 710 41 710Q62 710 78.5 702Q95 694 109.5 685Q124 676 137 668Q150 660 164 660Q178 660 190 672.5Q202 685 218 711L287 685Q258 625 229 602Q200 579 166 579Q145 579 128.5 587Q112 595 97.5 604Q83 613 70 621Q57 629 43 629Q29 629 17 616.5Q5 604 -9 578Z" glyph-name="itilde" horiz-adv-x="209" unicode="&#297;" /><glyph d="M104 582Q75 582 54.5 602Q34 622 34 650Q34 679 54.5 699Q75 719 104 719Q133 719 153.5 699Q174 679 174 650Q174 622 153.5 602Q133 582 104 582ZM45 505H164V-67Q164 -133 126.5 -169.5Q89 -206 18 -206Q-5 -206 -22 -204Q-39 -202 -53 -198V-113Q-41 -115 -30 -116Q-19 -117 -9 -117Q15 -117 30 -104Q45 -91 45 -62Z" glyph-name="j" horiz-adv-x="209" unicode="j" /><glyph d="M0 0ZM45 505H164V-67Q164 -133 126.5 -169.5Q89 -206 18 -206Q-5 -206 -22 -204Q-39 -202 -53 -198V-113Q-41 -115 -30 -116Q-19 -117 -9 -117Q15 -117 30 -104Q45 -91 45 -62ZM212 578 102 650 -7 578 -59 626 103 749 264 626Z" glyph-name="jcircumflex" horiz-adv-x="204" unicode="&#309;" /><glyph d="M236 208 164 128V0H45V700H164V272L367 505H504L316 297L524 0H377Z" glyph-name="k" horiz-adv-x="532" unicode="k" /><glyph d="M45 700H164V0H45Z" glyph-name="l" horiz-adv-x="209" unicode="l" /><glyph d="M0 0ZM45 700H164V0H45ZM170 953 239 878 45 766 0 817Z" glyph-name="lacute" horiz-adv-x="209" unicode="&#314;" /><glyph d="M400 17 34 305 400 594V463L199 307L400 149Z" glyph-name="less" horiz-adv-x="457" unicode="&lt;" /><glyph d="M432 161 64 371 432 582V474L239 373L432 271ZM62 0V85H432V0Z" glyph-name="lessequal" horiz-adv-x="492" unicode="&#8804;" /><glyph d="M276 413Q238 413 207.5 390.5Q177 368 164 327V0H45V505H164V420Q188 465 229 488Q270 511 318 511Q378 511 418.5 485.5Q459 460 477 412Q500 457 544 484Q588 511 644 511Q686 511 718 498Q750 485 771.5 462.5Q793 440 804.5 408.5Q816 377 816 340V0H697V311Q697 361 672.5 387Q648 413 603 413Q565 413 534.5 391.5Q504 370 490 332V0H371V311Q371 361 346 387Q321 413 276 413Z" glyph-name="m" horiz-adv-x="861" unicode="m" /><glyph d="M126 611V689H375V611Z" glyph-name="macron" horiz-adv-x="500" unicode="&#175;" /><glyph d="M60 293V388H542V293Z" glyph-name="minus" horiz-adv-x="601" unicode="&#8722;" /><glyph d="M264 273 124 133 60 198 200 337 59 478 131 548 272 409 410 546 475 483 336 345 475 207 402 134Z" glyph-name="multiply" horiz-adv-x="534" unicode="&#215;" /><glyph d="M280 413Q238 413 207.5 389Q177 365 164 326V0H45V505H164V423Q187 466 229.5 488.5Q272 511 323 511Q366 511 398.5 497.5Q431 484 453 460.5Q475 437 486.5 405Q498 373 498 335V0H379V304Q379 357 354.5 385Q330 413 280 413Z" glyph-name="n" horiz-adv-x="543" unicode="n" /><glyph d="M45 0ZM280 413Q238 413 207.5 389Q177 365 164 326V0H45V505H164V423Q187 466 229.5 488.5Q272 511 323 511Q366 511 398.5 497.5Q431 484 453 460.5Q475 437 486.5 405Q498 373 498 335V0H379V304Q379 357 354.5 385Q330 413 280 413ZM333 758 402 683 208 571 163 622Z" glyph-name="nacute" horiz-adv-x="543" unicode="&#324;" /><glyph glyph-name="nbspace" horiz-adv-x="250" unicode="&#160;" /><glyph d="M45 0ZM280 413Q238 413 207.5 389Q177 365 164 326V0H45V505H164V423Q187 466 229.5 488.5Q272 511 323 511Q366 511 398.5 497.5Q431 484 453 460.5Q475 437 486.5 405Q498 373 498 335V0H379V304Q379 357 354.5 385Q330 413 280 413ZM269 581 107 704 159 752 269 680 378 752 430 704Z" glyph-name="ncaron" horiz-adv-x="543" unicode="&#328;" /><glyph d="M579 356Q579 276 559 209.5Q539 143 501.5 95Q464 47 410.5 20.5Q357 -6 290 -6Q246 -6 210.5 4Q175 14 147 31Q119 48 97.5 71.5Q76 95 60 122L166 169Q195 125 226.5 109Q258 93 293 93Q364 93 409.5 156Q455 219 457 345Q428 304 381 279.5Q334 255 269 255Q218 255 176 270.5Q134 286 104 314.5Q74 343 57.5 382.5Q41 422 41 470Q41 516 58 558.5Q75 601 107.5 634Q140 667 187 686.5Q234 706 294 706Q360 706 413 680.5Q466 655 502.5 609Q539 563 559 498.5Q579 434 579 356ZM161 474Q161 417 198 380.5Q235 344 296 344Q323 344 347 351.5Q371 359 391 371Q411 383 426.5 399Q442 415 452 432Q438 523 395 565Q352 607 293 607Q263 607 238.5 597Q214 587 197 569Q180 551 170.5 526.5Q161 502 161 474Z" glyph-name="nine" horiz-adv-x="620" unicode="9" /><glyph d="M45 0ZM280 413Q238 413 207.5 389Q177 365 164 326V0H45V505H164V423Q187 466 229.5 488.5Q272 511 323 511Q366 511 398.5 497.5Q431 484 453 460.5Q475 437 486.5 405Q498 373 498 335V0H379V304Q379 357 354.5 385Q330 413 280 413ZM85 604Q110 663 140 686.5Q170 710 204 710Q225 710 241.5 702Q258 694 272.5 685Q287 676 300 668Q313 660 327 660Q341 660 353 672.5Q365 685 381 711L450 685Q421 625 392 602Q363 579 329 579Q308 579 291.5 587Q275 595 260.5 604Q246 613 233 621Q220 629 206 629Q192 629 180 616.5Q168 604 154 578Z" glyph-name="ntilde" horiz-adv-x="543" unicode="&#241;" /><glyph d="M372 193H226L165 0H71L132 193H32V276H159L205 424H77V507H232L293 700H387L326 507H472L533 700H627L566 507H666V424H539L493 276H621V193H466L405 0H311ZM399 276 445 424H299L253 276Z" glyph-name="numbersign" horiz-adv-x="698" unicode="#" /><glyph d="M283 -5Q223 -5 176.5 15.5Q130 36 98 71.5Q66 107 49.5 153.5Q33 200 33 253Q33 309 51 356Q69 403 102 437.5Q135 472 181 491.5Q227 511 283 511Q343 511 389.5 490.5Q436 470 468 435Q500 400 516.5 353Q533 306 533 253Q533 198 515 150.5Q497 103 464 68.5Q431 34 385 14.5Q339 -5 283 -5ZM283 89Q311 89 335 100Q359 111 377 132Q395 153 405 183.5Q415 214 415 253Q415 332 377.5 373.5Q340 415 283 415Q226 415 188.5 373.5Q151 332 151 252Q151 213 161 182.5Q171 152 189 131.5Q207 111 231 100Q255 89 283 89Z" glyph-name="o" horiz-adv-x="566" unicode="o" /><glyph d="M33 0ZM283 -5Q223 -5 176.5 15.5Q130 36 98 71.5Q66 107 49.5 153.5Q33 200 33 253Q33 309 51 356Q69 403 102 437.5Q135 472 181 491.5Q227 511 283 511Q343 511 389.5 490.5Q436 470 468 435Q500 400 516.5 353Q533 306 533 253Q533 198 515 150.5Q497 103 464 68.5Q431 34 385 14.5Q339 -5 283 -5ZM283 89Q311 89 335 100Q359 111 377 132Q395 153 405 183.5Q415 214 415 253Q415 332 377.5 373.5Q340 415 283 415Q226 415 188.5 373.5Q151 332 151 252Q151 213 161 182.5Q171 152 189 131.5Q207 111 231 100Q255 89 283 89ZM348 758 417 683 223 571 178 622Z" glyph-name="oacute" horiz-adv-x="566" unicode="&#243;" /><glyph d="M33 0ZM283 -5Q223 -5 176.5 15.5Q130 36 98 71.5Q66 107 49.5 153.5Q33 200 33 253Q33 309 51 356Q69 403 102 437.5Q135 472 181 491.5Q227 511 283 511Q343 511 389.5 490.5Q436 470 468 435Q500 400 516.5 353Q533 306 533 253Q533 198 515 150.5Q497 103 464 68.5Q431 34 385 14.5Q339 -5 283 -5ZM283 89Q311 89 335 100Q359 111 377 132Q395 153 405 183.5Q415 214 415 253Q415 332 377.5 373.5Q340 415 283 415Q226 415 188.5 373.5Q151 332 151 252Q151 213 161 182.5Q171 152 189 131.5Q207 111 231 100Q255 89 283 89ZM393 578 283 650 174 578 122 626 284 749 445 626Z" glyph-name="ocircumflex" horiz-adv-x="566" unicode="&#244;" /><glyph d="M33 0ZM283 -5Q223 -5 176.5 15.5Q130 36 98 71.5Q66 107 49.5 153.5Q33 200 33 253Q33 309 51 356Q69 403 102 437.5Q135 472 181 491.5Q227 511 283 511Q343 511 389.5 490.5Q436 470 468 435Q500 400 516.5 353Q533 306 533 253Q533 198 515 150.5Q497 103 464 68.5Q431 34 385 14.5Q339 -5 283 -5ZM283 89Q311 89 335 100Q359 111 377 132Q395 153 405 183.5Q415 214 415 253Q415 332 377.5 373.5Q340 415 283 415Q226 415 188.5 373.5Q151 332 151 252Q151 213 161 182.5Q171 152 189 131.5Q207 111 231 100Q255 89 283 89ZM185 587Q156 587 137 606.5Q118 626 118 652Q118 680 137 699.5Q156 719 185 719Q213 719 233 699.5Q253 680 253 652Q253 626 233 606.5Q213 587 185 587ZM381 587Q352 587 332.5 606.5Q313 626 313 652Q313 680 332.5 699.5Q352 719 381 719Q409 719 428.5 699.5Q448 680 448 652Q448 626 428.5 606.5Q409 587 381 587Z" glyph-name="odieresis" horiz-adv-x="566" unicode="&#246;" /><glyph d="M888 132Q876 104 856 79Q836 54 808.5 35.5Q781 17 745 6Q709 -5 666 -5Q605 -5 555.5 19.5Q506 44 474 88Q442 44 393 19.5Q344 -5 283 -5Q223 -5 176.5 15.5Q130 36 98 71.5Q66 107 49.5 153.5Q33 200 33 253Q33 309 51 356Q69 403 102 437.5Q135 472 181 491.5Q227 511 283 511Q347 511 395 487Q443 463 474 421Q506 463 553 487Q600 511 657 511Q711 511 754.5 492.5Q798 474 828.5 440.5Q859 407 875.5 360.5Q892 314 892 258V233H534Q537 195 549 167.5Q561 140 579.5 122Q598 104 620.5 95.5Q643 87 667 87Q708 87 741 106.5Q774 126 791 165ZM658 420Q616 420 582.5 392.5Q549 365 538 309H777Q769 363 739 391.5Q709 420 658 420ZM283 90Q340 90 377.5 132.5Q415 175 415 253Q415 333 377.5 374.5Q340 416 283 416Q226 416 188.5 374.5Q151 333 151 253Q151 175 188.5 132.5Q226 90 283 90Z" glyph-name="oe" horiz-adv-x="923" unicode="&#339;" /><glyph d="M33 0ZM283 -5Q223 -5 176.5 15.5Q130 36 98 71.5Q66 107 49.5 153.5Q33 200 33 253Q33 309 51 356Q69 403 102 437.5Q135 472 181 491.5Q227 511 283 511Q343 511 389.5 490.5Q436 470 468 435Q500 400 516.5 353Q533 306 533 253Q533 198 515 150.5Q497 103 464 68.5Q431 34 385 14.5Q339 -5 283 -5ZM283 89Q311 89 335 100Q359 111 377 132Q395 153 405 183.5Q415 214 415 253Q415 332 377.5 373.5Q340 415 283 415Q226 415 188.5 373.5Q151 332 151 252Q151 213 161 182.5Q171 152 189 131.5Q207 111 231 100Q255 89 283 89ZM341 571 148 683 216 758 387 622Z" glyph-name="ograve" horiz-adv-x="566" unicode="&#242;" /><glyph d="M33 0ZM283 -5Q223 -5 176.5 15.5Q130 36 98 71.5Q66 107 49.5 153.5Q33 200 33 253Q33 309 51 356Q69 403 102 437.5Q135 472 181 491.5Q227 511 283 511Q343 511 389.5 490.5Q436 470 468 435Q500 400 516.5 353Q533 306 533 253Q533 198 515 150.5Q497 103 464 68.5Q431 34 385 14.5Q339 -5 283 -5ZM283 89Q311 89 335 100Q359 111 377 132Q395 153 405 183.5Q415 214 415 253Q415 332 377.5 373.5Q340 415 283 415Q226 415 188.5 373.5Q151 332 151 252Q151 213 161 182.5Q171 152 189 131.5Q207 111 231 100Q255 89 283 89ZM159 611V689H408V611Z" glyph-name="omacron" horiz-adv-x="566" unicode="&#333;" /><glyph d="M417 0H23V100H159V569Q128 560 96 554.5Q64 549 30 546V645Q128 653 205 700H282V100H417Z" glyph-name="one" horiz-adv-x="442" unicode="1" /><glyph d="M20 0ZM108 0 458 700H549L199 0ZM669 0H419V63L532 160Q561 185 572 201.5Q583 218 583 238Q583 264 568.5 275.5Q554 287 536 287Q498 287 473 247L409 275Q426 307 459.5 328Q493 349 541 349Q595 349 628 319.5Q661 290 661 244Q661 225 656 208.5Q651 192 638.5 175Q626 158 605.5 138.5Q585 119 555 95L516 62H669ZM232 355H20V417H88V620Q72 617 55 615Q38 613 21 612V674Q75 676 118 700H166V417H232Z" glyph-name="onehalf" horiz-adv-x="695" unicode="&#189;" /><glyph d="M20 0ZM111 0 461 700H552L202 0ZM517 345H617V142H661V80H617V0H539V80H369V132ZM539 142V282L446 142ZM232 355H20V417H88V620Q72 617 55 615Q38 613 21 612V674Q75 676 118 700H166V417H232Z" glyph-name="onequarter" horiz-adv-x="678" unicode="&#188;" /><glyph d="M20 355ZM232 355H20V417H88V620Q72 617 55 615Q38 613 21 612V674Q75 676 118 700H166V417H232Z" glyph-name="onesuperior" horiz-adv-x="257" unicode="&#185;" /><glyph d="M283 -5Q245 -5 213 3.5Q181 12 154 27L129 -5H39L98 71Q66 106 49.5 153Q33 200 33 253Q33 309 51 356Q69 403 102 437.5Q135 472 181 491.5Q227 511 283 511Q360 511 416 477L442 510H532L471 432Q502 397 517.5 351Q533 305 533 253Q533 198 515 150.5Q497 103 464 68.5Q431 34 385 14.5Q339 -5 283 -5ZM151 252Q151 225 156 202.5Q161 180 169 162L352 395Q321 415 283 415Q226 415 188.5 373.5Q151 332 151 252ZM415 253Q415 303 398 339L217 107Q245 89 283 89Q311 89 335 100Q359 111 377 132Q395 153 405 183.5Q415 214 415 253Z" glyph-name="oslash" horiz-adv-x="570" unicode="&#248;" /><glyph d="M33 0ZM283 -5Q223 -5 176.5 15.5Q130 36 98 71.5Q66 107 49.5 153.5Q33 200 33 253Q33 309 51 356Q69 403 102 437.5Q135 472 181 491.5Q227 511 283 511Q343 511 389.5 490.5Q436 470 468 435Q500 400 516.5 353Q533 306 533 253Q533 198 515 150.5Q497 103 464 68.5Q431 34 385 14.5Q339 -5 283 -5ZM283 89Q311 89 335 100Q359 111 377 132Q395 153 405 183.5Q415 214 415 253Q415 332 377.5 373.5Q340 415 283 415Q226 415 188.5 373.5Q151 332 151 252Q151 213 161 182.5Q171 152 189 131.5Q207 111 231 100Q255 89 283 89ZM100 604Q125 663 155 686.5Q185 710 219 710Q240 710 256.5 702Q273 694 287.5 685Q302 676 315 668Q328 660 342 660Q356 660 368 672.5Q380 685 396 711L465 685Q436 625 407 602Q378 579 344 579Q323 579 306.5 587Q290 595 275.5 604Q261 613 248 621Q235 629 221 629Q207 629 195 616.5Q183 604 169 578Z" glyph-name="otilde" horiz-adv-x="566" unicode="&#245;" /><glyph d="M311 -6Q266 -6 228 12.5Q190 31 164 63V-200H45V505H163V431Q189 469 229.5 490Q270 511 317 511Q368 511 410 492Q452 473 482 439Q512 405 528.5 358Q545 311 545 255Q545 198 528 150Q511 102 480 67.5Q449 33 406 13.5Q363 -6 311 -6ZM289 414Q247 414 214.5 393.5Q182 373 164 333V168Q182 128 214.5 107.5Q247 87 289 87Q349 87 388 129.5Q427 172 427 251Q427 330 388 372Q349 414 289 414Z" glyph-name="p" horiz-adv-x="577" unicode="p" /><glyph d="M30 486Q30 538 46.5 578Q63 618 92.5 645Q122 672 162 686Q202 700 249 700H435V0H339V271H259Q212 271 170.5 285.5Q129 300 97.5 328Q66 356 48 396Q30 436 30 486ZM498 700H593V0H498Z" glyph-name="paragraph" horiz-adv-x="645" unicode="&#182;" /><glyph d="M153 249Q153 184 167 125.5Q181 67 205.5 16.5Q230 -34 263.5 -75Q297 -116 337 -144L278 -220Q225 -189 179.5 -142Q134 -95 100 -35Q66 25 47 96.5Q28 168 28 249Q28 330 47 401.5Q66 473 100 533Q134 593 179.5 640Q225 687 278 719L337 643Q297 615 263.5 574.5Q230 534 205.5 483.5Q181 433 167 374Q153 315 153 249Z" glyph-name="parenleft" horiz-adv-x="355" unicode="(" /><glyph d="M202 250Q202 314 188 373Q174 432 149.5 482.5Q125 533 91.5 573.5Q58 614 18 643L77 719Q130 687 175.5 640.5Q221 594 255 534Q289 474 308 402.5Q327 331 327 250Q327 169 308 97Q289 25 255 -35Q221 -95 175.5 -142Q130 -189 77 -220L18 -144Q58 -116 91.5 -75.5Q125 -35 149.5 15.5Q174 66 188 125Q202 184 202 250Z" glyph-name="parenright" horiz-adv-x="355" unicode=")" /><glyph d="M31 0ZM164 0 514 700H605L255 0ZM452 172Q452 212 462.5 245Q473 278 492 300.5Q511 323 537 335.5Q563 348 594 348Q628 348 655 334.5Q682 321 700.5 298Q719 275 728.5 242.5Q738 210 738 173Q738 134 727.5 101.5Q717 69 698 45.5Q679 22 652.5 9.5Q626 -3 595 -3Q561 -3 534.5 10.5Q508 24 489.5 48Q471 72 461.5 104Q452 136 452 172ZM529 172Q529 114 549 87Q569 60 595 60Q621 60 641 87Q661 114 661 173Q661 233 641 259Q621 285 595 285Q569 285 549 258.5Q529 232 529 172ZM31 527Q31 567 41.5 600Q52 633 71 655.5Q90 678 116 690.5Q142 703 173 703Q207 703 234 689.5Q261 676 279.5 653Q298 630 307.5 597.5Q317 565 317 528Q317 489 306.5 456.5Q296 424 277 400.5Q258 377 231.5 364.5Q205 352 174 352Q140 352 113.5 365.5Q87 379 68.5 403Q50 427 40.5 459Q31 491 31 527ZM108 527Q108 469 128 442Q148 415 174 415Q200 415 220 442Q240 469 240 528Q240 588 220 614Q200 640 174 640Q148 640 128 613.5Q108 587 108 527Z" glyph-name="percent" horiz-adv-x="770" unicode="%" /><glyph d="M100 132Q129 132 149.5 112Q170 92 170 63Q170 34 149.5 14.5Q129 -5 100 -5Q71 -5 50.5 14.5Q30 34 30 63Q30 92 50.5 112Q71 132 100 132Z" glyph-name="period" horiz-adv-x="201" unicode="." /><glyph d="M30 287ZM100 424Q129 424 149.5 404Q170 384 170 355Q170 326 149.5 306.5Q129 287 100 287Q71 287 50.5 306.5Q30 326 30 355Q30 384 50.5 404Q71 424 100 424Z" glyph-name="periodcentered" horiz-adv-x="201" unicode="&#183;" /><glyph d="M354 293V102H248V293H60V388H248V582H354V388H542V293Z" glyph-name="plus" horiz-adv-x="601" unicode="+" /><glyph d="M532 -200H413V71Q386 35 346 14.5Q306 -6 261 -6Q210 -6 167.5 13Q125 32 95 66Q65 100 48.5 147Q32 194 32 251Q32 308 49 355.5Q66 403 97 437.5Q128 472 171.5 491.5Q215 511 267 511Q313 511 353 491Q393 471 419 436L439 505H532ZM150 252Q150 172 189 130Q228 88 288 88Q330 88 363 108.5Q396 129 413 168V335Q396 374 363 394.5Q330 415 288 415Q258 415 233 404Q208 393 189.5 372.5Q171 352 160.5 321.5Q150 291 150 252Z" glyph-name="q" horiz-adv-x="577" unicode="q" /><glyph d="M499 503Q499 466 486.5 432.5Q474 399 450 372Q426 345 391 327Q356 309 312 305L304 206H224L215 378H263Q294 378 317.5 388.5Q341 399 357 416Q373 433 381 455.5Q389 478 389 501Q389 524 381.5 546Q374 568 358 584.5Q342 601 317.5 611Q293 621 259 621Q196 621 163.5 585.5Q131 550 126 490L27 503Q30 546 46.5 583.5Q63 621 93.5 648.5Q124 676 167.5 691.5Q211 707 268 707Q323 707 366 690.5Q409 674 438.5 646Q468 618 483.5 581Q499 544 499 503ZM263 132Q292 132 312.5 112Q333 92 333 63Q333 34 312.5 14.5Q292 -5 263 -5Q234 -5 213.5 14.5Q193 34 193 63Q193 92 213.5 112Q234 132 263 132Z" glyph-name="question" horiz-adv-x="522" unicode="?" /><glyph d="M263 375Q234 375 213.5 395Q193 415 193 444Q193 473 213.5 492.5Q234 512 263 512Q292 512 312.5 492.5Q333 473 333 444Q333 415 312.5 395Q292 375 263 375ZM499 4Q496 -39 479.5 -76.5Q463 -114 432.5 -141.5Q402 -169 358.5 -184.5Q315 -200 258 -200Q203 -200 160 -183.5Q117 -167 87.5 -139Q58 -111 42.5 -74Q27 -37 27 4Q27 41 39.5 74.5Q52 108 76 135Q100 162 135 179.5Q170 197 214 202L222 301H302L311 129H263Q232 129 208.5 118.5Q185 108 169 90.5Q153 73 145 51Q137 29 137 6Q137 -17 144.5 -39Q152 -61 168 -77.5Q184 -94 208.5 -104Q233 -114 267 -114Q330 -114 362.5 -78.5Q395 -43 400 17Z" glyph-name="questiondown" horiz-adv-x="522" unicode="&#191;" /><glyph d="M263 569Q234 569 213.5 589Q193 609 193 638Q193 667 213.5 686.5Q234 706 263 706Q292 706 312.5 686.5Q333 667 333 638Q333 609 312.5 589Q292 569 263 569ZM499 198Q496 155 479.5 117.5Q463 80 432.5 52.5Q402 25 358.5 9.5Q315 -6 258 -6Q203 -6 160 10.5Q117 27 87.5 55Q58 83 42.5 120Q27 157 27 198Q27 235 39.5 268.5Q52 302 76 329Q100 356 135 373.5Q170 391 214 396L222 495H302L311 323H263Q232 323 208.5 312.5Q185 302 169 284.5Q153 267 145 245Q137 223 137 200Q137 177 144.5 155Q152 133 168 116.5Q184 100 208.5 90Q233 80 267 80Q330 80 362.5 115.5Q395 151 400 211Z" glyph-name="questiondown.cap" horiz-adv-x="522" /><glyph d="M66 458 55 710H164L153 458ZM235 458 224 710H333L322 458Z" glyph-name="quotedbl" horiz-adv-x="388" unicode="&quot;" /><glyph d="M371 510Q371 480 352 461.5Q333 443 304 443Q269 443 249.5 467Q230 491 230 535Q230 564 240 591.5Q250 619 268 642Q286 665 311.5 682Q337 699 368 707L391 665Q352 650 327 627.5Q302 605 295 574Q298 575 306 575Q334 575 352.5 555.5Q371 536 371 510ZM174 510Q174 480 155 461.5Q136 443 107 443Q72 443 52.5 467Q33 491 33 535Q33 564 43 591.5Q53 619 71 642Q89 665 114.5 682Q140 699 171 707L194 665Q155 650 130 627.5Q105 605 98 574Q101 575 109 575Q137 575 155.5 555.5Q174 536 174 510Z" glyph-name="quotedblleft" horiz-adv-x="403" unicode="&#8220;" /><glyph d="M12 444ZM173 616Q173 587 163 559.5Q153 532 135 509Q117 486 91.5 469Q66 452 35 444L12 486Q51 501 76 523.5Q101 546 108 577Q105 576 97 576Q69 576 50.5 595.5Q32 615 32 641Q32 671 51 689.5Q70 708 99 708Q134 708 153.5 684Q173 660 173 616ZM369 616Q369 587 359 559.5Q349 532 331 509Q313 486 287.5 469Q262 452 231 444L208 486Q247 501 272 523.5Q297 546 304 577Q301 576 293 576Q265 576 246.5 595.5Q228 615 228 641Q228 671 247 689.5Q266 708 295 708Q330 708 349.5 684Q369 660 369 616Z" glyph-name="quotedblright" horiz-adv-x="403" unicode="&#8221;" /><glyph d="M174 510Q174 480 155 461.5Q136 443 107 443Q72 443 52.5 467Q33 491 33 535Q33 564 43 591.5Q53 619 71 642Q89 665 114.5 682Q140 699 171 707L194 665Q155 650 130 627.5Q105 605 98 574Q101 575 109 575Q137 575 155.5 555.5Q174 536 174 510Z" glyph-name="quoteleft" horiz-adv-x="206" unicode="&#8216;" /><glyph d="M11 444ZM172 616Q172 587 162 559.5Q152 532 134 509Q116 486 90.5 469Q65 452 34 444L11 486Q50 501 75 523.5Q100 546 107 577Q104 576 96 576Q68 576 49.5 595.5Q31 615 31 641Q31 671 50 689.5Q69 708 98 708Q133 708 152.5 684Q172 660 172 616Z" glyph-name="quoteright" horiz-adv-x="206" unicode="&#8217;" /><glyph d="M66 458 55 710H164L153 458Z" glyph-name="quotesingle" horiz-adv-x="218" unicode="'" /><glyph d="M345 400Q282 407 234 384.5Q186 362 162 317V0H42V505H162V413Q190 468 239 494.5Q288 521 345 519V400Z" glyph-name="r" horiz-adv-x="364" unicode="r" /><glyph d="M42 0ZM345 400Q282 407 234 384.5Q186 362 162 317V0H42V505H162V413Q190 468 239 494.5Q288 521 345 519V400ZM289 758 358 683 164 571 119 622Z" glyph-name="racute" horiz-adv-x="364" unicode="&#341;" /><glyph d="M42 0ZM345 400Q282 407 234 384.5Q186 362 162 317V0H42V505H162V413Q190 468 239 494.5Q288 521 345 519V400ZM225 581 63 704 115 752 225 680 334 752 386 704Z" glyph-name="rcaron" horiz-adv-x="364" unicode="&#345;" /><glyph d="M200 706Q234 706 266 694Q298 682 322.5 659Q347 636 361.5 603.5Q376 571 376 529Q376 487 361.5 454Q347 421 322.5 398Q298 375 266 363Q234 351 200 351Q166 351 134 363Q102 375 77.5 398Q53 421 38.5 454Q24 487 24 529Q24 571 38.5 603.5Q53 636 77.5 659Q102 682 134 694Q166 706 200 706ZM200 382Q228 382 253.5 392.5Q279 403 298 422Q317 441 328.5 468.5Q340 496 340 529Q340 562 328.5 589Q317 616 298 634.5Q279 653 253.5 663.5Q228 674 200 674Q172 674 146.5 663.5Q121 653 102 634.5Q83 616 71.5 589Q60 562 60 529Q60 496 71.5 468.5Q83 441 102 422Q121 403 146.5 392.5Q172 382 200 382ZM133 614H216Q236 614 250.5 600.5Q265 587 265 563Q265 544 255.5 531.5Q246 519 231 514L274 444H230L192 510H171V444H133ZM171 584V539H202Q228 539 228 561Q228 584 202 584Z" glyph-name="registered" horiz-adv-x="400" unicode="&#174;" /><glyph d="M104 151Q127 111 165 94.5Q203 78 242 78Q290 78 312.5 94.5Q335 111 335 135Q335 155 317 167.5Q299 180 268 188L143 219Q83 234 52.5 269Q22 304 22 352Q22 386 35 415Q48 444 73 465.5Q98 487 134.5 499Q171 511 218 511Q260 511 294 501.5Q328 492 355 476Q382 460 401.5 439Q421 418 433 396L333 366Q312 397 281.5 411.5Q251 426 216 426Q171 426 151 409.5Q131 393 131 370Q131 354 145 339.5Q159 325 202 314L314 286Q384 269 416 235.5Q448 202 448 152Q448 120 434.5 91.5Q421 63 394.5 41.5Q368 20 329 7.5Q290 -5 239 -5Q155 -5 95.5 27.5Q36 60 5 111Z" glyph-name="s" horiz-adv-x="468" unicode="s" /><glyph d="M5 0ZM104 151Q127 111 165 94.5Q203 78 242 78Q290 78 312.5 94.5Q335 111 335 135Q335 155 317 167.5Q299 180 268 188L143 219Q83 234 52.5 269Q22 304 22 352Q22 386 35 415Q48 444 73 465.5Q98 487 134.5 499Q171 511 218 511Q260 511 294 501.5Q328 492 355 476Q382 460 401.5 439Q421 418 433 396L333 366Q312 397 281.5 411.5Q251 426 216 426Q171 426 151 409.5Q131 393 131 370Q131 354 145 339.5Q159 325 202 314L314 286Q384 269 416 235.5Q448 202 448 152Q448 120 434.5 91.5Q421 63 394.5 41.5Q368 20 329 7.5Q290 -5 239 -5Q155 -5 95.5 27.5Q36 60 5 111ZM293 758 362 683 168 571 123 622Z" glyph-name="sacute" horiz-adv-x="468" unicode="&#347;" /><glyph d="M5 0ZM104 151Q127 111 165 94.5Q203 78 242 78Q290 78 312.5 94.5Q335 111 335 135Q335 155 317 167.5Q299 180 268 188L143 219Q83 234 52.5 269Q22 304 22 352Q22 386 35 415Q48 444 73 465.5Q98 487 134.5 499Q171 511 218 511Q260 511 294 501.5Q328 492 355 476Q382 460 401.5 439Q421 418 433 396L333 366Q312 397 281.5 411.5Q251 426 216 426Q171 426 151 409.5Q131 393 131 370Q131 354 145 339.5Q159 325 202 314L314 286Q384 269 416 235.5Q448 202 448 152Q448 120 434.5 91.5Q421 63 394.5 41.5Q368 20 329 7.5Q290 -5 239 -5Q155 -5 95.5 27.5Q36 60 5 111ZM229 581 67 704 119 752 229 680 338 752 390 704Z" glyph-name="scaron" horiz-adv-x="468" unicode="&#353;" /><glyph d="M351 -115Q351 -157 320 -184.5Q289 -212 233 -212Q185 -212 155 -192.5Q125 -173 114 -142L176 -119Q184 -135 198 -142Q212 -149 230 -149Q255 -149 265 -137.5Q275 -126 275 -114Q275 -103 265.5 -92Q256 -81 233 -81H181L206 -4Q135 3 84 34Q33 65 5 111L104 151Q127 111 165 94.5Q203 78 242 78Q290 78 312.5 94.5Q335 111 335 135Q335 155 317 167.5Q299 180 268 188L143 219Q83 234 52.5 269Q22 304 22 352Q22 386 35 415Q48 444 73 465.5Q98 487 134.5 499Q171 511 218 511Q260 511 294 501.5Q328 492 355 476Q382 460 401.5 439Q421 418 433 396L333 366Q312 397 281.5 411.5Q251 426 216 426Q171 426 151 409.5Q131 393 131 370Q131 354 145 339.5Q159 325 202 314L314 286Q384 269 416 235.5Q448 202 448 152Q448 123 437 97Q426 71 404 50Q382 29 350.5 15Q319 1 277 -3L264 -31Q311 -36 331 -61Q351 -86 351 -115Z" glyph-name="scedilla" horiz-adv-x="468" unicode="&#351;" /><glyph d="M5 0ZM104 151Q127 111 165 94.5Q203 78 242 78Q290 78 312.5 94.5Q335 111 335 135Q335 155 317 167.5Q299 180 268 188L143 219Q83 234 52.5 269Q22 304 22 352Q22 386 35 415Q48 444 73 465.5Q98 487 134.5 499Q171 511 218 511Q260 511 294 501.5Q328 492 355 476Q382 460 401.5 439Q421 418 433 396L333 366Q312 397 281.5 411.5Q251 426 216 426Q171 426 151 409.5Q131 393 131 370Q131 354 145 339.5Q159 325 202 314L314 286Q384 269 416 235.5Q448 202 448 152Q448 120 434.5 91.5Q421 63 394.5 41.5Q368 20 329 7.5Q290 -5 239 -5Q155 -5 95.5 27.5Q36 60 5 111ZM339 578 229 650 120 578 68 626 230 749 391 626Z" glyph-name="scircumflex" horiz-adv-x="468" unicode="&#349;" /><glyph d="M466 119Q466 87 453 58Q440 29 415.5 7Q391 -15 354.5 -27.5Q318 -40 271 -40Q229 -40 195.5 -30.5Q162 -21 135.5 -5Q109 11 89.5 31.5Q70 52 58 74L152 107Q174 75 206.5 59Q239 43 275 43Q316 43 337 59.5Q358 76 358 100Q358 119 341.5 132.5Q325 146 276 160L156 192Q88 210 53 245.5Q18 281 18 334Q18 372 42 403.5Q66 435 113 452Q71 489 71 545Q71 577 84 606Q97 635 121.5 656.5Q146 678 182.5 691Q219 704 266 704Q308 704 342 694.5Q376 685 402.5 669Q429 653 448 632.5Q467 612 479 590L385 557Q363 590 330.5 605.5Q298 621 262 621Q221 621 200.5 604.5Q180 588 180 564Q180 545 196.5 531Q213 517 261 504L382 472Q519 435 519 330Q519 292 495 261Q471 230 424 212Q466 176 466 119ZM341 252Q373 257 390 273.5Q407 290 407 313Q407 337 385.5 352.5Q364 368 332 377L196 412Q164 407 147 390.5Q130 374 130 351Q130 327 151.5 311.5Q173 296 205 287Z" glyph-name="section" horiz-adv-x="532" unicode="&#167;" /><glyph d="M11 0ZM172 39Q172 10 162 -17.5Q152 -45 134 -68Q116 -91 90.5 -108Q65 -125 34 -133L11 -91Q50 -76 75 -53.5Q100 -31 107 0Q104 -1 96 -1Q68 -1 49.5 18.5Q31 38 31 64Q31 94 50 112.5Q69 131 98 131Q133 131 152.5 107Q172 83 172 39ZM100 466Q129 466 149.5 446Q170 426 170 397Q170 368 149.5 348.5Q129 329 100 329Q71 329 50.5 348.5Q30 368 30 397Q30 426 50.5 446Q71 466 100 466Z" glyph-name="semicolon" horiz-adv-x="201" unicode=";" /><glyph d="M518 609Q402 488 333 338Q264 188 257 0H127Q142 181 208 333Q274 485 386 600H19V700H518V609Z" glyph-name="seven" horiz-adv-x="535" unicode="7" /><glyph d="M579 230Q579 184 562 141.5Q545 99 512.5 66Q480 33 433 13.5Q386 -6 326 -6Q260 -6 207 19.5Q154 45 117.5 91Q81 137 61 201.5Q41 266 41 344Q41 424 61 490.5Q81 557 118.5 605Q156 653 209.5 679.5Q263 706 330 706Q374 706 409.5 696Q445 686 473 669Q501 652 522.5 628.5Q544 605 560 578L454 531Q425 575 393.5 591Q362 607 327 607Q256 607 210.5 544Q165 481 163 355Q192 396 239 420.5Q286 445 351 445Q402 445 444 429.5Q486 414 516 385.5Q546 357 562.5 317.5Q579 278 579 230ZM324 356Q297 356 273 348.5Q249 341 229 329Q209 317 193.5 301Q178 285 168 268Q182 177 225 135Q268 93 327 93Q357 93 381.5 103Q406 113 423 131Q440 149 449.5 173.5Q459 198 459 226Q459 283 422 319.5Q385 356 324 356Z" glyph-name="six" horiz-adv-x="620" unicode="6" /><glyph d="M292 700H412L62 -200H-58Z" glyph-name="slash" horiz-adv-x="412" unicode="/" /><glyph glyph-name="space" horiz-adv-x="250" unicode=" " /><glyph d="M349 6Q329 1 305.5 -2Q282 -5 252 -5Q177 -5 140 27.5Q103 60 103 122V418H14V505H103L109 620H222V505H354V418H222V145Q222 114 239 100.5Q256 87 289 87Q303 87 317.5 88.5Q332 90 349 92V6Z" glyph-name="t" horiz-adv-x="366" unicode="t" /><glyph d="M338 -115Q338 -157 307 -184.5Q276 -212 220 -212Q172 -212 142 -192.5Q112 -173 101 -142L163 -119Q171 -135 185 -142Q199 -149 217 -149Q242 -149 252 -137.5Q262 -126 262 -114Q262 -103 252.5 -92Q243 -81 220 -81H168L195 1Q148 12 125.5 43Q103 74 103 122V418H14V505H103L109 620H222V505H354V418H222V145Q222 114 239 100.5Q256 87 289 87Q303 87 317.5 88.5Q332 90 349 92V6Q330 1 309.5 -1.5Q289 -4 263 -5L251 -31Q298 -36 318 -61Q338 -86 338 -115Z" glyph-name="tcommaaccent" horiz-adv-x="366" unicode="&#539;" /><glyph d="M533 199Q533 155 515 118Q497 81 464 53Q431 25 384 9.5Q337 -6 279 -6Q191 -6 127.5 27Q64 60 27 122L131 170Q157 130 192 112Q227 94 278 94Q335 94 372.5 122Q410 150 410 201Q410 253 376.5 280.5Q343 308 293 308H205V401H274Q324 401 356 428Q388 455 388 502Q388 553 356 580Q324 607 273 607Q226 607 194 587.5Q162 568 136 530L37 578Q73 636 131.5 671Q190 706 276 706Q331 706 374.5 692Q418 678 448 652.5Q478 627 494 592Q510 557 510 515Q510 467 480.5 425.5Q451 384 403 363Q463 346 498 301.5Q533 257 533 199Z" glyph-name="three" horiz-adv-x="571" unicode="3" /><glyph d="M25 0ZM151 0 501 700H592L242 0ZM557 345H657V142H701V80H657V0H579V80H409V132ZM579 142V282L486 142ZM288 454Q288 410 251.5 381Q215 352 155 352Q110 352 77 369.5Q44 387 25 419L92 448Q113 414 154 414Q179 414 194.5 425.5Q210 437 210 457Q210 477 196 488.5Q182 500 160 500H121V557H157Q178 557 190.5 568.5Q203 580 203 597Q203 617 190.5 629Q178 641 156 641Q134 641 119.5 632Q105 623 94 607L31 636Q50 668 81 685.5Q112 703 157 703Q212 703 246.5 677Q281 651 281 605Q281 582 267 561.5Q253 541 229 530Q257 521 272.5 500.5Q288 480 288 454Z" glyph-name="threequarters" horiz-adv-x="718" unicode="&#190;" /><glyph d="M25 352ZM288 454Q288 410 251.5 381Q215 352 155 352Q110 352 77 369.5Q44 387 25 419L92 448Q113 414 154 414Q179 414 194.5 425.5Q210 437 210 457Q210 477 196 488.5Q182 500 160 500H121V557H157Q178 557 190.5 568.5Q203 580 203 597Q203 617 190.5 629Q178 641 156 641Q134 641 119.5 632Q105 623 94 607L31 636Q50 668 81 685.5Q112 703 157 703Q212 703 246.5 677Q281 651 281 605Q281 582 267 561.5Q253 541 229 530Q257 521 272.5 500.5Q288 480 288 454Z" glyph-name="threesuperior" horiz-adv-x="322" unicode="&#179;" /><glyph d="M68 604Q93 663 123 686.5Q153 710 187 710Q208 710 224.5 702Q241 694 255.5 685Q270 676 283 668Q296 660 310 660Q324 660 336 672.5Q348 685 364 711L433 685Q404 625 375 602Q346 579 312 579Q291 579 274.5 587Q258 595 243.5 604Q229 613 216 621Q203 629 189 629Q175 629 163 616.5Q151 604 137 578Z" glyph-name="tilde" horiz-adv-x="501" unicode="&#732;" /><glyph d="M450 497 526 700H608V413H548V614L473 413H422L348 619V413H291V700H377ZM16 700H261V649H171V413H106V649H16Z" glyph-name="trademark" horiz-adv-x="638" unicode="&#8482;" /><glyph d="M520 0H37V102L279 325Q307 350 326.5 372Q346 394 358 414.5Q370 435 375 454.5Q380 474 380 494Q380 523 370.5 544Q361 565 345.5 579Q330 593 309 600Q288 607 265 607Q226 607 192 590.5Q158 574 127 527L26 572Q60 631 121.5 669Q183 707 273 707Q325 707 367.5 692Q410 677 440 649.5Q470 622 486.5 584.5Q503 547 503 502Q503 467 493.5 436Q484 405 462.5 372.5Q441 340 407 304.5Q373 269 324 226L188 100H520Z" glyph-name="two" horiz-adv-x="544" unicode="2" /><glyph d="M24 355ZM284 355H34V418L147 515Q176 540 187 556.5Q198 573 198 593Q198 619 183.5 630.5Q169 642 151 642Q113 642 88 602L24 630Q41 662 74.5 683Q108 704 156 704Q210 704 243 674.5Q276 645 276 599Q276 580 271 563.5Q266 547 253.5 530Q241 513 220.5 493.5Q200 474 170 450L131 417H284Z" glyph-name="twosuperior" horiz-adv-x="310" unicode="&#178;" /><glyph d="M379 82Q356 39 313.5 16.5Q271 -6 220 -6Q177 -6 144.5 7.5Q112 21 90 44.5Q68 68 56.5 100Q45 132 45 170V505H164V201Q164 148 188.5 120Q213 92 263 92Q305 92 335.5 116Q366 140 379 179V505H498V0H379Z" glyph-name="u" horiz-adv-x="543" unicode="u" /><glyph d="M45 0ZM379 82Q356 39 313.5 16.5Q271 -6 220 -6Q177 -6 144.5 7.5Q112 21 90 44.5Q68 68 56.5 100Q45 132 45 170V505H164V201Q164 148 188.5 120Q213 92 263 92Q305 92 335.5 116Q366 140 379 179V505H498V0H379ZM341 758 410 683 216 571 171 622Z" glyph-name="uacute" horiz-adv-x="543" unicode="&#250;" /><glyph d="M45 0ZM379 82Q356 39 313.5 16.5Q271 -6 220 -6Q177 -6 144.5 7.5Q112 21 90 44.5Q68 68 56.5 100Q45 132 45 170V505H164V201Q164 148 188.5 120Q213 92 263 92Q305 92 335.5 116Q366 140 379 179V505H498V0H379ZM386 578 276 650 167 578 115 626 277 749 438 626Z" glyph-name="ucircumflex" horiz-adv-x="543" unicode="&#251;" /><glyph d="M45 0ZM379 82Q356 39 313.5 16.5Q271 -6 220 -6Q177 -6 144.5 7.5Q112 21 90 44.5Q68 68 56.5 100Q45 132 45 170V505H164V201Q164 148 188.5 120Q213 92 263 92Q305 92 335.5 116Q366 140 379 179V505H498V0H379ZM178 587Q149 587 130 606.5Q111 626 111 652Q111 680 130 699.5Q149 719 178 719Q206 719 226 699.5Q246 680 246 652Q246 626 226 606.5Q206 587 178 587ZM374 587Q345 587 325.5 606.5Q306 626 306 652Q306 680 325.5 699.5Q345 719 374 719Q402 719 421.5 699.5Q441 680 441 652Q441 626 421.5 606.5Q402 587 374 587Z" glyph-name="udieresis" horiz-adv-x="543" unicode="&#252;" /><glyph d="M45 0ZM379 82Q356 39 313.5 16.5Q271 -6 220 -6Q177 -6 144.5 7.5Q112 21 90 44.5Q68 68 56.5 100Q45 132 45 170V505H164V201Q164 148 188.5 120Q213 92 263 92Q305 92 335.5 116Q366 140 379 179V505H498V0H379ZM334 571 141 683 209 758 380 622Z" glyph-name="ugrave" horiz-adv-x="543" unicode="&#249;" /><glyph d="M45 0ZM379 82Q356 39 313.5 16.5Q271 -6 220 -6Q177 -6 144.5 7.5Q112 21 90 44.5Q68 68 56.5 100Q45 132 45 170V505H164V201Q164 148 188.5 120Q213 92 263 92Q305 92 335.5 116Q366 140 379 179V505H498V0H379ZM152 611V689H401V611Z" glyph-name="umacron" horiz-adv-x="543" unicode="&#363;" /><glyph d="M376 -64V-141H-1V-64Z" glyph-name="underscore" horiz-adv-x="375" unicode="_" /><glyph d="M31 352ZM31 527Q31 567 41.5 600Q52 633 71 655.5Q90 678 116 690.5Q142 703 173 703Q207 703 234 689.5Q261 676 279.5 653Q298 630 307.5 597.5Q317 565 317 528Q317 489 306.5 456.5Q296 424 277 400.5Q258 377 231.5 364.5Q205 352 174 352Q140 352 113.5 365.5Q87 379 68.5 403Q50 427 40.5 459Q31 491 31 527ZM108 527Q108 469 128 442Q148 415 174 415Q200 415 220 442Q240 469 240 528Q240 588 220 614Q200 640 174 640Q148 640 128 613.5Q108 587 108 527Z" glyph-name="uni2070" horiz-adv-x="349" unicode="&#8304;" /><glyph d="M20 355ZM168 700H268V497H312V435H268V355H190V435H20V487ZM190 497V637L97 497Z" glyph-name="uni2074" horiz-adv-x="329" unicode="&#8308;" /><glyph d="M27 352ZM290 476Q290 422 252.5 387Q215 352 153 352Q107 352 75.5 370Q44 388 27 419L95 449Q106 432 119.5 423Q133 414 153 414Q176 414 193.5 428Q211 442 211 471Q211 496 195 511Q179 526 153 526Q133 526 117 517Q101 508 93 497L31 500L46 700H269V638H109L104 566Q130 586 172 586Q228 586 259 555Q290 524 290 476Z" glyph-name="uni2075" horiz-adv-x="321" unicode="&#8309;" /><glyph d="M31 352ZM308 468Q308 445 299 424Q290 403 273.5 387Q257 371 233.5 361.5Q210 352 180 352Q113 352 72 399Q31 446 31 526Q31 607 71.5 655Q112 703 180 703Q226 703 255.5 684Q285 665 300 637L233 607Q221 626 207 633.5Q193 641 178 641Q114 641 109 536Q123 553 144.5 563Q166 573 195 573Q246 573 277 544.5Q308 516 308 468ZM177 521Q154 521 137.5 511Q121 501 112 487Q119 449 137 431.5Q155 414 179 414Q204 414 218.5 430Q233 446 233 468Q233 491 217.5 506Q202 521 177 521Z" glyph-name="uni2076" horiz-adv-x="337" unicode="&#8310;" /><glyph d="M19 355ZM275 637Q224 581 190.5 513Q157 445 156 355H72Q80 445 111 513Q142 581 195 638H19V700H275V637Z" glyph-name="uni2077" horiz-adv-x="298" unicode="&#8311;" /><glyph d="M30 352ZM303 456Q303 411 266.5 381.5Q230 352 167 352Q104 352 67 380Q30 408 30 450Q30 476 44.5 495.5Q59 515 86 526Q40 554 40 602Q40 621 48 639Q56 657 72 671.5Q88 686 112 694.5Q136 703 168 703Q223 703 256 677.5Q289 652 289 613Q289 592 276 573.5Q263 555 239 544Q270 530 286.5 509Q303 488 303 456ZM184 564Q198 569 206 579.5Q214 590 214 604Q214 620 201.5 632.5Q189 645 164 645Q141 645 129 634Q117 623 117 608Q117 592 128.5 584Q140 576 159 571ZM108 459Q108 438 124.5 424.5Q141 411 169 411Q195 411 209.5 423.5Q224 436 224 454Q224 472 210 482Q196 492 174 497L140 506Q108 492 108 459Z" glyph-name="uni2078" horiz-adv-x="340" unicode="&#8312;" /><glyph d="M31 352ZM308 529Q308 448 267.5 400Q227 352 159 352Q113 352 83.5 371Q54 390 39 418L106 448Q118 429 132 421.5Q146 414 161 414Q225 414 230 519Q216 502 194.5 492Q173 482 144 482Q93 482 62 510.5Q31 539 31 587Q31 610 40 631Q49 652 65.5 668Q82 684 105.5 693.5Q129 703 159 703Q226 703 267 656Q308 609 308 529ZM106 587Q106 564 121.5 549Q137 534 162 534Q185 534 201.5 544Q218 554 227 568Q220 606 202 623.5Q184 641 160 641Q135 641 120.5 625Q106 609 106 587Z" glyph-name="uni2079" horiz-adv-x="337" unicode="&#8313;" /><glyph d="M31 172Q31 212 41.5 245Q52 278 71 300.5Q90 323 116 335.5Q142 348 173 348Q207 348 234 334.5Q261 321 279.5 298Q298 275 307.5 242.5Q317 210 317 173Q317 134 306.5 101.5Q296 69 277 45.5Q258 22 231.5 9.5Q205 -3 174 -3Q140 -3 113.5 10.5Q87 24 68.5 48Q50 72 40.5 104Q31 136 31 172ZM108 172Q108 114 128 87Q148 60 174 60Q200 60 220 87Q240 114 240 173Q240 233 220 259Q200 285 174 285Q148 285 128 258.5Q108 232 108 172Z" glyph-name="uni2080" horiz-adv-x="348" unicode="&#8320;" /><glyph d="M232 0H20V62H88V265Q72 262 55 260Q38 258 21 257V319Q75 321 118 345H166V62H232Z" glyph-name="uni2081" horiz-adv-x="253" unicode="&#8321;" /><glyph d="M284 0H34V63L147 160Q176 185 187 201.5Q198 218 198 238Q198 264 183.5 275.5Q169 287 151 287Q113 287 88 247L24 275Q41 307 74.5 328Q108 349 156 349Q210 349 243 319.5Q276 290 276 244Q276 225 271 208.5Q266 192 253.5 175Q241 158 220.5 138.5Q200 119 170 95L131 62H284Z" glyph-name="uni2082" horiz-adv-x="307" unicode="&#8322;" /><glyph d="M288 99Q288 55 251.5 26Q215 -3 155 -3Q110 -3 77 14.5Q44 32 25 64L92 93Q113 59 154 59Q179 59 194.5 70.5Q210 82 210 102Q210 122 196 133.5Q182 145 160 145H121V202H157Q178 202 190.5 213.5Q203 225 203 242Q203 262 190.5 274Q178 286 156 286Q134 286 119.5 277Q105 268 94 252L31 281Q50 313 81 330.5Q112 348 157 348Q212 348 246.5 322Q281 296 281 250Q281 227 267 206.5Q253 186 229 175Q257 166 272.5 145.5Q288 125 288 99Z" glyph-name="uni2083" horiz-adv-x="318" unicode="&#8323;" /><glyph d="M168 345H268V142H312V80H268V0H190V80H20V132ZM190 142V282L97 142Z" glyph-name="uni2084" horiz-adv-x="333" unicode="&#8324;" /><glyph d="M290 121Q290 67 252.5 32Q215 -3 153 -3Q107 -3 75.5 15Q44 33 27 64L95 94Q106 77 119.5 68Q133 59 153 59Q176 59 193.5 73Q211 87 211 116Q211 141 195 156Q179 171 153 171Q133 171 117 162Q101 153 93 142L31 145L46 345H269V283H109L104 211Q130 231 172 231Q228 231 259 200Q290 169 290 121Z" glyph-name="uni2085" horiz-adv-x="316" unicode="&#8325;" /><glyph d="M308 113Q308 90 299 69Q290 48 273.5 32Q257 16 233.5 6.5Q210 -3 180 -3Q113 -3 72 44Q31 91 31 171Q31 252 71.5 300Q112 348 180 348Q226 348 255.5 329Q285 310 300 282L233 252Q221 271 207 278.5Q193 286 178 286Q114 286 109 181Q123 198 144.5 208Q166 218 195 218Q246 218 277 189.5Q308 161 308 113ZM177 166Q154 166 137.5 156Q121 146 112 132Q119 94 137 76.5Q155 59 179 59Q204 59 218.5 75Q233 91 233 113Q233 136 217.5 151Q202 166 177 166Z" glyph-name="uni2086" horiz-adv-x="338" unicode="&#8326;" /><glyph d="M275 282Q224 226 190.5 158Q157 90 156 0H72Q80 90 111 158Q142 226 195 283H19V345H275V282Z" glyph-name="uni2087" horiz-adv-x="293" unicode="&#8327;" /><glyph d="M303 101Q303 56 266.5 26.5Q230 -3 167 -3Q104 -3 67 25Q30 53 30 95Q30 121 44.5 140.5Q59 160 86 171Q40 199 40 247Q40 266 48 284Q56 302 72 316.5Q88 331 112 339.5Q136 348 168 348Q223 348 256 322.5Q289 297 289 258Q289 237 276 218.5Q263 200 239 189Q270 175 286.5 154Q303 133 303 101ZM184 209Q198 214 206 224.5Q214 235 214 249Q214 265 201.5 277.5Q189 290 164 290Q141 290 129 279Q117 268 117 253Q117 237 128.5 229Q140 221 159 216ZM108 104Q108 83 124.5 69.5Q141 56 169 56Q195 56 209.5 68.5Q224 81 224 99Q224 117 210 127Q196 137 174 142L140 151Q108 137 108 104Z" glyph-name="uni2088" horiz-adv-x="334" unicode="&#8328;" /><glyph d="M308 174Q308 93 267.5 45Q227 -3 159 -3Q113 -3 83.5 16Q54 35 39 63L106 93Q118 74 132 66.5Q146 59 161 59Q225 59 230 164Q216 147 194.5 137Q173 127 144 127Q93 127 62 155.5Q31 184 31 232Q31 255 40 276Q49 297 65.5 313Q82 329 105.5 338.5Q129 348 159 348Q226 348 267 301Q308 254 308 174ZM106 232Q106 209 121.5 194Q137 179 162 179Q185 179 201.5 189Q218 199 227 213Q220 251 202 268.5Q184 286 160 286Q135 286 120.5 270Q106 254 106 232Z" glyph-name="uni2089" horiz-adv-x="338" unicode="&#8329;" /><glyph d="M45 0ZM379 82Q356 39 313.5 16.5Q271 -6 220 -6Q177 -6 144.5 7.5Q112 21 90 44.5Q68 68 56.5 100Q45 132 45 170V505H164V201Q164 148 188.5 120Q213 92 263 92Q305 92 335.5 116Q366 140 379 179V505H498V0H379ZM93 604Q118 663 148 686.5Q178 710 212 710Q233 710 249.5 702Q266 694 280.5 685Q295 676 308 668Q321 660 335 660Q349 660 361 672.5Q373 685 389 711L458 685Q429 625 400 602Q371 579 337 579Q316 579 299.5 587Q283 595 268.5 604Q254 613 241 621Q228 629 214 629Q200 629 188 616.5Q176 604 162 578Z" glyph-name="utilde" horiz-adv-x="543" unicode="&#361;" /><glyph d="M334 0H220L10 505H142L281 138L422 505H538Z" glyph-name="v" horiz-adv-x="548" unicode="v" /><glyph d="M291 0H170L14 505H139L222 211L239 143L261 211L364 505H461L563 211L584 143L603 211L687 505H799L645 0H524L430 270L407 340L384 270Z" glyph-name="w" horiz-adv-x="813" unicode="w" /><glyph d="M14 0ZM291 0H170L14 505H139L222 211L239 143L261 211L364 505H461L563 211L584 143L603 211L687 505H799L645 0H524L430 270L407 340L384 270ZM473 758 542 683 348 571 303 622Z" glyph-name="wacute" horiz-adv-x="813" unicode="&#7811;" /><glyph d="M14 0ZM291 0H170L14 505H139L222 211L239 143L261 211L364 505H461L563 211L584 143L603 211L687 505H799L645 0H524L430 270L407 340L384 270ZM518 578 408 650 299 578 247 626 409 749 570 626Z" glyph-name="wcircumflex" horiz-adv-x="813" unicode="&#373;" /><glyph d="M14 0ZM291 0H170L14 505H139L222 211L239 143L261 211L364 505H461L563 211L584 143L603 211L687 505H799L645 0H524L430 270L407 340L384 270ZM310 587Q281 587 262 606.5Q243 626 243 652Q243 680 262 699.5Q281 719 310 719Q338 719 358 699.5Q378 680 378 652Q378 626 358 606.5Q338 587 310 587ZM506 587Q477 587 457.5 606.5Q438 626 438 652Q438 680 457.5 699.5Q477 719 506 719Q534 719 553.5 699.5Q573 680 573 652Q573 626 553.5 606.5Q534 587 506 587Z" glyph-name="wdieresis" horiz-adv-x="813" unicode="&#7813;" /><glyph d="M14 0ZM291 0H170L14 505H139L222 211L239 143L261 211L364 505H461L563 211L584 143L603 211L687 505H799L645 0H524L430 270L407 340L384 270ZM466 571 273 683 341 758 512 622Z" glyph-name="wgrave" horiz-adv-x="813" unicode="&#7809;" /><glyph d="M275 181 140 0H13L214 256L22 505H164L282 347L399 505H526L342 270L551 0H409Z" glyph-name="x" horiz-adv-x="563" unicode="x" /><glyph d="M306 -69Q279 -138 236.5 -172Q194 -206 126 -206Q103 -206 86 -204Q69 -202 53 -199V-108Q81 -114 108 -114Q166 -114 192 -57L213 -9L10 505H140L277 134L412 505H534L306 -69Z" glyph-name="y" horiz-adv-x="544" unicode="y" /><glyph d="M251 -200H131L212 -7L10 505H137L275 134L413 505H535Z" glyph-name="y.school" horiz-adv-x="545" /><glyph d="M10 0ZM306 -69Q279 -138 236.5 -172Q194 -206 126 -206Q103 -206 86 -204Q69 -202 53 -199V-108Q81 -114 108 -114Q166 -114 192 -57L213 -9L10 505H140L277 134L412 505H534L306 -69ZM339 758 408 683 214 571 169 622Z" glyph-name="yacute" horiz-adv-x="544" unicode="&#253;" /><glyph d="M10 0ZM306 -69Q279 -138 236.5 -172Q194 -206 126 -206Q103 -206 86 -204Q69 -202 53 -199V-108Q81 -114 108 -114Q166 -114 192 -57L213 -9L10 505H140L277 134L412 505H534L306 -69ZM384 578 274 650 165 578 113 626 275 749 436 626Z" glyph-name="ycircumflex" horiz-adv-x="544" unicode="&#375;" /><glyph d="M10 0ZM306 -69Q279 -138 236.5 -172Q194 -206 126 -206Q103 -206 86 -204Q69 -202 53 -199V-108Q81 -114 108 -114Q166 -114 192 -57L213 -9L10 505H140L277 134L412 505H534L306 -69ZM176 587Q147 587 128 606.5Q109 626 109 652Q109 680 128 699.5Q147 719 176 719Q204 719 224 699.5Q244 680 244 652Q244 626 224 606.5Q204 587 176 587ZM372 587Q343 587 323.5 606.5Q304 626 304 652Q304 680 323.5 699.5Q343 719 372 719Q400 719 419.5 699.5Q439 680 439 652Q439 626 419.5 606.5Q400 587 372 587Z" glyph-name="ydieresis" horiz-adv-x="544" unicode="&#255;" /><glyph d="M10 0ZM306 -69Q279 -138 236.5 -172Q194 -206 126 -206Q103 -206 86 -204Q69 -202 53 -199V-108Q81 -114 108 -114Q166 -114 192 -57L213 -9L10 505H140L277 134L412 505H534L306 -69ZM333 571 140 683 208 758 379 622Z" glyph-name="ygrave" horiz-adv-x="544" unicode="&#7923;" /><glyph d="M433 0H20V65L285 415H33V505H430V431L171 90H433Z" glyph-name="z" horiz-adv-x="458" unicode="z" /><glyph d="M20 0ZM433 0H20V65L285 415H33V505H430V431L171 90H433ZM292 758 361 683 167 571 122 622Z" glyph-name="zacute" horiz-adv-x="458" unicode="&#378;" /><glyph d="M20 0ZM433 0H20V65L285 415H33V505H430V431L171 90H433ZM228 581 66 704 118 752 228 680 337 752 389 704Z" glyph-name="zcaron" horiz-adv-x="458" unicode="&#382;" /><glyph d="M20 0ZM433 0H20V65L285 415H33V505H430V431L171 90H433ZM227 587Q198 587 179 606.5Q160 626 160 652Q160 680 179 699.5Q198 719 227 719Q255 719 274.5 699.5Q294 680 294 652Q294 626 274.5 606.5Q255 587 227 587Z" glyph-name="zdotaccent" horiz-adv-x="458" unicode="&#380;" /><glyph d="M40 349Q40 428 60 493.5Q80 559 117 606.5Q154 654 205.5 680Q257 706 319 706Q385 706 436.5 679Q488 652 524 604Q560 556 579 491Q598 426 598 350Q598 272 578 207Q558 142 521 94.5Q484 47 433 20.5Q382 -6 319 -6Q253 -6 201.5 21.5Q150 49 114 97Q78 145 59 210Q40 275 40 349ZM163 349Q163 285 175.5 237Q188 189 209 157.5Q230 126 258.5 110.5Q287 95 319 95Q351 95 379.5 110.5Q408 126 429.5 158Q451 190 463.5 237.5Q476 285 476 350Q476 415 463.5 463Q451 511 429.5 542.5Q408 574 379.5 589.5Q351 605 319 605Q287 605 258.5 589.5Q230 574 209 542.5Q188 511 175.5 463Q163 415 163 349Z" glyph-name="zero" horiz-adv-x="638" unicode="0" /><glyph glyph-name="zerowidthspace" horiz-adv-x="0" unicode="&#8203;" /></font>
</defs>
</svg>
