<?xml version="1.0" standalone="no"?><!DOCTYPE svg PUBLIC "-//W3C//DTD SVG 1.1//EN" "http://www.w3.org/Graphics/SVG/1.1/DTD/svg11.dtd" ><svg version="1.1" xmlns="http://www.w3.org/2000/svg"><defs><font horiz-adv-x="0" id="font"><font-face ascent="750" bbox="-273.3402 -216 945 945" cap-height="700" descent="-250" font-family="YP Local Web" font-stretch="normal" font-style="normal" font-weight="400" units-per-em="1000" x-height="500" /><missing-glyph d="M43 700H468V-200H43Z" horiz-adv-x="500" /><glyph d="M0 0Z" glyph-name=".ttfautohint" horiz-adv-x="395" /><glyph d="M280 700H377L640 0H547L475 198H172L98 0H13ZM449 269 325 610 198 269Z" glyph-name="A" horiz-adv-x="652" unicode="A" /><glyph d="M889 0H451V198H211L94 0H0L422 700H889V628H538V401H809V329H538V72H889ZM451 269V607L252 269Z" glyph-name="AE" horiz-adv-x="929" unicode="&#198;" /><glyph d="M13 0ZM280 700H377L640 0H547L475 198H172L98 0H13ZM449 269 325 610 198 269ZM399 945 454 885 277 783 244 820Z" glyph-name="Aacute" horiz-adv-x="652" unicode="&#193;" /><glyph d="M13 0ZM280 700H377L640 0H547L475 198H172L98 0H13ZM449 269 325 610 198 269ZM436 787 332 861 228 787 188 821 332 939 476 821Z" glyph-name="Acircumflex" horiz-adv-x="652" unicode="&#194;" /><glyph d="M13 0ZM280 700H377L640 0H547L475 198H172L98 0H13ZM449 269 325 610 198 269ZM247 804Q226 804 211.5 818.5Q197 833 197 853Q197 873 211.5 887.5Q226 902 247 902Q267 902 282 887.5Q297 873 297 853Q297 833 282 818.5Q267 804 247 804ZM417 804Q396 804 381.5 818.5Q367 833 367 853Q367 873 381.5 887.5Q396 902 417 902Q437 902 452 887.5Q467 873 467 853Q467 833 452 818.5Q437 804 417 804Z" glyph-name="Adieresis" horiz-adv-x="652" unicode="&#196;" /><glyph d="M13 0ZM280 700H377L640 0H547L475 198H172L98 0H13ZM449 269 325 610 198 269ZM386 783 209 885 264 945 419 820Z" glyph-name="Agrave" horiz-adv-x="652" unicode="&#192;" /><glyph d="M13 0ZM280 700H377L640 0H547L475 198H172L98 0H13ZM449 269 325 610 198 269ZM221 820V880H444V820Z" glyph-name="Amacron" horiz-adv-x="652" unicode="&#256;" /><glyph d="M13 0ZM280 700H377L640 0H547L475 198H172L98 0H13ZM449 269 325 610 198 269ZM164 809Q204 902 268 902Q290 902 307 894Q324 886 339 877Q354 868 368 860Q382 852 396 852Q410 852 421.5 863Q433 874 449 900L499 882Q477 833 451 811Q425 789 393 789Q372 789 355 797Q338 805 323 814Q308 823 294.5 831Q281 839 267 839Q253 839 241 828Q229 817 214 791Z" glyph-name="Atilde" horiz-adv-x="652" unicode="&#195;" /><glyph d="M61 700H307Q413 700 466.5 652.5Q520 605 520 526Q520 463 487 422Q454 381 397 365Q472 351 509 306.5Q546 262 546 199Q546 153 526.5 116Q507 79 473.5 53.5Q440 28 395 14Q350 0 299 0H61ZM148 629V397H315Q377 397 407.5 428.5Q438 460 438 511Q438 562 407.5 595.5Q377 629 315 629ZM148 325V71H318Q388 71 423 106Q458 141 458 198Q458 255 423 290Q388 325 318 325Z" glyph-name="B" horiz-adv-x="571" unicode="B" /><glyph d="M646 224Q632 171 605 128.5Q578 86 540.5 56Q503 26 457 10Q411 -6 359 -6Q291 -6 233.5 20Q176 46 133.5 92.5Q91 139 67 204.5Q43 270 43 350Q43 429 67 495Q91 561 133.5 607.5Q176 654 233.5 680Q291 706 359 706Q459 706 534 650.5Q609 595 643 493L565 468Q537 552 483 592.5Q429 633 359 633Q311 633 269.5 614Q228 595 197 559Q166 523 148 470.5Q130 418 130 350Q130 282 148 229.5Q166 177 197 141Q228 105 269.5 86Q311 67 359 67Q434 67 491.5 111.5Q549 156 570 244Z" glyph-name="C" horiz-adv-x="683" unicode="C" /><glyph glyph-name="CR" horiz-adv-x="250" unicode="" /><glyph d="M43 0ZM646 224Q632 171 605 128.5Q578 86 540.5 56Q503 26 457 10Q411 -6 359 -6Q291 -6 233.5 20Q176 46 133.5 92.5Q91 139 67 204.5Q43 270 43 350Q43 429 67 495Q91 561 133.5 607.5Q176 654 233.5 680Q291 706 359 706Q459 706 534 650.5Q609 595 643 493L565 468Q537 552 483 592.5Q429 633 359 633Q311 633 269.5 614Q228 595 197 559Q166 523 148 470.5Q130 418 130 350Q130 282 148 229.5Q166 177 197 141Q228 105 269.5 86Q311 67 359 67Q434 67 491.5 111.5Q549 156 570 244ZM419 945 474 885 297 783 264 820Z" glyph-name="Cacute" horiz-adv-x="683" unicode="&#262;" /><glyph d="M43 0ZM646 224Q632 171 605 128.5Q578 86 540.5 56Q503 26 457 10Q411 -6 359 -6Q291 -6 233.5 20Q176 46 133.5 92.5Q91 139 67 204.5Q43 270 43 350Q43 429 67 495Q91 561 133.5 607.5Q176 654 233.5 680Q291 706 359 706Q459 706 534 650.5Q609 595 643 493L565 468Q537 552 483 592.5Q429 633 359 633Q311 633 269.5 614Q228 595 197 559Q166 523 148 470.5Q130 418 130 350Q130 282 148 229.5Q166 177 197 141Q228 105 269.5 86Q311 67 359 67Q434 67 491.5 111.5Q549 156 570 244ZM352 788 208 906 248 940 352 866 456 940 496 906Z" glyph-name="Ccaron" horiz-adv-x="683" unicode="&#268;" /><glyph d="M463 -115Q463 -153 435.5 -178Q408 -203 357 -203Q313 -203 286 -185Q259 -167 249 -138L296 -121Q304 -140 319 -148Q334 -156 354 -156Q382 -156 393.5 -143Q405 -130 405 -116Q405 -102 394 -90.5Q383 -79 357 -79H314L337 -5Q274 -1 220 26.5Q166 54 126.5 100.5Q87 147 65 210.5Q43 274 43 350Q43 429 67 495Q91 561 133.5 607.5Q176 654 233.5 680Q291 706 359 706Q459 706 534 650.5Q609 595 643 493L565 468Q537 552 483 592.5Q429 633 359 633Q311 633 269.5 614Q228 595 197 559Q166 523 148 470.5Q130 418 130 350Q130 282 148 229.5Q166 177 197 141Q228 105 269.5 86Q311 67 359 67Q434 67 491.5 111.5Q549 156 570 244L646 224Q620 126 552 65.5Q484 5 391 -4L377 -40Q423 -42 443 -65Q463 -88 463 -115Z" glyph-name="Ccedilla" horiz-adv-x="683" unicode="&#199;" /><glyph d="M43 0ZM646 224Q632 171 605 128.5Q578 86 540.5 56Q503 26 457 10Q411 -6 359 -6Q291 -6 233.5 20Q176 46 133.5 92.5Q91 139 67 204.5Q43 270 43 350Q43 429 67 495Q91 561 133.5 607.5Q176 654 233.5 680Q291 706 359 706Q459 706 534 650.5Q609 595 643 493L565 468Q537 552 483 592.5Q429 633 359 633Q311 633 269.5 614Q228 595 197 559Q166 523 148 470.5Q130 418 130 350Q130 282 148 229.5Q166 177 197 141Q228 105 269.5 86Q311 67 359 67Q434 67 491.5 111.5Q549 156 570 244ZM456 787 352 861 248 787 208 821 352 939 496 821Z" glyph-name="Ccircumflex" horiz-adv-x="683" unicode="&#264;" /><glyph d="M43 0ZM646 224Q632 171 605 128.5Q578 86 540.5 56Q503 26 457 10Q411 -6 359 -6Q291 -6 233.5 20Q176 46 133.5 92.5Q91 139 67 204.5Q43 270 43 350Q43 429 67 495Q91 561 133.5 607.5Q176 654 233.5 680Q291 706 359 706Q459 706 534 650.5Q609 595 643 493L565 468Q537 552 483 592.5Q429 633 359 633Q311 633 269.5 614Q228 595 197 559Q166 523 148 470.5Q130 418 130 350Q130 282 148 229.5Q166 177 197 141Q228 105 269.5 86Q311 67 359 67Q434 67 491.5 111.5Q549 156 570 244ZM352 804Q331 804 316.5 818.5Q302 833 302 853Q302 873 316.5 887.5Q331 902 352 902Q372 902 387 887.5Q402 873 402 853Q402 833 387 818.5Q372 804 352 804Z" glyph-name="Cdotaccent" horiz-adv-x="683" unicode="&#266;" /><glyph d="M61 0V700H299Q374 700 433 672.5Q492 645 533 597.5Q574 550 595.5 486Q617 422 617 350Q617 278 594 214Q571 150 528.5 102.5Q486 55 425.5 27.5Q365 0 289 0ZM148 628V72H290Q338 72 381.5 89.5Q425 107 458 142Q491 177 510.5 229Q530 281 530 350Q530 419 510.5 471Q491 523 458 558Q425 593 381.5 610.5Q338 628 290 628Z" glyph-name="D" horiz-adv-x="661" unicode="D" /><glyph d="M498 0H61V700H498V628H148V401H418V329H148V72H498Z" glyph-name="E" horiz-adv-x="538" unicode="E" /><glyph d="M61 0ZM498 0H61V700H498V628H148V401H418V329H148V72H498ZM354 945 409 885 232 783 199 820Z" glyph-name="Eacute" horiz-adv-x="538" unicode="&#201;" /><glyph d="M61 0ZM498 0H61V700H498V628H148V401H418V329H148V72H498ZM287 788 143 906 183 940 287 866 391 940 431 906Z" glyph-name="Ecaron" horiz-adv-x="538" unicode="&#282;" /><glyph d="M61 0ZM498 0H61V700H498V628H148V401H418V329H148V72H498ZM391 787 287 861 183 787 143 821 287 939 431 821Z" glyph-name="Ecircumflex" horiz-adv-x="538" unicode="&#202;" /><glyph d="M61 0ZM498 0H61V700H498V628H148V401H418V329H148V72H498ZM202 804Q181 804 166.5 818.5Q152 833 152 853Q152 873 166.5 887.5Q181 902 202 902Q222 902 237 887.5Q252 873 252 853Q252 833 237 818.5Q222 804 202 804ZM372 804Q351 804 336.5 818.5Q322 833 322 853Q322 873 336.5 887.5Q351 902 372 902Q392 902 407 887.5Q422 873 422 853Q422 833 407 818.5Q392 804 372 804Z" glyph-name="Edieresis" horiz-adv-x="538" unicode="&#203;" /><glyph d="M61 0ZM498 0H61V700H498V628H148V401H418V329H148V72H498ZM287 804Q266 804 251.5 818.5Q237 833 237 853Q237 873 251.5 887.5Q266 902 287 902Q307 902 322 887.5Q337 873 337 853Q337 833 322 818.5Q307 804 287 804Z" glyph-name="Edotaccent" horiz-adv-x="538" unicode="&#278;" /><glyph d="M61 0ZM498 0H61V700H498V628H148V401H418V329H148V72H498ZM341 783 164 885 219 945 374 820Z" glyph-name="Egrave" horiz-adv-x="538" unicode="&#200;" /><glyph d="M61 0ZM498 0H61V700H498V628H148V401H418V329H148V72H498ZM176 820V880H399V820Z" glyph-name="Emacron" horiz-adv-x="538" unicode="&#274;" /><glyph d="M148 325V0H61V700H498V628H148V396H428V325Z" glyph-name="F" horiz-adv-x="538" unicode="F" /><glyph d="M384 342H649V0H590L569 109Q536 53 479.5 23.5Q423 -6 357 -6Q290 -6 232.5 20Q175 46 133 92.5Q91 139 67 204.5Q43 270 43 350Q43 429 67 495Q91 561 134 607.5Q177 654 235.5 680Q294 706 362 706Q411 706 454.5 691.5Q498 677 534 650.5Q570 624 597.5 586Q625 548 641 501L566 478Q540 553 485.5 592Q431 631 362 631Q314 631 271.5 612.5Q229 594 197.5 558Q166 522 147.5 469.5Q129 417 129 350Q129 282 147.5 229.5Q166 177 197.5 141Q229 105 271.5 86Q314 67 362 67Q436 67 489.5 104Q543 141 566 216V273H384Z" glyph-name="G" horiz-adv-x="701" unicode="G" /><glyph d="M43 0ZM384 342H649V0H590L569 109Q536 53 479.5 23.5Q423 -6 357 -6Q290 -6 232.5 20Q175 46 133 92.5Q91 139 67 204.5Q43 270 43 350Q43 429 67 495Q91 561 134 607.5Q177 654 235.5 680Q294 706 362 706Q411 706 454.5 691.5Q498 677 534 650.5Q570 624 597.5 586Q625 548 641 501L566 478Q540 553 485.5 592Q431 631 362 631Q314 631 271.5 612.5Q229 594 197.5 558Q166 522 147.5 469.5Q129 417 129 350Q129 282 147.5 229.5Q166 177 197.5 141Q229 105 271.5 86Q314 67 362 67Q436 67 489.5 104Q543 141 566 216V273H384ZM468 787 364 861 260 787 220 821 364 939 508 821Z" glyph-name="Gcircumflex" horiz-adv-x="701" unicode="&#284;" /><glyph d="M43 0ZM384 342H649V0H590L569 109Q536 53 479.5 23.5Q423 -6 357 -6Q290 -6 232.5 20Q175 46 133 92.5Q91 139 67 204.5Q43 270 43 350Q43 429 67 495Q91 561 134 607.5Q177 654 235.5 680Q294 706 362 706Q411 706 454.5 691.5Q498 677 534 650.5Q570 624 597.5 586Q625 548 641 501L566 478Q540 553 485.5 592Q431 631 362 631Q314 631 271.5 612.5Q229 594 197.5 558Q166 522 147.5 469.5Q129 417 129 350Q129 282 147.5 229.5Q166 177 197.5 141Q229 105 271.5 86Q314 67 362 67Q436 67 489.5 104Q543 141 566 216V273H384ZM364 804Q343 804 328.5 818.5Q314 833 314 853Q314 873 328.5 887.5Q343 902 364 902Q384 902 399 887.5Q414 873 414 853Q414 833 399 818.5Q384 804 364 804Z" glyph-name="Gdotaccent" horiz-adv-x="701" unicode="&#288;" /><glyph d="M493 329H148V0H61V700H148V401H493V700H580V0H493Z" glyph-name="H" horiz-adv-x="640" unicode="H" /><glyph d="M61 0ZM493 329H148V0H61V700H148V401H493V700H580V0H493ZM424 787 320 861 216 787 176 821 320 939 464 821Z" glyph-name="Hcircumflex" horiz-adv-x="640" unicode="&#292;" /><glyph d="M61 700H148V0H61Z" glyph-name="I" horiz-adv-x="208" unicode="I" /><glyph d="M16 0ZM61 700H148V0H61ZM171 945 226 885 49 783 16 820Z" glyph-name="Iacute" horiz-adv-x="208" unicode="&#205;" /><glyph d="M0 0ZM61 700H148V0H61ZM208 787 104 861 0 787 -40 821 104 939 248 821Z" glyph-name="Icircumflex" horiz-adv-x="208" unicode="&#206;" /><glyph d="M0 0ZM61 700H148V0H61ZM19 804Q-2 804 -16.5 818.5Q-31 833 -31 853Q-31 873 -16.5 887.5Q-2 902 19 902Q39 902 54 887.5Q69 873 69 853Q69 833 54 818.5Q39 804 19 804ZM189 804Q168 804 153.5 818.5Q139 833 139 853Q139 873 153.5 887.5Q168 902 189 902Q209 902 224 887.5Q239 873 239 853Q239 833 224 818.5Q209 804 189 804Z" glyph-name="Idieresis" horiz-adv-x="208" unicode="&#207;" /><glyph d="M54 0ZM61 700H148V0H61ZM104 804Q83 804 68.5 818.5Q54 833 54 853Q54 873 68.5 887.5Q83 902 104 902Q124 902 139 887.5Q154 873 154 853Q154 833 139 818.5Q124 804 104 804Z" glyph-name="Idotaccent" horiz-adv-x="208" unicode="&#304;" /><glyph d="M0 0ZM61 700H148V0H61ZM158 783 -19 885 36 945 191 820Z" glyph-name="Igrave" horiz-adv-x="208" unicode="&#204;" /><glyph d="M0 0ZM61 700H148V0H61ZM-7 820V880H216V820Z" glyph-name="Imacron" horiz-adv-x="208" unicode="&#298;" /><glyph d="M0 0ZM61 700H148V0H61ZM-64 809Q-24 902 40 902Q62 902 79 894Q96 886 111 877Q126 868 140 860Q154 852 168 852Q182 852 193.5 863Q205 874 221 900L271 882Q249 833 223 811Q197 789 165 789Q144 789 127 797Q110 805 95 814Q80 823 66.5 831Q53 839 39 839Q25 839 13 828Q1 817 -14 791Z" glyph-name="Itilde" horiz-adv-x="208" unicode="&#296;" /><glyph d="M237 -6Q159 -6 106.5 21.5Q54 49 17 91L86 137Q109 107 147.5 86.5Q186 66 238 66Q278 66 310 80Q342 94 364.5 119Q387 144 398.5 178.5Q410 213 410 254V700H497V244Q497 198 482 153Q467 108 435.5 73Q404 38 354.5 16Q305 -6 237 -6Z" glyph-name="J" horiz-adv-x="553" unicode="J" /><glyph d="M17 0ZM237 -6Q159 -6 106.5 21.5Q54 49 17 91L86 137Q109 107 147.5 86.5Q186 66 238 66Q278 66 310 80Q342 94 364.5 119Q387 144 398.5 178.5Q410 213 410 254V700H497V244Q497 198 482 153Q467 108 435.5 73Q404 38 354.5 16Q305 -6 237 -6ZM559 787 455 861 351 787 311 821 455 939 599 821Z" glyph-name="Jcircumflex" horiz-adv-x="553" unicode="&#308;" /><glyph d="M268 342 148 210V0H61V700H148V319L490 700H591L327 407L594 0H488Z" glyph-name="K" horiz-adv-x="610" unicode="K" /><glyph d="M493 0H61V700H148V72H493Z" glyph-name="L" horiz-adv-x="513" unicode="L" /><glyph d="M18 0ZM493 0H61V700H148V72H493ZM173 945 228 885 51 783 18 820Z" glyph-name="Lacute" horiz-adv-x="513" unicode="&#313;" /><glyph d="M605 700H736V0H649L650 528L651 626L617 528L423 0H361L170 528L136 628L137 528L138 0H61V700H194L365 226L398 129L431 226Z" glyph-name="M" horiz-adv-x="797" unicode="M" /><glyph d="M140 0H61V700H151L459 221L517 127L516 221L515 700H595V0H508L195 490L138 582L139 490Z" glyph-name="N" horiz-adv-x="655" unicode="N" /><glyph glyph-name="NULL" horiz-adv-x="250" /><glyph d="M61 0ZM140 0H61V700H151L459 221L517 127L516 221L515 700H595V0H508L195 490L138 582L139 490ZM395 945 450 885 273 783 240 820Z" glyph-name="Nacute" horiz-adv-x="655" unicode="&#323;" /><glyph d="M61 0ZM140 0H61V700H151L459 221L517 127L516 221L515 700H595V0H508L195 490L138 582L139 490ZM328 788 184 906 224 940 328 866 432 940 472 906Z" glyph-name="Ncaron" horiz-adv-x="655" unicode="&#327;" /><glyph d="M61 0ZM140 0H61V700H151L459 221L517 127L516 221L515 700H595V0H508L195 490L138 582L139 490ZM160 809Q200 902 264 902Q286 902 303 894Q320 886 335 877Q350 868 364 860Q378 852 392 852Q406 852 417.5 863Q429 874 445 900L495 882Q473 833 447 811Q421 789 389 789Q368 789 351 797Q334 805 319 814Q304 823 290.5 831Q277 839 263 839Q249 839 237 828Q225 817 210 791Z" glyph-name="Ntilde" horiz-adv-x="655" unicode="&#209;" /><glyph d="M359 706Q432 706 491 678Q550 650 591.5 601.5Q633 553 655 488Q677 423 677 350Q677 276 655 211.5Q633 147 592 98.5Q551 50 492 22Q433 -6 359 -6Q286 -6 227.5 22Q169 50 128 98.5Q87 147 65 211.5Q43 276 43 350Q43 423 65 488Q87 553 128 601.5Q169 650 227.5 678Q286 706 359 706ZM360 634Q312 634 270 616Q228 598 197 562Q166 526 148 473Q130 420 130 350Q130 280 148 227Q166 174 197 138Q228 102 270 84Q312 66 360 66Q408 66 450 84Q492 102 523 138Q554 174 572 227Q590 280 590 350Q590 420 572 473Q554 526 523 562Q492 598 450 616Q408 634 360 634Z" glyph-name="O" horiz-adv-x="722" unicode="O" /><glyph d="M575 329V72H925V0H362Q289 0 230 27.5Q171 55 129.5 102.5Q88 150 65.5 214Q43 278 43 350Q43 422 66 486Q89 550 131.5 597.5Q174 645 235 672.5Q296 700 372 700H925V628H575V401H845V329ZM488 72V628H371Q323 628 279 610.5Q235 593 202 558Q169 523 149.5 471Q130 419 130 350Q130 281 149.5 229Q169 177 202 142Q235 107 279 89.5Q323 72 371 72Z" glyph-name="OE" horiz-adv-x="965" unicode="&#338;" /><glyph d="M43 0ZM359 706Q432 706 491 678Q550 650 591.5 601.5Q633 553 655 488Q677 423 677 350Q677 276 655 211.5Q633 147 592 98.5Q551 50 492 22Q433 -6 359 -6Q286 -6 227.5 22Q169 50 128 98.5Q87 147 65 211.5Q43 276 43 350Q43 423 65 488Q87 553 128 601.5Q169 650 227.5 678Q286 706 359 706ZM360 634Q312 634 270 616Q228 598 197 562Q166 526 148 473Q130 420 130 350Q130 280 148 227Q166 174 197 138Q228 102 270 84Q312 66 360 66Q408 66 450 84Q492 102 523 138Q554 174 572 227Q590 280 590 350Q590 420 572 473Q554 526 523 562Q492 598 450 616Q408 634 360 634ZM427 945 482 885 305 783 272 820Z" glyph-name="Oacute" horiz-adv-x="722" unicode="&#211;" /><glyph d="M43 0ZM359 706Q432 706 491 678Q550 650 591.5 601.5Q633 553 655 488Q677 423 677 350Q677 276 655 211.5Q633 147 592 98.5Q551 50 492 22Q433 -6 359 -6Q286 -6 227.5 22Q169 50 128 98.5Q87 147 65 211.5Q43 276 43 350Q43 423 65 488Q87 553 128 601.5Q169 650 227.5 678Q286 706 359 706ZM360 634Q312 634 270 616Q228 598 197 562Q166 526 148 473Q130 420 130 350Q130 280 148 227Q166 174 197 138Q228 102 270 84Q312 66 360 66Q408 66 450 84Q492 102 523 138Q554 174 572 227Q590 280 590 350Q590 420 572 473Q554 526 523 562Q492 598 450 616Q408 634 360 634ZM464 787 360 861 256 787 216 821 360 939 504 821Z" glyph-name="Ocircumflex" horiz-adv-x="722" unicode="&#212;" /><glyph d="M43 0ZM359 706Q432 706 491 678Q550 650 591.5 601.5Q633 553 655 488Q677 423 677 350Q677 276 655 211.5Q633 147 592 98.5Q551 50 492 22Q433 -6 359 -6Q286 -6 227.5 22Q169 50 128 98.5Q87 147 65 211.5Q43 276 43 350Q43 423 65 488Q87 553 128 601.5Q169 650 227.5 678Q286 706 359 706ZM360 634Q312 634 270 616Q228 598 197 562Q166 526 148 473Q130 420 130 350Q130 280 148 227Q166 174 197 138Q228 102 270 84Q312 66 360 66Q408 66 450 84Q492 102 523 138Q554 174 572 227Q590 280 590 350Q590 420 572 473Q554 526 523 562Q492 598 450 616Q408 634 360 634ZM275 804Q254 804 239.5 818.5Q225 833 225 853Q225 873 239.5 887.5Q254 902 275 902Q295 902 310 887.5Q325 873 325 853Q325 833 310 818.5Q295 804 275 804ZM445 804Q424 804 409.5 818.5Q395 833 395 853Q395 873 409.5 887.5Q424 902 445 902Q465 902 480 887.5Q495 873 495 853Q495 833 480 818.5Q465 804 445 804Z" glyph-name="Odieresis" horiz-adv-x="722" unicode="&#214;" /><glyph d="M43 0ZM359 706Q432 706 491 678Q550 650 591.5 601.5Q633 553 655 488Q677 423 677 350Q677 276 655 211.5Q633 147 592 98.5Q551 50 492 22Q433 -6 359 -6Q286 -6 227.5 22Q169 50 128 98.5Q87 147 65 211.5Q43 276 43 350Q43 423 65 488Q87 553 128 601.5Q169 650 227.5 678Q286 706 359 706ZM360 634Q312 634 270 616Q228 598 197 562Q166 526 148 473Q130 420 130 350Q130 280 148 227Q166 174 197 138Q228 102 270 84Q312 66 360 66Q408 66 450 84Q492 102 523 138Q554 174 572 227Q590 280 590 350Q590 420 572 473Q554 526 523 562Q492 598 450 616Q408 634 360 634ZM414 783 237 885 292 945 447 820Z" glyph-name="Ograve" horiz-adv-x="722" unicode="&#210;" /><glyph d="M43 0ZM359 706Q432 706 491 678Q550 650 591.5 601.5Q633 553 655 488Q677 423 677 350Q677 276 655 211.5Q633 147 592 98.5Q551 50 492 22Q433 -6 359 -6Q286 -6 227.5 22Q169 50 128 98.5Q87 147 65 211.5Q43 276 43 350Q43 423 65 488Q87 553 128 601.5Q169 650 227.5 678Q286 706 359 706ZM360 634Q312 634 270 616Q228 598 197 562Q166 526 148 473Q130 420 130 350Q130 280 148 227Q166 174 197 138Q228 102 270 84Q312 66 360 66Q408 66 450 84Q492 102 523 138Q554 174 572 227Q590 280 590 350Q590 420 572 473Q554 526 523 562Q492 598 450 616Q408 634 360 634ZM249 820V880H472V820Z" glyph-name="Omacron" horiz-adv-x="722" unicode="&#332;" /><glyph d="M677 350Q677 276 655 211.5Q633 147 592 98.5Q551 50 492 22Q433 -6 359 -6Q304 -6 257.5 10.5Q211 27 173 56L125 -5H36L123 105Q84 153 63.5 215.5Q43 278 43 350Q43 423 65 488Q87 553 128 601.5Q169 650 227.5 678Q286 706 359 706Q415 706 462.5 689.5Q510 673 548 644L596 705H685L598 594Q636 546 656.5 483.5Q677 421 677 350ZM130 350Q130 293 141.5 248.5Q153 204 174 170L501 584Q442 634 360 634Q312 634 270 616Q228 598 197 562Q166 526 148 473Q130 420 130 350ZM590 350Q590 406 578.5 450.5Q567 495 547 530L220 115Q280 66 360 66Q408 66 450 84Q492 102 523 138Q554 174 572 227Q590 280 590 350Z" glyph-name="Oslash" horiz-adv-x="721" unicode="&#216;" /><glyph d="M43 0ZM359 706Q432 706 491 678Q550 650 591.5 601.5Q633 553 655 488Q677 423 677 350Q677 276 655 211.5Q633 147 592 98.5Q551 50 492 22Q433 -6 359 -6Q286 -6 227.5 22Q169 50 128 98.5Q87 147 65 211.5Q43 276 43 350Q43 423 65 488Q87 553 128 601.5Q169 650 227.5 678Q286 706 359 706ZM360 634Q312 634 270 616Q228 598 197 562Q166 526 148 473Q130 420 130 350Q130 280 148 227Q166 174 197 138Q228 102 270 84Q312 66 360 66Q408 66 450 84Q492 102 523 138Q554 174 572 227Q590 280 590 350Q590 420 572 473Q554 526 523 562Q492 598 450 616Q408 634 360 634ZM192 809Q232 902 296 902Q318 902 335 894Q352 886 367 877Q382 868 396 860Q410 852 424 852Q438 852 449.5 863Q461 874 477 900L527 882Q505 833 479 811Q453 789 421 789Q400 789 383 797Q366 805 351 814Q336 823 322.5 831Q309 839 295 839Q281 839 269 828Q257 817 242 791Z" glyph-name="Otilde" horiz-adv-x="722" unicode="&#213;" /><glyph d="M61 700H303Q353 700 396.5 686.5Q440 673 472 646.5Q504 620 522 581Q540 542 540 491Q540 442 520.5 403.5Q501 365 467.5 338Q434 311 389.5 296.5Q345 282 294 282H148V0H61ZM148 628V354H302Q377 354 415.5 391.5Q454 429 454 488Q454 557 415.5 592.5Q377 628 302 628Z" glyph-name="P" horiz-adv-x="570" unicode="P" /><glyph d="M648 -160Q554 -171 485 -130Q416 -89 388 -5Q380 -6 373.5 -6Q367 -6 359 -6Q286 -6 227.5 22Q169 50 128 98.5Q87 147 65 211.5Q43 276 43 350Q43 423 65 488Q87 553 128 601.5Q169 650 227.5 678Q286 706 359 706Q432 706 491 678Q550 650 591.5 601.5Q633 553 655 488Q677 423 677 350Q677 290 662.5 236Q648 182 620.5 137.5Q593 93 553.5 60Q514 27 463 10Q485 -44 533 -69Q581 -94 650 -84ZM360 634Q312 634 270 616Q228 598 197 562Q166 526 148 473Q130 420 130 350Q130 280 148 227Q166 174 197 138Q228 102 270 84Q312 66 360 66Q408 66 450 84Q492 102 523 138Q554 174 572 227Q590 280 590 350Q590 420 572 473Q554 526 523 562Q492 598 450 616Q408 634 360 634Z" glyph-name="Q" horiz-adv-x="721" unicode="Q" /><glyph d="M62 700H332Q376 700 415 686.5Q454 673 483 647.5Q512 622 528.5 585.5Q545 549 545 504Q545 464 532 431Q519 398 496.5 373.5Q474 349 442.5 333Q411 317 375 310L567 0H468L286 306H149V0H62ZM149 628V376H329Q393 376 426 411Q459 446 459 501Q459 559 426 593.5Q393 628 329 628Z" glyph-name="R" horiz-adv-x="576" unicode="R" /><glyph d="M62 0ZM62 700H332Q376 700 415 686.5Q454 673 483 647.5Q512 622 528.5 585.5Q545 549 545 504Q545 464 532 431Q519 398 496.5 373.5Q474 349 442.5 333Q411 317 375 310L567 0H468L286 306H149V0H62ZM149 628V376H329Q393 376 426 411Q459 446 459 501Q459 559 426 593.5Q393 628 329 628ZM360 945 415 885 238 783 205 820Z" glyph-name="Racute" horiz-adv-x="576" unicode="&#340;" /><glyph d="M62 0ZM62 700H332Q376 700 415 686.5Q454 673 483 647.5Q512 622 528.5 585.5Q545 549 545 504Q545 464 532 431Q519 398 496.5 373.5Q474 349 442.5 333Q411 317 375 310L567 0H468L286 306H149V0H62ZM149 628V376H329Q393 376 426 411Q459 446 459 501Q459 559 426 593.5Q393 628 329 628ZM293 788 149 906 189 940 293 866 397 940 437 906Z" glyph-name="Rcaron" horiz-adv-x="576" unicode="&#344;" /><glyph d="M82 178Q124 118 183 91.5Q242 65 306 65Q346 65 375.5 75Q405 85 424.5 101.5Q444 118 453.5 140Q463 162 463 187Q463 202 458 218.5Q453 235 438.5 250Q424 265 399 279Q374 293 334 304L196 342Q117 363 80.5 409Q44 455 44 517Q44 560 60.5 595Q77 630 106 655Q135 680 175.5 693Q216 706 264 706Q346 706 411.5 671.5Q477 637 526 579L453 538Q412 585 365 610.5Q318 636 262 636Q190 636 156 604Q122 572 122 524Q122 507 127 491Q132 475 146.5 460Q161 445 187.5 431.5Q214 418 257 406L371 375Q467 349 506.5 301Q546 253 546 189Q546 150 530.5 115Q515 80 485 53Q455 26 410 10Q365 -6 307 -6Q219 -6 145.5 26Q72 58 11 130Z" glyph-name="S" horiz-adv-x="574" unicode="S" /><glyph d="M11 0ZM82 178Q124 118 183 91.5Q242 65 306 65Q346 65 375.5 75Q405 85 424.5 101.5Q444 118 453.5 140Q463 162 463 187Q463 202 458 218.5Q453 235 438.5 250Q424 265 399 279Q374 293 334 304L196 342Q117 363 80.5 409Q44 455 44 517Q44 560 60.5 595Q77 630 106 655Q135 680 175.5 693Q216 706 264 706Q346 706 411.5 671.5Q477 637 526 579L453 538Q412 585 365 610.5Q318 636 262 636Q190 636 156 604Q122 572 122 524Q122 507 127 491Q132 475 146.5 460Q161 445 187.5 431.5Q214 418 257 406L371 375Q467 349 506.5 301Q546 253 546 189Q546 150 530.5 115Q515 80 485 53Q455 26 410 10Q365 -6 307 -6Q219 -6 145.5 26Q72 58 11 130ZM345 945 400 885 223 783 190 820Z" glyph-name="Sacute" horiz-adv-x="574" unicode="&#346;" /><glyph d="M11 0ZM82 178Q124 118 183 91.5Q242 65 306 65Q346 65 375.5 75Q405 85 424.5 101.5Q444 118 453.5 140Q463 162 463 187Q463 202 458 218.5Q453 235 438.5 250Q424 265 399 279Q374 293 334 304L196 342Q117 363 80.5 409Q44 455 44 517Q44 560 60.5 595Q77 630 106 655Q135 680 175.5 693Q216 706 264 706Q346 706 411.5 671.5Q477 637 526 579L453 538Q412 585 365 610.5Q318 636 262 636Q190 636 156 604Q122 572 122 524Q122 507 127 491Q132 475 146.5 460Q161 445 187.5 431.5Q214 418 257 406L371 375Q467 349 506.5 301Q546 253 546 189Q546 150 530.5 115Q515 80 485 53Q455 26 410 10Q365 -6 307 -6Q219 -6 145.5 26Q72 58 11 130ZM278 788 134 906 174 940 278 866 382 940 422 906Z" glyph-name="Scaron" horiz-adv-x="574" unicode="&#352;" /><glyph d="M387 -115Q387 -153 359.5 -178Q332 -203 281 -203Q237 -203 210 -185Q183 -167 173 -138L220 -121Q228 -140 243 -148Q258 -156 278 -156Q306 -156 317.5 -143Q329 -130 329 -116Q329 -102 318 -90.5Q307 -79 281 -79H238L262 -4Q189 4 126.5 35.5Q64 67 11 130L82 178Q124 118 183 91.5Q242 65 306 65Q346 65 375.5 75Q405 85 424.5 101.5Q444 118 453.5 140Q463 162 463 187Q463 202 458 218.5Q453 235 438.5 250Q424 265 399 279Q374 293 334 304L196 342Q117 363 80.5 409Q44 455 44 517Q44 560 60.5 595Q77 630 106 655Q135 680 175.5 693Q216 706 264 706Q346 706 411.5 671.5Q477 637 526 579L453 538Q412 585 365 610.5Q318 636 262 636Q190 636 156 604Q122 572 122 524Q122 507 127 491Q132 475 146.5 460Q161 445 187.5 431.5Q214 418 257 406L371 375Q467 349 506.5 301Q546 253 546 189Q546 151 531 116.5Q516 82 487 55Q458 28 414.5 11.5Q371 -5 314 -6L301 -40Q347 -42 367 -65Q387 -88 387 -115Z" glyph-name="Scedilla" horiz-adv-x="574" unicode="&#350;" /><glyph d="M11 0ZM82 178Q124 118 183 91.5Q242 65 306 65Q346 65 375.5 75Q405 85 424.5 101.5Q444 118 453.5 140Q463 162 463 187Q463 202 458 218.5Q453 235 438.5 250Q424 265 399 279Q374 293 334 304L196 342Q117 363 80.5 409Q44 455 44 517Q44 560 60.5 595Q77 630 106 655Q135 680 175.5 693Q216 706 264 706Q346 706 411.5 671.5Q477 637 526 579L453 538Q412 585 365 610.5Q318 636 262 636Q190 636 156 604Q122 572 122 524Q122 507 127 491Q132 475 146.5 460Q161 445 187.5 431.5Q214 418 257 406L371 375Q467 349 506.5 301Q546 253 546 189Q546 150 530.5 115Q515 80 485 53Q455 26 410 10Q365 -6 307 -6Q219 -6 145.5 26Q72 58 11 130ZM382 787 278 861 174 787 134 821 278 939 422 821Z" glyph-name="Scircumflex" horiz-adv-x="574" unicode="&#348;" /><glyph d="M20 700H568V628H338V0H251V628H20Z" glyph-name="T" horiz-adv-x="588" unicode="T" /><glyph d="M20 700H568V628H338V0H324L308 -40Q354 -42 374 -65Q394 -88 394 -115Q394 -153 366.5 -178Q339 -203 288 -203Q244 -203 217 -185Q190 -167 180 -138L227 -121Q235 -140 250 -148Q265 -156 285 -156Q313 -156 324.5 -143Q336 -130 336 -116Q336 -102 325 -90.5Q314 -79 288 -79H245L270 0H251V628H20Z" glyph-name="Tcommaaccent" horiz-adv-x="588" unicode="&#538;" /><glyph d="M573 244Q573 191 555 145Q537 99 503.5 65.5Q470 32 422.5 13Q375 -6 315 -6Q255 -6 207 13Q159 32 125.5 65.5Q92 99 73.5 145Q55 191 55 244V700H142V249Q142 204 156 170Q170 136 194 112.5Q218 89 249 77.5Q280 66 314 66Q349 66 381 77.5Q413 89 437 112Q461 135 475.5 169.5Q490 204 490 249V700H573V244Z" glyph-name="U" horiz-adv-x="628" unicode="U" /><glyph d="M55 0ZM573 244Q573 191 555 145Q537 99 503.5 65.5Q470 32 422.5 13Q375 -6 315 -6Q255 -6 207 13Q159 32 125.5 65.5Q92 99 73.5 145Q55 191 55 244V700H142V249Q142 204 156 170Q170 136 194 112.5Q218 89 249 77.5Q280 66 314 66Q349 66 381 77.5Q413 89 437 112Q461 135 475.5 169.5Q490 204 490 249V700H573V244ZM382 945 437 885 260 783 227 820Z" glyph-name="Uacute" horiz-adv-x="628" unicode="&#218;" /><glyph d="M55 0ZM573 244Q573 191 555 145Q537 99 503.5 65.5Q470 32 422.5 13Q375 -6 315 -6Q255 -6 207 13Q159 32 125.5 65.5Q92 99 73.5 145Q55 191 55 244V700H142V249Q142 204 156 170Q170 136 194 112.5Q218 89 249 77.5Q280 66 314 66Q349 66 381 77.5Q413 89 437 112Q461 135 475.5 169.5Q490 204 490 249V700H573V244ZM419 787 315 861 211 787 171 821 315 939 459 821Z" glyph-name="Ucircumflex" horiz-adv-x="628" unicode="&#219;" /><glyph d="M55 0ZM573 244Q573 191 555 145Q537 99 503.5 65.5Q470 32 422.5 13Q375 -6 315 -6Q255 -6 207 13Q159 32 125.5 65.5Q92 99 73.5 145Q55 191 55 244V700H142V249Q142 204 156 170Q170 136 194 112.5Q218 89 249 77.5Q280 66 314 66Q349 66 381 77.5Q413 89 437 112Q461 135 475.5 169.5Q490 204 490 249V700H573V244ZM230 804Q209 804 194.5 818.5Q180 833 180 853Q180 873 194.5 887.5Q209 902 230 902Q250 902 265 887.5Q280 873 280 853Q280 833 265 818.5Q250 804 230 804ZM400 804Q379 804 364.5 818.5Q350 833 350 853Q350 873 364.5 887.5Q379 902 400 902Q420 902 435 887.5Q450 873 450 853Q450 833 435 818.5Q420 804 400 804Z" glyph-name="Udieresis" horiz-adv-x="628" unicode="&#220;" /><glyph d="M55 0ZM573 244Q573 191 555 145Q537 99 503.5 65.5Q470 32 422.5 13Q375 -6 315 -6Q255 -6 207 13Q159 32 125.5 65.5Q92 99 73.5 145Q55 191 55 244V700H142V249Q142 204 156 170Q170 136 194 112.5Q218 89 249 77.5Q280 66 314 66Q349 66 381 77.5Q413 89 437 112Q461 135 475.5 169.5Q490 204 490 249V700H573V244ZM369 783 192 885 247 945 402 820Z" glyph-name="Ugrave" horiz-adv-x="628" unicode="&#217;" /><glyph d="M55 0ZM573 244Q573 191 555 145Q537 99 503.5 65.5Q470 32 422.5 13Q375 -6 315 -6Q255 -6 207 13Q159 32 125.5 65.5Q92 99 73.5 145Q55 191 55 244V700H142V249Q142 204 156 170Q170 136 194 112.5Q218 89 249 77.5Q280 66 314 66Q349 66 381 77.5Q413 89 437 112Q461 135 475.5 169.5Q490 204 490 249V700H573V244ZM204 820V880H427V820Z" glyph-name="Umacron" horiz-adv-x="628" unicode="&#362;" /><glyph d="M55 0ZM573 244Q573 191 555 145Q537 99 503.5 65.5Q470 32 422.5 13Q375 -6 315 -6Q255 -6 207 13Q159 32 125.5 65.5Q92 99 73.5 145Q55 191 55 244V700H142V249Q142 204 156 170Q170 136 194 112.5Q218 89 249 77.5Q280 66 314 66Q349 66 381 77.5Q413 89 437 112Q461 135 475.5 169.5Q490 204 490 249V700H573V244ZM147 809Q187 902 251 902Q273 902 290 894Q307 886 322 877Q337 868 351 860Q365 852 379 852Q393 852 404.5 863Q416 874 432 900L482 882Q460 833 434 811Q408 789 376 789Q355 789 338 797Q321 805 306 814Q291 823 277.5 831Q264 839 250 839Q236 839 224 828Q212 817 197 791Z" glyph-name="Utilde" horiz-adv-x="628" unicode="&#360;" /><glyph d="M368 0H276L13 700H106L326 96L551 700H635Z" glyph-name="V" horiz-adv-x="649" unicode="V" /><glyph d="M763 0H668L513 490L488 573L463 490L308 0H214L30 700H122L237 243L268 116L307 243L451 700H532L676 243L715 115L746 243L861 700H945Z" glyph-name="W" horiz-adv-x="976" unicode="W" /><glyph d="M30 0ZM763 0H668L513 490L488 573L463 490L308 0H214L30 700H122L237 243L268 116L307 243L451 700H532L676 243L715 115L746 243L861 700H945ZM555 945 610 885 433 783 400 820Z" glyph-name="Wacute" horiz-adv-x="976" unicode="&#7810;" /><glyph d="M30 0ZM763 0H668L513 490L488 573L463 490L308 0H214L30 700H122L237 243L268 116L307 243L451 700H532L676 243L715 115L746 243L861 700H945ZM592 787 488 861 384 787 344 821 488 939 632 821Z" glyph-name="Wcircumflex" horiz-adv-x="976" unicode="&#372;" /><glyph d="M30 0ZM763 0H668L513 490L488 573L463 490L308 0H214L30 700H122L237 243L268 116L307 243L451 700H532L676 243L715 115L746 243L861 700H945ZM403 804Q382 804 367.5 818.5Q353 833 353 853Q353 873 367.5 887.5Q382 902 403 902Q423 902 438 887.5Q453 873 453 853Q453 833 438 818.5Q423 804 403 804ZM573 804Q552 804 537.5 818.5Q523 833 523 853Q523 873 537.5 887.5Q552 902 573 902Q593 902 608 887.5Q623 873 623 853Q623 833 608 818.5Q593 804 573 804Z" glyph-name="Wdieresis" horiz-adv-x="976" unicode="&#7812;" /><glyph d="M30 0ZM763 0H668L513 490L488 573L463 490L308 0H214L30 700H122L237 243L268 116L307 243L451 700H532L676 243L715 115L746 243L861 700H945ZM542 783 365 885 420 945 575 820Z" glyph-name="Wgrave" horiz-adv-x="976" unicode="&#7808;" /><glyph d="M324 306 110 0H15L279 363L38 700H144L331 434L515 700H610L376 376L650 0H544Z" glyph-name="X" horiz-adv-x="664" unicode="X" /><glyph d="M352 0H265V300L15 700H112L314 365L515 700H602L352 300Z" glyph-name="Y" horiz-adv-x="617" unicode="Y" /><glyph d="M15 0ZM352 0H265V300L15 700H112L314 365L515 700H602L352 300ZM376 945 431 885 254 783 221 820Z" glyph-name="Yacute" horiz-adv-x="617" unicode="&#221;" /><glyph d="M15 0ZM352 0H265V300L15 700H112L314 365L515 700H602L352 300ZM413 787 309 861 205 787 165 821 309 939 453 821Z" glyph-name="Ycircumflex" horiz-adv-x="617" unicode="&#374;" /><glyph d="M15 0ZM352 0H265V300L15 700H112L314 365L515 700H602L352 300ZM224 804Q203 804 188.5 818.5Q174 833 174 853Q174 873 188.5 887.5Q203 902 224 902Q244 902 259 887.5Q274 873 274 853Q274 833 259 818.5Q244 804 224 804ZM394 804Q373 804 358.5 818.5Q344 833 344 853Q344 873 358.5 887.5Q373 902 394 902Q414 902 429 887.5Q444 873 444 853Q444 833 429 818.5Q414 804 394 804Z" glyph-name="Ydieresis" horiz-adv-x="617" unicode="&#376;" /><glyph d="M15 0ZM352 0H265V300L15 700H112L314 365L515 700H602L352 300ZM363 783 186 885 241 945 396 820Z" glyph-name="Ygrave" horiz-adv-x="617" unicode="&#7922;" /><glyph d="M517 0H20V53L418 628H25V700H517V639L128 72H517Z" glyph-name="Z" horiz-adv-x="537" unicode="Z" /><glyph d="M20 0ZM517 0H20V53L418 628H25V700H517V639L128 72H517ZM336 945 391 885 214 783 181 820Z" glyph-name="Zacute" horiz-adv-x="537" unicode="&#377;" /><glyph d="M20 0ZM517 0H20V53L418 628H25V700H517V639L128 72H517ZM269 788 125 906 165 940 269 866 373 940 413 906Z" glyph-name="Zcaron" horiz-adv-x="537" unicode="&#381;" /><glyph d="M20 0ZM517 0H20V53L418 628H25V700H517V639L128 72H517ZM269 804Q248 804 233.5 818.5Q219 833 219 853Q219 873 233.5 887.5Q248 902 269 902Q289 902 304 887.5Q319 873 319 853Q319 833 304 818.5Q289 804 269 804Z" glyph-name="Zdotaccent" horiz-adv-x="537" unicode="&#379;" /><glyph d="M361 0Q358 45 358 90Q335 45 289.5 19.5Q244 -6 184 -6Q113 -6 69 31.5Q25 69 25 133Q25 187 66 222Q107 257 182 274L359 313V316Q359 379 329.5 409Q300 439 249 439Q202 439 164 415.5Q126 392 106 346L34 372Q63 434 120.5 470Q178 506 250 506Q343 506 391 459Q439 412 439 331V62Q439 56 439 47Q439 38 439.5 29Q440 20 440.5 12Q441 4 441 0ZM104 132Q104 97 132 78.5Q160 60 203 60Q228 60 252.5 67.5Q277 75 298 89Q319 103 335 123.5Q351 144 359 171V249L197 212Q155 202 129.5 183Q104 164 104 132Z" glyph-name="a" horiz-adv-x="489" unicode="a" /><glyph d="M419 74Q391 36 351.5 15Q312 -6 265 -6Q216 -6 174 13Q132 32 101 65.5Q70 99 52.5 146Q35 193 35 250Q35 307 52.5 354Q70 401 101 434.5Q132 468 174.5 487Q217 506 266 506Q316 506 356.5 483.5Q397 461 425 421L434 500H499V0H419ZM114 250Q114 205 127 170Q140 135 162 111Q184 87 213.5 74.5Q243 62 276 62Q322 62 360 84Q398 106 419 149V351Q398 394 360 416Q322 438 276 438Q243 438 213.5 425.5Q184 413 162 389Q140 365 127 330Q114 295 114 250Z" glyph-name="a.school" horiz-adv-x="549" /><glyph d="M25 0ZM361 0Q358 45 358 90Q335 45 289.5 19.5Q244 -6 184 -6Q113 -6 69 31.5Q25 69 25 133Q25 187 66 222Q107 257 182 274L359 313V316Q359 379 329.5 409Q300 439 249 439Q202 439 164 415.5Q126 392 106 346L34 372Q63 434 120.5 470Q178 506 250 506Q343 506 391 459Q439 412 439 331V62Q439 56 439 47Q439 38 439.5 29Q440 20 440.5 12Q441 4 441 0ZM104 132Q104 97 132 78.5Q160 60 203 60Q228 60 252.5 67.5Q277 75 298 89Q319 103 335 123.5Q351 144 359 171V249L197 212Q155 202 129.5 183Q104 164 104 132ZM311 745 366 685 189 583 156 620Z" glyph-name="aacute" horiz-adv-x="489" unicode="&#225;" /><glyph d="M25 0ZM361 0Q358 45 358 90Q335 45 289.5 19.5Q244 -6 184 -6Q113 -6 69 31.5Q25 69 25 133Q25 187 66 222Q107 257 182 274L359 313V316Q359 379 329.5 409Q300 439 249 439Q202 439 164 415.5Q126 392 106 346L34 372Q63 434 120.5 470Q178 506 250 506Q343 506 391 459Q439 412 439 331V62Q439 56 439 47Q439 38 439.5 29Q440 20 440.5 12Q441 4 441 0ZM104 132Q104 97 132 78.5Q160 60 203 60Q228 60 252.5 67.5Q277 75 298 89Q319 103 335 123.5Q351 144 359 171V249L197 212Q155 202 129.5 183Q104 164 104 132ZM348 587 244 661 140 587 100 621 244 739 388 621Z" glyph-name="acircumflex" horiz-adv-x="489" unicode="&#226;" /><glyph d="M317 745 372 685 195 583 162 620Z" glyph-name="acute" horiz-adv-x="500" unicode="&#180;" /><glyph d="M25 0ZM361 0Q358 45 358 90Q335 45 289.5 19.5Q244 -6 184 -6Q113 -6 69 31.5Q25 69 25 133Q25 187 66 222Q107 257 182 274L359 313V316Q359 379 329.5 409Q300 439 249 439Q202 439 164 415.5Q126 392 106 346L34 372Q63 434 120.5 470Q178 506 250 506Q343 506 391 459Q439 412 439 331V62Q439 56 439 47Q439 38 439.5 29Q440 20 440.5 12Q441 4 441 0ZM104 132Q104 97 132 78.5Q160 60 203 60Q228 60 252.5 67.5Q277 75 298 89Q319 103 335 123.5Q351 144 359 171V249L197 212Q155 202 129.5 183Q104 164 104 132ZM159 604Q138 604 123.5 618.5Q109 633 109 653Q109 673 123.5 687.5Q138 702 159 702Q179 702 194 687.5Q209 673 209 653Q209 633 194 618.5Q179 604 159 604ZM329 604Q308 604 293.5 618.5Q279 633 279 653Q279 673 293.5 687.5Q308 702 329 702Q349 702 364 687.5Q379 673 379 653Q379 633 364 618.5Q349 604 329 604Z" glyph-name="adieresis" horiz-adv-x="489" unicode="&#228;" /><glyph d="M811 129Q782 66 725 30Q668 -6 596 -6Q528 -6 474.5 27Q421 60 391 117Q363 60 306.5 27Q250 -6 177 -6Q145 -6 117 4Q89 14 68.5 32.5Q48 51 36.5 76.5Q25 102 25 133Q25 195 77.5 230Q130 265 221 285L359 315V316Q359 379 329.5 408.5Q300 438 248 438Q202 438 164 414.5Q126 391 106 346L34 372Q63 434 120 470Q177 506 249 506Q315 506 355 482Q395 458 415 420Q445 465 490 485.5Q535 506 589 506Q641 506 682.5 488Q724 470 753.5 437Q783 404 798.5 357Q814 310 814 253V238H439Q441 196 454 163Q467 130 488 107.5Q509 85 536.5 73.5Q564 62 595 62Q642 62 681 85.5Q720 109 740 155ZM590 438Q537 438 496.5 403Q456 368 444 302H734Q724 370 687 404Q650 438 590 438ZM104 132Q104 98 129.5 80Q155 62 192 62Q226 62 256.5 72Q287 82 310 101.5Q333 121 346 150Q359 179 359 216V250L236 223Q178 210 141 189.5Q104 169 104 132Z" glyph-name="ae" horiz-adv-x="847" unicode="&#230;" /><glyph d="M25 0ZM361 0Q358 45 358 90Q335 45 289.5 19.5Q244 -6 184 -6Q113 -6 69 31.5Q25 69 25 133Q25 187 66 222Q107 257 182 274L359 313V316Q359 379 329.5 409Q300 439 249 439Q202 439 164 415.5Q126 392 106 346L34 372Q63 434 120.5 470Q178 506 250 506Q343 506 391 459Q439 412 439 331V62Q439 56 439 47Q439 38 439.5 29Q440 20 440.5 12Q441 4 441 0ZM104 132Q104 97 132 78.5Q160 60 203 60Q228 60 252.5 67.5Q277 75 298 89Q319 103 335 123.5Q351 144 359 171V249L197 212Q155 202 129.5 183Q104 164 104 132ZM298 583 121 685 176 745 331 620Z" glyph-name="agrave" horiz-adv-x="489" unicode="&#224;" /><glyph d="M25 0ZM361 0Q358 45 358 90Q335 45 289.5 19.5Q244 -6 184 -6Q113 -6 69 31.5Q25 69 25 133Q25 187 66 222Q107 257 182 274L359 313V316Q359 379 329.5 409Q300 439 249 439Q202 439 164 415.5Q126 392 106 346L34 372Q63 434 120.5 470Q178 506 250 506Q343 506 391 459Q439 412 439 331V62Q439 56 439 47Q439 38 439.5 29Q440 20 440.5 12Q441 4 441 0ZM104 132Q104 97 132 78.5Q160 60 203 60Q228 60 252.5 67.5Q277 75 298 89Q319 103 335 123.5Q351 144 359 171V249L197 212Q155 202 129.5 183Q104 164 104 132ZM133 620V680H356V620Z" glyph-name="amacron" horiz-adv-x="489" unicode="&#257;" /><glyph d="M460 81Q407 33 356 14Q305 -5 255 -5Q208 -5 168 8.5Q128 22 98.5 46.5Q69 71 52.5 105.5Q36 140 36 181Q36 217 46 244Q56 271 73.5 292.5Q91 314 116 331Q141 348 171 363L190 373L188 375Q150 417 129 455.5Q108 494 108 537Q108 574 122 605.5Q136 637 161 659Q186 681 220.5 693.5Q255 706 295 706Q332 706 364 694.5Q396 683 420 662.5Q444 642 457.5 613Q471 584 471 549Q471 504 442 460Q413 416 346 381L305 360L464 190Q490 224 516 269Q542 314 568 374L641 357Q609 286 577.5 232Q546 178 514 138L643 0H535ZM260 408 307 431Q346 451 369 479Q392 507 392 547Q392 592 363 615.5Q334 639 293 639Q250 639 218.5 613Q187 587 187 537Q187 499 206 472Q225 445 253 415ZM115 181Q115 152 126 130Q137 108 155.5 93Q174 78 199.5 70.5Q225 63 254 63Q289 63 328.5 76.5Q368 90 413 132L236 323L211 310Q194 301 177 289Q160 277 146 261Q132 245 123.5 225.5Q115 206 115 181Z" glyph-name="ampersand" horiz-adv-x="664" unicode="&amp;" /><glyph d="M245 499 118 303H34L211 577H284L461 303H372Z" glyph-name="asciicircum" horiz-adv-x="500" unicode="^" /><glyph d="M20 331Q45 387 82 422Q119 457 159 457Q188 457 209 445.5Q230 434 248 419.5Q266 405 282.5 393.5Q299 382 318 382Q336 382 356 401Q376 420 396 453L453 433Q427 375 389.5 341.5Q352 308 312 308Q285 308 264 319.5Q243 331 225.5 345.5Q208 360 191.5 371.5Q175 383 157 383Q139 383 118.5 364Q98 345 78 312Z" glyph-name="asciitilde" horiz-adv-x="473" unicode="~" /><glyph d="M239 442 143 298 83 341 191 477 24 523 46 593 208 533 201 706H274L267 533L430 594L452 524L286 478L394 341L334 299Z" glyph-name="asterisk" horiz-adv-x="476" unicode="*" /><glyph d="M581 -167Q486 -215 388 -215Q309 -215 245 -189Q181 -163 136 -118.5Q91 -74 67 -13.5Q43 47 43 116Q43 207 74 283.5Q105 360 158 415.5Q211 471 281.5 501.5Q352 532 432 532Q505 532 566.5 509Q628 486 672 445Q716 404 740.5 348.5Q765 293 765 227Q765 107 715 40.5Q665 -26 582 -26Q537 -26 510 -7Q483 12 475 47Q452 12 420 -7.5Q388 -27 352 -27Q322 -27 297.5 -15.5Q273 -4 255.5 16.5Q238 37 228 64.5Q218 92 218 125Q218 166 231.5 204.5Q245 243 270 272.5Q295 302 330 320Q365 338 407 338Q444 338 471.5 321Q499 304 515 275L531 323H587L539 85Q534 59 548 41Q562 23 594 23Q623 23 645 38.5Q667 54 682 81Q697 108 704.5 144.5Q712 181 712 223Q712 282 690 330.5Q668 379 629.5 413.5Q591 448 539 467Q487 486 426 486Q356 486 295.5 457.5Q235 429 191 379.5Q147 330 121.5 263.5Q96 197 96 122Q96 58 117.5 4.5Q139 -49 178 -87.5Q217 -126 271 -147.5Q325 -169 389 -169Q478 -169 561 -126ZM282 130Q282 83 307 55Q332 27 374 27Q405 27 431.5 45Q458 63 475 98Q475 103 476 106L499 222Q488 252 464 267Q440 282 411 282Q383 282 359.5 270Q336 258 318.5 237.5Q301 217 291.5 189.5Q282 162 282 130Z" glyph-name="at" horiz-adv-x="796" unicode="@" /><glyph d="M43 0ZM581 8Q486 -40 388 -40Q309 -40 245 -14Q181 12 136 56.5Q91 101 67 161.5Q43 222 43 291Q43 382 74 458.5Q105 535 158 590.5Q211 646 281.5 676.5Q352 707 432 707Q505 707 566.5 684Q628 661 672 620Q716 579 740.5 523.5Q765 468 765 402Q765 282 715 215.5Q665 149 582 149Q537 149 510 168Q483 187 475 222Q452 187 420 167.5Q388 148 352 148Q322 148 297.5 159.5Q273 171 255.5 191.5Q238 212 228 239.5Q218 267 218 300Q218 341 231.5 379.5Q245 418 270 447.5Q295 477 330 495Q365 513 407 513Q444 513 471.5 496Q499 479 515 450L531 498H587L539 260Q534 234 548 216Q562 198 594 198Q623 198 645 213.5Q667 229 682 256Q697 283 704.5 319.5Q712 356 712 398Q712 457 690 505.5Q668 554 629.5 588.5Q591 623 539 642Q487 661 426 661Q356 661 295.5 632.5Q235 604 191 554.5Q147 505 121.5 438.5Q96 372 96 297Q96 233 117.5 179.5Q139 126 178 87.5Q217 49 271 27.5Q325 6 389 6Q478 6 561 49ZM282 305Q282 258 307 230Q332 202 374 202Q405 202 431.5 220Q458 238 475 273Q475 278 476 281L499 397Q488 427 464 442Q440 457 411 457Q383 457 359.5 445Q336 433 318.5 412.5Q301 392 291.5 364.5Q282 337 282 305Z" glyph-name="at.cap" horiz-adv-x="796" /><glyph d="M25 0ZM361 0Q358 45 358 90Q335 45 289.5 19.5Q244 -6 184 -6Q113 -6 69 31.5Q25 69 25 133Q25 187 66 222Q107 257 182 274L359 313V316Q359 379 329.5 409Q300 439 249 439Q202 439 164 415.5Q126 392 106 346L34 372Q63 434 120.5 470Q178 506 250 506Q343 506 391 459Q439 412 439 331V62Q439 56 439 47Q439 38 439.5 29Q440 20 440.5 12Q441 4 441 0ZM104 132Q104 97 132 78.5Q160 60 203 60Q228 60 252.5 67.5Q277 75 298 89Q319 103 335 123.5Q351 144 359 171V249L197 212Q155 202 129.5 183Q104 164 104 132ZM76 609Q116 702 180 702Q202 702 219 694Q236 686 251 677Q266 668 280 660Q294 652 308 652Q322 652 333.5 663Q345 674 361 700L411 682Q389 633 363 611Q337 589 305 589Q284 589 267 597Q250 605 235 614Q220 623 206.5 631Q193 639 179 639Q165 639 153 628Q141 617 126 591Z" glyph-name="atilde" horiz-adv-x="489" unicode="&#227;" /><glyph d="M514 250Q514 193 497 146Q480 99 450 65.5Q420 32 378.5 13Q337 -6 288 -6Q237 -6 195 16.5Q153 39 125 79L110 0H50V700H130V420Q159 461 199.5 483.5Q240 506 289 506Q338 506 379 487Q420 468 450 434.5Q480 401 497 354Q514 307 514 250ZM278 438Q229 438 189.5 413Q150 388 130 340V160Q150 112 189.5 86.5Q229 61 278 61Q311 61 339.5 73.5Q368 86 389.5 110Q411 134 423 169.5Q435 205 435 250Q435 295 423 330Q411 365 389.5 389Q368 413 339.5 425.5Q311 438 278 438Z" glyph-name="b" horiz-adv-x="549" unicode="b" /><glyph d="M350 -200 0 700H82L432 -200Z" glyph-name="backslash" horiz-adv-x="380" unicode="\" /><glyph d="M50 700H130V-200H50Z" glyph-name="bar" horiz-adv-x="180" unicode="|" /><glyph d="M251 -214Q165 -182 130.5 -140.5Q96 -99 96 -41Q96 -19 104 3.5Q112 26 121 48Q130 70 138 90.5Q146 111 146 128Q146 172 123 195Q100 218 43 219H7V283H43Q100 284 123 307Q146 330 146 374Q146 391 138 411.5Q130 432 121 454Q112 476 104 498.5Q96 521 96 543Q96 601 130.5 642.5Q165 684 251 716L284 662Q248 650 227 636Q206 622 195 607Q184 592 180.5 576Q177 560 177 543Q177 523 184.5 503Q192 483 201 463Q210 443 217.5 423.5Q225 404 225 385Q225 340 197.5 307.5Q170 275 132 251Q170 227 197.5 194.5Q225 162 225 117Q225 98 217.5 78.5Q210 59 201 39Q192 19 184.5 -1Q177 -21 177 -41Q177 -58 180.5 -74Q184 -90 195 -105Q206 -120 227 -134Q248 -148 284 -160Z" glyph-name="braceleft" horiz-adv-x="304" unicode="{" /><glyph d="M208 -41Q208 -99 173.5 -140.5Q139 -182 53 -214L20 -160Q56 -148 77 -134Q98 -120 109 -105Q120 -90 123.5 -74Q127 -58 127 -41Q127 -21 119.5 -1Q112 19 103 39Q94 59 86.5 78.5Q79 98 79 117Q79 162 106.5 194.5Q134 227 172 251Q134 275 106.5 307.5Q79 340 79 385Q79 404 86.5 423.5Q94 443 103 463Q112 483 119.5 503Q127 523 127 543Q127 560 123.5 576Q120 592 109 607Q98 622 77 636Q56 650 20 662L53 716Q139 684 173.5 642.5Q208 601 208 543Q208 521 200 498.5Q192 476 183 454Q174 432 166 411.5Q158 391 158 374Q158 330 181 307Q204 284 261 283H297V219H261Q204 218 181 195Q158 172 158 128Q158 111 166 90.5Q174 70 183 48Q192 26 200 3.5Q208 -19 208 -41Z" glyph-name="braceright" horiz-adv-x="304" unicode="}" /><glyph d="M50 700H275V631H130V-131H275V-200H50Z" glyph-name="bracketleft" horiz-adv-x="304" unicode="[" /><glyph d="M254 -200H29V-131H174V631H29V700H254Z" glyph-name="bracketright" horiz-adv-x="304" unicode="]" /><glyph d="M-77 101ZM-175.0443 101.8272Q-213.5917 101.8272 -243.466 129.7741Q-273.3402 157.721 -273.3402 198.1957Q-273.3402 238.6705 -243.466 266.6174Q-213.5917 294.5642 -175.0443 294.5642Q-132.6422 294.5642 -104.6953 266.6174Q-76.7485 238.6705 -76.7485 198.1957Q-76.7485 157.721 -104.6953 129.7741Q-132.6422 101.8272 -175.0443 101.8272Z" glyph-name="bullet" horiz-adv-x="305" unicode="&#8226;" /><glyph d="M490 171Q468 90 409.5 42Q351 -6 271 -6Q221 -6 178 12.5Q135 31 103.5 65Q72 99 54 146Q36 193 36 250Q36 307 54 354Q72 401 103.5 435Q135 469 178 487.5Q221 506 271 506Q347 506 403.5 463.5Q460 421 485 347L411 329Q392 383 355.5 410.5Q319 438 271 438Q239 438 210.5 425.5Q182 413 161 389Q140 365 127.5 330Q115 295 115 250Q115 205 127.5 170Q140 135 161 111Q182 87 210.5 74.5Q239 62 271 62Q322 62 361.5 93.5Q401 125 417 186Z" glyph-name="c" horiz-adv-x="519" unicode="c" /><glyph d="M36 0ZM490 171Q468 90 409.5 42Q351 -6 271 -6Q221 -6 178 12.5Q135 31 103.5 65Q72 99 54 146Q36 193 36 250Q36 307 54 354Q72 401 103.5 435Q135 469 178 487.5Q221 506 271 506Q347 506 403.5 463.5Q460 421 485 347L411 329Q392 383 355.5 410.5Q319 438 271 438Q239 438 210.5 425.5Q182 413 161 389Q140 365 127.5 330Q115 295 115 250Q115 205 127.5 170Q140 135 161 111Q182 87 210.5 74.5Q239 62 271 62Q322 62 361.5 93.5Q401 125 417 186ZM339 745 394 685 217 583 184 620Z" glyph-name="cacute" horiz-adv-x="519" unicode="&#263;" /><glyph d="M250 588 106 706 146 740 250 666 354 740 394 706Z" glyph-name="caron" horiz-adv-x="500" unicode="&#711;" /><glyph d="M36 0ZM490 171Q468 90 409.5 42Q351 -6 271 -6Q221 -6 178 12.5Q135 31 103.5 65Q72 99 54 146Q36 193 36 250Q36 307 54 354Q72 401 103.5 435Q135 469 178 487.5Q221 506 271 506Q347 506 403.5 463.5Q460 421 485 347L411 329Q392 383 355.5 410.5Q319 438 271 438Q239 438 210.5 425.5Q182 413 161 389Q140 365 127.5 330Q115 295 115 250Q115 205 127.5 170Q140 135 161 111Q182 87 210.5 74.5Q239 62 271 62Q322 62 361.5 93.5Q401 125 417 186ZM272 588 128 706 168 740 272 666 376 740 416 706Z" glyph-name="ccaron" horiz-adv-x="519" unicode="&#269;" /><glyph d="M372 -115Q372 -153 344.5 -178Q317 -203 266 -203Q222 -203 195 -185Q168 -167 158 -138L205 -121Q213 -140 228 -148Q243 -156 263 -156Q291 -156 302.5 -143Q314 -130 314 -116Q314 -102 303 -90.5Q292 -79 266 -79H223L247 -5Q201 -1 162.5 19.5Q124 40 96 73.5Q68 107 52 151.5Q36 196 36 250Q36 307 54 354Q72 401 103.5 435Q135 469 178 487.5Q221 506 271 506Q347 506 403.5 463.5Q460 421 485 347L411 329Q392 383 355.5 410.5Q319 438 271 438Q239 438 210.5 425.5Q182 413 161 389Q140 365 127.5 330Q115 295 115 250Q115 205 127.5 170Q140 135 161 111Q182 87 210.5 74.5Q239 62 271 62Q322 62 361.5 93.5Q401 125 417 186L490 171Q470 97 419.5 50.5Q369 4 300 -4L286 -40Q332 -42 352 -65Q372 -88 372 -115Z" glyph-name="ccedilla" horiz-adv-x="519" unicode="&#231;" /><glyph d="M36 0ZM490 171Q468 90 409.5 42Q351 -6 271 -6Q221 -6 178 12.5Q135 31 103.5 65Q72 99 54 146Q36 193 36 250Q36 307 54 354Q72 401 103.5 435Q135 469 178 487.5Q221 506 271 506Q347 506 403.5 463.5Q460 421 485 347L411 329Q392 383 355.5 410.5Q319 438 271 438Q239 438 210.5 425.5Q182 413 161 389Q140 365 127.5 330Q115 295 115 250Q115 205 127.5 170Q140 135 161 111Q182 87 210.5 74.5Q239 62 271 62Q322 62 361.5 93.5Q401 125 417 186ZM376 587 272 661 168 587 128 621 272 739 416 621Z" glyph-name="ccircumflex" horiz-adv-x="519" unicode="&#265;" /><glyph d="M36 0ZM490 171Q468 90 409.5 42Q351 -6 271 -6Q221 -6 178 12.5Q135 31 103.5 65Q72 99 54 146Q36 193 36 250Q36 307 54 354Q72 401 103.5 435Q135 469 178 487.5Q221 506 271 506Q347 506 403.5 463.5Q460 421 485 347L411 329Q392 383 355.5 410.5Q319 438 271 438Q239 438 210.5 425.5Q182 413 161 389Q140 365 127.5 330Q115 295 115 250Q115 205 127.5 170Q140 135 161 111Q182 87 210.5 74.5Q239 62 271 62Q322 62 361.5 93.5Q401 125 417 186ZM272 604Q251 604 236.5 618.5Q222 633 222 653Q222 673 236.5 687.5Q251 702 272 702Q292 702 307 687.5Q322 673 322 653Q322 633 307 618.5Q292 604 272 604Z" glyph-name="cdotaccent" horiz-adv-x="519" unicode="&#267;" /><glyph d="M350 -115Q350 -153 322.5 -178Q295 -203 244 -203Q200 -203 173 -185Q146 -167 136 -138L183 -121Q191 -140 206 -148Q221 -156 241 -156Q269 -156 280.5 -143Q292 -130 292 -116Q292 -102 281 -90.5Q270 -79 244 -79H201L229 9H283L264 -40Q310 -42 330 -65Q350 -88 350 -115Z" glyph-name="cedilla" horiz-adv-x="500" unicode="&#184;" /><glyph d="M490 171Q470 99 422 53.5Q374 8 307 -3V-101H237V-4Q193 2 156 23Q119 44 92.5 77Q66 110 51 154Q36 198 36 250Q36 302 51 346Q66 390 92.5 423Q119 456 156 477Q193 498 237 504V601H307V503Q370 494 416.5 453Q463 412 485 347L411 329Q396 372 369 398.5Q342 425 307 434V66Q346 76 375 106Q404 136 417 186ZM115 250Q115 171 149.5 124Q184 77 237 66V434Q184 423 149.5 376Q115 329 115 250Z" glyph-name="cent" horiz-adv-x="529" unicode="&#162;" /><glyph d="M354 587 250 661 146 587 106 621 250 739 394 621Z" glyph-name="circumflex" horiz-adv-x="500" unicode="&#710;" /><glyph d="M31 0ZM82 94Q102 94 117.5 79.5Q133 65 133 44Q133 23 117.5 8.5Q102 -6 82 -6Q60 -6 45.5 8.5Q31 23 31 44Q31 65 45.5 79.5Q60 94 82 94ZM82 454Q102 454 117.5 439.5Q133 425 133 404Q133 383 117.5 368.5Q102 354 82 354Q60 354 45.5 368.5Q31 383 31 404Q31 425 45.5 439.5Q60 454 82 454Z" glyph-name="colon" horiz-adv-x="164" unicode=":" /><glyph d="M136 24Q136 1 128.5 -22.5Q121 -46 106 -66Q91 -86 68 -102Q45 -118 15 -127L-1 -97Q80 -61 89 -5Q87 -6 82 -6Q60 -6 46 9.5Q32 25 32 45Q32 67 46 80.5Q60 94 81 94Q107 94 121.5 76Q136 58 136 24Z" glyph-name="comma" horiz-adv-x="170" unicode="," /><glyph d="M385 705Q453 705 516.5 682Q580 659 628.5 614Q677 569 706.5 502.5Q736 436 736 350Q736 264 706.5 197.5Q677 131 628.5 86Q580 41 516.5 18Q453 -5 385 -5Q317 -5 253.5 18Q190 41 141.5 86Q93 131 63.5 197.5Q34 264 34 350Q34 436 63.5 502.5Q93 569 141.5 614Q190 659 253.5 682Q317 705 385 705ZM385 38Q445 38 499.5 59.5Q554 81 595.5 121.5Q637 162 661 220Q685 278 685 350Q685 422 661 479.5Q637 537 595.5 577.5Q554 618 499.5 640Q445 662 385 662Q325 662 270.5 640Q216 618 174.5 577.5Q133 537 109 479.5Q85 422 85 350Q85 278 109 220Q133 162 174.5 121.5Q216 81 270.5 59.5Q325 38 385 38ZM565 288Q548 225 499.5 188Q451 151 386 151Q345 151 310.5 165.5Q276 180 250.5 206Q225 232 210.5 268.5Q196 305 196 349Q196 393 210.5 429.5Q225 466 250.5 492Q276 518 310.5 532.5Q345 547 386 547Q448 547 494 514Q540 481 560 424L501 410Q486 452 455.5 473Q425 494 386 494Q359 494 336 484.5Q313 475 295.5 456.5Q278 438 268 411Q258 384 258 349Q258 314 268 287Q278 260 295.5 241.5Q313 223 336 213.5Q359 204 386 204Q428 204 459.5 228Q491 252 504 300Z" glyph-name="copyright" horiz-adv-x="770" unicode="&#169;" /><glyph d="M419 82Q390 40 350 17Q310 -6 260 -6Q211 -6 169.5 13Q128 32 98 65.5Q68 99 51.5 146Q35 193 35 250Q35 307 52 354Q69 401 99 434.5Q129 468 170.5 487Q212 506 261 506Q310 506 350.5 484Q391 462 419 423V700H499V0H419ZM114 250Q114 205 126 170Q138 135 159 111Q180 87 209 74.5Q238 62 271 62Q321 62 360 87.5Q399 113 419 161V339Q399 387 360 412.5Q321 438 271 438Q238 438 209 425.5Q180 413 159 389Q138 365 126 330Q114 295 114 250Z" glyph-name="d" horiz-adv-x="549" unicode="d" /><glyph d="M203 505 200 169H129L126 505H20V574H125L124 706H205L204 574H325V505Z" glyph-name="dagger" horiz-adv-x="345" unicode="&#8224;" /><glyph d="M204 281 205 149H124L126 281H20V350H126L127 403L126 505H20V574H125L124 706H205L204 574H325V505H204L203 403V350H325V281Z" glyph-name="daggerdbl" horiz-adv-x="345" unicode="&#8225;" /><glyph d="M197 402Q165 402 137 414Q109 426 88 447Q67 468 54.5 496Q42 524 42 556Q42 589 54.5 617Q67 645 88 665.5Q109 686 137 698Q165 710 197 710Q229 710 257.5 698Q286 686 307 665.5Q328 645 340.5 617Q353 589 353 556Q353 524 340.5 496Q328 468 307 447Q286 426 257.5 414Q229 402 197 402ZM197 458Q239 458 266 486Q293 514 293 556Q293 598 266 626Q239 654 197 654Q155 654 128 626Q101 598 101 556Q101 514 128 486Q155 458 197 458Z" glyph-name="degree" horiz-adv-x="395" unicode="&#176;" /><glyph d="M165 604Q144 604 129.5 618.5Q115 633 115 653Q115 673 129.5 687.5Q144 702 165 702Q185 702 200 687.5Q215 673 215 653Q215 633 200 618.5Q185 604 165 604ZM335 604Q314 604 299.5 618.5Q285 633 285 653Q285 673 299.5 687.5Q314 702 335 702Q355 702 370 687.5Q385 673 385 653Q385 633 370 618.5Q355 604 335 604Z" glyph-name="dieresis" horiz-adv-x="500" unicode="&#168;" /><glyph d="M531 191Q531 155 517.5 122.5Q504 90 477 65Q450 40 410 25Q370 10 317 9V-91H247V13Q210 19 179 30.5Q148 42 121 58.5Q94 75 71.5 94.5Q49 114 29 136L100 181Q130 140 167.5 117Q205 94 247 85V318L197 333Q156 345 128 363.5Q100 382 83.5 404Q67 426 60.5 450.5Q54 475 54 499Q54 540 70 571Q86 602 112.5 624Q139 646 174 657.5Q209 669 247 671V767H317V666Q383 655 430 622.5Q477 590 509 552L436 514Q380 575 317 594V376L378 359Q462 335 496.5 290Q531 245 531 191ZM133 506Q133 491 137.5 475.5Q142 460 154 445.5Q166 431 188.5 418.5Q211 406 247 396V603Q192 600 162.5 574Q133 548 133 506ZM317 298V78Q382 80 415 110Q448 140 448 187Q448 226 418.5 251Q389 276 329 294Z" glyph-name="dollar" horiz-adv-x="560" unicode="$" /><glyph d="M250 604Q229 604 214.5 618.5Q200 633 200 653Q200 673 214.5 687.5Q229 702 250 702Q270 702 285 687.5Q300 673 300 653Q300 633 285 618.5Q270 604 250 604Z" glyph-name="dotaccent" horiz-adv-x="500" unicode="&#729;" /><glyph d="M50 500H130V0H50Z" glyph-name="dotlessi" horiz-adv-x="180" unicode="&#305;" /><glyph d="M50 500H130V-86Q130 -144 102.5 -175Q75 -206 13 -206Q-5 -206 -18.5 -204Q-32 -202 -43 -200V-137Q-31 -139 -19.5 -140Q-8 -141 3 -141Q26 -141 38 -127.5Q50 -114 50 -83Z" glyph-name="dotlessj" horiz-adv-x="180" unicode="&#567;" /><glyph d="M487 129Q458 66 401 30Q344 -6 272 -6Q222 -6 178.5 12.5Q135 31 103.5 65Q72 99 54 146Q36 193 36 250Q36 307 53.5 354Q71 401 101.5 435Q132 469 174 487.5Q216 506 265 506Q317 506 358.5 488Q400 470 429.5 437Q459 404 474.5 357Q490 310 490 253V238H115Q117 196 130 163Q143 130 164 107.5Q185 85 212.5 73.5Q240 62 271 62Q318 62 357 85.5Q396 109 416 155ZM266 438Q213 438 172.5 403Q132 368 120 302H410Q400 370 363 404Q326 438 266 438Z" glyph-name="e" horiz-adv-x="523" unicode="e" /><glyph d="M36 0ZM487 129Q458 66 401 30Q344 -6 272 -6Q222 -6 178.5 12.5Q135 31 103.5 65Q72 99 54 146Q36 193 36 250Q36 307 53.5 354Q71 401 101.5 435Q132 469 174 487.5Q216 506 265 506Q317 506 358.5 488Q400 470 429.5 437Q459 404 474.5 357Q490 310 490 253V238H115Q117 196 130 163Q143 130 164 107.5Q185 85 212.5 73.5Q240 62 271 62Q318 62 357 85.5Q396 109 416 155ZM266 438Q213 438 172.5 403Q132 368 120 302H410Q400 370 363 404Q326 438 266 438ZM332 745 387 685 210 583 177 620Z" glyph-name="eacute" horiz-adv-x="523" unicode="&#233;" /><glyph d="M36 0ZM487 129Q458 66 401 30Q344 -6 272 -6Q222 -6 178.5 12.5Q135 31 103.5 65Q72 99 54 146Q36 193 36 250Q36 307 53.5 354Q71 401 101.5 435Q132 469 174 487.5Q216 506 265 506Q317 506 358.5 488Q400 470 429.5 437Q459 404 474.5 357Q490 310 490 253V238H115Q117 196 130 163Q143 130 164 107.5Q185 85 212.5 73.5Q240 62 271 62Q318 62 357 85.5Q396 109 416 155ZM266 438Q213 438 172.5 403Q132 368 120 302H410Q400 370 363 404Q326 438 266 438ZM265 588 121 706 161 740 265 666 369 740 409 706Z" glyph-name="ecaron" horiz-adv-x="523" unicode="&#283;" /><glyph d="M36 0ZM487 129Q458 66 401 30Q344 -6 272 -6Q222 -6 178.5 12.5Q135 31 103.5 65Q72 99 54 146Q36 193 36 250Q36 307 53.5 354Q71 401 101.5 435Q132 469 174 487.5Q216 506 265 506Q317 506 358.5 488Q400 470 429.5 437Q459 404 474.5 357Q490 310 490 253V238H115Q117 196 130 163Q143 130 164 107.5Q185 85 212.5 73.5Q240 62 271 62Q318 62 357 85.5Q396 109 416 155ZM266 438Q213 438 172.5 403Q132 368 120 302H410Q400 370 363 404Q326 438 266 438ZM369 587 265 661 161 587 121 621 265 739 409 621Z" glyph-name="ecircumflex" horiz-adv-x="523" unicode="&#234;" /><glyph d="M36 0ZM487 129Q458 66 401 30Q344 -6 272 -6Q222 -6 178.5 12.5Q135 31 103.5 65Q72 99 54 146Q36 193 36 250Q36 307 53.5 354Q71 401 101.5 435Q132 469 174 487.5Q216 506 265 506Q317 506 358.5 488Q400 470 429.5 437Q459 404 474.5 357Q490 310 490 253V238H115Q117 196 130 163Q143 130 164 107.5Q185 85 212.5 73.5Q240 62 271 62Q318 62 357 85.5Q396 109 416 155ZM266 438Q213 438 172.5 403Q132 368 120 302H410Q400 370 363 404Q326 438 266 438ZM180 604Q159 604 144.5 618.5Q130 633 130 653Q130 673 144.5 687.5Q159 702 180 702Q200 702 215 687.5Q230 673 230 653Q230 633 215 618.5Q200 604 180 604ZM350 604Q329 604 314.5 618.5Q300 633 300 653Q300 673 314.5 687.5Q329 702 350 702Q370 702 385 687.5Q400 673 400 653Q400 633 385 618.5Q370 604 350 604Z" glyph-name="edieresis" horiz-adv-x="523" unicode="&#235;" /><glyph d="M36 0ZM487 129Q458 66 401 30Q344 -6 272 -6Q222 -6 178.5 12.5Q135 31 103.5 65Q72 99 54 146Q36 193 36 250Q36 307 53.5 354Q71 401 101.5 435Q132 469 174 487.5Q216 506 265 506Q317 506 358.5 488Q400 470 429.5 437Q459 404 474.5 357Q490 310 490 253V238H115Q117 196 130 163Q143 130 164 107.5Q185 85 212.5 73.5Q240 62 271 62Q318 62 357 85.5Q396 109 416 155ZM266 438Q213 438 172.5 403Q132 368 120 302H410Q400 370 363 404Q326 438 266 438ZM265 604Q244 604 229.5 618.5Q215 633 215 653Q215 673 229.5 687.5Q244 702 265 702Q285 702 300 687.5Q315 673 315 653Q315 633 300 618.5Q285 604 265 604Z" glyph-name="edotaccent" horiz-adv-x="523" unicode="&#279;" /><glyph d="M36 0ZM487 129Q458 66 401 30Q344 -6 272 -6Q222 -6 178.5 12.5Q135 31 103.5 65Q72 99 54 146Q36 193 36 250Q36 307 53.5 354Q71 401 101.5 435Q132 469 174 487.5Q216 506 265 506Q317 506 358.5 488Q400 470 429.5 437Q459 404 474.5 357Q490 310 490 253V238H115Q117 196 130 163Q143 130 164 107.5Q185 85 212.5 73.5Q240 62 271 62Q318 62 357 85.5Q396 109 416 155ZM266 438Q213 438 172.5 403Q132 368 120 302H410Q400 370 363 404Q326 438 266 438ZM319 583 142 685 197 745 352 620Z" glyph-name="egrave" horiz-adv-x="523" unicode="&#232;" /><glyph d="M542 200Q542 158 525 120.5Q508 83 475.5 55Q443 27 396.5 10.5Q350 -6 291 -6Q231 -6 184.5 9.5Q138 25 106 53Q74 81 57 118.5Q40 156 40 200Q40 259 72.5 303Q105 347 166 377Q112 403 90 442.5Q68 482 68 527Q68 563 83 595Q98 627 126 652Q154 677 194.5 691.5Q235 706 286 706Q340 706 380.5 691Q421 676 447.5 651.5Q474 627 487 595.5Q500 564 500 532Q500 485 471.5 446.5Q443 408 392 379Q469 353 505.5 305.5Q542 258 542 200ZM325 400Q371 423 396.5 455Q422 487 422 526Q422 574 385 606.5Q348 639 285 639Q250 639 224 630Q198 621 180.5 606Q163 591 154.5 571Q146 551 146 530Q146 490 171 464Q196 438 253 421ZM119 206Q119 141 165.5 102.5Q212 64 290 64Q331 64 363 74Q395 84 417.5 101.5Q440 119 452 143Q464 167 464 195Q464 285 338 322L229 353Q171 327 145 289Q119 251 119 206Z" glyph-name="eight" horiz-adv-x="581" unicode="8" /><glyph d="M31 0ZM82 94Q102 94 117.5 79.5Q133 65 133 44Q133 23 117.5 8.5Q102 -6 82 -6Q60 -6 45.5 8.5Q31 23 31 44Q31 65 45.5 79.5Q60 94 82 94ZM245 94Q265 94 280.5 79.5Q296 65 296 44Q296 23 280.5 8.5Q265 -6 245 -6Q223 -6 208.5 8.5Q194 23 194 44Q194 65 208.5 79.5Q223 94 245 94ZM408 94Q428 94 443.5 79.5Q459 65 459 44Q459 23 443.5 8.5Q428 -6 408 -6Q386 -6 371.5 8.5Q357 23 357 44Q357 65 371.5 79.5Q386 94 408 94Z" glyph-name="ellipsis" horiz-adv-x="489" unicode="&#8230;" /><glyph d="M36 0ZM487 129Q458 66 401 30Q344 -6 272 -6Q222 -6 178.5 12.5Q135 31 103.5 65Q72 99 54 146Q36 193 36 250Q36 307 53.5 354Q71 401 101.5 435Q132 469 174 487.5Q216 506 265 506Q317 506 358.5 488Q400 470 429.5 437Q459 404 474.5 357Q490 310 490 253V238H115Q117 196 130 163Q143 130 164 107.5Q185 85 212.5 73.5Q240 62 271 62Q318 62 357 85.5Q396 109 416 155ZM266 438Q213 438 172.5 403Q132 368 120 302H410Q400 370 363 404Q326 438 266 438ZM154 620V680H377V620Z" glyph-name="emacron" horiz-adv-x="523" unicode="&#275;" /><glyph d="M685 387V318H30V387Z" glyph-name="emdash" horiz-adv-x="715" unicode="&#8212;" /><glyph glyph-name="emspace" horiz-adv-x="715" unicode="&#8195;" /><glyph d="M485 387V318H30V387Z" glyph-name="endash" horiz-adv-x="515" unicode="&#8211;" /><glyph glyph-name="enspace" horiz-adv-x="515" unicode="&#8194;" /><glyph d="M517 390H66V459H517ZM517 220H66V290H517Z" glyph-name="equal" horiz-adv-x="583" unicode="=" /><glyph d="M123 706 109 195H56L41 706ZM82 94Q102 94 117.5 79.5Q133 65 133 44Q133 23 117.5 8.5Q102 -6 82 -6Q60 -6 45.5 8.5Q31 23 31 44Q31 65 45.5 79.5Q60 94 82 94Z" glyph-name="exclam" horiz-adv-x="164" unicode="!" /><glyph d="M82 407Q62 407 46.5 421.5Q31 436 31 457Q31 478 46.5 492.5Q62 507 82 507Q104 507 118.5 492.5Q133 478 133 457Q133 436 118.5 421.5Q104 407 82 407ZM41 -205 55 306H108L123 -205Z" glyph-name="exclamdown" horiz-adv-x="164" unicode="&#161;" /><glyph d="M82 605Q62 605 46.5 619.5Q31 634 31 655Q31 676 46.5 690.5Q62 705 82 705Q104 705 118.5 690.5Q133 676 133 655Q133 634 118.5 619.5Q104 605 82 605ZM41 -7 55 504H108L123 -7Z" glyph-name="exclamdown.cap" horiz-adv-x="164" /><glyph d="M180 436V0H100V436H12V500H100V570Q100 638 132.5 674Q165 710 237 710Q261 710 278.5 708Q296 706 312 701V638Q277 644 247 644Q213 644 196.5 626.5Q180 609 180 567V500H310V436Z" glyph-name="f" horiz-adv-x="324" unicode="f" /><glyph d="M12 0ZM180 436V0H100V436H12V500H100V570Q100 638 132.5 674Q165 710 237 710Q261 710 278.5 708Q296 706 312 701V638Q277 644 247 644Q213 644 196.5 626.5Q180 609 180 567V500H310V436ZM414 603Q392 603 377.5 617.5Q363 632 363 653Q363 674 377.5 688.5Q392 703 414 703Q435 703 450 688.5Q465 674 465 653Q465 632 450 617.5Q435 603 414 603ZM374 500H454V0H374Z" glyph-name="fi" horiz-adv-x="504" unicode="&#64257;" /><glyph d="M524 231Q524 181 507 138Q490 95 457.5 63Q425 31 379.5 12.5Q334 -6 277 -6Q233 -6 197 3.5Q161 13 132 29Q103 45 81.5 67Q60 89 45 113L116 150Q148 105 184 84.5Q220 64 274 64Q308 64 338.5 74.5Q369 85 391 105.5Q413 126 426 157Q439 188 439 229Q439 307 394 347.5Q349 388 280 388Q234 388 192.5 367Q151 346 131 304L57 311L82 700H484V630H157L139 395Q163 421 202 438.5Q241 456 298 456Q350 456 392 439.5Q434 423 463 393Q492 363 508 321.5Q524 280 524 231Z" glyph-name="five" horiz-adv-x="561" unicode="5" /><glyph d="M12 0ZM180 436V0H100V436H12V500H100V570Q100 638 132.5 674Q165 710 237 710Q261 710 278.5 708Q296 706 312 701V638Q277 644 247 644Q213 644 196.5 626.5Q180 609 180 567V500H310V436ZM374 700H454V0H374Z" glyph-name="fl" horiz-adv-x="504" unicode="&#64258;" /><glyph d="M354 700H464V242H556V172H464V0H379V172H25V227ZM379 242V618L121 242Z" glyph-name="four" horiz-adv-x="581" unicode="4" /><glyph d="M2 0 352 700H423L73 0Z" glyph-name="fraction" horiz-adv-x="425" unicode="&#8260;" /><glyph d="M498 12Q498 -39 481 -79Q464 -119 432.5 -147Q401 -175 357 -189.5Q313 -204 258 -204Q215 -204 179.5 -194Q144 -184 117 -167.5Q90 -151 72.5 -131Q55 -111 47 -90L122 -63Q135 -92 169.5 -114Q204 -136 258 -136Q292 -136 321 -126.5Q350 -117 371.5 -98Q393 -79 405.5 -51.5Q418 -24 418 12V86Q390 45 349.5 22.5Q309 0 260 0Q212 0 171 18.5Q130 37 100 70.5Q70 104 53 150.5Q36 197 36 253Q36 309 53 355.5Q70 402 100 435.5Q130 469 171.5 487.5Q213 506 261 506Q312 506 353 483.5Q394 461 422 419L438 500H498ZM115 253Q115 208 127 173.5Q139 139 160 115.5Q181 92 209.5 80Q238 68 271 68Q319 68 358.5 92.5Q398 117 418 165V341Q398 389 358.5 414Q319 439 271 439Q238 439 209.5 426.5Q181 414 160 390.5Q139 367 127 332.5Q115 298 115 253Z" glyph-name="g" horiz-adv-x="548" unicode="g" /><glyph d="M503 -55Q503 -121 434 -163Q365 -205 234 -204Q169 -204 124 -194.5Q79 -185 51.5 -169Q24 -153 12 -133.5Q0 -114 0 -93Q0 -56 26.5 -29Q53 -2 104 11Q78 23 62.5 41.5Q47 60 47 86Q47 118 71.5 142Q96 166 143 176Q96 197 68 237Q40 277 40 330Q40 369 55.5 401.5Q71 434 98.5 457.5Q126 481 164 493.5Q202 506 246 506Q297 506 338.5 489Q380 472 408 442Q418 461 434.5 475Q451 489 469.5 498Q488 507 508.5 511Q529 515 548 515V440Q516 443 486 432Q456 421 437 401Q452 369 452 330Q452 291 436.5 259Q421 227 393 203.5Q365 180 327.5 167.5Q290 155 246 155H219Q180 155 152 141.5Q124 128 124 104Q124 83 143.5 73Q163 63 193 61L366 47Q503 37 503 -55ZM246 217Q272 217 295 224.5Q318 232 335.5 246.5Q353 261 363 282Q373 303 373 330Q373 358 363 379Q353 400 335.5 414.5Q318 429 295 436.5Q272 444 246 444Q220 444 197 436.5Q174 429 156.5 414.5Q139 400 129 379Q119 358 119 330Q119 303 129 282Q139 261 156.5 246.5Q174 232 197 224.5Q220 217 246 217ZM77 -76Q77 -94 90.5 -106.5Q104 -119 126.5 -126.5Q149 -134 179 -137.5Q209 -141 243 -141Q331 -141 377.5 -119Q424 -97 424 -63Q424 -43 407.5 -33.5Q391 -24 370 -22L179 -7Q136 -11 106.5 -29Q77 -47 77 -76Z" glyph-name="g.school" horiz-adv-x="535" /><glyph d="M36 0ZM498 12Q498 -39 481 -79Q464 -119 432.5 -147Q401 -175 357 -189.5Q313 -204 258 -204Q215 -204 179.5 -194Q144 -184 117 -167.5Q90 -151 72.5 -131Q55 -111 47 -90L122 -63Q135 -92 169.5 -114Q204 -136 258 -136Q292 -136 321 -126.5Q350 -117 371.5 -98Q393 -79 405.5 -51.5Q418 -24 418 12V86Q390 45 349.5 22.5Q309 0 260 0Q212 0 171 18.5Q130 37 100 70.5Q70 104 53 150.5Q36 197 36 253Q36 309 53 355.5Q70 402 100 435.5Q130 469 171.5 487.5Q213 506 261 506Q312 506 353 483.5Q394 461 422 419L438 500H498ZM115 253Q115 208 127 173.5Q139 139 160 115.5Q181 92 209.5 80Q238 68 271 68Q319 68 358.5 92.5Q398 117 418 165V341Q398 389 358.5 414Q319 439 271 439Q238 439 209.5 426.5Q181 414 160 390.5Q139 367 127 332.5Q115 298 115 253ZM372 587 268 661 164 587 124 621 268 739 412 621Z" glyph-name="gcircumflex" horiz-adv-x="548" unicode="&#285;" /><glyph d="M36 0ZM498 12Q498 -39 481 -79Q464 -119 432.5 -147Q401 -175 357 -189.5Q313 -204 258 -204Q215 -204 179.5 -194Q144 -184 117 -167.5Q90 -151 72.5 -131Q55 -111 47 -90L122 -63Q135 -92 169.5 -114Q204 -136 258 -136Q292 -136 321 -126.5Q350 -117 371.5 -98Q393 -79 405.5 -51.5Q418 -24 418 12V86Q390 45 349.5 22.5Q309 0 260 0Q212 0 171 18.5Q130 37 100 70.5Q70 104 53 150.5Q36 197 36 253Q36 309 53 355.5Q70 402 100 435.5Q130 469 171.5 487.5Q213 506 261 506Q312 506 353 483.5Q394 461 422 419L438 500H498ZM115 253Q115 208 127 173.5Q139 139 160 115.5Q181 92 209.5 80Q238 68 271 68Q319 68 358.5 92.5Q398 117 418 165V341Q398 389 358.5 414Q319 439 271 439Q238 439 209.5 426.5Q181 414 160 390.5Q139 367 127 332.5Q115 298 115 253ZM268 604Q247 604 232.5 618.5Q218 633 218 653Q218 673 232.5 687.5Q247 702 268 702Q288 702 303 687.5Q318 673 318 653Q318 633 303 618.5Q288 604 268 604Z" glyph-name="gdotaccent" horiz-adv-x="548" unicode="&#289;" /><glyph d="M319 583 142 685 197 745 352 620Z" glyph-name="grave" horiz-adv-x="500" unicode="`" /><glyph d="M66 30V126L288 298L66 471V570L408 300Z" glyph-name="greater" horiz-adv-x="453" unicode="&gt;" /><glyph d="M66 154V237L285 358L66 478V563L419 359ZM66 64H420V0H66Z" glyph-name="greaterequal" horiz-adv-x="488" unicode="&#8805;" /><glyph d="M15 0ZM109 253 306 0H210L15 250L210 500H302ZM304 253 501 0H405L210 250L405 500H497Z" glyph-name="guillemotleft" horiz-adv-x="526" unicode="&#171;" /><glyph d="M316 0H224L417 247L220 500H316L511 250ZM121 0H29L222 247L25 500H121L316 250Z" glyph-name="guillemotright" horiz-adv-x="526" unicode="&#187;" /><glyph d="M109 253 306 0H210L15 250L210 500H302Z" glyph-name="guilsinglleft" horiz-adv-x="331" unicode="&#8249;" /><glyph d="M121 0H29L222 247L25 500H121L316 250Z" glyph-name="guilsinglright" horiz-adv-x="331" unicode="&#8250;" /><glyph d="M130 700V413Q151 455 193.5 480.5Q236 506 291 506Q336 506 369 491.5Q402 477 423 452.5Q444 428 454.5 395.5Q465 363 465 327V0H385V306Q385 372 357.5 406.5Q330 441 270 441Q216 441 178.5 409Q141 377 130 326V0H50V700Z" glyph-name="h" horiz-adv-x="515" unicode="h" /><glyph d="M50 0ZM130 700V413Q151 455 193.5 480.5Q236 506 291 506Q336 506 369 491.5Q402 477 423 452.5Q444 428 454.5 395.5Q465 363 465 327V0H385V306Q385 372 357.5 406.5Q330 441 270 441Q216 441 178.5 409Q141 377 130 326V0H50V700ZM362 787 258 861 154 787 114 821 258 939 402 821Z" glyph-name="hcircumflex" horiz-adv-x="515" unicode="&#293;" /><glyph d="M335 387V318H30V387Z" glyph-name="hyphen" horiz-adv-x="365" unicode="-" /><glyph d="M90 603Q68 603 53.5 617.5Q39 632 39 653Q39 674 53.5 688.5Q68 703 90 703Q111 703 126 688.5Q141 674 141 653Q141 632 126 617.5Q111 603 90 603ZM50 500H130V0H50Z" glyph-name="i" horiz-adv-x="180" unicode="i" /><glyph d="M2 0ZM50 500H130V0H50ZM157 745 212 685 35 583 2 620Z" glyph-name="iacute" horiz-adv-x="180" unicode="&#237;" /><glyph d="M0 0ZM50 500H130V0H50ZM194 587 90 661 -14 587 -54 621 90 739 234 621Z" glyph-name="icircumflex" horiz-adv-x="180" unicode="&#238;" /><glyph d="M0 0ZM50 500H130V0H50ZM5 604Q-16 604 -30.5 618.5Q-45 633 -45 653Q-45 673 -30.5 687.5Q-16 702 5 702Q25 702 40 687.5Q55 673 55 653Q55 633 40 618.5Q25 604 5 604ZM175 604Q154 604 139.5 618.5Q125 633 125 653Q125 673 139.5 687.5Q154 702 175 702Q195 702 210 687.5Q225 673 225 653Q225 633 210 618.5Q195 604 175 604Z" glyph-name="idieresis" horiz-adv-x="180" unicode="&#239;" /><glyph d="M0 0ZM50 500H130V0H50ZM144 583 -33 685 22 745 177 620Z" glyph-name="igrave" horiz-adv-x="180" unicode="&#236;" /><glyph d="M0 0ZM50 500H130V0H50ZM-21 620V680H202V620Z" glyph-name="imacron" horiz-adv-x="180" unicode="&#299;" /><glyph d="M0 0ZM50 500H130V0H50ZM-78 609Q-38 702 26 702Q48 702 65 694Q82 686 97 677Q112 668 126 660Q140 652 154 652Q168 652 179.5 663Q191 674 207 700L257 682Q235 633 209 611Q183 589 151 589Q130 589 113 597Q96 605 81 614Q66 623 52.5 631Q39 639 25 639Q11 639 -1 628Q-13 617 -28 591Z" glyph-name="itilde" horiz-adv-x="180" unicode="&#297;" /><glyph d="M90 603Q68 603 53.5 617.5Q39 632 39 653Q39 674 53.5 688.5Q68 703 90 703Q111 703 126 688.5Q141 674 141 653Q141 632 126 617.5Q111 603 90 603ZM50 500H130V-86Q130 -144 102.5 -175Q75 -206 13 -206Q-5 -206 -18.5 -204Q-32 -202 -43 -200V-137Q-31 -139 -19.5 -140Q-8 -141 3 -141Q26 -141 38 -127.5Q50 -114 50 -83Z" glyph-name="j" horiz-adv-x="180" unicode="j" /><glyph d="M0 0ZM50 500H130V-86Q130 -144 102.5 -175Q75 -206 13 -206Q-5 -206 -18.5 -204Q-32 -202 -43 -200V-137Q-31 -139 -19.5 -140Q-8 -141 3 -141Q26 -141 38 -127.5Q50 -114 50 -83ZM194 587 90 661 -14 587 -54 621 90 739 234 621Z" glyph-name="jcircumflex" horiz-adv-x="180" unicode="&#309;" /><glyph d="M216 230 130 132V0H50V700H130V230L359 500H453L270 291L473 0H373Z" glyph-name="k" horiz-adv-x="481" unicode="k" /><glyph d="M50 700H130V0H50Z" glyph-name="l" horiz-adv-x="180" unicode="l" /><glyph d="M2 0ZM50 700H130V0H50ZM157 945 212 885 35 783 2 820Z" glyph-name="lacute" horiz-adv-x="180" unicode="&#314;" /><glyph d="M383 30 41 300 383 570V474L161 302L383 129Z" glyph-name="less" horiz-adv-x="449" unicode="&lt;" /><glyph d="M422 154 70 358 422 563V480L203 359L422 239ZM68 0V64H422V0Z" glyph-name="lessequal" horiz-adv-x="488" unicode="&#8804;" /><glyph d="M265 441Q242 441 220.5 433Q199 425 181 410Q163 395 149.5 373Q136 351 130 323V0H50V500H130V406Q151 453 192.5 479.5Q234 506 285 506Q348 506 389 477.5Q430 449 447 399Q468 449 512.5 477.5Q557 506 611 506Q653 506 685 492.5Q717 479 738.5 455.5Q760 432 771 401.5Q782 371 782 337V0H702V319Q702 381 673 411Q644 441 593 441Q547 441 508.5 412Q470 383 456 331V0H376V319Q376 381 346.5 411Q317 441 265 441Z" glyph-name="m" horiz-adv-x="832" unicode="m" /><glyph d="M139 620V680H362V620Z" glyph-name="macron" horiz-adv-x="500" unicode="&#175;" /><glyph d="M66 305V374H517V305Z" glyph-name="minus" horiz-adv-x="583" unicode="&#8722;" /><glyph d="M254 291 113 150 67 196 208 337 66 479 117 530 259 389 397 527 444 481 305 342 445 203 393 151Z" glyph-name="multiply" horiz-adv-x="511" unicode="&#215;" /><glyph d="M270 441Q216 441 178.5 409Q141 377 130 326V0H50V500H130V413Q151 455 193.5 480.5Q236 506 291 506Q336 506 369 491.5Q402 477 423 452.5Q444 428 454.5 395.5Q465 363 465 327V0H385V306Q385 372 357.5 406.5Q330 441 270 441Z" glyph-name="n" horiz-adv-x="515" unicode="n" /><glyph d="M50 0ZM270 441Q216 441 178.5 409Q141 377 130 326V0H50V500H130V413Q151 455 193.5 480.5Q236 506 291 506Q336 506 369 491.5Q402 477 423 452.5Q444 428 454.5 395.5Q465 363 465 327V0H385V306Q385 372 357.5 406.5Q330 441 270 441ZM319 745 374 685 197 583 164 620Z" glyph-name="nacute" horiz-adv-x="515" unicode="&#324;" /><glyph glyph-name="nbspace" horiz-adv-x="250" unicode="&#160;" /><glyph d="M50 0ZM270 441Q216 441 178.5 409Q141 377 130 326V0H50V500H130V413Q151 455 193.5 480.5Q236 506 291 506Q336 506 369 491.5Q402 477 423 452.5Q444 428 454.5 395.5Q465 363 465 327V0H385V306Q385 372 357.5 406.5Q330 441 270 441ZM252 588 108 706 148 740 252 666 356 740 396 706Z" glyph-name="ncaron" horiz-adv-x="515" unicode="&#328;" /><glyph d="M557 361Q557 281 538.5 214Q520 147 484.5 98Q449 49 398 21.5Q347 -6 283 -6Q242 -6 209.5 3.5Q177 13 151 29Q125 45 104.5 67Q84 89 68 114L140 148Q175 98 209.5 81Q244 64 283 64Q323 64 358 82Q393 100 419 136.5Q445 173 459.5 228.5Q474 284 474 359Q445 314 394 284Q343 254 271 254Q222 254 181 270Q140 286 110 314.5Q80 343 63.5 382.5Q47 422 47 469Q47 515 63 557.5Q79 600 110 633Q141 666 186.5 686Q232 706 290 706Q354 706 404 680Q454 654 488 608Q522 562 539.5 498.5Q557 435 557 361ZM130 477Q130 407 173 364.5Q216 322 288 322Q319 322 348 332Q377 342 400.5 357.5Q424 373 442 393Q460 413 469 433Q455 536 406 586Q357 636 286 636Q251 636 222 624Q193 612 172.5 591Q152 570 141 540.5Q130 511 130 477Z" glyph-name="nine" horiz-adv-x="602" unicode="9" /><glyph d="M50 0ZM270 441Q216 441 178.5 409Q141 377 130 326V0H50V500H130V413Q151 455 193.5 480.5Q236 506 291 506Q336 506 369 491.5Q402 477 423 452.5Q444 428 454.5 395.5Q465 363 465 327V0H385V306Q385 372 357.5 406.5Q330 441 270 441ZM84 609Q124 702 188 702Q210 702 227 694Q244 686 259 677Q274 668 288 660Q302 652 316 652Q330 652 341.5 663Q353 674 369 700L419 682Q397 633 371 611Q345 589 313 589Q292 589 275 597Q258 605 243 614Q228 623 214.5 631Q201 639 187 639Q173 639 161 628Q149 617 134 591Z" glyph-name="ntilde" horiz-adv-x="515" unicode="&#241;" /><glyph d="M381 200H221L158 0H78L141 200H35V269H163L215 431H80V500H237L300 700H380L317 500H477L540 700H620L557 500H663V431H535L483 269H618V200H461L398 0H318ZM403 269 455 431H295L243 269Z" glyph-name="numbersign" horiz-adv-x="698" unicode="#" /><glyph d="M272 -6Q221 -6 177.5 12.5Q134 31 102.5 65Q71 99 53.5 146Q36 193 36 250Q36 307 53.5 354Q71 401 102 435Q133 469 176 487.5Q219 506 270 506Q321 506 364.5 487.5Q408 469 439.5 435Q471 401 488.5 354Q506 307 506 250Q506 193 488.5 146Q471 99 440 65Q409 31 366 12.5Q323 -6 272 -6ZM271 62Q304 62 332.5 74.5Q361 87 382 111Q403 135 415 170Q427 205 427 250Q427 295 415 330Q403 365 382 389Q361 413 332.5 425.5Q304 438 271 438Q238 438 209.5 425.5Q181 413 160 389Q139 365 127 330Q115 295 115 250Q115 205 127 170Q139 135 160 111Q181 87 209.5 74.5Q238 62 271 62Z" glyph-name="o" horiz-adv-x="542" unicode="o" /><glyph d="M36 0ZM272 -6Q221 -6 177.5 12.5Q134 31 102.5 65Q71 99 53.5 146Q36 193 36 250Q36 307 53.5 354Q71 401 102 435Q133 469 176 487.5Q219 506 270 506Q321 506 364.5 487.5Q408 469 439.5 435Q471 401 488.5 354Q506 307 506 250Q506 193 488.5 146Q471 99 440 65Q409 31 366 12.5Q323 -6 272 -6ZM271 62Q304 62 332.5 74.5Q361 87 382 111Q403 135 415 170Q427 205 427 250Q427 295 415 330Q403 365 382 389Q361 413 332.5 425.5Q304 438 271 438Q238 438 209.5 425.5Q181 413 160 389Q139 365 127 330Q115 295 115 250Q115 205 127 170Q139 135 160 111Q181 87 209.5 74.5Q238 62 271 62ZM338 745 393 685 216 583 183 620Z" glyph-name="oacute" horiz-adv-x="542" unicode="&#243;" /><glyph d="M36 0ZM272 -6Q221 -6 177.5 12.5Q134 31 102.5 65Q71 99 53.5 146Q36 193 36 250Q36 307 53.5 354Q71 401 102 435Q133 469 176 487.5Q219 506 270 506Q321 506 364.5 487.5Q408 469 439.5 435Q471 401 488.5 354Q506 307 506 250Q506 193 488.5 146Q471 99 440 65Q409 31 366 12.5Q323 -6 272 -6ZM271 62Q304 62 332.5 74.5Q361 87 382 111Q403 135 415 170Q427 205 427 250Q427 295 415 330Q403 365 382 389Q361 413 332.5 425.5Q304 438 271 438Q238 438 209.5 425.5Q181 413 160 389Q139 365 127 330Q115 295 115 250Q115 205 127 170Q139 135 160 111Q181 87 209.5 74.5Q238 62 271 62ZM375 587 271 661 167 587 127 621 271 739 415 621Z" glyph-name="ocircumflex" horiz-adv-x="542" unicode="&#244;" /><glyph d="M36 0ZM272 -6Q221 -6 177.5 12.5Q134 31 102.5 65Q71 99 53.5 146Q36 193 36 250Q36 307 53.5 354Q71 401 102 435Q133 469 176 487.5Q219 506 270 506Q321 506 364.5 487.5Q408 469 439.5 435Q471 401 488.5 354Q506 307 506 250Q506 193 488.5 146Q471 99 440 65Q409 31 366 12.5Q323 -6 272 -6ZM271 62Q304 62 332.5 74.5Q361 87 382 111Q403 135 415 170Q427 205 427 250Q427 295 415 330Q403 365 382 389Q361 413 332.5 425.5Q304 438 271 438Q238 438 209.5 425.5Q181 413 160 389Q139 365 127 330Q115 295 115 250Q115 205 127 170Q139 135 160 111Q181 87 209.5 74.5Q238 62 271 62ZM186 604Q165 604 150.5 618.5Q136 633 136 653Q136 673 150.5 687.5Q165 702 186 702Q206 702 221 687.5Q236 673 236 653Q236 633 221 618.5Q206 604 186 604ZM356 604Q335 604 320.5 618.5Q306 633 306 653Q306 673 320.5 687.5Q335 702 356 702Q376 702 391 687.5Q406 673 406 653Q406 633 391 618.5Q376 604 356 604Z" glyph-name="odieresis" horiz-adv-x="542" unicode="&#246;" /><glyph d="M878 129Q849 66 792 30Q735 -6 663 -6Q600 -6 548.5 24Q497 54 467 108Q438 54 387.5 24Q337 -6 272 -6Q221 -6 177.5 12.5Q134 31 102.5 65Q71 99 53.5 146Q36 193 36 250Q36 307 53.5 354Q71 401 102 435Q133 469 176 487.5Q219 506 270 506Q335 506 386 476Q437 446 466 392Q495 446 545 476Q595 506 656 506Q708 506 749.5 488Q791 470 820.5 437Q850 404 865.5 357Q881 310 881 253V238H506Q508 196 521 163Q534 130 555 107.5Q576 85 603.5 73.5Q631 62 662 62Q709 62 748 85.5Q787 109 807 155ZM657 438Q604 438 563.5 403Q523 368 511 302H801Q791 370 754 404Q717 438 657 438ZM271 62Q304 62 332.5 74.5Q361 87 382 111Q403 135 415 170Q427 205 427 250Q427 295 415 330Q403 365 382 389Q361 413 332.5 425.5Q304 438 271 438Q238 438 209.5 425.5Q181 413 160 389Q139 365 127 330Q115 295 115 250Q115 205 127 170Q139 135 160 111Q181 87 209.5 74.5Q238 62 271 62Z" glyph-name="oe" horiz-adv-x="914" unicode="&#339;" /><glyph d="M36 0ZM272 -6Q221 -6 177.5 12.5Q134 31 102.5 65Q71 99 53.5 146Q36 193 36 250Q36 307 53.5 354Q71 401 102 435Q133 469 176 487.5Q219 506 270 506Q321 506 364.5 487.5Q408 469 439.5 435Q471 401 488.5 354Q506 307 506 250Q506 193 488.5 146Q471 99 440 65Q409 31 366 12.5Q323 -6 272 -6ZM271 62Q304 62 332.5 74.5Q361 87 382 111Q403 135 415 170Q427 205 427 250Q427 295 415 330Q403 365 382 389Q361 413 332.5 425.5Q304 438 271 438Q238 438 209.5 425.5Q181 413 160 389Q139 365 127 330Q115 295 115 250Q115 205 127 170Q139 135 160 111Q181 87 209.5 74.5Q238 62 271 62ZM325 583 148 685 203 745 358 620Z" glyph-name="ograve" horiz-adv-x="542" unicode="&#242;" /><glyph d="M36 0ZM272 -6Q221 -6 177.5 12.5Q134 31 102.5 65Q71 99 53.5 146Q36 193 36 250Q36 307 53.5 354Q71 401 102 435Q133 469 176 487.5Q219 506 270 506Q321 506 364.5 487.5Q408 469 439.5 435Q471 401 488.5 354Q506 307 506 250Q506 193 488.5 146Q471 99 440 65Q409 31 366 12.5Q323 -6 272 -6ZM271 62Q304 62 332.5 74.5Q361 87 382 111Q403 135 415 170Q427 205 427 250Q427 295 415 330Q403 365 382 389Q361 413 332.5 425.5Q304 438 271 438Q238 438 209.5 425.5Q181 413 160 389Q139 365 127 330Q115 295 115 250Q115 205 127 170Q139 135 160 111Q181 87 209.5 74.5Q238 62 271 62ZM160 620V680H383V620Z" glyph-name="omacron" horiz-adv-x="542" unicode="&#333;" /><glyph d="M380 0H27V70H161V610Q132 595 101 586.5Q70 578 38 574V643Q82 650 120 663.5Q158 677 191 700H246V70H380Z" glyph-name="one" horiz-adv-x="409" unicode="1" /><glyph d="M25 0ZM94 0 444 700H515L165 0ZM642 0H403V51L523 160Q550 185 561 204Q572 223 572 243Q572 272 555.5 285.5Q539 299 516 299Q496 299 479.5 290.5Q463 282 448 259L398 281Q415 311 445 329.5Q475 348 520 348Q572 348 602.5 320Q633 292 633 247Q633 213 613 183Q593 153 545 111L479 50H642ZM220 355H25V405H92V635Q77 630 61 628Q45 626 28 624V673Q52 675 73.5 681.5Q95 688 115 700H154V405H220Z" glyph-name="onehalf" horiz-adv-x="669" unicode="&#189;" /><glyph d="M25 0ZM99 0 449 700H520L170 0ZM504 345H583V132H628V82H583V0H522V82H350V123ZM522 132V292L413 132ZM220 355H25V405H92V635Q77 630 61 628Q45 626 28 624V673Q52 675 73.5 681.5Q95 688 115 700H154V405H220Z" glyph-name="onequarter" horiz-adv-x="655" unicode="&#188;" /><glyph d="M25 355ZM220 355H25V405H92V635Q77 630 61 628Q45 626 28 624V673Q52 675 73.5 681.5Q95 688 115 700H154V405H220Z" glyph-name="onesuperior" horiz-adv-x="246" unicode="&#185;" /><glyph d="M506 250Q506 193 488.5 146Q471 99 440 65Q409 31 366 12.5Q323 -6 272 -6Q201 -6 145 30L117 -5H35L96 72Q67 106 51.5 151Q36 196 36 250Q36 307 53.5 354Q71 401 102 435Q133 469 176 487.5Q219 506 270 506Q309 506 343 495.5Q377 485 405 465L437 505H519L452 420Q478 387 492 344Q506 301 506 250ZM115 250Q115 214 122.5 185Q130 156 144 133L361 409Q323 438 271 438Q238 438 209.5 425.5Q181 413 160 389Q139 365 127 330Q115 295 115 250ZM427 250Q427 282 420.5 309Q414 336 403 358L189 86Q223 62 271 62Q304 62 332.5 74.5Q361 87 382 111Q403 135 415 170Q427 205 427 250Z" glyph-name="oslash" horiz-adv-x="551" unicode="&#248;" /><glyph d="M36 0ZM272 -6Q221 -6 177.5 12.5Q134 31 102.5 65Q71 99 53.5 146Q36 193 36 250Q36 307 53.5 354Q71 401 102 435Q133 469 176 487.5Q219 506 270 506Q321 506 364.5 487.5Q408 469 439.5 435Q471 401 488.5 354Q506 307 506 250Q506 193 488.5 146Q471 99 440 65Q409 31 366 12.5Q323 -6 272 -6ZM271 62Q304 62 332.5 74.5Q361 87 382 111Q403 135 415 170Q427 205 427 250Q427 295 415 330Q403 365 382 389Q361 413 332.5 425.5Q304 438 271 438Q238 438 209.5 425.5Q181 413 160 389Q139 365 127 330Q115 295 115 250Q115 205 127 170Q139 135 160 111Q181 87 209.5 74.5Q238 62 271 62ZM103 609Q143 702 207 702Q229 702 246 694Q263 686 278 677Q293 668 307 660Q321 652 335 652Q349 652 360.5 663Q372 674 388 700L438 682Q416 633 390 611Q364 589 332 589Q311 589 294 597Q277 605 262 614Q247 623 233.5 631Q220 639 206 639Q192 639 180 628Q168 617 153 591Z" glyph-name="otilde" horiz-adv-x="542" unicode="&#245;" /><glyph d="M288 -6Q239 -6 198.5 16Q158 38 130 77V-200H50V500H130V418Q159 460 199 483Q239 506 289 506Q338 506 379.5 487Q421 468 451 434.5Q481 401 497.5 354Q514 307 514 250Q514 193 497 146Q480 99 450 65.5Q420 32 378.5 13Q337 -6 288 -6ZM278 438Q228 438 189 412.5Q150 387 130 339V161Q150 113 189 87.5Q228 62 278 62Q311 62 340 74.5Q369 87 390 111Q411 135 423 170Q435 205 435 250Q435 295 423 330Q411 365 390 389Q369 413 340 425.5Q311 438 278 438Z" glyph-name="p" horiz-adv-x="549" unicode="p" /><glyph d="M30 491Q30 542 46 581Q62 620 90.5 646.5Q119 673 157.5 686.5Q196 700 241 700H427V0H347V281H251Q206 281 165.5 295.5Q125 310 95 337Q65 364 47.5 403Q30 442 30 491ZM495 700H575V0H495Z" glyph-name="paragraph" horiz-adv-x="635" unicode="&#182;" /><glyph d="M115 250Q115 184 127.5 123Q140 62 162.5 8Q185 -46 216 -90.5Q247 -135 284 -167L241 -216Q201 -183 163.5 -137Q126 -91 96.5 -32.5Q67 26 49.5 96.5Q32 167 32 250Q32 333 49.5 403.5Q67 474 96.5 532.5Q126 591 163.5 637Q201 683 241 716L284 667Q248 635 217 591Q186 547 163.5 494Q141 441 128 379Q115 317 115 250Z" glyph-name="parenleft" horiz-adv-x="304" unicode="(" /><glyph d="M189 250Q189 316 176.5 377Q164 438 141.5 492Q119 546 88 590.5Q57 635 20 667L63 716Q103 683 140.5 637Q178 591 207 532.5Q236 474 254 403.5Q272 333 272 250Q272 167 254 96.5Q236 26 207 -32.5Q178 -91 140.5 -137Q103 -183 63 -216L20 -167Q56 -135 87 -91Q118 -47 140.5 6Q163 59 176 120.5Q189 182 189 250Z" glyph-name="parenright" horiz-adv-x="304" unicode=")" /><glyph d="M35 0ZM165 0 515 700H586L236 0ZM441 172Q441 211 451 243.5Q461 276 479 299Q497 322 522 335Q547 348 578 348Q611 348 636.5 334.5Q662 321 679.5 297.5Q697 274 706.5 242Q716 210 716 173Q716 135 706 102.5Q696 70 678 46.5Q660 23 634.5 10Q609 -3 578 -3Q546 -3 520.5 10.5Q495 24 477.5 47.5Q460 71 450.5 103Q441 135 441 172ZM502 172Q502 109 524 78Q546 47 578 47Q610 47 632.5 78Q655 109 655 173Q655 237 632.5 267.5Q610 298 578 298Q546 298 524 267.5Q502 237 502 172ZM35 527Q35 566 45 598.5Q55 631 73 654Q91 677 116 690Q141 703 172 703Q205 703 230.5 689.5Q256 676 273.5 652.5Q291 629 300.5 597Q310 565 310 528Q310 490 300 457.5Q290 425 272 401.5Q254 378 228.5 365Q203 352 172 352Q140 352 114.5 365.5Q89 379 71.5 402.5Q54 426 44.5 458Q35 490 35 527ZM96 527Q96 464 118 433Q140 402 172 402Q204 402 226.5 433Q249 464 249 528Q249 592 226.5 622.5Q204 653 172 653Q140 653 118 622.5Q96 592 96 527Z" glyph-name="percent" horiz-adv-x="751" unicode="%" /><glyph d="M82 94Q102 94 117.5 79.5Q133 65 133 44Q133 23 117.5 8.5Q102 -6 82 -6Q60 -6 45.5 8.5Q31 23 31 44Q31 65 45.5 79.5Q60 94 82 94Z" glyph-name="period" horiz-adv-x="163" unicode="." /><glyph d="M31 305ZM82 405Q102 405 117.5 390.5Q133 376 133 355Q133 334 117.5 319.5Q102 305 82 305Q60 305 45.5 319.5Q31 334 31 355Q31 376 45.5 390.5Q60 405 82 405Z" glyph-name="periodcentered" horiz-adv-x="164" unicode="&#183;" /><glyph d="M330 305V112H253V305H66V374H253V571H330V374H517V305Z" glyph-name="plus" horiz-adv-x="583" unicode="+" /><glyph d="M499 -200H419V80Q390 39 349.5 16.5Q309 -6 260 -6Q211 -6 170 13Q129 32 99 65.5Q69 99 52 146Q35 193 35 250Q35 307 52 354Q69 401 99 434.5Q129 468 170.5 487Q212 506 261 506Q312 506 353.5 483.5Q395 461 423 419L439 500H499ZM114 250Q114 205 126 170Q138 135 159.5 111Q181 87 209.5 74.5Q238 62 271 62Q320 62 359.5 87Q399 112 419 160V340Q399 388 359.5 413.5Q320 439 271 439Q238 439 209.5 426.5Q181 414 159.5 390Q138 366 126 330.5Q114 295 114 250Z" glyph-name="q" horiz-adv-x="549" unicode="q" /><glyph d="M465 508Q465 473 452.5 439.5Q440 406 416 379.5Q392 353 357.5 335Q323 317 279 313L271 195H218L210 370H246Q279 370 306.5 381Q334 392 353.5 411Q373 430 383.5 454.5Q394 479 394 506Q394 534 384 559Q374 584 354.5 603Q335 622 306.5 633Q278 644 242 644Q174 644 134.5 606.5Q95 569 89 497L23 506Q25 547 40 583.5Q55 620 82.5 647Q110 674 151 690Q192 706 246 706Q300 706 341 689.5Q382 673 409.5 645.5Q437 618 451 582.5Q465 547 465 508ZM243 94Q263 94 278.5 79.5Q294 65 294 44Q294 23 278.5 8.5Q263 -6 243 -6Q221 -6 206.5 8.5Q192 23 192 44Q192 65 206.5 79.5Q221 94 243 94Z" glyph-name="question" horiz-adv-x="490" unicode="?" /><glyph d="M245 408Q225 408 209.5 422.5Q194 437 194 458Q194 479 209.5 493.5Q225 508 245 508Q267 508 281.5 493.5Q296 479 296 458Q296 437 281.5 422.5Q267 408 245 408ZM465 -4Q463 -45 448 -81.5Q433 -118 405 -145Q377 -172 336.5 -188Q296 -204 242 -204Q188 -204 147 -187.5Q106 -171 78.5 -143.5Q51 -116 37 -80.5Q23 -45 23 -6Q23 29 35.5 62.5Q48 96 72 122.5Q96 149 130.5 167Q165 185 209 189L217 307H270L278 132H242Q209 132 181.5 121Q154 110 134.5 91Q115 72 104.5 47.5Q94 23 94 -4Q94 -32 104 -57Q114 -82 133.5 -101Q153 -120 181.5 -131Q210 -142 246 -142Q314 -142 353.5 -104.5Q393 -67 399 5Z" glyph-name="questiondown" horiz-adv-x="490" unicode="&#191;" /><glyph d="M245 605Q225 605 209.5 619.5Q194 634 194 655Q194 676 209.5 690.5Q225 705 245 705Q267 705 281.5 690.5Q296 676 296 655Q296 634 281.5 619.5Q267 605 245 605ZM465 193Q463 152 448 115.5Q433 79 405 52Q377 25 336.5 9Q296 -7 242 -7Q188 -7 147 9.5Q106 26 78.5 53.5Q51 81 37 116.5Q23 152 23 191Q23 226 35.5 259.5Q48 293 72 319.5Q96 346 130.5 364Q165 382 209 386L217 504H270L278 329H242Q209 329 181.5 318Q154 307 134.5 288Q115 269 104.5 244.5Q94 220 94 193Q94 165 104 140Q114 115 133.5 96Q153 77 181.5 66Q210 55 246 55Q314 55 353.5 92.5Q393 130 399 202Z" glyph-name="questiondown.cap" horiz-adv-x="490" /><glyph d="M75 469 65 706H146L136 469ZM219 469 209 706H290L280 469Z" glyph-name="quotedbl" horiz-adv-x="355" unicode="&quot;" /><glyph d="M300 535Q300 513 286 499.5Q272 486 251 486Q225 486 210.5 504Q196 522 196 556Q196 579 203.5 602Q211 625 226 645.5Q241 666 264 682Q287 698 317 707L333 677Q252 641 243 585Q245 586 250 586Q272 586 286 570.5Q300 555 300 535ZM138 535Q138 513 124 499.5Q110 486 89 486Q63 486 48.5 504Q34 522 34 556Q34 579 41.5 602Q49 625 64 645.5Q79 666 102 682Q125 698 155 707L171 677Q90 641 81 585Q83 586 88 586Q110 586 124 570.5Q138 555 138 535Z" glyph-name="quotedblleft" horiz-adv-x="332" unicode="&#8220;" /><glyph d="M0 489ZM136 640Q136 617 128.5 593.5Q121 570 106 550Q91 530 68 514Q45 498 15 489L-1 519Q80 555 89 611Q87 610 82 610Q60 610 46 625.5Q32 641 32 661Q32 683 46 696.5Q60 710 81 710Q107 710 121.5 692Q136 674 136 640ZM298 640Q298 617 290.5 593.5Q283 570 268 550Q253 530 230 514Q207 498 177 489L161 519Q242 555 251 611Q249 610 244 610Q222 610 208 625.5Q194 641 194 661Q194 683 208 696.5Q222 710 243 710Q269 710 283.5 692Q298 674 298 640Z" glyph-name="quotedblright" horiz-adv-x="332" unicode="&#8221;" /><glyph d="M138 535Q138 513 124 499.5Q110 486 89 486Q63 486 48.5 504Q34 522 34 556Q34 579 41.5 602Q49 625 64 645.5Q79 666 102 682Q125 698 155 707L171 677Q90 641 81 585Q83 586 88 586Q110 586 124 570.5Q138 555 138 535Z" glyph-name="quoteleft" horiz-adv-x="170" unicode="&#8216;" /><glyph d="M0 489ZM136 640Q136 617 128.5 593.5Q121 570 106 550Q91 530 68 514Q45 498 15 489L-1 519Q80 555 89 611Q87 610 82 610Q60 610 46 625.5Q32 641 32 661Q32 683 46 696.5Q60 710 81 710Q107 710 121.5 692Q136 674 136 640Z" glyph-name="quoteright" horiz-adv-x="170" unicode="&#8217;" /><glyph d="M75 469 65 706H146L136 469Z" glyph-name="quotesingle" horiz-adv-x="210" unicode="'" /><glyph d="M303 435Q237 438 192 409.5Q147 381 130 333V0H50V500H130V410Q143 437 163 457Q183 477 206.5 489.5Q230 502 254.5 508Q279 514 303 514V435Z" glyph-name="r" horiz-adv-x="323" unicode="r" /><glyph d="M50 0ZM303 435Q237 438 192 409.5Q147 381 130 333V0H50V500H130V410Q143 437 163 457Q183 477 206.5 489.5Q230 502 254.5 508Q279 514 303 514V435ZM267 745 322 685 145 583 112 620Z" glyph-name="racute" horiz-adv-x="323" unicode="&#341;" /><glyph d="M50 0ZM303 435Q237 438 192 409.5Q147 381 130 333V0H50V500H130V410Q143 437 163 457Q183 477 206.5 489.5Q230 502 254.5 508Q279 514 303 514V435ZM200 588 56 706 96 740 200 666 304 740 344 706Z" glyph-name="rcaron" horiz-adv-x="323" unicode="&#345;" /><glyph d="M201 706Q234 706 265.5 694Q297 682 321 659.5Q345 637 359.5 604.5Q374 572 374 531Q374 490 359.5 457Q345 424 321 401.5Q297 379 265.5 367Q234 355 201 355Q167 355 135.5 367Q104 379 80 401.5Q56 424 41.5 457Q27 490 27 531Q27 572 41.5 604.5Q56 637 80 659.5Q104 682 135.5 694Q167 706 201 706ZM201 385Q229 385 254.5 395.5Q280 406 299 425Q318 444 329.5 471Q341 498 341 531Q341 564 329.5 591Q318 618 299 636.5Q280 655 254.5 665.5Q229 676 201 676Q172 676 146.5 665.5Q121 655 102 636.5Q83 618 71.5 591Q60 564 60 531Q60 498 71.5 471Q83 444 102 425Q121 406 146.5 395.5Q172 385 201 385ZM136 615H211Q232 615 246.5 601.5Q261 588 261 565Q261 547 251 535Q241 523 225 518L268 447H232L193 515H168V447H136ZM168 590V540H203Q216 540 223 546.5Q230 553 230 564Q230 590 203 590Z" glyph-name="registered" horiz-adv-x="401" unicode="&#174;" /><glyph d="M75 143Q107 96 148.5 76.5Q190 57 234 57Q291 57 318 78Q345 99 345 131Q345 159 319 176Q293 193 254 203L145 230Q83 245 55.5 281Q28 317 28 358Q28 388 39 415Q50 442 72 462Q94 482 127 494Q160 506 204 506Q243 506 274 497Q305 488 329.5 473Q354 458 373 439Q392 420 407 399L338 371Q308 409 274 425.5Q240 442 200 442Q149 442 126.5 420Q104 398 104 370Q104 349 123.5 329Q143 309 202 294L295 271Q359 255 391 221.5Q423 188 423 142Q423 110 410 83.5Q397 57 373 37Q349 17 313.5 6Q278 -5 233 -5Q193 -5 159.5 4Q126 13 98 28.5Q70 44 47.5 64.5Q25 85 7 109Z" glyph-name="s" horiz-adv-x="449" unicode="s" /><glyph d="M7 0ZM75 143Q107 96 148.5 76.5Q190 57 234 57Q291 57 318 78Q345 99 345 131Q345 159 319 176Q293 193 254 203L145 230Q83 245 55.5 281Q28 317 28 358Q28 388 39 415Q50 442 72 462Q94 482 127 494Q160 506 204 506Q243 506 274 497Q305 488 329.5 473Q354 458 373 439Q392 420 407 399L338 371Q308 409 274 425.5Q240 442 200 442Q149 442 126.5 420Q104 398 104 370Q104 349 123.5 329Q143 309 202 294L295 271Q359 255 391 221.5Q423 188 423 142Q423 110 410 83.5Q397 57 373 37Q349 17 313.5 6Q278 -5 233 -5Q193 -5 159.5 4Q126 13 98 28.5Q70 44 47.5 64.5Q25 85 7 109ZM279 745 334 685 157 583 124 620Z" glyph-name="sacute" horiz-adv-x="449" unicode="&#347;" /><glyph d="M7 0ZM75 143Q107 96 148.5 76.5Q190 57 234 57Q291 57 318 78Q345 99 345 131Q345 159 319 176Q293 193 254 203L145 230Q83 245 55.5 281Q28 317 28 358Q28 388 39 415Q50 442 72 462Q94 482 127 494Q160 506 204 506Q243 506 274 497Q305 488 329.5 473Q354 458 373 439Q392 420 407 399L338 371Q308 409 274 425.5Q240 442 200 442Q149 442 126.5 420Q104 398 104 370Q104 349 123.5 329Q143 309 202 294L295 271Q359 255 391 221.5Q423 188 423 142Q423 110 410 83.5Q397 57 373 37Q349 17 313.5 6Q278 -5 233 -5Q193 -5 159.5 4Q126 13 98 28.5Q70 44 47.5 64.5Q25 85 7 109ZM212 588 68 706 108 740 212 666 316 740 356 706Z" glyph-name="scaron" horiz-adv-x="449" unicode="&#353;" /><glyph d="M328 -115Q328 -153 300.5 -178Q273 -203 222 -203Q178 -203 151 -185Q124 -167 114 -138L161 -121Q169 -140 184 -148Q199 -156 219 -156Q247 -156 258.5 -143Q270 -130 270 -116Q270 -102 259 -90.5Q248 -79 222 -79H179L203 -4Q135 3 87.5 34.5Q40 66 7 109L75 143Q107 96 148.5 76.5Q190 57 234 57Q291 57 318 78Q345 99 345 131Q345 159 319 176Q293 193 254 203L145 230Q83 245 55.5 281Q28 317 28 358Q28 388 39 415Q50 442 72 462Q94 482 127 494Q160 506 204 506Q243 506 274 497Q305 488 329.5 473Q354 458 373 439Q392 420 407 399L338 371Q308 409 274 425.5Q240 442 200 442Q149 442 126.5 420Q104 398 104 370Q104 349 123.5 329Q143 309 202 294L295 271Q359 255 391 221.5Q423 188 423 142Q423 112 412 86.5Q401 61 379.5 42Q358 23 327 11Q296 -1 256 -4L242 -40Q288 -42 308 -65Q328 -88 328 -115Z" glyph-name="scedilla" horiz-adv-x="449" unicode="&#351;" /><glyph d="M7 0ZM75 143Q107 96 148.5 76.5Q190 57 234 57Q291 57 318 78Q345 99 345 131Q345 159 319 176Q293 193 254 203L145 230Q83 245 55.5 281Q28 317 28 358Q28 388 39 415Q50 442 72 462Q94 482 127 494Q160 506 204 506Q243 506 274 497Q305 488 329.5 473Q354 458 373 439Q392 420 407 399L338 371Q308 409 274 425.5Q240 442 200 442Q149 442 126.5 420Q104 398 104 370Q104 349 123.5 329Q143 309 202 294L295 271Q359 255 391 221.5Q423 188 423 142Q423 110 410 83.5Q397 57 373 37Q349 17 313.5 6Q278 -5 233 -5Q193 -5 159.5 4Q126 13 98 28.5Q70 44 47.5 64.5Q25 85 7 109ZM316 587 212 661 108 587 68 621 212 739 356 621Z" glyph-name="scircumflex" horiz-adv-x="449" unicode="&#349;" /><glyph d="M432 108Q432 78 421 50.5Q410 23 388 3Q366 -17 332.5 -29Q299 -41 255 -41Q216 -41 184.5 -32Q153 -23 128.5 -8Q104 7 85 26Q66 45 51 66L120 94Q150 56 184.5 39.5Q219 23 259 23Q310 23 333 45Q356 67 356 96Q356 117 336 136.5Q316 156 258 172L154 200Q15 238 15 341Q15 380 40 410.5Q65 441 113 458Q87 478 74 503Q61 528 61 556Q61 586 72 613.5Q83 641 105 661Q127 681 160.5 693Q194 705 238 705Q277 705 308.5 696Q340 687 364.5 672Q389 657 408 638Q427 619 442 598L373 570Q343 608 308.5 624.5Q274 641 234 641Q183 641 160 619Q137 597 137 568Q137 557 141.5 547Q146 537 157 527.5Q168 518 187 509Q206 500 235 492L339 464Q478 426 478 323Q478 284 453 253.5Q428 223 380 206Q406 186 419 161Q432 136 432 108ZM316 236Q360 242 380 262.5Q400 283 400 312Q400 344 371 364Q342 384 298 396L178 428H177Q133 422 113 401.5Q93 381 93 352Q93 320 122 300Q151 280 195 268L315 236Z" glyph-name="section" horiz-adv-x="488" unicode="&#167;" /><glyph d="M0 0ZM135 24Q135 1 127.5 -22.5Q120 -46 105 -66Q90 -86 67 -102Q44 -118 14 -127L-2 -97Q79 -61 88 -5Q86 -6 81 -6Q59 -6 45 9.5Q31 25 31 45Q31 67 45 80.5Q59 94 80 94Q106 94 120.5 76Q135 58 135 24ZM82 454Q102 454 117.5 439.5Q133 425 133 404Q133 383 117.5 368.5Q102 354 82 354Q60 354 45.5 368.5Q31 383 31 404Q31 425 45.5 439.5Q60 454 82 454Z" glyph-name="semicolon" horiz-adv-x="167" unicode=";" /><glyph d="M497 649Q238 389 213 0H128Q136 89 157 177.5Q178 266 212.5 347.5Q247 429 294 501.5Q341 574 400 630H20V700H497V649Z" glyph-name="seven" horiz-adv-x="512" unicode="7" /><glyph d="M555 231Q555 185 539 142.5Q523 100 492 67Q461 34 415.5 14Q370 -6 312 -6Q248 -6 198 20Q148 46 114 92Q80 138 62.5 201.5Q45 265 45 339Q45 418 63.5 485.5Q82 553 117.5 602Q153 651 203.5 678.5Q254 706 319 706Q360 706 392.5 696.5Q425 687 451 671Q477 655 497.5 633Q518 611 534 586L462 552Q427 602 392.5 619Q358 636 319 636Q278 636 243.5 618Q209 600 183 563.5Q157 527 142.5 471.5Q128 416 128 341Q157 386 208 416Q259 446 331 446Q380 446 421 430Q462 414 492 385.5Q522 357 538.5 317.5Q555 278 555 231ZM314 378Q282 378 253.5 368Q225 358 201.5 342.5Q178 327 160 307Q142 287 133 267Q147 164 196 114Q245 64 316 64Q351 64 380 76Q409 88 429.5 109Q450 130 461 159Q472 188 472 223Q472 293 429 335.5Q386 378 314 378Z" glyph-name="six" horiz-adv-x="601" unicode="6" /><glyph d="M300 700H380L30 -200H-50Z" glyph-name="slash" horiz-adv-x="380" unicode="/" /><glyph glyph-name="space" horiz-adv-x="250" unicode=" " /><glyph d="M310 7Q293 2 273.5 -1.5Q254 -5 228 -5Q100 -5 100 110V437H12V500H100L104 606H180V500H313V437H180V120Q180 89 196.5 76Q213 63 246 63Q260 63 276.5 64.5Q293 66 310 68V7Z" glyph-name="t" horiz-adv-x="325" unicode="t" /><glyph d="M292 -115Q292 -153 264.5 -178Q237 -203 186 -203Q142 -203 115 -185Q88 -167 78 -138L125 -121Q133 -140 148 -148Q163 -156 183 -156Q211 -156 222.5 -143Q234 -130 234 -116Q234 -102 223 -90.5Q212 -79 186 -79H143L169 3Q100 25 100 110V437H12V500H100L104 606H180V500H313V437H180V120Q180 89 196.5 76Q213 63 246 63Q260 63 276.5 64.5Q293 66 310 68V7Q293 2 273.5 -1.5Q254 -5 228 -5H220L206 -40Q252 -42 272 -65Q292 -88 292 -115Z" glyph-name="tcommaaccent" horiz-adv-x="325" unicode="&#539;" /><glyph d="M500 197Q500 154 483.5 117Q467 80 436.5 52.5Q406 25 362.5 9.5Q319 -6 265 -6Q98 -6 23 113L94 148Q126 103 165.5 84Q205 65 264 65Q295 65 323 73Q351 81 371.5 97.5Q392 114 404 138Q416 162 416 194Q416 225 405.5 249Q395 273 377 289.5Q359 306 334.5 314Q310 322 282 322H183V393H249Q277 393 301.5 400.5Q326 408 344.5 423Q363 438 373.5 460.5Q384 483 384 513Q384 575 345.5 605.5Q307 636 249 636Q199 636 164.5 615.5Q130 595 99 552L31 586Q66 639 118 672.5Q170 706 250 706Q307 706 348 691Q389 676 415.5 651Q442 626 455 593Q468 560 468 523Q468 499 459.5 475Q451 451 436 431Q421 411 401 395Q381 379 359 370Q390 364 416 348.5Q442 333 460.5 310Q479 287 489.5 258.5Q500 230 500 197Z" glyph-name="three" horiz-adv-x="540" unicode="3" /><glyph d="M28 0ZM144 0 494 700H565L215 0ZM549 345H628V132H673V82H628V0H567V82H395V123ZM567 132V292L458 132ZM278 453Q278 410 244 381Q210 352 153 352Q109 352 78 368.5Q47 385 28 415L80 439Q104 402 152 402Q178 402 197.5 415Q217 428 217 454Q217 479 200.5 492.5Q184 506 159 506H116V553H150Q173 553 189.5 566Q206 579 206 602Q206 627 190.5 640.5Q175 654 150 654Q127 654 111 644Q95 634 83 616L33 640Q51 668 79 685.5Q107 703 149 703Q206 703 236.5 677Q267 651 267 609Q267 586 252.5 565Q238 544 214 533Q244 525 261 503.5Q278 482 278 453Z" glyph-name="threequarters" horiz-adv-x="700" unicode="&#190;" /><glyph d="M28 352ZM278 453Q278 410 244 381Q210 352 153 352Q109 352 78 368.5Q47 385 28 415L80 439Q104 402 152 402Q178 402 197.5 415Q217 428 217 454Q217 479 200.5 492.5Q184 506 159 506H116V553H150Q173 553 189.5 566Q206 579 206 602Q206 627 190.5 640.5Q175 654 150 654Q127 654 111 644Q95 634 83 616L33 640Q51 668 79 685.5Q107 703 149 703Q206 703 236.5 677Q267 651 267 609Q267 586 252.5 565Q238 544 214 533Q244 525 261 503.5Q278 482 278 453Z" glyph-name="threesuperior" horiz-adv-x="311" unicode="&#179;" /><glyph d="M83 609Q123 702 187 702Q209 702 226 694Q243 686 258 677Q273 668 287 660Q301 652 315 652Q329 652 340.5 663Q352 674 368 700L418 682Q396 633 370 611Q344 589 312 589Q291 589 274 597Q257 605 242 614Q227 623 213.5 631Q200 639 186 639Q172 639 160 628Q148 617 133 591Z" glyph-name="tilde" horiz-adv-x="501" unicode="&#732;" /><glyph d="M416 485 495 700H557V419H513V643L430 419H395L314 644V419H275V700H338ZM19 700H246V663H155V419H110V663H19Z" glyph-name="trademark" horiz-adv-x="592" unicode="&#8482;" /><glyph d="M482 0H25V72L284 324Q337 375 358 419.5Q379 464 379 505Q379 537 368.5 561.5Q358 586 339.5 602.5Q321 619 296.5 627.5Q272 636 244 636Q226 636 207 633.5Q188 631 169 622.5Q150 614 131 598Q112 582 93 555L26 587Q59 639 113 672.5Q167 706 250 706Q299 706 338.5 692Q378 678 406 652Q434 626 448.5 589.5Q463 553 463 508Q463 448 429 390.5Q395 333 325 264L129 70H482Z" glyph-name="two" horiz-adv-x="505" unicode="2" /><glyph d="M28 355ZM272 355H33V406L153 515Q180 540 191 559Q202 578 202 598Q202 627 185.5 640.5Q169 654 146 654Q126 654 109.5 645.5Q93 637 78 614L28 636Q45 666 75 684.5Q105 703 150 703Q202 703 232.5 675Q263 647 263 602Q263 568 243 538Q223 508 175 466L109 405H272Z" glyph-name="twosuperior" horiz-adv-x="299" unicode="&#178;" /><glyph d="M385 87Q364 45 321.5 19.5Q279 -6 224 -6Q179 -6 146 8.5Q113 23 92 47.5Q71 72 60.5 104.5Q50 137 50 173V500H130V194Q130 128 157.5 93.5Q185 59 245 59Q299 59 336.5 91Q374 123 385 174V500H465V0H385Z" glyph-name="u" horiz-adv-x="515" unicode="u" /><glyph d="M50 0ZM385 87Q364 45 321.5 19.5Q279 -6 224 -6Q179 -6 146 8.5Q113 23 92 47.5Q71 72 60.5 104.5Q50 137 50 173V500H130V194Q130 128 157.5 93.5Q185 59 245 59Q299 59 336.5 91Q374 123 385 174V500H465V0H385ZM330 745 385 685 208 583 175 620Z" glyph-name="uacute" horiz-adv-x="515" unicode="&#250;" /><glyph d="M50 0ZM385 87Q364 45 321.5 19.5Q279 -6 224 -6Q179 -6 146 8.5Q113 23 92 47.5Q71 72 60.5 104.5Q50 137 50 173V500H130V194Q130 128 157.5 93.5Q185 59 245 59Q299 59 336.5 91Q374 123 385 174V500H465V0H385ZM367 587 263 661 159 587 119 621 263 739 407 621Z" glyph-name="ucircumflex" horiz-adv-x="515" unicode="&#251;" /><glyph d="M50 0ZM385 87Q364 45 321.5 19.5Q279 -6 224 -6Q179 -6 146 8.5Q113 23 92 47.5Q71 72 60.5 104.5Q50 137 50 173V500H130V194Q130 128 157.5 93.5Q185 59 245 59Q299 59 336.5 91Q374 123 385 174V500H465V0H385ZM178 604Q157 604 142.5 618.5Q128 633 128 653Q128 673 142.5 687.5Q157 702 178 702Q198 702 213 687.5Q228 673 228 653Q228 633 213 618.5Q198 604 178 604ZM348 604Q327 604 312.5 618.5Q298 633 298 653Q298 673 312.5 687.5Q327 702 348 702Q368 702 383 687.5Q398 673 398 653Q398 633 383 618.5Q368 604 348 604Z" glyph-name="udieresis" horiz-adv-x="515" unicode="&#252;" /><glyph d="M50 0ZM385 87Q364 45 321.5 19.5Q279 -6 224 -6Q179 -6 146 8.5Q113 23 92 47.5Q71 72 60.5 104.5Q50 137 50 173V500H130V194Q130 128 157.5 93.5Q185 59 245 59Q299 59 336.5 91Q374 123 385 174V500H465V0H385ZM317 583 140 685 195 745 350 620Z" glyph-name="ugrave" horiz-adv-x="515" unicode="&#249;" /><glyph d="M50 0ZM385 87Q364 45 321.5 19.5Q279 -6 224 -6Q179 -6 146 8.5Q113 23 92 47.5Q71 72 60.5 104.5Q50 137 50 173V500H130V194Q130 128 157.5 93.5Q185 59 245 59Q299 59 336.5 91Q374 123 385 174V500H465V0H385ZM152 620V680H375V620Z" glyph-name="umacron" horiz-adv-x="515" unicode="&#363;" /><glyph d="M366 -64V-133H-1V-64Z" glyph-name="underscore" horiz-adv-x="365" unicode="_" /><glyph d="M35 352ZM35 527Q35 566 45 598.5Q55 631 73 654Q91 677 116 690Q141 703 172 703Q205 703 230.5 689.5Q256 676 273.5 652.5Q291 629 300.5 597Q310 565 310 528Q310 490 300 457.5Q290 425 272 401.5Q254 378 228.5 365Q203 352 172 352Q140 352 114.5 365.5Q89 379 71.5 402.5Q54 426 44.5 458Q35 490 35 527ZM96 527Q96 464 118 433Q140 402 172 402Q204 402 226.5 433Q249 464 249 528Q249 592 226.5 622.5Q204 653 172 653Q140 653 118 622.5Q96 592 96 527Z" glyph-name="uni2070" horiz-adv-x="345" unicode="&#8304;" /><glyph d="M26 355ZM180 700H259V487H304V437H259V355H198V437H26V478ZM198 487V647L89 487Z" glyph-name="uni2074" horiz-adv-x="331" unicode="&#8308;" /><glyph d="M32 352ZM284 473Q284 421 248.5 386.5Q213 352 153 352Q108 352 78 369.5Q48 387 32 415L85 440Q98 420 113.5 410.5Q129 401 152 401Q181 401 201.5 418Q222 435 222 469Q222 501 203 518Q184 535 154 535Q132 535 114 525.5Q96 516 87 501L37 504L50 700H263V650H102L95 559Q107 570 125.5 576.5Q144 583 168 583Q222 583 253 552Q284 521 284 473Z" glyph-name="uni2075" horiz-adv-x="315" unicode="&#8309;" /><glyph d="M35 352ZM300 469Q300 446 291.5 425Q283 404 267 387.5Q251 371 228 361.5Q205 352 176 352Q143 352 117 364.5Q91 377 72.5 399.5Q54 422 44.5 454Q35 486 35 524Q35 564 45 597Q55 630 73 653.5Q91 677 117.5 690Q144 703 177 703Q221 703 248 684.5Q275 666 291 640L238 616Q224 638 208.5 646Q193 654 176 654Q140 654 118 622Q96 590 96 530Q110 550 133 562Q156 574 188 574Q239 574 269.5 545Q300 516 300 469ZM174 530Q148 530 128 517Q108 504 99 487Q105 443 126 422Q147 401 176 401Q205 401 223 420Q241 439 241 467Q241 495 222.5 512.5Q204 530 174 530Z" glyph-name="uni2076" horiz-adv-x="334" unicode="&#8310;" /><glyph d="M25 355ZM271 654Q214 594 180 521Q146 448 142 355H78Q85 444 117.5 518.5Q150 593 206 650H25V700H271V654Z" glyph-name="uni2077" horiz-adv-x="294" unicode="&#8311;" /><glyph d="M35 352ZM297 455Q297 412 262 382Q227 352 166 352Q105 352 70 381Q35 410 35 452Q35 479 50.5 500Q66 521 95 532Q47 558 47 608Q47 645 77 674Q107 703 165 703Q220 703 249.5 677Q279 651 279 615Q279 569 228 544Q262 530 279.5 508.5Q297 487 297 455ZM182 559Q200 566 210.5 579Q221 592 221 609Q221 629 206 642.5Q191 656 163 656Q136 656 121 643Q106 630 106 612Q106 595 118 584.5Q130 574 153 567ZM95 458Q95 432 114.5 416Q134 400 167 400Q200 400 218 415.5Q236 431 236 453Q236 491 180 505L138 517Q95 499 95 458Z" glyph-name="uni2078" horiz-adv-x="332" unicode="&#8312;" /><glyph d="M35 352ZM300 531Q300 491 290 458Q280 425 262 401.5Q244 378 217.5 365Q191 352 158 352Q114 352 87 370.5Q60 389 44 415L97 439Q111 417 126.5 409Q142 401 159 401Q195 401 217 433Q239 465 239 525Q225 505 202 493Q179 481 147 481Q96 481 65.5 510Q35 539 35 586Q35 609 43.5 630Q52 651 68 667.5Q84 684 107 693.5Q130 703 159 703Q192 703 218 690.5Q244 678 262.5 655.5Q281 633 290.5 601Q300 569 300 531ZM94 588Q94 560 112.5 542.5Q131 525 161 525Q187 525 207 538Q227 551 236 568Q230 612 209 633Q188 654 159 654Q130 654 112 635Q94 616 94 588Z" glyph-name="uni2079" horiz-adv-x="334" unicode="&#8313;" /><glyph d="M35 172Q35 211 45 243.5Q55 276 73 299Q91 322 116 335Q141 348 172 348Q205 348 230.5 334.5Q256 321 273.5 297.5Q291 274 300.5 242Q310 210 310 173Q310 135 300 102.5Q290 70 272 46.5Q254 23 228.5 10Q203 -3 172 -3Q140 -3 114.5 10.5Q89 24 71.5 47.5Q54 71 44.5 103Q35 135 35 172ZM96 172Q96 109 118 78Q140 47 172 47Q204 47 226.5 78Q249 109 249 173Q249 237 226.5 267.5Q204 298 172 298Q140 298 118 267.5Q96 237 96 172Z" glyph-name="uni2080" horiz-adv-x="345" unicode="&#8320;" /><glyph d="M220 0H25V50H92V280Q77 275 61 273Q45 271 28 269V318Q52 320 73.5 326.5Q95 333 115 345H154V50H220Z" glyph-name="uni2081" horiz-adv-x="246" unicode="&#8321;" /><glyph d="M272 0H33V51L153 160Q180 185 191 204Q202 223 202 243Q202 272 185.5 285.5Q169 299 146 299Q126 299 109.5 290.5Q93 282 78 259L28 281Q45 311 75 329.5Q105 348 150 348Q202 348 232.5 320Q263 292 263 247Q263 213 243 183Q223 153 175 111L109 50H272Z" glyph-name="uni2082" horiz-adv-x="299" unicode="&#8322;" /><glyph d="M278 98Q278 55 244 26Q210 -3 153 -3Q109 -3 78 13.5Q47 30 28 60L80 84Q104 47 152 47Q178 47 197.5 60Q217 73 217 99Q217 124 200.5 137.5Q184 151 159 151H116V198H150Q173 198 189.5 211Q206 224 206 247Q206 272 190.5 285.5Q175 299 150 299Q127 299 111 289Q95 279 83 261L33 285Q51 313 79 330.5Q107 348 149 348Q206 348 236.5 322Q267 296 267 254Q267 231 252.5 210Q238 189 214 178Q244 170 261 148.5Q278 127 278 98Z" glyph-name="uni2083" horiz-adv-x="311" unicode="&#8323;" /><glyph d="M180 345H259V132H304V82H259V0H198V82H26V123ZM198 132V292L89 132Z" glyph-name="uni2084" horiz-adv-x="331" unicode="&#8324;" /><glyph d="M284 118Q284 66 248.5 31.5Q213 -3 153 -3Q108 -3 78 14.5Q48 32 32 60L85 85Q98 65 113.5 55.5Q129 46 152 46Q181 46 201.5 63Q222 80 222 114Q222 146 203 163Q184 180 154 180Q132 180 114 170.5Q96 161 87 146L37 149L50 345H263V295H102L95 204Q107 215 125.5 221.5Q144 228 168 228Q222 228 253 197Q284 166 284 118Z" glyph-name="uni2085" horiz-adv-x="315" unicode="&#8325;" /><glyph d="M300 114Q300 91 291.5 70Q283 49 267 32.5Q251 16 228 6.5Q205 -3 176 -3Q143 -3 117 9.5Q91 22 72.5 44.5Q54 67 44.5 99Q35 131 35 169Q35 209 45 242Q55 275 73 298.5Q91 322 117.5 335Q144 348 177 348Q221 348 248 329.5Q275 311 291 285L238 261Q224 283 208.5 291Q193 299 176 299Q140 299 118 267Q96 235 96 175Q110 195 133 207Q156 219 188 219Q239 219 269.5 190Q300 161 300 114ZM174 175Q148 175 128 162Q108 149 99 132Q105 88 126 67Q147 46 176 46Q205 46 223 65Q241 84 241 112Q241 140 222.5 157.5Q204 175 174 175Z" glyph-name="uni2086" horiz-adv-x="334" unicode="&#8326;" /><glyph d="M271 299Q214 239 180 166Q146 93 142 0H78Q85 89 117.5 163.5Q150 238 206 295H25V345H271V299Z" glyph-name="uni2087" horiz-adv-x="294" unicode="&#8327;" /><glyph d="M297 100Q297 57 262 27Q227 -3 166 -3Q105 -3 70 26Q35 55 35 97Q35 124 50.5 145Q66 166 95 177Q47 203 47 253Q47 290 77 319Q107 348 165 348Q220 348 249.5 322Q279 296 279 260Q279 214 228 189Q262 175 279.5 153.5Q297 132 297 100ZM182 204Q200 211 210.5 224Q221 237 221 254Q221 274 206 287.5Q191 301 163 301Q136 301 121 288Q106 275 106 257Q106 240 118 229.5Q130 219 153 212ZM95 103Q95 77 114.5 61Q134 45 167 45Q200 45 218 60.5Q236 76 236 98Q236 136 180 150L138 162Q95 144 95 103Z" glyph-name="uni2088" horiz-adv-x="332" unicode="&#8328;" /><glyph d="M300 176Q300 136 290 103Q280 70 262 46.5Q244 23 217.5 10Q191 -3 158 -3Q114 -3 87 15.5Q60 34 44 60L97 84Q111 62 126.5 54Q142 46 159 46Q195 46 217 78Q239 110 239 170Q225 150 202 138Q179 126 147 126Q96 126 65.5 155Q35 184 35 231Q35 254 43.5 275Q52 296 68 312.5Q84 329 107 338.5Q130 348 159 348Q192 348 218 335.5Q244 323 262.5 300.5Q281 278 290.5 246Q300 214 300 176ZM94 233Q94 205 112.5 187.5Q131 170 161 170Q187 170 207 183Q227 196 236 213Q230 257 209 278Q188 299 159 299Q130 299 112 280Q94 261 94 233Z" glyph-name="uni2089" horiz-adv-x="334" unicode="&#8329;" /><glyph d="M50 0ZM385 87Q364 45 321.5 19.5Q279 -6 224 -6Q179 -6 146 8.5Q113 23 92 47.5Q71 72 60.5 104.5Q50 137 50 173V500H130V194Q130 128 157.5 93.5Q185 59 245 59Q299 59 336.5 91Q374 123 385 174V500H465V0H385ZM95 609Q135 702 199 702Q221 702 238 694Q255 686 270 677Q285 668 299 660Q313 652 327 652Q341 652 352.5 663Q364 674 380 700L430 682Q408 633 382 611Q356 589 324 589Q303 589 286 597Q269 605 254 614Q239 623 225.5 631Q212 639 198 639Q184 639 172 628Q160 617 145 591Z" glyph-name="utilde" horiz-adv-x="515" unicode="&#361;" /><glyph d="M291 0H216L10 500H101L256 94L413 500H492Z" glyph-name="v" horiz-adv-x="502" unicode="v" /><glyph d="M257 0H169L15 500H103L198 175L220 98L245 175L358 500H423L537 175L563 97L585 175L680 500H760L606 0H518L415 297L388 380L360 297Z" glyph-name="w" horiz-adv-x="775" unicode="w" /><glyph d="M15 0ZM257 0H169L15 500H103L198 175L220 98L245 175L358 500H423L537 175L563 97L585 175L680 500H760L606 0H518L415 297L388 380L360 297ZM454 745 509 685 332 583 299 620Z" glyph-name="wacute" horiz-adv-x="775" unicode="&#7811;" /><glyph d="M15 0ZM257 0H169L15 500H103L198 175L220 98L245 175L358 500H423L537 175L563 97L585 175L680 500H760L606 0H518L415 297L388 380L360 297ZM491 587 387 661 283 587 243 621 387 739 531 621Z" glyph-name="wcircumflex" horiz-adv-x="775" unicode="&#373;" /><glyph d="M15 0ZM257 0H169L15 500H103L198 175L220 98L245 175L358 500H423L537 175L563 97L585 175L680 500H760L606 0H518L415 297L388 380L360 297ZM302 604Q281 604 266.5 618.5Q252 633 252 653Q252 673 266.5 687.5Q281 702 302 702Q322 702 337 687.5Q352 673 352 653Q352 633 337 618.5Q322 604 302 604ZM472 604Q451 604 436.5 618.5Q422 633 422 653Q422 673 436.5 687.5Q451 702 472 702Q492 702 507 687.5Q522 673 522 653Q522 633 507 618.5Q492 604 472 604Z" glyph-name="wdieresis" horiz-adv-x="775" unicode="&#7813;" /><glyph d="M15 0ZM257 0H169L15 500H103L198 175L220 98L245 175L358 500H423L537 175L563 97L585 175L680 500H760L606 0H518L415 297L388 380L360 297ZM441 583 264 685 319 745 474 620Z" glyph-name="wgrave" horiz-adv-x="775" unicode="&#7809;" /><glyph d="M256 203 105 0H15L213 257L28 500H128L261 320L395 500H485L304 266L508 0H408Z" glyph-name="x" horiz-adv-x="523" unicode="x" /><glyph d="M269 -78Q254 -116 236 -140.5Q218 -165 198 -179.5Q178 -194 156.5 -200Q135 -206 111 -206Q93 -206 78.5 -204Q64 -202 51 -200V-131Q65 -134 78 -136Q91 -138 103 -138Q132 -138 152.5 -122.5Q173 -107 187 -73L216 -3L10 500H101L259 89L416 500H502L269 -78Z" glyph-name="y" horiz-adv-x="512" unicode="y" /><glyph d="M218 -201H134L217 -5L10 500H96L259 85L418 500H504Z" glyph-name="y.school" horiz-adv-x="514" /><glyph d="M10 0ZM269 -78Q254 -116 236 -140.5Q218 -165 198 -179.5Q178 -194 156.5 -200Q135 -206 111 -206Q93 -206 78.5 -204Q64 -202 51 -200V-131Q65 -134 78 -136Q91 -138 103 -138Q132 -138 152.5 -122.5Q173 -107 187 -73L216 -3L10 500H101L259 89L416 500H502L269 -78ZM327 745 382 685 205 583 172 620Z" glyph-name="yacute" horiz-adv-x="512" unicode="&#253;" /><glyph d="M10 0ZM269 -78Q254 -116 236 -140.5Q218 -165 198 -179.5Q178 -194 156.5 -200Q135 -206 111 -206Q93 -206 78.5 -204Q64 -202 51 -200V-131Q65 -134 78 -136Q91 -138 103 -138Q132 -138 152.5 -122.5Q173 -107 187 -73L216 -3L10 500H101L259 89L416 500H502L269 -78ZM364 587 260 661 156 587 116 621 260 739 404 621Z" glyph-name="ycircumflex" horiz-adv-x="512" unicode="&#375;" /><glyph d="M10 0ZM269 -78Q254 -116 236 -140.5Q218 -165 198 -179.5Q178 -194 156.5 -200Q135 -206 111 -206Q93 -206 78.5 -204Q64 -202 51 -200V-131Q65 -134 78 -136Q91 -138 103 -138Q132 -138 152.5 -122.5Q173 -107 187 -73L216 -3L10 500H101L259 89L416 500H502L269 -78ZM175 604Q154 604 139.5 618.5Q125 633 125 653Q125 673 139.5 687.5Q154 702 175 702Q195 702 210 687.5Q225 673 225 653Q225 633 210 618.5Q195 604 175 604ZM345 604Q324 604 309.5 618.5Q295 633 295 653Q295 673 309.5 687.5Q324 702 345 702Q365 702 380 687.5Q395 673 395 653Q395 633 380 618.5Q365 604 345 604Z" glyph-name="ydieresis" horiz-adv-x="512" unicode="&#255;" /><glyph d="M10 0ZM269 -78Q254 -116 236 -140.5Q218 -165 198 -179.5Q178 -194 156.5 -200Q135 -206 111 -206Q93 -206 78.5 -204Q64 -202 51 -200V-131Q65 -134 78 -136Q91 -138 103 -138Q132 -138 152.5 -122.5Q173 -107 187 -73L216 -3L10 500H101L259 89L416 500H502L269 -78ZM314 583 137 685 192 745 347 620Z" glyph-name="ygrave" horiz-adv-x="512" unicode="&#7923;" /><glyph d="M400 0H15V47L303 436H30V500H400V445L120 64H400Z" glyph-name="z" horiz-adv-x="420" unicode="z" /><glyph d="M15 0ZM400 0H15V47L303 436H30V500H400V445L120 64H400ZM275 745 330 685 153 583 120 620Z" glyph-name="zacute" horiz-adv-x="420" unicode="&#378;" /><glyph d="M15 0ZM400 0H15V47L303 436H30V500H400V445L120 64H400ZM208 588 64 706 104 740 208 666 312 740 352 706Z" glyph-name="zcaron" horiz-adv-x="420" unicode="&#382;" /><glyph d="M15 0ZM400 0H15V47L303 436H30V500H400V445L120 64H400ZM208 604Q187 604 172.5 618.5Q158 633 158 653Q158 673 172.5 687.5Q187 702 208 702Q228 702 243 687.5Q258 673 258 653Q258 633 243 618.5Q228 604 208 604Z" glyph-name="zdotaccent" horiz-adv-x="420" unicode="&#380;" /><glyph d="M44 350Q44 425 62.5 490Q81 555 115.5 603Q150 651 200 678.5Q250 706 312 706Q373 706 422 678.5Q471 651 505.5 603Q540 555 558.5 490Q577 425 577 350Q577 275 558.5 210Q540 145 505.5 97Q471 49 421 21.5Q371 -6 309 -6Q248 -6 199 21.5Q150 49 115.5 97Q81 145 62.5 210Q44 275 44 350ZM129 350Q129 279 143 225.5Q157 172 181.5 136Q206 100 239 82Q272 64 310 64Q348 64 381.5 82Q415 100 439.5 136Q464 172 478 225.5Q492 279 492 350Q492 420 478 473.5Q464 527 439.5 563Q415 599 382 617.5Q349 636 311 636Q273 636 239.5 617.5Q206 599 181.5 563Q157 527 143 473.5Q129 420 129 350Z" glyph-name="zero" horiz-adv-x="620" unicode="0" /><glyph glyph-name="zerowidthspace" horiz-adv-x="0" unicode="&#8203;" /></font>
</defs>
</svg>
