<?xml version="1.0" standalone="no"?><!DOCTYPE svg PUBLIC "-//W3C//DTD SVG 1.1//EN" "http://www.w3.org/Graphics/SVG/1.1/DTD/svg11.dtd" ><svg version="1.1" xmlns="http://www.w3.org/2000/svg"><defs><font horiz-adv-x="0" id="font"><font-face ascent="750" bbox="-234 -521 1400 1085.5" cap-height="700" descent="-250" font-family="YP Hand Web" font-stretch="normal" font-style="normal" font-weight="400" units-per-em="1000" x-height="500" /><missing-glyph d="M43 700H468V-200H43Z" horiz-adv-x="500" /><glyph d="M653 -177Q653 -189 643 -198Q633 -207 623 -207Q612 -207 603.5 -199.5Q595 -192 593 -181Q588 -157 586.5 -127.5Q585 -98 585 -63Q585 3 590.5 81.5Q596 160 604 242Q519 240 443.5 224.5Q368 209 308 189Q248 169 207 150Q166 131 150 122Q129 65 115 10Q101 -45 95 -99Q94 -111 85.5 -118.5Q77 -126 66 -126Q56 -126 45.5 -118Q35 -110 35 -96V-92Q42 -31 56.5 25Q71 81 87.5 127Q104 173 119.5 206.5Q135 240 143 257Q179 331 226.5 404.5Q274 478 332 549Q378 606 427 658Q476 710 524 751Q620 833 659 833Q677 833 689 819Q700 808 704.5 785.5Q709 763 709 724Q709 674 701.5 594Q694 514 681 391Q675 332 668.5 270.5Q662 209 657 150Q652 91 649 36Q646 -19 646 -66Q646 -97 647.5 -123.5Q649 -150 653 -171ZM195 225Q193 220 191 216.5Q189 213 187 208Q220 222 264.5 238.5Q309 255 363 269Q417 283 479.5 292.5Q542 302 610 303Q613 327 615.5 350.5Q618 374 620 397Q628 469 634.5 534.5Q641 600 644 653Q647 698 647 724Q647 739 646.5 749Q646 759 645 766Q629 757 601.5 736Q574 715 538.5 682.5Q503 650 460.5 605Q418 560 373 503Q319 434 274.5 365Q230 296 195 225Z" glyph-name="A" horiz-adv-x="791" unicode="A" /><glyph d="M39 -116Q31 -133 12 -133Q3 -133 -2 -129Q-19 -121 -19 -103Q-19 -99 -18 -96Q-17 -93 -15 -89Q29 -1 73.5 99.5Q118 200 162 302Q217 429 258 519.5Q299 610 331.5 669Q364 728 389 757.5Q414 787 438 792Q442 793 449 793Q467 793 483 780Q497 767 511 741.5Q525 716 538.5 681.5Q552 647 563.5 605Q575 563 584 518Q593 468 600.5 401Q608 334 608 253Q608 197 603.5 135.5Q599 74 588 7Q586 -4 577.5 -11Q569 -18 558 -18Q545 -18 536.5 -9Q528 0 528 13V17Q539 82 543 142.5Q547 203 547 259Q506 256 455.5 249Q405 242 353.5 231Q302 220 254 204.5Q206 189 170 168Q138 93 105 21.5Q72 -50 39 -116ZM218 277Q215 271 212.5 264.5Q210 258 207 252Q252 269 301 281Q350 293 396.5 301Q443 309 482 313.5Q521 318 545 320Q541 401 529.5 469Q518 537 503.5 589.5Q489 642 473.5 678Q458 714 446 729Q442 726 435.5 718.5Q429 711 418.5 695.5Q408 680 393.5 655Q379 630 361 593Q329 529 292.5 448Q256 367 218 277Z" glyph-name="A.alt1" horiz-adv-x="717" /><glyph d="M55 -149Q53 -160 45 -166Q37 -172 26 -172Q11 -172 1.5 -160.5Q-8 -149 -4 -134Q5 -99 20 -55Q35 -11 54.5 38.5Q74 88 98 141.5Q122 195 149 249Q138 244 126 239.5Q114 235 103 230Q95 228 90 228Q82 228 74 233Q66 238 62 246Q57 257 62 269Q67 281 78 286Q135 311 189 328L231 406Q273 481 313 541.5Q353 602 389 646Q473 748 531 748Q533 748 536 747.5Q539 747 541 747Q562 744 574 730Q586 716 592 698Q598 680 599.5 661Q601 642 602 630Q604 588 601.5 533Q599 478 595 412Q590 315 585.5 201Q581 87 588 -33Q589 -46 581 -55.5Q573 -65 559 -65Q546 -65 537 -57Q528 -49 527 -36Q522 55 523.5 142.5Q525 230 529 311Q464 313 390 307Q316 301 230 276Q200 217 172.5 158Q145 99 122 43.5Q99 -12 82 -61Q65 -110 55 -149ZM269 349Q344 366 409 369.5Q474 373 532 371Q532 382 532.5 393Q533 404 534 415Q538 473 540 521Q542 569 541 607Q541 650 537 666.5Q533 683 531 687Q528 687 520.5 684Q513 681 501.5 673Q490 665 474 649Q458 633 436 607Q402 565 363.5 506.5Q325 448 284 376Z" glyph-name="A.alt2" horiz-adv-x="714" /><glyph d="M980 -132Q977 -133 957.5 -140Q938 -147 908 -154.5Q878 -162 840.5 -168Q803 -174 765 -174Q739 -174 712 -171Q685 -168 660.5 -157.5Q636 -147 616.5 -126.5Q597 -106 587 -71Q581 -52 580.5 -20Q580 12 583 52.5Q586 93 591 140.5Q596 188 602 239Q512 224 435.5 206Q359 188 300.5 171Q242 154 203.5 140.5Q165 127 150 121Q128 64 114.5 9.5Q101 -45 95 -99Q94 -112 84.5 -120Q75 -128 62 -126Q49 -124 41 -114.5Q33 -105 35 -92Q47 25 97 153Q97 154 97.5 155Q98 156 98 157Q117 204 143 257Q180 332 227 405Q274 478 332 549Q378 606 427 658Q476 710 524 751Q620 833 659 833H664Q669 833 684 836Q713 840 768 846.5Q823 853 888 856.5Q953 860 1021 857Q1089 854 1143 839Q1155 836 1161 825Q1167 814 1164 802Q1161 790 1150 783.5Q1139 777 1127 781Q1080 794 1020 796.5Q960 799 901 796.5Q842 794 789.5 788Q737 782 705 778Q708 756 708 723.5Q708 691 705 644Q702 597 696 534.5Q690 472 681 391Q679 371 676.5 351Q674 331 672 311Q742 319 817 324.5Q892 330 972 330Q985 330 994 321Q1003 312 1003 300Q1003 287 994 278Q985 269 972 269Q890 269 812.5 263.5Q735 258 663 248Q656 200 650 154.5Q644 109 640.5 70Q637 31 637 0.5Q637 -30 643 -48Q652 -78 681.5 -94Q711 -110 754 -113Q797 -116 850 -106.5Q903 -97 959 -75Q970 -70 981.5 -75.5Q993 -81 998 -93Q1003 -105 997.5 -116Q992 -127 980 -132ZM195 225Q192 218 188.5 211.5Q185 205 182 198Q213 209 257 222.5Q301 236 355.5 250Q410 264 473.5 277.5Q537 291 609 302Q612 326 615 350Q618 374 620 397Q628 469 634.5 534.5Q641 600 644 653Q648 701 647.5 727.5Q647 754 645 766Q629 757 601.5 736Q574 715 538.5 682.5Q503 650 460.5 605Q418 560 373 503Q319 434 274.5 365Q230 296 195 225Z" glyph-name="AE" horiz-adv-x="1145" unicode="&#198;" /><glyph d="M980 -132Q977 -133 957.5 -140Q938 -147 908 -154.5Q878 -162 840.5 -168Q803 -174 765 -174Q739 -174 712 -171Q685 -168 660.5 -157.5Q636 -147 616.5 -126.5Q597 -106 587 -71Q581 -52 580.5 -20Q580 12 583 52.5Q586 93 591 140.5Q596 188 602 239Q512 224 435.5 206Q359 188 300.5 171Q242 154 203.5 140.5Q165 127 150 121Q128 64 114.5 9.5Q101 -45 95 -99Q94 -112 84.5 -120Q75 -128 62 -126Q49 -124 41 -114.5Q33 -105 35 -92Q47 25 97 153Q97 154 97.5 155Q98 156 98 157Q117 204 143 257Q180 332 227 405Q274 478 332 549Q378 606 427 658Q476 710 524 751Q620 833 659 833H664Q669 833 684 836Q713 840 768 846.5Q823 853 888 856.5Q953 860 1021 857Q1089 854 1143 839Q1155 836 1161 825Q1167 814 1164 802Q1161 790 1150 783.5Q1139 777 1127 781Q1080 794 1020 796.5Q960 799 901 796.5Q842 794 789.5 788Q737 782 705 778Q708 756 708 723.5Q708 691 705 644Q702 597 696 534.5Q690 472 681 391Q679 371 676.5 351Q674 331 672 311Q742 319 817 324.5Q892 330 972 330Q985 330 994 321Q1003 312 1003 300Q1003 287 994 278Q985 269 972 269Q890 269 812.5 263.5Q735 258 663 248Q656 200 650 154.5Q644 109 640.5 70Q637 31 637 0.5Q637 -30 643 -48Q652 -78 681.5 -94Q711 -110 754 -113Q797 -116 850 -106.5Q903 -97 959 -75Q970 -70 981.5 -75.5Q993 -81 998 -93Q1003 -105 997.5 -116Q992 -127 980 -132ZM195 225Q192 218 188.5 211.5Q185 205 182 198Q213 209 257 222.5Q301 236 355.5 250Q410 264 473.5 277.5Q537 291 609 302Q612 326 615 350Q618 374 620 397Q628 469 634.5 534.5Q641 600 644 653Q648 701 647.5 727.5Q647 754 645 766Q629 757 601.5 736Q574 715 538.5 682.5Q503 650 460.5 605Q418 560 373 503Q319 434 274.5 365Q230 296 195 225Z" glyph-name="AE.alt1" horiz-adv-x="1145" /><glyph d="M980 -132Q977 -133 957.5 -140Q938 -147 908 -154.5Q878 -162 840.5 -168Q803 -174 765 -174Q739 -174 712 -171Q685 -168 660.5 -157.5Q636 -147 616.5 -126.5Q597 -106 587 -71Q581 -52 580.5 -20Q580 12 583 52.5Q586 93 591 140.5Q596 188 602 239Q512 224 435.5 206Q359 188 300.5 171Q242 154 203.5 140.5Q165 127 150 121Q128 64 114.5 9.5Q101 -45 95 -99Q94 -112 84.5 -120Q75 -128 62 -126Q49 -124 41 -114.5Q33 -105 35 -92Q47 25 97 153Q97 154 97.5 155Q98 156 98 157Q117 204 143 257Q180 332 227 405Q274 478 332 549Q378 606 427 658Q476 710 524 751Q620 833 659 833H664Q669 833 684 836Q713 840 768 846.5Q823 853 888 856.5Q953 860 1021 857Q1089 854 1143 839Q1155 836 1161 825Q1167 814 1164 802Q1161 790 1150 783.5Q1139 777 1127 781Q1080 794 1020 796.5Q960 799 901 796.5Q842 794 789.5 788Q737 782 705 778Q708 756 708 723.5Q708 691 705 644Q702 597 696 534.5Q690 472 681 391Q679 371 676.5 351Q674 331 672 311Q742 319 817 324.5Q892 330 972 330Q985 330 994 321Q1003 312 1003 300Q1003 287 994 278Q985 269 972 269Q890 269 812.5 263.5Q735 258 663 248Q656 200 650 154.5Q644 109 640.5 70Q637 31 637 0.5Q637 -30 643 -48Q652 -78 681.5 -94Q711 -110 754 -113Q797 -116 850 -106.5Q903 -97 959 -75Q970 -70 981.5 -75.5Q993 -81 998 -93Q1003 -105 997.5 -116Q992 -127 980 -132ZM195 225Q192 218 188.5 211.5Q185 205 182 198Q213 209 257 222.5Q301 236 355.5 250Q410 264 473.5 277.5Q537 291 609 302Q612 326 615 350Q618 374 620 397Q628 469 634.5 534.5Q641 600 644 653Q648 701 647.5 727.5Q647 754 645 766Q629 757 601.5 736Q574 715 538.5 682.5Q503 650 460.5 605Q418 560 373 503Q319 434 274.5 365Q230 296 195 225Z" glyph-name="AE.alt2" horiz-adv-x="1145" /><glyph d="M653 -177Q653 -189 643 -198Q633 -207 623 -207Q612 -207 603.5 -199.5Q595 -192 593 -181Q588 -157 586.5 -127.5Q585 -98 585 -63Q585 3 590.5 81.5Q596 160 604 242Q519 240 443.5 224.5Q368 209 308 189Q248 169 207 150Q166 131 150 122Q129 65 115 10Q101 -45 95 -99Q94 -111 85.5 -118.5Q77 -126 66 -126Q56 -126 45.5 -118Q35 -110 35 -96V-92Q42 -31 56.5 25Q71 81 87.5 127Q104 173 119.5 206.5Q135 240 143 257Q179 331 226.5 404.5Q274 478 332 549Q378 606 427 658Q476 710 524 751Q620 833 659 833Q677 833 689 819Q700 808 704.5 785.5Q709 763 709 724Q709 674 701.5 594Q694 514 681 391Q675 332 668.5 270.5Q662 209 657 150Q652 91 649 36Q646 -19 646 -66Q646 -97 647.5 -123.5Q649 -150 653 -171ZM195 225Q193 220 191 216.5Q189 213 187 208Q220 222 264.5 238.5Q309 255 363 269Q417 283 479.5 292.5Q542 302 610 303Q613 327 615.5 350.5Q618 374 620 397Q628 469 634.5 534.5Q641 600 644 653Q647 698 647 724Q647 739 646.5 749Q646 759 645 766Q629 757 601.5 736Q574 715 538.5 682.5Q503 650 460.5 605Q418 560 373 503Q319 434 274.5 365Q230 296 195 225ZM582 881Q580 881 579 880.5Q578 880 576 880Q565 880 556.5 886.5Q548 893 546 904Q543 917 550 927.5Q557 938 569 941Q610 949 636 969Q662 989 678 1006Q686 1016 699 1016Q712 1016 721 1008Q730 999 730.5 986.5Q731 974 723 965Q717 959 705 947.5Q693 936 675.5 923Q658 910 634.5 898.5Q611 887 582 881Z" glyph-name="Aacute" horiz-adv-x="791" unicode="&#193;" /><glyph d="M39 -116Q31 -133 12 -133Q3 -133 -2 -129Q-19 -121 -19 -103Q-19 -99 -18 -96Q-17 -93 -15 -89Q29 -1 73.5 99.5Q118 200 162 302Q217 429 258 519.5Q299 610 331.5 669Q364 728 389 757.5Q414 787 438 792Q442 793 449 793Q467 793 483 780Q497 767 511 741.5Q525 716 538.5 681.5Q552 647 563.5 605Q575 563 584 518Q593 468 600.5 401Q608 334 608 253Q608 197 603.5 135.5Q599 74 588 7Q586 -4 577.5 -11Q569 -18 558 -18Q545 -18 536.5 -9Q528 0 528 13V17Q539 82 543 142.5Q547 203 547 259Q506 256 455.5 249Q405 242 353.5 231Q302 220 254 204.5Q206 189 170 168Q138 93 105 21.5Q72 -50 39 -116ZM218 277Q215 271 212.5 264.5Q210 258 207 252Q252 269 301 281Q350 293 396.5 301Q443 309 482 313.5Q521 318 545 320Q541 401 529.5 469Q518 537 503.5 589.5Q489 642 473.5 678Q458 714 446 729Q442 726 435.5 718.5Q429 711 418.5 695.5Q408 680 393.5 655Q379 630 361 593Q329 529 292.5 448Q256 367 218 277ZM402 842Q400 842 399 841.5Q398 841 396 841Q385 841 376.5 847.5Q368 854 366 865Q363 878 370 888.5Q377 899 389 902Q430 910 456 930Q482 950 498 967Q506 977 519 977Q532 977 541 969Q550 960 550.5 947.5Q551 935 543 926Q537 920 525 908.5Q513 897 495.5 884Q478 871 454.5 859.5Q431 848 402 842Z" glyph-name="Aacute.alt1" horiz-adv-x="717" /><glyph d="M55 -149Q53 -160 45 -166Q37 -172 26 -172Q11 -172 1.5 -160.5Q-8 -149 -4 -134Q5 -99 20 -55Q35 -11 54.5 38.5Q74 88 98 141.5Q122 195 149 249Q138 244 126 239.5Q114 235 103 230Q95 228 90 228Q82 228 74 233Q66 238 62 246Q57 257 62 269Q67 281 78 286Q135 311 189 328L231 406Q273 481 313 541.5Q353 602 389 646Q473 748 531 748Q533 748 536 747.5Q539 747 541 747Q562 744 574 730Q586 716 592 698Q598 680 599.5 661Q601 642 602 630Q604 588 601.5 533Q599 478 595 412Q590 315 585.5 201Q581 87 588 -33Q589 -46 581 -55.5Q573 -65 559 -65Q546 -65 537 -57Q528 -49 527 -36Q522 55 523.5 142.5Q525 230 529 311Q464 313 390 307Q316 301 230 276Q200 217 172.5 158Q145 99 122 43.5Q99 -12 82 -61Q65 -110 55 -149ZM269 349Q344 366 409 369.5Q474 373 532 371Q532 382 532.5 393Q533 404 534 415Q538 473 540 521Q542 569 541 607Q541 650 537 666.5Q533 683 531 687Q528 687 520.5 684Q513 681 501.5 673Q490 665 474 649Q458 633 436 607Q402 565 363.5 506.5Q325 448 284 376ZM487 796Q485 796 484 795.5Q483 795 481 795Q470 795 461.5 801.5Q453 808 451 819Q448 832 455 842.5Q462 853 474 856Q515 864 541 884Q567 904 583 921Q591 931 604 931Q617 931 626 923Q635 914 635.5 901.5Q636 889 628 880Q622 874 610 862.5Q598 851 580.5 838Q563 825 539.5 813.5Q516 802 487 796Z" glyph-name="Aacute.alt2" horiz-adv-x="714" /><glyph d="M653 -177Q653 -189 643 -198Q633 -207 623 -207Q612 -207 603.5 -199.5Q595 -192 593 -181Q588 -157 586.5 -127.5Q585 -98 585 -63Q585 3 590.5 81.5Q596 160 604 242Q519 240 443.5 224.5Q368 209 308 189Q248 169 207 150Q166 131 150 122Q129 65 115 10Q101 -45 95 -99Q94 -111 85.5 -118.5Q77 -126 66 -126Q56 -126 45.5 -118Q35 -110 35 -96V-92Q42 -31 56.5 25Q71 81 87.5 127Q104 173 119.5 206.5Q135 240 143 257Q179 331 226.5 404.5Q274 478 332 549Q378 606 427 658Q476 710 524 751Q620 833 659 833Q677 833 689 819Q700 808 704.5 785.5Q709 763 709 724Q709 674 701.5 594Q694 514 681 391Q675 332 668.5 270.5Q662 209 657 150Q652 91 649 36Q646 -19 646 -66Q646 -97 647.5 -123.5Q649 -150 653 -171ZM195 225Q193 220 191 216.5Q189 213 187 208Q220 222 264.5 238.5Q309 255 363 269Q417 283 479.5 292.5Q542 302 610 303Q613 327 615.5 350.5Q618 374 620 397Q628 469 634.5 534.5Q641 600 644 653Q647 698 647 724Q647 739 646.5 749Q646 759 645 766Q629 757 601.5 736Q574 715 538.5 682.5Q503 650 460.5 605Q418 560 373 503Q319 434 274.5 365Q230 296 195 225ZM761 877Q755 872 744 872Q729 872 719 885Q702 909 683.5 929.5Q665 950 656 955Q653 954 646.5 951.5Q640 949 629 941.5Q618 934 600.5 920.5Q583 907 559 886Q550 877 537 878Q524 879 516 888Q508 898 508.5 910.5Q509 923 519 931Q569 976 601 995.5Q633 1015 656 1016Q673 1017 692.5 1004.5Q712 992 735 964Q749 947 759 933.5Q769 920 769 919Q777 908 774.5 896Q772 884 761 877Z" glyph-name="Acircumflex" horiz-adv-x="791" unicode="&#194;" /><glyph d="M39 -116Q31 -133 12 -133Q3 -133 -2 -129Q-19 -121 -19 -103Q-19 -99 -18 -96Q-17 -93 -15 -89Q29 -1 73.5 99.5Q118 200 162 302Q217 429 258 519.5Q299 610 331.5 669Q364 728 389 757.5Q414 787 438 792Q442 793 449 793Q467 793 483 780Q497 767 511 741.5Q525 716 538.5 681.5Q552 647 563.5 605Q575 563 584 518Q593 468 600.5 401Q608 334 608 253Q608 197 603.5 135.5Q599 74 588 7Q586 -4 577.5 -11Q569 -18 558 -18Q545 -18 536.5 -9Q528 0 528 13V17Q539 82 543 142.5Q547 203 547 259Q506 256 455.5 249Q405 242 353.5 231Q302 220 254 204.5Q206 189 170 168Q138 93 105 21.5Q72 -50 39 -116ZM218 277Q215 271 212.5 264.5Q210 258 207 252Q252 269 301 281Q350 293 396.5 301Q443 309 482 313.5Q521 318 545 320Q541 401 529.5 469Q518 537 503.5 589.5Q489 642 473.5 678Q458 714 446 729Q442 726 435.5 718.5Q429 711 418.5 695.5Q408 680 393.5 655Q379 630 361 593Q329 529 292.5 448Q256 367 218 277ZM581 838Q575 833 564 833Q549 833 539 846Q522 870 503.5 890.5Q485 911 476 916Q473 915 466.5 912.5Q460 910 449 902.5Q438 895 420.5 881.5Q403 868 379 847Q370 838 357 839Q344 840 336 849Q328 859 328.5 871.5Q329 884 339 892Q389 937 421 956.5Q453 976 476 977Q493 978 512.5 965.5Q532 953 555 925Q569 908 579 894.5Q589 881 589 880Q597 869 594.5 857Q592 845 581 838Z" glyph-name="Acircumflex.alt1" horiz-adv-x="717" /><glyph d="M55 -149Q53 -160 45 -166Q37 -172 26 -172Q11 -172 1.5 -160.5Q-8 -149 -4 -134Q5 -99 20 -55Q35 -11 54.5 38.5Q74 88 98 141.5Q122 195 149 249Q138 244 126 239.5Q114 235 103 230Q95 228 90 228Q82 228 74 233Q66 238 62 246Q57 257 62 269Q67 281 78 286Q135 311 189 328L231 406Q273 481 313 541.5Q353 602 389 646Q473 748 531 748Q533 748 536 747.5Q539 747 541 747Q562 744 574 730Q586 716 592 698Q598 680 599.5 661Q601 642 602 630Q604 588 601.5 533Q599 478 595 412Q590 315 585.5 201Q581 87 588 -33Q589 -46 581 -55.5Q573 -65 559 -65Q546 -65 537 -57Q528 -49 527 -36Q522 55 523.5 142.5Q525 230 529 311Q464 313 390 307Q316 301 230 276Q200 217 172.5 158Q145 99 122 43.5Q99 -12 82 -61Q65 -110 55 -149ZM269 349Q344 366 409 369.5Q474 373 532 371Q532 382 532.5 393Q533 404 534 415Q538 473 540 521Q542 569 541 607Q541 650 537 666.5Q533 683 531 687Q528 687 520.5 684Q513 681 501.5 673Q490 665 474 649Q458 633 436 607Q402 565 363.5 506.5Q325 448 284 376ZM666 792Q660 787 649 787Q634 787 624 800Q607 824 588.5 844.5Q570 865 561 870Q558 869 551.5 866.5Q545 864 534 856.5Q523 849 505.5 835.5Q488 822 464 801Q455 792 442 793Q429 794 421 803Q413 813 413.5 825.5Q414 838 424 846Q474 891 506 910.5Q538 930 561 931Q578 932 597.5 919.5Q617 907 640 879Q654 862 664 848.5Q674 835 674 834Q682 823 679.5 811Q677 799 666 792Z" glyph-name="Acircumflex.alt2" horiz-adv-x="714" /><glyph d="M653 -177Q653 -189 643 -198Q633 -207 623 -207Q612 -207 603.5 -199.5Q595 -192 593 -181Q588 -157 586.5 -127.5Q585 -98 585 -63Q585 3 590.5 81.5Q596 160 604 242Q519 240 443.5 224.5Q368 209 308 189Q248 169 207 150Q166 131 150 122Q129 65 115 10Q101 -45 95 -99Q94 -111 85.5 -118.5Q77 -126 66 -126Q56 -126 45.5 -118Q35 -110 35 -96V-92Q42 -31 56.5 25Q71 81 87.5 127Q104 173 119.5 206.5Q135 240 143 257Q179 331 226.5 404.5Q274 478 332 549Q378 606 427 658Q476 710 524 751Q620 833 659 833Q677 833 689 819Q700 808 704.5 785.5Q709 763 709 724Q709 674 701.5 594Q694 514 681 391Q675 332 668.5 270.5Q662 209 657 150Q652 91 649 36Q646 -19 646 -66Q646 -97 647.5 -123.5Q649 -150 653 -171ZM195 225Q193 220 191 216.5Q189 213 187 208Q220 222 264.5 238.5Q309 255 363 269Q417 283 479.5 292.5Q542 302 610 303Q613 327 615.5 350.5Q618 374 620 397Q628 469 634.5 534.5Q641 600 644 653Q647 698 647 724Q647 739 646.5 749Q646 759 645 766Q629 757 601.5 736Q574 715 538.5 682.5Q503 650 460.5 605Q418 560 373 503Q319 434 274.5 365Q230 296 195 225ZM746 915Q738 910 727 910Q717 910 710 915Q705 918 701 924Q697 927 696 932Q694 937 694 942.5Q694 948 694 953Q695 964 702.5 972Q710 980 721 982Q734 984 746 975Q749 973 752.5 971.5Q756 970 759 967Q767 959 767.5 947Q768 935 761 926Q759 924 755.5 920.5Q752 917 746 915ZM604 914Q599 912 594.5 908Q590 904 576 904Q572 904 564 906Q557 908 553 912.5Q549 917 544 922Q536 937 543 952L550 965Q555 976 567 980Q579 984 590 979Q604 973 610.5 966Q617 959 620 949Q622 938 617.5 928.5Q613 919 604 914Z" glyph-name="Adieresis" horiz-adv-x="791" unicode="&#196;" /><glyph d="M39 -116Q31 -133 12 -133Q3 -133 -2 -129Q-19 -121 -19 -103Q-19 -99 -18 -96Q-17 -93 -15 -89Q29 -1 73.5 99.5Q118 200 162 302Q217 429 258 519.5Q299 610 331.5 669Q364 728 389 757.5Q414 787 438 792Q442 793 449 793Q467 793 483 780Q497 767 511 741.5Q525 716 538.5 681.5Q552 647 563.5 605Q575 563 584 518Q593 468 600.5 401Q608 334 608 253Q608 197 603.5 135.5Q599 74 588 7Q586 -4 577.5 -11Q569 -18 558 -18Q545 -18 536.5 -9Q528 0 528 13V17Q539 82 543 142.5Q547 203 547 259Q506 256 455.5 249Q405 242 353.5 231Q302 220 254 204.5Q206 189 170 168Q138 93 105 21.5Q72 -50 39 -116ZM218 277Q215 271 212.5 264.5Q210 258 207 252Q252 269 301 281Q350 293 396.5 301Q443 309 482 313.5Q521 318 545 320Q541 401 529.5 469Q518 537 503.5 589.5Q489 642 473.5 678Q458 714 446 729Q442 726 435.5 718.5Q429 711 418.5 695.5Q408 680 393.5 655Q379 630 361 593Q329 529 292.5 448Q256 367 218 277ZM566 876Q558 871 547 871Q537 871 530 876Q525 879 521 885Q517 888 516 893Q514 898 514 903.5Q514 909 514 914Q515 925 522.5 933Q530 941 541 943Q554 945 566 936Q569 934 572.5 932.5Q576 931 579 928Q587 920 587.5 908Q588 896 581 887Q579 885 575.5 881.5Q572 878 566 876ZM424 875Q419 873 414.5 869Q410 865 396 865Q392 865 384 867Q377 869 373 873.5Q369 878 364 883Q356 898 363 913L370 926Q375 937 387 941Q399 945 410 940Q424 934 430.5 927Q437 920 440 910Q442 899 437.5 889.5Q433 880 424 875Z" glyph-name="Adieresis.alt1" horiz-adv-x="717" /><glyph d="M55 -149Q53 -160 45 -166Q37 -172 26 -172Q11 -172 1.5 -160.5Q-8 -149 -4 -134Q5 -99 20 -55Q35 -11 54.5 38.5Q74 88 98 141.5Q122 195 149 249Q138 244 126 239.5Q114 235 103 230Q95 228 90 228Q82 228 74 233Q66 238 62 246Q57 257 62 269Q67 281 78 286Q135 311 189 328L231 406Q273 481 313 541.5Q353 602 389 646Q473 748 531 748Q533 748 536 747.5Q539 747 541 747Q562 744 574 730Q586 716 592 698Q598 680 599.5 661Q601 642 602 630Q604 588 601.5 533Q599 478 595 412Q590 315 585.5 201Q581 87 588 -33Q589 -46 581 -55.5Q573 -65 559 -65Q546 -65 537 -57Q528 -49 527 -36Q522 55 523.5 142.5Q525 230 529 311Q464 313 390 307Q316 301 230 276Q200 217 172.5 158Q145 99 122 43.5Q99 -12 82 -61Q65 -110 55 -149ZM269 349Q344 366 409 369.5Q474 373 532 371Q532 382 532.5 393Q533 404 534 415Q538 473 540 521Q542 569 541 607Q541 650 537 666.5Q533 683 531 687Q528 687 520.5 684Q513 681 501.5 673Q490 665 474 649Q458 633 436 607Q402 565 363.5 506.5Q325 448 284 376ZM651 830Q643 825 632 825Q622 825 615 830Q610 833 606 839Q602 842 601 847Q599 852 599 857.5Q599 863 599 868Q600 879 607.5 887Q615 895 626 897Q639 899 651 890Q654 888 657.5 886.5Q661 885 664 882Q672 874 672.5 862Q673 850 666 841Q664 839 660.5 835.5Q657 832 651 830ZM509 829Q504 827 499.5 823Q495 819 481 819Q477 819 469 821Q462 823 458 827.5Q454 832 449 837Q441 852 448 867L455 880Q460 891 472 895Q484 899 495 894Q509 888 515.5 881Q522 874 525 864Q527 853 522.5 843.5Q518 834 509 829Z" glyph-name="Adieresis.alt2" horiz-adv-x="714" /><glyph d="M653 -177Q653 -189 643 -198Q633 -207 623 -207Q612 -207 603.5 -199.5Q595 -192 593 -181Q588 -157 586.5 -127.5Q585 -98 585 -63Q585 3 590.5 81.5Q596 160 604 242Q519 240 443.5 224.5Q368 209 308 189Q248 169 207 150Q166 131 150 122Q129 65 115 10Q101 -45 95 -99Q94 -111 85.5 -118.5Q77 -126 66 -126Q56 -126 45.5 -118Q35 -110 35 -96V-92Q42 -31 56.5 25Q71 81 87.5 127Q104 173 119.5 206.5Q135 240 143 257Q179 331 226.5 404.5Q274 478 332 549Q378 606 427 658Q476 710 524 751Q620 833 659 833Q677 833 689 819Q700 808 704.5 785.5Q709 763 709 724Q709 674 701.5 594Q694 514 681 391Q675 332 668.5 270.5Q662 209 657 150Q652 91 649 36Q646 -19 646 -66Q646 -97 647.5 -123.5Q649 -150 653 -171ZM195 225Q193 220 191 216.5Q189 213 187 208Q220 222 264.5 238.5Q309 255 363 269Q417 283 479.5 292.5Q542 302 610 303Q613 327 615.5 350.5Q618 374 620 397Q628 469 634.5 534.5Q641 600 644 653Q647 698 647 724Q647 739 646.5 749Q646 759 645 766Q629 757 601.5 736Q574 715 538.5 682.5Q503 650 460.5 605Q418 560 373 503Q319 434 274.5 365Q230 296 195 225ZM748 896Q746 885 737.5 877.5Q729 870 718 870Q716 870 715 870.5Q714 871 713 871Q656 881 615.5 913Q575 945 553 996Q548 1008 553 1019.5Q558 1031 569 1036Q581 1041 592.5 1036Q604 1031 609 1020Q641 946 723 931Q736 929 743 918.5Q750 908 748 896Z" glyph-name="Agrave" horiz-adv-x="791" unicode="&#192;" /><glyph d="M39 -116Q31 -133 12 -133Q3 -133 -2 -129Q-19 -121 -19 -103Q-19 -99 -18 -96Q-17 -93 -15 -89Q29 -1 73.5 99.5Q118 200 162 302Q217 429 258 519.5Q299 610 331.5 669Q364 728 389 757.5Q414 787 438 792Q442 793 449 793Q467 793 483 780Q497 767 511 741.5Q525 716 538.5 681.5Q552 647 563.5 605Q575 563 584 518Q593 468 600.5 401Q608 334 608 253Q608 197 603.5 135.5Q599 74 588 7Q586 -4 577.5 -11Q569 -18 558 -18Q545 -18 536.5 -9Q528 0 528 13V17Q539 82 543 142.5Q547 203 547 259Q506 256 455.5 249Q405 242 353.5 231Q302 220 254 204.5Q206 189 170 168Q138 93 105 21.5Q72 -50 39 -116ZM218 277Q215 271 212.5 264.5Q210 258 207 252Q252 269 301 281Q350 293 396.5 301Q443 309 482 313.5Q521 318 545 320Q541 401 529.5 469Q518 537 503.5 589.5Q489 642 473.5 678Q458 714 446 729Q442 726 435.5 718.5Q429 711 418.5 695.5Q408 680 393.5 655Q379 630 361 593Q329 529 292.5 448Q256 367 218 277ZM568 857Q566 846 557.5 838.5Q549 831 538 831Q536 831 535 831.5Q534 832 533 832Q476 842 435.5 874Q395 906 373 957Q368 969 373 980.5Q378 992 389 997Q401 1002 412.5 997Q424 992 429 981Q461 907 543 892Q556 890 563 879.5Q570 869 568 857Z" glyph-name="Agrave.alt1" horiz-adv-x="717" /><glyph d="M55 -149Q53 -160 45 -166Q37 -172 26 -172Q11 -172 1.5 -160.5Q-8 -149 -4 -134Q5 -99 20 -55Q35 -11 54.5 38.5Q74 88 98 141.5Q122 195 149 249Q138 244 126 239.5Q114 235 103 230Q95 228 90 228Q82 228 74 233Q66 238 62 246Q57 257 62 269Q67 281 78 286Q135 311 189 328L231 406Q273 481 313 541.5Q353 602 389 646Q473 748 531 748Q533 748 536 747.5Q539 747 541 747Q562 744 574 730Q586 716 592 698Q598 680 599.5 661Q601 642 602 630Q604 588 601.5 533Q599 478 595 412Q590 315 585.5 201Q581 87 588 -33Q589 -46 581 -55.5Q573 -65 559 -65Q546 -65 537 -57Q528 -49 527 -36Q522 55 523.5 142.5Q525 230 529 311Q464 313 390 307Q316 301 230 276Q200 217 172.5 158Q145 99 122 43.5Q99 -12 82 -61Q65 -110 55 -149ZM269 349Q344 366 409 369.5Q474 373 532 371Q532 382 532.5 393Q533 404 534 415Q538 473 540 521Q542 569 541 607Q541 650 537 666.5Q533 683 531 687Q528 687 520.5 684Q513 681 501.5 673Q490 665 474 649Q458 633 436 607Q402 565 363.5 506.5Q325 448 284 376ZM653 811Q651 800 642.5 792.5Q634 785 623 785Q621 785 620 785.5Q619 786 618 786Q561 796 520.5 828Q480 860 458 911Q453 923 458 934.5Q463 946 474 951Q486 956 497.5 951Q509 946 514 935Q546 861 628 846Q641 844 648 833.5Q655 823 653 811Z" glyph-name="Agrave.alt2" horiz-adv-x="714" /><glyph d="M281 -216Q205 -216 125 -193Q113 -189 107 -178Q101 -167 105 -155Q108 -143 119 -136.5Q130 -130 143 -134Q202 -151 260.5 -154Q319 -157 375 -145Q423 -134 464 -113Q505 -92 536 -63Q569 -32 584 2Q599 36 592 66Q586 92 561 104Q547 110 527 112.5Q507 115 483.5 113Q460 111 434 104.5Q408 98 383 86Q379 84 375.5 82.5Q372 81 368 79Q357 73 345 77Q333 81 328 92Q322 103 325.5 115Q329 127 340 133Q344 135 347 136.5Q350 138 354 140Q453 190 535.5 251.5Q618 313 676 380Q734 446 759.5 509Q785 572 776 625Q771 655 742 681Q713 707 665 725Q618 743 559 748.5Q500 754 437.5 745.5Q375 737 314 712.5Q253 688 201 645Q191 637 178.5 638Q166 639 158 649Q150 659 151 671.5Q152 684 162 692Q217 738 285 766.5Q353 795 430 806Q498 815 564 809Q630 803 687 782Q750 759 789.5 720.5Q829 682 837 635Q848 568 819 493Q790 418 722 340Q684 295 636 253.5Q588 212 531 173Q559 172 586 159Q638 135 652 79Q662 32 642.5 -16.5Q623 -65 578 -108Q541 -143 492 -167.5Q443 -192 388 -204Q335 -216 281 -216ZM160 -80Q147 -78 140 -67.5Q133 -57 135 -45Q145 17 160.5 101.5Q176 186 195.5 276Q215 366 238 454Q261 542 286 612Q291 624 302 629.5Q313 635 325 631Q337 626 342.5 614.5Q348 603 343 592Q326 545 310 487.5Q294 430 279.5 369.5Q265 309 252 247.5Q239 186 228 129.5Q217 73 208.5 25.5Q200 -22 195 -55Q193 -66 184.5 -73Q176 -80 165 -80Z" glyph-name="B" horiz-adv-x="779" unicode="B" /><glyph d="M115 -200Q102 -200 93 -191Q84 -182 84 -169Q84 -156 93 -147.5Q102 -139 115 -139Q180 -139 244.5 -125Q309 -111 366.5 -85.5Q424 -60 471.5 -25Q519 10 551 52Q561 65 570.5 81.5Q580 98 586 116.5Q592 135 593 156Q594 177 588 198Q582 220 555 229Q528 238 493.5 239Q459 240 423.5 234.5Q388 229 363 222Q352 219 341.5 224.5Q331 230 327 241Q322 252 327 263Q332 274 343 279Q407 307 456 336.5Q505 366 541.5 394Q578 422 603 447.5Q628 473 645 494Q684 543 697 588Q710 633 696 666Q675 715 608 725Q564 732 514.5 724.5Q465 717 421.5 703.5Q378 690 346 674.5Q314 659 304 650Q299 639 290 604Q281 569 269 517.5Q257 466 244 402Q231 338 218 270.5Q205 203 194 135.5Q183 68 175 9Q173 -4 163 -11.5Q153 -19 141 -17Q128 -15 120.5 -5.5Q113 4 115 17Q126 97 145 205Q164 313 187 427Q198 478 208 521Q218 564 226 597Q233 626 238 643Q243 660 246.5 669.5Q250 679 252.5 682.5Q255 686 257 688Q266 698 282.5 708.5Q299 719 319 729Q339 739 360.5 747Q382 755 402 761Q419 766 444 772.5Q469 779 497.5 783.5Q526 788 557 789Q588 790 618 785Q718 770 752 690Q773 641 758 580Q743 519 693 456Q627 372 510 299Q545 297 569 288.5Q593 280 609 268.5Q625 257 633.5 243Q642 229 646 216Q675 117 600 16Q566 -30 514.5 -69Q463 -108 400 -137Q333 -168 260.5 -184Q188 -200 115 -200Z" glyph-name="B.alt1" horiz-adv-x="709" /><glyph d="M295 -150Q278 -150 268 -134Q262 -123 265.5 -111Q269 -99 280 -93Q280 -93 294 -85Q308 -77 330 -63Q352 -49 380 -28.5Q408 -8 437 17Q462 39 489 67Q516 95 538.5 126.5Q561 158 576 192.5Q591 227 593 263Q597 329 562 360Q546 374 525 379.5Q504 385 485 386Q466 387 453 385.5Q440 384 440 384Q430 382 421 386.5Q412 391 407 401Q402 410 404 420Q406 430 414 437Q414 437 423 445.5Q432 454 446.5 468Q461 482 478.5 501.5Q496 521 513 543Q555 597 571.5 638Q588 679 577 705Q565 734 523 743Q502 747 479 744.5Q456 742 434 736Q412 730 393 720.5Q374 711 362 700Q352 661 338 602Q324 543 308 474Q292 405 275 330Q258 255 242 183Q226 111 211.5 47.5Q197 -16 187 -62Q185 -74 174 -81Q163 -88 151 -85Q139 -83 132 -72Q125 -61 128 -49Q138 -2 152.5 63Q167 128 183.5 201.5Q200 275 217.5 351.5Q235 428 251.5 498Q268 568 281.5 627Q295 686 305 724Q306 729 312 737Q329 755 355.5 769.5Q382 784 412.5 793Q443 802 474.5 805Q506 808 534 803Q609 789 634 727Q668 641 560 505Q547 488 534 473Q521 458 509 445Q532 442 556.5 433Q581 424 602 406Q659 357 654 260Q651 204 625.5 153Q600 102 563 57.5Q526 13 483 -24Q440 -61 402.5 -87.5Q365 -114 338.5 -129Q312 -144 309 -146Q304 -150 295 -150Z" glyph-name="B.alt2" horiz-adv-x="691" /><glyph d="M250 -209Q207 -209 162 -192Q146 -186 127.5 -174Q109 -162 93.5 -140Q78 -118 67.5 -85Q57 -52 57 -4Q57 34 66 85Q75 136 93.5 191.5Q112 247 137.5 303.5Q163 360 195 414.5Q227 469 264 518Q349 631 437 691.5Q525 752 607 752Q637 752 653.5 740.5Q670 729 678 718Q702 683 692 623Q689 602 684.5 587.5Q680 573 679 572Q675 561 663.5 555Q652 549 640 554Q629 559 623 570.5Q617 582 622 593Q626 603 629 616Q632 629 633.5 641.5Q635 654 633.5 665.5Q632 677 628 683Q627 685 623 688Q619 691 607 691Q541 691 464.5 636Q388 581 313 481Q278 435 248 383.5Q218 332 193.5 279.5Q169 227 152 174.5Q135 122 126 74Q123 57 120.5 37Q118 17 118 -4Q118 -25 121 -45Q124 -65 131.5 -83Q139 -101 151.5 -114.5Q164 -128 183 -135Q200 -142 216.5 -144.5Q233 -147 249 -147Q290 -147 324.5 -129.5Q359 -112 385.5 -88.5Q412 -65 431 -40Q450 -15 460 0Q468 11 480 13.5Q492 16 503 8Q513 1 515.5 -11Q518 -23 510 -34Q391 -209 250 -209Z" glyph-name="C" horiz-adv-x="584" unicode="C" /><glyph d="M477 -152Q431 -177 386 -189Q341 -201 299 -201Q253 -201 211 -186Q167 -169 135 -137.5Q103 -106 86 -61Q71 -21 71 28Q71 78 82.5 129Q94 180 108 224Q135 306 178 392Q221 478 272 553Q297 589 332.5 633Q368 677 411.5 716Q455 755 504.5 781.5Q554 808 606 808Q616 808 629.5 806Q643 804 656.5 798.5Q670 793 682.5 782Q695 771 703 753Q710 737 712.5 720Q715 703 714 686Q713 669 709.5 652.5Q706 636 702 623Q691 591 675 560.5Q659 530 639 507Q631 497 618.5 496Q606 495 597 503Q587 511 586 523.5Q585 536 593 546Q608 564 621 589Q634 614 642.5 639.5Q651 665 653 688.5Q655 712 648 727Q646 731 638.5 739Q631 747 606 747Q576 747 542 731.5Q508 716 471.5 686.5Q435 657 397.5 615Q360 573 323 519Q273 447 232.5 365Q192 283 166 205Q149 154 141 109Q133 64 133 28Q133 -13 143 -39Q156 -71 178.5 -94.5Q201 -118 232 -129Q263 -140 299 -140Q334 -140 372 -129.5Q410 -119 448 -99Q459 -93 471 -96.5Q483 -100 489 -111Q495 -122 491.5 -134Q488 -146 477 -152Z" glyph-name="C.alt1" horiz-adv-x="618" /><glyph d="M612 -43Q476 -168 324 -168Q264 -168 220 -145.5Q176 -123 146.5 -84Q117 -45 103 8Q89 61 89 121Q89 150 92 180.5Q95 211 102 242Q123 340 170 429.5Q217 519 281.5 587Q346 655 423.5 695.5Q501 736 582 736Q592 736 601.5 736Q611 736 621 734Q681 726 712 686Q725 669 730.5 650.5Q736 632 738 616.5Q740 601 739 590Q738 579 738 576Q736 564 726 556.5Q716 549 704 551Q691 553 683.5 562.5Q676 572 678 585Q678 585 678.5 591.5Q679 598 678 607.5Q677 617 673.5 628Q670 639 663 649Q647 670 613 674Q605 675 597.5 675.5Q590 676 582 676Q499 676 417 625Q373 597 332.5 553.5Q292 510 258 457.5Q224 405 199 346.5Q174 288 162 230Q150 170 150 118Q150 16 195 -45.5Q240 -107 324 -107Q451 -107 571 2Q581 11 593.5 10.5Q606 10 614 0Q623 -9 622.5 -21.5Q622 -34 612 -43Z" glyph-name="C.alt2" horiz-adv-x="678" /><glyph glyph-name="CR" horiz-adv-x="325" unicode="" /><glyph d="M153 -390Q147 -393 140 -393Q121 -393 112 -376Q107 -365 111 -353Q115 -341 126 -336Q164 -317 188.5 -290.5Q213 -264 215 -241Q215 -237 212.5 -226.5Q210 -216 192 -205Q190 -204 186 -200Q180 -198 174 -196Q168 -194 162 -192Q146 -186 127.5 -174Q109 -162 93.5 -140Q78 -118 67.5 -85Q57 -52 57 -4Q57 34 66 85Q75 136 93.5 191.5Q112 247 137.5 303.5Q163 360 195 414.5Q227 469 264 518Q349 631 437 691.5Q525 752 607 752Q637 752 653.5 740.5Q670 729 678 718Q702 683 692 623Q689 602 684.5 587.5Q680 573 679 572Q675 561 663.5 555Q652 549 640 554Q629 559 623 570.5Q617 582 622 593Q626 603 629 616Q632 629 633.5 641.5Q635 654 633.5 665.5Q632 677 628 683Q627 685 623 688Q619 691 607 691Q541 691 464.5 636Q388 581 313 481Q278 435 248 383.5Q218 332 193.5 279.5Q169 227 152 174.5Q135 122 126 74Q123 57 120.5 37Q118 17 118 -4Q118 -25 121 -45Q124 -65 131.5 -83Q139 -101 151.5 -114.5Q164 -128 183 -135Q200 -142 216.5 -144.5Q233 -147 249 -147Q290 -147 324.5 -129.5Q359 -112 385.5 -88.5Q412 -65 431 -40Q450 -15 460 0Q468 11 480 13.5Q492 16 503 8Q513 1 515.5 -11Q518 -23 510 -34Q400 -196 270 -208Q276 -225 276 -244Q274 -285 240.5 -324.5Q207 -364 153 -390Z" glyph-name="Ccedilla" horiz-adv-x="584" unicode="&#199;" /><glyph d="M218 -396Q212 -399 205 -399Q186 -399 177 -382Q172 -371 176 -359Q180 -347 191 -342Q229 -323 253.5 -296.5Q278 -270 280 -247Q280 -243 277.5 -232.5Q275 -222 257 -211Q248 -205 245 -195Q228 -192 211 -186Q167 -169 135 -137.5Q103 -106 86 -61Q71 -21 71 28Q71 78 82.5 129Q94 180 108 224Q135 306 178 392Q221 478 272 553Q297 589 332.5 633Q368 677 411.5 716Q455 755 504.5 781.5Q554 808 606 808Q616 808 629.5 806Q643 804 656.5 798.5Q670 793 682.5 782Q695 771 703 753Q710 737 712.5 720Q715 703 714 686Q713 669 709.5 652.5Q706 636 702 623Q691 591 675 560.5Q659 530 639 507Q631 497 618.5 496Q606 495 597 503Q587 511 586 523.5Q585 536 593 546Q608 564 621 589Q634 614 642.5 639.5Q651 665 653 688.5Q655 712 648 727Q646 731 638.5 739Q631 747 606 747Q576 747 542 731.5Q508 716 471.5 686.5Q435 657 397.5 615Q360 573 323 519Q273 447 232.5 365Q192 283 166 205Q149 154 141 109Q133 64 133 28Q133 -13 143 -39Q156 -71 178.5 -94.5Q201 -118 232 -129Q263 -140 299 -140Q334 -140 372 -129.5Q410 -119 448 -99Q459 -93 471 -96.5Q483 -100 489 -111Q495 -122 491.5 -134Q488 -146 477 -152Q439 -172 401.5 -184Q364 -196 329 -200Q341 -223 341 -250Q339 -291 305.5 -330.5Q272 -370 218 -396Z" glyph-name="Ccedilla.alt1" horiz-adv-x="618" /><glyph d="M257 -362Q251 -365 244 -365Q225 -365 216 -348Q211 -337 215 -325Q219 -313 230 -308Q268 -289 292.5 -262.5Q317 -236 319 -213Q319 -209 316.5 -198.5Q314 -188 296 -177Q290 -173 285 -165Q235 -158 198 -133Q161 -108 137 -70Q113 -32 101 17Q89 66 89 121Q89 150 92 180.5Q95 211 102 242Q123 340 170 429.5Q217 519 281.5 587Q346 655 423.5 695.5Q501 736 582 736Q592 736 601.5 736Q611 736 621 734Q681 726 712 686Q725 669 730.5 650.5Q736 632 738 616.5Q740 601 739 590Q738 579 738 576Q736 564 726 556.5Q716 549 704 551Q691 553 683.5 562.5Q676 572 678 585Q678 585 678.5 591.5Q679 598 678 607.5Q677 617 673.5 628Q670 639 663 649Q647 670 613 674Q605 675 597.5 675.5Q590 676 582 676Q499 676 417 625Q373 597 332.5 553.5Q292 510 258 457.5Q224 405 199 346.5Q174 288 162 230Q150 170 150 118Q150 16 195 -45.5Q240 -107 324 -107Q451 -107 571 2Q581 11 593.5 10.5Q606 10 614 0Q623 -9 622.5 -21.5Q622 -34 612 -43Q496 -150 368 -165Q380 -189 380 -216Q378 -257 344.5 -296.5Q311 -336 257 -362Z" glyph-name="Ccedilla.alt2" horiz-adv-x="678" /><glyph d="M235 -207Q224 -207 215.5 -200Q207 -193 205 -182Q203 -170 209.5 -159.5Q216 -149 229 -146Q347 -122 458 -62Q569 -2 660 87Q753 178 807 282.5Q861 387 871 493Q872 502 872.5 510.5Q873 519 873 527Q873 584 854 628.5Q835 673 797 701Q771 720 731 734Q691 748 628 748Q571 748 495.5 733Q420 718 320 680Q315 675 304.5 654.5Q294 634 280 591Q266 548 249.5 479Q233 410 216 308Q197 199 191 113.5Q185 28 183 -24Q199 10 218 64Q237 118 253.5 179Q270 240 281 301.5Q292 363 293 412Q293 425 301.5 433.5Q310 442 323 442Q336 442 345 433Q354 424 353 411Q353 364 342.5 304.5Q332 245 316 184.5Q300 124 281.5 68.5Q263 13 247 -25Q227 -70 206.5 -88Q186 -106 162 -106Q158 -106 152.5 -105Q147 -104 141.5 -99.5Q136 -95 131 -87.5Q126 -80 123 -66Q119 -44 120.5 1.5Q122 47 127.5 104Q133 161 141.5 225Q150 289 161 349Q175 423 190 486Q205 549 219 597Q231 638 241.5 664Q252 690 262 705Q272 720 280 726.5Q288 733 296 736Q391 772 473.5 790Q556 808 625 809Q756 809 834 749Q883 712 908.5 655.5Q934 599 934 528Q934 518 933.5 508.5Q933 499 932 488Q921 370 862 256Q803 142 702 44Q605 -51 486.5 -115.5Q368 -180 241 -206Q239 -206 238 -206.5Q237 -207 235 -207Z" glyph-name="D" horiz-adv-x="934" unicode="D" /><glyph d="M70 -222Q68 -222 65.5 -222.5Q63 -223 61 -223Q39 -223 32 -201Q28 -189 34 -178Q40 -167 53 -163Q111 -146 171.5 -120.5Q232 -95 290.5 -63.5Q349 -32 405 4.5Q461 41 510 82Q552 116 597 161.5Q642 207 681.5 261.5Q721 316 750.5 380Q780 444 792 516Q794 530 795 542.5Q796 555 796 567Q796 669 719 716Q688 735 648 744.5Q608 754 562 754Q515 754 464.5 745Q414 736 362 718Q310 700 259 674Q208 648 161 614Q150 606 138 608Q126 610 118 621Q110 631 112.5 643Q115 655 125 663Q176 700 231.5 728Q287 756 343 775.5Q399 795 454.5 805Q510 815 561 815Q616 815 664.5 803.5Q713 792 751 768Q814 728 839 664Q857 620 857 567Q857 552 856 537Q855 522 852 506Q832 380 755 260.5Q678 141 549 35Q444 -51 319.5 -118Q195 -185 70 -222ZM151 -50Q149 -61 140.5 -67Q132 -73 122 -73Q117 -73 114 -72Q102 -69 95.5 -58.5Q89 -48 92 -36Q106 21 123 83Q140 145 157 208Q172 262 186 315Q200 368 212.5 417Q225 466 234 507.5Q243 549 248 580Q250 592 260 599.5Q270 607 283 605Q295 603 302.5 593Q310 583 308 571Q303 539 294 497Q285 455 272.5 406Q260 357 245.5 303Q231 249 215 192Q198 129 181.5 67.5Q165 6 151 -50Z" glyph-name="D.alt1" horiz-adv-x="847" /><glyph d="M573 10Q529 -25 479 -53Q429 -81 378.5 -101Q328 -121 278.5 -132Q229 -143 186 -143Q174 -143 165 -134.5Q156 -126 156 -114Q156 -101 164.5 -92Q173 -83 186 -82Q227 -81 271.5 -71Q316 -61 361.5 -43Q407 -25 451.5 0.5Q496 26 536 58Q629 131 683 223Q737 315 747 415Q748 424 748.5 432.5Q749 441 749 450Q749 528 716 596.5Q683 665 624 710Q547 770 450 770Q397 770 345 752Q324 705 305 635.5Q286 566 269.5 489Q253 412 239.5 336Q226 260 216 198.5Q206 137 200.5 98Q195 59 195 58Q193 45 183 37.5Q173 30 161 32Q148 34 140.5 43.5Q133 53 135 66Q135 71 141 114Q147 157 157.5 221.5Q168 286 182.5 365.5Q197 445 214.5 523.5Q232 602 252.5 672Q273 742 295 789Q301 800 312 805Q384 831 451 831Q464 831 477 830Q490 829 503 827Q590 813 661 758Q732 704 771 621.5Q810 539 810 448Q810 438 809.5 428.5Q809 419 808 409Q797 296 736.5 193.5Q676 91 573 10Z" glyph-name="D.alt2" horiz-adv-x="837" /><glyph d="M300 -225Q271 -234 241 -234Q185 -234 135 -202Q86 -173 60 -120Q34 -67 34 0Q34 9 34.5 18.5Q35 28 36 38Q44 101 73 163Q102 225 150 280Q194 331 250.5 371.5Q307 412 375 442Q319 478 289 529Q258 582 258 642Q258 652 259 662Q260 672 262 682Q268 718 285 748Q302 778 327 800Q352 822 383 834Q414 846 449 846Q518 846 560 786Q576 766 582.5 748.5Q589 731 590 729Q594 717 588 706Q582 695 570 691Q557 687 546.5 693Q536 699 532 711Q532 712 526.5 724.5Q521 737 510 752Q485 786 449 785Q426 785 404 777Q382 769 365 752Q331 720 322 671Q319 656 319 641Q319 618 326.5 593.5Q334 569 350.5 545.5Q367 522 394.5 501.5Q422 481 461 466Q470 463 475 455Q480 447 480 437Q480 428 474.5 420Q469 412 459 409Q378 382 311 339Q244 296 196 240Q154 192 128.5 138.5Q103 85 97 31Q96 23 95.5 15.5Q95 8 95 0Q95 -51 113.5 -90Q132 -129 167 -151Q188 -164 214 -169.5Q240 -175 268.5 -170Q297 -165 326 -148Q355 -131 381 -100Q389 -90 401.5 -89.5Q414 -89 424 -97Q433 -105 434 -117.5Q435 -130 427 -139Q401 -171 368.5 -192.5Q336 -214 300 -225Z" glyph-name="E" horiz-adv-x="537" unicode="E" /><glyph d="M548 -195Q508 -211 465.5 -218.5Q423 -226 381 -226Q288 -226 212 -191Q96 -136 53 -11Q44 15 40 42Q36 69 36 97Q36 171 63.5 244.5Q91 318 144 381Q205 453 284 493Q363 533 452 538Q423 575 413.5 610.5Q404 646 404 673Q404 703 412.5 730.5Q421 758 435.5 780.5Q450 803 468 819.5Q486 836 506 844Q530 854 558 854Q602 854 636 829Q648 820 660.5 806Q673 792 682.5 771Q692 750 696.5 721Q701 692 698 654Q696 642 687 633.5Q678 625 665 627Q652 628 644 637Q636 646 637 659Q644 747 601 780Q590 788 579.5 790.5Q569 793 558 793Q542 793 529 788Q519 784 508 774.5Q497 765 487.5 750Q478 735 471.5 715Q465 695 465 670Q465 630 487.5 593.5Q510 557 552 528Q560 522 563.5 512Q567 502 563 492Q559 482 550 476.5Q541 471 530 473Q432 488 344 454Q256 420 190 342Q145 288 121 224.5Q97 161 97 98Q97 75 100 52Q103 29 111 8Q144 -92 238 -136Q270 -151 306 -158Q342 -165 381 -165Q417 -165 454.5 -159Q492 -153 527 -139Q538 -134 549.5 -139.5Q561 -145 566 -156Q571 -168 565.5 -179.5Q560 -191 548 -195Z" glyph-name="E.alt1" horiz-adv-x="610" /><glyph d="M502 -132Q499 -133 479.5 -140Q460 -147 430 -154.5Q400 -162 362.5 -168Q325 -174 287 -174Q260 -174 233.5 -170Q207 -166 184 -156Q161 -146 142 -129.5Q123 -113 110 -88Q88 -44 88 24Q88 85 103.5 159Q119 233 144 315Q169 397 201.5 483Q234 569 267 653Q281 690 292 718Q303 746 308 762Q312 776 322.5 779.5Q333 783 357 786Q377 788 408.5 792Q440 796 478.5 800Q517 804 561 806.5Q605 809 649.5 808.5Q694 808 737 803.5Q780 799 816 789Q828 786 834 775Q840 764 837 752Q834 740 823 733.5Q812 727 800 731Q750 744 686 747Q622 750 559.5 746.5Q497 743 443 736.5Q389 730 360 725L323 631Q304 583 279.5 520Q255 457 231 387Q256 391 292.5 395.5Q329 400 371 403Q413 406 458.5 406Q504 406 548 401Q561 399 569 389.5Q577 380 575 368Q573 355 563.5 347Q554 339 541 341Q491 347 438.5 345.5Q386 344 340 339.5Q294 335 259 329.5Q224 324 210 321Q184 239 166.5 161Q149 83 149 23Q149 -3 152.5 -24Q156 -45 164 -61Q179 -91 212 -102.5Q245 -114 287 -114Q314 -114 341.5 -110Q369 -106 395 -100.5Q421 -95 443 -88Q465 -81 481 -75Q492 -70 503.5 -75.5Q515 -81 520 -93Q525 -105 519.5 -116Q514 -127 502 -132Z" glyph-name="E.alt2" horiz-adv-x="667" /><glyph d="M300 -225Q271 -234 241 -234Q185 -234 135 -202Q86 -173 60 -120Q34 -67 34 0Q34 9 34.5 18.5Q35 28 36 38Q44 101 73 163Q102 225 150 280Q194 331 250.5 371.5Q307 412 375 442Q319 478 289 529Q258 582 258 642Q258 652 259 662Q260 672 262 682Q268 718 285 748Q302 778 327 800Q352 822 383 834Q414 846 449 846Q518 846 560 786Q576 766 582.5 748.5Q589 731 590 729Q594 717 588 706Q582 695 570 691Q557 687 546.5 693Q536 699 532 711Q532 712 526.5 724.5Q521 737 510 752Q485 786 449 785Q426 785 404 777Q382 769 365 752Q331 720 322 671Q319 656 319 641Q319 618 326.5 593.5Q334 569 350.5 545.5Q367 522 394.5 501.5Q422 481 461 466Q470 463 475 455Q480 447 480 437Q480 428 474.5 420Q469 412 459 409Q378 382 311 339Q244 296 196 240Q154 192 128.5 138.5Q103 85 97 31Q96 23 95.5 15.5Q95 8 95 0Q95 -51 113.5 -90Q132 -129 167 -151Q188 -164 214 -169.5Q240 -175 268.5 -170Q297 -165 326 -148Q355 -131 381 -100Q389 -90 401.5 -89.5Q414 -89 424 -97Q433 -105 434 -117.5Q435 -130 427 -139Q401 -171 368.5 -192.5Q336 -214 300 -225ZM407 887Q405 887 404 886.5Q403 886 401 886Q390 886 381.5 892.5Q373 899 371 910Q368 923 375 933.5Q382 944 394 947Q435 955 461 975Q487 995 503 1012Q511 1022 524 1022Q537 1022 546 1014Q555 1005 555.5 992.5Q556 980 548 971Q542 965 530 953.5Q518 942 500.5 929Q483 916 459.5 904.5Q436 893 407 887Z" glyph-name="Eacute" horiz-adv-x="537" unicode="&#201;" /><glyph d="M548 -195Q508 -211 465.5 -218.5Q423 -226 381 -226Q288 -226 212 -191Q96 -136 53 -11Q44 15 40 42Q36 69 36 97Q36 171 63.5 244.5Q91 318 144 381Q205 453 284 493Q363 533 452 538Q423 575 413.5 610.5Q404 646 404 673Q404 703 412.5 730.5Q421 758 435.5 780.5Q450 803 468 819.5Q486 836 506 844Q530 854 558 854Q602 854 636 829Q648 820 660.5 806Q673 792 682.5 771Q692 750 696.5 721Q701 692 698 654Q696 642 687 633.5Q678 625 665 627Q652 628 644 637Q636 646 637 659Q644 747 601 780Q590 788 579.5 790.5Q569 793 558 793Q542 793 529 788Q519 784 508 774.5Q497 765 487.5 750Q478 735 471.5 715Q465 695 465 670Q465 630 487.5 593.5Q510 557 552 528Q560 522 563.5 512Q567 502 563 492Q559 482 550 476.5Q541 471 530 473Q432 488 344 454Q256 420 190 342Q145 288 121 224.5Q97 161 97 98Q97 75 100 52Q103 29 111 8Q144 -92 238 -136Q270 -151 306 -158Q342 -165 381 -165Q417 -165 454.5 -159Q492 -153 527 -139Q538 -134 549.5 -139.5Q561 -145 566 -156Q571 -168 565.5 -179.5Q560 -191 548 -195ZM533 905Q531 905 530 904.5Q529 904 527 904Q516 904 507.5 910.5Q499 917 497 928Q494 941 501 951.5Q508 962 520 965Q561 973 587 993Q613 1013 629 1030Q637 1040 650 1040Q663 1040 672 1032Q681 1023 681.5 1010.5Q682 998 674 989Q668 983 656 971.5Q644 960 626.5 947Q609 934 585.5 922.5Q562 911 533 905Z" glyph-name="Eacute.alt1" horiz-adv-x="610" /><glyph d="M502 -132Q499 -133 479.5 -140Q460 -147 430 -154.5Q400 -162 362.5 -168Q325 -174 287 -174Q260 -174 233.5 -170Q207 -166 184 -156Q161 -146 142 -129.5Q123 -113 110 -88Q88 -44 88 24Q88 85 103.5 159Q119 233 144 315Q169 397 201.5 483Q234 569 267 653Q281 690 292 718Q303 746 308 762Q312 776 322.5 779.5Q333 783 357 786Q377 788 408.5 792Q440 796 478.5 800Q517 804 561 806.5Q605 809 649.5 808.5Q694 808 737 803.5Q780 799 816 789Q828 786 834 775Q840 764 837 752Q834 740 823 733.5Q812 727 800 731Q750 744 686 747Q622 750 559.5 746.5Q497 743 443 736.5Q389 730 360 725L323 631Q304 583 279.5 520Q255 457 231 387Q256 391 292.5 395.5Q329 400 371 403Q413 406 458.5 406Q504 406 548 401Q561 399 569 389.5Q577 380 575 368Q573 355 563.5 347Q554 339 541 341Q491 347 438.5 345.5Q386 344 340 339.5Q294 335 259 329.5Q224 324 210 321Q184 239 166.5 161Q149 83 149 23Q149 -3 152.5 -24Q156 -45 164 -61Q179 -91 212 -102.5Q245 -114 287 -114Q314 -114 341.5 -110Q369 -106 395 -100.5Q421 -95 443 -88Q465 -81 481 -75Q492 -70 503.5 -75.5Q515 -81 520 -93Q525 -105 519.5 -116Q514 -127 502 -132ZM545 863Q543 863 542 862.5Q541 862 539 862Q528 862 519.5 868.5Q511 875 509 886Q506 899 513 909.5Q520 920 532 923Q573 931 599 951Q625 971 641 988Q649 998 662 998Q675 998 684 990Q693 981 693.5 968.5Q694 956 686 947Q680 941 668 929.5Q656 918 638.5 905Q621 892 597.5 880.5Q574 869 545 863Z" glyph-name="Eacute.alt2" horiz-adv-x="667" /><glyph d="M300 -225Q271 -234 241 -234Q185 -234 135 -202Q86 -173 60 -120Q34 -67 34 0Q34 9 34.5 18.5Q35 28 36 38Q44 101 73 163Q102 225 150 280Q194 331 250.5 371.5Q307 412 375 442Q319 478 289 529Q258 582 258 642Q258 652 259 662Q260 672 262 682Q268 718 285 748Q302 778 327 800Q352 822 383 834Q414 846 449 846Q518 846 560 786Q576 766 582.5 748.5Q589 731 590 729Q594 717 588 706Q582 695 570 691Q557 687 546.5 693Q536 699 532 711Q532 712 526.5 724.5Q521 737 510 752Q485 786 449 785Q426 785 404 777Q382 769 365 752Q331 720 322 671Q319 656 319 641Q319 618 326.5 593.5Q334 569 350.5 545.5Q367 522 394.5 501.5Q422 481 461 466Q470 463 475 455Q480 447 480 437Q480 428 474.5 420Q469 412 459 409Q378 382 311 339Q244 296 196 240Q154 192 128.5 138.5Q103 85 97 31Q96 23 95.5 15.5Q95 8 95 0Q95 -51 113.5 -90Q132 -129 167 -151Q188 -164 214 -169.5Q240 -175 268.5 -170Q297 -165 326 -148Q355 -131 381 -100Q389 -90 401.5 -89.5Q414 -89 424 -97Q433 -105 434 -117.5Q435 -130 427 -139Q401 -171 368.5 -192.5Q336 -214 300 -225ZM586 883Q580 878 569 878Q554 878 544 891Q527 915 508.5 935.5Q490 956 481 961Q478 960 471.5 957.5Q465 955 454 947.5Q443 940 425.5 926.5Q408 913 384 892Q375 883 362 884Q349 885 341 894Q333 904 333.5 916.5Q334 929 344 937Q394 982 426 1001.5Q458 1021 481 1022Q498 1023 517.5 1010.5Q537 998 560 970Q574 953 584 939.5Q594 926 594 925Q602 914 599.5 902Q597 890 586 883Z" glyph-name="Ecircumflex" horiz-adv-x="537" unicode="&#202;" /><glyph d="M548 -195Q508 -211 465.5 -218.5Q423 -226 381 -226Q288 -226 212 -191Q96 -136 53 -11Q44 15 40 42Q36 69 36 97Q36 171 63.5 244.5Q91 318 144 381Q205 453 284 493Q363 533 452 538Q423 575 413.5 610.5Q404 646 404 673Q404 703 412.5 730.5Q421 758 435.5 780.5Q450 803 468 819.5Q486 836 506 844Q530 854 558 854Q602 854 636 829Q648 820 660.5 806Q673 792 682.5 771Q692 750 696.5 721Q701 692 698 654Q696 642 687 633.5Q678 625 665 627Q652 628 644 637Q636 646 637 659Q644 747 601 780Q590 788 579.5 790.5Q569 793 558 793Q542 793 529 788Q519 784 508 774.5Q497 765 487.5 750Q478 735 471.5 715Q465 695 465 670Q465 630 487.5 593.5Q510 557 552 528Q560 522 563.5 512Q567 502 563 492Q559 482 550 476.5Q541 471 530 473Q432 488 344 454Q256 420 190 342Q145 288 121 224.5Q97 161 97 98Q97 75 100 52Q103 29 111 8Q144 -92 238 -136Q270 -151 306 -158Q342 -165 381 -165Q417 -165 454.5 -159Q492 -153 527 -139Q538 -134 549.5 -139.5Q561 -145 566 -156Q571 -168 565.5 -179.5Q560 -191 548 -195ZM712 901Q706 896 695 896Q680 896 670 909Q653 933 634.5 953.5Q616 974 607 979Q604 978 597.5 975.5Q591 973 580 965.5Q569 958 551.5 944.5Q534 931 510 910Q501 901 488 902Q475 903 467 912Q459 922 459.5 934.5Q460 947 470 955Q520 1000 552 1019.5Q584 1039 607 1040Q624 1041 643.5 1028.5Q663 1016 686 988Q700 971 710 957.5Q720 944 720 943Q728 932 725.5 920Q723 908 712 901Z" glyph-name="Ecircumflex.alt1" horiz-adv-x="610" /><glyph d="M502 -132Q499 -133 479.5 -140Q460 -147 430 -154.5Q400 -162 362.5 -168Q325 -174 287 -174Q260 -174 233.5 -170Q207 -166 184 -156Q161 -146 142 -129.5Q123 -113 110 -88Q88 -44 88 24Q88 85 103.5 159Q119 233 144 315Q169 397 201.5 483Q234 569 267 653Q281 690 292 718Q303 746 308 762Q312 776 322.5 779.5Q333 783 357 786Q377 788 408.5 792Q440 796 478.5 800Q517 804 561 806.5Q605 809 649.5 808.5Q694 808 737 803.5Q780 799 816 789Q828 786 834 775Q840 764 837 752Q834 740 823 733.5Q812 727 800 731Q750 744 686 747Q622 750 559.5 746.5Q497 743 443 736.5Q389 730 360 725L323 631Q304 583 279.5 520Q255 457 231 387Q256 391 292.5 395.5Q329 400 371 403Q413 406 458.5 406Q504 406 548 401Q561 399 569 389.5Q577 380 575 368Q573 355 563.5 347Q554 339 541 341Q491 347 438.5 345.5Q386 344 340 339.5Q294 335 259 329.5Q224 324 210 321Q184 239 166.5 161Q149 83 149 23Q149 -3 152.5 -24Q156 -45 164 -61Q179 -91 212 -102.5Q245 -114 287 -114Q314 -114 341.5 -110Q369 -106 395 -100.5Q421 -95 443 -88Q465 -81 481 -75Q492 -70 503.5 -75.5Q515 -81 520 -93Q525 -105 519.5 -116Q514 -127 502 -132ZM724 859Q718 854 707 854Q692 854 682 867Q665 891 646.5 911.5Q628 932 619 937Q616 936 609.5 933.5Q603 931 592 923.5Q581 916 563.5 902.5Q546 889 522 868Q513 859 500 860Q487 861 479 870Q471 880 471.5 892.5Q472 905 482 913Q532 958 564 977.5Q596 997 619 998Q636 999 655.5 986.5Q675 974 698 946Q712 929 722 915.5Q732 902 732 901Q740 890 737.5 878Q735 866 724 859Z" glyph-name="Ecircumflex.alt2" horiz-adv-x="667" /><glyph d="M300 -225Q271 -234 241 -234Q185 -234 135 -202Q86 -173 60 -120Q34 -67 34 0Q34 9 34.5 18.5Q35 28 36 38Q44 101 73 163Q102 225 150 280Q194 331 250.5 371.5Q307 412 375 442Q319 478 289 529Q258 582 258 642Q258 652 259 662Q260 672 262 682Q268 718 285 748Q302 778 327 800Q352 822 383 834Q414 846 449 846Q518 846 560 786Q576 766 582.5 748.5Q589 731 590 729Q594 717 588 706Q582 695 570 691Q557 687 546.5 693Q536 699 532 711Q532 712 526.5 724.5Q521 737 510 752Q485 786 449 785Q426 785 404 777Q382 769 365 752Q331 720 322 671Q319 656 319 641Q319 618 326.5 593.5Q334 569 350.5 545.5Q367 522 394.5 501.5Q422 481 461 466Q470 463 475 455Q480 447 480 437Q480 428 474.5 420Q469 412 459 409Q378 382 311 339Q244 296 196 240Q154 192 128.5 138.5Q103 85 97 31Q96 23 95.5 15.5Q95 8 95 0Q95 -51 113.5 -90Q132 -129 167 -151Q188 -164 214 -169.5Q240 -175 268.5 -170Q297 -165 326 -148Q355 -131 381 -100Q389 -90 401.5 -89.5Q414 -89 424 -97Q433 -105 434 -117.5Q435 -130 427 -139Q401 -171 368.5 -192.5Q336 -214 300 -225ZM571 921Q563 916 552 916Q542 916 535 921Q530 924 526 930Q522 933 521 938Q519 943 519 948.5Q519 954 519 959Q520 970 527.5 978Q535 986 546 988Q559 990 571 981Q574 979 577.5 977.5Q581 976 584 973Q592 965 592.5 953Q593 941 586 932Q584 930 580.5 926.5Q577 923 571 921ZM429 920Q424 918 419.5 914Q415 910 401 910Q397 910 389 912Q382 914 378 918.5Q374 923 369 928Q361 943 368 958L375 971Q380 982 392 986Q404 990 415 985Q429 979 435.5 972Q442 965 445 955Q447 944 442.5 934.5Q438 925 429 920Z" glyph-name="Edieresis" horiz-adv-x="537" unicode="&#203;" /><glyph d="M548 -195Q508 -211 465.5 -218.5Q423 -226 381 -226Q288 -226 212 -191Q96 -136 53 -11Q44 15 40 42Q36 69 36 97Q36 171 63.5 244.5Q91 318 144 381Q205 453 284 493Q363 533 452 538Q423 575 413.5 610.5Q404 646 404 673Q404 703 412.5 730.5Q421 758 435.5 780.5Q450 803 468 819.5Q486 836 506 844Q530 854 558 854Q602 854 636 829Q648 820 660.5 806Q673 792 682.5 771Q692 750 696.5 721Q701 692 698 654Q696 642 687 633.5Q678 625 665 627Q652 628 644 637Q636 646 637 659Q644 747 601 780Q590 788 579.5 790.5Q569 793 558 793Q542 793 529 788Q519 784 508 774.5Q497 765 487.5 750Q478 735 471.5 715Q465 695 465 670Q465 630 487.5 593.5Q510 557 552 528Q560 522 563.5 512Q567 502 563 492Q559 482 550 476.5Q541 471 530 473Q432 488 344 454Q256 420 190 342Q145 288 121 224.5Q97 161 97 98Q97 75 100 52Q103 29 111 8Q144 -92 238 -136Q270 -151 306 -158Q342 -165 381 -165Q417 -165 454.5 -159Q492 -153 527 -139Q538 -134 549.5 -139.5Q561 -145 566 -156Q571 -168 565.5 -179.5Q560 -191 548 -195ZM697 939Q689 934 678 934Q668 934 661 939Q656 942 652 948Q648 951 647 956Q645 961 645 966.5Q645 972 645 977Q646 988 653.5 996Q661 1004 672 1006Q685 1008 697 999Q700 997 703.5 995.5Q707 994 710 991Q718 983 718.5 971Q719 959 712 950Q710 948 706.5 944.5Q703 941 697 939ZM555 938Q550 936 545.5 932Q541 928 527 928Q523 928 515 930Q508 932 504 936.5Q500 941 495 946Q487 961 494 976L501 989Q506 1000 518 1004Q530 1008 541 1003Q555 997 561.5 990Q568 983 571 973Q573 962 568.5 952.5Q564 943 555 938Z" glyph-name="Edieresis.alt1" horiz-adv-x="610" /><glyph d="M502 -132Q499 -133 479.5 -140Q460 -147 430 -154.5Q400 -162 362.5 -168Q325 -174 287 -174Q260 -174 233.5 -170Q207 -166 184 -156Q161 -146 142 -129.5Q123 -113 110 -88Q88 -44 88 24Q88 85 103.5 159Q119 233 144 315Q169 397 201.5 483Q234 569 267 653Q281 690 292 718Q303 746 308 762Q312 776 322.5 779.5Q333 783 357 786Q377 788 408.5 792Q440 796 478.5 800Q517 804 561 806.5Q605 809 649.5 808.5Q694 808 737 803.5Q780 799 816 789Q828 786 834 775Q840 764 837 752Q834 740 823 733.5Q812 727 800 731Q750 744 686 747Q622 750 559.5 746.5Q497 743 443 736.5Q389 730 360 725L323 631Q304 583 279.5 520Q255 457 231 387Q256 391 292.5 395.5Q329 400 371 403Q413 406 458.5 406Q504 406 548 401Q561 399 569 389.5Q577 380 575 368Q573 355 563.5 347Q554 339 541 341Q491 347 438.5 345.5Q386 344 340 339.5Q294 335 259 329.5Q224 324 210 321Q184 239 166.5 161Q149 83 149 23Q149 -3 152.5 -24Q156 -45 164 -61Q179 -91 212 -102.5Q245 -114 287 -114Q314 -114 341.5 -110Q369 -106 395 -100.5Q421 -95 443 -88Q465 -81 481 -75Q492 -70 503.5 -75.5Q515 -81 520 -93Q525 -105 519.5 -116Q514 -127 502 -132ZM709 897Q701 892 690 892Q680 892 673 897Q668 900 664 906Q660 909 659 914Q657 919 657 924.5Q657 930 657 935Q658 946 665.5 954Q673 962 684 964Q697 966 709 957Q712 955 715.5 953.5Q719 952 722 949Q730 941 730.5 929Q731 917 724 908Q722 906 718.5 902.5Q715 899 709 897ZM567 896Q562 894 557.5 890Q553 886 539 886Q535 886 527 888Q520 890 516 894.5Q512 899 507 904Q499 919 506 934L513 947Q518 958 530 962Q542 966 553 961Q567 955 573.5 948Q580 941 583 931Q585 920 580.5 910.5Q576 901 567 896Z" glyph-name="Edieresis.alt2" horiz-adv-x="667" /><glyph d="M300 -225Q271 -234 241 -234Q185 -234 135 -202Q86 -173 60 -120Q34 -67 34 0Q34 9 34.5 18.5Q35 28 36 38Q44 101 73 163Q102 225 150 280Q194 331 250.5 371.5Q307 412 375 442Q319 478 289 529Q258 582 258 642Q258 652 259 662Q260 672 262 682Q268 718 285 748Q302 778 327 800Q352 822 383 834Q414 846 449 846Q518 846 560 786Q576 766 582.5 748.5Q589 731 590 729Q594 717 588 706Q582 695 570 691Q557 687 546.5 693Q536 699 532 711Q532 712 526.5 724.5Q521 737 510 752Q485 786 449 785Q426 785 404 777Q382 769 365 752Q331 720 322 671Q319 656 319 641Q319 618 326.5 593.5Q334 569 350.5 545.5Q367 522 394.5 501.5Q422 481 461 466Q470 463 475 455Q480 447 480 437Q480 428 474.5 420Q469 412 459 409Q378 382 311 339Q244 296 196 240Q154 192 128.5 138.5Q103 85 97 31Q96 23 95.5 15.5Q95 8 95 0Q95 -51 113.5 -90Q132 -129 167 -151Q188 -164 214 -169.5Q240 -175 268.5 -170Q297 -165 326 -148Q355 -131 381 -100Q389 -90 401.5 -89.5Q414 -89 424 -97Q433 -105 434 -117.5Q435 -130 427 -139Q401 -171 368.5 -192.5Q336 -214 300 -225ZM573 902Q571 891 562.5 883.5Q554 876 543 876Q541 876 540 876.5Q539 877 538 877Q481 887 440.5 919Q400 951 378 1002Q373 1014 378 1025.5Q383 1037 394 1042Q406 1047 417.5 1042Q429 1037 434 1026Q466 952 548 937Q561 935 568 924.5Q575 914 573 902Z" glyph-name="Egrave" horiz-adv-x="537" unicode="&#200;" /><glyph d="M548 -195Q508 -211 465.5 -218.5Q423 -226 381 -226Q288 -226 212 -191Q96 -136 53 -11Q44 15 40 42Q36 69 36 97Q36 171 63.5 244.5Q91 318 144 381Q205 453 284 493Q363 533 452 538Q423 575 413.5 610.5Q404 646 404 673Q404 703 412.5 730.5Q421 758 435.5 780.5Q450 803 468 819.5Q486 836 506 844Q530 854 558 854Q602 854 636 829Q648 820 660.5 806Q673 792 682.5 771Q692 750 696.5 721Q701 692 698 654Q696 642 687 633.5Q678 625 665 627Q652 628 644 637Q636 646 637 659Q644 747 601 780Q590 788 579.5 790.5Q569 793 558 793Q542 793 529 788Q519 784 508 774.5Q497 765 487.5 750Q478 735 471.5 715Q465 695 465 670Q465 630 487.5 593.5Q510 557 552 528Q560 522 563.5 512Q567 502 563 492Q559 482 550 476.5Q541 471 530 473Q432 488 344 454Q256 420 190 342Q145 288 121 224.5Q97 161 97 98Q97 75 100 52Q103 29 111 8Q144 -92 238 -136Q270 -151 306 -158Q342 -165 381 -165Q417 -165 454.5 -159Q492 -153 527 -139Q538 -134 549.5 -139.5Q561 -145 566 -156Q571 -168 565.5 -179.5Q560 -191 548 -195ZM699 920Q697 909 688.5 901.5Q680 894 669 894Q667 894 666 894.5Q665 895 664 895Q607 905 566.5 937Q526 969 504 1020Q499 1032 504 1043.5Q509 1055 520 1060Q532 1065 543.5 1060Q555 1055 560 1044Q592 970 674 955Q687 953 694 942.5Q701 932 699 920Z" glyph-name="Egrave.alt1" horiz-adv-x="610" /><glyph d="M502 -132Q499 -133 479.5 -140Q460 -147 430 -154.5Q400 -162 362.5 -168Q325 -174 287 -174Q260 -174 233.5 -170Q207 -166 184 -156Q161 -146 142 -129.5Q123 -113 110 -88Q88 -44 88 24Q88 85 103.5 159Q119 233 144 315Q169 397 201.5 483Q234 569 267 653Q281 690 292 718Q303 746 308 762Q312 776 322.5 779.5Q333 783 357 786Q377 788 408.5 792Q440 796 478.5 800Q517 804 561 806.5Q605 809 649.5 808.5Q694 808 737 803.5Q780 799 816 789Q828 786 834 775Q840 764 837 752Q834 740 823 733.5Q812 727 800 731Q750 744 686 747Q622 750 559.5 746.5Q497 743 443 736.5Q389 730 360 725L323 631Q304 583 279.5 520Q255 457 231 387Q256 391 292.5 395.5Q329 400 371 403Q413 406 458.5 406Q504 406 548 401Q561 399 569 389.5Q577 380 575 368Q573 355 563.5 347Q554 339 541 341Q491 347 438.5 345.5Q386 344 340 339.5Q294 335 259 329.5Q224 324 210 321Q184 239 166.5 161Q149 83 149 23Q149 -3 152.5 -24Q156 -45 164 -61Q179 -91 212 -102.5Q245 -114 287 -114Q314 -114 341.5 -110Q369 -106 395 -100.5Q421 -95 443 -88Q465 -81 481 -75Q492 -70 503.5 -75.5Q515 -81 520 -93Q525 -105 519.5 -116Q514 -127 502 -132ZM711 878Q709 867 700.5 859.5Q692 852 681 852Q679 852 678 852.5Q677 853 676 853Q619 863 578.5 895Q538 927 516 978Q511 990 516 1001.5Q521 1013 532 1018Q544 1023 555.5 1018Q567 1013 572 1002Q604 928 686 913Q699 911 706 900.5Q713 890 711 878Z" glyph-name="Egrave.alt2" horiz-adv-x="667" /><glyph d="M304 755Q310 769 326 772Q363 779 418 784.5Q473 790 532 794Q591 798 647 800Q703 802 743 802Q756 802 765 793Q774 784 774 771Q774 758 765 749.5Q756 741 743 741Q707 741 656 739Q605 737 551 734Q497 731 445.5 726Q394 721 356 715Q351 697 343 665.5Q335 634 324.5 593Q314 552 301.5 503.5Q289 455 276 402Q330 408 404.5 412.5Q479 417 576 409Q589 407 597 398Q605 389 603 376Q602 363 592.5 355Q583 347 571 348Q477 356 405 351.5Q333 347 279 342Q274 341 269 340.5Q264 340 259 340Q241 271 222.5 200.5Q204 130 186 65.5Q168 1 152 -55Q136 -111 124 -151Q117 -173 95 -173Q92 -173 86 -171Q74 -167 68 -156Q62 -145 66 -133Q78 -92 94.5 -35Q111 22 129 88Q147 154 166 225.5Q185 297 203 366.5Q221 436 238 500.5Q255 565 268 616Q281 667 290 702.5Q299 738 302 749Z" glyph-name="F" horiz-adv-x="670" unicode="F" /><glyph d="M160 -137Q160 -44 173.5 62.5Q187 169 207 275Q220 342 234.5 406.5Q249 471 264 529Q279 587 293.5 637Q308 687 320 726Q291 722 268.5 718.5Q246 715 230 712Q228 711 224 711Q213 711 205 718Q197 725 195 736Q192 749 199 759.5Q206 770 219 772Q238 776 269.5 780.5Q301 785 341 791Q344 799 346.5 805Q349 811 351 816Q356 827 367.5 832Q379 837 391 832Q401 827 405.5 818.5Q410 810 409 800Q474 809 546 818Q618 827 682.5 834.5Q747 842 797.5 846.5Q848 851 872 851Q885 851 894 842.5Q903 834 903 821Q903 808 894 799Q885 790 872 790Q849 790 795 785Q741 780 672.5 772.5Q604 765 528.5 755Q453 745 387 736Q376 702 362 654.5Q348 607 333 550Q318 493 302.5 428.5Q287 364 274 296Q301 297 346 300.5Q391 304 445 309.5Q499 315 558.5 322Q618 329 674 337Q687 339 696.5 331Q706 323 708 311Q710 298 702.5 288Q695 278 683 276Q622 268 547.5 259.5Q473 251 401 244Q344 239 311.5 237.5Q279 236 262 235Q244 138 232.5 42.5Q221 -53 221 -137Q221 -150 212 -159Q203 -168 191 -168Q178 -168 169 -159Q160 -150 160 -137Z" glyph-name="F.alt1" horiz-adv-x="751" /><glyph d="M202 -87Q200 -99 191.5 -107Q183 -115 171 -115H169Q156 -113 148 -104Q140 -95 141 -82Q153 72 170.5 202.5Q188 333 205.5 435.5Q223 538 238.5 610.5Q254 683 264 722Q269 741 286 744Q289 745 313.5 751Q338 757 376 765Q414 773 462 781.5Q510 790 560 795Q610 800 657.5 801Q705 802 744 796Q756 794 763.5 783.5Q771 773 769 760Q767 748 756.5 741Q746 734 734 736Q689 743 627.5 739Q566 735 505.5 726Q445 717 394 706.5Q343 696 319 690Q305 633 283.5 527Q262 421 241 271Q263 273 301.5 276.5Q340 280 387.5 284Q435 288 488.5 292Q542 296 596 299Q609 300 618 292Q627 284 629 271Q630 258 621.5 248.5Q613 239 600 238Q542 234 484 229.5Q426 225 376 221Q326 217 288 213.5Q250 210 233 209Q224 142 216 68Q208 -6 202 -87Z" glyph-name="F.alt2" horiz-adv-x="711" /><glyph d="M527 24Q501 -4 469 -28.5Q437 -53 402 -71.5Q367 -90 330 -100.5Q293 -111 256 -111Q184 -111 140 -50Q119 -20 108.5 23Q98 66 98 118Q98 188 117 270Q136 352 174 437Q265 642 406 749Q458 788 510 811Q562 834 606 834Q671 834 720.5 783.5Q770 733 793 642Q796 629 789.5 618Q783 607 772 604Q759 601 748 607.5Q737 614 734 626Q727 653 715 680Q703 707 686.5 728Q670 749 649 762Q628 775 603 775Q576 775 531.5 755.5Q487 736 444 701Q381 650 326 577.5Q271 505 229 412Q194 334 176.5 257.5Q159 181 159 117Q159 75 166.5 41.5Q174 8 190 -15Q215 -50 257 -50Q285 -50 315.5 -41.5Q346 -33 375.5 -17.5Q405 -2 432.5 19Q460 40 483 66Q524 112 558.5 165.5Q593 219 613 276Q623 304 627 325Q631 346 632 360.5Q633 375 631 383Q629 391 627 393Q619 400 597 396Q568 393 530.5 376.5Q493 360 456.5 336.5Q420 313 388 285Q356 257 339 231Q331 220 319 217.5Q307 215 296 222Q285 229 282.5 241.5Q280 254 288 265Q309 296 345.5 329Q382 362 425 389Q468 416 511.5 434.5Q555 453 590 457Q641 465 669 437Q685 422 690 399Q695 376 692.5 350.5Q690 325 683.5 300Q677 275 671 256Q648 193 610.5 133Q573 73 527 24Z" glyph-name="G" horiz-adv-x="733" unicode="G" /><glyph d="M621 60Q569 -3 500 -35.5Q431 -68 349 -68Q298 -68 256 -43.5Q214 -19 184 29Q156 74 142.5 134Q129 194 129 263Q129 334 146.5 405Q164 476 196 542Q269 696 367.5 776Q466 856 575 856Q632 856 681 822Q730 788 761 727Q767 716 763 704Q759 692 748 687Q737 681 724.5 685Q712 689 707 700Q703 709 692.5 724.5Q682 740 665.5 755.5Q649 771 626 782.5Q603 794 574 794Q480 794 397.5 722.5Q315 651 251 516Q220 452 205 384Q190 316 190 251Q190 195 201.5 146.5Q213 98 236 61Q280 -7 349 -7Q487 -7 574 99Q601 132 620 171.5Q639 211 650 249Q661 287 665 320.5Q669 354 668 377Q656 376 625.5 368.5Q595 361 535 339Q488 322 454.5 308.5Q421 295 416 293Q404 288 392.5 292.5Q381 297 376 309Q371 320 375.5 332Q380 344 392 349Q393 349 404 354Q415 359 433 366Q451 373 474 382Q497 391 522 400Q552 411 577 418Q602 425 622 430Q681 444 705 432Q723 422 726 405Q731 378 728 337Q725 296 714 251Q704 213 682.5 161.5Q661 110 621 60Z" glyph-name="G.alt1" horiz-adv-x="752" /><glyph d="M822 356Q827 317 819.5 269Q812 221 791 171Q770 121 736 73.5Q702 26 655 -11Q608 -48 548.5 -70.5Q489 -93 417 -93Q349 -93 293.5 -70Q238 -47 199 -4.5Q160 38 138.5 97.5Q117 157 117 229Q117 283 129.5 342Q142 401 168 465Q211 569 267 640.5Q323 712 384 756Q445 800 507 819.5Q569 839 624 839Q633 839 642 838.5Q651 838 660 837Q717 831 754 810.5Q791 790 812.5 767Q834 744 842.5 725.5Q851 707 851 705Q853 697 853 694Q853 680 844.5 672Q836 664 825 664Q817 664 808 669.5Q799 675 793 687Q791 691 784.5 704Q778 717 763 732Q748 747 721.5 759.5Q695 772 653 777Q646 778 639 778.5Q632 779 624 779Q576 779 522 761.5Q468 744 414.5 704Q361 664 311.5 600Q262 536 224 442Q177 326 179 223Q180 165 197.5 118Q215 71 246.5 37.5Q278 4 321 -14Q364 -32 417 -32Q474 -32 523 -14Q572 4 611 33.5Q650 63 679.5 101.5Q709 140 728.5 180.5Q748 221 757 261Q766 301 764 334Q759 335 748 336.5Q737 338 717 338.5Q697 339 667 339Q637 339 594 336Q535 332 497.5 328.5Q460 325 443 323Q430 321 420.5 329Q411 337 409 349Q407 362 415 371.5Q423 381 436 383Q459 385 502 389.5Q545 394 611 398Q650 400 681 400.5Q712 401 735 399Q745 398 759.5 396.5Q774 395 787 391Q800 387 810 378.5Q820 370 822 356Z" glyph-name="G.alt2" horiz-adv-x="851" /><glyph d="M768 757Q767 741 757.5 697Q748 653 733.5 591.5Q719 530 700 455.5Q681 381 660 303Q643 238 626 175Q609 112 594.5 59Q580 6 568.5 -35Q557 -76 551 -97Q549 -108 540.5 -113.5Q532 -119 522 -119Q517 -119 514 -118Q502 -115 495.5 -104Q489 -93 493 -81Q500 -59 510.5 -20.5Q521 18 534.5 66.5Q548 115 563 171Q578 227 593 286Q559 287 518 287Q477 287 432 283.5Q387 280 340 273Q293 266 248 254Q246 246 244 239Q242 232 240 224Q226 171 213 120.5Q200 70 188 26Q176 -18 165.5 -55Q155 -92 148 -118Q146 -129 137.5 -135Q129 -141 119 -141Q117 -141 111 -139Q99 -136 92.5 -125Q86 -114 90 -102Q97 -76 107 -39Q117 -2 129 42Q141 86 154 136.5Q167 187 181 240Q201 316 222 394.5Q243 473 262.5 546Q282 619 299.5 682.5Q317 746 330 791Q334 803 344.5 809Q355 815 368 812Q380 808 386 797Q392 786 388 774Q377 736 363 685Q349 634 333 575Q317 516 300 451Q283 386 265 321Q354 340 444 345.5Q534 351 609 347Q628 419 645 487Q662 555 675.5 611.5Q689 668 697.5 707.5Q706 747 707 761Q708 774 717 782Q726 790 739 789Q752 789 760.5 779.5Q769 770 768 757Z" glyph-name="H" horiz-adv-x="731" unicode="H" /><glyph d="M181 -142Q178 -152 170 -158.5Q162 -165 151 -165Q149 -165 147 -164.5Q145 -164 143 -164Q131 -160 124.5 -149.5Q118 -139 122 -127Q123 -121 130.5 -82Q138 -43 149 17.5Q160 78 173.5 154.5Q187 231 201 312Q225 455 239 542.5Q253 630 259.5 678.5Q266 727 267.5 745.5Q269 764 269 768Q267 780 273.5 790Q280 800 291 803Q304 807 314.5 800.5Q325 794 329 782Q330 779 330.5 773.5Q331 768 329.5 752Q328 736 324.5 706Q321 676 313.5 625Q306 574 293.5 497.5Q281 421 262 312Q260 304 259.5 297Q259 290 257 282Q298 300 342 313.5Q386 327 427.5 336.5Q469 346 505 352Q541 358 565 360Q578 440 590.5 519Q603 598 614 664Q625 730 633.5 777.5Q642 825 647 842Q650 854 661 860.5Q672 867 684 864Q697 861 703 850Q709 839 706 827Q702 811 693.5 764Q685 717 674 651Q663 585 650.5 506.5Q638 428 625 348Q612 268 600.5 192.5Q589 117 580 58.5Q571 0 565 -36Q559 -72 559 -73Q557 -84 548.5 -91.5Q540 -99 529 -99H525Q512 -97 504.5 -87Q497 -77 499 -64Q500 -58 504.5 -27Q509 4 516.5 53.5Q524 103 534 166Q544 229 555 298Q528 295 490.5 288Q453 281 410.5 270Q368 259 324.5 243.5Q281 228 244 209Q232 142 221.5 81Q211 20 202 -27.5Q193 -75 187.5 -105.5Q182 -136 181 -142Z" glyph-name="H.alt1" horiz-adv-x="695" /><glyph d="M707 309Q689 242 672 178.5Q655 115 640 61Q625 7 613.5 -34.5Q602 -76 596 -97Q594 -108 585.5 -113.5Q577 -119 567 -119Q562 -119 559 -118Q547 -115 540.5 -104Q534 -93 538 -81Q545 -59 555.5 -20.5Q566 18 579.5 66.5Q593 115 608 171Q623 227 638 286Q604 287 563 287Q522 287 477 283.5Q432 280 385 273Q338 266 293 254Q291 246 289 239Q287 232 285 224Q271 171 258 120.5Q245 70 233 26Q221 -18 210.5 -55Q200 -92 193 -118Q191 -129 182.5 -135Q174 -141 164 -141Q162 -141 156 -139Q144 -136 137.5 -125Q131 -114 135 -102Q142 -76 152 -39.5Q162 -3 173.5 41Q185 85 198 133.5Q211 182 224 232Q212 227 200.5 222Q189 217 178 212Q170 209 164 209Q145 209 137 226Q131 237 135 249Q139 261 150 267Q193 288 243 303Q261 372 279.5 442Q298 512 315.5 576Q333 640 348 695Q363 750 375 791Q379 803 389.5 809Q400 815 413 812Q425 808 431 797Q437 786 433 774Q422 736 408 685Q394 634 378 575Q362 516 345 451Q328 386 310 321Q399 341 489 346Q579 351 654 347Q673 419 690 487Q707 555 720.5 611.5Q734 668 742.5 707.5Q751 747 752 761Q753 774 762 782Q771 790 784 789Q797 789 805.5 779.5Q814 770 813 757Q812 741 802.5 697Q793 653 778.5 592Q764 531 745.5 457.5Q727 384 707 309Z" glyph-name="H.alt2" horiz-adv-x="776" /><glyph d="M482 -139Q435 -153 377.5 -158.5Q320 -164 262 -164.5Q204 -165 152 -162.5Q100 -160 65 -157Q44 -157 33.5 -156.5Q23 -156 17 -156Q-2 -153 -8 -134Q-10 -122 -3.5 -111Q3 -100 15 -96Q18 -95 21 -95Q24 -95 29.5 -95Q35 -95 44.5 -95.5Q54 -96 70 -97Q97 -99 136.5 -101Q176 -103 221 -103Q223 -99 223.5 -94.5Q224 -90 226 -85Q231 -67 237.5 -42Q244 -17 252 15Q267 69 288 143.5Q309 218 335 314Q353 382 371.5 448Q390 514 405.5 570.5Q421 627 432.5 669.5Q444 712 449 732Q406 730 367 728Q328 726 297 723Q266 720 245.5 717.5Q225 715 220 714Q215 713 212 713Q209 713 206 713Q198 715 191.5 720Q185 725 183 733Q178 745 183.5 756Q189 767 201 772Q207 775 232.5 778Q258 781 294 784Q330 787 372.5 789.5Q415 792 457 793Q708 802 776 759Q787 752 790 740Q793 728 785 717Q777 706 765 703Q753 700 743 707Q737 710 724 714.5Q711 719 684.5 723.5Q658 728 616.5 730.5Q575 733 513 733Q492 659 469.5 577Q447 495 424 411.5Q401 328 379 248.5Q357 169 338.5 100.5Q320 32 305.5 -21Q291 -74 284 -103Q334 -102 382 -96.5Q430 -91 468 -80Q479 -77 489.5 -83Q500 -89 504 -101Q507 -113 500.5 -124Q494 -135 482 -139Z" glyph-name="I" horiz-adv-x="602" unicode="I" /><glyph d="M295 -11Q297 4 299.5 26Q302 48 306 77Q313 125 322.5 192Q332 259 343 344Q355 426 366 504Q377 582 385 640Q342 639 300.5 637.5Q259 636 224.5 634.5Q190 633 165.5 631Q141 629 134 628Q130 626 123 626Q106 626 96 642Q90 653 94 665Q98 677 109 683Q111 684 114.5 685.5Q118 687 126.5 688.5Q135 690 151 691Q167 692 194 694Q226 696 264.5 697.5Q303 699 344 700Q354 700 366.5 700.5Q379 701 394 701Q396 719 397.5 730.5Q399 742 400 746Q402 758 411 765.5Q420 773 432 772Q444 771 452 762.5Q460 754 460 742V737Q458 729 457.5 720Q457 711 455 702Q479 702 503 701.5Q527 701 549 700Q571 699 589 697.5Q607 696 618 693Q630 690 636.5 679.5Q643 669 641 656Q638 644 627.5 637.5Q617 631 604 633Q585 638 542.5 639.5Q500 641 446 641Q438 582 429 517Q420 452 410.5 386.5Q401 321 392.5 258.5Q384 196 376.5 142Q369 88 363.5 45.5Q358 3 355 -22L527 -25Q540 -26 548.5 -34.5Q557 -43 557 -56Q556 -69 547.5 -77.5Q539 -86 526 -86L100 -78Q87 -78 78.5 -69Q70 -60 70 -47Q70 -35 79 -26Q88 -17 101 -17L293 -21Z" glyph-name="I.alt1" horiz-adv-x="602" /><glyph d="M262 -14Q271 35 281 93.5Q291 152 302 214Q310 259 321 319.5Q332 380 344.5 445Q357 510 369.5 574Q382 638 393 690Q351 691 313 691Q275 691 245.5 691Q216 691 196.5 691Q177 691 171 690Q168 689 161 689Q153 691 145.5 696Q138 701 136 709Q131 720 136 731.5Q141 743 152 748Q155 749 162.5 750.5Q170 752 199 752.5Q228 753 286.5 753Q345 753 452 751Q500 750 546 749Q592 748 628.5 747.5Q665 747 687.5 746.5Q710 746 710 746Q723 746 731.5 736.5Q740 727 740 715Q740 702 731 693Q722 684 709 684Q653 686 587 687Q521 688 455 689Q443 635 429.5 566Q416 497 402 422Q388 347 374 270.5Q360 194 348.5 126Q337 58 327.5 3.5Q318 -51 313 -82Q353 -80 399.5 -78Q446 -76 502 -74Q514 -73 523.5 -81.5Q533 -90 534 -102Q534 -116 525.5 -125Q517 -134 504 -134Q456 -136 399.5 -139Q343 -142 287 -145H271Q229 -147 190.5 -149Q152 -151 121.5 -153Q91 -155 71 -156Q51 -157 46 -158Q44 -159 41 -158.5Q38 -158 36 -158Q16 -155 10 -137Q6 -125 12 -114Q18 -103 31 -99Q32 -98 37 -97.5Q42 -97 63.5 -95.5Q85 -94 129 -91.5Q173 -89 251 -85Z" glyph-name="I.alt2" horiz-adv-x="602" /><glyph d="M482 -139Q435 -153 377.5 -158.5Q320 -164 262 -164.5Q204 -165 152 -162.5Q100 -160 65 -157Q44 -157 33.5 -156.5Q23 -156 17 -156Q-2 -153 -8 -134Q-10 -122 -3.5 -111Q3 -100 15 -96Q18 -95 21 -95Q24 -95 29.5 -95Q35 -95 44.5 -95.5Q54 -96 70 -97Q97 -99 136.5 -101Q176 -103 221 -103Q223 -99 223.5 -94.5Q224 -90 226 -85Q231 -67 237.5 -42Q244 -17 252 15Q267 69 288 143.5Q309 218 335 314Q353 382 371.5 448Q390 514 405.5 570.5Q421 627 432.5 669.5Q444 712 449 732Q406 730 367 728Q328 726 297 723Q266 720 245.5 717.5Q225 715 220 714Q215 713 212 713Q209 713 206 713Q198 715 191.5 720Q185 725 183 733Q178 745 183.5 756Q189 767 201 772Q207 775 232.5 778Q258 781 294 784Q330 787 372.5 789.5Q415 792 457 793Q708 802 776 759Q787 752 790 740Q793 728 785 717Q777 706 765 703Q753 700 743 707Q737 710 724 714.5Q711 719 684.5 723.5Q658 728 616.5 730.5Q575 733 513 733Q492 659 469.5 577Q447 495 424 411.5Q401 328 379 248.5Q357 169 338.5 100.5Q320 32 305.5 -21Q291 -74 284 -103Q334 -102 382 -96.5Q430 -91 468 -80Q479 -77 489.5 -83Q500 -89 504 -101Q507 -113 500.5 -124Q494 -135 482 -139ZM444 851Q442 851 441 850.5Q440 850 438 850Q427 850 418.5 856.5Q410 863 408 874Q405 887 412 897.5Q419 908 431 911Q472 919 498 939Q524 959 540 976Q548 986 561 986Q574 986 583 978Q592 969 592.5 956.5Q593 944 585 935Q579 929 567 917.5Q555 906 537.5 893Q520 880 496.5 868.5Q473 857 444 851Z" glyph-name="Iacute" horiz-adv-x="602" unicode="&#205;" /><glyph d="M295 -11Q297 4 299.5 26Q302 48 306 77Q313 125 322.5 192Q332 259 343 344Q355 426 366 504Q377 582 385 640Q342 639 300.5 637.5Q259 636 224.5 634.5Q190 633 165.5 631Q141 629 134 628Q130 626 123 626Q106 626 96 642Q90 653 94 665Q98 677 109 683Q111 684 114.5 685.5Q118 687 126.5 688.5Q135 690 151 691Q167 692 194 694Q226 696 264.5 697.5Q303 699 344 700Q354 700 366.5 700.5Q379 701 394 701Q396 719 397.5 730.5Q399 742 400 746Q402 758 411 765.5Q420 773 432 772Q444 771 452 762.5Q460 754 460 742V737Q458 729 457.5 720Q457 711 455 702Q479 702 503 701.5Q527 701 549 700Q571 699 589 697.5Q607 696 618 693Q630 690 636.5 679.5Q643 669 641 656Q638 644 627.5 637.5Q617 631 604 633Q585 638 542.5 639.5Q500 641 446 641Q438 582 429 517Q420 452 410.5 386.5Q401 321 392.5 258.5Q384 196 376.5 142Q369 88 363.5 45.5Q358 3 355 -22L527 -25Q540 -26 548.5 -34.5Q557 -43 557 -56Q556 -69 547.5 -77.5Q539 -86 526 -86L100 -78Q87 -78 78.5 -69Q70 -60 70 -47Q70 -35 79 -26Q88 -17 101 -17L293 -21ZM371 808Q369 808 368 807.5Q367 807 365 807Q354 807 345.5 813.5Q337 820 335 831Q332 844 339 854.5Q346 865 358 868Q399 876 425 896Q451 916 467 933Q475 943 488 943Q501 943 510 935Q519 926 519.5 913.5Q520 901 512 892Q506 886 494 874.5Q482 863 464.5 850Q447 837 423.5 825.5Q400 814 371 808Z" glyph-name="Iacute.alt1" horiz-adv-x="602" /><glyph d="M262 -14Q271 35 281 93.5Q291 152 302 214Q310 259 321 319.5Q332 380 344.5 445Q357 510 369.5 574Q382 638 393 690Q351 691 313 691Q275 691 245.5 691Q216 691 196.5 691Q177 691 171 690Q168 689 161 689Q153 691 145.5 696Q138 701 136 709Q131 720 136 731.5Q141 743 152 748Q155 749 162.5 750.5Q170 752 199 752.5Q228 753 286.5 753Q345 753 452 751Q500 750 546 749Q592 748 628.5 747.5Q665 747 687.5 746.5Q710 746 710 746Q723 746 731.5 736.5Q740 727 740 715Q740 702 731 693Q722 684 709 684Q653 686 587 687Q521 688 455 689Q443 635 429.5 566Q416 497 402 422Q388 347 374 270.5Q360 194 348.5 126Q337 58 327.5 3.5Q318 -51 313 -82Q353 -80 399.5 -78Q446 -76 502 -74Q514 -73 523.5 -81.5Q533 -90 534 -102Q534 -116 525.5 -125Q517 -134 504 -134Q456 -136 399.5 -139Q343 -142 287 -145H271Q229 -147 190.5 -149Q152 -151 121.5 -153Q91 -155 71 -156Q51 -157 46 -158Q44 -159 41 -158.5Q38 -158 36 -158Q16 -155 10 -137Q6 -125 12 -114Q18 -103 31 -99Q32 -98 37 -97.5Q42 -97 63.5 -95.5Q85 -94 129 -91.5Q173 -89 251 -85ZM413 807Q411 807 410 806.5Q409 806 407 806Q396 806 387.5 812.5Q379 819 377 830Q374 843 381 853.5Q388 864 400 867Q441 875 467 895Q493 915 509 932Q517 942 530 942Q543 942 552 934Q561 925 561.5 912.5Q562 900 554 891Q548 885 536 873.5Q524 862 506.5 849Q489 836 465.5 824.5Q442 813 413 807Z" glyph-name="Iacute.alt2" horiz-adv-x="602" /><glyph d="M482 -139Q435 -153 377.5 -158.5Q320 -164 262 -164.5Q204 -165 152 -162.5Q100 -160 65 -157Q44 -157 33.5 -156.5Q23 -156 17 -156Q-2 -153 -8 -134Q-10 -122 -3.5 -111Q3 -100 15 -96Q18 -95 21 -95Q24 -95 29.5 -95Q35 -95 44.5 -95.5Q54 -96 70 -97Q97 -99 136.5 -101Q176 -103 221 -103Q223 -99 223.5 -94.5Q224 -90 226 -85Q231 -67 237.5 -42Q244 -17 252 15Q267 69 288 143.5Q309 218 335 314Q353 382 371.5 448Q390 514 405.5 570.5Q421 627 432.5 669.5Q444 712 449 732Q406 730 367 728Q328 726 297 723Q266 720 245.5 717.5Q225 715 220 714Q215 713 212 713Q209 713 206 713Q198 715 191.5 720Q185 725 183 733Q178 745 183.5 756Q189 767 201 772Q207 775 232.5 778Q258 781 294 784Q330 787 372.5 789.5Q415 792 457 793Q708 802 776 759Q787 752 790 740Q793 728 785 717Q777 706 765 703Q753 700 743 707Q737 710 724 714.5Q711 719 684.5 723.5Q658 728 616.5 730.5Q575 733 513 733Q492 659 469.5 577Q447 495 424 411.5Q401 328 379 248.5Q357 169 338.5 100.5Q320 32 305.5 -21Q291 -74 284 -103Q334 -102 382 -96.5Q430 -91 468 -80Q479 -77 489.5 -83Q500 -89 504 -101Q507 -113 500.5 -124Q494 -135 482 -139ZM623 847Q617 842 606 842Q591 842 581 855Q564 879 545.5 899.5Q527 920 518 925Q515 924 508.5 921.5Q502 919 491 911.5Q480 904 462.5 890.5Q445 877 421 856Q412 847 399 848Q386 849 378 858Q370 868 370.5 880.5Q371 893 381 901Q431 946 463 965.5Q495 985 518 986Q535 987 554.5 974.5Q574 962 597 934Q611 917 621 903.5Q631 890 631 889Q639 878 636.5 866Q634 854 623 847Z" glyph-name="Icircumflex" horiz-adv-x="602" unicode="&#206;" /><glyph d="M295 -11Q297 4 299.5 26Q302 48 306 77Q313 125 322.5 192Q332 259 343 344Q355 426 366 504Q377 582 385 640Q342 639 300.5 637.5Q259 636 224.5 634.5Q190 633 165.5 631Q141 629 134 628Q130 626 123 626Q106 626 96 642Q90 653 94 665Q98 677 109 683Q111 684 114.5 685.5Q118 687 126.5 688.5Q135 690 151 691Q167 692 194 694Q226 696 264.5 697.5Q303 699 344 700Q354 700 366.5 700.5Q379 701 394 701Q396 719 397.5 730.5Q399 742 400 746Q402 758 411 765.5Q420 773 432 772Q444 771 452 762.5Q460 754 460 742V737Q458 729 457.5 720Q457 711 455 702Q479 702 503 701.5Q527 701 549 700Q571 699 589 697.5Q607 696 618 693Q630 690 636.5 679.5Q643 669 641 656Q638 644 627.5 637.5Q617 631 604 633Q585 638 542.5 639.5Q500 641 446 641Q438 582 429 517Q420 452 410.5 386.5Q401 321 392.5 258.5Q384 196 376.5 142Q369 88 363.5 45.5Q358 3 355 -22L527 -25Q540 -26 548.5 -34.5Q557 -43 557 -56Q556 -69 547.5 -77.5Q539 -86 526 -86L100 -78Q87 -78 78.5 -69Q70 -60 70 -47Q70 -35 79 -26Q88 -17 101 -17L293 -21ZM550 804Q544 799 533 799Q518 799 508 812Q491 836 472.5 856.5Q454 877 445 882Q442 881 435.5 878.5Q429 876 418 868.5Q407 861 389.5 847.5Q372 834 348 813Q339 804 326 805Q313 806 305 815Q297 825 297.5 837.5Q298 850 308 858Q358 903 390 922.5Q422 942 445 943Q462 944 481.5 931.5Q501 919 524 891Q538 874 548 860.5Q558 847 558 846Q566 835 563.5 823Q561 811 550 804Z" glyph-name="Icircumflex.alt1" horiz-adv-x="602" /><glyph d="M262 -14Q271 35 281 93.5Q291 152 302 214Q310 259 321 319.5Q332 380 344.5 445Q357 510 369.5 574Q382 638 393 690Q351 691 313 691Q275 691 245.5 691Q216 691 196.5 691Q177 691 171 690Q168 689 161 689Q153 691 145.5 696Q138 701 136 709Q131 720 136 731.5Q141 743 152 748Q155 749 162.5 750.5Q170 752 199 752.5Q228 753 286.5 753Q345 753 452 751Q500 750 546 749Q592 748 628.5 747.5Q665 747 687.5 746.5Q710 746 710 746Q723 746 731.5 736.5Q740 727 740 715Q740 702 731 693Q722 684 709 684Q653 686 587 687Q521 688 455 689Q443 635 429.5 566Q416 497 402 422Q388 347 374 270.5Q360 194 348.5 126Q337 58 327.5 3.5Q318 -51 313 -82Q353 -80 399.5 -78Q446 -76 502 -74Q514 -73 523.5 -81.5Q533 -90 534 -102Q534 -116 525.5 -125Q517 -134 504 -134Q456 -136 399.5 -139Q343 -142 287 -145H271Q229 -147 190.5 -149Q152 -151 121.5 -153Q91 -155 71 -156Q51 -157 46 -158Q44 -159 41 -158.5Q38 -158 36 -158Q16 -155 10 -137Q6 -125 12 -114Q18 -103 31 -99Q32 -98 37 -97.5Q42 -97 63.5 -95.5Q85 -94 129 -91.5Q173 -89 251 -85ZM592 803Q586 798 575 798Q560 798 550 811Q533 835 514.5 855.5Q496 876 487 881Q484 880 477.5 877.5Q471 875 460 867.5Q449 860 431.5 846.5Q414 833 390 812Q381 803 368 804Q355 805 347 814Q339 824 339.5 836.5Q340 849 350 857Q400 902 432 921.5Q464 941 487 942Q504 943 523.5 930.5Q543 918 566 890Q580 873 590 859.5Q600 846 600 845Q608 834 605.5 822Q603 810 592 803Z" glyph-name="Icircumflex.alt2" horiz-adv-x="602" /><glyph d="M482 -139Q435 -153 377.5 -158.5Q320 -164 262 -164.5Q204 -165 152 -162.5Q100 -160 65 -157Q44 -157 33.5 -156.5Q23 -156 17 -156Q-2 -153 -8 -134Q-10 -122 -3.5 -111Q3 -100 15 -96Q18 -95 21 -95Q24 -95 29.5 -95Q35 -95 44.5 -95.5Q54 -96 70 -97Q97 -99 136.5 -101Q176 -103 221 -103Q223 -99 223.5 -94.5Q224 -90 226 -85Q231 -67 237.5 -42Q244 -17 252 15Q267 69 288 143.5Q309 218 335 314Q353 382 371.5 448Q390 514 405.5 570.5Q421 627 432.5 669.5Q444 712 449 732Q406 730 367 728Q328 726 297 723Q266 720 245.5 717.5Q225 715 220 714Q215 713 212 713Q209 713 206 713Q198 715 191.5 720Q185 725 183 733Q178 745 183.5 756Q189 767 201 772Q207 775 232.5 778Q258 781 294 784Q330 787 372.5 789.5Q415 792 457 793Q708 802 776 759Q787 752 790 740Q793 728 785 717Q777 706 765 703Q753 700 743 707Q737 710 724 714.5Q711 719 684.5 723.5Q658 728 616.5 730.5Q575 733 513 733Q492 659 469.5 577Q447 495 424 411.5Q401 328 379 248.5Q357 169 338.5 100.5Q320 32 305.5 -21Q291 -74 284 -103Q334 -102 382 -96.5Q430 -91 468 -80Q479 -77 489.5 -83Q500 -89 504 -101Q507 -113 500.5 -124Q494 -135 482 -139ZM608 885Q600 880 589 880Q579 880 572 885Q567 888 563 894Q559 897 558 902Q556 907 556 912.5Q556 918 556 923Q557 934 564.5 942Q572 950 583 952Q596 954 608 945Q611 943 614.5 941.5Q618 940 621 937Q629 929 629.5 917Q630 905 623 896Q621 894 617.5 890.5Q614 887 608 885ZM466 884Q461 882 456.5 878Q452 874 438 874Q434 874 426 876Q419 878 415 882.5Q411 887 406 892Q398 907 405 922L412 935Q417 946 429 950Q441 954 452 949Q466 943 472.5 936Q479 929 482 919Q484 908 479.5 898.5Q475 889 466 884Z" glyph-name="Idieresis" horiz-adv-x="602" unicode="&#207;" /><glyph d="M295 -11Q297 4 299.5 26Q302 48 306 77Q313 125 322.5 192Q332 259 343 344Q355 426 366 504Q377 582 385 640Q342 639 300.5 637.5Q259 636 224.5 634.5Q190 633 165.5 631Q141 629 134 628Q130 626 123 626Q106 626 96 642Q90 653 94 665Q98 677 109 683Q111 684 114.5 685.5Q118 687 126.5 688.5Q135 690 151 691Q167 692 194 694Q226 696 264.5 697.5Q303 699 344 700Q354 700 366.5 700.5Q379 701 394 701Q396 719 397.5 730.5Q399 742 400 746Q402 758 411 765.5Q420 773 432 772Q444 771 452 762.5Q460 754 460 742V737Q458 729 457.5 720Q457 711 455 702Q479 702 503 701.5Q527 701 549 700Q571 699 589 697.5Q607 696 618 693Q630 690 636.5 679.5Q643 669 641 656Q638 644 627.5 637.5Q617 631 604 633Q585 638 542.5 639.5Q500 641 446 641Q438 582 429 517Q420 452 410.5 386.5Q401 321 392.5 258.5Q384 196 376.5 142Q369 88 363.5 45.5Q358 3 355 -22L527 -25Q540 -26 548.5 -34.5Q557 -43 557 -56Q556 -69 547.5 -77.5Q539 -86 526 -86L100 -78Q87 -78 78.5 -69Q70 -60 70 -47Q70 -35 79 -26Q88 -17 101 -17L293 -21ZM535 842Q527 837 516 837Q506 837 499 842Q494 845 490 851Q486 854 485 859Q483 864 483 869.5Q483 875 483 880Q484 891 491.5 899Q499 907 510 909Q523 911 535 902Q538 900 541.5 898.5Q545 897 548 894Q556 886 556.5 874Q557 862 550 853Q548 851 544.5 847.5Q541 844 535 842ZM393 841Q388 839 383.5 835Q379 831 365 831Q361 831 353 833Q346 835 342 839.5Q338 844 333 849Q325 864 332 879L339 892Q344 903 356 907Q368 911 379 906Q393 900 399.5 893Q406 886 409 876Q411 865 406.5 855.5Q402 846 393 841Z" glyph-name="Idieresis.alt1" horiz-adv-x="602" /><glyph d="M262 -14Q271 35 281 93.5Q291 152 302 214Q310 259 321 319.5Q332 380 344.5 445Q357 510 369.5 574Q382 638 393 690Q351 691 313 691Q275 691 245.5 691Q216 691 196.5 691Q177 691 171 690Q168 689 161 689Q153 691 145.5 696Q138 701 136 709Q131 720 136 731.5Q141 743 152 748Q155 749 162.5 750.5Q170 752 199 752.5Q228 753 286.5 753Q345 753 452 751Q500 750 546 749Q592 748 628.5 747.5Q665 747 687.5 746.5Q710 746 710 746Q723 746 731.5 736.5Q740 727 740 715Q740 702 731 693Q722 684 709 684Q653 686 587 687Q521 688 455 689Q443 635 429.5 566Q416 497 402 422Q388 347 374 270.5Q360 194 348.5 126Q337 58 327.5 3.5Q318 -51 313 -82Q353 -80 399.5 -78Q446 -76 502 -74Q514 -73 523.5 -81.5Q533 -90 534 -102Q534 -116 525.5 -125Q517 -134 504 -134Q456 -136 399.5 -139Q343 -142 287 -145H271Q229 -147 190.5 -149Q152 -151 121.5 -153Q91 -155 71 -156Q51 -157 46 -158Q44 -159 41 -158.5Q38 -158 36 -158Q16 -155 10 -137Q6 -125 12 -114Q18 -103 31 -99Q32 -98 37 -97.5Q42 -97 63.5 -95.5Q85 -94 129 -91.5Q173 -89 251 -85ZM577 841Q569 836 558 836Q548 836 541 841Q536 844 532 850Q528 853 527 858Q525 863 525 868.5Q525 874 525 879Q526 890 533.5 898Q541 906 552 908Q565 910 577 901Q580 899 583.5 897.5Q587 896 590 893Q598 885 598.5 873Q599 861 592 852Q590 850 586.5 846.5Q583 843 577 841ZM435 840Q430 838 425.5 834Q421 830 407 830Q403 830 395 832Q388 834 384 838.5Q380 843 375 848Q367 863 374 878L381 891Q386 902 398 906Q410 910 421 905Q435 899 441.5 892Q448 885 451 875Q453 864 448.5 854.5Q444 845 435 840Z" glyph-name="Idieresis.alt2" horiz-adv-x="602" /><glyph d="M482 -139Q435 -153 377.5 -158.5Q320 -164 262 -164.5Q204 -165 152 -162.5Q100 -160 65 -157Q44 -157 33.5 -156.5Q23 -156 17 -156Q-2 -153 -8 -134Q-10 -122 -3.5 -111Q3 -100 15 -96Q18 -95 21 -95Q24 -95 29.5 -95Q35 -95 44.5 -95.5Q54 -96 70 -97Q97 -99 136.5 -101Q176 -103 221 -103Q223 -99 223.5 -94.5Q224 -90 226 -85Q231 -67 237.5 -42Q244 -17 252 15Q267 69 288 143.5Q309 218 335 314Q353 382 371.5 448Q390 514 405.5 570.5Q421 627 432.5 669.5Q444 712 449 732Q406 730 367 728Q328 726 297 723Q266 720 245.5 717.5Q225 715 220 714Q215 713 212 713Q209 713 206 713Q198 715 191.5 720Q185 725 183 733Q178 745 183.5 756Q189 767 201 772Q207 775 232.5 778Q258 781 294 784Q330 787 372.5 789.5Q415 792 457 793Q708 802 776 759Q787 752 790 740Q793 728 785 717Q777 706 765 703Q753 700 743 707Q737 710 724 714.5Q711 719 684.5 723.5Q658 728 616.5 730.5Q575 733 513 733Q492 659 469.5 577Q447 495 424 411.5Q401 328 379 248.5Q357 169 338.5 100.5Q320 32 305.5 -21Q291 -74 284 -103Q334 -102 382 -96.5Q430 -91 468 -80Q479 -77 489.5 -83Q500 -89 504 -101Q507 -113 500.5 -124Q494 -135 482 -139ZM610 866Q608 855 599.5 847.5Q591 840 580 840Q578 840 577 840.5Q576 841 575 841Q518 851 477.5 883Q437 915 415 966Q410 978 415 989.5Q420 1001 431 1006Q443 1011 454.5 1006Q466 1001 471 990Q503 916 585 901Q598 899 605 888.5Q612 878 610 866Z" glyph-name="Igrave" horiz-adv-x="602" unicode="&#204;" /><glyph d="M295 -11Q297 4 299.5 26Q302 48 306 77Q313 125 322.5 192Q332 259 343 344Q355 426 366 504Q377 582 385 640Q342 639 300.5 637.5Q259 636 224.5 634.5Q190 633 165.5 631Q141 629 134 628Q130 626 123 626Q106 626 96 642Q90 653 94 665Q98 677 109 683Q111 684 114.5 685.5Q118 687 126.5 688.5Q135 690 151 691Q167 692 194 694Q226 696 264.5 697.5Q303 699 344 700Q354 700 366.5 700.5Q379 701 394 701Q396 719 397.5 730.5Q399 742 400 746Q402 758 411 765.5Q420 773 432 772Q444 771 452 762.5Q460 754 460 742V737Q458 729 457.5 720Q457 711 455 702Q479 702 503 701.5Q527 701 549 700Q571 699 589 697.5Q607 696 618 693Q630 690 636.5 679.5Q643 669 641 656Q638 644 627.5 637.5Q617 631 604 633Q585 638 542.5 639.5Q500 641 446 641Q438 582 429 517Q420 452 410.5 386.5Q401 321 392.5 258.5Q384 196 376.5 142Q369 88 363.5 45.5Q358 3 355 -22L527 -25Q540 -26 548.5 -34.5Q557 -43 557 -56Q556 -69 547.5 -77.5Q539 -86 526 -86L100 -78Q87 -78 78.5 -69Q70 -60 70 -47Q70 -35 79 -26Q88 -17 101 -17L293 -21ZM537 823Q535 812 526.5 804.5Q518 797 507 797Q505 797 504 797.5Q503 798 502 798Q445 808 404.5 840Q364 872 342 923Q337 935 342 946.5Q347 958 358 963Q370 968 381.5 963Q393 958 398 947Q430 873 512 858Q525 856 532 845.5Q539 835 537 823Z" glyph-name="Igrave.alt1" horiz-adv-x="602" /><glyph d="M262 -14Q271 35 281 93.5Q291 152 302 214Q310 259 321 319.5Q332 380 344.5 445Q357 510 369.5 574Q382 638 393 690Q351 691 313 691Q275 691 245.5 691Q216 691 196.5 691Q177 691 171 690Q168 689 161 689Q153 691 145.5 696Q138 701 136 709Q131 720 136 731.5Q141 743 152 748Q155 749 162.5 750.5Q170 752 199 752.5Q228 753 286.5 753Q345 753 452 751Q500 750 546 749Q592 748 628.5 747.5Q665 747 687.5 746.5Q710 746 710 746Q723 746 731.5 736.5Q740 727 740 715Q740 702 731 693Q722 684 709 684Q653 686 587 687Q521 688 455 689Q443 635 429.5 566Q416 497 402 422Q388 347 374 270.5Q360 194 348.5 126Q337 58 327.5 3.5Q318 -51 313 -82Q353 -80 399.5 -78Q446 -76 502 -74Q514 -73 523.5 -81.5Q533 -90 534 -102Q534 -116 525.5 -125Q517 -134 504 -134Q456 -136 399.5 -139Q343 -142 287 -145H271Q229 -147 190.5 -149Q152 -151 121.5 -153Q91 -155 71 -156Q51 -157 46 -158Q44 -159 41 -158.5Q38 -158 36 -158Q16 -155 10 -137Q6 -125 12 -114Q18 -103 31 -99Q32 -98 37 -97.5Q42 -97 63.5 -95.5Q85 -94 129 -91.5Q173 -89 251 -85ZM579 822Q577 811 568.5 803.5Q560 796 549 796Q547 796 546 796.5Q545 797 544 797Q487 807 446.5 839Q406 871 384 922Q379 934 384 945.5Q389 957 400 962Q412 967 423.5 962Q435 957 440 946Q472 872 554 857Q567 855 574 844.5Q581 834 579 822Z" glyph-name="Igrave.alt2" horiz-adv-x="602" /><glyph d="M485 16Q477 -7 467.5 -29.5Q458 -52 447 -75Q418 -139 380.5 -207Q343 -275 298 -335Q253 -395 200.5 -441.5Q148 -488 88 -509Q53 -521 21 -521Q-14 -521 -43 -506Q-72 -491 -89 -462Q-103 -438 -105 -408.5Q-107 -379 -97 -348Q-86 -316 -63 -283.5Q-40 -251 -6 -222Q51 -173 118 -143.5Q185 -114 257 -87Q293 -73 329 -60Q365 -47 400 -30Q411 -6 421 19.5Q431 45 441 71Q475 160 501.5 253.5Q528 347 545.5 433Q563 519 570.5 593.5Q578 668 573 719Q571 738 568 750.5Q565 763 561.5 770Q558 777 555 780Q552 783 551 783Q546 784 536 784Q513 784 487 773Q461 762 433.5 742Q406 722 378 693Q350 664 323 628Q290 584 264 535Q238 486 220 434.5Q202 383 192.5 331Q183 279 183 230Q183 171 195.5 116.5Q208 62 234 14Q240 3 236.5 -9Q233 -21 222 -27Q211 -33 198.5 -29.5Q186 -26 180 -15Q122 98 122 230Q122 284 132.5 340.5Q143 397 162.5 453Q182 509 210 563Q238 617 274 665Q337 751 406.5 798Q476 845 537 845Q543 845 549.5 845Q556 845 562 843Q624 832 634 725Q639 669 631.5 592Q624 515 606 425.5Q588 336 560.5 239.5Q533 143 498 49Q495 41 492 33Q489 25 485 16ZM68 -451Q143 -425 217.5 -338Q292 -251 361 -113Q340 -121 319.5 -128.5Q299 -136 279 -144Q210 -170 147.5 -197Q85 -224 34 -268Q13 -286 -4.5 -307.5Q-22 -329 -32.5 -350.5Q-43 -372 -45 -393Q-47 -414 -37 -431Q-20 -460 22 -460Q44 -460 68 -451Z" glyph-name="J" horiz-adv-x="682" unicode="J" /><glyph d="M472 93Q381 -184 220 -321Q147 -385 67 -396Q60 -397 53 -397Q46 -397 39 -397Q10 -397 -16.5 -389.5Q-43 -382 -66 -366Q-93 -347 -110 -320Q-127 -293 -134.5 -260.5Q-142 -228 -138.5 -192Q-135 -156 -121 -119Q-89 -32 -26 29.5Q37 91 127 125Q160 137 190 144Q220 151 242.5 154Q265 157 279 157.5Q293 158 294 158Q307 158 316 149Q325 140 325 127Q324 114 315.5 105.5Q307 97 294 97Q283 97 244.5 93.5Q206 90 146 67Q-8 8 -64 -140Q-85 -196 -76 -243Q-67 -290 -31 -316Q11 -345 68 -334Q125 -323 181 -275Q335 -143 420 131Q366 181 331 250Q303 308 291 374.5Q279 441 285 510Q290 572 309 626.5Q328 681 358 726Q427 827 535 850Q550 852 560 843Q572 835 572 820Q572 770 570 707.5Q568 645 562 575.5Q556 506 546 430.5Q536 355 520 278Q513 246 505.5 214.5Q498 183 490 154ZM461 290Q475 358 484 424.5Q493 491 499 553.5Q505 616 507.5 673Q510 730 511 778Q451 754 409 692Q383 654 367 606Q351 558 346 505Q341 445 351 386.5Q361 328 386 277Q409 231 439 198Q445 221 450.5 244Q456 267 461 290Z" glyph-name="J.alt1" horiz-adv-x="612" /><glyph d="M468 185Q495 257 517 332.5Q539 408 555 480Q571 552 580.5 618Q590 684 590 738Q590 779 587 802.5Q584 826 578.5 838Q573 850 566.5 852.5Q560 855 554 854Q536 851 511.5 837Q487 823 460 800.5Q433 778 406 748.5Q379 719 357 686Q350 675 338 672.5Q326 670 315 677Q304 684 301.5 696Q299 708 306 719Q330 755 360 788Q390 821 422 847.5Q454 874 485.5 891.5Q517 909 543 914Q579 921 604 904Q652 870 651 737Q650 681 641 612Q632 543 615.5 468.5Q599 394 576 316Q553 238 525 164L512 130Q491 76 461 12Q431 -52 392.5 -115Q354 -178 307 -233.5Q260 -289 206 -324Q181 -339 154 -350.5Q127 -362 102 -369.5Q77 -377 56 -381Q35 -385 23 -385Q-47 -385 -94 -347Q-139 -310 -149 -250Q-159 -190 -132 -119Q-96 -21 13 49Q95 100 219 134Q259 144 296 151.5Q333 159 365 163.5Q397 168 422.5 170Q448 172 463 173ZM438 110Q407 107 362.5 101Q318 95 267 83Q216 71 163 53Q110 35 63 8Q16 -19 -21 -55.5Q-58 -92 -76 -140Q-96 -193 -90.5 -234.5Q-85 -276 -55 -299Q-41 -311 -18.5 -318Q4 -325 33 -323.5Q62 -322 97 -310.5Q132 -299 173 -273Q243 -227 310.5 -129.5Q378 -32 438 110Z" glyph-name="J.alt2" horiz-adv-x="601" /><glyph d="M108 -150Q99 -163 83 -163Q73 -163 66 -157Q55 -150 53 -138Q51 -126 59 -115Q114 -37 157.5 47.5Q201 132 234 216Q267 300 288.5 380.5Q310 461 321.5 531Q333 601 333.5 657Q334 713 324 748Q322 755 321 761Q320 767 320 772Q320 791 329 801Q338 811 351 811Q363 811 375 801Q387 791 394 771Q399 757 402 722.5Q405 688 402 636.5Q399 585 388.5 519Q378 453 357 377Q420 394 488 430.5Q556 467 620 518Q689 573 738.5 633.5Q788 694 807 747Q812 759 823 764.5Q834 770 846 765Q858 761 863.5 749.5Q869 738 864 726Q842 665 788.5 598.5Q735 532 658 470Q586 413 509.5 373Q433 333 362 315Q367 254 384.5 187Q402 120 429 63Q461 -5 498 -41.5Q535 -78 570 -78Q606 -78 655.5 -41.5Q705 -5 758 67Q778 90 799 79Q809 74 814.5 61Q820 48 806 30Q742 -56 682 -97.5Q622 -139 570 -139Q516 -139 465.5 -94Q415 -49 374 36Q353 81 337 132.5Q321 184 311 235Q271 130 219 31.5Q167 -67 108 -150Z" glyph-name="K" horiz-adv-x="855" unicode="K" /><glyph d="M517 -231Q509 -241 496.5 -244Q484 -247 474 -239Q443 -217 423 -188.5Q403 -160 390.5 -126.5Q378 -93 372.5 -55Q367 -17 364 24Q361 77 356 129.5Q351 182 336 230Q320 280 294.5 315Q269 350 230 373Q217 317 201 258Q185 199 167 140.5Q149 82 130.5 25.5Q112 -31 95 -83Q90 -98 85 -113Q80 -128 75 -142Q72 -152 64 -157.5Q56 -163 46 -163Q40 -163 37 -162Q25 -157 19 -146Q13 -135 17 -123Q22 -109 27 -94Q32 -79 37 -64Q56 -8 76 54Q96 116 115 179.5Q134 243 151 306Q168 369 180 428Q187 463 193.5 508Q200 553 200 595Q200 637 191 670Q182 703 159 714Q147 719 143 731Q139 743 144 754Q149 765 161 769.5Q173 774 184 769Q252 737 259 631Q263 593 258.5 545.5Q254 498 243 438Q297 453 345 484Q393 515 434 553.5Q475 592 507.5 634.5Q540 677 564 716Q588 755 602 786Q616 817 619 833Q621 846 631.5 852.5Q642 859 655 857Q667 855 674 844.5Q681 834 679 821Q675 803 664.5 777Q654 751 637 720Q620 689 597.5 655.5Q575 622 547 588Q527 563 501.5 535.5Q476 508 445 482.5Q414 457 378.5 434Q343 411 303 395Q343 360 366 316Q389 272 401 223Q413 174 417.5 124Q422 74 425 27Q427 -8 431.5 -40Q436 -72 445.5 -100Q455 -128 470 -150.5Q485 -173 508 -189Q519 -197 522 -208.5Q525 -220 517 -231Z" glyph-name="K.alt1" horiz-adv-x="548" /><glyph d="M170 -127Q168 -138 159.5 -144.5Q151 -151 140 -151Q138 -151 136.5 -150.5Q135 -150 133 -150Q121 -147 114 -136Q107 -125 110 -113Q112 -105 120.5 -70.5Q129 -36 140.5 20.5Q152 77 166 152.5Q180 228 193.5 318.5Q207 409 218.5 511.5Q230 614 237 724Q238 737 247 745.5Q256 754 269 753Q282 752 290 742.5Q298 733 297 720Q291 624 281.5 533.5Q272 443 260 359Q276 368 304 384.5Q332 401 366.5 424Q401 447 439 475.5Q477 504 514 536.5Q551 569 584 605Q617 641 641 679Q648 690 660 692.5Q672 695 683 688Q694 681 697 669Q700 657 693 646Q655 586 590.5 524Q526 462 436 398Q392 368 356 346Q320 324 298 311Q309 291 326.5 258.5Q344 226 366.5 187.5Q389 149 414.5 107.5Q440 66 466.5 27.5Q493 -11 519.5 -43.5Q546 -76 570 -96Q580 -104 581 -116.5Q582 -129 574 -138Q566 -149 550 -149Q538 -149 531 -142Q505 -121 477.5 -87.5Q450 -54 423 -15.5Q396 23 369.5 65Q343 107 320 146Q297 185 278.5 218.5Q260 252 248 275Q220 98 198.5 1Q177 -96 170 -127Z" glyph-name="K.alt2" horiz-adv-x="668" /><glyph d="M263 -82Q231 -82 201 -77Q171 -72 143 -59Q134 -55 128.5 -46Q123 -37 125 -27Q134 33 146 101.5Q158 170 172 245Q185 318 199 393Q213 468 224.5 534.5Q236 601 241.5 653Q247 705 244 733Q242 745 250 755Q258 765 271 767Q283 769 292.5 761Q302 753 304 740Q308 709 302.5 655.5Q297 602 286 534.5Q275 467 260.5 389.5Q246 312 232 234Q220 168 209 105.5Q198 43 189 -11Q239 -25 298 -19Q357 -13 414 -3Q437 1 459 4.5Q481 8 502 10Q515 12 524.5 4Q534 -4 535 -17Q537 -30 529 -39.5Q521 -49 508 -50Q488 -52 467.5 -55.5Q447 -59 424 -63Q385 -70 344.5 -76Q304 -82 263 -82Z" glyph-name="L" horiz-adv-x="528" unicode="L" /><glyph d="M389 -145Q370 -147 352 -148.5Q334 -150 316 -153Q283 -156 253.5 -158Q224 -160 198.5 -158.5Q173 -157 153 -151.5Q133 -146 120 -135Q99 -118 97 -91Q96 -73 103.5 -33.5Q111 6 123 59Q135 112 150.5 174.5Q166 237 181 300Q186 321 194.5 356.5Q203 392 214 434Q225 476 237 521Q249 566 261 606.5Q273 647 284 678.5Q295 710 304 725Q310 736 322 739.5Q334 743 345 737Q356 731 359.5 718.5Q363 706 357 695Q349 682 337 646.5Q325 611 310 557.5Q295 504 277.5 435Q260 366 241 286Q224 214 208.5 152Q193 90 181.5 42Q170 -6 163.5 -38.5Q157 -71 158 -84Q158 -86 160 -87Q164 -90 179.5 -95Q195 -100 238 -98Q270 -96 308 -92.5Q346 -89 384 -84Q410 -80 436 -77Q462 -74 486 -71Q499 -70 508 -78Q517 -86 518 -99Q519 -112 510 -121.5Q501 -131 488 -132Q465 -135 440 -138Q415 -141 389 -145Z" glyph-name="L.alt1" horiz-adv-x="509" /><glyph d="M392 -88Q298 -88 243.5 -68.5Q189 -49 167 -9Q142 36 146 137Q150 238 182 390Q196 457 211.5 519Q227 581 239.5 628.5Q252 676 261 704.5Q270 733 270 733Q274 745 285 751Q296 757 308 753Q320 749 326 738Q332 727 328 715Q316 676 299 618Q282 560 265 493Q248 426 233 355Q218 284 210.5 219.5Q203 155 204 102.5Q205 50 221 19Q224 14 232 6Q240 -2 259 -9.5Q278 -17 310 -22Q342 -27 392 -27Q452 -27 493.5 -22.5Q535 -18 547 -16Q560 -14 570 -21.5Q580 -29 582 -41Q584 -54 576.5 -64Q569 -74 557 -76Q540 -79 499.5 -83.5Q459 -88 396 -88Z" glyph-name="L.alt2" horiz-adv-x="583" /><glyph d="M839 -287Q831 -290 825 -290Q806 -290 798 -273Q778 -232 775.5 -159Q773 -86 790 28Q804 124 825.5 229Q847 334 868 432Q883 501 896.5 564Q910 627 919 678Q924 710 926.5 732Q929 754 930 768Q918 752 899 723Q880 694 850.5 645.5Q821 597 780.5 526.5Q740 456 685 357Q642 280 603.5 209.5Q565 139 535.5 83.5Q506 28 487 -8Q468 -44 464 -51Q459 -61 449 -65Q439 -69 428 -66Q417 -62 411 -53Q405 -44 407 -33Q408 -26 411 4Q414 34 418.5 80Q423 126 427.5 185Q432 244 437 309Q444 405 446.5 470.5Q449 536 449 579Q449 622 446.5 645Q444 668 442 679Q431 672 408.5 647Q386 622 351 562Q320 508 285 433Q250 358 211 263Q178 182 149 103.5Q120 25 98.5 -36.5Q77 -98 64 -136Q51 -174 51 -175Q47 -187 36 -193Q25 -199 13 -195Q1 -191 -5 -180Q-11 -169 -7 -157Q-7 -156 6 -117.5Q19 -79 41 -16.5Q63 46 92.5 125Q122 204 155 286Q196 388 230.5 461.5Q265 535 294 586Q323 637 347 668Q371 699 390.5 716.5Q410 734 426 739.5Q442 745 455 745Q473 745 485 731Q491 725 495.5 714.5Q500 704 503 686Q506 668 508 640Q510 612 510 571Q510 522 507 457.5Q504 393 499 314Q495 260 491 209Q487 158 483 113Q515 174 556.5 250.5Q598 327 643 408Q696 502 739 576Q782 650 815 704Q835 736 851.5 761.5Q868 787 881 804Q901 831 914.5 842Q928 853 942 853Q962 853 976 836Q988 822 990.5 794Q993 766 986.5 717.5Q980 669 965.5 596Q951 523 928 419Q915 359 901 293Q887 227 874.5 161.5Q862 96 852.5 33Q843 -30 839 -84Q835 -138 837.5 -180Q840 -222 852 -246Q858 -257 854 -269Q850 -281 839 -287Z" glyph-name="M" horiz-adv-x="972" unicode="M" /><glyph d="M476 214Q482 367 479.5 465.5Q477 564 471 622.5Q465 681 457.5 707Q450 733 446 741Q438 734 421 710Q404 686 375 629Q350 578 321.5 513Q293 448 264 370Q235 296 209.5 221.5Q184 147 164 80.5Q144 14 130 -40.5Q116 -95 111 -129Q109 -142 99 -149.5Q89 -157 77 -155Q64 -153 56.5 -143.5Q49 -134 51 -121Q56 -84 70.5 -25.5Q85 33 107 104Q129 175 156.5 254Q184 333 214 411Q246 492 275.5 559.5Q305 627 331 677Q353 719 370.5 744.5Q388 770 402 783.5Q416 797 427 801.5Q438 806 448 806Q456 806 465.5 802.5Q475 799 486 788Q501 772 511 740.5Q521 709 527 669Q533 629 535.5 584Q538 539 539 497Q541 443 540.5 391Q540 339 539 297Q551 314 563.5 332.5Q576 351 589 371Q613 407 640 446.5Q667 486 695 526.5Q723 567 751.5 607Q780 647 807 684Q853 748 884 784.5Q915 821 934.5 839.5Q954 858 966 863Q978 868 987 868Q1016 868 1034 844Q1048 825 1049.5 792.5Q1051 760 1041 711.5Q1031 663 1012 597.5Q993 532 967 448Q943 370 918 285Q893 200 876.5 122Q860 44 855 -21.5Q850 -87 867 -127Q872 -139 867 -150.5Q862 -162 851 -167Q845 -170 839 -170Q830 -170 822.5 -164.5Q815 -159 811 -151Q791 -103 794 -33Q797 37 813.5 119.5Q830 202 856 291Q882 380 909 466Q929 531 947 590.5Q965 650 976 699Q988 752 988 775Q988 798 987 804Q982 801 972.5 791.5Q963 782 946.5 763Q930 744 905 713Q880 682 846 635Q820 600 793.5 561.5Q767 523 740.5 484.5Q714 446 688.5 408Q663 370 640 336Q617 303 597.5 274.5Q578 246 564 225Q556 214 550.5 206Q545 198 541 192Q534 184 524 175Q514 166 497 171Q475 178 475 201Z" glyph-name="M.alt1" horiz-adv-x="1010" /><glyph d="M1179 -220Q1179 -233 1170 -241.5Q1161 -250 1148 -250Q1030 -250 969 -171Q938 -131 924 -76Q910 -21 908.5 43Q907 107 915 178Q923 249 936.5 320Q950 391 967 459Q984 527 999 587Q1008 625 1017.5 662.5Q1027 700 1032 728Q1018 711 997.5 679.5Q977 648 947 596Q905 526 861.5 444.5Q818 363 777 286Q729 196 700 143Q671 90 653.5 63Q636 36 625.5 28Q615 20 604 20Q592 20 580 30Q574 37 570 50Q566 63 565 93.5Q564 124 565 177.5Q566 231 569 320Q571 387 573 458.5Q575 530 575 592Q574 650 571.5 681.5Q569 713 566 727Q555 716 536 688Q517 660 485 601Q456 547 422.5 475Q389 403 350 312Q317 235 287 161.5Q257 88 234.5 30Q212 -28 198.5 -63Q185 -98 185 -99Q180 -110 170 -115.5Q160 -121 148 -117Q137 -114 130.5 -104Q124 -94 126 -83Q146 35 162.5 151Q179 267 182 363Q184 428 179 469Q174 510 166 534Q158 558 147.5 567.5Q137 577 129 579Q117 582 110.5 593Q104 604 108 616Q111 629 122 635Q133 641 145 638Q186 627 208 587.5Q230 548 238.5 487.5Q247 427 243 348Q239 269 228 178Q245 220 263 263.5Q281 307 301 352Q342 446 377 520.5Q412 595 442 649Q469 698 489.5 727.5Q510 757 526 772.5Q542 788 554 793Q566 798 576 798Q593 798 606 785Q618 773 624.5 742.5Q631 712 633.5 657Q636 602 635 519Q634 436 630 318Q628 271 627 222Q626 173 625 134Q646 170 671.5 218.5Q697 267 723 315Q766 396 812.5 482.5Q859 569 903 641Q936 697 960 732Q984 767 1002 786.5Q1020 806 1033 813Q1046 820 1058 820Q1077 820 1088 805Q1096 795 1098 779.5Q1100 764 1096 737.5Q1092 711 1082.5 670.5Q1073 630 1058 572Q1044 519 1028.5 455.5Q1013 392 999.5 324.5Q986 257 977.5 190Q969 123 969 62Q969 1 980 -49.5Q991 -100 1017 -134Q1060 -189 1148 -189Q1161 -189 1170 -198Q1179 -207 1179 -220Z" glyph-name="M.alt2" horiz-adv-x="1128" /><glyph d="M102 -143Q97 -168 72 -168Q68 -168 67 -167Q54 -165 47 -155Q40 -145 42 -132Q52 -74 67 -5Q82 64 100 138Q118 212 138 287.5Q158 363 178 434Q199 506 218 565.5Q237 625 254 668Q279 732 296.5 756.5Q314 781 336 781Q355 781 366 766.5Q377 752 385 735Q391 721 399 701Q407 681 416 654Q433 605 453 541Q473 477 494 407Q520 325 545 244.5Q570 164 594 95Q619 25 634 -8.5Q649 -42 657 -55Q663 -44 674.5 -18.5Q686 7 702 56Q718 105 739.5 182Q761 259 787 372Q806 455 822.5 532.5Q839 610 850.5 672.5Q862 735 868 777.5Q874 820 873 834Q873 847 881 856Q889 865 902 866Q915 867 924 858.5Q933 850 934 837Q935 818 928 768.5Q921 719 909 653Q897 587 881 512.5Q865 438 849 368Q829 281 809 206Q789 131 771 72Q756 23 744 -9Q732 -41 722.5 -61Q713 -81 705.5 -91.5Q698 -102 693 -108Q676 -125 658 -125Q638 -125 619 -105Q600 -85 576 -28.5Q552 28 518.5 128Q485 228 436 389Q416 452 398.5 510Q381 568 365 615Q354 647 346.5 667Q339 687 334 700Q319 669 292.5 596Q266 523 229 390Q209 321 190.5 250Q172 179 155.5 110Q139 41 125.5 -23.5Q112 -88 102 -143Z" glyph-name="N" horiz-adv-x="906" unicode="N" /><glyph d="M316 760Q327 760 336 753.5Q345 747 347 736Q348 729 355 694Q362 659 373.5 605Q385 551 401 482.5Q417 414 436 340Q459 253 480.5 184.5Q502 116 522 65Q538 25 550.5 1.5Q563 -22 572 -34.5Q581 -47 586.5 -50.5Q592 -54 593 -54Q594 -54 599 -50.5Q604 -47 612.5 -34.5Q621 -22 633.5 2.5Q646 27 660.5 69.5Q675 112 692.5 174Q710 236 730 325Q746 400 759.5 472.5Q773 545 782.5 604.5Q792 664 797 705Q802 746 802 758Q802 771 811 780Q820 789 832 789Q845 789 854 780Q863 771 863 758Q863 743 857.5 698Q852 653 842 590Q832 527 818 452.5Q804 378 787 303Q768 215 748.5 146Q729 77 709 26Q681 -47 653 -81Q625 -115 592 -115Q574 -115 552.5 -101Q531 -87 505 -42Q479 3 448 88Q417 173 380 315Q363 381 347.5 444.5Q332 508 321 562Q310 502 296.5 438.5Q283 375 265 307Q190 18 76 -152Q66 -165 50 -165Q42 -165 34 -160Q23 -152 20.5 -140Q18 -128 25 -118Q69 -53 104 25.5Q139 104 166 186.5Q193 269 213.5 351Q234 433 248.5 506Q263 579 272 638Q281 697 287 734Q289 745 297 752.5Q305 760 316 760Z" glyph-name="N.alt1" horiz-adv-x="866" /><glyph d="M154 -84Q152 -95 143.5 -102Q135 -109 124 -109Q122 -109 121 -108.5Q120 -108 118 -108Q106 -106 99 -95.5Q92 -85 94 -72L245 675Q250 698 273 700Q290 701 302.5 692Q315 683 325 667.5Q335 652 342 631.5Q349 611 355 589Q366 547 376.5 492.5Q387 438 398 378Q412 305 426 233Q440 161 457 101Q469 59 480 33.5Q491 8 500 -5.5Q509 -19 515.5 -23.5Q522 -28 525 -29Q547 -35 570 -18Q601 4 625.5 55Q650 106 669.5 169Q689 232 702.5 298Q716 364 724 415Q736 484 743.5 549Q751 614 756 663.5Q761 713 763 743.5Q765 774 765 774Q766 787 775.5 795.5Q785 804 798 803Q810 802 818.5 793Q827 784 826 771Q826 770 824 739.5Q822 709 817 658Q812 607 804 541Q796 475 784 405Q770 321 754 251.5Q738 182 720 126Q671 -21 606 -68Q561 -101 509 -87Q477 -79 452.5 -43.5Q428 -8 408.5 50.5Q389 109 372.5 189Q356 269 338 367Q328 420 319 468Q310 516 301 554Q298 565 295.5 574.5Q293 584 290 592L154 -84Z" glyph-name="N.alt2" horiz-adv-x="844" /><glyph glyph-name="NULL" horiz-adv-x="325" /><glyph d="M102 -143Q97 -168 72 -168Q68 -168 67 -167Q54 -165 47 -155Q40 -145 42 -132Q52 -74 67 -5Q82 64 100 138Q118 212 138 287.5Q158 363 178 434Q199 506 218 565.5Q237 625 254 668Q279 732 296.5 756.5Q314 781 336 781Q355 781 366 766.5Q377 752 385 735Q391 721 399 701Q407 681 416 654Q433 605 453 541Q473 477 494 407Q520 325 545 244.5Q570 164 594 95Q619 25 634 -8.5Q649 -42 657 -55Q663 -44 674.5 -18.5Q686 7 702 56Q718 105 739.5 182Q761 259 787 372Q806 455 822.5 532.5Q839 610 850.5 672.5Q862 735 868 777.5Q874 820 873 834Q873 847 881 856Q889 865 902 866Q915 867 924 858.5Q933 850 934 837Q935 818 928 768.5Q921 719 909 653Q897 587 881 512.5Q865 438 849 368Q829 281 809 206Q789 131 771 72Q756 23 744 -9Q732 -41 722.5 -61Q713 -81 705.5 -91.5Q698 -102 693 -108Q676 -125 658 -125Q638 -125 619 -105Q600 -85 576 -28.5Q552 28 518.5 128Q485 228 436 389Q416 452 398.5 510Q381 568 365 615Q354 647 346.5 667Q339 687 334 700Q319 669 292.5 596Q266 523 229 390Q209 321 190.5 250Q172 179 155.5 110Q139 41 125.5 -23.5Q112 -88 102 -143ZM732 878Q726 871 713 860Q700 849 684.5 839.5Q669 830 653 823.5Q637 817 624 819Q610 821 597.5 830Q585 839 573 850Q568 855 566 855.5Q564 856 562 857Q557 855 546 848.5Q535 842 527 831Q518 822 508 821Q493 819 484 827Q474 835 472.5 847.5Q471 860 479 870Q500 896 522 906Q544 916 558 917Q578 919 598.5 906Q619 893 634 879Q645 882 659 891.5Q673 901 681 913Q689 923 701.5 925.5Q714 928 724 920Q735 913 737 901Q739 889 732 878Z" glyph-name="Ntilde" horiz-adv-x="906" unicode="&#209;" /><glyph d="M316 760Q327 760 336 753.5Q345 747 347 736Q348 729 355 694Q362 659 373.5 605Q385 551 401 482.5Q417 414 436 340Q459 253 480.5 184.5Q502 116 522 65Q538 25 550.5 1.5Q563 -22 572 -34.5Q581 -47 586.5 -50.5Q592 -54 593 -54Q594 -54 599 -50.5Q604 -47 612.5 -34.5Q621 -22 633.5 2.5Q646 27 660.5 69.5Q675 112 692.5 174Q710 236 730 325Q746 400 759.5 472.5Q773 545 782.5 604.5Q792 664 797 705Q802 746 802 758Q802 771 811 780Q820 789 832 789Q845 789 854 780Q863 771 863 758Q863 743 857.5 698Q852 653 842 590Q832 527 818 452.5Q804 378 787 303Q768 215 748.5 146Q729 77 709 26Q681 -47 653 -81Q625 -115 592 -115Q574 -115 552.5 -101Q531 -87 505 -42Q479 3 448 88Q417 173 380 315Q363 381 347.5 444.5Q332 508 321 562Q310 502 296.5 438.5Q283 375 265 307Q190 18 76 -152Q66 -165 50 -165Q42 -165 34 -160Q23 -152 20.5 -140Q18 -128 25 -118Q69 -53 104 25.5Q139 104 166 186.5Q193 269 213.5 351Q234 433 248.5 506Q263 579 272 638Q281 697 287 734Q289 745 297 752.5Q305 760 316 760ZM732 878Q726 871 713 860Q700 849 684.5 839.5Q669 830 653 823.5Q637 817 624 819Q610 821 597.5 830Q585 839 573 850Q568 855 566 855.5Q564 856 562 857Q557 855 546 848.5Q535 842 527 831Q518 822 508 821Q493 819 484 827Q474 835 472.5 847.5Q471 860 479 870Q500 896 522 906Q544 916 558 917Q578 919 598.5 906Q619 893 634 879Q645 882 659 891.5Q673 901 681 913Q689 923 701.5 925.5Q714 928 724 920Q735 913 737 901Q739 889 732 878Z" glyph-name="Ntilde.alt1" horiz-adv-x="866" /><glyph d="M154 -84Q152 -95 143.5 -102Q135 -109 124 -109Q122 -109 121 -108.5Q120 -108 118 -108Q106 -106 99 -95.5Q92 -85 94 -72L245 675Q250 698 273 700Q290 701 302.5 692Q315 683 325 667.5Q335 652 342 631.5Q349 611 355 589Q366 547 376.5 492.5Q387 438 398 378Q412 305 426 233Q440 161 457 101Q469 59 480 33.5Q491 8 500 -5.5Q509 -19 515.5 -23.5Q522 -28 525 -29Q547 -35 570 -18Q601 4 625.5 55Q650 106 669.5 169Q689 232 702.5 298Q716 364 724 415Q736 484 743.5 549Q751 614 756 663.5Q761 713 763 743.5Q765 774 765 774Q766 787 775.5 795.5Q785 804 798 803Q810 802 818.5 793Q827 784 826 771Q826 770 824 739.5Q822 709 817 658Q812 607 804 541Q796 475 784 405Q770 321 754 251.5Q738 182 720 126Q671 -21 606 -68Q561 -101 509 -87Q477 -79 452.5 -43.5Q428 -8 408.5 50.5Q389 109 372.5 189Q356 269 338 367Q328 420 319 468Q310 516 301 554Q298 565 295.5 574.5Q293 584 290 592L154 -84ZM699 870Q693 863 680 852Q667 841 651.5 831.5Q636 822 620 815.5Q604 809 591 811Q577 813 564.5 822Q552 831 540 842Q535 847 533 847.5Q531 848 529 849Q524 847 513 840.5Q502 834 494 823Q485 814 475 813Q460 811 451 819Q441 827 439.5 839.5Q438 852 446 862Q467 888 489 898Q511 908 525 909Q545 911 565.5 898Q586 885 601 871Q612 874 626 883.5Q640 893 648 905Q656 915 668.5 917.5Q681 920 691 912Q702 905 704 893Q706 881 699 870Z" glyph-name="Ntilde.alt2" horiz-adv-x="844" /><glyph d="M645 19Q590 -61 524.5 -102Q459 -143 387 -143Q361 -143 332 -138.5Q303 -134 275 -121Q247 -108 222 -86Q197 -64 179 -28Q167 -4 158 32.5Q149 69 149 122Q149 167 157.5 224.5Q166 282 188 354Q204 408 223.5 457.5Q243 507 263.5 549.5Q284 592 304 626Q324 660 341 682Q391 748 447 781.5Q503 815 561 815Q567 815 573.5 814.5Q580 814 586 813Q644 805 691 765Q738 725 764 661Q788 598 788 504Q788 468 785 430Q782 392 774 351Q757 256 723.5 170.5Q690 85 645 19ZM578 752Q573 753 569 753.5Q565 754 561 754Q517 754 473.5 726.5Q430 699 390 645Q375 625 356 593.5Q337 562 318 522Q299 482 280.5 435Q262 388 247 337Q228 275 219 220.5Q210 166 210 119Q210 47 233 -1Q273 -82 387 -82Q423 -82 453.5 -69.5Q484 -57 510.5 -37.5Q537 -18 558 6.5Q579 31 595 54Q623 95 647.5 149Q672 203 690 262.5Q708 322 718 383.5Q728 445 728 502Q728 540 723 574.5Q718 609 707 638Q687 686 653.5 716.5Q620 747 578 752Z" glyph-name="O" horiz-adv-x="826" unicode="O" /><glyph d="M356 -188Q328 -188 300 -182Q208 -164 161 -83Q141 -48 130.5 -5Q120 38 120 92Q120 152 133 217Q146 282 169.5 345.5Q193 409 226 468Q259 527 299 574.5Q339 622 385.5 654Q432 686 483 697Q503 702 530 700.5Q557 699 582 679Q599 666 609.5 649.5Q620 633 625.5 617.5Q631 602 632.5 590.5Q634 579 634 576Q635 564 627 554.5Q619 545 606 544Q593 543 583.5 551Q574 559 573 572Q573 576 571.5 583.5Q570 591 566.5 600Q563 609 558 617Q553 625 545 631Q528 644 495 638Q438 626 381.5 573.5Q325 521 277 436Q254 395 236.5 351.5Q219 308 206.5 263.5Q194 219 187.5 175.5Q181 132 181 92Q181 35 193 -4Q205 -43 224 -68Q243 -93 266.5 -105.5Q290 -118 312 -123Q331 -127 355 -127Q420 -127 488 -92.5Q556 -58 622 10Q658 47 689.5 91Q721 135 746.5 182Q772 229 790.5 278Q809 327 819 375Q830 428 830 473Q830 548 803 604Q755 704 624 733Q612 735 605 745.5Q598 756 601 769Q603 781 613.5 788Q624 795 637 792Q761 766 826 683.5Q891 601 891 475Q891 421 879 363Q857 257 800.5 153Q744 49 665 -32Q590 -109 511.5 -148.5Q433 -188 356 -188Z" glyph-name="O.alt1" horiz-adv-x="932" /><glyph d="M556 -215Q531 -219 507.5 -221Q484 -223 461 -223Q304 -223 213 -135Q164 -88 138 -22Q112 44 112 129Q112 148 113 167Q114 186 117 206Q133 323 180 425Q227 527 297 611Q365 691 447 744.5Q529 798 622 821Q634 824 644.5 817.5Q655 811 659 799Q662 787 655.5 776Q649 765 637 762Q554 741 479.5 692.5Q405 644 344 571Q279 495 235.5 401Q192 307 177 198Q175 180 173.5 163.5Q172 147 172 130Q172 58 193.5 2.5Q215 -53 255 -91Q329 -162 460 -162Q481 -162 502.5 -160.5Q524 -159 547 -155Q640 -141 720.5 -80Q801 -19 856 79Q894 147 912.5 220.5Q931 294 931 366Q931 466 898 552Q880 598 851.5 629.5Q823 661 784 673Q687 701 572 614Q561 606 549 608Q537 610 529 620Q521 631 523 643Q525 655 535 663Q579 696 618 713Q657 730 690.5 736Q724 742 752 739.5Q780 737 801 731Q855 714 893.5 673.5Q932 633 955 573Q974 525 983 473Q992 421 992 367Q992 286 971.5 205Q951 124 909 49Q847 -61 755 -129.5Q663 -198 556 -215Z" glyph-name="O.alt2" horiz-adv-x="1044" /><glyph d="M1064 -132Q1061 -133 1041.5 -140Q1022 -147 992 -154.5Q962 -162 924.5 -168Q887 -174 849 -174Q822 -174 795.5 -170Q769 -166 746 -156Q723 -146 704 -129.5Q685 -113 672 -88Q660 -65 655 -36Q650 -7 650 27Q648 25 647.5 23Q647 21 645 19Q590 -61 524.5 -102Q459 -143 387 -143Q361 -143 332 -138.5Q303 -134 275 -121Q247 -108 222 -86Q197 -64 179 -28Q168 -6 159 27.5Q150 61 149 107.5Q148 154 156.5 215Q165 276 188 354Q204 408 223.5 457.5Q243 507 263.5 549.5Q284 592 304 626Q324 660 341 682Q396 754 459 787.5Q522 821 586 813Q644 805 691 764.5Q738 724 764 660Q782 611 787 546Q798 573 808 600Q818 627 829 653Q843 690 854 718Q865 746 870 762Q873 773 882 779Q891 785 902 783Q905 784 909 784Q913 784 919 786Q948 790 1003 796.5Q1058 803 1123 806.5Q1188 810 1256 807Q1324 804 1378 789Q1390 786 1396 775Q1402 764 1399 752Q1396 740 1385 733.5Q1374 727 1362 731Q1312 744 1248.5 746.5Q1185 749 1123 745.5Q1061 742 1008 736Q955 730 927 726L922 725Q915 708 905.5 684Q896 660 885 631Q866 583 841.5 520Q817 457 793 387Q818 391 854.5 395.5Q891 400 933 403Q975 406 1020.5 406Q1066 406 1110 401Q1123 399 1131 389.5Q1139 380 1137 368Q1135 355 1125.5 347Q1116 339 1103 341Q1053 347 1000.5 345.5Q948 344 902 339.5Q856 335 821 329.5Q786 324 772 321Q754 263 739.5 206.5Q725 150 717.5 99.5Q710 49 711 7.5Q712 -34 726 -61Q738 -84 761 -96Q784 -108 813 -112Q842 -116 875 -113Q908 -110 939 -104Q970 -98 997.5 -90Q1025 -82 1043 -75Q1054 -70 1065.5 -75.5Q1077 -81 1082 -93Q1087 -105 1081.5 -116Q1076 -127 1064 -132ZM578 752Q573 753 569 753.5Q565 754 561 754Q517 754 473.5 726.5Q430 699 390 645Q375 625 356 593.5Q337 562 318 522Q299 482 280.5 435Q262 388 247 337Q214 226 210.5 139.5Q207 53 233 -1Q273 -82 387 -82Q423 -82 453.5 -69.5Q484 -57 510.5 -37.5Q537 -18 558 6.5Q579 31 595 54Q620 90 642 137Q664 184 681.5 236Q699 288 710.5 343Q722 398 726.5 451Q731 504 726.5 552Q722 600 707 638Q687 686 653.5 716.5Q620 747 578 752Z" glyph-name="OE" horiz-adv-x="1229" unicode="&#338;" /><glyph d="M1064 -132Q1061 -133 1041.5 -140Q1022 -147 992 -154.5Q962 -162 924.5 -168Q887 -174 849 -174Q822 -174 795.5 -170Q769 -166 746 -156Q723 -146 704 -129.5Q685 -113 672 -88Q660 -65 655 -36Q650 -7 650 27Q648 25 647.5 23Q647 21 645 19Q590 -61 524.5 -102Q459 -143 387 -143Q361 -143 332 -138.5Q303 -134 275 -121Q247 -108 222 -86Q197 -64 179 -28Q168 -6 159 27.5Q150 61 149 107.5Q148 154 156.5 215Q165 276 188 354Q204 408 223.5 457.5Q243 507 263.5 549.5Q284 592 304 626Q324 660 341 682Q396 754 459 787.5Q522 821 586 813Q644 805 691 764.5Q738 724 764 660Q782 611 787 546Q798 573 808 600Q818 627 829 653Q843 690 854 718Q865 746 870 762Q873 773 882 779Q891 785 902 783Q905 784 909 784Q913 784 919 786Q948 790 1003 796.5Q1058 803 1123 806.5Q1188 810 1256 807Q1324 804 1378 789Q1390 786 1396 775Q1402 764 1399 752Q1396 740 1385 733.5Q1374 727 1362 731Q1312 744 1248.5 746.5Q1185 749 1123 745.5Q1061 742 1008 736Q955 730 927 726L922 725Q915 708 905.5 684Q896 660 885 631Q866 583 841.5 520Q817 457 793 387Q818 391 854.5 395.5Q891 400 933 403Q975 406 1020.5 406Q1066 406 1110 401Q1123 399 1131 389.5Q1139 380 1137 368Q1135 355 1125.5 347Q1116 339 1103 341Q1053 347 1000.5 345.5Q948 344 902 339.5Q856 335 821 329.5Q786 324 772 321Q754 263 739.5 206.5Q725 150 717.5 99.5Q710 49 711 7.5Q712 -34 726 -61Q738 -84 761 -96Q784 -108 813 -112Q842 -116 875 -113Q908 -110 939 -104Q970 -98 997.5 -90Q1025 -82 1043 -75Q1054 -70 1065.5 -75.5Q1077 -81 1082 -93Q1087 -105 1081.5 -116Q1076 -127 1064 -132ZM578 752Q573 753 569 753.5Q565 754 561 754Q517 754 473.5 726.5Q430 699 390 645Q375 625 356 593.5Q337 562 318 522Q299 482 280.5 435Q262 388 247 337Q214 226 210.5 139.5Q207 53 233 -1Q273 -82 387 -82Q423 -82 453.5 -69.5Q484 -57 510.5 -37.5Q537 -18 558 6.5Q579 31 595 54Q620 90 642 137Q664 184 681.5 236Q699 288 710.5 343Q722 398 726.5 451Q731 504 726.5 552Q722 600 707 638Q687 686 653.5 716.5Q620 747 578 752Z" glyph-name="OE.alt1" horiz-adv-x="1229" /><glyph d="M1064 -132Q1061 -133 1041.5 -140Q1022 -147 992 -154.5Q962 -162 924.5 -168Q887 -174 849 -174Q822 -174 795.5 -170Q769 -166 746 -156Q723 -146 704 -129.5Q685 -113 672 -88Q660 -65 655 -36Q650 -7 650 27Q648 25 647.5 23Q647 21 645 19Q590 -61 524.5 -102Q459 -143 387 -143Q361 -143 332 -138.5Q303 -134 275 -121Q247 -108 222 -86Q197 -64 179 -28Q168 -6 159 27.5Q150 61 149 107.5Q148 154 156.5 215Q165 276 188 354Q204 408 223.5 457.5Q243 507 263.5 549.5Q284 592 304 626Q324 660 341 682Q396 754 459 787.5Q522 821 586 813Q644 805 691 764.5Q738 724 764 660Q782 611 787 546Q798 573 808 600Q818 627 829 653Q843 690 854 718Q865 746 870 762Q873 773 882 779Q891 785 902 783Q905 784 909 784Q913 784 919 786Q948 790 1003 796.5Q1058 803 1123 806.5Q1188 810 1256 807Q1324 804 1378 789Q1390 786 1396 775Q1402 764 1399 752Q1396 740 1385 733.5Q1374 727 1362 731Q1312 744 1248.5 746.5Q1185 749 1123 745.5Q1061 742 1008 736Q955 730 927 726L922 725Q915 708 905.5 684Q896 660 885 631Q866 583 841.5 520Q817 457 793 387Q818 391 854.5 395.5Q891 400 933 403Q975 406 1020.5 406Q1066 406 1110 401Q1123 399 1131 389.5Q1139 380 1137 368Q1135 355 1125.5 347Q1116 339 1103 341Q1053 347 1000.5 345.5Q948 344 902 339.5Q856 335 821 329.5Q786 324 772 321Q754 263 739.5 206.5Q725 150 717.5 99.5Q710 49 711 7.5Q712 -34 726 -61Q738 -84 761 -96Q784 -108 813 -112Q842 -116 875 -113Q908 -110 939 -104Q970 -98 997.5 -90Q1025 -82 1043 -75Q1054 -70 1065.5 -75.5Q1077 -81 1082 -93Q1087 -105 1081.5 -116Q1076 -127 1064 -132ZM578 752Q573 753 569 753.5Q565 754 561 754Q517 754 473.5 726.5Q430 699 390 645Q375 625 356 593.5Q337 562 318 522Q299 482 280.5 435Q262 388 247 337Q214 226 210.5 139.5Q207 53 233 -1Q273 -82 387 -82Q423 -82 453.5 -69.5Q484 -57 510.5 -37.5Q537 -18 558 6.5Q579 31 595 54Q620 90 642 137Q664 184 681.5 236Q699 288 710.5 343Q722 398 726.5 451Q731 504 726.5 552Q722 600 707 638Q687 686 653.5 716.5Q620 747 578 752Z" glyph-name="OE.alt2" horiz-adv-x="1229" /><glyph d="M645 19Q590 -61 524.5 -102Q459 -143 387 -143Q361 -143 332 -138.5Q303 -134 275 -121Q247 -108 222 -86Q197 -64 179 -28Q167 -4 158 32.5Q149 69 149 122Q149 167 157.5 224.5Q166 282 188 354Q204 408 223.5 457.5Q243 507 263.5 549.5Q284 592 304 626Q324 660 341 682Q391 748 447 781.5Q503 815 561 815Q567 815 573.5 814.5Q580 814 586 813Q644 805 691 765Q738 725 764 661Q788 598 788 504Q788 468 785 430Q782 392 774 351Q757 256 723.5 170.5Q690 85 645 19ZM578 752Q573 753 569 753.5Q565 754 561 754Q517 754 473.5 726.5Q430 699 390 645Q375 625 356 593.5Q337 562 318 522Q299 482 280.5 435Q262 388 247 337Q228 275 219 220.5Q210 166 210 119Q210 47 233 -1Q273 -82 387 -82Q423 -82 453.5 -69.5Q484 -57 510.5 -37.5Q537 -18 558 6.5Q579 31 595 54Q623 95 647.5 149Q672 203 690 262.5Q708 322 718 383.5Q728 445 728 502Q728 540 723 574.5Q718 609 707 638Q687 686 653.5 716.5Q620 747 578 752ZM537 872Q535 872 534 871.5Q533 871 531 871Q520 871 511.5 877.5Q503 884 501 895Q498 908 505 918.5Q512 929 524 932Q565 940 591 960Q617 980 633 997Q641 1007 654 1007Q667 1007 676 999Q685 990 685.5 977.5Q686 965 678 956Q672 950 660 938.5Q648 927 630.5 914Q613 901 589.5 889.5Q566 878 537 872Z" glyph-name="Oacute" horiz-adv-x="826" unicode="&#211;" /><glyph d="M356 -188Q328 -188 300 -182Q208 -164 161 -83Q141 -48 130.5 -5Q120 38 120 92Q120 152 133 217Q146 282 169.5 345.5Q193 409 226 468Q259 527 299 574.5Q339 622 385.5 654Q432 686 483 697Q503 702 530 700.5Q557 699 582 679Q599 666 609.5 649.5Q620 633 625.5 617.5Q631 602 632.5 590.5Q634 579 634 576Q635 564 627 554.5Q619 545 606 544Q593 543 583.5 551Q574 559 573 572Q573 576 571.5 583.5Q570 591 566.5 600Q563 609 558 617Q553 625 545 631Q528 644 495 638Q438 626 381.5 573.5Q325 521 277 436Q254 395 236.5 351.5Q219 308 206.5 263.5Q194 219 187.5 175.5Q181 132 181 92Q181 35 193 -4Q205 -43 224 -68Q243 -93 266.5 -105.5Q290 -118 312 -123Q331 -127 355 -127Q420 -127 488 -92.5Q556 -58 622 10Q658 47 689.5 91Q721 135 746.5 182Q772 229 790.5 278Q809 327 819 375Q830 428 830 473Q830 548 803 604Q755 704 624 733Q612 735 605 745.5Q598 756 601 769Q603 781 613.5 788Q624 795 637 792Q761 766 826 683.5Q891 601 891 475Q891 421 879 363Q857 257 800.5 153Q744 49 665 -32Q590 -109 511.5 -148.5Q433 -188 356 -188ZM562 852Q560 852 559 851.5Q558 851 556 851Q545 851 536.5 857.5Q528 864 526 875Q523 888 530 898.5Q537 909 549 912Q590 920 616 940Q642 960 658 977Q666 987 679 987Q692 987 701 979Q710 970 710.5 957.5Q711 945 703 936Q697 930 685 918.5Q673 907 655.5 894Q638 881 614.5 869.5Q591 858 562 852Z" glyph-name="Oacute.alt1" horiz-adv-x="932" /><glyph d="M556 -215Q531 -219 507.5 -221Q484 -223 461 -223Q304 -223 213 -135Q164 -88 138 -22Q112 44 112 129Q112 148 113 167Q114 186 117 206Q133 323 180 425Q227 527 297 611Q365 691 447 744.5Q529 798 622 821Q634 824 644.5 817.5Q655 811 659 799Q662 787 655.5 776Q649 765 637 762Q554 741 479.5 692.5Q405 644 344 571Q279 495 235.5 401Q192 307 177 198Q175 180 173.5 163.5Q172 147 172 130Q172 58 193.5 2.5Q215 -53 255 -91Q329 -162 460 -162Q481 -162 502.5 -160.5Q524 -159 547 -155Q640 -141 720.5 -80Q801 -19 856 79Q894 147 912.5 220.5Q931 294 931 366Q931 466 898 552Q880 598 851.5 629.5Q823 661 784 673Q687 701 572 614Q561 606 549 608Q537 610 529 620Q521 631 523 643Q525 655 535 663Q579 696 618 713Q657 730 690.5 736Q724 742 752 739.5Q780 737 801 731Q855 714 893.5 673.5Q932 633 955 573Q974 525 983 473Q992 421 992 367Q992 286 971.5 205Q951 124 909 49Q847 -61 755 -129.5Q663 -198 556 -215ZM648 867Q646 867 645 866.5Q644 866 642 866Q631 866 622.5 872.5Q614 879 612 890Q609 903 616 913.5Q623 924 635 927Q676 935 702 955Q728 975 744 992Q752 1002 765 1002Q778 1002 787 994Q796 985 796.5 972.5Q797 960 789 951Q783 945 771 933.5Q759 922 741.5 909Q724 896 700.5 884.5Q677 873 648 867Z" glyph-name="Oacute.alt2" horiz-adv-x="1044" /><glyph d="M645 19Q590 -61 524.5 -102Q459 -143 387 -143Q361 -143 332 -138.5Q303 -134 275 -121Q247 -108 222 -86Q197 -64 179 -28Q167 -4 158 32.5Q149 69 149 122Q149 167 157.5 224.5Q166 282 188 354Q204 408 223.5 457.5Q243 507 263.5 549.5Q284 592 304 626Q324 660 341 682Q391 748 447 781.5Q503 815 561 815Q567 815 573.5 814.5Q580 814 586 813Q644 805 691 765Q738 725 764 661Q788 598 788 504Q788 468 785 430Q782 392 774 351Q757 256 723.5 170.5Q690 85 645 19ZM578 752Q573 753 569 753.5Q565 754 561 754Q517 754 473.5 726.5Q430 699 390 645Q375 625 356 593.5Q337 562 318 522Q299 482 280.5 435Q262 388 247 337Q228 275 219 220.5Q210 166 210 119Q210 47 233 -1Q273 -82 387 -82Q423 -82 453.5 -69.5Q484 -57 510.5 -37.5Q537 -18 558 6.5Q579 31 595 54Q623 95 647.5 149Q672 203 690 262.5Q708 322 718 383.5Q728 445 728 502Q728 540 723 574.5Q718 609 707 638Q687 686 653.5 716.5Q620 747 578 752ZM716 868Q710 863 699 863Q684 863 674 876Q657 900 638.5 920.5Q620 941 611 946Q608 945 601.5 942.5Q595 940 584 932.5Q573 925 555.5 911.5Q538 898 514 877Q505 868 492 869Q479 870 471 879Q463 889 463.5 901.5Q464 914 474 922Q524 967 556 986.5Q588 1006 611 1007Q628 1008 647.5 995.5Q667 983 690 955Q704 938 714 924.5Q724 911 724 910Q732 899 729.5 887Q727 875 716 868Z" glyph-name="Ocircumflex" horiz-adv-x="826" unicode="&#212;" /><glyph d="M356 -188Q328 -188 300 -182Q208 -164 161 -83Q141 -48 130.5 -5Q120 38 120 92Q120 152 133 217Q146 282 169.5 345.5Q193 409 226 468Q259 527 299 574.5Q339 622 385.5 654Q432 686 483 697Q503 702 530 700.5Q557 699 582 679Q599 666 609.5 649.5Q620 633 625.5 617.5Q631 602 632.5 590.5Q634 579 634 576Q635 564 627 554.5Q619 545 606 544Q593 543 583.5 551Q574 559 573 572Q573 576 571.5 583.5Q570 591 566.5 600Q563 609 558 617Q553 625 545 631Q528 644 495 638Q438 626 381.5 573.5Q325 521 277 436Q254 395 236.5 351.5Q219 308 206.5 263.5Q194 219 187.5 175.5Q181 132 181 92Q181 35 193 -4Q205 -43 224 -68Q243 -93 266.5 -105.5Q290 -118 312 -123Q331 -127 355 -127Q420 -127 488 -92.5Q556 -58 622 10Q658 47 689.5 91Q721 135 746.5 182Q772 229 790.5 278Q809 327 819 375Q830 428 830 473Q830 548 803 604Q755 704 624 733Q612 735 605 745.5Q598 756 601 769Q603 781 613.5 788Q624 795 637 792Q761 766 826 683.5Q891 601 891 475Q891 421 879 363Q857 257 800.5 153Q744 49 665 -32Q590 -109 511.5 -148.5Q433 -188 356 -188ZM741 848Q735 843 724 843Q709 843 699 856Q682 880 663.5 900.5Q645 921 636 926Q633 925 626.5 922.5Q620 920 609 912.5Q598 905 580.5 891.5Q563 878 539 857Q530 848 517 849Q504 850 496 859Q488 869 488.5 881.5Q489 894 499 902Q549 947 581 966.5Q613 986 636 987Q653 988 672.5 975.5Q692 963 715 935Q729 918 739 904.5Q749 891 749 890Q757 879 754.5 867Q752 855 741 848Z" glyph-name="Ocircumflex.alt1" horiz-adv-x="932" /><glyph d="M556 -215Q531 -219 507.5 -221Q484 -223 461 -223Q304 -223 213 -135Q164 -88 138 -22Q112 44 112 129Q112 148 113 167Q114 186 117 206Q133 323 180 425Q227 527 297 611Q365 691 447 744.5Q529 798 622 821Q634 824 644.5 817.5Q655 811 659 799Q662 787 655.5 776Q649 765 637 762Q554 741 479.5 692.5Q405 644 344 571Q279 495 235.5 401Q192 307 177 198Q175 180 173.5 163.5Q172 147 172 130Q172 58 193.5 2.5Q215 -53 255 -91Q329 -162 460 -162Q481 -162 502.5 -160.5Q524 -159 547 -155Q640 -141 720.5 -80Q801 -19 856 79Q894 147 912.5 220.5Q931 294 931 366Q931 466 898 552Q880 598 851.5 629.5Q823 661 784 673Q687 701 572 614Q561 606 549 608Q537 610 529 620Q521 631 523 643Q525 655 535 663Q579 696 618 713Q657 730 690.5 736Q724 742 752 739.5Q780 737 801 731Q855 714 893.5 673.5Q932 633 955 573Q974 525 983 473Q992 421 992 367Q992 286 971.5 205Q951 124 909 49Q847 -61 755 -129.5Q663 -198 556 -215ZM827 863Q821 858 810 858Q795 858 785 871Q768 895 749.5 915.5Q731 936 722 941Q719 940 712.5 937.5Q706 935 695 927.5Q684 920 666.5 906.5Q649 893 625 872Q616 863 603 864Q590 865 582 874Q574 884 574.5 896.5Q575 909 585 917Q635 962 667 981.5Q699 1001 722 1002Q739 1003 758.5 990.5Q778 978 801 950Q815 933 825 919.5Q835 906 835 905Q843 894 840.5 882Q838 870 827 863Z" glyph-name="Ocircumflex.alt2" horiz-adv-x="1044" /><glyph d="M645 19Q590 -61 524.5 -102Q459 -143 387 -143Q361 -143 332 -138.5Q303 -134 275 -121Q247 -108 222 -86Q197 -64 179 -28Q167 -4 158 32.5Q149 69 149 122Q149 167 157.5 224.5Q166 282 188 354Q204 408 223.5 457.5Q243 507 263.5 549.5Q284 592 304 626Q324 660 341 682Q391 748 447 781.5Q503 815 561 815Q567 815 573.5 814.5Q580 814 586 813Q644 805 691 765Q738 725 764 661Q788 598 788 504Q788 468 785 430Q782 392 774 351Q757 256 723.5 170.5Q690 85 645 19ZM578 752Q573 753 569 753.5Q565 754 561 754Q517 754 473.5 726.5Q430 699 390 645Q375 625 356 593.5Q337 562 318 522Q299 482 280.5 435Q262 388 247 337Q228 275 219 220.5Q210 166 210 119Q210 47 233 -1Q273 -82 387 -82Q423 -82 453.5 -69.5Q484 -57 510.5 -37.5Q537 -18 558 6.5Q579 31 595 54Q623 95 647.5 149Q672 203 690 262.5Q708 322 718 383.5Q728 445 728 502Q728 540 723 574.5Q718 609 707 638Q687 686 653.5 716.5Q620 747 578 752ZM701 906Q693 901 682 901Q672 901 665 906Q660 909 656 915Q652 918 651 923Q649 928 649 933.5Q649 939 649 944Q650 955 657.5 963Q665 971 676 973Q689 975 701 966Q704 964 707.5 962.5Q711 961 714 958Q722 950 722.5 938Q723 926 716 917Q714 915 710.5 911.5Q707 908 701 906ZM559 905Q554 903 549.5 899Q545 895 531 895Q527 895 519 897Q512 899 508 903.5Q504 908 499 913Q491 928 498 943L505 956Q510 967 522 971Q534 975 545 970Q559 964 565.5 957Q572 950 575 940Q577 929 572.5 919.5Q568 910 559 905Z" glyph-name="Odieresis" horiz-adv-x="826" unicode="&#214;" /><glyph d="M356 -188Q328 -188 300 -182Q208 -164 161 -83Q141 -48 130.5 -5Q120 38 120 92Q120 152 133 217Q146 282 169.5 345.5Q193 409 226 468Q259 527 299 574.5Q339 622 385.5 654Q432 686 483 697Q503 702 530 700.5Q557 699 582 679Q599 666 609.5 649.5Q620 633 625.5 617.5Q631 602 632.5 590.5Q634 579 634 576Q635 564 627 554.5Q619 545 606 544Q593 543 583.5 551Q574 559 573 572Q573 576 571.5 583.5Q570 591 566.5 600Q563 609 558 617Q553 625 545 631Q528 644 495 638Q438 626 381.5 573.5Q325 521 277 436Q254 395 236.5 351.5Q219 308 206.5 263.5Q194 219 187.5 175.5Q181 132 181 92Q181 35 193 -4Q205 -43 224 -68Q243 -93 266.5 -105.5Q290 -118 312 -123Q331 -127 355 -127Q420 -127 488 -92.5Q556 -58 622 10Q658 47 689.5 91Q721 135 746.5 182Q772 229 790.5 278Q809 327 819 375Q830 428 830 473Q830 548 803 604Q755 704 624 733Q612 735 605 745.5Q598 756 601 769Q603 781 613.5 788Q624 795 637 792Q761 766 826 683.5Q891 601 891 475Q891 421 879 363Q857 257 800.5 153Q744 49 665 -32Q590 -109 511.5 -148.5Q433 -188 356 -188ZM726 886Q718 881 707 881Q697 881 690 886Q685 889 681 895Q677 898 676 903Q674 908 674 913.5Q674 919 674 924Q675 935 682.5 943Q690 951 701 953Q714 955 726 946Q729 944 732.5 942.5Q736 941 739 938Q747 930 747.5 918Q748 906 741 897Q739 895 735.5 891.5Q732 888 726 886ZM584 885Q579 883 574.5 879Q570 875 556 875Q552 875 544 877Q537 879 533 883.5Q529 888 524 893Q516 908 523 923L530 936Q535 947 547 951Q559 955 570 950Q584 944 590.5 937Q597 930 600 920Q602 909 597.5 899.5Q593 890 584 885Z" glyph-name="Odieresis.alt1" horiz-adv-x="932" /><glyph d="M556 -215Q531 -219 507.5 -221Q484 -223 461 -223Q304 -223 213 -135Q164 -88 138 -22Q112 44 112 129Q112 148 113 167Q114 186 117 206Q133 323 180 425Q227 527 297 611Q365 691 447 744.5Q529 798 622 821Q634 824 644.5 817.5Q655 811 659 799Q662 787 655.5 776Q649 765 637 762Q554 741 479.5 692.5Q405 644 344 571Q279 495 235.5 401Q192 307 177 198Q175 180 173.5 163.5Q172 147 172 130Q172 58 193.5 2.5Q215 -53 255 -91Q329 -162 460 -162Q481 -162 502.5 -160.5Q524 -159 547 -155Q640 -141 720.5 -80Q801 -19 856 79Q894 147 912.5 220.5Q931 294 931 366Q931 466 898 552Q880 598 851.5 629.5Q823 661 784 673Q687 701 572 614Q561 606 549 608Q537 610 529 620Q521 631 523 643Q525 655 535 663Q579 696 618 713Q657 730 690.5 736Q724 742 752 739.5Q780 737 801 731Q855 714 893.5 673.5Q932 633 955 573Q974 525 983 473Q992 421 992 367Q992 286 971.5 205Q951 124 909 49Q847 -61 755 -129.5Q663 -198 556 -215ZM812 901Q804 896 793 896Q783 896 776 901Q771 904 767 910Q763 913 762 918Q760 923 760 928.5Q760 934 760 939Q761 950 768.5 958Q776 966 787 968Q800 970 812 961Q815 959 818.5 957.5Q822 956 825 953Q833 945 833.5 933Q834 921 827 912Q825 910 821.5 906.5Q818 903 812 901ZM670 900Q665 898 660.5 894Q656 890 642 890Q638 890 630 892Q623 894 619 898.5Q615 903 610 908Q602 923 609 938L616 951Q621 962 633 966Q645 970 656 965Q670 959 676.5 952Q683 945 686 935Q688 924 683.5 914.5Q679 905 670 900Z" glyph-name="Odieresis.alt2" horiz-adv-x="1044" /><glyph d="M645 19Q590 -61 524.5 -102Q459 -143 387 -143Q361 -143 332 -138.5Q303 -134 275 -121Q247 -108 222 -86Q197 -64 179 -28Q167 -4 158 32.5Q149 69 149 122Q149 167 157.5 224.5Q166 282 188 354Q204 408 223.5 457.5Q243 507 263.5 549.5Q284 592 304 626Q324 660 341 682Q391 748 447 781.5Q503 815 561 815Q567 815 573.5 814.5Q580 814 586 813Q644 805 691 765Q738 725 764 661Q788 598 788 504Q788 468 785 430Q782 392 774 351Q757 256 723.5 170.5Q690 85 645 19ZM578 752Q573 753 569 753.5Q565 754 561 754Q517 754 473.5 726.5Q430 699 390 645Q375 625 356 593.5Q337 562 318 522Q299 482 280.5 435Q262 388 247 337Q228 275 219 220.5Q210 166 210 119Q210 47 233 -1Q273 -82 387 -82Q423 -82 453.5 -69.5Q484 -57 510.5 -37.5Q537 -18 558 6.5Q579 31 595 54Q623 95 647.5 149Q672 203 690 262.5Q708 322 718 383.5Q728 445 728 502Q728 540 723 574.5Q718 609 707 638Q687 686 653.5 716.5Q620 747 578 752ZM703 887Q701 876 692.5 868.5Q684 861 673 861Q671 861 670 861.5Q669 862 668 862Q611 872 570.5 904Q530 936 508 987Q503 999 508 1010.5Q513 1022 524 1027Q536 1032 547.5 1027Q559 1022 564 1011Q596 937 678 922Q691 920 698 909.5Q705 899 703 887Z" glyph-name="Ograve" horiz-adv-x="826" unicode="&#210;" /><glyph d="M356 -188Q328 -188 300 -182Q208 -164 161 -83Q141 -48 130.5 -5Q120 38 120 92Q120 152 133 217Q146 282 169.5 345.5Q193 409 226 468Q259 527 299 574.5Q339 622 385.5 654Q432 686 483 697Q503 702 530 700.5Q557 699 582 679Q599 666 609.5 649.5Q620 633 625.5 617.5Q631 602 632.5 590.5Q634 579 634 576Q635 564 627 554.5Q619 545 606 544Q593 543 583.5 551Q574 559 573 572Q573 576 571.5 583.5Q570 591 566.5 600Q563 609 558 617Q553 625 545 631Q528 644 495 638Q438 626 381.5 573.5Q325 521 277 436Q254 395 236.5 351.5Q219 308 206.5 263.5Q194 219 187.5 175.5Q181 132 181 92Q181 35 193 -4Q205 -43 224 -68Q243 -93 266.5 -105.5Q290 -118 312 -123Q331 -127 355 -127Q420 -127 488 -92.5Q556 -58 622 10Q658 47 689.5 91Q721 135 746.5 182Q772 229 790.5 278Q809 327 819 375Q830 428 830 473Q830 548 803 604Q755 704 624 733Q612 735 605 745.5Q598 756 601 769Q603 781 613.5 788Q624 795 637 792Q761 766 826 683.5Q891 601 891 475Q891 421 879 363Q857 257 800.5 153Q744 49 665 -32Q590 -109 511.5 -148.5Q433 -188 356 -188ZM728 867Q726 856 717.5 848.5Q709 841 698 841Q696 841 695 841.5Q694 842 693 842Q636 852 595.5 884Q555 916 533 967Q528 979 533 990.5Q538 1002 549 1007Q561 1012 572.5 1007Q584 1002 589 991Q621 917 703 902Q716 900 723 889.5Q730 879 728 867Z" glyph-name="Ograve.alt1" horiz-adv-x="932" /><glyph d="M556 -215Q531 -219 507.5 -221Q484 -223 461 -223Q304 -223 213 -135Q164 -88 138 -22Q112 44 112 129Q112 148 113 167Q114 186 117 206Q133 323 180 425Q227 527 297 611Q365 691 447 744.5Q529 798 622 821Q634 824 644.5 817.5Q655 811 659 799Q662 787 655.5 776Q649 765 637 762Q554 741 479.5 692.5Q405 644 344 571Q279 495 235.5 401Q192 307 177 198Q175 180 173.5 163.5Q172 147 172 130Q172 58 193.5 2.5Q215 -53 255 -91Q329 -162 460 -162Q481 -162 502.5 -160.5Q524 -159 547 -155Q640 -141 720.5 -80Q801 -19 856 79Q894 147 912.5 220.5Q931 294 931 366Q931 466 898 552Q880 598 851.5 629.5Q823 661 784 673Q687 701 572 614Q561 606 549 608Q537 610 529 620Q521 631 523 643Q525 655 535 663Q579 696 618 713Q657 730 690.5 736Q724 742 752 739.5Q780 737 801 731Q855 714 893.5 673.5Q932 633 955 573Q974 525 983 473Q992 421 992 367Q992 286 971.5 205Q951 124 909 49Q847 -61 755 -129.5Q663 -198 556 -215ZM814 882Q812 871 803.5 863.5Q795 856 784 856Q782 856 781 856.5Q780 857 779 857Q722 867 681.5 899Q641 931 619 982Q614 994 619 1005.5Q624 1017 635 1022Q647 1027 658.5 1022Q670 1017 675 1006Q707 932 789 917Q802 915 809 904.5Q816 894 814 882Z" glyph-name="Ograve.alt2" horiz-adv-x="1044" /><glyph d="M128 -204Q115 -202 107.5 -192Q100 -182 102 -169Q108 -126 118.5 -60.5Q129 5 142.5 83Q156 161 171.5 245.5Q187 330 202 412.5Q217 495 231.5 569.5Q246 644 256.5 700.5Q267 757 274 791Q281 825 281 827Q283 838 290.5 844.5Q298 851 309 852Q312 852 336 852.5Q360 853 396.5 851Q433 849 478.5 843Q524 837 569.5 825.5Q615 814 657 795Q699 776 730 747Q785 694 785 620Q785 557 755.5 493.5Q726 430 670 373Q608 310 518 259.5Q428 209 315 175Q303 171 292 177Q281 183 277 195Q273 207 279.5 218Q286 229 298 233Q404 265 487 311.5Q570 358 627 415Q674 463 699 516Q724 569 724 620Q724 669 687 703Q658 731 612 748Q566 765 516 775Q466 785 417.5 788Q369 791 336 791Q329 758 316 688Q303 618 286 527.5Q269 437 250 335Q231 233 214 136Q197 39 183 -43.5Q169 -126 162 -178Q160 -189 151.5 -196.5Q143 -204 132 -204Z" glyph-name="P" horiz-adv-x="725" unicode="P" /><glyph d="M242 -124Q241 -136 232.5 -144Q224 -152 212 -152H210Q197 -151 188.5 -142Q180 -133 181 -120Q182 -98 187 -65.5Q192 -33 199 6.5Q206 46 215 91Q224 136 234 184Q196 175 159.5 169.5Q123 164 89 162Q75 162 66.5 170.5Q58 179 57 191Q56 204 64.5 213Q73 222 86 223Q124 225 165 232Q206 239 249 250Q267 334 286.5 416Q306 498 322 564.5Q338 631 348.5 674Q359 717 361 723Q364 735 375 741.5Q386 748 398 745Q411 742 417 731Q423 720 420 708Q420 706 410.5 668.5Q401 631 386 569.5Q371 508 352.5 430.5Q334 353 316 272Q359 288 400.5 307.5Q442 327 480 350Q584 413 643.5 486Q703 559 712 636Q719 687 664 727Q621 758 554.5 773.5Q488 789 417 789Q366 789 318 780.5Q270 772 232 754Q220 749 208 753Q196 757 191 769Q186 780 190 792Q194 804 205 809Q248 829 302.5 839.5Q357 850 417 850Q428 850 438.5 850Q449 850 460 849Q533 844 595.5 825Q658 806 700 776Q784 717 773 629Q762 538 695 452.5Q628 367 512 298Q463 269 409.5 245Q356 221 301 203Q290 152 280 103Q270 54 262 11.5Q254 -31 248.5 -66Q243 -101 242 -124Z" glyph-name="P.alt1" horiz-adv-x="730" /><glyph d="M117 -143Q104 -141 96 -131Q88 -121 90 -109Q96 -66 104.5 -4Q113 58 123 129Q133 200 144 277Q155 354 165.5 428Q176 502 185.5 568.5Q195 635 202 685Q209 735 213.5 765.5Q218 796 218 797Q220 808 227.5 815Q235 822 246 823Q247 823 263.5 824Q280 825 306 825Q332 825 365 823Q398 821 434 815Q469 810 506.5 799.5Q544 789 576.5 771Q609 753 632 726Q655 699 661 660Q672 600 637 534.5Q602 469 524 402Q492 375 457.5 350.5Q423 326 389 306Q355 286 323.5 270.5Q292 255 267 246Q255 241 244 246.5Q233 252 228 264Q223 276 228.5 287Q234 298 246 303Q279 315 319.5 336.5Q360 358 401.5 385.5Q443 413 481.5 445.5Q520 478 548.5 512.5Q577 547 592 582Q607 617 601 650Q597 675 579.5 693Q562 711 537 723.5Q512 736 482.5 743.5Q453 751 425 755Q380 762 339.5 763Q299 764 275 763Q271 732 261.5 669Q252 606 240.5 525.5Q229 445 216 353.5Q203 262 191 174.5Q179 87 168.5 10.5Q158 -66 151 -117Q149 -128 140.5 -135.5Q132 -143 121 -143Z" glyph-name="P.alt2" horiz-adv-x="600" /><glyph d="M895 -145Q895 -158 886.5 -167Q878 -176 865 -176Q715 -176 624 -77Q621 -74 618 -70.5Q615 -67 612 -64Q508 -154 392 -154Q384 -154 375.5 -153.5Q367 -153 359 -152Q247 -140 192 -35Q170 9 160 65.5Q150 122 154 188Q159 283 190 380Q221 477 270 557Q327 649 398 697.5Q469 746 546 746Q558 746 567 737Q576 728 576 715Q576 703 567 694Q558 685 546 685Q486 685 428.5 643.5Q371 602 322 524Q277 451 248.5 361.5Q220 272 215 185Q209 67 246 -7Q285 -83 366 -92Q478 -104 577 -14Q533 61 514 166Q512 179 519 189.5Q526 200 538 202Q551 204 561.5 197Q572 190 574 177Q589 93 621 32Q665 84 702 153Q753 249 779 352.5Q805 456 805 548Q805 615 790.5 670Q776 725 747 760Q706 810 633 810Q589 810 537 792Q525 788 514 794Q503 800 499 811Q494 823 500 834.5Q506 846 518 850Q551 861 579.5 866Q608 871 634 871Q693 871 732 849Q771 827 794 800Q829 758 848 695Q867 632 867 552Q867 523 864 492Q857 399 829 303.5Q801 208 756 124Q711 40 656 -21Q659 -25 662 -28.5Q665 -32 669 -36Q743 -115 865 -115Q878 -115 886.5 -123.5Q895 -132 895 -145Z" glyph-name="Q" horiz-adv-x="929" unicode="Q" /><glyph d="M799 -69Q797 -80 788.5 -87.5Q780 -95 769 -93Q737 -88 706 -68Q675 -48 642 -3Q639 -5 635.5 -8Q632 -11 628 -13Q545 -69 448 -69Q376 -69 324 -32.5Q272 4 237 70Q208 126 193.5 198.5Q179 271 180 353Q182 449 204.5 539Q227 629 267 700Q310 778 373 822Q440 871 523 871Q536 871 545 862.5Q554 854 554 841Q554 828 545 819Q536 810 523 810Q485 810 453.5 797Q422 784 397 764Q372 744 352.5 719Q333 694 320 670Q284 606 263.5 523Q243 440 241 352Q240 286 251 222Q262 158 286.5 108Q311 58 349 26Q387 -6 440 -7Q492 -9 534 7Q576 23 610 49Q584 100 572.5 133.5Q561 167 558 175Q553 186 560 197.5Q567 209 579 212Q591 216 601.5 210Q612 204 617 192Q619 186 627.5 158Q636 130 656 92Q672 109 685 127.5Q698 146 709 164Q747 227 771.5 303Q796 379 804 460Q812 537 803 601.5Q794 666 771 708Q740 764 688 764Q656 764 625 749Q594 734 566 706Q532 672 512.5 630Q493 588 493 551Q493 538 484 529Q475 520 462 520Q450 520 441 529Q432 538 432 550Q432 600 456 653Q480 706 522 749Q559 786 601.5 805.5Q644 825 688 825Q775 825 824 738Q852 688 862.5 614Q873 540 864 454Q856 366 829.5 283.5Q803 201 762 132Q730 79 689 37Q706 12 727.5 -7.5Q749 -27 775 -33Q788 -35 794.5 -45.5Q801 -56 799 -69Z" glyph-name="Q.alt1" horiz-adv-x="913" /><glyph d="M914 -131Q905 -145 888 -145Q878 -145 872 -140Q834 -116 802 -87.5Q770 -59 742 -28L740 -30Q671 -104 583 -131Q536 -145 489 -145Q463 -145 436.5 -141Q410 -137 383 -129Q313 -108 263.5 -56Q214 -4 188 75Q163 150 163 244Q163 280 167 317.5Q171 355 179 393Q199 487 239 567Q279 647 335 706Q392 766 458 796.5Q524 827 596 827Q619 827 642 824Q727 813 788 760.5Q849 708 881 619Q896 577 903 530.5Q910 484 910 434Q910 379 901.5 323.5Q893 268 876.5 214.5Q860 161 836 111Q812 61 781 19Q807 -10 838.5 -38Q870 -66 905 -89Q916 -96 918.5 -108Q921 -120 914 -131ZM401 -70Q449 -84 489 -84Q524 -84 554.5 -75.5Q585 -67 610.5 -53.5Q636 -40 657.5 -23Q679 -6 696 12Q700 16 702 19Q676 51 656.5 81Q637 111 623.5 134.5Q610 158 602.5 172.5Q595 187 594 189Q589 200 593 212Q597 224 608 229Q620 235 632 230.5Q644 226 649 215Q649 215 655.5 202.5Q662 190 673.5 170Q685 150 702 123.5Q719 97 741 68Q773 115 796.5 172Q820 229 834 293Q842 328 846 363.5Q850 399 850 433Q850 526 823 598Q814 623 799 650.5Q784 678 761.5 701Q739 724 707.5 741Q676 758 634 764Q625 766 616 766Q607 766 598 766Q527 766 467.5 732.5Q408 699 362.5 645Q317 591 285.5 521.5Q254 452 239 380Q224 311 224 244Q224 203 229.5 165.5Q235 128 246 94Q253 72 265.5 47.5Q278 23 296.5 0.5Q315 -22 340.5 -41Q366 -60 401 -70Z" glyph-name="Q.alt2" horiz-adv-x="989" /><glyph d="M203 -114Q203 -126 193.5 -134.5Q184 -143 172 -143Q159 -142 150.5 -133Q142 -124 143 -111Q143 -103 145 -67Q147 -31 151 24.5Q155 80 161 152Q167 224 176 305Q224 748 304 858Q310 866 322 870Q323 870 337.5 873Q352 876 376 880Q400 884 432 888Q464 892 500 894Q698 906 783 838Q839 793 839 715Q838 658 784.5 596Q731 534 634 478Q547 427 447.5 394Q348 361 248 349Q255 294 276.5 239Q298 184 330 135Q362 86 402 46.5Q442 7 485 -17.5Q528 -42 571.5 -47.5Q615 -53 654 -34Q665 -29 677.5 -33Q690 -37 695 -48Q700 -59 696 -71.5Q692 -84 681 -89Q634 -112 574.5 -108.5Q515 -105 453 -70.5Q391 -36 331.5 31Q272 98 226 203Q217 107 211.5 24Q206 -59 203 -114ZM347 813Q331 787 317 745.5Q303 704 291 651.5Q279 599 269 537.5Q259 476 250 411Q341 423 432.5 454Q524 485 604 530Q685 577 731 626.5Q777 676 778 716Q778 763 744 791Q723 808 692 817.5Q661 827 624.5 831Q588 835 548.5 834.5Q509 834 472 831Q435 828 402.5 823Q370 818 347 813Z" glyph-name="R" horiz-adv-x="779" unicode="R" /><glyph d="M263 -230Q246 -230 237 -216Q236 -215 225.5 -196Q215 -177 201 -143.5Q187 -110 171 -62.5Q155 -15 144 44Q131 114 128.5 184.5Q126 255 134 325Q154 501 239 669Q274 738 329.5 787Q385 836 458 862Q530 889 613 889Q673 889 732 874Q792 859 844.5 830.5Q897 802 935 763Q978 719 999.5 666.5Q1021 614 1020 557Q1020 530 1007.5 499Q995 468 973.5 437.5Q952 407 922.5 378.5Q893 350 858 327Q818 301 774 284Q730 267 685 261Q645 255 605.5 257.5Q566 260 527 271Q534 236 548 188Q562 140 590 93Q613 55 638 24.5Q663 -6 693 -27Q729 -53 772.5 -63Q816 -73 864 -73Q877 -73 885.5 -82Q894 -91 894 -104Q894 -116 885.5 -125Q877 -134 864 -134Q764 -134 680 -85Q596 -36 537 62Q516 98 501.5 135Q487 172 478 206Q469 240 465 268.5Q461 297 460 315Q460 332 473 341Q487 350 502 344Q556 321 605 318.5Q654 316 695.5 324.5Q737 333 770 348.5Q803 364 825 378Q849 394 873 416Q897 438 916 462Q935 486 947 510.5Q959 535 959 558Q961 650 891 720Q859 753 814 777.5Q769 802 717 815Q691 821 665 824.5Q639 828 613 828Q544 828 478 805Q417 782 370 741Q323 700 293 641Q214 484 194 318Q186 252 189 186.5Q192 121 204 56Q214 6 226.5 -34.5Q239 -75 251 -106L402 620Q405 632 415.5 639Q426 646 438 644Q451 641 457.5 630.5Q464 620 462 608L293 -206Q288 -225 268 -230Z" glyph-name="R.alt1" horiz-adv-x="993" /><glyph d="M773 43Q713 -57 650.5 -106Q588 -155 525 -155Q520 -155 514.5 -155Q509 -155 504 -154Q385 -137 292 47Q278 74 266.5 100Q255 126 247 149Q243 89 242 32.5Q241 -24 243 -78Q244 -91 235.5 -100.5Q227 -110 213 -110Q201 -110 192 -101.5Q183 -93 182 -81Q180 -12 182.5 62.5Q185 137 190.5 211Q196 285 203 354.5Q210 424 218 483Q224 535 230.5 580.5Q237 626 243 663Q249 700 253.5 727Q258 754 261 768Q247 767 235.5 766Q224 765 215 764Q203 762 193 770Q183 778 182 791Q180 804 188 813.5Q196 823 208 825Q211 825 237.5 827.5Q264 830 304 830.5Q344 831 393 828.5Q442 826 491 816.5Q540 807 584.5 789.5Q629 772 660 742Q717 688 711 607Q707 551 680.5 503Q654 455 615.5 414Q577 373 530 339.5Q483 306 438 280.5Q393 255 353.5 237Q314 219 290 210Q302 173 323 123Q344 73 372.5 26.5Q401 -20 436.5 -54Q472 -88 512 -93Q542 -97 571.5 -83Q601 -69 628 -44.5Q655 -20 678.5 11.5Q702 43 721 75Q728 86 740 89Q752 92 763 85Q774 78 777 66Q780 54 773 43ZM618 698Q596 719 561.5 733Q527 747 487 755.5Q447 764 404.5 767Q362 770 323 770Q322 766 314.5 722.5Q307 679 296.5 609Q286 539 275 449Q264 359 255 263Q272 269 306.5 284Q341 299 384 321.5Q427 344 472.5 374Q518 404 556.5 440.5Q595 477 620.5 520Q646 563 650 612Q654 663 618 698Z" glyph-name="R.alt2" horiz-adv-x="805" /><glyph d="M224 -252Q195 -255 172 -255Q90 -255 72 -212Q61 -185 66.5 -160Q72 -135 88.5 -113Q105 -91 128.5 -73Q152 -55 178 -43Q189 -37 201 -41Q213 -45 218 -56Q224 -67 220 -79.5Q216 -92 205 -97Q191 -104 176 -114.5Q161 -125 149 -137Q137 -149 130.5 -162Q124 -175 128 -187Q132 -190 152 -193Q172 -196 215 -191Q254 -186 299.5 -175.5Q345 -165 391 -149Q444 -130 488 -108Q532 -86 564 -62Q596 -38 615.5 -13.5Q635 11 639 34Q642 54 636.5 71.5Q631 89 619.5 104Q608 119 593.5 132Q579 145 566 155Q524 186 468 214.5Q412 243 354 270Q282 304 218 337.5Q154 371 115 410Q96 430 88.5 455.5Q81 481 87 510Q96 559 139 612Q173 654 224 697Q275 740 336 778Q397 816 463.5 845Q530 874 593.5 889.5Q657 905 714.5 903.5Q772 902 815 877Q839 863 855 844.5Q871 826 880.5 805Q890 784 894.5 763Q899 742 900 724Q908 612 839 442Q834 430 822.5 425Q811 420 800 425Q788 430 782.5 441.5Q777 453 782 464Q846 622 840 720Q834 796 785 824Q740 850 661 840.5Q582 831 485 788Q440 768 396 743Q352 718 313 690Q274 662 241.5 632Q209 602 186 574Q175 560 165 543.5Q155 527 150 511Q145 495 146 480Q147 465 158 453Q175 436 199.5 419.5Q224 403 253 387.5Q282 372 314.5 356Q347 340 380 325Q440 296 498 267Q556 238 602 204Q715 119 699 24Q694 -8 675 -36Q656 -64 629.5 -87.5Q603 -111 572 -130Q541 -149 511 -164Q478 -180 441.5 -194.5Q405 -209 368 -220Q331 -231 294 -239.5Q257 -248 224 -252Z" glyph-name="S" horiz-adv-x="844" unicode="S" /><glyph d="M-34 -322Q-61 -325 -83 -325Q-148 -325 -177 -300Q-205 -278 -200 -241Q-197 -213 -169 -177Q-161 -167 -148.5 -165.5Q-136 -164 -126 -172Q-116 -180 -114.5 -192Q-113 -204 -121 -215Q-135 -232 -138 -241Q-141 -250 -140 -252Q-139 -254 -120.5 -260Q-102 -266 -54 -263Q-17 -260 27 -251Q71 -242 117.5 -227.5Q164 -213 211.5 -194.5Q259 -176 304 -154Q408 -103 472.5 -46Q537 11 556 68Q584 155 488 238Q474 249 460 261Q446 273 430 285Q392 316 351.5 350.5Q311 385 277.5 423Q244 461 222 503Q200 545 200 591Q200 687 303 774Q346 809 407.5 833.5Q469 858 536 866Q607 875 662 862.5Q717 850 749 819Q792 776 781 711Q771 649 705 568Q697 558 684.5 557Q672 556 662 564Q652 572 651 584Q650 596 658 607Q672 623 687.5 645.5Q703 668 712.5 691.5Q722 715 722 737.5Q722 760 706 776Q686 796 642 804.5Q598 813 543 806Q485 799 432 778Q379 757 342 727Q261 659 261 591Q261 556 280.5 522Q300 488 330 455Q360 422 396.5 391.5Q433 361 468 333Q484 320 499 308Q514 296 528 284Q614 210 622.5 126.5Q631 43 562 -41Q534 -74 493.5 -107Q453 -140 403 -170Q353 -200 294 -226.5Q235 -253 171 -274Q116 -293 63.5 -305Q11 -317 -34 -322Z" glyph-name="S.alt1" horiz-adv-x="701" /><glyph d="M442 -117Q409 -123 377 -123Q307 -123 246 -96Q192 -72 150.5 -31Q109 10 83 66Q78 78 82.5 90Q87 102 98 107Q109 112 121 108Q133 104 138 92Q157 51 184.5 21.5Q212 -8 243.5 -26.5Q275 -45 309 -53.5Q343 -62 376 -62Q390 -62 403 -61Q416 -60 429 -57Q481 -46 512 -18Q543 10 544 46Q545 81 528.5 112Q512 143 485 171Q458 199 422.5 225Q387 251 349 278Q296 315 244 355.5Q192 396 157 446Q109 513 109 589Q109 624 116.5 657.5Q124 691 142 721Q160 751 190.5 776Q221 801 267 818Q310 834 362 842.5Q414 851 471 851Q535 851 595 841.5Q655 832 706 813Q766 792 804 761.5Q842 731 859 693Q871 664 869.5 635.5Q868 607 857 581.5Q846 556 829 533Q812 510 794 492Q785 483 772.5 483Q760 483 751 492Q742 500 742 513Q742 526 750 535Q826 611 803 669Q792 695 761.5 717Q731 739 686.5 755.5Q642 772 587.5 781Q533 790 473 790Q389 790 331 775.5Q273 761 237 734.5Q201 708 185.5 671.5Q170 635 170 591Q170 533 207 481Q237 438 285 400.5Q333 363 384 328Q425 299 465 269Q505 239 536.5 205Q568 171 587 131.5Q606 92 605 45Q603 -13 559 -57Q515 -101 442 -117Z" glyph-name="S.alt2" horiz-adv-x="771" /><glyph d="M220 -230Q216 -238 208 -243Q200 -248 192 -248Q188 -248 180 -246Q168 -241 163.5 -229Q159 -217 164 -206Q203 -115 234.5 -17Q266 81 291.5 177.5Q317 274 336.5 365Q356 456 369.5 531.5Q383 607 391.5 663Q400 719 404 747Q358 740 317 734Q276 728 245 723Q214 718 195.5 715Q177 712 176 712H171Q160 712 151.5 719Q143 726 141 737Q139 750 146.5 760Q154 770 166 772Q171 773 208 778.5Q245 784 300 792Q355 800 422 809Q489 818 554 826Q619 834 674 839Q729 844 762 844Q779 844 789.5 833.5Q800 823 800 810Q799 798 789.5 789.5Q780 781 768 782Q746 783 713 781Q680 779 640 775.5Q600 772 555.5 766.5Q511 761 466 755Q464 738 456.5 685Q449 632 436 555.5Q423 479 403 383.5Q383 288 356.5 184Q330 80 296 -26Q262 -132 220 -230Z" glyph-name="T" horiz-adv-x="651" unicode="T" /><glyph d="M362 -65Q360 -76 351.5 -82Q343 -88 332 -88Q328 -88 325 -87Q313 -85 306.5 -74Q300 -63 303 -51Q318 11 332 84Q346 157 359 232.5Q372 308 383 382Q394 456 403.5 520.5Q413 585 419.5 635.5Q426 686 430 715Q377 715 329 714.5Q281 714 243.5 713.5Q206 713 183.5 712.5Q161 712 160 712Q147 712 138 721Q129 730 129 742Q129 755 137.5 764Q146 773 159 773Q164 773 201.5 773.5Q239 774 295.5 775Q352 776 420 776Q488 776 554 776Q620 776 676.5 775.5Q733 775 767 773Q780 772 788 763Q796 754 796 741Q795 729 785.5 720.5Q776 712 765 712Q745 713 715 713.5Q685 714 649 714.5Q613 715 573 715Q533 715 491 715Q488 689 481.5 639Q475 589 465.5 524Q456 459 444.5 383Q433 307 419.5 229Q406 151 391.5 75.5Q377 0 362 -65Z" glyph-name="T.alt1" horiz-adv-x="651" /><glyph d="M392 -128Q389 -138 379 -144Q369 -150 354 -148Q341 -146 335.5 -134Q330 -122 334 -109Q364 -12 387 97.5Q410 207 426.5 311.5Q443 416 454.5 508.5Q466 601 472 664Q425 665 379 665Q333 665 290.5 664.5Q248 664 211.5 662.5Q175 661 147 658H140Q129 659 121.5 666.5Q114 674 112 686Q112 698 120 707.5Q128 717 140 719Q199 724 289.5 725.5Q380 727 478 725L481 767Q482 780 491.5 788.5Q501 797 513 796Q526 795 534.5 785.5Q543 776 542 763L539 723Q591 722 639.5 720Q688 718 729.5 716Q771 714 802.5 711.5Q834 709 851 707Q864 705 872 695.5Q880 686 878 673Q876 660 866 652.5Q856 645 844 647Q826 649 794.5 651.5Q763 654 722 656Q681 658 632.5 660Q584 662 533 663Q529 620 522.5 563.5Q516 507 507 441.5Q498 376 486.5 304Q475 232 461 158.5Q447 85 429.5 12Q412 -61 392 -128Z" glyph-name="T.alt2" horiz-adv-x="707" /><glyph d="M655 308Q450 -105 255 -105Q238 -105 222 -102Q168 -93 141 -44Q85 57 165 347Q182 405 202 465Q222 525 242.5 582Q263 639 283 692Q303 745 321 791Q329 811 336.5 830Q344 849 350 865Q355 877 366.5 882.5Q378 888 389 883Q401 878 406.5 866.5Q412 855 407 844Q401 827 393.5 808Q386 789 378 769Q360 724 340 671Q320 618 299.5 561.5Q279 505 259.5 446.5Q240 388 224 330Q201 248 190.5 189Q180 130 178.5 89.5Q177 49 181.5 24Q186 -1 194 -14Q207 -38 233 -42Q319 -58 422 55Q510 152 600 334Q639 412 670.5 489Q702 566 724.5 626.5Q747 687 759.5 725Q772 763 772 764Q776 776 787 782Q798 788 810 784Q822 780 828 769.5Q834 759 831 747Q831 746 822.5 716.5Q814 687 801.5 639Q789 591 774 529Q759 467 746 401Q730 324 721.5 262.5Q713 201 710 154Q708 122 709.5 100Q711 78 714 64.5Q717 51 720 45Q723 39 725 39Q729 39 735 40.5Q741 42 749.5 47Q758 52 770.5 62.5Q783 73 800 90Q809 99 821.5 99Q834 99 843 90Q852 81 852 68Q852 55 843 47Q798 2 767 -12Q741 -24 723 -22Q705 -20 694 -13Q680 -5 668 13Q656 31 650.5 70.5Q645 110 649.5 175.5Q654 241 672 343Q668 335 664 326Q660 317 655 308Z" glyph-name="U" horiz-adv-x="899" unicode="U" /><glyph d="M321 -185Q307 -185 294.5 -184Q282 -183 268 -181Q179 -164 139 -87Q102 -15 110 107Q118 229 170 402Q193 478 220 551Q247 624 272.5 684.5Q298 745 318 789.5Q338 834 348 855Q353 866 365 870Q377 874 388 869Q399 864 403.5 852Q408 840 403 828Q393 808 373 764.5Q353 721 328.5 661.5Q304 602 277.5 530.5Q251 459 228 384Q180 226 171.5 113.5Q163 1 193 -59Q220 -111 279 -121Q380 -139 470 -71Q519 -36 560.5 17.5Q602 71 637 132.5Q672 194 699.5 259Q727 324 748 382Q773 453 793.5 525Q814 597 829.5 664.5Q845 732 856.5 792Q868 852 874 899Q876 911 885.5 919Q895 927 908 925Q921 923 928.5 913Q936 903 934 891Q928 843 916.5 781.5Q905 720 889 651Q873 582 852 508Q831 434 805 361Q678 5 506 -121Q418 -185 321 -185Z" glyph-name="U.alt1" horiz-adv-x="873" /><glyph d="M765 412Q721 290 671 194.5Q621 99 564 34Q507 -31 444 -65Q381 -99 313 -99Q287 -99 264 -95Q113 -69 113 146Q113 211 127 290Q141 369 170 466Q188 525 209 581Q230 637 249 683.5Q268 730 283.5 764.5Q299 799 307 814Q312 825 324.5 829.5Q337 834 348 829Q359 823 363 811Q367 799 362 788Q354 773 339 739.5Q324 706 305 660.5Q286 615 266 560.5Q246 506 229 449Q174 266 174 146Q174 -17 274 -35Q292 -38 310 -38Q377 -38 435.5 1Q494 40 543.5 105Q593 170 634 255Q675 340 708 432Q724 477 737.5 521.5Q751 566 762.5 607.5Q774 649 782 685.5Q790 722 794 751Q796 764 806 771.5Q816 779 828 777Q841 775 848.5 765.5Q856 756 854 743Q850 713 841.5 675Q833 637 821.5 594Q810 551 795.5 504.5Q781 458 765 412Z" glyph-name="U.alt2" horiz-adv-x="808" /><glyph d="M655 308Q450 -105 255 -105Q238 -105 222 -102Q168 -93 141 -44Q85 57 165 347Q182 405 202 465Q222 525 242.5 582Q263 639 283 692Q303 745 321 791Q329 811 336.5 830Q344 849 350 865Q355 877 366.5 882.5Q378 888 389 883Q401 878 406.5 866.5Q412 855 407 844Q401 827 393.5 808Q386 789 378 769Q360 724 340 671Q320 618 299.5 561.5Q279 505 259.5 446.5Q240 388 224 330Q201 248 190.5 189Q180 130 178.5 89.5Q177 49 181.5 24Q186 -1 194 -14Q207 -38 233 -42Q319 -58 422 55Q510 152 600 334Q639 412 670.5 489Q702 566 724.5 626.5Q747 687 759.5 725Q772 763 772 764Q776 776 787 782Q798 788 810 784Q822 780 828 769.5Q834 759 831 747Q831 746 822.5 716.5Q814 687 801.5 639Q789 591 774 529Q759 467 746 401Q730 324 721.5 262.5Q713 201 710 154Q708 122 709.5 100Q711 78 714 64.5Q717 51 720 45Q723 39 725 39Q729 39 735 40.5Q741 42 749.5 47Q758 52 770.5 62.5Q783 73 800 90Q809 99 821.5 99Q834 99 843 90Q852 81 852 68Q852 55 843 47Q798 2 767 -12Q741 -24 723 -22Q705 -20 694 -13Q680 -5 668 13Q656 31 650.5 70.5Q645 110 649.5 175.5Q654 241 672 343Q668 335 664 326Q660 317 655 308ZM545 891Q543 891 542 890.5Q541 890 539 890Q528 890 519.5 896.5Q511 903 509 914Q506 927 513 937.5Q520 948 532 951Q573 959 599 979Q625 999 641 1016Q649 1026 662 1026Q675 1026 684 1018Q693 1009 693.5 996.5Q694 984 686 975Q680 969 668 957.5Q656 946 638.5 933Q621 920 597.5 908.5Q574 897 545 891Z" glyph-name="Uacute" horiz-adv-x="899" unicode="&#218;" /><glyph d="M321 -185Q307 -185 294.5 -184Q282 -183 268 -181Q179 -164 139 -87Q102 -15 110 107Q118 229 170 402Q193 478 220 551Q247 624 272.5 684.5Q298 745 318 789.5Q338 834 348 855Q353 866 365 870Q377 874 388 869Q399 864 403.5 852Q408 840 403 828Q393 808 373 764.5Q353 721 328.5 661.5Q304 602 277.5 530.5Q251 459 228 384Q180 226 171.5 113.5Q163 1 193 -59Q220 -111 279 -121Q380 -139 470 -71Q519 -36 560.5 17.5Q602 71 637 132.5Q672 194 699.5 259Q727 324 748 382Q773 453 793.5 525Q814 597 829.5 664.5Q845 732 856.5 792Q868 852 874 899Q876 911 885.5 919Q895 927 908 925Q921 923 928.5 913Q936 903 934 891Q928 843 916.5 781.5Q905 720 889 651Q873 582 852 508Q831 434 805 361Q678 5 506 -121Q418 -185 321 -185ZM579 928Q577 928 576 927.5Q575 927 573 927Q562 927 553.5 933.5Q545 940 543 951Q540 964 547 974.5Q554 985 566 988Q607 996 633 1016Q659 1036 675 1053Q683 1063 696 1063Q709 1063 718 1055Q727 1046 727.5 1033.5Q728 1021 720 1012Q714 1006 702 994.5Q690 983 672.5 970Q655 957 631.5 945.5Q608 934 579 928Z" glyph-name="Uacute.alt1" horiz-adv-x="873" /><glyph d="M765 412Q721 290 671 194.5Q621 99 564 34Q507 -31 444 -65Q381 -99 313 -99Q287 -99 264 -95Q113 -69 113 146Q113 211 127 290Q141 369 170 466Q188 525 209 581Q230 637 249 683.5Q268 730 283.5 764.5Q299 799 307 814Q312 825 324.5 829.5Q337 834 348 829Q359 823 363 811Q367 799 362 788Q354 773 339 739.5Q324 706 305 660.5Q286 615 266 560.5Q246 506 229 449Q174 266 174 146Q174 -17 274 -35Q292 -38 310 -38Q377 -38 435.5 1Q494 40 543.5 105Q593 170 634 255Q675 340 708 432Q724 477 737.5 521.5Q751 566 762.5 607.5Q774 649 782 685.5Q790 722 794 751Q796 764 806 771.5Q816 779 828 777Q841 775 848.5 765.5Q856 756 854 743Q850 713 841.5 675Q833 637 821.5 594Q810 551 795.5 504.5Q781 458 765 412ZM503 860Q501 860 500 859.5Q499 859 497 859Q486 859 477.5 865.5Q469 872 467 883Q464 896 471 906.5Q478 917 490 920Q531 928 557 948Q583 968 599 985Q607 995 620 995Q633 995 642 987Q651 978 651.5 965.5Q652 953 644 944Q638 938 626 926.5Q614 915 596.5 902Q579 889 555.5 877.5Q532 866 503 860Z" glyph-name="Uacute.alt2" horiz-adv-x="808" /><glyph d="M655 308Q450 -105 255 -105Q238 -105 222 -102Q168 -93 141 -44Q85 57 165 347Q182 405 202 465Q222 525 242.5 582Q263 639 283 692Q303 745 321 791Q329 811 336.5 830Q344 849 350 865Q355 877 366.5 882.5Q378 888 389 883Q401 878 406.5 866.5Q412 855 407 844Q401 827 393.5 808Q386 789 378 769Q360 724 340 671Q320 618 299.5 561.5Q279 505 259.5 446.5Q240 388 224 330Q201 248 190.5 189Q180 130 178.5 89.5Q177 49 181.5 24Q186 -1 194 -14Q207 -38 233 -42Q319 -58 422 55Q510 152 600 334Q639 412 670.5 489Q702 566 724.5 626.5Q747 687 759.5 725Q772 763 772 764Q776 776 787 782Q798 788 810 784Q822 780 828 769.5Q834 759 831 747Q831 746 822.5 716.5Q814 687 801.5 639Q789 591 774 529Q759 467 746 401Q730 324 721.5 262.5Q713 201 710 154Q708 122 709.5 100Q711 78 714 64.5Q717 51 720 45Q723 39 725 39Q729 39 735 40.5Q741 42 749.5 47Q758 52 770.5 62.5Q783 73 800 90Q809 99 821.5 99Q834 99 843 90Q852 81 852 68Q852 55 843 47Q798 2 767 -12Q741 -24 723 -22Q705 -20 694 -13Q680 -5 668 13Q656 31 650.5 70.5Q645 110 649.5 175.5Q654 241 672 343Q668 335 664 326Q660 317 655 308ZM724 887Q718 882 707 882Q692 882 682 895Q665 919 646.5 939.5Q628 960 619 965Q616 964 609.5 961.5Q603 959 592 951.5Q581 944 563.5 930.5Q546 917 522 896Q513 887 500 888Q487 889 479 898Q471 908 471.5 920.5Q472 933 482 941Q532 986 564 1005.5Q596 1025 619 1026Q636 1027 655.5 1014.5Q675 1002 698 974Q712 957 722 943.5Q732 930 732 929Q740 918 737.5 906Q735 894 724 887Z" glyph-name="Ucircumflex" horiz-adv-x="899" unicode="&#219;" /><glyph d="M321 -185Q307 -185 294.5 -184Q282 -183 268 -181Q179 -164 139 -87Q102 -15 110 107Q118 229 170 402Q193 478 220 551Q247 624 272.5 684.5Q298 745 318 789.5Q338 834 348 855Q353 866 365 870Q377 874 388 869Q399 864 403.5 852Q408 840 403 828Q393 808 373 764.5Q353 721 328.5 661.5Q304 602 277.5 530.5Q251 459 228 384Q180 226 171.5 113.5Q163 1 193 -59Q220 -111 279 -121Q380 -139 470 -71Q519 -36 560.5 17.5Q602 71 637 132.5Q672 194 699.5 259Q727 324 748 382Q773 453 793.5 525Q814 597 829.5 664.5Q845 732 856.5 792Q868 852 874 899Q876 911 885.5 919Q895 927 908 925Q921 923 928.5 913Q936 903 934 891Q928 843 916.5 781.5Q905 720 889 651Q873 582 852 508Q831 434 805 361Q678 5 506 -121Q418 -185 321 -185ZM758 924Q752 919 741 919Q726 919 716 932Q699 956 680.5 976.5Q662 997 653 1002Q650 1001 643.5 998.5Q637 996 626 988.5Q615 981 597.5 967.5Q580 954 556 933Q547 924 534 925Q521 926 513 935Q505 945 505.5 957.5Q506 970 516 978Q566 1023 598 1042.5Q630 1062 653 1063Q670 1064 689.5 1051.5Q709 1039 732 1011Q746 994 756 980.5Q766 967 766 966Q774 955 771.5 943Q769 931 758 924Z" glyph-name="Ucircumflex.alt1" horiz-adv-x="873" /><glyph d="M765 412Q721 290 671 194.5Q621 99 564 34Q507 -31 444 -65Q381 -99 313 -99Q287 -99 264 -95Q113 -69 113 146Q113 211 127 290Q141 369 170 466Q188 525 209 581Q230 637 249 683.5Q268 730 283.5 764.5Q299 799 307 814Q312 825 324.5 829.5Q337 834 348 829Q359 823 363 811Q367 799 362 788Q354 773 339 739.5Q324 706 305 660.5Q286 615 266 560.5Q246 506 229 449Q174 266 174 146Q174 -17 274 -35Q292 -38 310 -38Q377 -38 435.5 1Q494 40 543.5 105Q593 170 634 255Q675 340 708 432Q724 477 737.5 521.5Q751 566 762.5 607.5Q774 649 782 685.5Q790 722 794 751Q796 764 806 771.5Q816 779 828 777Q841 775 848.5 765.5Q856 756 854 743Q850 713 841.5 675Q833 637 821.5 594Q810 551 795.5 504.5Q781 458 765 412ZM682 856Q676 851 665 851Q650 851 640 864Q623 888 604.5 908.5Q586 929 577 934Q574 933 567.5 930.5Q561 928 550 920.5Q539 913 521.5 899.5Q504 886 480 865Q471 856 458 857Q445 858 437 867Q429 877 429.5 889.5Q430 902 440 910Q490 955 522 974.5Q554 994 577 995Q594 996 613.5 983.5Q633 971 656 943Q670 926 680 912.5Q690 899 690 898Q698 887 695.5 875Q693 863 682 856Z" glyph-name="Ucircumflex.alt2" horiz-adv-x="808" /><glyph d="M655 308Q450 -105 255 -105Q238 -105 222 -102Q168 -93 141 -44Q85 57 165 347Q182 405 202 465Q222 525 242.5 582Q263 639 283 692Q303 745 321 791Q329 811 336.5 830Q344 849 350 865Q355 877 366.5 882.5Q378 888 389 883Q401 878 406.5 866.5Q412 855 407 844Q401 827 393.5 808Q386 789 378 769Q360 724 340 671Q320 618 299.5 561.5Q279 505 259.5 446.5Q240 388 224 330Q201 248 190.5 189Q180 130 178.5 89.5Q177 49 181.5 24Q186 -1 194 -14Q207 -38 233 -42Q319 -58 422 55Q510 152 600 334Q639 412 670.5 489Q702 566 724.5 626.5Q747 687 759.5 725Q772 763 772 764Q776 776 787 782Q798 788 810 784Q822 780 828 769.5Q834 759 831 747Q831 746 822.5 716.5Q814 687 801.5 639Q789 591 774 529Q759 467 746 401Q730 324 721.5 262.5Q713 201 710 154Q708 122 709.5 100Q711 78 714 64.5Q717 51 720 45Q723 39 725 39Q729 39 735 40.5Q741 42 749.5 47Q758 52 770.5 62.5Q783 73 800 90Q809 99 821.5 99Q834 99 843 90Q852 81 852 68Q852 55 843 47Q798 2 767 -12Q741 -24 723 -22Q705 -20 694 -13Q680 -5 668 13Q656 31 650.5 70.5Q645 110 649.5 175.5Q654 241 672 343Q668 335 664 326Q660 317 655 308ZM709 925Q701 920 690 920Q680 920 673 925Q668 928 664 934Q660 937 659 942Q657 947 657 952.5Q657 958 657 963Q658 974 665.5 982Q673 990 684 992Q697 994 709 985Q712 983 715.5 981.5Q719 980 722 977Q730 969 730.5 957Q731 945 724 936Q722 934 718.5 930.5Q715 927 709 925ZM567 924Q562 922 557.5 918Q553 914 539 914Q535 914 527 916Q520 918 516 922.5Q512 927 507 932Q499 947 506 962L513 975Q518 986 530 990Q542 994 553 989Q567 983 573.5 976Q580 969 583 959Q585 948 580.5 938.5Q576 929 567 924Z" glyph-name="Udieresis" horiz-adv-x="899" unicode="&#220;" /><glyph d="M321 -185Q307 -185 294.5 -184Q282 -183 268 -181Q179 -164 139 -87Q102 -15 110 107Q118 229 170 402Q193 478 220 551Q247 624 272.5 684.5Q298 745 318 789.5Q338 834 348 855Q353 866 365 870Q377 874 388 869Q399 864 403.5 852Q408 840 403 828Q393 808 373 764.5Q353 721 328.5 661.5Q304 602 277.5 530.5Q251 459 228 384Q180 226 171.5 113.5Q163 1 193 -59Q220 -111 279 -121Q380 -139 470 -71Q519 -36 560.5 17.5Q602 71 637 132.5Q672 194 699.5 259Q727 324 748 382Q773 453 793.5 525Q814 597 829.5 664.5Q845 732 856.5 792Q868 852 874 899Q876 911 885.5 919Q895 927 908 925Q921 923 928.5 913Q936 903 934 891Q928 843 916.5 781.5Q905 720 889 651Q873 582 852 508Q831 434 805 361Q678 5 506 -121Q418 -185 321 -185ZM743 962Q735 957 724 957Q714 957 707 962Q702 965 698 971Q694 974 693 979Q691 984 691 989.5Q691 995 691 1000Q692 1011 699.5 1019Q707 1027 718 1029Q731 1031 743 1022Q746 1020 749.5 1018.5Q753 1017 756 1014Q764 1006 764.5 994Q765 982 758 973Q756 971 752.5 967.5Q749 964 743 962ZM601 961Q596 959 591.5 955Q587 951 573 951Q569 951 561 953Q554 955 550 959.5Q546 964 541 969Q533 984 540 999L547 1012Q552 1023 564 1027Q576 1031 587 1026Q601 1020 607.5 1013Q614 1006 617 996Q619 985 614.5 975.5Q610 966 601 961Z" glyph-name="Udieresis.alt1" horiz-adv-x="873" /><glyph d="M765 412Q721 290 671 194.5Q621 99 564 34Q507 -31 444 -65Q381 -99 313 -99Q287 -99 264 -95Q113 -69 113 146Q113 211 127 290Q141 369 170 466Q188 525 209 581Q230 637 249 683.5Q268 730 283.5 764.5Q299 799 307 814Q312 825 324.5 829.5Q337 834 348 829Q359 823 363 811Q367 799 362 788Q354 773 339 739.5Q324 706 305 660.5Q286 615 266 560.5Q246 506 229 449Q174 266 174 146Q174 -17 274 -35Q292 -38 310 -38Q377 -38 435.5 1Q494 40 543.5 105Q593 170 634 255Q675 340 708 432Q724 477 737.5 521.5Q751 566 762.5 607.5Q774 649 782 685.5Q790 722 794 751Q796 764 806 771.5Q816 779 828 777Q841 775 848.5 765.5Q856 756 854 743Q850 713 841.5 675Q833 637 821.5 594Q810 551 795.5 504.5Q781 458 765 412ZM667 894Q659 889 648 889Q638 889 631 894Q626 897 622 903Q618 906 617 911Q615 916 615 921.5Q615 927 615 932Q616 943 623.5 951Q631 959 642 961Q655 963 667 954Q670 952 673.5 950.5Q677 949 680 946Q688 938 688.5 926Q689 914 682 905Q680 903 676.5 899.5Q673 896 667 894ZM525 893Q520 891 515.5 887Q511 883 497 883Q493 883 485 885Q478 887 474 891.5Q470 896 465 901Q457 916 464 931L471 944Q476 955 488 959Q500 963 511 958Q525 952 531.5 945Q538 938 541 928Q543 917 538.5 907.5Q534 898 525 893Z" glyph-name="Udieresis.alt2" horiz-adv-x="808" /><glyph d="M655 308Q450 -105 255 -105Q238 -105 222 -102Q168 -93 141 -44Q85 57 165 347Q182 405 202 465Q222 525 242.5 582Q263 639 283 692Q303 745 321 791Q329 811 336.5 830Q344 849 350 865Q355 877 366.5 882.5Q378 888 389 883Q401 878 406.5 866.5Q412 855 407 844Q401 827 393.5 808Q386 789 378 769Q360 724 340 671Q320 618 299.5 561.5Q279 505 259.5 446.5Q240 388 224 330Q201 248 190.5 189Q180 130 178.5 89.5Q177 49 181.5 24Q186 -1 194 -14Q207 -38 233 -42Q319 -58 422 55Q510 152 600 334Q639 412 670.5 489Q702 566 724.5 626.5Q747 687 759.5 725Q772 763 772 764Q776 776 787 782Q798 788 810 784Q822 780 828 769.5Q834 759 831 747Q831 746 822.5 716.5Q814 687 801.5 639Q789 591 774 529Q759 467 746 401Q730 324 721.5 262.5Q713 201 710 154Q708 122 709.5 100Q711 78 714 64.5Q717 51 720 45Q723 39 725 39Q729 39 735 40.5Q741 42 749.5 47Q758 52 770.5 62.5Q783 73 800 90Q809 99 821.5 99Q834 99 843 90Q852 81 852 68Q852 55 843 47Q798 2 767 -12Q741 -24 723 -22Q705 -20 694 -13Q680 -5 668 13Q656 31 650.5 70.5Q645 110 649.5 175.5Q654 241 672 343Q668 335 664 326Q660 317 655 308ZM711 906Q709 895 700.5 887.5Q692 880 681 880Q679 880 678 880.5Q677 881 676 881Q619 891 578.5 923Q538 955 516 1006Q511 1018 516 1029.5Q521 1041 532 1046Q544 1051 555.5 1046Q567 1041 572 1030Q604 956 686 941Q699 939 706 928.5Q713 918 711 906Z" glyph-name="Ugrave" horiz-adv-x="899" unicode="&#217;" /><glyph d="M321 -185Q307 -185 294.5 -184Q282 -183 268 -181Q179 -164 139 -87Q102 -15 110 107Q118 229 170 402Q193 478 220 551Q247 624 272.5 684.5Q298 745 318 789.5Q338 834 348 855Q353 866 365 870Q377 874 388 869Q399 864 403.5 852Q408 840 403 828Q393 808 373 764.5Q353 721 328.5 661.5Q304 602 277.5 530.5Q251 459 228 384Q180 226 171.5 113.5Q163 1 193 -59Q220 -111 279 -121Q380 -139 470 -71Q519 -36 560.5 17.5Q602 71 637 132.5Q672 194 699.5 259Q727 324 748 382Q773 453 793.5 525Q814 597 829.5 664.5Q845 732 856.5 792Q868 852 874 899Q876 911 885.5 919Q895 927 908 925Q921 923 928.5 913Q936 903 934 891Q928 843 916.5 781.5Q905 720 889 651Q873 582 852 508Q831 434 805 361Q678 5 506 -121Q418 -185 321 -185ZM745 943Q743 932 734.5 924.5Q726 917 715 917Q713 917 712 917.5Q711 918 710 918Q653 928 612.5 960Q572 992 550 1043Q545 1055 550 1066.5Q555 1078 566 1083Q578 1088 589.5 1083Q601 1078 606 1067Q638 993 720 978Q733 976 740 965.5Q747 955 745 943Z" glyph-name="Ugrave.alt1" horiz-adv-x="873" /><glyph d="M765 412Q721 290 671 194.5Q621 99 564 34Q507 -31 444 -65Q381 -99 313 -99Q287 -99 264 -95Q113 -69 113 146Q113 211 127 290Q141 369 170 466Q188 525 209 581Q230 637 249 683.5Q268 730 283.5 764.5Q299 799 307 814Q312 825 324.5 829.5Q337 834 348 829Q359 823 363 811Q367 799 362 788Q354 773 339 739.5Q324 706 305 660.5Q286 615 266 560.5Q246 506 229 449Q174 266 174 146Q174 -17 274 -35Q292 -38 310 -38Q377 -38 435.5 1Q494 40 543.5 105Q593 170 634 255Q675 340 708 432Q724 477 737.5 521.5Q751 566 762.5 607.5Q774 649 782 685.5Q790 722 794 751Q796 764 806 771.5Q816 779 828 777Q841 775 848.5 765.5Q856 756 854 743Q850 713 841.5 675Q833 637 821.5 594Q810 551 795.5 504.5Q781 458 765 412ZM669 875Q667 864 658.5 856.5Q650 849 639 849Q637 849 636 849.5Q635 850 634 850Q577 860 536.5 892Q496 924 474 975Q469 987 474 998.5Q479 1010 490 1015Q502 1020 513.5 1015Q525 1010 530 999Q562 925 644 910Q657 908 664 897.5Q671 887 669 875Z" glyph-name="Ugrave.alt2" horiz-adv-x="808" /><glyph d="M330 -273Q328 -273 326 -272.5Q324 -272 322 -272Q302 -265 300 -246L180 687Q178 699 186 709Q194 719 206 721Q219 723 228.5 715Q238 707 240 694L350 -163Q383 -116 433 -41.5Q483 33 540 127Q617 254 671.5 363Q726 472 763.5 561.5Q801 651 823.5 722Q846 793 858 846Q861 859 871.5 865.5Q882 872 895 869Q907 866 913.5 855.5Q920 845 918 833Q895 734 857.5 633.5Q820 533 775.5 437Q731 341 683 254Q635 167 592 95Q545 17 502 -48Q459 -113 426.5 -160Q394 -207 374 -233.5Q354 -260 354 -261Q344 -273 330 -273Z" glyph-name="V" horiz-adv-x="807" unicode="V" /><glyph d="M474 -178Q466 -185 453 -185H451Q438 -185 429 -174Q396 -132 368.5 -59.5Q341 13 318.5 103Q296 193 279 293Q262 393 250.5 489Q239 585 233 671.5Q227 758 227 820Q227 833 235.5 842Q244 851 257 851Q270 851 278.5 842Q287 833 287 820Q287 768 291 704.5Q295 641 301.5 572.5Q308 504 318 433Q328 362 340 295Q365 155 395.5 52.5Q426 -50 458 -107Q492 -72 547 -1Q602 70 657 169Q684 217 710.5 275Q737 333 756.5 398.5Q776 464 785.5 534Q795 604 788 675Q787 688 795 697.5Q803 707 815 709Q828 710 837.5 702Q847 694 849 681Q862 549 820 396Q802 333 774.5 269Q747 205 711 139Q682 88 648 37.5Q614 -13 578 -61Q549 -97 521.5 -127.5Q494 -158 474 -178Z" glyph-name="V.alt1" horiz-adv-x="870" /><glyph d="M447 -128Q439 -136 427 -136H422Q408 -134 401 -122Q284 71 207 383Q193 441 182.5 490.5Q172 540 165.5 576.5Q159 613 156 634Q153 655 153 657Q151 670 158.5 680Q166 690 179 692Q191 694 201 686Q211 678 213 665Q213 664 218 630.5Q223 597 234 541.5Q245 486 262 413.5Q279 341 303.5 261.5Q328 182 360 100.5Q392 19 432 -54Q453 -26 484 21.5Q515 69 549.5 130Q584 191 619.5 263Q655 335 687 413Q719 491 744.5 571.5Q770 652 784 730Q786 742 796.5 749Q807 756 820 754Q832 752 839 742Q846 732 844 719Q828 631 798 539Q768 447 730.5 358.5Q693 270 651 189Q609 108 570 43.5Q531 -21 498.5 -66Q466 -111 447 -128Z" glyph-name="V.alt2" horiz-adv-x="789" /><glyph d="M328 632Q345 725 340 819Q340 822 339.5 824.5Q339 827 339 830Q339 850 348 859.5Q357 869 368 869Q380 869 391 858Q402 847 404 825Q408 786 401.5 724.5Q395 663 381.5 588Q368 513 349.5 429.5Q331 346 311 263Q297 204 284 150.5Q271 97 263 53Q255 14 253 -7.5Q251 -29 252 -39Q265 -33 291 -9Q317 15 359 76Q432 179 526 362Q566 440 601.5 514.5Q637 589 664 648Q691 707 707 743.5Q723 780 723 781Q731 799 751 799Q769 799 781 786Q792 775 797 751Q802 727 802.5 686Q803 645 800 584Q797 523 791 437Q786 362 781.5 287.5Q777 213 777 149Q777 79 782.5 48Q788 17 792 8Q800 16 815 39.5Q830 63 855 114Q878 163 904.5 227Q931 291 958 366Q986 444 1012 523Q1038 602 1059.5 676Q1081 750 1097.5 816.5Q1114 883 1123 936Q1125 949 1135.5 956Q1146 963 1158 961Q1171 959 1178 948.5Q1185 938 1183 926Q1173 870 1155.5 799Q1138 728 1115 649Q1092 570 1064.5 487Q1037 404 1007 323Q978 243 950 177.5Q922 112 898 64Q879 26 864 2.5Q849 -21 836 -34.5Q823 -48 812.5 -53Q802 -58 792 -58Q768 -58 752 -40Q717 -2 716.5 119Q716 240 730 441Q734 498 737 550Q740 602 741 644Q742 652 742 658.5Q742 665 742 671Q714 609 672 519.5Q630 430 580 334Q532 241 489.5 168Q447 95 409 41Q375 -7 348.5 -35.5Q322 -64 301.5 -79Q281 -94 265.5 -98.5Q250 -103 239 -103Q218 -103 204 -86Q193 -72 191 -46.5Q189 -21 195 21.5Q201 64 215.5 126.5Q230 189 251 277Q273 364 294.5 457.5Q316 551 328 632Z" glyph-name="W" horiz-adv-x="1120" unicode="W" /><glyph d="M241 -100Q220 -100 208 -85Q197 -72 193.5 -46.5Q190 -21 194.5 23Q199 67 210 133Q221 199 238 293Q253 378 269 470Q285 562 295 647.5Q305 733 305.5 804Q306 875 291 918Q286 930 292 941Q298 952 309 957Q321 961 332.5 955.5Q344 950 348 938Q365 889 366 815.5Q367 742 357.5 654Q348 566 331.5 470.5Q315 375 298 282Q286 219 276 162.5Q266 106 260 60Q256 30 254.5 10.5Q253 -9 253 -21Q263 -8 280 20Q297 48 322.5 98Q348 148 383 223.5Q418 299 464 408Q498 487 529 563Q560 639 583.5 698Q607 757 621 793.5Q635 830 635 831Q639 842 649 847Q659 852 670 850Q687 847 691 834.5Q695 822 697 812Q698 806 699 797Q700 788 702 776Q704 753 707.5 722.5Q711 692 715 655Q719 614 724 566.5Q729 519 734.5 469Q740 419 746 368.5Q752 318 759 271Q766 221 772.5 184Q779 147 784.5 120.5Q790 94 794.5 77.5Q799 61 803 51Q811 65 825 94Q839 123 859 177Q881 234 906 307.5Q931 381 957 467Q983 552 1005 630Q1027 708 1042.5 770Q1058 832 1066.5 874.5Q1075 917 1075 931Q1075 944 1084 952.5Q1093 961 1105 961Q1118 961 1127 952.5Q1136 944 1136 931Q1136 910 1124.5 856Q1113 802 1094.5 730.5Q1076 659 1053 578.5Q1030 498 1007 423Q997 391 985 354Q973 317 960 278Q947 239 932.5 199.5Q918 160 904 125Q891 93 880 68Q869 43 859 26Q848 7 833.5 -9Q819 -25 799 -25Q785 -25 775 -17Q765 -9 757.5 4Q750 17 744.5 33Q739 49 735 65Q727 95 719 137Q711 179 703 235Q695 284 688.5 338.5Q682 393 675.5 447Q669 501 663.5 552.5Q658 604 654 649Q652 662 651.5 674.5Q651 687 649 698Q623 633 587.5 545Q552 457 512 363Q470 265 434 188.5Q398 112 369 55Q352 21 336.5 -5Q321 -31 308 -49Q288 -76 272.5 -88Q257 -100 241 -100Z" glyph-name="W.alt1" horiz-adv-x="1069" /><glyph d="M732 -153Q702 -151 686 -113.5Q670 -76 657 -9Q647 44 638.5 108Q630 172 622 237Q619 262 615.5 290Q612 318 608.5 345Q605 372 601.5 396Q598 420 594 438Q583 420 569.5 395.5Q556 371 541 342.5Q526 314 510.5 285Q495 256 482 229Q433 134 401.5 75.5Q370 17 349 -15Q328 -47 313.5 -58Q299 -69 286 -69Q269 -69 259 -57Q250 -48 246 -30Q242 -12 241 23Q240 58 243 113.5Q246 169 251 253Q255 319 259 391Q263 463 264.5 531.5Q266 600 263.5 659.5Q261 719 252 760Q249 772 255.5 782.5Q262 793 275 796Q287 799 298 792Q309 785 311 773Q321 729 324 667Q327 605 325.5 535Q324 465 320 391Q316 317 312 250Q310 220 308 189Q306 158 304.5 128Q303 98 302.5 71.5Q302 45 302 25Q308 35 316 48.5Q324 62 334 80Q355 118 379.5 164Q404 210 428 257Q473 345 501.5 398.5Q530 452 548.5 480Q567 508 579 516.5Q591 525 604 525Q630 524 640.5 496.5Q651 469 659 423Q665 388 670.5 342Q676 296 683 245Q690 187 697.5 129.5Q705 72 714 22Q721 -19 726.5 -42.5Q732 -66 737 -78Q743 -67 752.5 -48Q762 -29 776 4Q795 48 816 103Q837 158 860 219Q892 304 925.5 392.5Q959 481 994 561Q1029 641 1064.5 706Q1100 771 1135 810Q1143 820 1155.5 820.5Q1168 821 1178 813Q1187 804 1187.5 791.5Q1188 779 1180 770Q1148 734 1114 670Q1080 606 1046 527.5Q1012 449 979.5 363Q947 277 917 198Q891 130 867.5 69Q844 8 824 -38Q813 -64 803.5 -82.5Q794 -101 786 -114Q778 -128 765 -140.5Q752 -153 734 -153Z" glyph-name="W.alt2" horiz-adv-x="1105" /><glyph d="M171 -149Q162 -164 144 -164Q136 -164 129 -160Q118 -154 114.5 -141.5Q111 -129 118 -118Q163 -40 211 39.5Q259 119 308.5 197Q358 275 407 350Q456 425 503 494Q495 517 486.5 539Q478 561 469 582Q368 825 262 825Q219 825 161 787Q150 779 138.5 781.5Q127 784 119 795Q112 806 114 818Q116 830 127 837Q198 886 262 886Q407 886 525 606Q530 594 535 581.5Q540 569 545 556Q618 664 675.5 744.5Q733 825 762 867Q770 878 782 880Q794 882 804 874Q815 866 817 854Q819 842 811 832Q779 787 715 696.5Q651 606 570 485Q602 391 628.5 293Q655 195 678 108Q685 81 691.5 55.5Q698 30 704 6Q708 -6 701.5 -17Q695 -28 683 -31Q680 -32 675 -32Q665 -32 656.5 -26Q648 -20 646 -9Q632 37 619 93Q599 169 576.5 253.5Q554 338 527 421Q439 290 346.5 143Q254 -4 171 -149Z" glyph-name="X" horiz-adv-x="799" unicode="X" /><glyph d="M649 -122Q643 -127 632 -127Q616 -127 607 -113Q583 -76 547.5 11.5Q512 99 465 218Q451 255 436 293Q421 331 405 370Q366 307 330.5 248Q295 189 265.5 139Q236 89 214.5 51.5Q193 14 182 -7Q178 -15 170.5 -19Q163 -23 155 -23Q148 -23 141 -20Q130 -14 126.5 -2Q123 10 129 21Q138 38 161 78Q184 118 217 174.5Q250 231 291 299Q332 367 377 440Q348 511 318 580Q288 649 258.5 710Q229 771 200 821Q171 871 144 905Q136 915 137.5 927.5Q139 940 149 948Q159 956 171.5 954.5Q184 953 192 943Q219 910 246.5 862.5Q274 815 302.5 757.5Q331 700 360 635Q389 570 417 503Q456 564 495 624.5Q534 685 571.5 739.5Q609 794 644 840.5Q679 887 708 920Q716 930 728.5 930.5Q741 931 751 923Q761 915 761.5 902.5Q762 890 754 880Q724 845 687 796Q650 747 610 688.5Q570 630 528 565Q486 500 445 434Q465 384 484.5 335.5Q504 287 522 240Q544 184 564 133.5Q584 83 601.5 41Q619 -1 633 -32.5Q647 -64 658 -80Q665 -91 662.5 -103Q660 -115 649 -122Z" glyph-name="X.alt1" horiz-adv-x="722" /><glyph d="M105 -66Q96 -76 83 -76Q72 -76 62 -68Q53 -60 52.5 -47.5Q52 -35 60 -25Q161 87 246 189Q331 291 407 388Q359 488 297.5 588.5Q236 689 158 780Q150 790 150.5 802.5Q151 815 161 823Q170 831 183 830.5Q196 830 204 820Q280 732 340.5 635.5Q401 539 449 442Q474 474 498 505.5Q522 537 546 569Q588 624 630 679.5Q672 735 717 792Q725 802 737.5 803.5Q750 805 760 797Q770 789 771.5 776.5Q773 764 765 754Q720 698 678.5 642.5Q637 587 595 532Q566 494 537 456.5Q508 419 478 380Q520 291 552 210.5Q584 130 608 66Q616 43 623.5 24.5Q631 6 638 -11Q643 -23 637.5 -34.5Q632 -46 621 -51Q613 -53 609 -53Q589 -53 581 -34Q574 -17 566.5 2Q559 21 551 44Q529 103 501 175Q473 247 436 327Q363 234 282 137.5Q201 41 105 -66Z" glyph-name="X.alt2" horiz-adv-x="724" /><glyph d="M225 123Q279 123 346.5 194Q414 265 489 399Q518 452 543 503.5Q568 555 586 597Q604 639 615 666.5Q626 694 628 699Q632 710 640.5 715Q649 720 658 720H662Q673 718 680 710Q687 702 687 691V687Q687 684 681.5 659Q676 634 666 593Q656 552 642 498Q628 444 610.5 381.5Q593 319 572 251Q551 183 528 115Q428 -176 332.5 -318.5Q237 -461 143 -461Q105 -461 74 -443Q43 -425 27 -393Q12 -365 12 -331Q12 -267 62 -197Q88 -162 123 -128Q158 -94 198 -61.5Q238 -29 281 2Q324 33 365 62Q394 82 420.5 101Q447 120 471 139Q492 201 510.5 260.5Q529 320 545 376L542 370Q467 235 396 158Q306 62 226 62Q223 62 220 62.5Q217 63 214 63Q156 68 129 113Q118 132 113 155.5Q108 179 108 207Q108 255 121 314Q134 373 154.5 436Q175 499 201.5 564Q228 629 255 691Q263 710 283 710Q289 710 295 707Q303 703 308 695Q313 687 313 678Q313 675 312.5 672.5Q312 670 311 667Q299 639 284 604.5Q269 570 254 532Q239 494 225 454Q211 414 200 375Q189 341 179 294Q169 247 169 206Q169 187 171.5 171.5Q174 156 181 145Q193 126 219 123ZM307 -245Q371 -135 435 37Q426 31 417.5 24.5Q409 18 400 12Q360 -16 319 -45.5Q278 -75 239.5 -106Q201 -137 168 -169Q135 -201 112 -233Q89 -265 81 -289.5Q73 -314 73 -331Q73 -344 76 -352.5Q79 -361 81 -366Q89 -382 105.5 -391Q122 -400 143 -400Q216 -400 307 -245Z" glyph-name="Y" horiz-adv-x="642" unicode="Y" /><glyph d="M242 -436Q198 -436 158 -406Q107 -367 104 -305Q101 -213 206 -79Q232 -46 259 -16.5Q286 13 309.5 36Q333 59 351 75.5Q369 92 378 100Q387 108 399.5 107Q412 106 420 96Q428 87 427.5 74Q427 61 417 53Q371 13 325.5 -34.5Q280 -82 244 -130Q208 -178 186 -223Q164 -268 165 -303Q165 -314 170.5 -327Q176 -340 186 -350.5Q196 -361 210 -368Q224 -375 242 -375Q259 -375 282 -363Q305 -351 332 -318Q375 -266 409.5 -183.5Q444 -101 472 -3Q500 95 523.5 200Q547 305 567 403Q569 411 570.5 420Q572 429 574 437Q561 414 547 392.5Q533 371 518 349Q383 154 287 154Q276 154 259 159Q212 173 187 222Q156 280 156 387Q156 432 161.5 482.5Q167 533 175 582Q183 631 193.5 675Q204 719 213 749Q217 761 228 767Q239 773 251 769Q263 765 269 754Q275 743 271 731Q260 697 250.5 655Q241 613 233.5 568Q226 523 221.5 477Q217 431 217 389Q217 346 222.5 310.5Q228 275 241 250Q249 233 259.5 224Q270 215 288 215Q305 215 323.5 227Q342 239 357 252Q382 274 410 306.5Q438 339 468 384Q495 423 519.5 464Q544 505 564.5 542.5Q585 580 601 611.5Q617 643 626 663Q631 674 642 679Q653 684 664 680Q675 676 680.5 665.5Q686 655 683 643Q669 588 655 524Q641 460 627 390Q605 285 581 176.5Q557 68 527.5 -31.5Q498 -131 461.5 -215.5Q425 -300 379 -357Q347 -396 312 -416Q277 -436 242 -436Z" glyph-name="Y.alt1" horiz-adv-x="653" /><glyph d="M293 -291Q247 -291 207 -276Q167 -261 138 -240Q128 -232 126 -220Q124 -208 132 -198Q140 -187 152 -185Q164 -183 174 -191Q195 -206 226.5 -218Q258 -230 294 -230Q306 -230 318.5 -228.5Q331 -227 343 -223Q458 -188 553 45Q579 110 601 180Q623 250 642 322Q633 307 623.5 292Q614 277 604 262Q466 61 337 61Q313 61 291 67Q236 83 202 144Q182 181 174 231Q166 281 166 340Q166 428 182.5 522.5Q199 617 227 701Q231 713 242 719Q253 725 265 721Q277 716 283 705Q289 694 285 682Q272 643 261 600Q250 557 242.5 512.5Q235 468 230.5 423.5Q226 379 226 338Q226 288 233 245.5Q240 203 256 173Q276 135 308 126Q320 122 336 122Q376 122 421.5 153Q467 184 514.5 244Q562 304 611.5 391.5Q661 479 711 593Q716 604 727 609Q738 614 749 610Q760 605 766 595Q772 585 769 573Q764 552 758 529.5Q752 507 746 483Q718 371 686 251Q654 131 609 22Q555 -110 494 -184.5Q433 -259 361 -281Q328 -291 293 -291Z" glyph-name="Y.alt2" horiz-adv-x="792" /><glyph d="M129 -205Q112 -205 104 -191Q92 -175 104 -158Q129 -121 169 -71.5Q209 -22 257.5 34.5Q306 91 360 152Q414 213 469 274Q515 326 561 377.5Q607 429 649 477.5Q691 526 727.5 569.5Q764 613 791 649Q759 652 727.5 655.5Q696 659 666 663Q600 670 539 676Q478 682 417 682Q362 682 305.5 675.5Q249 669 189 653Q177 650 166 656Q155 662 152 675Q148 687 154.5 698Q161 709 173 712Q239 729 299.5 735.5Q360 742 419 742Q483 742 545.5 736.5Q608 731 673 723Q715 718 759 713.5Q803 709 850 706Q866 704 875 689Q883 673 873 658Q849 622 811.5 575Q774 528 726.5 473.5Q679 419 625 358Q571 297 514 233Q470 183 425.5 133.5Q381 84 340 37Q299 -10 262.5 -53Q226 -96 198 -133Q267 -123 322.5 -119Q378 -115 425 -115Q487 -115 534 -120Q581 -125 622 -130Q633 -132 642 -133Q651 -134 661 -135Q673 -137 681 -146.5Q689 -156 687 -169Q685 -182 675.5 -190Q666 -198 653 -196Q644 -194 634.5 -193.5Q625 -193 614 -191Q573 -186 528 -181Q483 -176 425 -176Q368 -176 298 -182Q228 -188 135 -205Z" glyph-name="Z" horiz-adv-x="846" unicode="Z" /><glyph d="M719 -222Q717 -233 708.5 -240.5Q700 -248 689 -248H685Q655 -248 623 -240.5Q591 -233 555 -225Q520 -218 492 -213Q464 -208 431 -203.5Q398 -199 355 -195.5Q312 -192 246 -187Q231 -187 223 -174Q214 -162 219 -148Q248 -53 306 65.5Q364 184 445 313Q509 416 579 509Q649 602 712 672Q683 680 636.5 688.5Q590 697 532 699Q494 700 448.5 696.5Q403 693 355 681.5Q307 670 259 647.5Q211 625 167 589Q157 581 144.5 582Q132 583 124 593Q116 603 117 615.5Q118 628 128 636Q179 678 234 703Q289 728 343.5 741Q398 754 449 757.5Q500 761 544 759Q592 757 633.5 750.5Q675 744 706.5 736.5Q738 729 758.5 722Q779 715 784 711Q792 705 795.5 695.5Q799 686 795 675Q792 667 784 660Q742 616 694.5 558Q647 500 599.5 434Q552 368 506 295.5Q460 223 419 150Q378 77 344.5 5.5Q311 -66 289 -130Q348 -135 386 -138.5Q424 -142 453.5 -146Q483 -150 508.5 -154.5Q534 -159 567 -166Q602 -173 632.5 -178.5Q663 -184 692 -188Q705 -190 713 -199.5Q721 -209 719 -222Z" glyph-name="Z.alt1" horiz-adv-x="794" /><glyph d="M128 -150Q111 -150 102 -136Q97 -128 97 -119Q97 -110 102 -102Q144 -40 201 41.5Q258 123 321 214Q360 270 398.5 326Q437 382 473.5 434.5Q510 487 543 535Q576 583 603 624Q522 629 452 631Q382 633 327 632Q272 631 234 628.5Q196 626 178 622Q166 619 155 625.5Q144 632 141 645Q138 657 144.5 667.5Q151 678 164 681Q189 687 238 690Q287 693 353 693Q419 693 498 690.5Q577 688 660 682Q677 680 686 665Q689 657 689 649Q689 641 684 634Q657 593 621 541Q585 489 544.5 429.5Q504 370 459.5 306.5Q415 243 371 179Q322 108 276.5 43Q231 -22 193 -78Q266 -68 328.5 -63.5Q391 -59 442 -58Q493 -57 532.5 -58.5Q572 -60 599 -61Q612 -62 622 -62.5Q632 -63 636 -63Q649 -61 658 -69.5Q667 -78 669 -90Q670 -103 662 -112.5Q654 -122 641 -123Q634 -124 623.5 -123.5Q613 -123 596 -122Q567 -121 522.5 -119.5Q478 -118 419.5 -119.5Q361 -121 289 -127.5Q217 -134 133 -149Q131 -150 128 -150Z" glyph-name="Z.alt2" horiz-adv-x="736" /><glyph d="M633 250Q614 217 590.5 180.5Q567 144 542 113.5Q517 83 491.5 63Q466 43 444 43Q434 43 421 47Q408 51 395 65Q352 111 337 264Q336 271 335.5 277.5Q335 284 335 291Q327 275 318.5 259Q310 243 300 226Q187 23 79 23Q35 23 15 49.5Q-5 76 -5 119Q-5 161 14.5 214.5Q34 268 67 318Q93 357 118 380.5Q143 404 165 417Q187 430 205 434Q223 438 235 438Q262 438 282.5 426Q303 414 317 398L333 439Q337 450 347 455Q357 460 368 458Q379 456 386 447Q393 438 392 427Q392 421 391.5 405.5Q391 390 392 369Q393 348 394 322.5Q395 297 398 270Q402 225 407.5 195Q413 165 419 146.5Q425 128 430.5 119Q436 110 439 107Q443 103 444 103Q456 103 470 117Q484 131 501 154Q522 184 542 215.5Q562 247 580 280Q586 291 598.5 294Q611 297 622 291Q632 286 635.5 273.5Q639 261 633 250ZM235 377Q206 377 174.5 350Q143 323 117 283Q91 243 73.5 198.5Q56 154 56 119Q56 105 58 98.5Q60 92 62 90Q63 88 66.5 86Q70 84 79 84Q89 84 104.5 90Q120 96 141 114Q162 132 188.5 165.5Q215 199 247 255Q270 296 288 334Q281 346 267.5 361.5Q254 377 235 377Z" glyph-name="a" horiz-adv-x="536" unicode="a" /><glyph d="M663 250Q613 164 576 113.5Q539 63 512 37Q485 11 466.5 3.5Q448 -4 435 -4Q424 -4 408.5 1.5Q393 7 379 27Q368 42 361 63.5Q354 85 349.5 110.5Q345 136 342.5 162.5Q340 189 340 215Q326 197 311 178Q296 159 280 139Q217 64 169 23Q101 -36 51 -36Q26 -36 12 -26.5Q-2 -17 -10 -6Q-26 18 -26 56Q-26 82 -18.5 115Q-11 148 2.5 185.5Q16 223 35.5 263Q55 303 79 342Q103 380 127.5 412Q152 444 177 467Q238 526 289 526Q310 526 325 516Q340 506 350.5 491Q361 476 366.5 459.5Q372 443 374 430Q376 417 368 407Q360 397 348 395Q335 393 325 401Q315 409 313 421Q311 433 304.5 449Q298 465 289 465Q266 465 223.5 428Q181 391 131 310Q110 275 92.5 239.5Q75 204 62 170Q49 136 42 106.5Q35 77 35 56Q35 38 39 31.5Q43 25 51 25Q59 25 77.5 32.5Q96 40 129 69Q152 89 177.5 115.5Q203 142 232 177Q282 237 313 281Q344 325 352 338Q359 348 369.5 351Q380 354 391 349Q402 344 406 333Q410 322 406 311Q404 304 401.5 271.5Q399 239 401 195Q403 147 410.5 112Q418 77 429 62Q432 57 435 57Q438 58 449 64Q460 70 481 92.5Q502 115 534 159Q566 203 610 280Q616 291 628.5 294Q641 297 652 291Q662 286 666 273.5Q670 261 663 250Z" glyph-name="a.alt1" horiz-adv-x="566" /><glyph d="M666 250Q659 237 650.5 221Q642 205 630.5 185Q619 165 604 141Q589 117 568 87Q544 51 524.5 30Q505 9 489.5 -2Q474 -13 462.5 -16Q451 -19 442 -19Q397 -19 365.5 29.5Q334 78 314 179Q311 191 309 203.5Q307 216 305 227L300 218Q237 72 163 33Q136 18 108 18Q89 18 71.5 25.5Q54 33 40.5 46.5Q27 60 18 79Q9 98 7 122Q4 160 15.5 205.5Q27 251 52 297Q78 344 110.5 378.5Q143 413 178 430Q237 459 284 439Q301 432 313 421Q325 410 332.5 399.5Q340 389 343.5 380.5Q347 372 348 369Q349 364 351 347Q353 330 355.5 305.5Q358 281 362.5 251Q367 221 373 190Q382 146 392 117.5Q402 89 411.5 72Q421 55 429 48Q437 41 442 41Q451 41 470.5 62Q490 83 519 123Q539 151 555.5 177.5Q572 204 584 225Q596 246 603 260.5Q610 275 613 280Q619 291 631.5 294Q644 297 655 291Q665 286 668.5 273.5Q672 261 666 250ZM260 383Q252 386 243 386Q228 386 204 375Q178 362 152 334Q126 306 106 268Q86 230 75.5 193Q65 156 67 127Q68 109 77 94Q86 79 108 79Q120 79 134 87Q160 101 184.5 135Q209 169 229 209Q249 249 264 289Q279 329 287 356Q284 363 277.5 370.5Q271 378 260 383Z" glyph-name="a.alt2" horiz-adv-x="569" /><glyph d="M300 226Q186 23 78 23Q52 23 36.5 32.5Q21 42 13 53Q-6 78 -6 119Q-6 161 13.5 214.5Q33 268 67 318Q93 357 118 380.5Q143 404 164.5 417Q186 430 204 434Q222 438 234 438Q261 438 281.5 426Q302 414 316 398L332 439Q337 450 346.5 455Q356 460 367 458Q378 456 385 447Q392 438 391 427Q391 421 389.5 411.5Q388 402 386 388Q381 353 374.5 299.5Q368 246 368 190Q368 130 378 90Q388 50 408 35Q419 27 420.5 15Q422 3 414 -7Q405 -19 390 -19Q380 -19 371 -13Q349 3 335.5 29.5Q322 56 315.5 89Q309 122 307.5 161Q306 200 309 242ZM287 334Q280 346 267 361.5Q254 377 234 377Q206 377 174.5 350Q143 323 116.5 283Q90 243 72.5 198.5Q55 154 55 119Q55 84 78 84Q88 84 104 90Q120 96 141 114Q162 132 188 165.5Q214 199 246 255Q269 296 287 334Z" glyph-name="a.fina" horiz-adv-x="471" /><glyph d="M169 23Q101 -35 50 -35Q26 -35 12 -25.5Q-2 -16 -10 -6Q-26 17 -26 56Q-26 82 -18.5 115.5Q-11 149 2.5 186.5Q16 224 35.5 263.5Q55 303 79 342Q128 420 176 468Q239 526 288 526Q309 526 324.5 516Q340 506 350 491.5Q360 477 365.5 460Q371 443 373 430Q375 418 367.5 408Q360 398 347 396Q335 394 325 401.5Q315 409 313 422Q312 428 310 435Q308 442 304.5 449Q301 456 296.5 460.5Q292 465 288 465Q275 465 257 454.5Q239 444 219 424Q175 382 131 310Q110 275 92 239.5Q74 204 61.5 170.5Q49 137 42 107.5Q35 78 35 56Q35 38 38.5 32Q42 26 50 26Q58 26 76.5 33Q95 40 129 69Q152 89 177.5 116Q203 143 232 177Q282 237 310 277Q338 317 352 338Q358 348 369 351Q380 354 391 349Q402 344 405.5 333.5Q409 323 406 312Q404 303 402 267.5Q400 232 402 178Q405 111 412 82Q419 53 423 48Q431 39 431 26.5Q431 14 423 5Q414 -4 401.5 -4Q389 -4 380 5Q377 8 371.5 15Q366 22 360.5 39.5Q355 57 350 88.5Q345 120 342 171Q341 182 340.5 193.5Q340 205 340 216Q326 198 311 178.5Q296 159 279 139Q219 65 169 23Z" glyph-name="a.fina1" horiz-adv-x="483" /><glyph d="M317 165Q312 188 309.5 202Q307 216 305 227L300 218Q237 72 163 33Q136 18 108 18Q89 18 71.5 25.5Q54 33 40.5 46.5Q27 60 18 79Q9 98 7 122Q4 160 15.5 205.5Q27 251 52 297Q78 344 110.5 378.5Q143 413 178 430Q237 459 284 439Q301 432 313 421Q325 410 332.5 399.5Q340 389 343.5 380.5Q347 372 348 369Q349 364 350.5 347Q352 330 355 305Q358 280 362 248.5Q366 217 374 183Q388 117 401 90Q414 63 419 59Q429 51 431.5 39.5Q434 28 427 17Q420 6 408 3.5Q396 1 385 9Q382 11 375.5 17Q369 23 360 39.5Q351 56 340 85.5Q329 115 317 165ZM260 383Q252 386 243 386Q228 386 204 375Q178 362 152 334Q126 306 106 268Q86 230 75.5 193Q65 156 67 127Q68 109 77 94Q86 79 108 79Q120 79 134 87Q160 101 184.5 135Q209 169 229 209Q249 249 264 289Q279 329 287 356Q284 363 277.5 370.5Q271 378 260 383Z" glyph-name="a.fina2" horiz-adv-x="460" /><glyph d="M331 439Q335 450 345 455Q355 460 366 458Q377 456 384 447Q391 438 390 427Q390 421 389.5 405.5Q389 390 390 369Q391 348 392 322.5Q393 297 396 270Q399 235 403 209.5Q407 184 412 166Q416 150 421 141Q426 132 437 130Q452 126 490.5 150.5Q529 175 594 231L607 166Q587 147 564 128Q541 109 517.5 94Q494 79 471.5 70Q449 61 431 61Q404 59 387 77Q370 95 360 126Q351 152 345.5 186Q340 220 335 264Q334 271 333.5 277.5Q333 284 333 291Q325 275 316.5 259Q308 243 298 226Q185 23 77 23Q51 23 35 32.5Q19 42 11 53Q-7 78 -7 119Q-7 161 12.5 214.5Q32 268 65 318Q91 357 116 380.5Q141 404 163 417Q185 430 203 434Q221 438 233 438Q260 438 280.5 426Q301 414 315 398ZM286 334Q279 346 265.5 361.5Q252 377 233 377Q204 377 172.5 350Q141 323 115 283Q89 243 71.5 198.5Q54 154 54 119Q54 97 58.5 90.5Q63 84 77 84Q87 84 102.5 90Q118 96 139 114Q160 132 186.5 165.5Q213 199 245 255Q268 296 286 334Z" glyph-name="a.low" horiz-adv-x="475" /><glyph d="M340 215Q326 197 311 178Q296 159 280 139Q217 64 169 23Q101 -36 51 -36Q26 -36 12 -26.5Q-2 -17 -10 -6Q-26 18 -26 56Q-26 82 -18.5 115Q-11 148 2.5 185.5Q16 223 35.5 263Q55 303 79 342Q103 380 127.5 412Q152 444 177 467Q238 526 289 526Q310 526 325 516Q340 506 350.5 491Q361 476 366.5 459.5Q372 443 374 430Q376 417 368 407Q360 397 348 395Q335 393 325 401Q315 409 313 421Q311 433 304.5 449Q298 465 289 465Q266 465 223.5 428Q181 391 131 310Q110 275 92.5 239.5Q75 204 62 170Q49 136 42 106.5Q35 77 35 56Q35 38 39 31.5Q43 25 51 25Q59 25 77.5 32.5Q96 40 129 69Q152 89 177.5 115.5Q203 142 232 177Q282 237 313 281Q344 325 352 338Q359 348 369.5 351Q380 354 391 349Q402 344 406 333Q410 322 406 311Q404 304 401.5 271.5Q399 239 401 195Q403 161 407 134Q407 105 428 101Q445 96 492 123.5Q539 151 613 215L626 150Q605 129 579 109Q553 89 526.5 74Q500 59 474.5 49.5Q449 40 429 40Q395 40 375 60.5Q355 81 349 113Q344 138 342 164Q340 190 340 215Z" glyph-name="a.low1" horiz-adv-x="506" /><glyph d="M314 179Q310 196 308.5 207Q307 218 305 227L300 218Q237 72 163 33Q136 18 108 18Q89 18 71.5 25.5Q54 33 40.5 46.5Q27 60 18 79Q9 98 7 122Q4 160 15.5 205.5Q27 251 52 297Q78 344 110.5 378.5Q143 413 178 430Q237 459 284 439Q301 432 313 421Q325 410 332.5 399.5Q340 389 343.5 380.5Q347 372 348 369Q349 364 350.5 347.5Q352 331 354.5 307Q357 283 361.5 253Q366 223 373 190Q378 168 382.5 150Q387 132 392 118Q396 104 409 101Q418 99 434.5 106.5Q451 114 474.5 129Q498 144 528.5 165Q559 186 595 210L608 145Q587 131 561 113Q535 95 508.5 79Q482 63 456.5 51.5Q431 40 410 40Q383 40 364.5 54Q346 68 337 91Q330 110 324.5 131.5Q319 153 314 179ZM260 383Q252 386 243 386Q228 386 204 375Q178 362 152 334Q126 306 106 268Q86 230 75.5 193Q65 156 67 127Q68 109 77 94Q86 79 108 79Q120 79 134 87Q160 101 184.5 135Q209 169 229 209Q249 249 264 289Q279 329 287 356Q284 363 277.5 370.5Q271 378 260 383Z" glyph-name="a.low2" horiz-adv-x="495" /><glyph d="M633 250Q614 217 590.5 180.5Q567 144 542 113.5Q517 83 491.5 63Q466 43 444 43Q434 43 421 47Q408 51 395 65Q352 111 337 264Q336 271 335.5 277.5Q335 284 335 291Q327 275 318.5 259Q310 243 300 226Q187 23 79 23Q35 23 15 49.5Q-5 76 -5 119Q-5 161 14.5 214.5Q34 268 67 318Q93 357 118 380.5Q143 404 165 417Q187 430 205 434Q223 438 235 438Q262 438 282.5 426Q303 414 317 398L333 439Q337 450 347 455Q357 460 368 458Q379 456 386 447Q393 438 392 427Q392 421 391.5 405.5Q391 390 392 369Q393 348 394 322.5Q395 297 398 270Q402 225 407.5 195Q413 165 419 146.5Q425 128 430.5 119Q436 110 439 107Q443 103 444 103Q456 103 470 117Q484 131 501 154Q522 184 542 215.5Q562 247 580 280Q586 291 598.5 294Q611 297 622 291Q632 286 635.5 273.5Q639 261 633 250ZM235 377Q206 377 174.5 350Q143 323 117 283Q91 243 73.5 198.5Q56 154 56 119Q56 105 58 98.5Q60 92 62 90Q63 88 66.5 86Q70 84 79 84Q89 84 104.5 90Q120 96 141 114Q162 132 188.5 165.5Q215 199 247 255Q270 296 288 334Q281 346 267.5 361.5Q254 377 235 377ZM194 515Q192 515 191 514.5Q190 514 188 514Q177 514 168.5 520.5Q160 527 158 538Q155 551 162 561.5Q169 572 181 575Q222 583 248 603Q274 623 290 640Q298 650 311 650Q324 650 333 642Q342 633 342.5 620.5Q343 608 335 599Q329 593 317 581.5Q305 570 287.5 557Q270 544 246.5 532.5Q223 521 194 515Z" glyph-name="aacute" horiz-adv-x="537" unicode="&#225;" /><glyph d="M663 250Q613 164 576 113.5Q539 63 512 37Q485 11 466.5 3.5Q448 -4 435 -4Q424 -4 408.5 1.5Q393 7 379 27Q368 42 361 63.5Q354 85 349.5 110.5Q345 136 342.5 162.5Q340 189 340 215Q326 197 311 178Q296 159 280 139Q217 64 169 23Q101 -36 51 -36Q26 -36 12 -26.5Q-2 -17 -10 -6Q-26 18 -26 56Q-26 82 -18.5 115Q-11 148 2.5 185.5Q16 223 35.5 263Q55 303 79 342Q103 380 127.5 412Q152 444 177 467Q238 526 289 526Q310 526 325 516Q340 506 350.5 491Q361 476 366.5 459.5Q372 443 374 430Q376 417 368 407Q360 397 348 395Q335 393 325 401Q315 409 313 421Q311 433 304.5 449Q298 465 289 465Q266 465 223.5 428Q181 391 131 310Q110 275 92.5 239.5Q75 204 62 170Q49 136 42 106.5Q35 77 35 56Q35 38 39 31.5Q43 25 51 25Q59 25 77.5 32.5Q96 40 129 69Q152 89 177.5 115.5Q203 142 232 177Q282 237 313 281Q344 325 352 338Q359 348 369.5 351Q380 354 391 349Q402 344 406 333Q410 322 406 311Q404 304 401.5 271.5Q399 239 401 195Q403 147 410.5 112Q418 77 429 62Q432 57 435 57Q438 58 449 64Q460 70 481 92.5Q502 115 534 159Q566 203 610 280Q616 291 628.5 294Q641 297 652 291Q662 286 666 273.5Q670 261 663 250ZM260 595Q258 595 257 594.5Q256 594 254 594Q243 594 234.5 600.5Q226 607 224 618Q221 631 228 641.5Q235 652 247 655Q288 663 314 683Q340 703 356 720Q364 730 377 730Q390 730 399 722Q408 713 408.5 700.5Q409 688 401 679Q395 673 383 661.5Q371 650 353.5 637Q336 624 312.5 612.5Q289 601 260 595Z" glyph-name="aacute.alt1" horiz-adv-x="566" /><glyph d="M666 250Q659 237 650.5 221Q642 205 630.5 185Q619 165 604 141Q589 117 568 87Q544 51 524.5 30Q505 9 489.5 -2Q474 -13 462.5 -16Q451 -19 442 -19Q397 -19 365.5 29.5Q334 78 314 179Q311 191 309 203.5Q307 216 305 227L300 218Q237 72 163 33Q136 18 108 18Q89 18 71.5 25.5Q54 33 40.5 46.5Q27 60 18 79Q9 98 7 122Q4 160 15.5 205.5Q27 251 52 297Q78 344 110.5 378.5Q143 413 178 430Q237 459 284 439Q301 432 313 421Q325 410 332.5 399.5Q340 389 343.5 380.5Q347 372 348 369Q349 364 351 347Q353 330 355.5 305.5Q358 281 362.5 251Q367 221 373 190Q382 146 392 117.5Q402 89 411.5 72Q421 55 429 48Q437 41 442 41Q451 41 470.5 62Q490 83 519 123Q539 151 555.5 177.5Q572 204 584 225Q596 246 603 260.5Q610 275 613 280Q619 291 631.5 294Q644 297 655 291Q665 286 668.5 273.5Q672 261 666 250ZM260 383Q252 386 243 386Q228 386 204 375Q178 362 152 334Q126 306 106 268Q86 230 75.5 193Q65 156 67 127Q68 109 77 94Q86 79 108 79Q120 79 134 87Q160 101 184.5 135Q209 169 229 209Q249 249 264 289Q279 329 287 356Q284 363 277.5 370.5Q271 378 260 383ZM224 526Q222 526 221 525.5Q220 525 218 525Q207 525 198.5 531.5Q190 538 188 549Q185 562 192 572.5Q199 583 211 586Q252 594 278 614Q304 634 320 651Q328 661 341 661Q354 661 363 653Q372 644 372.5 631.5Q373 619 365 610Q359 604 347 592.5Q335 581 317.5 568Q300 555 276.5 543.5Q253 532 224 526Z" glyph-name="aacute.alt2" horiz-adv-x="569" /><glyph d="M300 226Q186 23 78 23Q52 23 36.5 32.5Q21 42 13 53Q-6 78 -6 119Q-6 161 13.5 214.5Q33 268 67 318Q93 357 118 380.5Q143 404 164.5 417Q186 430 204 434Q222 438 234 438Q261 438 281.5 426Q302 414 316 398L332 439Q337 450 346.5 455Q356 460 367 458Q378 456 385 447Q392 438 391 427Q391 421 389.5 411.5Q388 402 386 388Q381 353 374.5 299.5Q368 246 368 190Q368 130 378 90Q388 50 408 35Q419 27 420.5 15Q422 3 414 -7Q405 -19 390 -19Q380 -19 371 -13Q349 3 335.5 29.5Q322 56 315.5 89Q309 122 307.5 161Q306 200 309 242ZM287 334Q280 346 267 361.5Q254 377 234 377Q206 377 174.5 350Q143 323 116.5 283Q90 243 72.5 198.5Q55 154 55 119Q55 84 78 84Q88 84 104 90Q120 96 141 114Q162 132 188 165.5Q214 199 246 255Q269 296 287 334ZM194 515Q192 515 191 514.5Q190 514 188 514Q177 514 168.5 520.5Q160 527 158 538Q155 551 162 561.5Q169 572 181 575Q222 583 248 603Q274 623 290 640Q298 650 311 650Q324 650 333 642Q342 633 342.5 620.5Q343 608 335 599Q329 593 317 581.5Q305 570 287.5 557Q270 544 246.5 532.5Q223 521 194 515Z" glyph-name="aacute.fina" horiz-adv-x="471" /><glyph d="M169 23Q101 -35 50 -35Q26 -35 12 -25.5Q-2 -16 -10 -6Q-26 17 -26 56Q-26 82 -18.5 115.5Q-11 149 2.5 186.5Q16 224 35.5 263.5Q55 303 79 342Q128 420 176 468Q239 526 288 526Q309 526 324.5 516Q340 506 350 491.5Q360 477 365.5 460Q371 443 373 430Q375 418 367.5 408Q360 398 347 396Q335 394 325 401.5Q315 409 313 422Q312 428 310 435Q308 442 304.5 449Q301 456 296.5 460.5Q292 465 288 465Q275 465 257 454.5Q239 444 219 424Q175 382 131 310Q110 275 92 239.5Q74 204 61.5 170.5Q49 137 42 107.5Q35 78 35 56Q35 38 38.5 32Q42 26 50 26Q58 26 76.5 33Q95 40 129 69Q152 89 177.5 116Q203 143 232 177Q282 237 310 277Q338 317 352 338Q358 348 369 351Q380 354 391 349Q402 344 405.5 333.5Q409 323 406 312Q404 303 402 267.5Q400 232 402 178Q405 111 412 82Q419 53 423 48Q431 39 431 26.5Q431 14 423 5Q414 -4 401.5 -4Q389 -4 380 5Q377 8 371.5 15Q366 22 360.5 39.5Q355 57 350 88.5Q345 120 342 171Q341 182 340.5 193.5Q340 205 340 216Q326 198 311 178.5Q296 159 279 139Q219 65 169 23ZM260 595Q258 595 257 594.5Q256 594 254 594Q243 594 234.5 600.5Q226 607 224 618Q221 631 228 641.5Q235 652 247 655Q288 663 314 683Q340 703 356 720Q364 730 377 730Q390 730 399 722Q408 713 408.5 700.5Q409 688 401 679Q395 673 383 661.5Q371 650 353.5 637Q336 624 312.5 612.5Q289 601 260 595Z" glyph-name="aacute.fina1" horiz-adv-x="483" /><glyph d="M317 165Q312 188 309.5 202Q307 216 305 227L300 218Q237 72 163 33Q136 18 108 18Q89 18 71.5 25.5Q54 33 40.5 46.5Q27 60 18 79Q9 98 7 122Q4 160 15.5 205.5Q27 251 52 297Q78 344 110.5 378.5Q143 413 178 430Q237 459 284 439Q301 432 313 421Q325 410 332.5 399.5Q340 389 343.5 380.5Q347 372 348 369Q349 364 350.5 347Q352 330 355 305Q358 280 362 248.5Q366 217 374 183Q388 117 401 90Q414 63 419 59Q429 51 431.5 39.5Q434 28 427 17Q420 6 408 3.5Q396 1 385 9Q382 11 375.5 17Q369 23 360 39.5Q351 56 340 85.5Q329 115 317 165ZM260 383Q252 386 243 386Q228 386 204 375Q178 362 152 334Q126 306 106 268Q86 230 75.5 193Q65 156 67 127Q68 109 77 94Q86 79 108 79Q120 79 134 87Q160 101 184.5 135Q209 169 229 209Q249 249 264 289Q279 329 287 356Q284 363 277.5 370.5Q271 378 260 383ZM224 526Q222 526 221 525.5Q220 525 218 525Q207 525 198.5 531.5Q190 538 188 549Q185 562 192 572.5Q199 583 211 586Q252 594 278 614Q304 634 320 651Q328 661 341 661Q354 661 363 653Q372 644 372.5 631.5Q373 619 365 610Q359 604 347 592.5Q335 581 317.5 568Q300 555 276.5 543.5Q253 532 224 526Z" glyph-name="aacute.fina2" horiz-adv-x="460" /><glyph d="M331 439Q335 450 345 455Q355 460 366 458Q377 456 384 447Q391 438 390 427Q390 421 389.5 405.5Q389 390 390 369Q391 348 392 322.5Q393 297 396 270Q399 235 403 209.5Q407 184 412 166Q416 150 421 141Q426 132 437 130Q452 126 490.5 150.5Q529 175 594 231L607 166Q587 147 564 128Q541 109 517.5 94Q494 79 471.5 70Q449 61 431 61Q404 59 387 77Q370 95 360 126Q351 152 345.5 186Q340 220 335 264Q334 271 333.5 277.5Q333 284 333 291Q325 275 316.5 259Q308 243 298 226Q185 23 77 23Q51 23 35 32.5Q19 42 11 53Q-7 78 -7 119Q-7 161 12.5 214.5Q32 268 65 318Q91 357 116 380.5Q141 404 163 417Q185 430 203 434Q221 438 233 438Q260 438 280.5 426Q301 414 315 398ZM286 334Q279 346 265.5 361.5Q252 377 233 377Q204 377 172.5 350Q141 323 115 283Q89 243 71.5 198.5Q54 154 54 119Q54 97 58.5 90.5Q63 84 77 84Q87 84 102.5 90Q118 96 139 114Q160 132 186.5 165.5Q213 199 245 255Q268 296 286 334ZM194 515Q192 515 191 514.5Q190 514 188 514Q177 514 168.5 520.5Q160 527 158 538Q155 551 162 561.5Q169 572 181 575Q222 583 248 603Q274 623 290 640Q298 650 311 650Q324 650 333 642Q342 633 342.5 620.5Q343 608 335 599Q329 593 317 581.5Q305 570 287.5 557Q270 544 246.5 532.5Q223 521 194 515Z" glyph-name="aacute.low" horiz-adv-x="475" /><glyph d="M340 215Q326 197 311 178Q296 159 280 139Q217 64 169 23Q101 -36 51 -36Q26 -36 12 -26.5Q-2 -17 -10 -6Q-26 18 -26 56Q-26 82 -18.5 115Q-11 148 2.5 185.5Q16 223 35.5 263Q55 303 79 342Q103 380 127.5 412Q152 444 177 467Q238 526 289 526Q310 526 325 516Q340 506 350.5 491Q361 476 366.5 459.5Q372 443 374 430Q376 417 368 407Q360 397 348 395Q335 393 325 401Q315 409 313 421Q311 433 304.5 449Q298 465 289 465Q266 465 223.5 428Q181 391 131 310Q110 275 92.5 239.5Q75 204 62 170Q49 136 42 106.5Q35 77 35 56Q35 38 39 31.5Q43 25 51 25Q59 25 77.5 32.5Q96 40 129 69Q152 89 177.5 115.5Q203 142 232 177Q282 237 313 281Q344 325 352 338Q359 348 369.5 351Q380 354 391 349Q402 344 406 333Q410 322 406 311Q404 304 401.5 271.5Q399 239 401 195Q403 161 407 134Q407 105 428 101Q445 96 492 123.5Q539 151 613 215L626 150Q605 129 579 109Q553 89 526.5 74Q500 59 474.5 49.5Q449 40 429 40Q395 40 375 60.5Q355 81 349 113Q344 138 342 164Q340 190 340 215ZM260 595Q258 595 257 594.5Q256 594 254 594Q243 594 234.5 600.5Q226 607 224 618Q221 631 228 641.5Q235 652 247 655Q288 663 314 683Q340 703 356 720Q364 730 377 730Q390 730 399 722Q408 713 408.5 700.5Q409 688 401 679Q395 673 383 661.5Q371 650 353.5 637Q336 624 312.5 612.5Q289 601 260 595Z" glyph-name="aacute.low1" horiz-adv-x="506" /><glyph d="M314 179Q310 196 308.5 207Q307 218 305 227L300 218Q237 72 163 33Q136 18 108 18Q89 18 71.5 25.5Q54 33 40.5 46.5Q27 60 18 79Q9 98 7 122Q4 160 15.5 205.5Q27 251 52 297Q78 344 110.5 378.5Q143 413 178 430Q237 459 284 439Q301 432 313 421Q325 410 332.5 399.5Q340 389 343.5 380.5Q347 372 348 369Q349 364 350.5 347.5Q352 331 354.5 307Q357 283 361.5 253Q366 223 373 190Q378 168 382.5 150Q387 132 392 118Q396 104 409 101Q418 99 434.5 106.5Q451 114 474.5 129Q498 144 528.5 165Q559 186 595 210L608 145Q587 131 561 113Q535 95 508.5 79Q482 63 456.5 51.5Q431 40 410 40Q383 40 364.5 54Q346 68 337 91Q330 110 324.5 131.5Q319 153 314 179ZM260 383Q252 386 243 386Q228 386 204 375Q178 362 152 334Q126 306 106 268Q86 230 75.5 193Q65 156 67 127Q68 109 77 94Q86 79 108 79Q120 79 134 87Q160 101 184.5 135Q209 169 229 209Q249 249 264 289Q279 329 287 356Q284 363 277.5 370.5Q271 378 260 383ZM224 526Q222 526 221 525.5Q220 525 218 525Q207 525 198.5 531.5Q190 538 188 549Q185 562 192 572.5Q199 583 211 586Q252 594 278 614Q304 634 320 651Q328 661 341 661Q354 661 363 653Q372 644 372.5 631.5Q373 619 365 610Q359 604 347 592.5Q335 581 317.5 568Q300 555 276.5 543.5Q253 532 224 526Z" glyph-name="aacute.low2" horiz-adv-x="495" /><glyph d="M633 250Q614 217 590.5 180.5Q567 144 542 113.5Q517 83 491.5 63Q466 43 444 43Q434 43 421 47Q408 51 395 65Q352 111 337 264Q336 271 335.5 277.5Q335 284 335 291Q327 275 318.5 259Q310 243 300 226Q187 23 79 23Q35 23 15 49.5Q-5 76 -5 119Q-5 161 14.5 214.5Q34 268 67 318Q93 357 118 380.5Q143 404 165 417Q187 430 205 434Q223 438 235 438Q262 438 282.5 426Q303 414 317 398L333 439Q337 450 347 455Q357 460 368 458Q379 456 386 447Q393 438 392 427Q392 421 391.5 405.5Q391 390 392 369Q393 348 394 322.5Q395 297 398 270Q402 225 407.5 195Q413 165 419 146.5Q425 128 430.5 119Q436 110 439 107Q443 103 444 103Q456 103 470 117Q484 131 501 154Q522 184 542 215.5Q562 247 580 280Q586 291 598.5 294Q611 297 622 291Q632 286 635.5 273.5Q639 261 633 250ZM235 377Q206 377 174.5 350Q143 323 117 283Q91 243 73.5 198.5Q56 154 56 119Q56 105 58 98.5Q60 92 62 90Q63 88 66.5 86Q70 84 79 84Q89 84 104.5 90Q120 96 141 114Q162 132 188.5 165.5Q215 199 247 255Q270 296 288 334Q281 346 267.5 361.5Q254 377 235 377ZM373 511Q367 506 356 506Q341 506 331 519Q314 543 295.5 563.5Q277 584 268 589Q265 588 258.5 585.5Q252 583 241 575.5Q230 568 212.5 554.5Q195 541 171 520Q162 511 149 512Q136 513 128 522Q120 532 120.5 544.5Q121 557 131 565Q181 610 213 629.5Q245 649 268 650Q285 651 304.5 638.5Q324 626 347 598Q361 581 371 567.5Q381 554 381 553Q389 542 386.5 530Q384 518 373 511Z" glyph-name="acircumflex" horiz-adv-x="537" unicode="&#226;" /></font>
</defs>
</svg>
