<svg xmlns="http://www.w3.org/2000/svg" viewBox="0 0 1714.6 249.88"><defs><style>.cls-1{fill:#fff;}.cls-2{fill:#a7a8aa;}.cls-3,.cls-4,.cls-5,.cls-6,.cls-8{fill:none;stroke-linejoin:round;}.cls-3,.cls-4,.cls-5{stroke:#000;}.cls-3,.cls-4,.cls-6,.cls-8{stroke-linecap:round;}.cls-3{stroke-width:2.26px;}.cls-4,.cls-5,.cls-8{stroke-width:2.25px;}.cls-5{stroke-linecap:square;}.cls-6{stroke:#fff;stroke-width:2px;}.cls-7{fill:#060808;}.cls-8{stroke:#060808;}</style></defs><title>illo-A</title><g id="Layer_2" data-name="Layer 2"><g id="illo-A"><polygon class="cls-1" points="1129.59 124.54 1131.62 98.47 1150.26 98.21 1149.33 108.45 1132.8 110.39 1132.25 125.39 1129.59 124.54"/><path class="cls-2" d="M1091.51,156.21l20.67-33.16,36-.19L1173.9,156Z"/><polygon class="cls-2" points="1070.5 138.11 1083.08 117.52 1093.95 138.11 1070.5 138.11"/><rect class="cls-3" x="165.89" y="23.04" width="29.28" height="15.87"/><line class="cls-3" x1="186.09" y1="23.04" x2="186.09" y2="38.91"/><line class="cls-3" x1="174.49" y1="23.04" x2="174.49" y2="38.91"/><polygon class="cls-2" points="186.88 59.59 202.66 59.59 205.54 142.19 181.29 150.98 186.88 59.59"/><polygon class="cls-1" points="152.61 150.29 158.97 60.35 186.88 59.59 181.29 150.98 152.61 150.29"/><polygon class="cls-2" points="187.88 77.58 158.63 65.16 158.97 60.35 191.89 60.35 187.88 77.58"/><path class="cls-1" d="M148.14,59.59l-2.23-15.75a3.32,3.32,0,0,1,3.25-3.78c14.34-.1,64.59-.32,67.41,1.81,3.28,2.49-11,19-11,19S151.09,61.24,148.14,59.59Z"/><path d="M170.2,76h0A1.82,1.82,0,0,1,172,77.8v7.73a0,0,0,0,1,0,0h-3.63a0,0,0,0,1,0,0V77.8A1.82,1.82,0,0,1,170.2,76Z"/><path d="M172,105H168.2V97.35a1.86,1.86,0,0,1,1.86-1.86h.09A1.86,1.86,0,0,1,172,97.35Z"/><path d="M171.59,124.08l-3.81.45v-7.68a1.87,1.87,0,0,1,1.86-1.87h.09a1.87,1.87,0,0,1,1.86,1.87Z"/><polygon points="187.89 14.51 173 14.51 169.69 23.39 192.97 22.94 187.89 14.51"/><path d="M180.67,0h0a2,2,0,0,1,2,2V15.36a0,0,0,0,1,0,0h-4.09a0,0,0,0,1,0,0V2A2,2,0,0,1,180.67,0Z"/><polygon points="195.17 32.3 165.89 30.97 165.89 38.91 195.17 38.91 195.17 32.3"/><path d="M480.09,198.2c-3.22-1.49-10.88-1.91-10.88-1.91s.89,6.62,5.79,9.71c3,1.89,9.75,0,9.75,0S484.91,200.43,480.09,198.2Z"/><path d="M490.83,203.28c2.24-1.27,8-.64,8-.64s-2.57,5.46-4.87,6.63-7-.66-7-.66A7.48,7.48,0,0,1,490.83,203.28Z"/><path d="M489.61,188.78a37.14,37.14,0,0,1,6.34-1.57s-2.57,5.11-4.49,6.42S486,194,486,194,485.4,190.55,489.61,188.78Z"/><path d="M477.51,193.76c-1.86-1.32-4.4-6-4.4-6s4.5-.06,6.45,1.13a7.22,7.22,0,0,1,3.14,5.76S479.37,195.08,477.51,193.76Z"/><path d="M480.05,184.6c-4.12-1-4.12-4.25-4.12-4.25s4.3-.13,6,.8,2.94,4.09,2.94,4.09A35.72,35.72,0,0,1,480.05,184.6Z"/><path d="M481.93,177.84c-1.31-.71-2.88-3.58-2.88-3.58s3.48-.57,4.79.13,1.94,3.55,1.94,3.55S483.23,178.54,481.93,177.84Z"/><path d="M491.09,184.54a8.29,8.29,0,0,0,3.71-3.5s-3.74-.76-5.28-.11-2.68,3.52-2.68,3.52S489.61,185.32,491.09,184.54Z"/><path d="M490.32,177.81a9.77,9.77,0,0,0,2.55-2.41s-2.57-.53-3.63-.08-1.85,2.42-1.85,2.42A5.81,5.81,0,0,0,490.32,177.81Z"/><path d="M482.9,170.82c-1-.7-2.21-3.57-2.21-3.57s2.68-.57,3.68.13,1.49,3.55,1.49,3.55S483.9,171.53,482.9,170.82Z"/><path d="M489.1,171.09a9.49,9.49,0,0,0,1.77-2.64s-2-.28-2.78.27-1.23,2.59-1.23,2.59A3.41,3.41,0,0,0,489.1,171.09Z"/><path d="M488.39,162.21c.44-2.31-1.79-4.18-1.79-4.18a8.16,8.16,0,0,0-1.57,4.31c0,1.25,1.94,2.75,1.94,2.75A8.32,8.32,0,0,0,488.39,162.21Z"/><path d="M537.24,207.29c2.91-2.26,10.36-4.56,10.36-4.56s.26,6.72-4,11c-2.62,2.59-9.58,2.42-9.58,2.42S532.89,210.67,537.24,207.29Z"/><path d="M527.24,208.05c-2-2.25-8.53-3.69-8.53-3.69s.75,7,2.83,9.2,8,1.89,8,1.89A8.83,8.83,0,0,0,527.24,208.05Z"/><path d="M529.33,195.65a42.26,42.26,0,0,0-6.29-4.19s.8,6.66,2.37,8.86,5.83,2.47,5.83,2.47S533.23,199.24,529.33,195.65Z"/><path d="M541.2,198.53c1.91-1.84,4.08-7.68,4.08-7.68s-5.17.64-7.21,2.34c-3.3,2.75-2.68,7.22-2.68,7.22S539.28,200.36,541.2,198.53Z"/><path d="M540.65,188c4.54-1.87,4-5.66,4-5.66s-4.93.59-6.76,2-2.64,5.28-2.64,5.28A41.26,41.26,0,0,0,540.65,188Z"/><path d="M541.62,179.76c1.25-1.19,2.14-4.92,2.14-4.92s-4.07.38-5.32,1.57-1.1,4.61-1.1,4.61S540.38,181,541.62,179.76Z"/><path d="M528.29,187.74a9.62,9.62,0,0,1-2-5.6s4.27,1.12,5.53,2.6.94,5.09.94,5.09S529.42,189.32,528.29,187.74Z"/><path d="M530,179.08c-1.3-1.53-2.34-5.57-2.34-5.57s4.11,1.41,5.41,2.94,1.28,5,1.28,5S531.32,180.61,530,179.08Z"/><path d="M541,171.14c1.35-1.31,2.82-5.47,2.82-5.47s-3.77.39-5.12,1.7-1.82,5.14-1.82,5.14S539.61,172.46,541,171.14Z"/><path d="M530.59,170.81c-.74-1.16-.87-4.6-.87-4.6s2.9.63,3.64,1.79.16,4.25.16,4.25S531.33,172,530.59,170.81Z"/><path d="M536.28,159.81c-1.5,2.87.1,6.18.1,6.18a12.39,12.39,0,0,0,3.62-5.06c.56-1.64-.89-4.35-.89-4.35A12.48,12.48,0,0,0,536.28,159.81Z"/><path d="M1589.57,150.24s2.71,15.88,1.58,19.63a.74.74,0,0,1-.16.27c-2.19,2.34-3.3,3-3.83,3.18a.62.62,0,0,0-.42.6v.66a.65.65,0,0,0,.65.65h3.34a.65.65,0,0,0,.52-.26l3-4a.69.69,0,0,0,.13-.29c.24-1.62,2.22-15,0-16.77S1589.57,150.24,1589.57,150.24Z"/><path d="M1545.34,138.71s2.42,10.14,2.73,12.89c.36,3.11,2.38,13.84,2.78,16a.62.62,0,0,1-.22.61l-4.64,3.9a.66.66,0,0,0-.23.5v1.18a.65.65,0,0,0,.64.65h3.54a.65.65,0,0,0,.55-.3l3.32-5.17a.65.65,0,0,0,.1-.36V150.24S1550.78,145.4,1545.34,138.71Z"/><path d="M1606,150.6c-6.48-7.72-4.92-12.3-4.32-19.78.88-15.69-14.29-15-28-15s-8.62-2-14.38-2.79-8.15,1.15-11.2,1.15-5.57-7.87-11.59-7.87c-4.55,0-21.72,13.21-21.72,17.8s7.26,1.9,10.86,1.9,6.52,2.39,11.52-.48c0,5.47,19,19.15,19,27.25l2.69,17.55a.63.63,0,0,1-.17.54l-4.28,4.45a.65.65,0,0,0-.18.37l-.16,1.19a.65.65,0,0,0,.64.73h4.7a.64.64,0,0,0,.58-.36c.7-1.46,3.26-6.87,3.26-8.05,0-1.37.09-15.88.09-19.77,0-6.56,21.1-2,23.35-2s8.73,4.45,12.68,9.35c3.63,4.49,2.38,12.9,2.16,14.24a.65.65,0,0,1-.16.32l-4.8,5.33a.63.63,0,0,0-.17.43v1.61a.66.66,0,0,0,.65.65h4.37a.65.65,0,0,0,.6-.41l4-9.71a.53.53,0,0,0,0-.17C1606.12,167.92,1607.43,154.53,1606,150.6Zm-71.21-32.07c-1.66,0-3-1.63-3-3.63a.82.82,0,1,1,1.63,0c0,1.08.63,2,1.38,2s1.37-.91,1.37-2a.82.82,0,1,1,1.63,0C1537.78,116.9,1536.43,118.53,1534.78,118.53Z"/><path class="cls-2" d="M601.56,225.2l35.57-38.56a1.85,1.85,0,0,1,2.67-.06l12.76,12.77a1.84,1.84,0,0,1,.13,2.48c-2.75,3.34-10.33,12.39-16.46,18.29-5.6,5.4,2.91,7.83,11.28-.87,11.19-11.63,59.88-67,68.47-76.8a1.85,1.85,0,0,1,2.69-.08l32.75,32.75a1.86,1.86,0,0,1,0,2.62l-32.73,32.72c-11,11-3.4,15.32,10.55,1.36l40.38-40.37a1.85,1.85,0,0,1,2.55-.07c6.37,5.81,35.23,30.93,61,34a1.85,1.85,0,0,1,.85,3.35C788.89,239.6,709.64,239.7,679.41,239.7c-26.52,0-65.76-8.8-76.92-11.44A1.85,1.85,0,0,1,601.56,225.2Z"/><path class="cls-1" d="M769.62,171.45l-13.43,13.42a1.85,1.85,0,0,0,2.12,3l2.31-1.12a1.85,1.85,0,0,1,2.64,1.92l-.66,4.79a1.86,1.86,0,0,0,3.3,1.39l4.35-5.61a1.84,1.84,0,0,1,3,.14c2.23,3.51,6.35,9.84,6.35,8.74v-9.46a1.85,1.85,0,0,1,2.22-1.81l2.39.48a1.85,1.85,0,0,0,1.63-3.17l-13.67-12.73A1.85,1.85,0,0,0,769.62,171.45Z"/><path class="cls-1" d="M716,142.46l-21.22,24.13a1.85,1.85,0,0,0,2.21,2.88l4.86-2.43a1.86,1.86,0,0,1,2.68,1.8L704,175a1.85,1.85,0,0,0,3.45,1.07l5.35-9.16a1.86,1.86,0,0,1,3.27.12l.14.29a1.85,1.85,0,0,0,3.47-.4l.5-2.2a1.85,1.85,0,0,1,2.87-1.11c2.84,2,7.43,5.29,7.95,5.8s.36-2.4.21-4.7a1.84,1.84,0,0,1,2.4-1.88l.75.23a1.85,1.85,0,0,0,1.86-3.07l-17.58-17.58A1.85,1.85,0,0,0,716,142.46Z"/><path class="cls-1" d="M630.89,195.25l6.14-8.16a1.84,1.84,0,0,1,2.9-.07l5.49,6.59a1.85,1.85,0,0,1-1.85,3h0a1.85,1.85,0,0,0-2.17,1.15l-.35.92a1.85,1.85,0,0,1-3.32.3l-.57-1a1.87,1.87,0,0,0-2.37-.73l-1.65.77A1.85,1.85,0,0,1,630.89,195.25Z"/><path class="cls-4" d="M561.59,227.74c7.8,0,30.28.22,35.71-.25,10.8-.93,32.1-31.39,39.83-40.85a1.82,1.82,0,0,1,2.67-.06l12.74,12.75a1.84,1.84,0,0,1,.11,2.51c-2,2.28-6.46,7.39-13.08,14-9.08,9.07-1.73,13.07,7.94,3.4,7.77-7.77,59.56-66.66,68.47-76.79a1.84,1.84,0,0,1,2.69-.09l32.75,32.75a1.86,1.86,0,0,1,0,2.62l-32.73,32.72c-9.07,9.08-3.4,15.32,7.66,4.25l43.31-43.3a1.83,1.83,0,0,1,2.53-.08c13.67,12.81,47.8,40.92,103.62,40.92S1046,177,1070.5,177c21,0-1.17,21.38,0,0"/><path class="cls-5" d="M1497.49,95.53c40.54-43.95-26.51-75.27,3.6-5.1,4.14,9.65,23.28,3.14,29.78-10.06,24.91-50.6-24.51-65.61-2,3.94,1.88,5.8,12.69,17.87,22.37.59,26.46-47.22-15.6-50.68-.87,1.48,2.33,8.26,9.51,10.09,21.71-1.48,26.08-24.72-17.3-50.31,0,5.3,2.61,8.39,13.08,2.55,23.46-9.45,18.59-21.49-10.91-43.92-4.78,4.89,0,18.89,30.26,53.53,122.67,53.53"/><path class="cls-4" d="M1070.5,176.62V138.11l14.88-24.34,14,24.34v64.95h-7.88V156.21l20.67-33.16h40.6l28.12,33.16v54.91h-7v-9.63s192.55,28.07,323.59-106"/><path class="cls-5" d="M561.59,227.74c-156.59,0-289.81-40.26-392.23-40.26-87.11,0-61.79-33.08-40.77-37.32-5.79,3.48-23.63,22.76,42.86,22.76s53.76-32.38,42.21-32.38c5.77,10.39-6.23,20.93-38.52,20.93-31.7,0-39.8-6.3-34-11.27,7.93-6.74,8.54-11-5.93-11H1.12"/><rect class="cls-1" x="1081.55" y="148.18" width="2.44" height="7.81"/><rect class="cls-1" x="1081.55" y="166.1" width="2.44" height="7.81"/><rect class="cls-1" x="1117.64" y="166.1" width="2.44" height="7.81"/><rect class="cls-1" x="1132.99" y="166.1" width="2.44" height="7.81"/><rect class="cls-1" x="1117.64" y="181.3" width="2.44" height="7.81"/><rect class="cls-1" x="1134.32" y="181.3" width="2.44" height="7.81"/><rect class="cls-1" x="1152.89" y="166.1" width="2.44" height="7.81"/><path d="M1010.72,145.13s5.62,9.8,5.27,9.7-4.21.19-4.21.19l3.48,5.81h-3.61l-.07,6.84-3.29.36.64-7.74h-4.22l4.6-5.72-4.6-.52Z"/><path d="M903.15,158.32s-11.06,15.62-10.37,15.44,8.45.2,8.45.2l-6.88,9.26,8.42-.1-1.1,13.6,4.91-.79.47-13.72,8.46-.11-9.34-8.9,9.22-.94Z"/><path d="M943.28,192.25c.15-1.28.82-22.88.82-22.88h7.1l-8.33-9.45,6.15.86L941.44,149l4.09-.76-6.1-6.68L935.16,149h3.2l-5.94,11.6,7.16-.25-9.27,8.78h9.12l-2.18,23.59Z"/><polygon points="977.56 127.49 980.61 135.19 978.32 135.19 983.67 145.52 977.33 145.27 985.9 153.59 977.24 153.4 986.9 161.61 977.5 161.61 977.33 177.52 972.72 176.58 972.33 162.62 964.7 162.66 972.98 152.84 967.37 152.06 974.51 145.27 969.54 144.8 976.01 135.15 972.63 135.02 977.56 127.49"/><path class="cls-1" d="M418.19,181.11a59.33,59.33,0,0,0-7.41-3.67,49.34,49.34,0,0,0-7.9-2.41c-2.7-.59-5.46-.95-8.26-1.35a46.39,46.39,0,0,1-8.38-1.79,125.78,125.78,0,0,1-15.4-7.18c-5-2.55-10-5.06-15.34-6.46a30.38,30.38,0,0,0-8.13-1.08,23,23,0,0,0-4.05.41c-1.35.27-2.68.61-4,1a58.1,58.1,0,0,1-8.28,2,41.46,41.46,0,0,1-8.55.3c-5.71-.41-11.19-1.78-16.7-2.73a62.37,62.37,0,0,0-16.62-1A.56.56,0,1,1,289,156a62.8,62.8,0,0,1,16.94.93c5.57.92,11.05,2.25,16.58,2.6a39.43,39.43,0,0,0,8.27-.34,58.87,58.87,0,0,0,8.08-2c1.34-.42,2.73-.78,4.14-1.08a26.06,26.06,0,0,1,4.32-.46,31.4,31.4,0,0,1,8.54,1.07c5.57,1.42,10.7,4,15.72,6.49s10,5.19,15.18,7,10.89,1.77,16.48,3a50.5,50.5,0,0,1,8.23,2.45,62.21,62.21,0,0,1,7.7,3.75,1,1,0,0,1,.38,1.37,1,1,0,0,1-1.36.38h0Z"/><path class="cls-6" d="M409.91,184.65C393.51,175,391,179.11,381,174.55,370.39,169.73,362.27,162,351.9,160c-9.56-1.84-20.34,2.17-32.61,1.69"/><path class="cls-6" d="M402,187.5c-16.39-9.61-18.88-5.54-28.9-10.1-10.61-4.82-18.73-12.58-29.11-14.58"/><path class="cls-2" d="M404.55,167c-9.37-.18-80.37-3.18-97.52-12.28C314,165,360.91,178.71,404.55,167Z"/><path class="cls-1" d="M404.55,167c-29-15.55-60.09-25.65-97.52-12.28C330.61,163.58,367.28,169.26,404.55,167Z"/><path class="cls-4" d="M370.55,138c-2.58,1.7-4.41,3.23-7.62,5.79-9.05,7.22,9.42,11.18-.26-.72-4.23-5.48-5.48-7.52-8.87-5.69-5,2.68-7.71,3.93-11.87,1.87-13.3-6.62,7-16.76,3.15.55-.54,2.47-3.43,3-5.89,3.83-1.89.61-3.44,2-3.28,3.78.25,3,3.16,10.6,5.48,13,6,6.14,6-9.38-2.75-1.2-3.46,3.24-16.3,12.72-20.09,15.09-7.72.66-17.16,4.75-21.19,7.34,4.19,6.65,7.88,8.5,7.88,8.5s7.7-7.73,11.22-11.9"/><polygon points="1441.69 177.94 1446.68 163.64 1455.11 165.31 1455.19 176.76 1441.69 177.94"/><polygon points="1418.22 190.56 1420.84 181.24 1477.27 177.94 1479.84 184.71 1418.22 190.56"/><polygon points="1434.66 194.22 1434.77 191.96 1462.91 188.12 1465.11 195.52 1434.66 194.22"/><polygon points="1430.23 203.48 1433.15 197.12 1456.67 198.39 1456.7 201.47 1430.23 203.48"/><path d="M1422.79,212.26l1.26-7,43.23-1.26s3.1,10.64,2,10.08S1422.79,212.26,1422.79,212.26Z"/><polygon points="1429.33 214.1 1440.68 214.77 1439.75 233.09 1422.79 233.09 1429.33 214.1"/><polygon points="1452.4 232.11 1453.84 215.63 1461.57 215.83 1467.49 233.09 1452.4 232.11"/><path class="cls-2" d="M1275.37,128.59c7.34-13.91,26.43-56.95,30.88-65.58a1.41,1.41,0,0,1,1.91-.6l0,0a1.4,1.4,0,0,1,.64,1.8l-30.78,71.89a4,4,0,0,1-2.62,2.29L1259.11,143a1.87,1.87,0,0,1-2.36-2l.85-7.67a1.89,1.89,0,0,1,1.51-1.64Z"/><polygon class="cls-1" points="1267.12 140.75 1264.49 141.93 1263.42 130.85 1265.27 130.39 1267.12 140.75"/><polygon class="cls-1" points="1272.66 139.46 1269.37 140.12 1268.37 129.69 1270.74 129.1 1272.66 139.46"/><path class="cls-1" d="M1302.24,121.33c-5.23-17.76-17.24-71.8-20.39-82.89a1.68,1.68,0,0,0-2.1-1.15h0a1.69,1.69,0,0,0-1.19,2l18.89,90.52a3.73,3.73,0,0,0,2.11,2.64L1323,143.08a2.09,2.09,0,0,0,2.93-1.61l1.29-9a2.08,2.08,0,0,0-1.33-2.25Z"/><polygon class="cls-7" points="1303.84 134.36 1309.91 124.21 1312.33 124.53 1306.19 136.19 1303.84 134.36"/><polygon class="cls-7" points="1309.43 136.45 1314.89 126.09 1317.44 127.05 1312.33 138.22 1309.43 136.45"/><polygon class="cls-7" points="1314.89 139.26 1320.5 128.2 1322.48 128.94 1317.44 141.02 1314.89 139.26"/><path class="cls-7" d="M1274.48,164.88c0-2.22-4.19-4-9.35-4s-9.36,1.8-9.36,4,2.21,5,8.4,5C1269.34,169.86,1274.48,167.1,1274.48,164.88Z"/><path class="cls-7" d="M1255.5,169.87c4,2.43,12.68,3.39,19.93-1,0,4.33-1,5.28-1,5.28s-10.3,2.95-18.71-.34A24.38,24.38,0,0,1,1255.5,169.87Z"/><polygon class="cls-1" points="77.97 216.04 75.34 216.04 74.03 209.59 77.97 209.59 77.97 216.04"/><path class="cls-8" d="M65.35,232.16c-.27-3-3.62-3.92-9.42-4.35,4.88-4.26-1.18-11.94-9.11-11.94A9.88,9.88,0,0,0,37,225.65c0,5.25,6.24,12.86,22.66,10.73,19.25-2.49,24,13.53-.35,12.31C37,247.57,22.59,237.26,22.59,218.62c0-27.12,36-22.92,36-22.92l1.93-5.2c10.84,0,19.9,8,22.11,14.26-5,4.29-6.27,5.35-6.27,5.35l-8.2-2.23-3.26,3.61c3.86,3.84,2.17,2.33,4.81,4.79,3.59,3.35-.1,7.35-4.78,3.87-3.11-2.3-5.76-4.67-5.76-4.67"/><polygon class="cls-7" points="77.47 197.41 74.35 203.63 78.34 208.44 82.24 204.5 77.47 197.41"/><polygon class="cls-7" points="65.55 198.08 71.39 198.05 68.06 200.68 65.55 198.08"/></g></g></svg>