<svg xmlns="http://www.w3.org/2000/svg" viewBox="0 0 1714.6 278.25"><defs><style>.cls-1,.cls-2,.cls-3,.cls-6,.cls-7,.cls-8{fill:none;stroke-linecap:round;stroke-linejoin:round;}.cls-1,.cls-6,.cls-7,.cls-8{stroke:#fff;}.cls-1{stroke-width:2.04px;}.cls-2,.cls-3{stroke:#000;}.cls-2,.cls-8{stroke-width:2.25px;}.cls-3{stroke-width:2.26px;}.cls-4{fill:#a7a8aa;}.cls-5{fill:#fff;}.cls-6{stroke-width:2.5px;}.cls-7{stroke-width:2px;}</style></defs><title>image2</title><g id="Layer_2" data-name="Layer 2"><g id="option_3_wrap_around" data-name="option 3 wrap around"><path class="cls-1" d="M851.76,110.61c-13.14-16.24,19.23-27.22,18-1.77,11.6-20,38.81-.67,20.36,8.22,13.19,18.5-19.2,37.51-30.77,14.65-12.42-19.43,25.22-13.35-2.24.25C837.55,141.67,818.08,105.79,851.76,110.61Z"/><path class="cls-2" d="M1382.68,81.05l.53-4.66,5.14-4.65,4.46,5.21L1393,85l-21.42.29,5.26,4.36c6.84,0,19.29-.39,22.18-.39s5.94-3.42,5.94-4.72h-8.16s-3.26,12.5-6.76,12.5-6.65-4.08-6.65-4.08l1.23,5-7.12,1s3.44,10.21,5.74,11.87a43.38,43.38,0,0,1,5.82,0s4.58-11.2,6.28-12.9H1400s-3.17,9.36-6.18,13.32c0,0,4.72,6.9,5.13,11.65l-21.45-.36,3.84-7.84"/><path d="M1389.27,162.53l.6-37.42,9.54.3s3.1,3.81,3.1,5.33c0,2.47-3.24,4.7-5.26,5.48-1.47,3.66-5.76,26.31-5.76,26.31Z"/><path d="M1387.69,162.8l.63-37.9-10.28.3s-3.1,3.8-3.1,5.33c0,2.47,3.24,4.7,5.26,5.48,5,26.52,5,26.79,5,26.79Z"/><polygon points="1379.57 165.66 1387.69 165.66 1387.69 162.53 1385.21 162.8 1379.57 165.66"/><polygon points="1397.39 165.66 1389.27 165.66 1389.27 162.53 1391.63 161.51 1397.39 165.66"/><rect class="cls-3" x="1144.21" y="114.42" width="21.05" height="11.41"/><line class="cls-3" x1="1158.73" y1="114.42" x2="1158.73" y2="125.82"/><line class="cls-3" x1="1150.39" y1="114.42" x2="1150.39" y2="125.82"/><polygon class="cls-4" points="1159.3 140.69 1170.65 140.69 1172.72 200.06 1155.29 206.38 1159.3 140.69"/><polygon class="cls-5" points="1134.67 202.89 1139.24 141.24 1159.3 140.69 1155.29 206.38 1134.67 202.89"/><polygon class="cls-4" points="1160.03 153.62 1139 144.69 1139.24 141.24 1162.9 141.24 1160.03 153.62"/><path class="cls-5" d="M1131.45,140.69l-1.6-11.32a2.38,2.38,0,0,1,2.34-2.71c10.3-.08,46.43-.24,48.45,1.29,2.36,1.79-7.92,13.64-7.92,13.64S1133.58,141.87,1131.45,140.69Z"/><path d="M1147.31,152.48h0a1.31,1.31,0,0,1,1.31,1.31v5.56a0,0,0,0,1,0,0H1146a0,0,0,0,1,0,0v-5.56A1.31,1.31,0,0,1,1147.31,152.48Z"/><path d="M1148.62,173.36h-2.75v-5.53a1.34,1.34,0,0,1,1.34-1.34h.07a1.34,1.34,0,0,1,1.34,1.34Z"/><path d="M1148.31,187.05l-2.74.32v-5.52a1.34,1.34,0,0,1,1.34-1.34h.07a1.34,1.34,0,0,1,1.33,1.34Z"/><polygon points="1160.03 108.29 1149.33 108.29 1146.95 114.67 1163.68 114.35 1160.03 108.29"/><path d="M1154.84,97.86h0a1.47,1.47,0,0,1,1.47,1.47v9.57a0,0,0,0,1,0,0h-2.94a0,0,0,0,1,0,0V99.33A1.47,1.47,0,0,1,1154.84,97.86Z"/><polygon points="1165.26 121.08 1144.21 120.12 1144.21 125.82 1165.26 125.82 1165.26 121.08"/><path d="M1273.48,174.88c-2.69-.65-8.6.2-8.6.2s1.69,4.92,5.9,6.53c2.58,1,7.45-1.48,7.45-1.48S1277.49,175.84,1273.48,174.88Z"/><path d="M1282.45,177.11c1.51-1.31,6-1.71,6-1.71s-1.13,4.56-2.71,5.8-5.48.58-5.48.58A5.83,5.83,0,0,1,1282.45,177.11Z"/><path d="M1279.3,166.23a29.45,29.45,0,0,1,4.59-2.17s-1.18,4.3-2.44,5.59-4.12,1.08-4.12,1.08S1276.35,168.22,1279.3,166.23Z"/><path d="M1270.83,171.88c-1.62-.72-4.28-3.89-4.28-3.89s3.43-.74,5.1-.12a5.61,5.61,0,0,1,3.28,3.91S1272.45,172.6,1270.83,171.88Z"/><path d="M1271.37,164.5c-3.3-.12-3.8-2.61-3.8-2.61s3.26-.76,4.73-.31,2.87,2.67,2.87,2.67A27.33,27.33,0,0,1,1271.37,164.5Z"/><path d="M1271.76,159.06c-1.1-.34-2.74-2.29-2.74-2.29s2.57-1,3.67-.63,2,2.41,2,2.41A5.5,5.5,0,0,1,1271.76,159.06Z"/><path d="M1279.78,162.77a6.45,6.45,0,0,0,2.29-3.23s-3,0-4,.72-1.51,3.1-1.51,3.1S1278.77,163.59,1279.78,162.77Z"/><path d="M1278.16,157.75a7.56,7.56,0,0,0,1.58-2.23,7.16,7.16,0,0,0-2.79.5c-.74.51-1,2.13-1,2.13A4.5,4.5,0,0,0,1278.16,157.75Z"/><path d="M1271.43,153.56a9.15,9.15,0,0,1-2.23-2.39s2-.85,2.83-.46,1.68,2.47,1.68,2.47S1272.3,153.94,1271.43,153.56Z"/><path d="M1276.2,152.81a7.34,7.34,0,0,0,1-2.28,4.13,4.13,0,0,0-2.08.63,4.44,4.44,0,0,0-.55,2.16A2.66,2.66,0,0,0,1276.2,152.81Z"/><path d="M1274.3,146.15c0-1.84-2-2.92-2-2.92a6.32,6.32,0,0,0-.54,3.53c.19,1,1.9,1.8,1.9,1.8A6.44,6.44,0,0,0,1274.3,146.15Z"/><path d="M1318.47,173.07c1.88-2.17,7.21-5.07,7.21-5.07s1.23,5.09-1.39,9c-1.61,2.38-6.94,3.31-6.94,3.31A7.32,7.32,0,0,1,1318.47,173.07Z"/><path d="M1311,175.18c-1.85-1.42-7.08-1.51-7.08-1.51s1.66,5.26,3.57,6.59,6.37.22,6.37.22A6.86,6.86,0,0,0,1311,175.18Z"/><path d="M1310.65,165.4a33.32,33.32,0,0,0-5.44-2.24s1.63,5,3.17,6.4,4.82,1,4.82,1S1314.18,167.54,1310.65,165.4Z"/><path d="M1320.15,165.78c1.18-1.7,1.94-6.48,1.94-6.48s-3.85,1.28-5.14,2.89a6.62,6.62,0,0,0-.94,5.91S1319,167.47,1320.15,165.78Z"/><path d="M1318.13,157.84c3.17-2.12,2.15-4.92,2.15-4.92s-3.67,1.2-4.85,2.55-1.21,4.42-1.21,4.42A32,32,0,0,0,1318.13,157.84Z"/><path d="M1317.6,151.39c.77-1.1.88-4.08.88-4.08s-3,.91-3.82,2-.13,3.69-.13,3.69S1316.83,152.49,1317.6,151.39Z"/><path d="M1308.65,159.52a7.54,7.54,0,0,1-2.4-4s3.43.2,4.62,1.13,1.5,3.74,1.5,3.74S1309.76,160.56,1308.65,159.52Z"/><path d="M1308.65,152.65a14.79,14.79,0,0,1-2.64-3.89s3.35.45,4.58,1.41,1.74,3.62,1.74,3.62A8.31,8.31,0,0,1,1308.65,152.65Z"/><path d="M1315.78,144.92c.83-1.21,1.32-4.61,1.32-4.61s-2.82.87-3.65,2.08-.6,4.21-.6,4.21A5.6,5.6,0,0,0,1315.78,144.92Z"/><path d="M1307.81,146.25a10.71,10.71,0,0,1-1.36-3.38s2.31,0,3,.81.77,3.22.77,3.22A3.73,3.73,0,0,1,1307.81,146.25Z"/><path d="M1310.47,137a5.94,5.94,0,0,0,1,4.7,9.75,9.75,0,0,0,2-4.42c.17-1.33-1.35-3.18-1.35-3.18A9.78,9.78,0,0,0,1310.47,137Z"/><path d="M227.49,156.74s-2.71,15.85-1.57,19.59a.72.72,0,0,0,.15.27c2.19,2.33,3.3,3,3.82,3.17a.62.62,0,0,1,.43.6V181a.65.65,0,0,1-.65.65h-3.34a.62.62,0,0,1-.51-.26l-3-4a.5.5,0,0,1-.12-.29c-.25-1.61-2.23-15,0-16.73S227.49,156.74,227.49,156.74Z"/><path d="M271.63,145.23s-2.41,10.12-2.72,12.87c-.36,3.1-2.38,13.81-2.78,15.93a.64.64,0,0,0,.22.61l4.64,3.89a.66.66,0,0,1,.23.5v1.17a.65.65,0,0,1-.65.65H267a.65.65,0,0,1-.55-.3l-3.31-5.16a.64.64,0,0,1-.1-.35v-18.3S266.21,151.91,271.63,145.23Z"/><path d="M280.46,112.9c-6,0-8.52,7.86-11.56,7.86s-5.44-1.94-11.18-1.15-.66,2.83-14.35,2.78-28.84-.69-28,15c.61,7.47,2.16,12-4.31,19.74-1.43,3.92-.13,17.29,0,18.48a.55.55,0,0,0,0,.17l4,9.69a.64.64,0,0,0,.6.41h4.36a.65.65,0,0,0,.65-.65v-1.6a.66.66,0,0,0-.17-.44l-4.79-5.31a.58.58,0,0,1-.16-.32c-.23-1.34-1.47-9.73,2.15-14.22,3.94-4.88,10.41-9.33,12.66-9.33s23.3-1.94,23.3,2,.09,18.37.09,19.73c0,1.18,2.55,6.58,3.25,8a.63.63,0,0,0,.58.36h4.69a.64.64,0,0,0,.64-.73l-.16-1.18a.65.65,0,0,0-.18-.37l-4.27-4.44a.65.65,0,0,1-.17-.55l2.68-17.51c0-8.08,18.92-21.73,18.92-27.19,5,2.86,7.91.48,11.5.48s10.84,2.69,10.84-1.89S285,112.9,280.46,112.9Zm1.71,12.2c-1.65,0-3-1.63-3-3.63a.81.81,0,1,1,1.62,0c0,1.07.63,2,1.37,2s1.38-.91,1.38-2a.81.81,0,1,1,1.62,0C285.17,123.47,283.83,125.1,282.17,125.1Z"/><path class="cls-2" d="M316.07,103.08c-33.05-54.91,33.9-32.5-5.6-.23-8.13,6.64-11.28-1.73-17.78-14.92-24.91-50.6,24.51-65.61,2,3.94-1.88,5.79-12.69,17.87-22.37.59-26.46-47.22,15.6-50.68.87,1.47-2.33,8.27-9.52,10.09-21.71-1.47-26.08-24.73,17.3-50.32,0,5.29-2.61,8.4-13.08,2.56-23.46-9.45-18.6-21.48,10.91-43.92,4.77,4.89,0,35.29-70.5,77.19-231.63,62.11"/><path class="cls-2" d="M512,179.8c-39.54,10.07-112.4,40.7-195.92-76.72"/><polygon class="cls-5" points="825.7 173.75 827.73 147.69 846.37 147.43 845.44 157.67 828.91 159.61 828.36 174.6 825.7 173.75"/><path class="cls-4" d="M792.44,205.43l20.67-33.17,36-.18,25.68,33.13Z"/><polygon class="cls-4" points="771.43 177.32 784.01 156.73 794.88 177.32 771.43 177.32"/><path class="cls-2" d="M771.43,225.83V177.32L786.31,153l14,24.34v75h-7.87V205.43l20.67-33.17h40.6l28.12,33.17v48.1c0,45.91-30.25,10.69,4.45,10.69,199,0,214.37-31.89,289.46-31.89,65.51,0,48.62-25.22,27.7-30.12,5.79,3.48,28.64,20.76-37.85,20.76s-71-27.38-52.22-27.38c-5.77,10.39,12.74,17.44,45,17.44,31.7,0,37.65-4.53,31.81-9.5-7.92-6.75-7.21-9.31,11.58-9.31h111.32c52.73,0,85.37-12.27,123-27.1,14.63-5.77,25.79-10.29,39.43-4.22,24.17,10.75-2.54,20.94,2.27,1.42,4.51-18.34,11.56-25.68,17-31.23,18.28-18.67,14.09,13.26,0,0-3.3-3.11-24.11-22.93-24.11-22.93l15.22,2.33-14.62-22.65,12.83,3.36-4.59-16.93L1495.34,91l2.11-13.15,12.6,23.79,20-38,3.89,14.24,23.43-14.24-8.8,26.21,13.68,2-33.49,26.49,34.32,5.84-14.8,6.84,19.91,9.68-21.23.58,9.3,11.58-29.1-7.84,1.13,17s-7.63-5-21.86-19.59c0,0-15.88-.42-15.88,24.55,0,10.95,26.49,26.68,67.08,13.79,43-13.65,105.38-31.69,155.84-25.43"/><rect class="cls-5" x="782.47" y="197.39" width="2.44" height="7.81"/><rect class="cls-5" x="782.69" y="183.04" width="2.44" height="7.81"/><rect class="cls-5" x="782.47" y="215.32" width="2.44" height="7.81"/><rect class="cls-5" x="818.57" y="215.32" width="2.44" height="7.81"/><rect class="cls-5" x="833.92" y="215.32" width="2.44" height="7.81"/><rect class="cls-5" x="818.57" y="230.52" width="2.44" height="7.81"/><rect class="cls-5" x="835.25" y="230.52" width="2.44" height="7.81"/><rect class="cls-5" x="835.25" y="250.65" width="2.44" height="7.81"/><rect class="cls-5" x="853.82" y="215.32" width="2.44" height="7.81"/><path class="cls-6" d="M1482.57,20.66c4.36-15.68-17.78-16.74-19.77-4.57-9.76-10.38-23.34,2-14.42,9-16.56,4.28,3.27,33,21.92,9.35,12.93-11.23-15.61-12.8,1.37.92C1489.47,49.75,1516.74,18.44,1482.57,20.66Z"/><path class="cls-5" d="M929.46,233a62.28,62.28,0,0,1,7.7-3.76,51.48,51.48,0,0,1,8.23-2.44c5.59-1.22,11.28-1.31,16.48-3s10.17-4.45,15.18-7,10.15-5.07,15.72-6.49a31.41,31.41,0,0,1,8.54-1.08,26.07,26.07,0,0,1,4.32.47c1.41.3,2.79.66,4.14,1.07a57.12,57.12,0,0,0,8.08,2,39.41,39.41,0,0,0,8.27.35c5.53-.35,11-1.68,16.58-2.61a62.8,62.8,0,0,1,16.94-.92.56.56,0,0,1,.5.61.58.58,0,0,1-.62.5,61.55,61.55,0,0,0-16.62,1c-5.51,1-11,2.32-16.7,2.73a41.46,41.46,0,0,1-8.55-.3,58.56,58.56,0,0,1-8.29-2,41.39,41.39,0,0,0-4-1,23,23,0,0,0-4.06-.41,30.31,30.31,0,0,0-8.12,1.08c-5.34,1.4-10.36,3.9-15.34,6.46s-10,5.26-15.4,7.18A48.36,48.36,0,0,1,954,227.3c-2.8.4-5.56.76-8.26,1.35a49.3,49.3,0,0,0-7.9,2.4,59.39,59.39,0,0,0-7.41,3.68h0a1,1,0,0,1-1.36-.37,1,1,0,0,1,.37-1.37Z"/><path class="cls-7" d="M938.75,238.27c16.4-9.62,18.88-5.55,28.91-10.1,10.61-4.82,18.73-12.59,29.1-14.58,9.56-1.84,20.34,2.17,32.61,1.69"/><path class="cls-7" d="M946.69,241.12c16.4-9.62,18.89-5.54,28.91-10.1,10.61-4.82,18.73-12.59,29.11-14.58"/><path class="cls-4" d="M944.11,220.62c9.37-.19,80.37-3.18,97.52-12.29C1034.64,218.58,987.75,232.33,944.11,220.62Z"/><path class="cls-5" d="M944.11,220.62c29-15.56,60.09-25.65,97.52-12.29C1018.05,217.19,981.38,222.88,944.11,220.62Z"/><path class="cls-2" d="M978.11,191.65c2.58,1.7,4.41,3.23,7.62,5.79,9,7.22-9.42,11.17.25-.72,4.23-5.49,5.49-7.52,8.88-5.69,5,2.67,7.71,3.93,11.87,1.86,13.3-6.61-7-16.75-3.15.55.54,2.47,3.43,3,5.89,3.83,1.89.61,3.44,1.95,3.28,3.78-.25,3-3.16,10.6-5.48,13-6,6.14-6-9.38,2.75-1.21,3.46,3.25,16.29,12.72,20.09,15.1,7.72.65,17.16,4.74,21.19,7.34-4.19,6.65-7.88,8.49-7.88,8.49s-7.7-7.72-11.22-11.9"/><polygon points="685.93 156.27 681.9 144.72 675.1 146.08 675.03 155.32 685.93 156.27"/><polygon points="704.88 166.47 702.77 158.94 657.2 156.27 655.12 161.74 704.88 166.47"/><polygon points="691.61 169.42 691.52 167.6 668.8 164.5 667.01 170.47 691.61 169.42"/><polygon points="695.18 176.9 692.83 171.77 673.84 172.79 673.81 175.27 695.18 176.9"/><path d="M701.19,184l-1-5.66-34.9-1s-2.51,8.59-1.66,8.14S701.19,184,701.19,184Z"/><polygon points="695.91 185.47 686.75 186.02 687.5 210.82 701.19 213.82 695.91 185.47"/><polygon points="677.28 205.02 676.12 186.71 669.88 186.87 665.1 200.81 677.28 205.02"/><path class="cls-8" d="M147.73,22.92C140.26,5.17,171.38-6.81,168.26,9.21c9.3-13.1,30.7-8.48,16.1,1.11,18.35-1.49,25.18,36.37-15.88,24.76-16.66-5.24,14.3-20.41,2.9,1.28C158.22,61.42,128.32,48.17,128.43,33,128.51,21.73,138.17,14.63,147.73,22.92Z"/><path d="M1454.18,214.65c-4.39-2.1-7.65-5.4-7.13-12,.17-4.33.66-5.25,2-5.9,1.21-2-2.11-2.52-6.52-2.61a32.08,32.08,0,0,0-7.14,1v2s3.37,2.23,3.82,3.62,2.09,9.2-5.59,13.08-10.38,6.63-10.38,15-.2,11.1,3.52,11.91,11.72,1.62,15.38,1,15.87-1.32,16-7.46S1458.58,216.75,1454.18,214.65Zm-3.75,11.81-5.94,2.32,2.86,1.84h-4.71v4.13h-1.78l.55-4.13h-4.55l2.86-1.84-5.87-1.64,2-.7-2.4-2h3.48l-1.26-2.06,4.17,1.75-.15-6.06,1.48,1.82,1.59-3.72.47,4.06,2.42-2.16-.83,5.6,3.72-1-1.11,1.46,3.29-.14-2.31,2.44Z"/><path d="M1439.32,192.7l-.72-6.15a9.17,9.17,0,0,1,7.54-.61c0,5.68-.51,7.09-.51,7.09A16.1,16.1,0,0,0,1439.32,192.7Z"/><path d="M1440.08,203.4c-.54-.2-1.23-.41-1.89-.58s-1.36-.31-2-.43a30.75,30.75,0,0,0-4.13-.48,16.63,16.63,0,0,0-4,.29,6,6,0,0,0-3,1.47,4,4,0,0,0-.92,2.92,12.56,12.56,0,0,0,.87,3.78c.25.64.55,1.28.84,1.91s.64,1.25,1,1.87.72,1.23,1.11,1.83l.6.9.29.45a.32.32,0,0,0,.28.14,1.66,1.66,0,0,0,.67-.14L1426,220a1.87,1.87,0,0,0,.37-.6.33.33,0,0,0,0-.33l-.32-.47-.63-.94c-.42-.63-.81-1.3-1.21-2s-.74-1.35-1.11-2-.67-1.41-1-2.14a15.33,15.33,0,0,1-1.21-4.79,6.79,6.79,0,0,1,0-1.35,6.26,6.26,0,0,1,.25-1.39,6.92,6.92,0,0,1,1.36-2.6,9.49,9.49,0,0,1,4.68-2.7A20.4,20.4,0,0,1,1432,198a35.09,35.09,0,0,1,4.71.16c.78.07,1.56.17,2.33.3a21.72,21.72,0,0,1,2.42.46Z"/><path class="cls-4" d="M520.43,196s7,44.78,0,51.8c10.89,8.19,31.51,14.88,32.34,14.88s8.63-42.85,8.63-42.85Z"/><path class="cls-5" d="M587.62,205.56c-3.37-6.36-13.16-8.52-21.54-11.64,1.18,1.2,2.33,2.43,3.4,3.73A46.63,46.63,0,0,1,580,224.19a64.76,64.76,0,0,1-.83,14.26,64.75,64.75,0,0,0,.08-14.19,45.06,45.06,0,0,0-11.44-25.14,56.27,56.27,0,0,0-8.49-7.53c-3.27-1-6.59-2-9.88-2.81,1,.89,2.05,1.8,3,2.74a63.71,63.71,0,0,1,10.1,12,43.3,43.3,0,0,1,6,14.41,41.09,41.09,0,0,1,.21,15.47,40.8,40.8,0,0,0-.94-15.3,42.37,42.37,0,0,0-6.51-13.74,61.58,61.58,0,0,0-10.36-11.16c-2.42-2.08-5-4-7.57-5.85-4.94-1.09-9.69-2-14-2.62q3.47,2.85,6.76,5.92a112.22,112.22,0,0,1,10.47,11.11A64.4,64.4,0,0,1,555,214.52a30,30,0,0,1,3.27,14.71,29.45,29.45,0,0,0-3.94-14.37,63.13,63.13,0,0,0-8.79-12.14,110.7,110.7,0,0,0-10.82-10.4c-3.53-3-7.21-5.79-11-8.4-6.58-.8-11.31-1-12.69-.62.89,5.21,18.66,20.91,25.08,25.11s19.05,17.19,16.22,39.07c-2.1,16.18-10.22,9.26-12.21,6.44C521.73,228,492.58,278,535.6,278c15.06,0,43.48-6.67,50.79-10.72C600.59,256.57,593,215.72,587.62,205.56Z"/><path class="cls-2" d="M512,179.8c16-4-4.89-18.28-1.57,1.37,1.12,6.62,7.74,12.45,22.34,24.46S552.6,224.19,552.6,244c0,12.39-8.34,25.71-21.09,25.71-7.63,0-10.81-5.47-10.81-9.39s2.37-7.1,5.87-7.1,6,4.63,2.31,8.31c4.31,0,7.85-2.81,7.85-6.89,0-5.83-5-8.21-9.49-8.21s-13.93,4.76-13.93,15.91c0,9.59,8.73,14.57,19.45,14.57,8.79,0,21.5-5.77,24.08-10.39,9.64-17.26-4.61-14-2.19,2.48.51,3.51,7.2,3.15,13.6-5.35,10.14-13.49-4.87-18.85-.3,2.09.79,3.62,8.92,4.7,13.14-3.4,10.31-19.8-5.66-17.56-.79,1.31,1.07,4.17,8.74,3,11.72-5.34,5-13.92,5.47-33.16-7.17-57.46-8-15.43-23.66-5.51,1,1.72"/><path d="M472.39,137.7s6.47,9.13,6.07,9-4.94.12-4.94.12l4,5.41-4.93-.06.65,8-2.87-.47-.28-8-4.95-.06,5.47-5.21-5.4-.55Z"/><path class="cls-2" d="M582.42,201.47c10,2.61,138.07,49.54,189,24.36"/><path d="M358.18,96.49s-5.27,9.19-4.94,9.09,3.95.18,3.95.18l-3.27,5.45h3.38l.07,6.42,3.09.33-.6-7.26h4l-4.32-5.36,4.32-.48Z"/><path d="M427,171.21c-.16-1.4-.89-25.08-.89-25.08h-7.79l9.14-10.37-6.75,1L429,123.83l-4.49-.84,6.69-7.32,4.68,8.16h-3.5l6.5,12.71-7.85-.27,10.17,9.63h-10l2.39,25.85Z"/><polygon points="384.16 99.01 381.3 106.23 383.45 106.23 378.44 115.92 384.38 115.69 376.34 123.48 384.46 123.31 375.4 131.01 384.22 131.01 384.38 145.93 388.7 145.05 389.07 131.96 396.22 132 388.45 122.78 393.72 122.06 387.02 115.69 391.68 115.25 385.61 106.19 388.78 106.07 384.16 99.01"/></g></g></svg>